<svg xmlns="http://www.w3.org/2000/svg" xmlns:xlink="http://www.w3.org/1999/xlink" contentStyleType="text/css" data-diagram-type="CLASS" height="622px" preserveAspectRatio="none" style="width:548px;height:622px;background:#FFFFFF;" version="1.1" viewBox="0 0 548 622" width="548px" zoomAndPan="magnify"><defs/><g><g class="entity" data-entity="o1" data-source-line="3" data-uid="ent0002" id="entity_o1"><rect fill="#F1F1F1" height="44.9766" rx="2.5" ry="2.5" style="stroke:#181818;stroke-width:0.5;" width="218.7529" x="8" y="132"/><text fill="#000000" font-family="sans-serif" font-size="14" lengthAdjust="spacing" textLength="94.3564" x="70.1982" y="147.5352">data:Mazak-x</text><line style="stroke:#181818;stroke-width:0.5;" x1="9" x2="225.7529" y1="152.4883" y2="152.4883"/><text fill="#000000" font-family="sans-serif" font-size="14" lengthAdjust="spacing" textLength="206.7529" x="14" y="170.0234">type = ex:LinearMotionSystem</text></g><g class="entity" data-entity="o2" data-source-line="6" data-uid="ent0003" id="entity_o2"><rect fill="#F1F1F1" height="44.9766" rx="2.5" ry="2.5" style="stroke:#181818;stroke-width:0.5;" width="178.5" x="363.76" y="35"/><text fill="#000000" font-family="sans-serif" font-size="14" lengthAdjust="spacing" textLength="164.5" x="370.76" y="50.5352">data:Mazak-enclosurem</text><line style="stroke:#181818;stroke-width:0.5;" x1="364.76" x2="541.26" y1="55.4883" y2="55.4883"/><text fill="#000000" font-family="sans-serif" font-size="14" lengthAdjust="spacing" textLength="131.7832" x="369.76" y="73.0234">type = ex:Structure</text></g><g class="entity" data-entity="o3" data-source-line="9" data-uid="ent0004" id="entity_o3"><rect fill="#F1F1F1" height="44.9766" rx="2.5" ry="2.5" style="stroke:#181818;stroke-width:0.5;" width="148.9277" x="378.54" y="343"/><text fill="#000000" font-family="sans-serif" font-size="14" lengthAdjust="spacing" textLength="134.9277" x="385.54" y="358.5352">data:Mazak-xaxism</text><line style="stroke:#181818;stroke-width:0.5;" x1="379.54" x2="526.4677" y1="363.4883" y2="363.4883"/><text fill="#000000" font-family="sans-serif" font-size="14" lengthAdjust="spacing" textLength="131.7832" x="384.54" y="381.0234">type = ex:Structure</text></g><g class="entity" data-entity="o4" data-source-line="12" data-uid="ent0005" id="entity_o4"><rect fill="#F1F1F1" height="44.9766" rx="2.5" ry="2.5" style="stroke:#181818;stroke-width:0.5;" width="218.7529" x="8" y="386"/><text fill="#000000" font-family="sans-serif" font-size="14" lengthAdjust="spacing" textLength="93.085" x="70.834" y="401.5352">data:Mazak-y</text><line style="stroke:#181818;stroke-width:0.5;" x1="9" x2="225.7529" y1="406.4883" y2="406.4883"/><text fill="#000000" font-family="sans-serif" font-size="14" lengthAdjust="spacing" textLength="206.7529" x="14" y="424.0234">type = ex:LinearMotionSystem</text></g><g class="entity" data-entity="o5" data-source-line="15" data-uid="ent0006" id="entity_o5"><rect fill="#F1F1F1" height="44.9766" rx="2.5" ry="2.5" style="stroke:#181818;stroke-width:0.5;" width="147.6563" x="379.18" y="440"/><text fill="#000000" font-family="sans-serif" font-size="14" lengthAdjust="spacing" textLength="133.6563" x="386.18" y="455.5352">data:Mazak-yaxism</text><line style="stroke:#181818;stroke-width:0.5;" x1="380.18" x2="525.8363" y1="460.4883" y2="460.4883"/><text fill="#000000" font-family="sans-serif" font-size="14" lengthAdjust="spacing" textLength="131.7832" x="385.18" y="478.0234">type = ex:Structure</text></g><g class="entity" data-entity="o6" data-source-line="18" data-uid="ent0007" id="entity_o6"><rect fill="#F1F1F1" height="44.9766" rx="2.5" ry="2.5" style="stroke:#181818;stroke-width:0.5;" width="218.7529" x="8" y="471"/><text fill="#000000" font-family="sans-serif" font-size="14" lengthAdjust="spacing" textLength="93.7959" x="70.4785" y="486.5352">data:Mazak-z</text><line style="stroke:#181818;stroke-width:0.5;" x1="9" x2="225.7529" y1="491.4883" y2="491.4883"/><text fill="#000000" font-family="sans-serif" font-size="14" lengthAdjust="spacing" textLength="206.7529" x="14" y="509.0234">type = ex:LinearMotionSystem</text></g><g class="entity" data-entity="o7" data-source-line="21" data-uid="ent0008" id="entity_o7"><rect fill="#F1F1F1" height="44.9766" rx="2.5" ry="2.5" style="stroke:#181818;stroke-width:0.5;" width="143.7832" x="381.11" y="537"/><text fill="#000000" font-family="sans-serif" font-size="14" lengthAdjust="spacing" textLength="121.2969" x="392.3532" y="552.5352">data:Mazak-zaxis</text><line style="stroke:#181818;stroke-width:0.5;" x1="382.11" x2="523.8932" y1="557.4883" y2="557.4883"/><text fill="#000000" font-family="sans-serif" font-size="14" lengthAdjust="spacing" textLength="131.7832" x="387.11" y="575.0234">type = ex:Structure</text></g><g class="entity" data-entity="o8" data-source-line="24" data-uid="ent0009" id="entity_o8"><rect fill="#F1F1F1" height="44.9766" rx="2.5" ry="2.5" style="stroke:#181818;stroke-width:0.5;" width="220.7559" x="7" y="571"/><text fill="#000000" font-family="sans-serif" font-size="14" lengthAdjust="spacing" textLength="92.9414" x="70.9072" y="586.5352">data:Mazak-c</text><line style="stroke:#181818;stroke-width:0.5;" x1="8" x2="226.7559" y1="591.4883" y2="591.4883"/><text fill="#000000" font-family="sans-serif" font-size="14" lengthAdjust="spacing" textLength="208.7559" x="13" y="609.0234">type = ex:RotaryMotionSystem</text></g><g class="entity" data-entity="o9" data-source-line="27" data-uid="ent0010" id="entity_o9"><rect fill="#F1F1F1" height="44.9766" rx="2.5" ry="2.5" style="stroke:#181818;stroke-width:0.5;" width="220.7559" x="7" y="7"/><text fill="#000000" font-family="sans-serif" font-size="14" lengthAdjust="spacing" textLength="100.3105" x="67.2227" y="22.5352">data:Mazak-br</text><line style="stroke:#181818;stroke-width:0.5;" x1="8" x2="226.7559" y1="27.4883" y2="27.4883"/><text fill="#000000" font-family="sans-serif" font-size="14" lengthAdjust="spacing" textLength="208.7559" x="13" y="45.0234">type = ex:RotaryMotionSystem</text></g><g class="entity" data-entity="o10" data-source-line="30" data-uid="ent0011" id="entity_o10"><rect fill="#F1F1F1" height="44.9766" rx="2.5" ry="2.5" style="stroke:#181818;stroke-width:0.5;" width="148.7705" x="378.62" y="120"/><text fill="#000000" font-family="sans-serif" font-size="14" lengthAdjust="spacing" textLength="134.7705" x="385.62" y="135.5352">data:Mazak-trundle</text><line style="stroke:#181818;stroke-width:0.5;" x1="379.62" x2="526.3905" y1="140.4883" y2="140.4883"/><text fill="#000000" font-family="sans-serif" font-size="14" lengthAdjust="spacing" textLength="131.7832" x="384.62" y="158.0234">type = ex:Structure</text></g><g class="entity" data-entity="o11" data-source-line="33" data-uid="ent0012" id="entity_o11"><rect fill="#F1F1F1" height="44.9766" rx="2.5" ry="2.5" style="stroke:#181818;stroke-width:0.5;" width="220.7559" x="7" y="238"/><text fill="#000000" font-family="sans-serif" font-size="14" lengthAdjust="spacing" textLength="101.7939" x="66.481" y="253.5352">data:Mazak-c2</text><line style="stroke:#181818;stroke-width:0.5;" x1="8" x2="226.7559" y1="258.4883" y2="258.4883"/><text fill="#000000" font-family="sans-serif" font-size="14" lengthAdjust="spacing" textLength="208.7559" x="13" y="276.0234">type = ex:RotaryMotionSystem</text></g><g class="entity" data-entity="o12" data-source-line="36" data-uid="ent0013" id="entity_o12"><rect fill="#F1F1F1" height="44.9766" rx="2.5" ry="2.5" style="stroke:#181818;stroke-width:0.5;" width="143.7832" x="381.11" y="263"/><text fill="#000000" font-family="sans-serif" font-size="14" lengthAdjust="spacing" textLength="119.3965" x="393.3034" y="278.5352">data:Mazak-table</text><line style="stroke:#181818;stroke-width:0.5;" x1="382.11" x2="523.8932" y1="283.4883" y2="283.4883"/><text fill="#000000" font-family="sans-serif" font-size="14" lengthAdjust="spacing" textLength="131.7832" x="387.11" y="301.0234">type = ex:Structure</text></g><!--link o1 to o2--><g class="link" data-entity-1="o1" data-entity-2="o2" data-source-line="39" data-uid="lnk14" id="link_o1_o2"><path codeLine="39" d="M227.01,135.83 C280.54,126.63 333.76,117.49 333.76,117.49 C333.76,117.49 368.1992,100.0146 401.6092,83.0646" fill="none" id="o1-to-o2" style="stroke:#181818;stroke-width:1;"/><polygon fill="#181818" points="406.96,80.35,397.1241,80.8548,402.501,82.6122,400.7436,87.9891,406.96,80.35" style="stroke:#181818;stroke-width:1;"/><text fill="#000000" font-family="sans-serif" font-size="13" lengthAdjust="spacing" textLength="74.7246" x="258.76" y="114.0584">ex:joinedTo</text></g><!--link o1 to o3--><g class="link" data-entity-1="o1" data-entity-2="o3" data-source-line="40" data-uid="lnk15" id="link_o1_o3"><path codeLine="40" d="M206.6,177.43 C266.08,192.9 333.76,210.49 333.76,210.49 C333.76,210.49 363.76,325.49 363.76,325.49 C363.76,325.49 376.2553,331.1526 395.9753,340.0926" fill="none" id="o1-to-o3" style="stroke:#181818;stroke-width:1;"/><polygon fill="#181818" points="401.44,342.57,394.8946,335.2108,396.8861,340.5055,391.5914,342.497,401.44,342.57" style="stroke:#181818;stroke-width:1;"/><text fill="#000000" font-family="sans-serif" font-size="13" lengthAdjust="spacing" textLength="74.7246" x="258.76" y="187.3484">ex:joinedTo</text></g><!--link o4 to o3--><g class="link" data-entity-1="o4" data-entity-2="o3" data-source-line="41" data-uid="lnk16" id="link_o4_o3"><path codeLine="41" d="M227.16,394.47 C276.6,388.1 327.8593,381.4977 372.1993,375.7777" fill="none" id="o4-to-o3" style="stroke:#181818;stroke-width:1;"/><polygon fill="#181818" points="378.15,375.01,368.7122,372.1944,373.1911,375.6497,369.7357,380.1286,378.15,375.01" style="stroke:#181818;stroke-width:1;"/><text fill="#000000" font-family="sans-serif" font-size="13" lengthAdjust="spacing" textLength="74.7246" x="258.76" y="378.4484">ex:joinedTo</text></g><!--link o4 to o5--><g class="link" data-entity-1="o4" data-entity-2="o5" data-source-line="42" data-uid="lnk17" id="link_o4_o5"><path codeLine="42" d="M227.16,426.1 C276.88,434.15 328.547,442.5117 372.987,449.7017" fill="none" id="o4-to-o5" style="stroke:#181818;stroke-width:1;"/><polygon fill="#181818" points="378.91,450.66,370.6644,445.2739,373.9742,449.8614,369.3867,453.1712,378.91,450.66" style="stroke:#181818;stroke-width:1;"/><text fill="#000000" font-family="sans-serif" font-size="13" lengthAdjust="spacing" textLength="74.7246" x="258.76" y="428.8284">ex:joinedTo</text></g><!--link o6 to o5--><g class="link" data-entity-1="o6" data-entity-2="o5" data-source-line="43" data-uid="lnk18" id="link_o6_o5"><path codeLine="43" d="M227.01,487.94 C280.54,485.21 333.76,482.49 333.76,482.49 C333.76,482.49 348.6944,479.9726 372.8844,475.8726" fill="none" id="o6-to-o5" style="stroke:#181818;stroke-width:1;"/><polygon fill="#181818" points="378.8,474.87,369.2581,472.4302,373.8703,475.7055,370.595,480.3177,378.8,474.87" style="stroke:#181818;stroke-width:1;"/><text fill="#000000" font-family="sans-serif" font-size="13" lengthAdjust="spacing" textLength="74.7246" x="258.76" y="479.0584">ex:joinedTo</text></g><!--link o6 to o7--><g class="link" data-entity-1="o6" data-entity-2="o7" data-source-line="44" data-uid="lnk19" id="link_o6_o7"><path codeLine="44" d="M227.16,515.01 C277.55,524.98 330.1238,535.3867 374.8038,544.2167" fill="none" id="o6-to-o7" style="stroke:#181818;stroke-width:1;"/><polygon fill="#181818" points="380.69,545.38,372.6363,539.711,375.7849,544.4106,371.0853,547.5592,380.69,545.38" style="stroke:#181818;stroke-width:1;"/><text fill="#000000" font-family="sans-serif" font-size="13" lengthAdjust="spacing" textLength="74.7246" x="258.76" y="519.1084">ex:joinedTo</text></g><!--link o8 to o7--><g class="link" data-entity-1="o8" data-entity-2="o7" data-source-line="45" data-uid="lnk20" id="link_o8_o7"><path codeLine="45" d="M228.2,595.86 C245.47,596.23 257.76,596.49 257.76,596.49 C257.76,596.49 333.76,596.49 333.76,596.49 C333.76,596.49 350.0641,591.3928 375.1041,583.5528" fill="none" id="o8-to-o7" style="stroke:#181818;stroke-width:1;"/><polygon fill="#181818" points="380.83,581.76,371.046,580.6319,376.0584,583.254,373.4363,588.2664,380.83,581.76" style="stroke:#181818;stroke-width:1;"/><text fill="#000000" font-family="sans-serif" font-size="13" lengthAdjust="spacing" textLength="74.7246" x="258.76" y="593.0584">ex:joinedTo</text></g><!--link o9 to o2--><g class="link" data-entity-1="o9" data-entity-2="o2" data-source-line="46" data-uid="lnk21" id="link_o9_o2"><path codeLine="46" d="M227.96,34.58 C281.17,37.05 333.76,39.49 333.76,39.49 C333.76,39.49 340.4083,40.5071 357.3583,43.0871" fill="none" id="o9-to-o2" style="stroke:#181818;stroke-width:1;"/><polygon fill="#181818" points="363.29,43.99,354.9944,38.6812,358.3469,43.2376,353.7906,46.5901,363.29,43.99" style="stroke:#181818;stroke-width:1;"/><text fill="#000000" font-family="sans-serif" font-size="13" lengthAdjust="spacing" textLength="74.7246" x="258.76" y="32.5384">ex:joinedTo</text></g><!--link o9 to o10--><g class="link" data-entity-1="o9" data-entity-2="o10" data-source-line="47" data-uid="lnk22" id="link_o9_o10"><path codeLine="47" d="M192.2,52.46 C254.55,71.85 333.76,96.49 333.76,96.49 C333.76,96.49 357.9585,105.904 387.6385,117.454" fill="none" id="o9-to-o10" style="stroke:#181818;stroke-width:1;"/><polygon fill="#181818" points="393.23,119.63,386.2933,112.6384,388.5704,117.8167,383.3921,120.0938,393.23,119.63" style="stroke:#181818;stroke-width:1;"/><text fill="#000000" font-family="sans-serif" font-size="13" lengthAdjust="spacing" textLength="74.7246" x="258.76" y="69.4784">ex:joinedTo</text></g><!--link o11 to o10--><g class="link" data-entity-1="o11" data-entity-2="o10" data-source-line="48" data-uid="lnk23" id="link_o11_o10"><path codeLine="48" d="M227.96,245.74 C281.17,238.57 333.76,231.49 333.76,231.49 C333.76,231.49 381.7264,195.3885 416.7564,169.0185" fill="none" id="o11-to-o10" style="stroke:#181818;stroke-width:1;"/><polygon fill="#181818" points="421.55,165.41,411.9539,167.6271,417.5553,168.4171,416.7653,174.0185,421.55,165.41" style="stroke:#181818;stroke-width:1;"/><text fill="#000000" font-family="sans-serif" font-size="13" lengthAdjust="spacing" textLength="74.7246" x="258.76" y="228.0584">ex:joinedTo</text></g><!--link o11 to o12--><g class="link" data-entity-1="o11" data-entity-2="o12" data-source-line="49" data-uid="lnk24" id="link_o11_o12"><path codeLine="49" d="M228.2,282.55 C245.47,286.02 257.76,288.49 257.76,288.49 C257.76,288.49 333.76,288.49 333.76,288.49 C333.76,288.49 349.7919,288.0809 374.8319,287.4509" fill="none" id="o11-to-o12" style="stroke:#181818;stroke-width:1;"/><polygon fill="#181818" points="380.83,287.3,371.7322,283.5276,375.8316,287.4258,371.9335,291.5251,380.83,287.3" style="stroke:#181818;stroke-width:1;"/><text fill="#000000" font-family="sans-serif" font-size="13" lengthAdjust="spacing" textLength="74.7246" x="258.76" y="285.0584">ex:joinedTo</text></g><!--SRC=[dP9DReCm48Ntd6AKFLB9Vv3I4pIR91SOm6sT60RPZeIfUlVQDOeQgz32pdwZxxrd67NbLOqIIn2yOjhK36eInbqYmLurQ0B9tzur55ooN7Eg8iekzWIp0ZMc1spn6ZSpG0MKm4S4toPxO4twObrG7iXH9wCqAoFu_0rdLIv8tIGhlS_yqUUavItNTjo3DzXmrQ6BSQZnr79YSVCZUJKkkVNKUc9owvAznMPSSEwfxIDr98tI_2CuavxVJUHjkweGh5kOfv7TvnsNJ4t7x9uzk6K9nF6psyJKpIva_qjnfhk-2FNbiBuAzVMmlWdrRO- -w-dPwVO3Xmz8_fm4Pby0]--></g></svg>