<svg xmlns="http://www.w3.org/2000/svg" xmlns:xlink="http://www.w3.org/1999/xlink" contentStyleType="text/css" data-diagram-type="CLASS" height="1850px" preserveAspectRatio="none" style="width:1236px;height:1850px;background:#FFFFFF;" version="1.1" viewBox="0 0 1236 1850" width="1236px" zoomAndPan="magnify"><defs/><g><g class="entity" data-entity="o1" data-source-line="3" data-uid="ent0002" id="entity_o1"><rect fill="#F1F1F1" height="61.4648" rx="2.5" ry="2.5" style="stroke:#181818;stroke-width:0.5;" width="211.4932" x="7" y="924.76"/><text fill="#000000" font-family="sans-serif" font-size="14" lengthAdjust="spacing" textLength="77.6699" x="73.9116" y="940.2952">data:Mazak</text><line style="stroke:#181818;stroke-width:0.5;" x1="8" x2="217.4932" y1="945.2483" y2="945.2483"/><text fill="#000000" font-family="sans-serif" font-size="14" lengthAdjust="spacing" textLength="126.1504" x="13" y="962.7834">type = ex:Machine</text><text fill="#000000" font-family="sans-serif" font-size="14" lengthAdjust="spacing" textLength="199.4932" x="13" y="979.2717">cmns-dsg:hasName = Mazak</text></g><g class="entity" data-entity="o2" data-source-line="6" data-uid="ent0003" id="entity_o2"><rect fill="#F1F1F1" height="44.9766" rx="2.5" ry="2.5" style="stroke:#181818;stroke-width:0.5;" width="148.9277" x="544.73" y="7"/><text fill="#000000" font-family="sans-serif" font-size="14" lengthAdjust="spacing" textLength="134.9277" x="551.73" y="22.5352">data:Mazak-xaxism</text><line style="stroke:#181818;stroke-width:0.5;" x1="545.73" x2="692.6577" y1="27.4883" y2="27.4883"/><text fill="#000000" font-family="sans-serif" font-size="14" lengthAdjust="spacing" textLength="131.7832" x="550.73" y="45.0234">type = ex:Structure</text></g><g class="entity" data-entity="o3" data-source-line="9" data-uid="ent0004" id="entity_o3"><rect fill="#F1F1F1" height="44.9766" rx="2.5" ry="2.5" style="stroke:#181818;stroke-width:0.5;" width="147.6563" x="545.37" y="87"/><text fill="#000000" font-family="sans-serif" font-size="14" lengthAdjust="spacing" textLength="133.6563" x="552.37" y="102.5352">data:Mazak-yaxism</text><line style="stroke:#181818;stroke-width:0.5;" x1="546.37" x2="692.0263" y1="107.4883" y2="107.4883"/><text fill="#000000" font-family="sans-serif" font-size="14" lengthAdjust="spacing" textLength="131.7832" x="551.37" y="125.0234">type = ex:Structure</text></g><g class="entity" data-entity="o4" data-source-line="12" data-uid="ent0005" id="entity_o4"><rect fill="#F1F1F1" height="44.9766" rx="2.5" ry="2.5" style="stroke:#181818;stroke-width:0.5;" width="143.7832" x="547.31" y="167"/><text fill="#000000" font-family="sans-serif" font-size="14" lengthAdjust="spacing" textLength="121.2969" x="558.5532" y="182.5352">data:Mazak-zaxis</text><line style="stroke:#181818;stroke-width:0.5;" x1="548.31" x2="690.0932" y1="187.4883" y2="187.4883"/><text fill="#000000" font-family="sans-serif" font-size="14" lengthAdjust="spacing" textLength="131.7832" x="553.31" y="205.0234">type = ex:Structure</text></g><g class="entity" data-entity="o5" data-source-line="15" data-uid="ent0006" id="entity_o5"><rect fill="#F1F1F1" height="44.9766" rx="2.5" ry="2.5" style="stroke:#181818;stroke-width:0.5;" width="143.7832" x="547.31" y="247"/><text fill="#000000" font-family="sans-serif" font-size="14" lengthAdjust="spacing" textLength="119.3965" x="559.5034" y="262.5352">data:Mazak-table</text><line style="stroke:#181818;stroke-width:0.5;" x1="548.31" x2="690.0932" y1="267.4883" y2="267.4883"/><text fill="#000000" font-family="sans-serif" font-size="14" lengthAdjust="spacing" textLength="131.7832" x="553.31" y="285.0234">type = ex:Structure</text></g><g class="entity" data-entity="o6" data-source-line="18" data-uid="ent0007" id="entity_o6"><rect fill="#F1F1F1" height="44.9766" rx="2.5" ry="2.5" style="stroke:#181818;stroke-width:0.5;" width="148.7705" x="544.81" y="327"/><text fill="#000000" font-family="sans-serif" font-size="14" lengthAdjust="spacing" textLength="134.7705" x="551.81" y="342.5352">data:Mazak-trundle</text><line style="stroke:#181818;stroke-width:0.5;" x1="545.81" x2="692.5805" y1="347.4883" y2="347.4883"/><text fill="#000000" font-family="sans-serif" font-size="14" lengthAdjust="spacing" textLength="131.7832" x="550.81" y="365.0234">type = ex:Structure</text></g><g class="entity" data-entity="o7" data-source-line="21" data-uid="ent0008" id="entity_o7"><rect fill="#F1F1F1" height="61.4648" rx="2.5" ry="2.5" style="stroke:#181818;stroke-width:0.5;" width="218.7529" x="509.82" y="406.76"/><text fill="#000000" font-family="sans-serif" font-size="14" lengthAdjust="spacing" textLength="94.3564" x="572.0182" y="422.2952">data:Mazak-x</text><line style="stroke:#181818;stroke-width:0.5;" x1="510.82" x2="727.5729" y1="427.2483" y2="427.2483"/><text fill="#000000" font-family="sans-serif" font-size="14" lengthAdjust="spacing" textLength="206.7529" x="515.82" y="444.7834">type = ex:LinearMotionSystem</text><text fill="#000000" font-family="sans-serif" font-size="14" lengthAdjust="spacing" textLength="164.5273" x="515.82" y="461.2717">cmns-dsg:hasName = X</text></g><g class="entity" data-entity="o8" data-source-line="24" data-uid="ent0009" id="entity_o8"><rect fill="#F1F1F1" height="61.4648" rx="2.5" ry="2.5" style="stroke:#181818;stroke-width:0.5;" width="218.7529" x="509.82" y="502.76"/><text fill="#000000" font-family="sans-serif" font-size="14" lengthAdjust="spacing" textLength="93.085" x="572.654" y="518.2952">data:Mazak-y</text><line style="stroke:#181818;stroke-width:0.5;" x1="510.82" x2="727.5729" y1="523.2483" y2="523.2483"/><text fill="#000000" font-family="sans-serif" font-size="14" lengthAdjust="spacing" textLength="206.7529" x="515.82" y="540.7834">type = ex:LinearMotionSystem</text><text fill="#000000" font-family="sans-serif" font-size="14" lengthAdjust="spacing" textLength="164.4863" x="515.82" y="557.2717">cmns-dsg:hasName = Y</text></g><g class="entity" data-entity="o9" data-source-line="27" data-uid="ent0010" id="entity_o9"><rect fill="#F1F1F1" height="61.4648" rx="2.5" ry="2.5" style="stroke:#181818;stroke-width:0.5;" width="218.7529" x="509.82" y="598.76"/><text fill="#000000" font-family="sans-serif" font-size="14" lengthAdjust="spacing" textLength="93.7959" x="572.2985" y="614.2952">data:Mazak-z</text><line style="stroke:#181818;stroke-width:0.5;" x1="510.82" x2="727.5729" y1="619.2483" y2="619.2483"/><text fill="#000000" font-family="sans-serif" font-size="14" lengthAdjust="spacing" textLength="206.7529" x="515.82" y="636.7834">type = ex:LinearMotionSystem</text><text fill="#000000" font-family="sans-serif" font-size="14" lengthAdjust="spacing" textLength="164.2266" x="515.82" y="653.2717">cmns-dsg:hasName = Z</text></g><g class="entity" data-entity="o10" data-source-line="30" data-uid="ent0011" id="entity_o10"><rect fill="#F1F1F1" height="61.4648" rx="2.5" ry="2.5" style="stroke:#181818;stroke-width:0.5;" width="220.7559" x="508.82" y="694.76"/><text fill="#000000" font-family="sans-serif" font-size="14" lengthAdjust="spacing" textLength="92.9414" x="572.7272" y="710.2952">data:Mazak-c</text><line style="stroke:#181818;stroke-width:0.5;" x1="509.82" x2="728.5759" y1="715.2483" y2="715.2483"/><text fill="#000000" font-family="sans-serif" font-size="14" lengthAdjust="spacing" textLength="208.7559" x="514.82" y="732.7834">type = ex:RotaryMotionSystem</text><text fill="#000000" font-family="sans-serif" font-size="14" lengthAdjust="spacing" textLength="174.3027" x="514.82" y="749.2717">cmns-dsg:hasName = C1</text></g><g class="entity" data-entity="o11" data-source-line="33" data-uid="ent0012" id="entity_o11"><rect fill="#F1F1F1" height="61.4648" rx="2.5" ry="2.5" style="stroke:#181818;stroke-width:0.5;" width="220.7559" x="508.82" y="790.76"/><text fill="#000000" font-family="sans-serif" font-size="14" lengthAdjust="spacing" textLength="100.3105" x="569.0427" y="806.2952">data:Mazak-br</text><line style="stroke:#181818;stroke-width:0.5;" x1="509.82" x2="728.5759" y1="811.2483" y2="811.2483"/><text fill="#000000" font-family="sans-serif" font-size="14" lengthAdjust="spacing" textLength="208.7559" x="514.82" y="828.7834">type = ex:RotaryMotionSystem</text><text fill="#000000" font-family="sans-serif" font-size="14" lengthAdjust="spacing" textLength="163.8164" x="514.82" y="845.2717">cmns-dsg:hasName = B</text></g><g class="entity" data-entity="o12" data-source-line="36" data-uid="ent0013" id="entity_o12"><rect fill="#F1F1F1" height="61.4648" rx="2.5" ry="2.5" style="stroke:#181818;stroke-width:0.5;" width="220.7559" x="508.82" y="886.76"/><text fill="#000000" font-family="sans-serif" font-size="14" lengthAdjust="spacing" textLength="101.7939" x="568.301" y="902.2952">data:Mazak-c2</text><line style="stroke:#181818;stroke-width:0.5;" x1="509.82" x2="728.5759" y1="907.2483" y2="907.2483"/><text fill="#000000" font-family="sans-serif" font-size="14" lengthAdjust="spacing" textLength="208.7559" x="514.82" y="924.7834">type = ex:RotaryMotionSystem</text><text fill="#000000" font-family="sans-serif" font-size="14" lengthAdjust="spacing" textLength="174.3027" x="514.82" y="941.2717">cmns-dsg:hasName = C2</text></g><g class="entity" data-entity="o13" data-source-line="39" data-uid="ent0014" id="entity_o13"><rect fill="#F1F1F1" height="61.4648" rx="2.5" ry="2.5" style="stroke:#181818;stroke-width:0.5;" width="233.4092" x="502.49" y="982.76"/><text fill="#000000" font-family="sans-serif" font-size="14" lengthAdjust="spacing" textLength="115.4658" x="561.4617" y="998.2952">data:Mazak-cont</text><line style="stroke:#181818;stroke-width:0.5;" x1="503.49" x2="734.8992" y1="1003.2483" y2="1003.2483"/><text fill="#000000" font-family="sans-serif" font-size="14" lengthAdjust="spacing" textLength="168.6494" x="508.49" y="1020.7834">type = ex:ControlSystem</text><text fill="#000000" font-family="sans-serif" font-size="14" lengthAdjust="spacing" textLength="221.4092" x="508.49" y="1037.2717">cmns-dsg:hasName = controller</text></g><g class="entity" data-entity="o14" data-source-line="42" data-uid="ent0015" id="entity_o14"><rect fill="#F1F1F1" height="44.9766" rx="2.5" ry="2.5" style="stroke:#181818;stroke-width:0.5;" width="140.3623" x="549.02" y="1079"/><text fill="#000000" font-family="sans-serif" font-size="14" lengthAdjust="spacing" textLength="126.3623" x="556.02" y="1094.5352">data:Mazak-door1</text><line style="stroke:#181818;stroke-width:0.5;" x1="550.02" x2="688.3823" y1="1099.4883" y2="1099.4883"/><text fill="#000000" font-family="sans-serif" font-size="14" lengthAdjust="spacing" textLength="121.4678" x="555.02" y="1117.0234">type = obo:object</text></g><g class="entity" data-entity="o15" data-source-line="45" data-uid="ent0016" id="entity_o15"><rect fill="#F1F1F1" height="44.9766" rx="2.5" ry="2.5" style="stroke:#181818;stroke-width:0.5;" width="150.2197" x="544.09" y="1159"/><text fill="#000000" font-family="sans-serif" font-size="14" lengthAdjust="spacing" textLength="136.2197" x="551.09" y="1174.5352">data:Mazak-partocc</text><line style="stroke:#181818;stroke-width:0.5;" x1="545.09" x2="693.3097" y1="1179.4883" y2="1179.4883"/><text fill="#000000" font-family="sans-serif" font-size="14" lengthAdjust="spacing" textLength="96.4004" x="550.09" y="1197.0234">type = ex:Part</text></g><g class="entity" data-entity="o16" data-source-line="48" data-uid="ent0017" id="entity_o16"><rect fill="#F1F1F1" height="44.9766" rx="2.5" ry="2.5" style="stroke:#181818;stroke-width:0.5;" width="190.6299" x="523.88" y="1239"/><text fill="#000000" font-family="sans-serif" font-size="14" lengthAdjust="spacing" textLength="112.5879" x="562.901" y="1254.5352">data:Mazak-elec</text><line style="stroke:#181818;stroke-width:0.5;" x1="524.88" x2="713.5099" y1="1259.4883" y2="1259.4883"/><text fill="#000000" font-family="sans-serif" font-size="14" lengthAdjust="spacing" textLength="178.6299" x="529.88" y="1277.0234">type = ex:ElectricalSystem</text></g><g class="entity" data-entity="o17" data-source-line="51" data-uid="ent0018" id="entity_o17"><rect fill="#F1F1F1" height="44.9766" rx="2.5" ry="2.5" style="stroke:#181818;stroke-width:0.5;" width="193.8906" x="522.25" y="1319"/><text fill="#000000" font-family="sans-serif" font-size="14" lengthAdjust="spacing" textLength="147.998" x="545.1963" y="1334.5352">data:Mazak-hydraulic</text><line style="stroke:#181818;stroke-width:0.5;" x1="523.25" x2="715.1406" y1="1339.4883" y2="1339.4883"/><text fill="#000000" font-family="sans-serif" font-size="14" lengthAdjust="spacing" textLength="181.8906" x="528.25" y="1357.0234">type = ex:HydraulicSystem</text></g><g class="entity" data-entity="o18" data-source-line="54" data-uid="ent0019" id="entity_o18"><rect fill="#F1F1F1" height="44.9766" rx="2.5" ry="2.5" style="stroke:#181818;stroke-width:0.5;" width="149.8438" x="544.28" y="1399"/><text fill="#000000" font-family="sans-serif" font-size="14" lengthAdjust="spacing" textLength="135.8438" x="551.28" y="1414.5352">data:Mazak-coolant</text><line style="stroke:#181818;stroke-width:0.5;" x1="545.28" x2="693.1238" y1="1419.4883" y2="1419.4883"/><text fill="#000000" font-family="sans-serif" font-size="14" lengthAdjust="spacing" textLength="121.4678" x="550.28" y="1437.0234">type = obo:object</text></g><g class="entity" data-entity="o19" data-source-line="57" data-uid="ent0020" id="entity_o19"><rect fill="#F1F1F1" height="44.9766" rx="2.5" ry="2.5" style="stroke:#181818;stroke-width:0.5;" width="200.2344" x="519.08" y="1479"/><text fill="#000000" font-family="sans-serif" font-size="14" lengthAdjust="spacing" textLength="157.0146" x="540.6899" y="1494.5352">data:Mazak-pneumatic</text><line style="stroke:#181818;stroke-width:0.5;" x1="520.08" x2="718.3144" y1="1499.4883" y2="1499.4883"/><text fill="#000000" font-family="sans-serif" font-size="14" lengthAdjust="spacing" textLength="188.2344" x="525.08" y="1517.0234">type = ex:PneumaticSystem</text></g><g class="entity" data-entity="o20" data-source-line="60" data-uid="ent0021" id="entity_o20"><rect fill="#F1F1F1" height="44.9766" rx="2.5" ry="2.5" style="stroke:#181818;stroke-width:0.5;" width="206.2773" x="516.06" y="1559"/><text fill="#000000" font-family="sans-serif" font-size="14" lengthAdjust="spacing" textLength="158.5664" x="539.9155" y="1574.5352">data:Mazak-lubrication</text><line style="stroke:#181818;stroke-width:0.5;" x1="517.06" x2="721.3373" y1="1579.4883" y2="1579.4883"/><text fill="#000000" font-family="sans-serif" font-size="14" lengthAdjust="spacing" textLength="194.2773" x="522.06" y="1597.0234">type = ex:LubricationSystem</text></g><g class="entity" data-entity="o21" data-source-line="63" data-uid="ent0022" id="entity_o21"><rect fill="#F1F1F1" height="44.9766" rx="2.5" ry="2.5" style="stroke:#181818;stroke-width:0.5;" width="180.1406" x="529.13" y="1639"/><text fill="#000000" font-family="sans-serif" font-size="14" lengthAdjust="spacing" textLength="166.1406" x="536.13" y="1654.5352">data:Mazak-personnelm</text><line style="stroke:#181818;stroke-width:0.5;" x1="530.13" x2="708.2706" y1="1659.4883" y2="1659.4883"/><text fill="#000000" font-family="sans-serif" font-size="14" lengthAdjust="spacing" textLength="128.5703" x="535.13" y="1677.0234">type = core:Person</text></g><g class="entity" data-entity="o22" data-source-line="66" data-uid="ent0023" id="entity_o22"><rect fill="#F1F1F1" height="44.9766" rx="2.5" ry="2.5" style="stroke:#181818;stroke-width:0.5;" width="166.4072" x="535.99" y="1719"/><text fill="#000000" font-family="sans-serif" font-size="14" lengthAdjust="spacing" textLength="152.4072" x="542.99" y="1734.5352">data:Mazak-procstock</text><line style="stroke:#181818;stroke-width:0.5;" x1="536.99" x2="701.3972" y1="1739.4883" y2="1739.4883"/><text fill="#000000" font-family="sans-serif" font-size="14" lengthAdjust="spacing" textLength="106.6953" x="541.99" y="1757.0234">type = ex:Stock</text></g><g class="entity" data-entity="o23" data-source-line="69" data-uid="ent0024" id="entity_o23"><rect fill="#F1F1F1" height="44.9766" rx="2.5" ry="2.5" style="stroke:#181818;stroke-width:0.5;" width="178.5" x="529.95" y="1799"/><text fill="#000000" font-family="sans-serif" font-size="14" lengthAdjust="spacing" textLength="164.5" x="536.95" y="1814.5352">data:Mazak-enclosurem</text><line style="stroke:#181818;stroke-width:0.5;" x1="530.95" x2="707.45" y1="1819.4883" y2="1819.4883"/><text fill="#000000" font-family="sans-serif" font-size="14" lengthAdjust="spacing" textLength="131.7832" x="535.95" y="1837.0234">type = ex:Structure</text></g><g class="entity" data-entity="o24" data-source-line="72" data-uid="ent0025" id="entity_o24"><rect fill="#F1F1F1" height="44.9766" rx="2.5" ry="2.5" style="stroke:#181818;stroke-width:0.5;" width="188.4805" x="1030.68" y="271"/><text fill="#000000" font-family="sans-serif" font-size="14" lengthAdjust="spacing" textLength="174.4805" x="1037.68" y="286.5352">data:Mazak-x-Xballscrew</text><line style="stroke:#181818;stroke-width:0.5;" x1="1031.68" x2="1218.1605" y1="291.4883" y2="291.4883"/><text fill="#000000" font-family="sans-serif" font-size="14" lengthAdjust="spacing" textLength="132.4668" x="1036.68" y="309.0234">type = ex:Ballscrew</text></g><g class="entity" data-entity="o25" data-source-line="75" data-uid="ent0026" id="entity_o25"><rect fill="#F1F1F1" height="44.9766" rx="2.5" ry="2.5" style="stroke:#181818;stroke-width:0.5;" width="166.4551" x="1041.7" y="351"/><text fill="#000000" font-family="sans-serif" font-size="14" lengthAdjust="spacing" textLength="152.4551" x="1048.7" y="366.5352">data:Mazak-x-Xmotor</text><line style="stroke:#181818;stroke-width:0.5;" x1="1042.7" x2="1207.1551" y1="371.4883" y2="371.4883"/><text fill="#000000" font-family="sans-serif" font-size="14" lengthAdjust="spacing" textLength="110.1885" x="1047.7" y="389.0234">type = ex:Motor</text></g><g class="entity" data-entity="o26" data-source-line="78" data-uid="ent0027" id="entity_o26"><rect fill="#F1F1F1" height="44.9766" rx="2.5" ry="2.5" style="stroke:#181818;stroke-width:0.5;" width="187.168" x="1031.34" y="431"/><text fill="#000000" font-family="sans-serif" font-size="14" lengthAdjust="spacing" textLength="173.168" x="1038.34" y="446.5352">data:Mazak-y-Yballscrew</text><line style="stroke:#181818;stroke-width:0.5;" x1="1032.34" x2="1217.508" y1="451.4883" y2="451.4883"/><text fill="#000000" font-family="sans-serif" font-size="14" lengthAdjust="spacing" textLength="132.4668" x="1037.34" y="469.0234">type = ex:Ballscrew</text></g><g class="entity" data-entity="o27" data-source-line="81" data-uid="ent0028" id="entity_o27"><rect fill="#F1F1F1" height="44.9766" rx="2.5" ry="2.5" style="stroke:#181818;stroke-width:0.5;" width="165.1426" x="1042.35" y="511"/><text fill="#000000" font-family="sans-serif" font-size="14" lengthAdjust="spacing" textLength="151.1426" x="1049.35" y="526.5352">data:Mazak-y-Ymotor</text><line style="stroke:#181818;stroke-width:0.5;" x1="1043.35" x2="1206.4926" y1="531.4883" y2="531.4883"/><text fill="#000000" font-family="sans-serif" font-size="14" lengthAdjust="spacing" textLength="110.1885" x="1048.35" y="549.0234">type = ex:Motor</text></g><g class="entity" data-entity="o28" data-source-line="84" data-uid="ent0029" id="entity_o28"><rect fill="#F1F1F1" height="44.9766" rx="2.5" ry="2.5" style="stroke:#181818;stroke-width:0.5;" width="187.6191" x="1031.11" y="591"/><text fill="#000000" font-family="sans-serif" font-size="14" lengthAdjust="spacing" textLength="173.6191" x="1038.11" y="606.5352">data:Mazak-z-Zballscrew</text><line style="stroke:#181818;stroke-width:0.5;" x1="1032.11" x2="1217.7291" y1="611.4883" y2="611.4883"/><text fill="#000000" font-family="sans-serif" font-size="14" lengthAdjust="spacing" textLength="132.4668" x="1037.11" y="629.0234">type = ex:Ballscrew</text></g><g class="entity" data-entity="o29" data-source-line="87" data-uid="ent0030" id="entity_o29"><rect fill="#F1F1F1" height="44.9766" rx="2.5" ry="2.5" style="stroke:#181818;stroke-width:0.5;" width="165.5938" x="1042.13" y="671"/><text fill="#000000" font-family="sans-serif" font-size="14" lengthAdjust="spacing" textLength="151.5938" x="1049.13" y="686.5352">data:Mazak-z-Zmotor</text><line style="stroke:#181818;stroke-width:0.5;" x1="1043.13" x2="1206.7238" y1="691.4883" y2="691.4883"/><text fill="#000000" font-family="sans-serif" font-size="14" lengthAdjust="spacing" textLength="110.1885" x="1048.13" y="709.0234">type = ex:Motor</text></g><g class="entity" data-entity="o30" data-source-line="90" data-uid="ent0031" id="entity_o30"><rect fill="#F1F1F1" height="44.9766" rx="2.5" ry="2.5" style="stroke:#181818;stroke-width:0.5;" width="174.8154" x="1037.52" y="751"/><text fill="#000000" font-family="sans-serif" font-size="14" lengthAdjust="spacing" textLength="160.8154" x="1044.52" y="766.5352">data:Mazak-c-C2motor</text><line style="stroke:#181818;stroke-width:0.5;" x1="1038.52" x2="1211.3354" y1="771.4883" y2="771.4883"/><text fill="#000000" font-family="sans-serif" font-size="14" lengthAdjust="spacing" textLength="110.1885" x="1043.52" y="789.0234">type = ex:Motor</text></g><g class="entity" data-entity="o31" data-source-line="93" data-uid="ent0032" id="entity_o31"><rect fill="#F1F1F1" height="44.9766" rx="2.5" ry="2.5" style="stroke:#181818;stroke-width:0.5;" width="171.6982" x="1039.08" y="831"/><text fill="#000000" font-family="sans-serif" font-size="14" lengthAdjust="spacing" textLength="157.6982" x="1046.08" y="846.5352">data:Mazak-br-Bmotor</text><line style="stroke:#181818;stroke-width:0.5;" x1="1040.08" x2="1209.7782" y1="851.4883" y2="851.4883"/><text fill="#000000" font-family="sans-serif" font-size="14" lengthAdjust="spacing" textLength="110.1885" x="1045.08" y="869.0234">type = ex:Motor</text></g><g class="entity" data-entity="o32" data-source-line="96" data-uid="ent0033" id="entity_o32"><rect fill="#F1F1F1" height="44.9766" rx="2.5" ry="2.5" style="stroke:#181818;stroke-width:0.5;" width="174.8154" x="1037.52" y="911"/><text fill="#000000" font-family="sans-serif" font-size="14" lengthAdjust="spacing" textLength="160.8154" x="1044.52" y="926.5352">data:Mazak-c2-Cmotor</text><line style="stroke:#181818;stroke-width:0.5;" x1="1038.52" x2="1211.3354" y1="931.4883" y2="931.4883"/><text fill="#000000" font-family="sans-serif" font-size="14" lengthAdjust="spacing" textLength="110.1885" x="1043.52" y="949.0234">type = ex:Motor</text></g><g class="entity" data-entity="o33" data-source-line="99" data-uid="ent0034" id="entity_o33"><rect fill="#F1F1F1" height="44.9766" rx="2.5" ry="2.5" style="stroke:#181818;stroke-width:0.5;" width="210.0439" x="1019.9" y="991"/><text fill="#000000" font-family="sans-serif" font-size="14" lengthAdjust="spacing" textLength="162.8867" x="1043.4786" y="1006.5352">data:Mazak-cont-path1</text><line style="stroke:#181818;stroke-width:0.5;" x1="1020.9" x2="1228.9439" y1="1011.4883" y2="1011.4883"/><text fill="#000000" font-family="sans-serif" font-size="14" lengthAdjust="spacing" textLength="198.0439" x="1025.9" y="1029.0234">type = ex:ControlSystemPath</text></g><!--link o1 to o2--><g class="link" data-entity-1="o1" data-entity-2="o2" data-source-line="102" data-uid="lnk35" id="link_o1_o2"><path codeLine="102" d="M118.78,924.39 C143.24,773.35 248.49,123.49 248.49,123.49 C248.49,123.49 430.565,77.1984 538.455,49.7684" fill="none" id="o1-to-o2" style="stroke:#181818;stroke-width:1;"/><polygon fill="#181818" points="544.27,48.29,534.5619,46.6309,539.4242,49.522,536.5331,54.3843,544.27,48.29" style="stroke:#181818;stroke-width:1;"/><text fill="#000000" font-family="sans-serif" font-size="13" lengthAdjust="spacing" textLength="222.5425" x="249.49" y="64.6384">obo:has member part at some time</text></g><!--link o1 to o3--><g class="link" data-entity-1="o1" data-entity-2="o3" data-source-line="104" data-uid="lnk36" id="link_o1_o3"><path codeLine="104" d="M119.28,924.61 C144.64,783.1 248.49,203.49 248.49,203.49 C248.49,203.49 431.5951,156.9387 539.3451,129.5387" fill="none" id="o1-to-o3" style="stroke:#181818;stroke-width:1;"/><polygon fill="#181818" points="545.16,128.06,535.4518,126.4014,540.3142,129.2922,537.4234,134.1547,545.16,128.06" style="stroke:#181818;stroke-width:1;"/><text fill="#000000" font-family="sans-serif" font-size="13" lengthAdjust="spacing" textLength="222.5425" x="249.49" y="144.6384">obo:has member part at some time</text></g><!--link o1 to o4--><g class="link" data-entity-1="o1" data-entity-2="o4" data-source-line="105" data-uid="lnk37" id="link_o1_o4"><path codeLine="105" d="M119.98,924.52 C146.48,792.75 248.49,285.49 248.49,285.49 C248.49,285.49 433.6726,237.4082 541.1026,209.5082" fill="none" id="o1-to-o4" style="stroke:#181818;stroke-width:1;"/><polygon fill="#181818" points="546.91,208,537.1935,206.3907,542.0705,209.2568,539.2044,214.1339,546.91,208" style="stroke:#181818;stroke-width:1;"/><text fill="#000000" font-family="sans-serif" font-size="13" lengthAdjust="spacing" textLength="222.5425" x="249.49" y="225.4584">obo:has member part at some time</text></g><!--link o1 to o5--><g class="link" data-entity-1="o1" data-entity-2="o5" data-source-line="106" data-uid="lnk38" id="link_o1_o5"><path codeLine="106" d="M120.9,924.45 C148.75,803.51 248.49,370.49 248.49,370.49 C248.49,370.49 433.692,319.8908 541.122,290.5508" fill="none" id="o1-to-o5" style="stroke:#181818;stroke-width:1;"/><polygon fill="#181818" points="546.91,288.97,537.1741,287.4825,542.0866,290.2873,539.2818,295.1998,546.91,288.97" style="stroke:#181818;stroke-width:1;"/><text fill="#000000" font-family="sans-serif" font-size="13" lengthAdjust="spacing" textLength="222.5425" x="249.49" y="307.5184">obo:has member part at some time</text></g><!--link o1 to o6--><g class="link" data-entity-1="o1" data-entity-2="o6" data-source-line="107" data-uid="lnk39" id="link_o1_o6"><path codeLine="107" d="M122.18,924.59 C151.67,816.44 248.49,461.49 248.49,461.49 C248.49,461.49 431.1579,406.1601 538.9679,373.4901" fill="none" id="o1-to-o6" style="stroke:#181818;stroke-width:1;"/><polygon fill="#181818" points="544.71,371.75,534.9367,370.532,539.9249,373.2,537.2568,378.1882,544.71,371.75" style="stroke:#181818;stroke-width:1;"/><text fill="#000000" font-family="sans-serif" font-size="13" lengthAdjust="spacing" textLength="222.5425" x="249.49" y="392.0284">obo:has member part at some time</text></g><!--link o1 to o7--><g class="link" data-entity-1="o1" data-entity-2="o7" data-source-line="108" data-uid="lnk40" id="link_o1_o7"><path codeLine="108" d="M124.21,924.51 C155.87,830.77 248.49,556.49 248.49,556.49 C248.49,556.49 406.2886,505.6983 515.8386,470.4383" fill="none" id="o1-to-o7" style="stroke:#181818;stroke-width:1;"/><polygon fill="#181818" points="521.55,468.6,511.7573,467.5498,516.7905,470.1319,514.2084,475.1651,521.55,468.6" style="stroke:#181818;stroke-width:1;"/><text fill="#000000" font-family="sans-serif" font-size="13" lengthAdjust="spacing" textLength="222.5425" x="249.49" y="482.8984">obo:has member part at some time</text></g><!--link o1 to o8--><g class="link" data-entity-1="o1" data-entity-2="o8" data-source-line="109" data-uid="lnk41" id="link_o1_o8"><path codeLine="109" d="M127.53,924.39 C161.88,846.91 248.49,651.49 248.49,651.49 C248.49,651.49 405.3341,601.4344 514.8641,566.4744" fill="none" id="o1-to-o8" style="stroke:#181818;stroke-width:1;"/><polygon fill="#181818" points="520.58,564.65,510.7899,563.576,515.8167,566.1703,513.2224,571.1972,520.58,564.65" style="stroke:#181818;stroke-width:1;"/><text fill="#000000" font-family="sans-serif" font-size="13" lengthAdjust="spacing" textLength="222.5425" x="249.49" y="578.4884">obo:has member part at some time</text></g><!--link o1 to o9--><g class="link" data-entity-1="o1" data-entity-2="o9" data-source-line="110" data-uid="lnk42" id="link_o1_o9"><path codeLine="110" d="M133.34,924.67 C170.71,865.87 248.49,743.49 248.49,743.49 C248.49,743.49 401.9765,696.1683 511.4365,662.4083" fill="none" id="o1-to-o9" style="stroke:#181818;stroke-width:1;"/><polygon fill="#181818" points="517.17,660.64,507.3909,659.4702,512.3921,662.1136,509.7487,667.1148,517.17,660.64" style="stroke:#181818;stroke-width:1;"/><text fill="#000000" font-family="sans-serif" font-size="13" lengthAdjust="spacing" textLength="222.5425" x="249.49" y="672.8484">obo:has member part at some time</text></g><!--link o1 to o10--><g class="link" data-entity-1="o1" data-entity-2="o10" data-source-line="111" data-uid="lnk43" id="link_o1_o10"><path codeLine="111" d="M147.4,924.27 C187.31,887.25 248.49,830.49 248.49,830.49 C248.49,830.49 393.9883,789.1692 502.9983,758.2092" fill="none" id="o1-to-o10" style="stroke:#181818;stroke-width:1;"/><polygon fill="#181818" points="508.77,756.57,499.0196,755.181,503.9602,757.936,501.2052,762.8767,508.77,756.57" style="stroke:#181818;stroke-width:1;"/><text fill="#000000" font-family="sans-serif" font-size="13" lengthAdjust="spacing" textLength="222.5425" x="249.49" y="765.1584">obo:has member part at some time</text></g><!--link o1 to o11--><g class="link" data-entity-1="o1" data-entity-2="o11" data-source-line="112" data-uid="lnk44" id="link_o1_o11"><path codeLine="112" d="M194.46,924.34 C223.16,913.27 248.49,903.49 248.49,903.49 C248.49,903.49 393.9024,871.2393 502.9124,847.0593" fill="none" id="o1-to-o11" style="stroke:#181818;stroke-width:1;"/><polygon fill="#181818" points="508.77,845.76,499.1174,843.8039,503.8886,846.8428,500.8498,851.614,508.77,845.76" style="stroke:#181818;stroke-width:1;"/><text fill="#000000" font-family="sans-serif" font-size="13" lengthAdjust="spacing" textLength="222.5425" x="249.49" y="851.7184">obo:has member part at some time</text></g><!--link o1 to o12--><g class="link" data-entity-1="o1" data-entity-2="o12" data-source-line="113" data-uid="lnk45" id="link_o1_o12"><path codeLine="113" d="M218.88,947.57 C303.63,941.19 416.447,932.691 502.417,926.211" fill="none" id="o1-to-o12" style="stroke:#181818;stroke-width:1;"/><polygon fill="#181818" points="508.4,925.76,499.1248,922.4478,503.4141,926.1358,499.7261,930.4251,508.4,925.76" style="stroke:#181818;stroke-width:1;"/><text fill="#000000" font-family="sans-serif" font-size="13" lengthAdjust="spacing" textLength="222.5425" x="249.49" y="925.2884">obo:has member part at some time</text></g><!--link o1 to o13--><g class="link" data-entity-1="o1" data-entity-2="o13" data-source-line="114" data-uid="lnk46" id="link_o1_o13"><path codeLine="114" d="M218.88,967.58 C301.61,977.09 410.8293,989.6446 496.2293,999.4646" fill="none" id="o1-to-o13" style="stroke:#181818;stroke-width:1;"/><polygon fill="#181818" points="502.19,1000.15,493.7059,995.1481,497.2227,999.5788,492.792,1003.0957,502.19,1000.15" style="stroke:#181818;stroke-width:1;"/><text fill="#000000" font-family="sans-serif" font-size="13" lengthAdjust="spacing" textLength="222.5425" x="249.49" y="967.6184">obo:has member part at some time</text></g><!--link o1 to o14--><g class="link" data-entity-1="o1" data-entity-2="o14" data-source-line="115" data-uid="lnk47" id="link_o1_o14"><path codeLine="115" d="M177.17,986.56 C212.12,1003.68 248.49,1021.49 248.49,1021.49 C248.49,1021.49 435.6957,1062.0013 542.7957,1085.1713" fill="none" id="o1-to-o14" style="stroke:#181818;stroke-width:1;"/><polygon fill="#181818" points="548.66,1086.44,540.7093,1080.6274,543.7731,1085.3828,539.0177,1088.4465,548.66,1086.44" style="stroke:#181818;stroke-width:1;"/><text fill="#000000" font-family="sans-serif" font-size="13" lengthAdjust="spacing" textLength="222.5425" x="249.49" y="1018.0584">obo:has member part at some time</text></g><!--link o1 to o15--><g class="link" data-entity-1="o1" data-entity-2="o15" data-source-line="116" data-uid="lnk48" id="link_o1_o15"><path codeLine="116" d="M143.99,986.46 C183.71,1027.15 248.49,1093.49 248.49,1093.49 C248.49,1093.49 430.0331,1136.7005 537.9931,1162.4005" fill="none" id="o1-to-o15" style="stroke:#181818;stroke-width:1;"/><polygon fill="#181818" points="543.83,1163.79,536.001,1157.8145,538.9659,1162.6321,534.1483,1165.597,543.83,1163.79" style="stroke:#181818;stroke-width:1;"/><text fill="#000000" font-family="sans-serif" font-size="13" lengthAdjust="spacing" textLength="222.5425" x="249.49" y="1090.0584">obo:has member part at some time</text></g><!--link o1 to o16--><g class="link" data-entity-1="o1" data-entity-2="o16" data-source-line="117" data-uid="lnk49" id="link_o1_o16"><path codeLine="117" d="M133.05,986.3 C170.31,1045.75 248.49,1170.49 248.49,1170.49 C248.49,1170.49 409.5539,1210.1359 519.0839,1237.0959" fill="none" id="o1-to-o16" style="stroke:#181818;stroke-width:1;"/><polygon fill="#181818" points="524.91,1238.53,517.1269,1232.4949,520.0549,1237.335,515.2148,1240.263,524.91,1238.53" style="stroke:#181818;stroke-width:1;"/><text fill="#000000" font-family="sans-serif" font-size="13" lengthAdjust="spacing" textLength="222.5425" x="249.49" y="1167.0584">obo:has member part at some time</text></g><!--link o1 to o17--><g class="link" data-entity-1="o1" data-entity-2="o17" data-source-line="118" data-uid="lnk50" id="link_o1_o17"><path codeLine="118" d="M128.04,986.68 C162.72,1062.34 248.49,1249.49 248.49,1249.49 C248.49,1249.49 410.5376,1289.811 520.0376,1317.061" fill="none" id="o1-to-o17" style="stroke:#181818;stroke-width:1;"/><polygon fill="#181818" points="525.86,1318.51,518.0923,1312.455,521.008,1317.3025,516.1604,1320.2182,525.86,1318.51" style="stroke:#181818;stroke-width:1;"/><text fill="#000000" font-family="sans-serif" font-size="13" lengthAdjust="spacing" textLength="222.5425" x="249.49" y="1246.0584">obo:has member part at some time</text></g><!--link o1 to o18--><g class="link" data-entity-1="o1" data-entity-2="o18" data-source-line="119" data-uid="lnk51" id="link_o1_o18"><path codeLine="119" d="M125,986.65 C157.39,1076.3 248.49,1328.49 248.49,1328.49 C248.49,1328.49 430.0512,1374.1667 538.0112,1401.3167" fill="none" id="o1-to-o18" style="stroke:#181818;stroke-width:1;"/><polygon fill="#181818" points="543.83,1402.78,536.0773,1396.7058,538.981,1401.5606,534.1262,1404.4642,543.83,1402.78" style="stroke:#181818;stroke-width:1;"/><text fill="#000000" font-family="sans-serif" font-size="13" lengthAdjust="spacing" textLength="222.5425" x="249.49" y="1325.0584">obo:has member part at some time</text></g><!--link o1 to o19--><g class="link" data-entity-1="o1" data-entity-2="o19" data-source-line="120" data-uid="lnk52" id="link_o1_o19"><path codeLine="120" d="M123.01,986.63 C153.45,1088.97 248.49,1408.49 248.49,1408.49 C248.49,1408.49 412.0012,1449.6265 521.4612,1477.1565" fill="none" id="o1-to-o19" style="stroke:#181818;stroke-width:1;"/><polygon fill="#181818" points="527.28,1478.62,519.5275,1472.5456,522.431,1477.4004,517.5762,1480.304,527.28,1478.62" style="stroke:#181818;stroke-width:1;"/><text fill="#000000" font-family="sans-serif" font-size="13" lengthAdjust="spacing" textLength="222.5425" x="249.49" y="1405.0584">obo:has member part at some time</text></g><!--link o1 to o20--><g class="link" data-entity-1="o1" data-entity-2="o20" data-source-line="121" data-uid="lnk53" id="link_o1_o20"><path codeLine="121" d="M121.57,986.45 C150.33,1100.21 248.49,1488.49 248.49,1488.49 C248.49,1488.49 412.0012,1529.6265 521.4612,1557.1565" fill="none" id="o1-to-o20" style="stroke:#181818;stroke-width:1;"/><polygon fill="#181818" points="527.28,1558.62,519.5275,1552.5456,522.431,1557.4004,517.5762,1560.304,527.28,1558.62" style="stroke:#181818;stroke-width:1;"/><text fill="#000000" font-family="sans-serif" font-size="13" lengthAdjust="spacing" textLength="222.5425" x="249.49" y="1485.0584">obo:has member part at some time</text></g><!--link o1 to o21--><g class="link" data-entity-1="o1" data-entity-2="o21" data-source-line="122" data-uid="lnk54" id="link_o1_o21"><path codeLine="122" d="M120.52,986.31 C147.85,1110.62 248.49,1568.49 248.49,1568.49 C248.49,1568.49 413.4712,1609.9964 522.8812,1637.5164" fill="none" id="o1-to-o21" style="stroke:#181818;stroke-width:1;"/><polygon fill="#181818" points="528.7,1638.98,520.9476,1632.9054,523.851,1637.7603,518.9961,1640.6638,528.7,1638.98" style="stroke:#181818;stroke-width:1;"/><text fill="#000000" font-family="sans-serif" font-size="13" lengthAdjust="spacing" textLength="222.5425" x="249.49" y="1565.0584">obo:has member part at some time</text></g><!--link o1 to o22--><g class="link" data-entity-1="o1" data-entity-2="o22" data-source-line="123" data-uid="lnk55" id="link_o1_o22"><path codeLine="123" d="M119.8,986.61 C146.02,1121.46 248.49,1648.49 248.49,1648.49 C248.49,1648.49 420.9113,1691.8662 529.8713,1719.2762" fill="none" id="o1-to-o22" style="stroke:#181818;stroke-width:1;"/><polygon fill="#181818" points="535.69,1720.74,527.9378,1714.6652,530.8411,1719.5202,525.9861,1722.4235,535.69,1720.74" style="stroke:#181818;stroke-width:1;"/><text fill="#000000" font-family="sans-serif" font-size="13" lengthAdjust="spacing" textLength="222.5425" x="249.49" y="1645.0584">obo:has member part at some time</text></g><!--link o1 to o23--><g class="link" data-entity-1="o1" data-entity-2="o23" data-source-line="124" data-uid="lnk56" id="link_o1_o23"><path codeLine="124" d="M119.11,986.27 C144.17,1130.04 248.49,1728.49 248.49,1728.49 C248.49,1728.49 414.4514,1770.2359 523.8214,1797.7559" fill="none" id="o1-to-o23" style="stroke:#181818;stroke-width:1;"/><polygon fill="#181818" points="529.64,1799.22,521.8881,1793.1448,524.7911,1797.9999,519.936,1800.9029,529.64,1799.22" style="stroke:#181818;stroke-width:1;"/><text fill="#000000" font-family="sans-serif" font-size="13" lengthAdjust="spacing" textLength="222.5425" x="249.49" y="1725.0584">obo:has member part at some time</text></g><!--link o7 to o24--><g class="link" data-entity-1="o7" data-entity-2="o24" data-source-line="125" data-uid="lnk57" id="link_o7_o24"><path codeLine="125" d="M695.43,406.28 C717.53,397.11 735.9,389.49 735.9,389.49 C735.9,389.49 765.9,365.49 765.9,365.49 C765.9,365.49 918.3678,334.8333 1024.4478,313.4933" fill="none" id="o7-to-o24" style="stroke:#181818;stroke-width:1;"/><polygon fill="#181818" points="1030.33,312.31,1020.7179,310.1635,1025.4282,313.2961,1022.2956,318.0064,1030.33,312.31" style="stroke:#181818;stroke-width:1;"/><text fill="#000000" font-family="sans-serif" font-size="13" lengthAdjust="spacing" textLength="222.5425" x="766.9" y="317.4984">obo:has member part at some time</text></g><!--link o7 to o25--><g class="link" data-entity-1="o7" data-entity-2="o25" data-source-line="127" data-uid="lnk58" id="link_o7_o25"><path codeLine="127" d="M728.88,423.68 C822.73,411.76 950.3478,395.5462 1035.5978,384.7162" fill="none" id="o7-to-o25" style="stroke:#181818;stroke-width:1;"/><polygon fill="#181818" points="1041.55,383.96,1032.1177,381.1261,1036.5899,384.5901,1033.1259,389.0623,1041.55,383.96" style="stroke:#181818;stroke-width:1;"/><text fill="#000000" font-family="sans-serif" font-size="13" lengthAdjust="spacing" textLength="222.5425" x="766.9" y="387.2284">obo:has member part at some time</text></g><!--link o8 to o26--><g class="link" data-entity-1="o8" data-entity-2="o26" data-source-line="128" data-uid="lnk59" id="link_o8_o26"><path codeLine="128" d="M728.76,514.86 C750.03,511.22 765.9,508.49 765.9,508.49 C765.9,508.49 919.2495,484.9307 1025.3295,468.6407" fill="none" id="o8-to-o26" style="stroke:#181818;stroke-width:1;"/><polygon fill="#181818" points="1031.26,467.73,1021.7571,465.1424,1026.3179,468.4889,1022.9714,473.0497,1031.26,467.73" style="stroke:#181818;stroke-width:1;"/><text fill="#000000" font-family="sans-serif" font-size="13" lengthAdjust="spacing" textLength="222.5425" x="766.9" y="471.0184">obo:has member part at some time</text></g><!--link o8 to o27--><g class="link" data-entity-1="o8" data-entity-2="o27" data-source-line="130" data-uid="lnk60" id="link_o8_o27"><path codeLine="130" d="M728.88,533.49 C822.88,533.49 950.72,533.49 1035.94,533.49" fill="none" id="o8-to-o27" style="stroke:#181818;stroke-width:1;"/><polygon fill="#181818" points="1041.94,533.49,1032.94,529.49,1036.94,533.49,1032.94,537.49,1041.94,533.49" style="stroke:#181818;stroke-width:1;"/><text fill="#000000" font-family="sans-serif" font-size="13" lengthAdjust="spacing" textLength="222.5425" x="766.9" y="530.0584">obo:has member part at some time</text></g><!--link o9 to o28--><g class="link" data-entity-1="o9" data-entity-2="o28" data-source-line="131" data-uid="lnk61" id="link_o9_o28"><path codeLine="131" d="M728.88,626.04 C818.83,623.18 939.263,619.361 1024.663,616.641" fill="none" id="o9-to-o28" style="stroke:#181818;stroke-width:1;"/><polygon fill="#181818" points="1030.66,616.45,1021.5372,612.7385,1025.6625,616.6092,1021.7919,620.7345,1030.66,616.45" style="stroke:#181818;stroke-width:1;"/><text fill="#000000" font-family="sans-serif" font-size="13" lengthAdjust="spacing" textLength="222.5425" x="766.9" y="614.3484">obo:has member part at some time</text></g><!--link o9 to o29--><g class="link" data-entity-1="o9" data-entity-2="o29" data-source-line="133" data-uid="lnk62" id="link_o9_o29"><path codeLine="133" d="M728.76,644.39 C750.03,647.31 765.9,649.49 765.9,649.49 C765.9,649.49 930.1348,669.6781 1035.8348,682.6681" fill="none" id="o9-to-o29" style="stroke:#181818;stroke-width:1;"/><polygon fill="#181818" points="1041.79,683.4,1033.3451,678.3321,1036.8273,682.7901,1032.3693,686.2723,1041.79,683.4" style="stroke:#181818;stroke-width:1;"/><text fill="#000000" font-family="sans-serif" font-size="13" lengthAdjust="spacing" textLength="222.5425" x="766.9" y="646.0584">obo:has member part at some time</text></g><!--link o10 to o30--><g class="link" data-entity-1="o10" data-entity-2="o30" data-source-line="134" data-uid="lnk63" id="link_o10_o30"><path codeLine="134" d="M729.89,746.57 C750.59,750.55 765.9,753.49 765.9,753.49 C765.9,753.49 925.3093,762.3953 1031.2693,768.3153" fill="none" id="o10-to-o30" style="stroke:#181818;stroke-width:1;"/><polygon fill="#181818" points="1037.26,768.65,1028.4971,764.1542,1032.2678,768.3711,1028.0509,772.1417,1037.26,768.65" style="stroke:#181818;stroke-width:1;"/><text fill="#000000" font-family="sans-serif" font-size="13" lengthAdjust="spacing" textLength="222.5425" x="766.9" y="750.0584">obo:has member part at some time</text></g><!--link o11 to o31--><g class="link" data-entity-1="o11" data-entity-2="o31" data-source-line="136" data-uid="lnk64" id="link_o11_o31"><path codeLine="136" d="M729.89,830.53 C750.59,832.23 765.9,833.49 765.9,833.49 C765.9,833.49 926.7394,842.4751 1032.6294,848.3951" fill="none" id="o11-to-o31" style="stroke:#181818;stroke-width:1;"/><polygon fill="#181818" points="1038.62,848.73,1029.8573,844.2339,1033.6278,848.4509,1029.4108,852.2214,1038.62,848.73" style="stroke:#181818;stroke-width:1;"/><text fill="#000000" font-family="sans-serif" font-size="13" lengthAdjust="spacing" textLength="222.5425" x="766.9" y="830.0584">obo:has member part at some time</text></g><!--link o12 to o32--><g class="link" data-entity-1="o12" data-entity-2="o32" data-source-line="138" data-uid="lnk65" id="link_o12_o32"><path codeLine="138" d="M729.81,920.97 C821.99,923.9 946.003,927.8397 1031.103,930.5397" fill="none" id="o12-to-o32" style="stroke:#181818;stroke-width:1;"/><polygon fill="#181818" points="1037.1,930.73,1028.2314,926.4466,1032.1025,930.5714,1027.9777,934.4426,1037.1,930.73" style="stroke:#181818;stroke-width:1;"/><text fill="#000000" font-family="sans-serif" font-size="13" lengthAdjust="spacing" textLength="222.5425" x="766.9" y="918.7884">obo:has member part at some time</text></g><!--link o13 to o33--><g class="link" data-entity-1="o13" data-entity-2="o33" data-source-line="140" data-uid="lnk66" id="link_o13_o33"><path codeLine="140" d="M736.4,1013.49 C821.82,1013.49 930.92,1013.49 1013.44,1013.49" fill="none" id="o13-to-o33" style="stroke:#181818;stroke-width:1;"/><polygon fill="#181818" points="1019.44,1013.49,1010.44,1009.49,1014.44,1013.49,1010.44,1017.49,1019.44,1013.49" style="stroke:#181818;stroke-width:1;"/><text fill="#000000" font-family="sans-serif" font-size="13" lengthAdjust="spacing" textLength="222.5425" x="766.9" y="1010.0584">obo:has member part at some time</text></g><!--SRC=[dLNBZjem5DtdAwpPHyA6WO3KBa2LkXWgrDdCpCvnt24T9qQEenAg_dljn86G9jIN7UYUH-9pVL9yfFc1AfeXaUPSLmUE3b9KzayW-0-Dj4GgVTzhbAIACvtAF93nJ_CBFIHKqzMMdkZ70w85aXZz3b0jyGdnevcmlPL1VmOOuP4Uqo9hYEIQ-AnLoNIfngXLXpg5KK-MsZ1dCAQciU0Dyn78L6MUjDmvZ7jiM8jhrfCvLggsqgRnN1MQPsCdrT2ZE-cdXhwyayxSMaok-T-bfghouCVA2U0x1HXn0kHU0Pbh9z5Rj8sPA2bkiXCf5NRqxhR9MAuQ-0ZHN4WjMNjylNNRcU48ZmlUadfxziLCj4ePlVt4-ofHj1HfgzBRkw_j-3-79WKzdri4Ul6SbndLP__UvktQyKr_KSRsJMsuhbvw2_Xq0TmKEd1Lo3pdegsfxXuogVXgLoF6w4gomkJesf7yqt9cD1PapeGiJ2sqpi2QEuOlCHMYO8h_SWgzkbktut65J6hfRY3fxU3MZiOw9tpjUyzXtaQXwxtmzpw5Rttl2EPj5BhUItzl5cv8XpgT-5DZ5QwxL0nm9U6cIoK0ggamKpLwxpfgUglYTWPNws0KXf_j9tjLN-UzOMOyYxb2jhKGrQYG6KSwpRW5hn3ByY9CYdSB_KOpArxxdwMcdb8rU0O1FqB0SmXu0G574F0I0ZQVLWWQWz04X0QbY44nOb2E61Ga1YM9GL5YK9O4b2K1PKb0MHA_B1SEFVD43rR1oqN7B-N8eUUUw47NrukEN_vBXuuyqOEkRnSTpysOk8QS-C87VJSui7U_aVBScv7cNWUs5nebpvqY8mz50biQZPHdUKo7fLZpeH9S_GK0]--></g></svg>