<svg xmlns="http://www.w3.org/2000/svg" xmlns:xlink="http://www.w3.org/1999/xlink" contentStyleType="text/css" data-diagram-type="CLASS" height="1738px" preserveAspectRatio="none" style="width:1150px;height:1738px;background:#FFFFFF;" version="1.1" viewBox="0 0 1150 1738" width="1150px" zoomAndPan="magnify"><defs/><g><g class="entity" data-entity="o1" data-source-line="3" data-uid="ent0002" id="entity_o1"><rect fill="#F1F1F1" height="44.9766" rx="2.5" ry="2.5" style="stroke:#181818;stroke-width:0.5;" width="138.1504" x="7" y="841"/><text fill="#000000" font-family="sans-serif" font-size="14" lengthAdjust="spacing" textLength="77.6699" x="37.2402" y="856.5352">data:Mazak</text><line style="stroke:#181818;stroke-width:0.5;" x1="8" x2="144.1504" y1="861.4883" y2="861.4883"/><text fill="#000000" font-family="sans-serif" font-size="14" lengthAdjust="spacing" textLength="126.1504" x="13" y="879.0234">type = ex:Machine</text></g><g class="entity" data-entity="o2" data-source-line="6" data-uid="ent0003" id="entity_o2"><rect fill="#F1F1F1" height="44.9766" rx="2.5" ry="2.5" style="stroke:#181818;stroke-width:0.5;" width="148.9277" x="465.06" y="7"/><text fill="#000000" font-family="sans-serif" font-size="14" lengthAdjust="spacing" textLength="134.9277" x="472.06" y="22.5352">data:Mazak-xaxism</text><line style="stroke:#181818;stroke-width:0.5;" x1="466.06" x2="612.9877" y1="27.4883" y2="27.4883"/><text fill="#000000" font-family="sans-serif" font-size="14" lengthAdjust="spacing" textLength="131.7832" x="471.06" y="45.0234">type = ex:Structure</text></g><g class="entity" data-entity="o3" data-source-line="9" data-uid="ent0004" id="entity_o3"><rect fill="#F1F1F1" height="44.9766" rx="2.5" ry="2.5" style="stroke:#181818;stroke-width:0.5;" width="147.6563" x="465.7" y="87"/><text fill="#000000" font-family="sans-serif" font-size="14" lengthAdjust="spacing" textLength="133.6563" x="472.7" y="102.5352">data:Mazak-yaxism</text><line style="stroke:#181818;stroke-width:0.5;" x1="466.7" x2="612.3563" y1="107.4883" y2="107.4883"/><text fill="#000000" font-family="sans-serif" font-size="14" lengthAdjust="spacing" textLength="131.7832" x="471.7" y="125.0234">type = ex:Structure</text></g><g class="entity" data-entity="o4" data-source-line="12" data-uid="ent0005" id="entity_o4"><rect fill="#F1F1F1" height="44.9766" rx="2.5" ry="2.5" style="stroke:#181818;stroke-width:0.5;" width="143.7832" x="467.64" y="167"/><text fill="#000000" font-family="sans-serif" font-size="14" lengthAdjust="spacing" textLength="121.2969" x="478.8832" y="182.5352">data:Mazak-zaxis</text><line style="stroke:#181818;stroke-width:0.5;" x1="468.64" x2="610.4232" y1="187.4883" y2="187.4883"/><text fill="#000000" font-family="sans-serif" font-size="14" lengthAdjust="spacing" textLength="131.7832" x="473.64" y="205.0234">type = ex:Structure</text></g><g class="entity" data-entity="o5" data-source-line="15" data-uid="ent0006" id="entity_o5"><rect fill="#F1F1F1" height="44.9766" rx="2.5" ry="2.5" style="stroke:#181818;stroke-width:0.5;" width="143.7832" x="467.64" y="247"/><text fill="#000000" font-family="sans-serif" font-size="14" lengthAdjust="spacing" textLength="119.3965" x="479.8334" y="262.5352">data:Mazak-table</text><line style="stroke:#181818;stroke-width:0.5;" x1="468.64" x2="610.4232" y1="267.4883" y2="267.4883"/><text fill="#000000" font-family="sans-serif" font-size="14" lengthAdjust="spacing" textLength="131.7832" x="473.64" y="285.0234">type = ex:Structure</text></g><g class="entity" data-entity="o6" data-source-line="18" data-uid="ent0007" id="entity_o6"><rect fill="#F1F1F1" height="44.9766" rx="2.5" ry="2.5" style="stroke:#181818;stroke-width:0.5;" width="148.7705" x="465.14" y="327"/><text fill="#000000" font-family="sans-serif" font-size="14" lengthAdjust="spacing" textLength="134.7705" x="472.14" y="342.5352">data:Mazak-trundle</text><line style="stroke:#181818;stroke-width:0.5;" x1="466.14" x2="612.9105" y1="347.4883" y2="347.4883"/><text fill="#000000" font-family="sans-serif" font-size="14" lengthAdjust="spacing" textLength="131.7832" x="471.14" y="365.0234">type = ex:Structure</text></g><g class="entity" data-entity="o7" data-source-line="21" data-uid="ent0008" id="entity_o7"><rect fill="#F1F1F1" height="44.9766" rx="2.5" ry="2.5" style="stroke:#181818;stroke-width:0.5;" width="218.7529" x="430.15" y="407"/><text fill="#000000" font-family="sans-serif" font-size="14" lengthAdjust="spacing" textLength="94.3564" x="492.3482" y="422.5352">data:Mazak-x</text><line style="stroke:#181818;stroke-width:0.5;" x1="431.15" x2="647.9029" y1="427.4883" y2="427.4883"/><text fill="#000000" font-family="sans-serif" font-size="14" lengthAdjust="spacing" textLength="206.7529" x="436.15" y="445.0234">type = ex:LinearMotionSystem</text></g><g class="entity" data-entity="o8" data-source-line="24" data-uid="ent0009" id="entity_o8"><rect fill="#F1F1F1" height="44.9766" rx="2.5" ry="2.5" style="stroke:#181818;stroke-width:0.5;" width="218.7529" x="430.15" y="487"/><text fill="#000000" font-family="sans-serif" font-size="14" lengthAdjust="spacing" textLength="93.085" x="492.984" y="502.5352">data:Mazak-y</text><line style="stroke:#181818;stroke-width:0.5;" x1="431.15" x2="647.9029" y1="507.4883" y2="507.4883"/><text fill="#000000" font-family="sans-serif" font-size="14" lengthAdjust="spacing" textLength="206.7529" x="436.15" y="525.0234">type = ex:LinearMotionSystem</text></g><g class="entity" data-entity="o9" data-source-line="27" data-uid="ent0010" id="entity_o9"><rect fill="#F1F1F1" height="44.9766" rx="2.5" ry="2.5" style="stroke:#181818;stroke-width:0.5;" width="218.7529" x="430.15" y="567"/><text fill="#000000" font-family="sans-serif" font-size="14" lengthAdjust="spacing" textLength="93.7959" x="492.6285" y="582.5352">data:Mazak-z</text><line style="stroke:#181818;stroke-width:0.5;" x1="431.15" x2="647.9029" y1="587.4883" y2="587.4883"/><text fill="#000000" font-family="sans-serif" font-size="14" lengthAdjust="spacing" textLength="206.7529" x="436.15" y="605.0234">type = ex:LinearMotionSystem</text></g><g class="entity" data-entity="o10" data-source-line="30" data-uid="ent0011" id="entity_o10"><rect fill="#F1F1F1" height="44.9766" rx="2.5" ry="2.5" style="stroke:#181818;stroke-width:0.5;" width="220.7559" x="429.15" y="647"/><text fill="#000000" font-family="sans-serif" font-size="14" lengthAdjust="spacing" textLength="92.9414" x="493.0572" y="662.5352">data:Mazak-c</text><line style="stroke:#181818;stroke-width:0.5;" x1="430.15" x2="648.9059" y1="667.4883" y2="667.4883"/><text fill="#000000" font-family="sans-serif" font-size="14" lengthAdjust="spacing" textLength="208.7559" x="435.15" y="685.0234">type = ex:RotaryMotionSystem</text></g><g class="entity" data-entity="o11" data-source-line="33" data-uid="ent0012" id="entity_o11"><rect fill="#F1F1F1" height="44.9766" rx="2.5" ry="2.5" style="stroke:#181818;stroke-width:0.5;" width="220.7559" x="429.15" y="727"/><text fill="#000000" font-family="sans-serif" font-size="14" lengthAdjust="spacing" textLength="100.3105" x="489.3727" y="742.5352">data:Mazak-br</text><line style="stroke:#181818;stroke-width:0.5;" x1="430.15" x2="648.9059" y1="747.4883" y2="747.4883"/><text fill="#000000" font-family="sans-serif" font-size="14" lengthAdjust="spacing" textLength="208.7559" x="435.15" y="765.0234">type = ex:RotaryMotionSystem</text></g><g class="entity" data-entity="o12" data-source-line="36" data-uid="ent0013" id="entity_o12"><rect fill="#F1F1F1" height="44.9766" rx="2.5" ry="2.5" style="stroke:#181818;stroke-width:0.5;" width="220.7559" x="429.15" y="807"/><text fill="#000000" font-family="sans-serif" font-size="14" lengthAdjust="spacing" textLength="101.7939" x="488.631" y="822.5352">data:Mazak-c2</text><line style="stroke:#181818;stroke-width:0.5;" x1="430.15" x2="648.9059" y1="827.4883" y2="827.4883"/><text fill="#000000" font-family="sans-serif" font-size="14" lengthAdjust="spacing" textLength="208.7559" x="435.15" y="845.0234">type = ex:RotaryMotionSystem</text></g><g class="entity" data-entity="o13" data-source-line="39" data-uid="ent0014" id="entity_o13"><rect fill="#F1F1F1" height="44.9766" rx="2.5" ry="2.5" style="stroke:#181818;stroke-width:0.5;" width="180.6494" x="449.2" y="887"/><text fill="#000000" font-family="sans-serif" font-size="14" lengthAdjust="spacing" textLength="115.4658" x="481.7918" y="902.5352">data:Mazak-cont</text><line style="stroke:#181818;stroke-width:0.5;" x1="450.2" x2="628.8494" y1="907.4883" y2="907.4883"/><text fill="#000000" font-family="sans-serif" font-size="14" lengthAdjust="spacing" textLength="168.6494" x="455.2" y="925.0234">type = ex:ControlSystem</text></g><g class="entity" data-entity="o14" data-source-line="42" data-uid="ent0015" id="entity_o14"><rect fill="#F1F1F1" height="44.9766" rx="2.5" ry="2.5" style="stroke:#181818;stroke-width:0.5;" width="140.3623" x="469.35" y="967"/><text fill="#000000" font-family="sans-serif" font-size="14" lengthAdjust="spacing" textLength="126.3623" x="476.35" y="982.5352">data:Mazak-door1</text><line style="stroke:#181818;stroke-width:0.5;" x1="470.35" x2="608.7123" y1="987.4883" y2="987.4883"/><text fill="#000000" font-family="sans-serif" font-size="14" lengthAdjust="spacing" textLength="121.4678" x="475.35" y="1005.0234">type = obo:object</text></g><g class="entity" data-entity="o15" data-source-line="45" data-uid="ent0016" id="entity_o15"><rect fill="#F1F1F1" height="44.9766" rx="2.5" ry="2.5" style="stroke:#181818;stroke-width:0.5;" width="150.2197" x="464.42" y="1047"/><text fill="#000000" font-family="sans-serif" font-size="14" lengthAdjust="spacing" textLength="136.2197" x="471.42" y="1062.5352">data:Mazak-partocc</text><line style="stroke:#181818;stroke-width:0.5;" x1="465.42" x2="613.6397" y1="1067.4883" y2="1067.4883"/><text fill="#000000" font-family="sans-serif" font-size="14" lengthAdjust="spacing" textLength="96.4004" x="470.42" y="1085.0234">type = ex:Part</text></g><g class="entity" data-entity="o16" data-source-line="48" data-uid="ent0017" id="entity_o16"><rect fill="#F1F1F1" height="44.9766" rx="2.5" ry="2.5" style="stroke:#181818;stroke-width:0.5;" width="190.6299" x="444.21" y="1127"/><text fill="#000000" font-family="sans-serif" font-size="14" lengthAdjust="spacing" textLength="112.5879" x="483.231" y="1142.5352">data:Mazak-elec</text><line style="stroke:#181818;stroke-width:0.5;" x1="445.21" x2="633.8399" y1="1147.4883" y2="1147.4883"/><text fill="#000000" font-family="sans-serif" font-size="14" lengthAdjust="spacing" textLength="178.6299" x="450.21" y="1165.0234">type = ex:ElectricalSystem</text></g><g class="entity" data-entity="o17" data-source-line="51" data-uid="ent0018" id="entity_o17"><rect fill="#F1F1F1" height="44.9766" rx="2.5" ry="2.5" style="stroke:#181818;stroke-width:0.5;" width="193.8906" x="442.58" y="1207"/><text fill="#000000" font-family="sans-serif" font-size="14" lengthAdjust="spacing" textLength="147.998" x="465.5263" y="1222.5352">data:Mazak-hydraulic</text><line style="stroke:#181818;stroke-width:0.5;" x1="443.58" x2="635.4706" y1="1227.4883" y2="1227.4883"/><text fill="#000000" font-family="sans-serif" font-size="14" lengthAdjust="spacing" textLength="181.8906" x="448.58" y="1245.0234">type = ex:HydraulicSystem</text></g><g class="entity" data-entity="o18" data-source-line="54" data-uid="ent0019" id="entity_o18"><rect fill="#F1F1F1" height="44.9766" rx="2.5" ry="2.5" style="stroke:#181818;stroke-width:0.5;" width="149.8438" x="464.61" y="1287"/><text fill="#000000" font-family="sans-serif" font-size="14" lengthAdjust="spacing" textLength="135.8438" x="471.61" y="1302.5352">data:Mazak-coolant</text><line style="stroke:#181818;stroke-width:0.5;" x1="465.61" x2="613.4538" y1="1307.4883" y2="1307.4883"/><text fill="#000000" font-family="sans-serif" font-size="14" lengthAdjust="spacing" textLength="121.4678" x="470.61" y="1325.0234">type = obo:object</text></g><g class="entity" data-entity="o19" data-source-line="57" data-uid="ent0020" id="entity_o19"><rect fill="#F1F1F1" height="44.9766" rx="2.5" ry="2.5" style="stroke:#181818;stroke-width:0.5;" width="200.2344" x="439.41" y="1367"/><text fill="#000000" font-family="sans-serif" font-size="14" lengthAdjust="spacing" textLength="157.0146" x="461.0199" y="1382.5352">data:Mazak-pneumatic</text><line style="stroke:#181818;stroke-width:0.5;" x1="440.41" x2="638.6444" y1="1387.4883" y2="1387.4883"/><text fill="#000000" font-family="sans-serif" font-size="14" lengthAdjust="spacing" textLength="188.2344" x="445.41" y="1405.0234">type = ex:PneumaticSystem</text></g><g class="entity" data-entity="o20" data-source-line="60" data-uid="ent0021" id="entity_o20"><rect fill="#F1F1F1" height="44.9766" rx="2.5" ry="2.5" style="stroke:#181818;stroke-width:0.5;" width="206.2773" x="436.39" y="1447"/><text fill="#000000" font-family="sans-serif" font-size="14" lengthAdjust="spacing" textLength="158.5664" x="460.2455" y="1462.5352">data:Mazak-lubrication</text><line style="stroke:#181818;stroke-width:0.5;" x1="437.39" x2="641.6673" y1="1467.4883" y2="1467.4883"/><text fill="#000000" font-family="sans-serif" font-size="14" lengthAdjust="spacing" textLength="194.2773" x="442.39" y="1485.0234">type = ex:LubricationSystem</text></g><g class="entity" data-entity="o21" data-source-line="63" data-uid="ent0022" id="entity_o21"><rect fill="#F1F1F1" height="44.9766" rx="2.5" ry="2.5" style="stroke:#181818;stroke-width:0.5;" width="180.1406" x="449.46" y="1527"/><text fill="#000000" font-family="sans-serif" font-size="14" lengthAdjust="spacing" textLength="166.1406" x="456.46" y="1542.5352">data:Mazak-personnelm</text><line style="stroke:#181818;stroke-width:0.5;" x1="450.46" x2="628.6006" y1="1547.4883" y2="1547.4883"/><text fill="#000000" font-family="sans-serif" font-size="14" lengthAdjust="spacing" textLength="128.5703" x="455.46" y="1565.0234">type = core:Person</text></g><g class="entity" data-entity="o22" data-source-line="66" data-uid="ent0023" id="entity_o22"><rect fill="#F1F1F1" height="44.9766" rx="2.5" ry="2.5" style="stroke:#181818;stroke-width:0.5;" width="166.4072" x="456.32" y="1607"/><text fill="#000000" font-family="sans-serif" font-size="14" lengthAdjust="spacing" textLength="152.4072" x="463.32" y="1622.5352">data:Mazak-procstock</text><line style="stroke:#181818;stroke-width:0.5;" x1="457.32" x2="621.7272" y1="1627.4883" y2="1627.4883"/><text fill="#000000" font-family="sans-serif" font-size="14" lengthAdjust="spacing" textLength="106.6953" x="462.32" y="1645.0234">type = ex:Stock</text></g><g class="entity" data-entity="o23" data-source-line="69" data-uid="ent0024" id="entity_o23"><rect fill="#F1F1F1" height="44.9766" rx="2.5" ry="2.5" style="stroke:#181818;stroke-width:0.5;" width="178.5" x="450.28" y="1687"/><text fill="#000000" font-family="sans-serif" font-size="14" lengthAdjust="spacing" textLength="164.5" x="457.28" y="1702.5352">data:Mazak-enclosurem</text><line style="stroke:#181818;stroke-width:0.5;" x1="451.28" x2="627.78" y1="1707.4883" y2="1707.4883"/><text fill="#000000" font-family="sans-serif" font-size="14" lengthAdjust="spacing" textLength="131.7832" x="456.28" y="1725.0234">type = ex:Structure</text></g><g class="entity" data-entity="o24" data-source-line="72" data-uid="ent0025" id="entity_o24"><rect fill="#F1F1F1" height="44.9766" rx="2.5" ry="2.5" style="stroke:#181818;stroke-width:0.5;" width="188.4805" x="944.69" y="207"/><text fill="#000000" font-family="sans-serif" font-size="14" lengthAdjust="spacing" textLength="174.4805" x="951.69" y="222.5352">data:Mazak-x-Xballscrew</text><line style="stroke:#181818;stroke-width:0.5;" x1="945.69" x2="1132.1705" y1="227.4883" y2="227.4883"/><text fill="#000000" font-family="sans-serif" font-size="14" lengthAdjust="spacing" textLength="132.4668" x="950.69" y="245.0234">type = ex:Ballscrew</text></g><g class="entity" data-entity="o25" data-source-line="75" data-uid="ent0026" id="entity_o25"><rect fill="#F1F1F1" height="44.9766" rx="2.5" ry="2.5" style="stroke:#181818;stroke-width:0.5;" width="166.4551" x="955.7" y="287"/><text fill="#000000" font-family="sans-serif" font-size="14" lengthAdjust="spacing" textLength="152.4551" x="962.7" y="302.5352">data:Mazak-x-Xmotor</text><line style="stroke:#181818;stroke-width:0.5;" x1="956.7" x2="1121.1551" y1="307.4883" y2="307.4883"/><text fill="#000000" font-family="sans-serif" font-size="14" lengthAdjust="spacing" textLength="110.1885" x="961.7" y="325.0234">type = ex:Motor</text></g><g class="entity" data-entity="o26" data-source-line="78" data-uid="ent0027" id="entity_o26"><rect fill="#F1F1F1" height="44.9766" rx="2.5" ry="2.5" style="stroke:#181818;stroke-width:0.5;" width="187.168" x="945.34" y="367"/><text fill="#000000" font-family="sans-serif" font-size="14" lengthAdjust="spacing" textLength="173.168" x="952.34" y="382.5352">data:Mazak-y-Yballscrew</text><line style="stroke:#181818;stroke-width:0.5;" x1="946.34" x2="1131.508" y1="387.4883" y2="387.4883"/><text fill="#000000" font-family="sans-serif" font-size="14" lengthAdjust="spacing" textLength="132.4668" x="951.34" y="405.0234">type = ex:Ballscrew</text></g><g class="entity" data-entity="o27" data-source-line="81" data-uid="ent0028" id="entity_o27"><rect fill="#F1F1F1" height="44.9766" rx="2.5" ry="2.5" style="stroke:#181818;stroke-width:0.5;" width="165.1426" x="956.36" y="447"/><text fill="#000000" font-family="sans-serif" font-size="14" lengthAdjust="spacing" textLength="151.1426" x="963.36" y="462.5352">data:Mazak-y-Ymotor</text><line style="stroke:#181818;stroke-width:0.5;" x1="957.36" x2="1120.5026" y1="467.4883" y2="467.4883"/><text fill="#000000" font-family="sans-serif" font-size="14" lengthAdjust="spacing" textLength="110.1885" x="962.36" y="485.0234">type = ex:Motor</text></g><g class="entity" data-entity="o28" data-source-line="84" data-uid="ent0029" id="entity_o28"><rect fill="#F1F1F1" height="44.9766" rx="2.5" ry="2.5" style="stroke:#181818;stroke-width:0.5;" width="187.6191" x="945.12" y="527"/><text fill="#000000" font-family="sans-serif" font-size="14" lengthAdjust="spacing" textLength="173.6191" x="952.12" y="542.5352">data:Mazak-z-Zballscrew</text><line style="stroke:#181818;stroke-width:0.5;" x1="946.12" x2="1131.7391" y1="547.4883" y2="547.4883"/><text fill="#000000" font-family="sans-serif" font-size="14" lengthAdjust="spacing" textLength="132.4668" x="951.12" y="565.0234">type = ex:Ballscrew</text></g><g class="entity" data-entity="o29" data-source-line="87" data-uid="ent0030" id="entity_o29"><rect fill="#F1F1F1" height="44.9766" rx="2.5" ry="2.5" style="stroke:#181818;stroke-width:0.5;" width="165.5938" x="956.13" y="607"/><text fill="#000000" font-family="sans-serif" font-size="14" lengthAdjust="spacing" textLength="151.5938" x="963.13" y="622.5352">data:Mazak-z-Zmotor</text><line style="stroke:#181818;stroke-width:0.5;" x1="957.13" x2="1120.7238" y1="627.4883" y2="627.4883"/><text fill="#000000" font-family="sans-serif" font-size="14" lengthAdjust="spacing" textLength="110.1885" x="962.13" y="645.0234">type = ex:Motor</text></g><g class="entity" data-entity="o30" data-source-line="90" data-uid="ent0031" id="entity_o30"><rect fill="#F1F1F1" height="44.9766" rx="2.5" ry="2.5" style="stroke:#181818;stroke-width:0.5;" width="174.8154" x="951.52" y="687"/><text fill="#000000" font-family="sans-serif" font-size="14" lengthAdjust="spacing" textLength="160.8154" x="958.52" y="702.5352">data:Mazak-c-C2motor</text><line style="stroke:#181818;stroke-width:0.5;" x1="952.52" x2="1125.3354" y1="707.4883" y2="707.4883"/><text fill="#000000" font-family="sans-serif" font-size="14" lengthAdjust="spacing" textLength="110.1885" x="957.52" y="725.0234">type = ex:Motor</text></g><g class="entity" data-entity="o31" data-source-line="93" data-uid="ent0032" id="entity_o31"><rect fill="#F1F1F1" height="44.9766" rx="2.5" ry="2.5" style="stroke:#181818;stroke-width:0.5;" width="171.6982" x="953.08" y="767"/><text fill="#000000" font-family="sans-serif" font-size="14" lengthAdjust="spacing" textLength="157.6982" x="960.08" y="782.5352">data:Mazak-br-Bmotor</text><line style="stroke:#181818;stroke-width:0.5;" x1="954.08" x2="1123.7782" y1="787.4883" y2="787.4883"/><text fill="#000000" font-family="sans-serif" font-size="14" lengthAdjust="spacing" textLength="110.1885" x="959.08" y="805.0234">type = ex:Motor</text></g><g class="entity" data-entity="o32" data-source-line="96" data-uid="ent0033" id="entity_o32"><rect fill="#F1F1F1" height="44.9766" rx="2.5" ry="2.5" style="stroke:#181818;stroke-width:0.5;" width="174.8154" x="951.52" y="847"/><text fill="#000000" font-family="sans-serif" font-size="14" lengthAdjust="spacing" textLength="160.8154" x="958.52" y="862.5352">data:Mazak-c2-Cmotor</text><line style="stroke:#181818;stroke-width:0.5;" x1="952.52" x2="1125.3354" y1="867.4883" y2="867.4883"/><text fill="#000000" font-family="sans-serif" font-size="14" lengthAdjust="spacing" textLength="110.1885" x="957.52" y="885.0234">type = ex:Motor</text></g><g class="entity" data-entity="o33" data-source-line="99" data-uid="ent0034" id="entity_o33"><rect fill="#F1F1F1" height="44.9766" rx="2.5" ry="2.5" style="stroke:#181818;stroke-width:0.5;" width="210.0439" x="933.91" y="927"/><text fill="#000000" font-family="sans-serif" font-size="14" lengthAdjust="spacing" textLength="162.8867" x="957.4886" y="942.5352">data:Mazak-cont-path1</text><line style="stroke:#181818;stroke-width:0.5;" x1="934.91" x2="1142.9539" y1="947.4883" y2="947.4883"/><text fill="#000000" font-family="sans-serif" font-size="14" lengthAdjust="spacing" textLength="198.0439" x="939.91" y="965.0234">type = ex:ControlSystemPath</text></g><!--link o1 to o2--><g class="link" data-entity-1="o1" data-entity-2="o2" data-source-line="102" data-uid="lnk35" id="link_o1_o2"><path codeLine="102" d="M80.06,840.91 C96.5,716.73 175.15,122.49 175.15,122.49 C175.15,122.49 352.9974,76.9779 459.1774,49.7979" fill="none" id="o1-to-o2" style="stroke:#181818;stroke-width:1;"/><polygon fill="#181818" points="464.99,48.31,455.2792,46.6668,460.1462,49.5499,457.2631,54.4169,464.99,48.31" style="stroke:#181818;stroke-width:1;"/><text fill="#000000" font-family="sans-serif" font-size="13" lengthAdjust="spacing" textLength="222.5425" x="176.15" y="64.2284">obo:has member part at some time</text></g><!--link o1 to o3--><g class="link" data-entity-1="o1" data-entity-2="o3" data-source-line="103" data-uid="lnk36" id="link_o1_o3"><path codeLine="103" d="M80.45,840.74 C97.7,724.51 175.15,202.49 175.15,202.49 C175.15,202.49 353.5074,156.8478 459.6174,129.6878" fill="none" id="o1-to-o3" style="stroke:#181818;stroke-width:1;"/><polygon fill="#181818" points="465.43,128.2,455.7192,126.5566,460.5862,129.4398,457.703,134.3068,465.43,128.2" style="stroke:#181818;stroke-width:1;"/><text fill="#000000" font-family="sans-serif" font-size="13" lengthAdjust="spacing" textLength="222.5425" x="176.15" y="144.2284">obo:has member part at some time</text></g><!--link o1 to o4--><g class="link" data-entity-1="o1" data-entity-2="o4" data-source-line="104" data-uid="lnk37" id="link_o1_o4"><path codeLine="104" d="M80.92,840.72 C99.05,733.3 175.15,282.49 175.15,282.49 C175.15,282.49 355.5274,236.3279 461.3574,209.2379" fill="none" id="o1-to-o4" style="stroke:#181818;stroke-width:1;"/><polygon fill="#181818" points="467.17,207.75,457.4592,206.1068,462.3262,208.9899,459.443,213.8569,467.17,207.75" style="stroke:#181818;stroke-width:1;"/><text fill="#000000" font-family="sans-serif" font-size="13" lengthAdjust="spacing" textLength="222.5425" x="176.15" y="224.2284">obo:has member part at some time</text></g><!--link o1 to o5--><g class="link" data-entity-1="o1" data-entity-2="o5" data-source-line="105" data-uid="lnk38" id="link_o1_o5"><path codeLine="105" d="M81.54,840.66 C100.73,742.65 175.15,362.49 175.15,362.49 C175.15,362.49 355.5274,316.3279 461.3574,289.2379" fill="none" id="o1-to-o5" style="stroke:#181818;stroke-width:1;"/><polygon fill="#181818" points="467.17,287.75,457.4592,286.1068,462.3262,288.9899,459.443,293.8569,467.17,287.75" style="stroke:#181818;stroke-width:1;"/><text fill="#000000" font-family="sans-serif" font-size="13" lengthAdjust="spacing" textLength="222.5425" x="176.15" y="304.2284">obo:has member part at some time</text></g><!--link o1 to o6--><g class="link" data-entity-1="o1" data-entity-2="o6" data-source-line="106" data-uid="lnk39" id="link_o1_o6"><path codeLine="106" d="M82.42,840.56 C102.88,752.7 175.15,442.49 175.15,442.49 C175.15,442.49 352.9974,396.9779 459.1774,369.7979" fill="none" id="o1-to-o6" style="stroke:#181818;stroke-width:1;"/><polygon fill="#181818" points="464.99,368.31,455.2792,366.6668,460.1462,369.5499,457.2631,374.4169,464.99,368.31" style="stroke:#181818;stroke-width:1;"/><text fill="#000000" font-family="sans-serif" font-size="13" lengthAdjust="spacing" textLength="222.5425" x="176.15" y="384.2284">obo:has member part at some time</text></g><!--link o1 to o7--><g class="link" data-entity-1="o1" data-entity-2="o7" data-source-line="107" data-uid="lnk40" id="link_o1_o7"><path codeLine="107" d="M83.66,840.59 C105.65,764.13 175.15,522.49 175.15,522.49 C175.15,522.49 335.7674,481.3879 443.3574,453.8479" fill="none" id="o1-to-o7" style="stroke:#181818;stroke-width:1;"/><polygon fill="#181818" points="449.17,452.36,439.4592,450.7167,444.3262,453.5999,441.443,458.4669,449.17,452.36" style="stroke:#181818;stroke-width:1;"/><text fill="#000000" font-family="sans-serif" font-size="13" lengthAdjust="spacing" textLength="222.5425" x="176.15" y="464.2284">obo:has member part at some time</text></g><!--link o1 to o8--><g class="link" data-entity-1="o1" data-entity-2="o8" data-source-line="108" data-uid="lnk41" id="link_o1_o8"><path codeLine="108" d="M85.61,840.7 C109.47,776.96 175.15,601.49 175.15,601.49 C175.15,601.49 334.3235,561.1926 441.9535,533.9426" fill="none" id="o1-to-o8" style="stroke:#181818;stroke-width:1;"/><polygon fill="#181818" points="447.77,532.47,438.0635,530.8013,442.9229,533.6972,440.027,538.5566,447.77,532.47" style="stroke:#181818;stroke-width:1;"/><text fill="#000000" font-family="sans-serif" font-size="13" lengthAdjust="spacing" textLength="222.5425" x="176.15" y="543.8184">obo:has member part at some time</text></g><!--link o1 to o9--><g class="link" data-entity-1="o1" data-entity-2="o9" data-source-line="109" data-uid="lnk42" id="link_o1_o9"><path codeLine="109" d="M89.1,840.81 C115.29,791.41 175.15,678.49 175.15,678.49 C175.15,678.49 331.4522,640.2073 439.1222,613.8373" fill="none" id="o1-to-o9" style="stroke:#181818;stroke-width:1;"/><polygon fill="#181818" points="444.95,612.41,435.2568,610.6658,440.0935,613.5994,437.1599,618.4361,444.95,612.41" style="stroke:#181818;stroke-width:1;"/><text fill="#000000" font-family="sans-serif" font-size="13" lengthAdjust="spacing" textLength="222.5425" x="176.15" y="622.5884">obo:has member part at some time</text></g><!--link o1 to o10--><g class="link" data-entity-1="o1" data-entity-2="o10" data-source-line="110" data-uid="lnk43" id="link_o1_o10"><path codeLine="110" d="M97.16,840.56 C125.85,807.79 175.15,751.49 175.15,751.49 C175.15,751.49 323.4672,718.0208 430.9672,693.7608" fill="none" id="o1-to-o10" style="stroke:#181818;stroke-width:1;"/><polygon fill="#181818" points="436.82,692.44,427.1602,690.5194,431.9427,693.5407,428.9213,698.3231,436.82,692.44" style="stroke:#181818;stroke-width:1;"/><text fill="#000000" font-family="sans-serif" font-size="13" lengthAdjust="spacing" textLength="222.5425" x="176.15" y="699.7184">obo:has member part at some time</text></g><!--link o1 to o11--><g class="link" data-entity-1="o1" data-entity-2="o11" data-source-line="111" data-uid="lnk44" id="link_o1_o11"><path codeLine="111" d="M123.81,840.62 C149.08,828.25 175.15,815.49 175.15,815.49 C175.15,815.49 316.1167,789.8926 423.1067,770.4526" fill="none" id="o1-to-o11" style="stroke:#181818;stroke-width:1;"/><polygon fill="#181818" points="429.01,769.38,419.4399,767.0534,424.0905,770.2739,420.8701,774.9245,429.01,769.38" style="stroke:#181818;stroke-width:1;"/><text fill="#000000" font-family="sans-serif" font-size="13" lengthAdjust="spacing" textLength="222.5425" x="176.15" y="773.1484">obo:has member part at some time</text></g><!--link o1 to o12--><g class="link" data-entity-1="o1" data-entity-2="o12" data-source-line="112" data-uid="lnk45" id="link_o1_o12"><path codeLine="112" d="M145.16,858.47 C219.87,852.97 334.8863,844.5015 422.9863,838.0015" fill="none" id="o1-to-o12" style="stroke:#181818;stroke-width:1;"/><polygon fill="#181818" points="428.97,837.56,419.7001,834.2331,423.9836,837.9279,420.2887,842.2114,428.97,837.56" style="stroke:#181818;stroke-width:1;"/><text fill="#000000" font-family="sans-serif" font-size="13" lengthAdjust="spacing" textLength="222.5425" x="176.15" y="837.0584">obo:has member part at some time</text></g><!--link o1 to o13--><g class="link" data-entity-1="o1" data-entity-2="o13" data-source-line="113" data-uid="lnk46" id="link_o1_o13"><path codeLine="113" d="M145.46,876.04 C162.07,879.09 175.15,881.49 175.15,881.49 C175.15,881.49 335.1177,893.8191 442.7177,902.1091" fill="none" id="o1-to-o13" style="stroke:#181818;stroke-width:1;"/><polygon fill="#181818" points="448.7,902.57,440.0339,897.8905,443.7148,902.1859,439.4193,905.8668,448.7,902.57" style="stroke:#181818;stroke-width:1;"/><text fill="#000000" font-family="sans-serif" font-size="13" lengthAdjust="spacing" textLength="222.5425" x="176.15" y="878.0584">obo:has member part at some time</text></g><!--link o1 to o14--><g class="link" data-entity-1="o1" data-entity-2="o14" data-source-line="114" data-uid="lnk47" id="link_o1_o14"><path codeLine="114" d="M114.43,886.35 C142.15,903.3 175.15,923.49 175.15,923.49 C175.15,923.49 357.4765,956.6081 462.9965,975.7681" fill="none" id="o1-to-o14" style="stroke:#181818;stroke-width:1;"/><polygon fill="#181818" points="468.9,976.84,460.7594,971.2965,463.9804,975.9467,459.3302,979.1677,468.9,976.84" style="stroke:#181818;stroke-width:1;"/><text fill="#000000" font-family="sans-serif" font-size="13" lengthAdjust="spacing" textLength="222.5425" x="176.15" y="920.0584">obo:has member part at some time</text></g><!--link o1 to o15--><g class="link" data-entity-1="o1" data-entity-2="o15" data-source-line="115" data-uid="lnk48" id="link_o1_o15"><path codeLine="115" d="M95.06,886.24 C123.38,922.03 175.15,987.49 175.15,987.49 C175.15,987.49 351.9572,1027.3892 458.2672,1051.3792" fill="none" id="o1-to-o15" style="stroke:#181818;stroke-width:1;"/><polygon fill="#181818" points="464.12,1052.7,456.2213,1046.817,459.2426,1051.5994,454.4603,1054.6208,464.12,1052.7" style="stroke:#181818;stroke-width:1;"/><text fill="#000000" font-family="sans-serif" font-size="13" lengthAdjust="spacing" textLength="222.5425" x="176.15" y="984.0584">obo:has member part at some time</text></g><!--link o1 to o16--><g class="link" data-entity-1="o1" data-entity-2="o16" data-source-line="116" data-uid="lnk49" id="link_o1_o16"><path codeLine="116" d="M88.52,886.48 C114.39,938.44 175.15,1060.49 175.15,1060.49 C175.15,1060.49 331.4522,1098.7727 439.1222,1125.1427" fill="none" id="o1-to-o16" style="stroke:#181818;stroke-width:1;"/><polygon fill="#181818" points="444.95,1126.57,437.1599,1120.5439,440.0935,1125.3806,435.2568,1128.3142,444.95,1126.57" style="stroke:#181818;stroke-width:1;"/><text fill="#000000" font-family="sans-serif" font-size="13" lengthAdjust="spacing" textLength="222.5425" x="176.15" y="1057.0584">obo:has member part at some time</text></g><!--link o1 to o17--><g class="link" data-entity-1="o1" data-entity-2="o17" data-source-line="117" data-uid="lnk50" id="link_o1_o17"><path codeLine="117" d="M85.27,886.38 C108.84,952.23 175.15,1137.49 175.15,1137.49 C175.15,1137.49 334.3235,1177.7874 441.9535,1205.0374" fill="none" id="o1-to-o17" style="stroke:#181818;stroke-width:1;"/><polygon fill="#181818" points="447.77,1206.51,440.027,1200.4234,442.9229,1205.2828,438.0635,1208.1787,447.77,1206.51" style="stroke:#181818;stroke-width:1;"/><text fill="#000000" font-family="sans-serif" font-size="13" lengthAdjust="spacing" textLength="222.5425" x="176.15" y="1134.0584">obo:has member part at some time</text></g><!--link o1 to o18--><g class="link" data-entity-1="o1" data-entity-2="o18" data-source-line="118" data-uid="lnk51" id="link_o1_o18"><path codeLine="118" d="M83.43,886.38 C105.17,964.6 175.15,1216.49 175.15,1216.49 C175.15,1216.49 351.9974,1261.7523 458.3074,1288.9623" fill="none" id="o1-to-o18" style="stroke:#181818;stroke-width:1;"/><polygon fill="#181818" points="464.12,1290.45,456.3929,1284.3433,459.2761,1289.2102,454.4092,1292.0935,464.12,1290.45" style="stroke:#181818;stroke-width:1;"/><text fill="#000000" font-family="sans-serif" font-size="13" lengthAdjust="spacing" textLength="222.5425" x="176.15" y="1213.0584">obo:has member part at some time</text></g><!--link o1 to o19--><g class="link" data-entity-1="o1" data-entity-2="o19" data-source-line="119" data-uid="lnk52" id="link_o1_o19"><path codeLine="119" d="M82.28,886.47 C102.55,975.98 175.15,1296.49 175.15,1296.49 C175.15,1296.49 335.7673,1337.6026 443.3573,1365.1326" fill="none" id="o1-to-o19" style="stroke:#181818;stroke-width:1;"/><polygon fill="#181818" points="449.17,1366.62,441.4425,1360.5138,444.3261,1365.3805,439.4593,1368.2641,449.17,1366.62" style="stroke:#181818;stroke-width:1;"/><text fill="#000000" font-family="sans-serif" font-size="13" lengthAdjust="spacing" textLength="222.5425" x="176.15" y="1293.0584">obo:has member part at some time</text></g><!--link o1 to o20--><g class="link" data-entity-1="o1" data-entity-2="o20" data-source-line="120" data-uid="lnk53" id="link_o1_o20"><path codeLine="120" d="M81.42,886.2 C100.4,985.48 175.15,1376.49 175.15,1376.49 C175.15,1376.49 335.7673,1417.6026 443.3573,1445.1326" fill="none" id="o1-to-o20" style="stroke:#181818;stroke-width:1;"/><polygon fill="#181818" points="449.17,1446.62,441.4425,1440.5138,444.3261,1445.3805,439.4593,1448.2641,449.17,1446.62" style="stroke:#181818;stroke-width:1;"/><text fill="#000000" font-family="sans-serif" font-size="13" lengthAdjust="spacing" textLength="222.5425" x="176.15" y="1373.0584">obo:has member part at some time</text></g><!--link o1 to o21--><g class="link" data-entity-1="o1" data-entity-2="o21" data-source-line="121" data-uid="lnk54" id="link_o1_o21"><path codeLine="121" d="M80.86,886.37 C98.88,995.35 175.15,1456.49 175.15,1456.49 C175.15,1456.49 335.7673,1497.6026 443.3573,1525.1326" fill="none" id="o1-to-o21" style="stroke:#181818;stroke-width:1;"/><polygon fill="#181818" points="449.17,1526.62,441.4425,1520.5138,444.3261,1525.3805,439.4593,1528.2641,449.17,1526.62" style="stroke:#181818;stroke-width:1;"/><text fill="#000000" font-family="sans-serif" font-size="13" lengthAdjust="spacing" textLength="222.5425" x="176.15" y="1453.0584">obo:has member part at some time</text></g><!--link o1 to o22--><g class="link" data-entity-1="o1" data-entity-2="o22" data-source-line="122" data-uid="lnk55" id="link_o1_o22"><path codeLine="122" d="M80.39,886.27 C97.53,1003.83 175.15,1536.49 175.15,1536.49 C175.15,1536.49 343.0474,1579.4623 450.2574,1606.9023" fill="none" id="o1-to-o22" style="stroke:#181818;stroke-width:1;"/><polygon fill="#181818" points="456.07,1608.39,448.3429,1602.2833,451.2261,1607.1502,446.3592,1610.0335,456.07,1608.39" style="stroke:#181818;stroke-width:1;"/><text fill="#000000" font-family="sans-serif" font-size="13" lengthAdjust="spacing" textLength="222.5425" x="176.15" y="1533.0584">obo:has member part at some time</text></g><!--link o1 to o23--><g class="link" data-entity-1="o1" data-entity-2="o23" data-source-line="123" data-uid="lnk56" id="link_o1_o23"><path codeLine="123" d="M80.06,886.44 C96.5,1012.64 175.15,1616.49 175.15,1616.49 C175.15,1616.49 336.7274,1657.8423 444.2874,1685.3723" fill="none" id="o1-to-o23" style="stroke:#181818;stroke-width:1;"/><polygon fill="#181818" points="450.1,1686.86,442.3729,1680.7533,445.2561,1685.6202,440.3892,1688.5035,450.1,1686.86" style="stroke:#181818;stroke-width:1;"/><text fill="#000000" font-family="sans-serif" font-size="13" lengthAdjust="spacing" textLength="222.5425" x="176.15" y="1613.0584">obo:has member part at some time</text></g><!--link o7 to o24--><g class="link" data-entity-1="o7" data-entity-2="o24" data-source-line="124" data-uid="lnk57" id="link_o7_o24"><path codeLine="124" d="M603.2,406.57 C627.64,397.63 649.91,389.49 649.91,389.49 C649.91,389.49 679.91,305.49 679.91,305.49 C679.91,305.49 832.3808,273.126 938.4608,250.606" fill="none" id="o7-to-o24" style="stroke:#181818;stroke-width:1;"/><polygon fill="#181818" points="944.33,249.36,934.6955,247.3162,939.439,250.3983,936.3569,255.1418,944.33,249.36" style="stroke:#181818;stroke-width:1;"/><text fill="#000000" font-family="sans-serif" font-size="13" lengthAdjust="spacing" textLength="222.5425" x="680.91" y="255.0184">obo:has member part at some time</text></g><!--link o7 to o25--><g class="link" data-entity-1="o7" data-entity-2="o25" data-source-line="125" data-uid="lnk58" id="link_o7_o25"><path codeLine="125" d="M603.2,406.57 C627.64,397.63 649.91,389.49 649.91,389.49 C649.91,389.49 679.91,364.49 679.91,364.49 C679.91,364.49 843.6795,339.3309 949.4095,323.0909" fill="none" id="o7-to-o25" style="stroke:#181818;stroke-width:1;"/><polygon fill="#181818" points="955.34,322.18,945.8371,319.5927,950.398,322.9391,947.0516,327.5,955.34,322.18" style="stroke:#181818;stroke-width:1;"/><text fill="#000000" font-family="sans-serif" font-size="13" lengthAdjust="spacing" textLength="222.5425" x="680.91" y="327.0184">obo:has member part at some time</text></g><!--link o8 to o26--><g class="link" data-entity-1="o8" data-entity-2="o26" data-source-line="126" data-uid="lnk59" id="link_o8_o26"><path codeLine="126" d="M603.2,486.57 C627.64,477.63 649.91,469.49 649.91,469.49 C649.91,469.49 679.91,456.49 679.91,456.49 C679.91,456.49 833.2824,427.7836 939.3624,407.9336" fill="none" id="o8-to-o26" style="stroke:#181818;stroke-width:1;"/><polygon fill="#181818" points="945.26,406.83,935.6778,404.5536,940.3453,407.7497,937.1493,412.4171,945.26,406.83" style="stroke:#181818;stroke-width:1;"/><text fill="#000000" font-family="sans-serif" font-size="13" lengthAdjust="spacing" textLength="222.5425" x="680.91" y="411.5884">obo:has member part at some time</text></g><!--link o8 to o27--><g class="link" data-entity-1="o8" data-entity-2="o27" data-source-line="127" data-uid="lnk60" id="link_o8_o27"><path codeLine="127" d="M649.38,500.74 C741.73,493.31 866.2093,483.3007 949.9493,476.5707" fill="none" id="o8-to-o27" style="stroke:#181818;stroke-width:1;"/><polygon fill="#181818" points="955.93,476.09,946.6385,472.8238,950.9461,476.4905,947.2794,480.7981,955.93,476.09" style="stroke:#181818;stroke-width:1;"/><text fill="#000000" font-family="sans-serif" font-size="13" lengthAdjust="spacing" textLength="222.5425" x="680.91" y="477.8784">obo:has member part at some time</text></g><!--link o9 to o28--><g class="link" data-entity-1="o9" data-entity-2="o28" data-source-line="128" data-uid="lnk61" id="link_o9_o28"><path codeLine="128" d="M649.38,580.74 C737.72,573.63 854.9793,564.2009 938.8093,557.4609" fill="none" id="o9-to-o28" style="stroke:#181818;stroke-width:1;"/><polygon fill="#181818" points="944.79,556.98,935.4984,553.7141,939.8061,557.3807,936.1395,561.6884,944.79,556.98" style="stroke:#181818;stroke-width:1;"/><text fill="#000000" font-family="sans-serif" font-size="13" lengthAdjust="spacing" textLength="222.5425" x="680.91" y="557.8784">obo:has member part at some time</text></g><!--link o9 to o29--><g class="link" data-entity-1="o9" data-entity-2="o29" data-source-line="129" data-uid="lnk62" id="link_o9_o29"><path codeLine="129" d="M649.32,599.64 C667.13,601.3 679.91,602.49 679.91,602.49 C679.91,602.49 844.107,614.8789 949.807,622.8489" fill="none" id="o9-to-o29" style="stroke:#181818;stroke-width:1;"/><polygon fill="#181818" points="955.79,623.3,947.1162,618.6346,950.8042,622.9241,946.5147,626.612,955.79,623.3" style="stroke:#181818;stroke-width:1;"/><text fill="#000000" font-family="sans-serif" font-size="13" lengthAdjust="spacing" textLength="222.5425" x="680.91" y="599.0584">obo:has member part at some time</text></g><!--link o10 to o30--><g class="link" data-entity-1="o10" data-entity-2="o30" data-source-line="130" data-uid="lnk63" id="link_o10_o30"><path codeLine="130" d="M650.3,678.32 C740.85,685.6 861.5893,695.3091 945.1693,702.0291" fill="none" id="o10-to-o30" style="stroke:#181818;stroke-width:1;"/><polygon fill="#181818" points="951.15,702.51,942.4995,697.8016,946.1661,702.1093,941.8584,705.7758,951.15,702.51" style="stroke:#181818;stroke-width:1;"/><text fill="#000000" font-family="sans-serif" font-size="13" lengthAdjust="spacing" textLength="222.5425" x="680.91" y="677.8784">obo:has member part at some time</text></g><!--link o11 to o31--><g class="link" data-entity-1="o11" data-entity-2="o31" data-source-line="131" data-uid="lnk64" id="link_o11_o31"><path codeLine="131" d="M650.3,758.32 C741.42,765.65 863.1993,775.439 946.7493,782.159" fill="none" id="o11-to-o31" style="stroke:#181818;stroke-width:1;"/><polygon fill="#181818" points="952.73,782.64,944.0797,777.9313,947.7461,782.2391,943.4383,785.9056,952.73,782.64" style="stroke:#181818;stroke-width:1;"/><text fill="#000000" font-family="sans-serif" font-size="13" lengthAdjust="spacing" textLength="222.5425" x="680.91" y="757.8784">obo:has member part at some time</text></g><!--link o12 to o32--><g class="link" data-entity-1="o12" data-entity-2="o32" data-source-line="132" data-uid="lnk65" id="link_o12_o32"><path codeLine="132" d="M650.3,838.32 C740.85,845.6 861.5893,855.3091 945.1693,862.0291" fill="none" id="o12-to-o32" style="stroke:#181818;stroke-width:1;"/><polygon fill="#181818" points="951.15,862.51,942.4995,857.8016,946.1661,862.1093,941.8584,865.7758,951.15,862.51" style="stroke:#181818;stroke-width:1;"/><text fill="#000000" font-family="sans-serif" font-size="13" lengthAdjust="spacing" textLength="222.5425" x="680.91" y="837.8784">obo:has member part at some time</text></g><!--link o13 to o33--><g class="link" data-entity-1="o13" data-entity-2="o33" data-source-line="133" data-uid="lnk66" id="link_o13_o33"><path codeLine="133" d="M630.32,916.71 C715.66,923.58 837.9894,933.4085 927.7894,940.6385" fill="none" id="o13-to-o33" style="stroke:#181818;stroke-width:1;"/><polygon fill="#181818" points="933.77,941.12,925.12,936.4106,928.7861,940.7187,924.478,944.3848,933.77,941.12" style="stroke:#181818;stroke-width:1;"/><text fill="#000000" font-family="sans-serif" font-size="13" lengthAdjust="spacing" textLength="222.5425" x="680.91" y="917.8784">obo:has member part at some time</text></g><!--SRC=[dPL1Zvim48Nl-HNMtf5Yaqr8fFQmKQKUDbBKlRIz6UCMkeQ9Z54XLVzxJJ1PGWlrv9PetZS3VkD7-PeL9wvvJbHMIDES93c1Qje_2oM_6MA0wEnxQaYIQIbC1iK2uX_s5tb8kE6x0p_prmV2ImAK_5gGIujtHDQs8jAs3Vdz3oAeUPsLUGUoM_35w4gOIa-XpG0DSUYvHJjoXICDZvNio4SagQiYwTarZgqxQdDBFTjZvVe0hHilJMbaFdLI7HxTYPyxV7idBjnQB6_vJs2uRZpuMBi6zCu6Wha6xDu6K1ZNOhHeUrlHe6Rf141JXm-t3MBOTV89q5v80w8_lj6w7MrnWfDAzj1eppxOYj6PuFDFd3Q9vfNA-YwZlVlOb_zpQA3uzTmYr8iNiigvkSuVRTwnBy_ELrNSlcbhhekNqG8-lmbc6vsaBg4efEfZQhY70hJS7I-AALo3AAsFBXtPNobdIrD65a91QMEXduoCkJhu77EbIg7bJzTX57TFVNcwGmu6t0raenqyjAMfp0c-Z6UlSRDjX-7iZV_iS_1rF3l2pROTXhEt_hD5i6S3D5pwex4EdeOeHKnbmNw8CWHg8yn6ZKbTHeLp4NUqkaiVIeBWVVl9tbskSsh9NEQnrAHDBS8DAI6Nn6Ivl8f3Z7Y54JzYn6kCU8CHHnZn5YEs7q-CcgBKA1CfoaMAif6YVAGe8odAIOgoagAyP2Wl6SfBXlAI-NcvSUeLIktdPUJKQvJQpykjKqSejQUNIvTfdcRs4UZf9dDoJpj39_Vnymy0]--></g></svg>