<svg xmlns="http://www.w3.org/2000/svg" xmlns:xlink="http://www.w3.org/1999/xlink" contentStyleType="text/css" data-diagram-type="CLASS" height="1745px" preserveAspectRatio="none" style="width:1173px;height:1745px;background:#FFFFFF;" version="1.1" viewBox="0 0 1173 1745" width="1173px" zoomAndPan="magnify"><title>MazakMere</title><defs><filter height="1" id="bz2cylb8qp8j20" width="1" x="0" y="0"><feFlood flood-color="#008000" result="flood"/><feComposite in="SourceGraphic" in2="flood" operator="over"/></filter><filter height="1" id="bz2cylb8qp8j21" width="1" x="0" y="0"><feFlood flood-color="#DFA702" result="flood"/><feComposite in="SourceGraphic" in2="flood" operator="over"/></filter></defs><g><text fill="#000000" font-family="sans-serif" font-size="14" font-weight="bold" lengthAdjust="spacing" textLength="81.7783" x="538.8104" y="23.5352">MazakMere</text><g class="entity" data-entity="o1" data-source-line="131" data-uid="ent0002" id="entity_o1"><rect fill="#76608A" height="62" rx="5" ry="5" style="stroke:#FFFFFF;stroke-width:0.5;" width="193.6787" x="7" y="904.4883"/><text fill="#FFFFFF" font-family="Helvetica" font-size="14" lengthAdjust="spacing" text-decoration="underline" textLength="72.3721" x="67.6533" y="917.2686">data:Mazak</text><line style="stroke:#FFFFFF;stroke-width:0.5;" x1="8" x2="199.6787" y1="922.4883" y2="922.4883"/><text fill="#FFFFFF" filter="url(#bz2cylb8qp8j20)" font-family="Helvetica" font-size="14" lengthAdjust="spacing" textLength="114.0098" x="13" y="937.2686">type = ex:Machine</text><line style="stroke:#FFFFFF;stroke-width:1;" x1="8" x2="199.6787" y1="944.4883" y2="944.4883"/><text fill="#FFFFFF" font-family="Helvetica" font-size="14" lengthAdjust="spacing" textLength="181.6787" x="13" y="959.2686">cmns-dsg:hasName = Mazak</text></g><g class="entity" data-entity="o2" data-source-line="131" data-uid="ent0003" id="entity_o2"><rect fill="#76608A" height="40" rx="5" ry="5" style="stroke:#FFFFFF;stroke-width:0.5;" width="134.5928" x="519.39" y="44.4883"/><text fill="#FFFFFF" font-family="Helvetica" font-size="14" lengthAdjust="spacing" text-decoration="underline" textLength="120.5928" x="526.39" y="57.2686">data:Mazak-xaxism</text><line style="stroke:#FFFFFF;stroke-width:0.5;" x1="520.39" x2="652.9828" y1="62.4883" y2="62.4883"/><text fill="#FFFFFF" filter="url(#bz2cylb8qp8j20)" font-family="Helvetica" font-size="14" lengthAdjust="spacing" textLength="117.8926" x="525.39" y="77.2686">type = ex:Structure</text></g><g class="entity" data-entity="o3" data-source-line="131" data-uid="ent0004" id="entity_o3"><rect fill="#76608A" height="40" rx="5" ry="5" style="stroke:#FFFFFF;stroke-width:0.5;" width="134.5928" x="519.39" y="119.4883"/><text fill="#FFFFFF" font-family="Helvetica" font-size="14" lengthAdjust="spacing" text-decoration="underline" textLength="120.5928" x="526.39" y="132.2686">data:Mazak-yaxism</text><line style="stroke:#FFFFFF;stroke-width:0.5;" x1="520.39" x2="652.9828" y1="137.4883" y2="137.4883"/><text fill="#FFFFFF" filter="url(#bz2cylb8qp8j20)" font-family="Helvetica" font-size="14" lengthAdjust="spacing" textLength="117.8926" x="525.39" y="152.2686">type = ex:Structure</text></g><g class="entity" data-entity="o4" data-source-line="131" data-uid="ent0005" id="entity_o4"><rect fill="#76608A" height="40" rx="5" ry="5" style="stroke:#FFFFFF;stroke-width:0.5;" width="129.8926" x="521.74" y="194.4883"/><text fill="#FFFFFF" font-family="Helvetica" font-size="14" lengthAdjust="spacing" text-decoration="underline" textLength="108.9307" x="532.221" y="207.2686">data:Mazak-zaxis</text><line style="stroke:#FFFFFF;stroke-width:0.5;" x1="522.74" x2="650.6326" y1="212.4883" y2="212.4883"/><text fill="#FFFFFF" filter="url(#bz2cylb8qp8j20)" font-family="Helvetica" font-size="14" lengthAdjust="spacing" textLength="117.8926" x="527.74" y="227.2686">type = ex:Structure</text></g><g class="entity" data-entity="o5" data-source-line="131" data-uid="ent0006" id="entity_o5"><rect fill="#76608A" height="40" rx="5" ry="5" style="stroke:#FFFFFF;stroke-width:0.5;" width="129.8926" x="521.74" y="269.4883"/><text fill="#FFFFFF" font-family="Helvetica" font-size="14" lengthAdjust="spacing" text-decoration="underline" textLength="107.3926" x="532.99" y="282.2686">data:Mazak-table</text><line style="stroke:#FFFFFF;stroke-width:0.5;" x1="522.74" x2="650.6326" y1="287.4883" y2="287.4883"/><text fill="#FFFFFF" filter="url(#bz2cylb8qp8j20)" font-family="Helvetica" font-size="14" lengthAdjust="spacing" textLength="117.8926" x="527.74" y="302.2686">type = ex:Structure</text></g><g class="entity" data-entity="o6" data-source-line="131" data-uid="ent0007" id="entity_o6"><rect fill="#76608A" height="40" rx="5" ry="5" style="stroke:#FFFFFF;stroke-width:0.5;" width="133.8408" x="519.77" y="344.4883"/><text fill="#FFFFFF" font-family="Helvetica" font-size="14" lengthAdjust="spacing" text-decoration="underline" textLength="119.8408" x="526.77" y="357.2686">data:Mazak-trundle</text><line style="stroke:#FFFFFF;stroke-width:0.5;" x1="520.77" x2="652.6108" y1="362.4883" y2="362.4883"/><text fill="#FFFFFF" filter="url(#bz2cylb8qp8j20)" font-family="Helvetica" font-size="14" lengthAdjust="spacing" textLength="117.8926" x="525.77" y="377.2686">type = ex:Structure</text></g><g class="entity" data-entity="o7" data-source-line="131" data-uid="ent0008" id="entity_o7"><rect fill="#76608A" height="62" rx="5" ry="5" style="stroke:#FFFFFF;stroke-width:0.5;" width="200.7061" x="486.34" y="419.4883"/><text fill="#FFFFFF" font-family="Helvetica" font-size="14" lengthAdjust="spacing" text-decoration="underline" textLength="84.0342" x="544.6759" y="432.2686">data:Mazak-x</text><line style="stroke:#FFFFFF;stroke-width:0.5;" x1="487.34" x2="686.0461" y1="437.4883" y2="437.4883"/><text fill="#FFFFFF" filter="url(#bz2cylb8qp8j20)" font-family="Helvetica" font-size="14" lengthAdjust="spacing" textLength="188.7061" x="492.34" y="452.2686">type = ex:LinearMotionSystem</text><line style="stroke:#FFFFFF;stroke-width:1;" x1="487.34" x2="686.0461" y1="459.4883" y2="459.4883"/><text fill="#FFFFFF" font-family="Helvetica" font-size="14" lengthAdjust="spacing" textLength="149.7822" x="492.34" y="474.2686">cmns-dsg:hasName = X</text></g><g class="entity" data-entity="o8" data-source-line="131" data-uid="ent0009" id="entity_o8"><rect fill="#76608A" height="62" rx="5" ry="5" style="stroke:#FFFFFF;stroke-width:0.5;" width="200.7061" x="486.34" y="516.4883"/><text fill="#FFFFFF" font-family="Helvetica" font-size="14" lengthAdjust="spacing" text-decoration="underline" textLength="84.0342" x="544.6759" y="529.2686">data:Mazak-y</text><line style="stroke:#FFFFFF;stroke-width:0.5;" x1="487.34" x2="686.0461" y1="534.4883" y2="534.4883"/><text fill="#FFFFFF" filter="url(#bz2cylb8qp8j20)" font-family="Helvetica" font-size="14" lengthAdjust="spacing" textLength="188.7061" x="492.34" y="549.2686">type = ex:LinearMotionSystem</text><line style="stroke:#FFFFFF;stroke-width:1;" x1="487.34" x2="686.0461" y1="556.4883" y2="556.4883"/><text fill="#FFFFFF" font-family="Helvetica" font-size="14" lengthAdjust="spacing" textLength="149.7822" x="492.34" y="571.2686">cmns-dsg:hasName = Y</text></g><g class="entity" data-entity="o9" data-source-line="131" data-uid="ent0010" id="entity_o9"><rect fill="#76608A" height="62" rx="5" ry="5" style="stroke:#FFFFFF;stroke-width:0.5;" width="200.7061" x="486.34" y="613.4883"/><text fill="#FFFFFF" font-family="Helvetica" font-size="14" lengthAdjust="spacing" text-decoration="underline" textLength="84.0342" x="544.6759" y="626.2686">data:Mazak-z</text><line style="stroke:#FFFFFF;stroke-width:0.5;" x1="487.34" x2="686.0461" y1="631.4883" y2="631.4883"/><text fill="#FFFFFF" filter="url(#bz2cylb8qp8j20)" font-family="Helvetica" font-size="14" lengthAdjust="spacing" textLength="188.7061" x="492.34" y="646.2686">type = ex:LinearMotionSystem</text><line style="stroke:#FFFFFF;stroke-width:1;" x1="487.34" x2="686.0461" y1="653.4883" y2="653.4883"/><text fill="#FFFFFF" font-family="Helvetica" font-size="14" lengthAdjust="spacing" textLength="148.9961" x="492.34" y="668.2686">cmns-dsg:hasName = Z</text></g><g class="entity" data-entity="o10" data-source-line="131" data-uid="ent0011" id="entity_o10"><rect fill="#76608A" height="62" rx="5" ry="5" style="stroke:#FFFFFF;stroke-width:0.5;" width="203.0234" x="485.18" y="710.4883"/><text fill="#FFFFFF" font-family="Helvetica" font-size="14" lengthAdjust="spacing" text-decoration="underline" textLength="84.0342" x="544.6746" y="723.2686">data:Mazak-c</text><line style="stroke:#FFFFFF;stroke-width:0.5;" x1="486.18" x2="687.2034" y1="728.4883" y2="728.4883"/><text fill="#FFFFFF" filter="url(#bz2cylb8qp8j20)" font-family="Helvetica" font-size="14" lengthAdjust="spacing" textLength="191.0234" x="491.18" y="743.2686">type = ex:RotaryMotionSystem</text><line style="stroke:#FFFFFF;stroke-width:1;" x1="486.18" x2="687.2034" y1="750.4883" y2="750.4883"/><text fill="#FFFFFF" font-family="Helvetica" font-size="14" lengthAdjust="spacing" textLength="158.3408" x="491.18" y="765.2686">cmns-dsg:hasName = C1</text></g><g class="entity" data-entity="o11" data-source-line="131" data-uid="ent0012" id="entity_o11"><rect fill="#76608A" height="62" rx="5" ry="5" style="stroke:#FFFFFF;stroke-width:0.5;" width="203.0234" x="485.18" y="807.4883"/><text fill="#FFFFFF" font-family="Helvetica" font-size="14" lengthAdjust="spacing" text-decoration="underline" textLength="89.4824" x="541.9505" y="820.2686">data:Mazak-br</text><line style="stroke:#FFFFFF;stroke-width:0.5;" x1="486.18" x2="687.2034" y1="825.4883" y2="825.4883"/><text fill="#FFFFFF" filter="url(#bz2cylb8qp8j20)" font-family="Helvetica" font-size="14" lengthAdjust="spacing" textLength="191.0234" x="491.18" y="840.2686">type = ex:RotaryMotionSystem</text><line style="stroke:#FFFFFF;stroke-width:1;" x1="486.18" x2="687.2034" y1="847.4883" y2="847.4883"/><text fill="#FFFFFF" font-family="Helvetica" font-size="14" lengthAdjust="spacing" textLength="149.7822" x="491.18" y="862.2686">cmns-dsg:hasName = B</text></g><g class="entity" data-entity="o12" data-source-line="131" data-uid="ent0013" id="entity_o12"><rect fill="#76608A" height="62" rx="5" ry="5" style="stroke:#FFFFFF;stroke-width:0.5;" width="203.0234" x="485.18" y="904.4883"/><text fill="#FFFFFF" font-family="Helvetica" font-size="14" lengthAdjust="spacing" text-decoration="underline" textLength="91.8203" x="540.7816" y="917.2686">data:Mazak-c2</text><line style="stroke:#FFFFFF;stroke-width:0.5;" x1="486.18" x2="687.2034" y1="922.4883" y2="922.4883"/><text fill="#FFFFFF" filter="url(#bz2cylb8qp8j20)" font-family="Helvetica" font-size="14" lengthAdjust="spacing" textLength="191.0234" x="491.18" y="937.2686">type = ex:RotaryMotionSystem</text><line style="stroke:#FFFFFF;stroke-width:1;" x1="486.18" x2="687.2034" y1="944.4883" y2="944.4883"/><text fill="#FFFFFF" font-family="Helvetica" font-size="14" lengthAdjust="spacing" textLength="158.3408" x="491.18" y="959.2686">cmns-dsg:hasName = C2</text></g><g class="entity" data-entity="o13" data-source-line="131" data-uid="ent0014" id="entity_o13"><rect fill="#76608A" height="62" rx="5" ry="5" style="stroke:#FFFFFF;stroke-width:0.5;" width="210.0234" x="481.68" y="1001.4883"/><text fill="#FFFFFF" font-family="Helvetica" font-size="14" lengthAdjust="spacing" text-decoration="underline" textLength="103.4961" x="534.9437" y="1014.2686">data:Mazak-cont</text><line style="stroke:#FFFFFF;stroke-width:0.5;" x1="482.68" x2="690.7034" y1="1019.4883" y2="1019.4883"/><text fill="#FFFFFF" filter="url(#bz2cylb8qp8j20)" font-family="Helvetica" font-size="14" lengthAdjust="spacing" textLength="152.8994" x="487.68" y="1034.2686">type = ex:ControlSystem</text><line style="stroke:#FFFFFF;stroke-width:1;" x1="482.68" x2="690.7034" y1="1041.4883" y2="1041.4883"/><text fill="#FFFFFF" font-family="Helvetica" font-size="14" lengthAdjust="spacing" textLength="198.0234" x="487.68" y="1056.2686">cmns-dsg:hasName = controller</text></g><g class="entity" data-entity="o14" data-source-line="131" data-uid="ent0015" id="entity_o14"><rect fill="#76608A" height="40" rx="5" ry="5" style="stroke:#FFFFFF;stroke-width:0.5;" width="126.8408" x="523.27" y="1098.4883"/><text fill="#FFFFFF" font-family="Helvetica" font-size="14" lengthAdjust="spacing" text-decoration="underline" textLength="112.8408" x="530.27" y="1111.2686">data:Mazak-door1</text><line style="stroke:#FFFFFF;stroke-width:0.5;" x1="524.27" x2="649.1108" y1="1116.4883" y2="1116.4883"/><text fill="#FFFFFF" filter="url(#bz2cylb8qp8j21)" font-family="Helvetica" font-size="14" lengthAdjust="spacing" textLength="103.127" x="529.27" y="1131.2686">type = bfo:object</text></g><g class="entity" data-entity="o15" data-source-line="131" data-uid="ent0016" id="entity_o15"><rect fill="#76608A" height="40" rx="5" ry="5" style="stroke:#FFFFFF;stroke-width:0.5;" width="136.9443" x="518.22" y="1173.4883"/><text fill="#FFFFFF" font-family="Helvetica" font-size="14" lengthAdjust="spacing" text-decoration="underline" textLength="122.9443" x="525.22" y="1186.2686">data:Mazak-partocc</text><line style="stroke:#FFFFFF;stroke-width:0.5;" x1="519.22" x2="654.1643" y1="1191.4883" y2="1191.4883"/><text fill="#FFFFFF" filter="url(#bz2cylb8qp8j20)" font-family="Helvetica" font-size="14" lengthAdjust="spacing" textLength="86.7686" x="524.22" y="1206.2686">type = ex:Part</text></g><g class="entity" data-entity="o16" data-source-line="131" data-uid="ent0017" id="entity_o16"><rect fill="#76608A" height="40" rx="5" ry="5" style="stroke:#FFFFFF;stroke-width:0.5;" width="176.5615" x="498.41" y="1248.4883"/><text fill="#FFFFFF" font-family="Helvetica" font-size="14" lengthAdjust="spacing" text-decoration="underline" textLength="102.7168" x="535.3324" y="1261.2686">data:Mazak-elec</text><line style="stroke:#FFFFFF;stroke-width:0.5;" x1="499.41" x2="673.9715" y1="1266.4883" y2="1266.4883"/><text fill="#FFFFFF" filter="url(#bz2cylb8qp8j20)" font-family="Helvetica" font-size="14" lengthAdjust="spacing" textLength="164.5615" x="504.41" y="1281.2686">type = ex:ElectricalSystem</text></g><g class="entity" data-entity="o17" data-source-line="131" data-uid="ent0018" id="entity_o17"><rect fill="#76608A" height="40" rx="5" ry="5" style="stroke:#FFFFFF;stroke-width:0.5;" width="178.1201" x="497.63" y="1323.4883"/><text fill="#FFFFFF" font-family="Helvetica" font-size="14" lengthAdjust="spacing" text-decoration="underline" textLength="133.0615" x="520.1593" y="1336.2686">data:Mazak-hydraulic</text><line style="stroke:#FFFFFF;stroke-width:0.5;" x1="498.63" x2="674.7501" y1="1341.4883" y2="1341.4883"/><text fill="#FFFFFF" filter="url(#bz2cylb8qp8j20)" font-family="Helvetica" font-size="14" lengthAdjust="spacing" textLength="166.1201" x="503.63" y="1356.2686">type = ex:HydraulicSystem</text></g><g class="entity" data-entity="o18" data-source-line="131" data-uid="ent0019" id="entity_o18"><rect fill="#76608A" height="40" rx="5" ry="5" style="stroke:#FFFFFF;stroke-width:0.5;" width="136.1787" x="518.6" y="1398.4883"/><text fill="#FFFFFF" font-family="Helvetica" font-size="14" lengthAdjust="spacing" text-decoration="underline" textLength="122.1787" x="525.6" y="1411.2686">data:Mazak-coolant</text><line style="stroke:#FFFFFF;stroke-width:0.5;" x1="519.6" x2="653.7787" y1="1416.4883" y2="1416.4883"/><text fill="#FFFFFF" filter="url(#bz2cylb8qp8j21)" font-family="Helvetica" font-size="14" lengthAdjust="spacing" textLength="103.127" x="524.6" y="1431.2686">type = bfo:object</text></g><g class="entity" data-entity="o19" data-source-line="131" data-uid="ent0020" id="entity_o19"><rect fill="#76608A" height="40" rx="5" ry="5" style="stroke:#FFFFFF;stroke-width:0.5;" width="185.9131" x="493.73" y="1473.4883"/><text fill="#FFFFFF" font-family="Helvetica" font-size="14" lengthAdjust="spacing" text-decoration="underline" textLength="141.627" x="515.8731" y="1486.2686">data:Mazak-pneumatic</text><line style="stroke:#FFFFFF;stroke-width:0.5;" x1="494.73" x2="678.6431" y1="1491.4883" y2="1491.4883"/><text fill="#FFFFFF" filter="url(#bz2cylb8qp8j20)" font-family="Helvetica" font-size="14" lengthAdjust="spacing" textLength="173.9131" x="499.73" y="1506.2686">type = ex:PneumaticSystem</text></g><g class="entity" data-entity="o20" data-source-line="131" data-uid="ent0021" id="entity_o20"><rect fill="#76608A" height="40" rx="5" ry="5" style="stroke:#FFFFFF;stroke-width:0.5;" width="188.2578" x="492.56" y="1548.4883"/><text fill="#FFFFFF" font-family="Helvetica" font-size="14" lengthAdjust="spacing" text-decoration="underline" textLength="140.8477" x="516.2651" y="1561.2686">data:Mazak-lubrication</text><line style="stroke:#FFFFFF;stroke-width:0.5;" x1="493.56" x2="679.8178" y1="1566.4883" y2="1566.4883"/><text fill="#FFFFFF" filter="url(#bz2cylb8qp8j20)" font-family="Helvetica" font-size="14" lengthAdjust="spacing" textLength="176.2578" x="498.56" y="1581.2686">type = ex:LubricationSystem</text></g><g class="entity" data-entity="o21" data-source-line="131" data-uid="ent0022" id="entity_o21"><rect fill="#76608A" height="40" rx="5" ry="5" style="stroke:#FFFFFF;stroke-width:0.5;" width="150.9443" x="511.22" y="1623.4883"/><text fill="#FFFFFF" font-family="Helvetica" font-size="14" lengthAdjust="spacing" text-decoration="underline" textLength="136.9443" x="518.22" y="1636.2686">data:Mazak-procstock</text><line style="stroke:#FFFFFF;stroke-width:0.5;" x1="512.22" x2="661.1643" y1="1641.4883" y2="1641.4883"/><text fill="#FFFFFF" filter="url(#bz2cylb8qp8j20)" font-family="Helvetica" font-size="14" lengthAdjust="spacing" textLength="96.1064" x="517.22" y="1656.2686">type = ex:Stock</text></g><g class="entity" data-entity="o22" data-source-line="131" data-uid="ent0023" id="entity_o22"><rect fill="#76608A" height="40" rx="5" ry="5" style="stroke:#FFFFFF;stroke-width:0.5;" width="163.3994" x="504.99" y="1698.4883"/><text fill="#FFFFFF" font-family="Helvetica" font-size="14" lengthAdjust="spacing" text-decoration="underline" textLength="149.3994" x="511.99" y="1711.2686">data:Mazak-enclosurem</text><line style="stroke:#FFFFFF;stroke-width:0.5;" x1="505.99" x2="667.3894" y1="1716.4883" y2="1716.4883"/><text fill="#FFFFFF" filter="url(#bz2cylb8qp8j20)" font-family="Helvetica" font-size="14" lengthAdjust="spacing" textLength="117.8926" x="510.99" y="1731.2686">type = ex:Structure</text></g><g class="entity" data-entity="o23" data-source-line="131" data-uid="ent0024" id="entity_o23"><rect fill="#76608A" height="40" rx="5" ry="5" style="stroke:#FFFFFF;stroke-width:0.5;" width="170.3857" x="984.36" y="309.4883"/><text fill="#FFFFFF" font-family="Helvetica" font-size="14" lengthAdjust="spacing" text-decoration="underline" textLength="156.3857" x="991.36" y="322.2686">data:Mazak-x-Xballscrew</text><line style="stroke:#FFFFFF;stroke-width:0.5;" x1="985.36" x2="1153.7457" y1="327.4883" y2="327.4883"/><text fill="#FFFFFF" filter="url(#bz2cylb8qp8j20)" font-family="Helvetica" font-size="14" lengthAdjust="spacing" textLength="120.9961" x="990.36" y="342.2686">type = ex:Ballscrew</text></g><g class="entity" data-entity="o24" data-source-line="131" data-uid="ent0025" id="entity_o24"><rect fill="#76608A" height="40" rx="5" ry="5" style="stroke:#FFFFFF;stroke-width:0.5;" width="147.8203" x="995.64" y="384.4883"/><text fill="#FFFFFF" font-family="Helvetica" font-size="14" lengthAdjust="spacing" text-decoration="underline" textLength="133.8203" x="1002.64" y="397.2686">data:Mazak-x-Xmotor</text><line style="stroke:#FFFFFF;stroke-width:0.5;" x1="996.64" x2="1142.4603" y1="402.4883" y2="402.4883"/><text fill="#FFFFFF" filter="url(#bz2cylb8qp8j20)" font-family="Helvetica" font-size="14" lengthAdjust="spacing" textLength="96.8789" x="1001.64" y="417.2686">type = ex:Motor</text></g><g class="entity" data-entity="o25" data-source-line="131" data-uid="ent0026" id="entity_o25"><rect fill="#76608A" height="40" rx="5" ry="5" style="stroke:#FFFFFF;stroke-width:0.5;" width="170.3857" x="984.36" y="459.4883"/><text fill="#FFFFFF" font-family="Helvetica" font-size="14" lengthAdjust="spacing" text-decoration="underline" textLength="156.3857" x="991.36" y="472.2686">data:Mazak-y-Yballscrew</text><line style="stroke:#FFFFFF;stroke-width:0.5;" x1="985.36" x2="1153.7457" y1="477.4883" y2="477.4883"/><text fill="#FFFFFF" filter="url(#bz2cylb8qp8j20)" font-family="Helvetica" font-size="14" lengthAdjust="spacing" textLength="120.9961" x="990.36" y="492.2686">type = ex:Ballscrew</text></g><g class="entity" data-entity="o26" data-source-line="131" data-uid="ent0027" id="entity_o26"><rect fill="#76608A" height="40" rx="5" ry="5" style="stroke:#FFFFFF;stroke-width:0.5;" width="147.8203" x="995.64" y="534.4883"/><text fill="#FFFFFF" font-family="Helvetica" font-size="14" lengthAdjust="spacing" text-decoration="underline" textLength="133.8203" x="1002.64" y="547.2686">data:Mazak-y-Ymotor</text><line style="stroke:#FFFFFF;stroke-width:0.5;" x1="996.64" x2="1142.4603" y1="552.4883" y2="552.4883"/><text fill="#FFFFFF" filter="url(#bz2cylb8qp8j20)" font-family="Helvetica" font-size="14" lengthAdjust="spacing" textLength="96.8789" x="1001.64" y="567.2686">type = ex:Motor</text></g><g class="entity" data-entity="o27" data-source-line="131" data-uid="ent0028" id="entity_o27"><rect fill="#76608A" height="40" rx="5" ry="5" style="stroke:#FFFFFF;stroke-width:0.5;" width="169.5996" x="984.75" y="609.4883"/><text fill="#FFFFFF" font-family="Helvetica" font-size="14" lengthAdjust="spacing" text-decoration="underline" textLength="155.5996" x="991.75" y="622.2686">data:Mazak-z-Zballscrew</text><line style="stroke:#FFFFFF;stroke-width:0.5;" x1="985.75" x2="1153.3496" y1="627.4883" y2="627.4883"/><text fill="#FFFFFF" filter="url(#bz2cylb8qp8j20)" font-family="Helvetica" font-size="14" lengthAdjust="spacing" textLength="120.9961" x="990.75" y="642.2686">type = ex:Ballscrew</text></g><g class="entity" data-entity="o28" data-source-line="131" data-uid="ent0029" id="entity_o28"><rect fill="#76608A" height="40" rx="5" ry="5" style="stroke:#FFFFFF;stroke-width:0.5;" width="147.0342" x="996.03" y="684.4883"/><text fill="#FFFFFF" font-family="Helvetica" font-size="14" lengthAdjust="spacing" text-decoration="underline" textLength="133.0342" x="1003.03" y="697.2686">data:Mazak-z-Zmotor</text><line style="stroke:#FFFFFF;stroke-width:0.5;" x1="997.03" x2="1142.0642" y1="702.4883" y2="702.4883"/><text fill="#FFFFFF" filter="url(#bz2cylb8qp8j20)" font-family="Helvetica" font-size="14" lengthAdjust="spacing" textLength="96.8789" x="1002.03" y="717.2686">type = ex:Motor</text></g><g class="entity" data-entity="o29" data-source-line="131" data-uid="ent0030" id="entity_o29"><rect fill="#76608A" height="40" rx="5" ry="5" style="stroke:#FFFFFF;stroke-width:0.5;" width="156.3789" x="991.36" y="759.4883"/><text fill="#FFFFFF" font-family="Helvetica" font-size="14" lengthAdjust="spacing" text-decoration="underline" textLength="142.3789" x="998.36" y="772.2686">data:Mazak-c-C2motor</text><line style="stroke:#FFFFFF;stroke-width:0.5;" x1="992.36" x2="1146.7389" y1="777.4883" y2="777.4883"/><text fill="#FFFFFF" filter="url(#bz2cylb8qp8j20)" font-family="Helvetica" font-size="14" lengthAdjust="spacing" textLength="96.8789" x="997.36" y="792.2686">type = ex:Motor</text></g><g class="entity" data-entity="o30" data-source-line="131" data-uid="ent0031" id="entity_o30"><rect fill="#76608A" height="40" rx="5" ry="5" style="stroke:#FFFFFF;stroke-width:0.5;" width="153.2686" x="992.92" y="834.4883"/><text fill="#FFFFFF" font-family="Helvetica" font-size="14" lengthAdjust="spacing" text-decoration="underline" textLength="139.2686" x="999.92" y="847.2686">data:Mazak-br-Bmotor</text><line style="stroke:#FFFFFF;stroke-width:0.5;" x1="993.92" x2="1145.1886" y1="852.4883" y2="852.4883"/><text fill="#FFFFFF" filter="url(#bz2cylb8qp8j20)" font-family="Helvetica" font-size="14" lengthAdjust="spacing" textLength="96.8789" x="998.92" y="867.2686">type = ex:Motor</text></g><g class="entity" data-entity="o31" data-source-line="131" data-uid="ent0032" id="entity_o31"><rect fill="#76608A" height="40" rx="5" ry="5" style="stroke:#FFFFFF;stroke-width:0.5;" width="156.3789" x="991.36" y="915.4883"/><text fill="#FFFFFF" font-family="Helvetica" font-size="14" lengthAdjust="spacing" text-decoration="underline" textLength="142.3789" x="998.36" y="928.2686">data:Mazak-c2-Cmotor</text><line style="stroke:#FFFFFF;stroke-width:0.5;" x1="992.36" x2="1146.7389" y1="933.4883" y2="933.4883"/><text fill="#FFFFFF" filter="url(#bz2cylb8qp8j20)" font-family="Helvetica" font-size="14" lengthAdjust="spacing" textLength="96.8789" x="997.36" y="948.2686">type = ex:Motor</text></g><g class="entity" data-entity="o32" data-source-line="131" data-uid="ent0033" id="entity_o32"><rect fill="#76608A" height="40" rx="5" ry="5" style="stroke:#FFFFFF;stroke-width:0.5;" width="193.6992" x="972.7" y="1012.4883"/><text fill="#FFFFFF" font-family="Helvetica" font-size="14" lengthAdjust="spacing" text-decoration="underline" textLength="143.1924" x="997.9534" y="1025.2686">data:Mazak-cont-path1</text><line style="stroke:#FFFFFF;stroke-width:0.5;" x1="973.7" x2="1165.3992" y1="1030.4883" y2="1030.4883"/><text fill="#FFFFFF" filter="url(#bz2cylb8qp8j20)" font-family="Helvetica" font-size="14" lengthAdjust="spacing" textLength="181.6992" x="978.7" y="1045.2686">type = ex:ControlSystemPath</text></g><!--link o1 to o2--><g class="link" data-entity-1="o1" data-entity-2="o2" data-source-line="195" data-uid="lnk34" id="link_o1_o2"><path codeLine="195" d="M109.85,904.0283 C133.25,757.0983 230.68,145.4883 230.68,145.4883 C230.68,145.4883 410.2303,104.5227 513.0703,81.0627" fill="none" id="o1-to-o2" style="stroke:#181818;stroke-width:1;"/><polygon fill="#181818" points="518.92,79.7283,509.2558,77.8301,514.0452,80.8403,511.035,85.6298,518.92,79.7283" style="stroke:#181818;stroke-width:1;"/><text fill="#000000" font-family="sans-serif" font-size="13" lengthAdjust="spacing" textLength="219.3369" x="231.68" y="91.9166">bfo:has member part at some time</text></g><!--link o1 to o3--><g class="link" data-entity-1="o1" data-entity-2="o3" data-source-line="195" data-uid="lnk35" id="link_o1_o3"><path codeLine="195" d="M110.33,904.3483 C134.55,766.9283 230.68,221.4883 230.68,221.4883 C230.68,221.4883 410.234,180.0189 513.074,156.2589" fill="none" id="o1-to-o3" style="stroke:#181818;stroke-width:1;"/><polygon fill="#181818" points="518.92,154.9083,509.2506,153.0369,514.0483,156.0338,511.0514,160.8316,518.92,154.9083" style="stroke:#181818;stroke-width:1;"/><text fill="#000000" font-family="sans-serif" font-size="13" lengthAdjust="spacing" textLength="219.3369" x="231.68" y="167.2966">bfo:has member part at some time</text></g><!--link o1 to o4--><g class="link" data-entity-1="o1" data-entity-2="o4" data-source-line="195" data-uid="lnk36" id="link_o1_o4"><path codeLine="195" d="M110.99,904.3283 C136.26,776.4383 230.68,298.4883 230.68,298.4883 C230.68,298.4883 413.2613,255.2901 515.5613,231.0801" fill="none" id="o1-to-o4" style="stroke:#181818;stroke-width:1;"/><polygon fill="#181818" points="521.4,229.6983,511.7207,227.8785,516.5344,230.8498,513.5631,235.6634,521.4,229.6983" style="stroke:#181818;stroke-width:1;"/><text fill="#000000" font-family="sans-serif" font-size="13" lengthAdjust="spacing" textLength="219.3369" x="231.68" y="243.0666">bfo:has member part at some time</text></g><!--link o1 to o5--><g class="link" data-entity-1="o1" data-entity-2="o5" data-source-line="195" data-uid="lnk37" id="link_o1_o5"><path codeLine="195" d="M111.97,903.9983 C138.59,786.3883 230.68,379.4883 230.68,379.4883 C230.68,379.4883 413.2839,333.1925 515.5839,307.2625" fill="none" id="o1-to-o5" style="stroke:#181818;stroke-width:1;"/><polygon fill="#181818" points="521.4,305.7883,511.6931,304.1222,516.5533,307.0168,513.6587,311.877,521.4,305.7883" style="stroke:#181818;stroke-width:1;"/><text fill="#000000" font-family="sans-serif" font-size="13" lengthAdjust="spacing" textLength="219.3369" x="231.68" y="320.3466">bfo:has member part at some time</text></g><!--link o1 to o6--><g class="link" data-entity-1="o1" data-entity-2="o6" data-source-line="195" data-uid="lnk38" id="link_o1_o6"><path codeLine="195" d="M113.29,904.1883 C141.51,799.7083 230.68,469.4883 230.68,469.4883 C230.68,469.4883 410.8264,416.21 513.5764,385.82" fill="none" id="o1-to-o6" style="stroke:#181818;stroke-width:1;"/><polygon fill="#181818" points="519.33,384.1183,509.5651,382.8351,514.5353,385.5364,511.8341,390.5066,519.33,384.1183" style="stroke:#181818;stroke-width:1;"/><text fill="#000000" font-family="sans-serif" font-size="13" lengthAdjust="spacing" textLength="219.3369" x="231.68" y="401.0666">bfo:has member part at some time</text></g><!--link o1 to o7--><g class="link" data-entity-1="o1" data-entity-2="o7" data-source-line="195" data-uid="lnk39" id="link_o1_o7"><path codeLine="195" d="M115.46,904.2583 C145.8,815.0583 230.68,565.4883 230.68,565.4883 C230.68,565.4883 377.862,517.8074 482.972,483.7574" fill="none" id="o1-to-o7" style="stroke:#181818;stroke-width:1;"/><polygon fill="#181818" points="488.68,481.9083,478.8853,480.8766,483.9234,483.4492,481.3508,488.4872,488.68,481.9083" style="stroke:#181818;stroke-width:1;"/><text fill="#000000" font-family="sans-serif" font-size="13" lengthAdjust="spacing" textLength="219.3369" x="231.68" y="490.8766">bfo:has member part at some time</text></g><!--link o1 to o8--><g class="link" data-entity-1="o1" data-entity-2="o8" data-source-line="195" data-uid="lnk40" id="link_o1_o8"><path codeLine="195" d="M119.27,904.0583 C152.33,832.0883 230.68,661.4883 230.68,661.4883 C230.68,661.4883 376.9474,614.5231 482.0274,580.7731" fill="none" id="o1-to-o8" style="stroke:#181818;stroke-width:1;"/><polygon fill="#181818" points="487.74,578.9383,477.9479,577.8821,482.9795,580.4673,480.3943,585.4988,487.74,578.9383" style="stroke:#181818;stroke-width:1;"/><text fill="#000000" font-family="sans-serif" font-size="13" lengthAdjust="spacing" textLength="219.3369" x="231.68" y="587.4966">bfo:has member part at some time</text></g><!--link o1 to o9--><g class="link" data-entity-1="o1" data-entity-2="o9" data-source-line="195" data-uid="lnk41" id="link_o1_o9"><path codeLine="195" d="M126.47,904.3683 C162.45,852.6183 230.68,754.4883 230.68,754.4883 C230.68,754.4883 375.1189,709.7342 480.1289,677.1942" fill="none" id="o1-to-o9" style="stroke:#181818;stroke-width:1;"/><polygon fill="#181818" points="485.86,675.4183,476.0793,674.2614,481.084,676.8982,478.4472,681.903,485.86,675.4183" style="stroke:#181818;stroke-width:1;"/><text fill="#000000" font-family="sans-serif" font-size="13" lengthAdjust="spacing" textLength="219.3369" x="231.68" y="682.9666">bfo:has member part at some time</text></g><!--link o1 to o10--><g class="link" data-entity-1="o1" data-entity-2="o10" data-source-line="195" data-uid="lnk42" id="link_o1_o10"><path codeLine="195" d="M147.44,903.9983 C183.95,877.0183 230.68,842.4883 230.68,842.4883 C230.68,842.4883 374.179,801.6601 479.139,771.8001" fill="none" id="o1-to-o10" style="stroke:#181818;stroke-width:1;"/><polygon fill="#181818" points="484.91,770.1583,475.159,768.7736,480.1008,771.5264,477.348,776.4683,484.91,770.1583" style="stroke:#181818;stroke-width:1;"/><text fill="#000000" font-family="sans-serif" font-size="13" lengthAdjust="spacing" textLength="219.3369" x="231.68" y="776.5366">bfo:has member part at some time</text></g><!--link o1 to o11--><g class="link" data-entity-1="o1" data-entity-2="o11" data-source-line="195" data-uid="lnk43" id="link_o1_o11"><path codeLine="195" d="M200.99,916.0883 C283.21,899.5083 395.2785,876.9049 478.8485,860.0449" fill="none" id="o1-to-o11" style="stroke:#181818;stroke-width:1;"/><polygon fill="#181818" points="484.73,858.8583,475.1167,856.7171,479.8288,859.8471,476.6988,864.5591,484.73,858.8583" style="stroke:#181818;stroke-width:1;"/><text fill="#000000" font-family="sans-serif" font-size="13" lengthAdjust="spacing" textLength="219.3369" x="231.68" y="863.7166">bfo:has member part at some time</text></g><!--link o1 to o12--><g class="link" data-entity-1="o1" data-entity-2="o12" data-source-line="195" data-uid="lnk44" id="link_o1_o12"><path codeLine="195" d="M200.99,935.4883 C283.21,935.4883 395.16,935.4883 478.73,935.4883" fill="none" id="o1-to-o12" style="stroke:#181818;stroke-width:1;"/><polygon fill="#181818" points="484.73,935.4883,475.73,931.4883,479.73,935.4883,475.73,939.4883,484.73,935.4883" style="stroke:#181818;stroke-width:1;"/><text fill="#000000" font-family="sans-serif" font-size="13" lengthAdjust="spacing" textLength="219.3369" x="231.68" y="932.0566">bfo:has member part at some time</text></g><!--link o1 to o13--><g class="link" data-entity-1="o1" data-entity-2="o13" data-source-line="195" data-uid="lnk45" id="link_o1_o13"><path codeLine="195" d="M200.99,954.8883 C282.12,971.2483 392.1386,993.4414 475.4886,1010.2614" fill="none" id="o1-to-o13" style="stroke:#181818;stroke-width:1;"/><polygon fill="#181818" points="481.37,1011.4483,473.3391,1005.747,476.4688,1010.4592,471.7566,1013.5889,481.37,1011.4483" style="stroke:#181818;stroke-width:1;"/><text fill="#000000" font-family="sans-serif" font-size="13" lengthAdjust="spacing" textLength="219.3369" x="231.68" y="958.0666">bfo:has member part at some time</text></g><!--link o1 to o14--><g class="link" data-entity-1="o1" data-entity-2="o14" data-source-line="195" data-uid="lnk46" id="link_o1_o14"><path codeLine="195" d="M147.44,966.9783 C183.95,993.9583 230.68,1028.4883 230.68,1028.4883 C230.68,1028.4883 415.304,1075.2937 517.224,1101.1337" fill="none" id="o1-to-o14" style="stroke:#181818;stroke-width:1;"/><polygon fill="#181818" points="523.04,1102.6083,515.299,1096.5191,518.1933,1101.3795,513.333,1104.2738,523.04,1102.6083" style="stroke:#181818;stroke-width:1;"/><text fill="#000000" font-family="sans-serif" font-size="13" lengthAdjust="spacing" textLength="219.3369" x="231.68" y="1025.0566">bfo:has member part at some time</text></g><!--link o1 to o15--><g class="link" data-entity-1="o1" data-entity-2="o15" data-source-line="195" data-uid="lnk47" id="link_o1_o15"><path codeLine="195" d="M127.34,966.5983 C163.53,1016.6483 230.68,1109.4883 230.68,1109.4883 C230.68,1109.4883 409.2412,1151.7368 512.2412,1176.1068" fill="none" id="o1-to-o15" style="stroke:#181818;stroke-width:1;"/><polygon fill="#181818" points="518.08,1177.4883,510.2428,1171.5235,513.2143,1176.3371,508.4008,1179.3086,518.08,1177.4883" style="stroke:#181818;stroke-width:1;"/><text fill="#000000" font-family="sans-serif" font-size="13" lengthAdjust="spacing" textLength="219.3369" x="231.68" y="1106.0566">bfo:has member part at some time</text></g><!--link o1 to o16--><g class="link" data-entity-1="o1" data-entity-2="o16" data-source-line="195" data-uid="lnk48" id="link_o1_o16"><path codeLine="195" d="M120.52,966.7683 C154.26,1034.0583 230.68,1186.4883 230.68,1186.4883 C230.68,1186.4883 386.9639,1222.588 492.0839,1246.868" fill="none" id="o1-to-o16" style="stroke:#181818;stroke-width:1;"/><polygon fill="#181818" points="497.93,1248.2183,490.0611,1242.2955,493.0583,1247.093,488.2607,1250.0902,497.93,1248.2183" style="stroke:#181818;stroke-width:1;"/><text fill="#000000" font-family="sans-serif" font-size="13" lengthAdjust="spacing" textLength="219.3369" x="231.68" y="1183.0566">bfo:has member part at some time</text></g><!--link o1 to o17--><g class="link" data-entity-1="o1" data-entity-2="o17" data-source-line="195" data-uid="lnk49" id="link_o1_o17"><path codeLine="195" d="M116.91,966.8383 C148.4,1048.6883 230.68,1262.4883 230.68,1262.4883 C230.68,1262.4883 386.4903,1298.0336 491.6303,1322.0236" fill="none" id="o1-to-o17" style="stroke:#181818;stroke-width:1;"/><polygon fill="#181818" points="497.48,1323.3583,489.5953,1317.4564,492.6053,1322.246,487.8157,1325.256,497.48,1323.3583" style="stroke:#181818;stroke-width:1;"/><text fill="#000000" font-family="sans-serif" font-size="13" lengthAdjust="spacing" textLength="219.3369" x="231.68" y="1259.0566">bfo:has member part at some time</text></g><!--link o1 to o18--><g class="link" data-entity-1="o1" data-entity-2="o18" data-source-line="195" data-uid="lnk50" id="link_o1_o18"><path codeLine="195" d="M114.61,966.6983 C144.18,1061.1483 230.68,1337.4883 230.68,1337.4883 C230.68,1337.4883 409.7303,1378.3437 512.6503,1401.8237" fill="none" id="o1-to-o18" style="stroke:#181818;stroke-width:1;"/><polygon fill="#181818" points="518.5,1403.1583,510.6151,1397.2567,513.6252,1402.0462,508.8358,1405.0563,518.5,1403.1583" style="stroke:#181818;stroke-width:1;"/><text fill="#000000" font-family="sans-serif" font-size="13" lengthAdjust="spacing" textLength="219.3369" x="231.68" y="1334.0566">bfo:has member part at some time</text></g><!--link o1 to o19--><g class="link" data-entity-1="o1" data-entity-2="o19" data-source-line="195" data-uid="lnk51" id="link_o1_o19"><path codeLine="195" d="M113.1,966.7883 C141.09,1072.9083 230.68,1412.4883 230.68,1412.4883 C230.68,1412.4883 385.0904,1447.7134 490.2604,1471.7134" fill="none" id="o1-to-o19" style="stroke:#181818;stroke-width:1;"/><polygon fill="#181818" points="496.11,1473.0483,488.2255,1467.1462,491.2353,1471.9359,486.4456,1474.9457,496.11,1473.0483" style="stroke:#181818;stroke-width:1;"/><text fill="#000000" font-family="sans-serif" font-size="13" lengthAdjust="spacing" textLength="219.3369" x="231.68" y="1409.0566">bfo:has member part at some time</text></g><!--link o1 to o20--><g class="link" data-entity-1="o1" data-entity-2="o20" data-source-line="195" data-uid="lnk52" id="link_o1_o20"><path codeLine="195" d="M111.97,966.7483 C138.59,1083.5183 230.68,1487.4883 230.68,1487.4883 C230.68,1487.4883 385.0904,1522.7134 490.2604,1546.7134" fill="none" id="o1-to-o20" style="stroke:#181818;stroke-width:1;"/><polygon fill="#181818" points="496.11,1548.0483,488.2255,1542.1462,491.2353,1546.9359,486.4456,1549.9457,496.11,1548.0483" style="stroke:#181818;stroke-width:1;"/><text fill="#000000" font-family="sans-serif" font-size="13" lengthAdjust="spacing" textLength="219.3369" x="231.68" y="1484.0566">bfo:has member part at some time</text></g><!--link o1 to o21--><g class="link" data-entity-1="o1" data-entity-2="o21" data-source-line="195" data-uid="lnk53" id="link_o1_o21"><path codeLine="195" d="M111.08,966.5783 C136.47,1093.0983 230.68,1562.4883 230.68,1562.4883 C230.68,1562.4883 400.8303,1601.3139 504.9903,1625.0739" fill="none" id="o1-to-o21" style="stroke:#181818;stroke-width:1;"/><polygon fill="#181818" points="510.84,1626.4083,502.955,1620.5069,505.9652,1625.2963,501.1758,1628.3065,510.84,1626.4083" style="stroke:#181818;stroke-width:1;"/><text fill="#000000" font-family="sans-serif" font-size="13" lengthAdjust="spacing" textLength="219.3369" x="231.68" y="1559.0566">bfo:has member part at some time</text></g><!--link o1 to o22--><g class="link" data-entity-1="o1" data-entity-2="o22" data-source-line="195" data-uid="lnk54" id="link_o1_o22"><path codeLine="195" d="M110.41,966.5583 C134.76,1102.4183 230.68,1637.4883 230.68,1637.4883 C230.68,1637.4883 394.0604,1674.7634 498.8404,1698.6734" fill="none" id="o1-to-o22" style="stroke:#181818;stroke-width:1;"/><polygon fill="#181818" points="504.69,1700.0083,496.8054,1694.1063,499.8153,1698.8959,495.0257,1701.9058,504.69,1700.0083" style="stroke:#181818;stroke-width:1;"/><text fill="#000000" font-family="sans-serif" font-size="13" lengthAdjust="spacing" textLength="219.3369" x="231.68" y="1634.0566">bfo:has member part at some time</text></g><!--link o7 to o23--><g class="link" data-entity-1="o7" data-entity-2="o23" data-source-line="195" data-uid="lnk55" id="link_o7_o23"><path codeLine="195" d="M659.01,419.0883 C691.02,404.9983 721.7,391.4883 721.7,391.4883 C721.7,391.4883 875.5736,363.9839 978.2436,345.6339" fill="none" id="o7-to-o23" style="stroke:#181818;stroke-width:1;"/><polygon fill="#181818" points="984.15,344.5783,974.5866,342.2241,979.228,345.458,975.9942,350.0993,984.15,344.5783" style="stroke:#181818;stroke-width:1;"/><text fill="#000000" font-family="sans-serif" font-size="13" lengthAdjust="spacing" textLength="219.3369" x="722.7" y="349.6766">bfo:has member part at some time</text></g><!--link o7 to o24--><g class="link" data-entity-1="o7" data-entity-2="o24" data-source-line="195" data-uid="lnk56" id="link_o7_o24"><path codeLine="195" d="M687.33,440.9583 C779.07,432.1783 907.0673,419.9397 989.3273,412.0697" fill="none" id="o7-to-o24" style="stroke:#181818;stroke-width:1;"/><polygon fill="#181818" points="995.3,411.4983,985.96,408.3736,990.3227,411.9745,986.7219,416.3372,995.3,411.4983" style="stroke:#181818;stroke-width:1;"/><text fill="#000000" font-family="sans-serif" font-size="13" lengthAdjust="spacing" textLength="219.3369" x="722.7" y="413.3966">bfo:has member part at some time</text></g><!--link o8 to o25--><g class="link" data-entity-1="o8" data-entity-2="o25" data-source-line="195" data-uid="lnk57" id="link_o8_o25"><path codeLine="195" d="M687.54,530.3483 C707.1,526.9983 721.7,524.4883 721.7,524.4883 C721.7,524.4883 875.5299,504.5302 978.1999,491.2102" fill="none" id="o8-to-o25" style="stroke:#181818;stroke-width:1;"/><polygon fill="#181818" points="984.15,490.4383,974.7102,487.6294,979.1916,491.0816,975.7394,495.563,984.15,490.4383" style="stroke:#181818;stroke-width:1;"/><text fill="#000000" font-family="sans-serif" font-size="13" lengthAdjust="spacing" textLength="219.3369" x="722.7" y="493.2066">bfo:has member part at some time</text></g><!--link o8 to o26--><g class="link" data-entity-1="o8" data-entity-2="o26" data-source-line="195" data-uid="lnk58" id="link_o8_o26"><path codeLine="195" d="M687.33,548.9383 C779.07,550.2783 907.0406,552.1415 989.3006,553.3315" fill="none" id="o8-to-o26" style="stroke:#181818;stroke-width:1;"/><polygon fill="#181818" points="995.3,553.4183,986.3588,549.2885,990.3005,553.346,986.2431,557.2877,995.3,553.4183" style="stroke:#181818;stroke-width:1;"/><text fill="#000000" font-family="sans-serif" font-size="13" lengthAdjust="spacing" textLength="219.3369" x="722.7" y="546.1266">bfo:has member part at some time</text></g><!--link o9 to o27--><g class="link" data-entity-1="o9" data-entity-2="o27" data-source-line="195" data-uid="lnk59" id="link_o9_o27"><path codeLine="195" d="M687.33,641.3783 C775.08,638.6383 895.4729,634.8851 978.2929,632.3051" fill="none" id="o9-to-o27" style="stroke:#181818;stroke-width:1;"/><polygon fill="#181818" points="984.29,632.1183,975.1698,628.4005,979.2924,632.274,975.4189,636.3966,984.29,632.1183" style="stroke:#181818;stroke-width:1;"/><text fill="#000000" font-family="sans-serif" font-size="13" lengthAdjust="spacing" textLength="219.3369" x="722.7" y="630.0766">bfo:has member part at some time</text></g><!--link o9 to o28--><g class="link" data-entity-1="o9" data-entity-2="o28" data-source-line="195" data-uid="lnk60" id="link_o9_o28"><path codeLine="195" d="M687.54,660.1383 C707.1,663.1983 721.7,665.4883 721.7,665.4883 C721.7,665.4883 888.1675,684.2082 989.8775,695.6382" fill="none" id="o9-to-o28" style="stroke:#181818;stroke-width:1;"/><polygon fill="#181818" points="995.84,696.3083,987.343,691.3282,990.8713,695.7499,986.4496,699.2782,995.84,696.3083" style="stroke:#181818;stroke-width:1;"/><text fill="#000000" font-family="sans-serif" font-size="13" lengthAdjust="spacing" textLength="219.3369" x="722.7" y="662.0566">bfo:has member part at some time</text></g><!--link o10 to o29--><g class="link" data-entity-1="o10" data-entity-2="o29" data-source-line="195" data-uid="lnk61" id="link_o10_o29"><path codeLine="195" d="M688.58,758.7983 C707.62,762.0683 721.7,764.4883 721.7,764.4883 C721.7,764.4883 882.9256,771.4591 985.1456,775.8791" fill="none" id="o10-to-o29" style="stroke:#181818;stroke-width:1;"/><polygon fill="#181818" points="991.14,776.1383,982.3212,771.7532,986.1447,775.9223,981.9756,779.7457,991.14,776.1383" style="stroke:#181818;stroke-width:1;"/><text fill="#000000" font-family="sans-serif" font-size="13" lengthAdjust="spacing" textLength="219.3369" x="722.7" y="761.0566">bfo:has member part at some time</text></g><!--link o11 to o30--><g class="link" data-entity-1="o11" data-entity-2="o30" data-source-line="195" data-uid="lnk62" id="link_o11_o30"><path codeLine="195" d="M688.49,841.8383 C779.24,844.8583 904.5933,849.0282 986.7033,851.7682" fill="none" id="o11-to-o30" style="stroke:#181818;stroke-width:1;"/><polygon fill="#181818" points="992.7,851.9683,983.8384,847.6703,987.7028,851.8015,983.5716,855.6659,992.7,851.9683" style="stroke:#181818;stroke-width:1;"/><text fill="#000000" font-family="sans-serif" font-size="13" lengthAdjust="spacing" textLength="219.3369" x="722.7" y="839.7866">bfo:has member part at some time</text></g><!--link o12 to o31--><g class="link" data-entity-1="o12" data-entity-2="o31" data-source-line="195" data-uid="lnk63" id="link_o12_o31"><path codeLine="195" d="M688.49,935.4883 C778.69,935.4883 903,935.4883 985.2,935.4883" fill="none" id="o12-to-o31" style="stroke:#181818;stroke-width:1;"/><polygon fill="#181818" points="991.2,935.4883,982.2,931.4883,986.2,935.4883,982.2,939.4883,991.2,935.4883" style="stroke:#181818;stroke-width:1;"/><text fill="#000000" font-family="sans-serif" font-size="13" lengthAdjust="spacing" textLength="219.3369" x="722.7" y="932.0566">bfo:has member part at some time</text></g><!--link o13 to o32--><g class="link" data-entity-1="o13" data-entity-2="o32" data-source-line="195" data-uid="lnk64" id="link_o13_o32"><path codeLine="195" d="M692.03,1032.4883 C775.45,1032.4883 885.46,1032.4883 966.59,1032.4883" fill="none" id="o13-to-o32" style="stroke:#181818;stroke-width:1;"/><polygon fill="#181818" points="972.59,1032.4883,963.59,1028.4883,967.59,1032.4883,963.59,1036.4883,972.59,1032.4883" style="stroke:#181818;stroke-width:1;"/><text fill="#000000" font-family="sans-serif" font-size="13" lengthAdjust="spacing" textLength="219.3369" x="722.7" y="1029.0566">bfo:has member part at some time</text></g><!--SRC=[dPLTJzim58RlyojCD6chrBH92lsITa4BR1VhXCODS8CSvvHwE75aEz0mxR_FIMcBGvH5xfNTlCyvn_PxxC_eXAQ4vJ6WZLAPd0-70hyC7gdQv54kGH2UAaZLWF1aIFcQvsaiYg7-asTvmeO2rdAu0HpBuGKy0-DPejMbSa3rT-SGVJ0u_kamM2kaE1BqSQDGJ0KGHNdgo2UQPbZW136QWYeoG1bdHJbn55KCq0g_ugSL272Saqynh77ErCCX0FgAOlwIbjzId83CC847mXaNKd_wWznepTsvUt5rFl53juySrFXpTQLQ5bpE_Akh5bagjUgR04XRHO5MJSPZVthkzXqNjaV8ZR72xxwwX0jubzdDKwhA90kMW-lyTMWQqsSQvvXzuK4VbVYysf8-WgqUaOtUgfuX2z_Bl2tUKfbKwXibSg9oKTEF37tnN_sfeNyjzMtoCqEkSCIWJJusvKBRhnsOcCkjf3_qfc2nugL5RWgf836PgRdaJipCN7Od9l0DY5JGBwwmA5eWuvozI7IZp6CdOJVAFFoozojkgGU2iqR4FF-OSw4BBXjjpgFVkYtTcjuqWEvsnSbk9wxrk2OsZnyOx9INUg049RYv9DC3co8M-fgWE_JxVjP8JclhvmoNMz2o7DC7MGfvWjLRhklzh2bNQ9g1vL6veF9aTbuwpXjfqnMPu4JgZNnwQmqzgkbDFu2-bRdKpTFQsg5fXwrt6s76917mKc6B_Qo6dTQnX2k-y-sg7DNafYCAxwvRbd4TQyzYckBLk- -MPLh7shEOTY3UCcpLZ_nQStkBTdrGQsjlsQuFFpIqRZcr2JwszRN-k-Te8sKWL54zBvNjDrYY198812gR5M6594y0APg0VlPus7FA31L0abHwiNmieP_w0UxltckRi2CRwDG6EhE1nZRGn0QQsa0p6oZmhQZ0YWgjA2jN15Qs2Any4LWP8x1oHc1bZS3A6w6LDq8hRuI6DoPTgT7-8feqNKItLZ4DvqoxKcVxIgPDbTnPnJHyDUjAJVQLp9egkRUAQRhExuhD3k-4trJBqhHAvsV2FuHjV7yMHjImQzJW43LiBDQylKPTmnxVob5JMB9xZnc8tZy0]--></g></svg>