<svg xmlns="http://www.w3.org/2000/svg" xmlns:xlink="http://www.w3.org/1999/xlink" contentStyleType="text/css" data-diagram-type="CLASS" height="1216px" preserveAspectRatio="none" style="width:1887px;height:1216px;background:#FFFFFF;" version="1.1" viewBox="0 0 1887 1216" width="1887px" zoomAndPan="magnify"><title>Mazak-x</title><defs/><g><text fill="#000000" font-family="sans-serif" font-size="14" font-weight="bold" lengthAdjust="spacing" textLength="63.5127" x="904.7755" y="23.5352">Mazak-x</text><g class="entity" data-entity="o1" data-source-line="4" data-uid="ent0002" id="entity_o1"><rect fill="#F1F1F1" height="44.9766" rx="2.5" ry="2.5" style="stroke:#181818;stroke-width:0.5;" width="218.7529" x="429.15" y="804.4883"/><a href="./Mazak-x.html" target="_top" title="./Mazak-x.html" xlink:actuate="onRequest" xlink:href="./Mazak-x.html" xlink:show="new" xlink:title="./Mazak-x.html" xlink:type="simple"><text fill="#0000FF" font-family="sans-serif" font-size="14" lengthAdjust="spacing" text-decoration="underline" textLength="94.3564" x="491.3482" y="820.0234">data:Mazak-x</text></a><line style="stroke:#181818;stroke-width:0.5;" x1="430.15" x2="646.9029" y1="824.9766" y2="824.9766"/><text fill="#000000" font-family="sans-serif" font-size="14" lengthAdjust="spacing" textLength="206.7529" x="435.15" y="842.5117">type = ex:LinearMotionSystem</text></g><g class="entity" data-entity="o2" data-source-line="7" data-uid="ent0003" id="entity_o2"><rect fill="#F1F1F1" height="61.4648" rx="2.5" ry="2.5" style="stroke:#181818;stroke-width:0.5;" width="254.8945" x="933.74" y="268.2483"/><text fill="#000000" font-family="sans-serif" font-size="14" lengthAdjust="spacing" textLength="139.7471" x="991.3137" y="283.7834">data:Mazak-x-name</text><line style="stroke:#181818;stroke-width:0.5;" x1="934.74" x2="1187.6345" y1="288.7366" y2="288.7366"/><text fill="#000000" font-family="sans-serif" font-size="14" lengthAdjust="spacing" textLength="161.3691" x="939.74" y="306.2717">type = cmns-dsg:Name</text><text fill="#000000" font-family="sans-serif" font-size="14" lengthAdjust="spacing" textLength="242.8945" x="939.74" y="322.76">core:hasSimpleExpressionValue = X</text></g><g class="entity" data-entity="o3" data-source-line="10" data-uid="ent0004" id="entity_o3"><rect fill="#F1F1F1" height="44.9766" rx="2.5" ry="2.5" style="stroke:#181818;stroke-width:0.5;" width="227.8037" x="947.28" y="364.4883"/><text fill="#000000" font-family="sans-serif" font-size="14" lengthAdjust="spacing" textLength="133.376" x="994.4939" y="380.0234">data:Mazak-x-spec</text><line style="stroke:#181818;stroke-width:0.5;" x1="948.28" x2="1174.0837" y1="384.9766" y2="384.9766"/><text fill="#000000" font-family="sans-serif" font-size="14" lengthAdjust="spacing" textLength="215.8037" x="953.28" y="402.5117">type = core:DesignSpecification</text></g><g class="entity" data-entity="o4" data-source-line="13" data-uid="ent0005" id="entity_o4"><rect fill="#F1F1F1" height="44.9766" rx="2.5" ry="2.5" style="stroke:#181818;stroke-width:0.5;" width="274.7568" x="1541.89" y="44.4883"/><text fill="#000000" font-family="sans-serif" font-size="14" lengthAdjust="spacing" textLength="260.7568" x="1548.89" y="60.0234">data:Mazak-x-spec-LENGTH-Nominal</text><line style="stroke:#181818;stroke-width:0.5;" x1="1542.89" x2="1815.6468" y1="64.9766" y2="64.9766"/><text fill="#000000" font-family="sans-serif" font-size="14" lengthAdjust="spacing" textLength="194.4209" x="1547.89" y="82.5117">type = core:ValueExpression</text></g><g class="entity" data-entity="o5" data-source-line="16" data-uid="ent0006" id="entity_o5"><rect fill="#F1F1F1" height="44.9766" rx="2.5" ry="2.5" style="stroke:#181818;stroke-width:0.5;" width="330.2783" x="1514.13" y="124.4883"/><text fill="#000000" font-family="sans-serif" font-size="14" lengthAdjust="spacing" textLength="316.2783" x="1521.13" y="140.0234">data:Mazak-x-spec-LINEAR_FORCE-Maximum</text><line style="stroke:#181818;stroke-width:0.5;" x1="1515.13" x2="1843.4083" y1="144.9766" y2="144.9766"/><text fill="#000000" font-family="sans-serif" font-size="14" lengthAdjust="spacing" textLength="194.4209" x="1520.13" y="162.5117">type = core:ValueExpression</text></g><g class="entity" data-entity="o6" data-source-line="19" data-uid="ent0007" id="entity_o6"><rect fill="#F1F1F1" height="44.9766" rx="2.5" ry="2.5" style="stroke:#181818;stroke-width:0.5;" width="326.6963" x="1515.92" y="204.4883"/><text fill="#000000" font-family="sans-serif" font-size="14" lengthAdjust="spacing" textLength="312.6963" x="1522.92" y="220.0234">data:Mazak-x-spec-LINEAR_FORCE-Minimum</text><line style="stroke:#181818;stroke-width:0.5;" x1="1516.92" x2="1841.6163" y1="224.9766" y2="224.9766"/><text fill="#000000" font-family="sans-serif" font-size="14" lengthAdjust="spacing" textLength="194.4209" x="1521.92" y="242.5117">type = core:ValueExpression</text></g><g class="entity" data-entity="o7" data-source-line="22" data-uid="ent0008" id="entity_o7"><rect fill="#F1F1F1" height="44.9766" rx="2.5" ry="2.5" style="stroke:#181818;stroke-width:0.5;" width="346.0762" x="1506.23" y="284.4883"/><text fill="#000000" font-family="sans-serif" font-size="14" lengthAdjust="spacing" textLength="332.0762" x="1513.23" y="300.0234">data:Mazak-x-spec-VELOCITY-RAPID-Maximum</text><line style="stroke:#181818;stroke-width:0.5;" x1="1507.23" x2="1851.3062" y1="304.9766" y2="304.9766"/><text fill="#000000" font-family="sans-serif" font-size="14" lengthAdjust="spacing" textLength="194.4209" x="1512.23" y="322.5117">type = core:ValueExpression</text></g><g class="entity" data-entity="o8" data-source-line="25" data-uid="ent0009" id="entity_o8"><rect fill="#F1F1F1" height="44.9766" rx="2.5" ry="2.5" style="stroke:#181818;stroke-width:0.5;" width="342.4941" x="1508.02" y="364.4883"/><text fill="#000000" font-family="sans-serif" font-size="14" lengthAdjust="spacing" textLength="328.4941" x="1515.02" y="380.0234">data:Mazak-x-spec-VELOCITY-RAPID-Minimum</text><line style="stroke:#181818;stroke-width:0.5;" x1="1509.02" x2="1849.5141" y1="384.9766" y2="384.9766"/><text fill="#000000" font-family="sans-serif" font-size="14" lengthAdjust="spacing" textLength="194.4209" x="1514.02" y="402.5117">type = core:ValueExpression</text></g><g class="entity" data-entity="o9" data-source-line="28" data-uid="ent0010" id="entity_o9"><rect fill="#F1F1F1" height="44.9766" rx="2.5" ry="2.5" style="stroke:#181818;stroke-width:0.5;" width="403.5938" x="1477.47" y="444.4883"/><text fill="#000000" font-family="sans-serif" font-size="14" lengthAdjust="spacing" textLength="389.5938" x="1484.47" y="460.0234">data:Mazak-x-spec-VELOCITY-PROGRAMMED-Maximum</text><line style="stroke:#181818;stroke-width:0.5;" x1="1478.47" x2="1880.0638" y1="464.9766" y2="464.9766"/><text fill="#000000" font-family="sans-serif" font-size="14" lengthAdjust="spacing" textLength="194.4209" x="1483.47" y="482.5117">type = core:ValueExpression</text></g><g class="entity" data-entity="o10" data-source-line="31" data-uid="ent0011" id="entity_o10"><rect fill="#F1F1F1" height="44.9766" rx="2.5" ry="2.5" style="stroke:#181818;stroke-width:0.5;" width="400.0117" x="1479.26" y="524.4883"/><text fill="#000000" font-family="sans-serif" font-size="14" lengthAdjust="spacing" textLength="386.0117" x="1486.26" y="540.0234">data:Mazak-x-spec-VELOCITY-PROGRAMMED-Minimum</text><line style="stroke:#181818;stroke-width:0.5;" x1="1480.26" x2="1878.2717" y1="544.9766" y2="544.9766"/><text fill="#000000" font-family="sans-serif" font-size="14" lengthAdjust="spacing" textLength="194.4209" x="1485.26" y="562.5117">type = core:ValueExpression</text></g><g class="entity" data-entity="o11" data-source-line="34" data-uid="ent0012" id="entity_o11"><rect fill="#F1F1F1" height="44.9766" rx="2.5" ry="2.5" style="stroke:#181818;stroke-width:0.5;" width="178.5" x="971.94" y="604.4883"/><a href="./Mazak-enclosurem.html" target="_top" title="./Mazak-enclosurem.html" xlink:actuate="onRequest" xlink:href="./Mazak-enclosurem.html" xlink:show="new" xlink:title="./Mazak-enclosurem.html" xlink:type="simple"><text fill="#0000FF" font-family="sans-serif" font-size="14" lengthAdjust="spacing" text-decoration="underline" textLength="164.5" x="978.94" y="620.0234">data:Mazak-enclosurem</text></a><line style="stroke:#181818;stroke-width:0.5;" x1="972.94" x2="1149.44" y1="624.9766" y2="624.9766"/><text fill="#000000" font-family="sans-serif" font-size="14" lengthAdjust="spacing" textLength="131.7832" x="977.94" y="642.5117">type = ex:Structure</text></g><g class="entity" data-entity="o12" data-source-line="37" data-uid="ent0013" id="entity_o12"><rect fill="#F1F1F1" height="44.9766" rx="2.5" ry="2.5" style="stroke:#181818;stroke-width:0.5;" width="223.8906" x="1567.32" y="604.4883"/><text fill="#000000" font-family="sans-serif" font-size="14" lengthAdjust="spacing" textLength="209.8906" x="1574.32" y="620.0234">data:Mazak-enclosurem-name</text><line style="stroke:#181818;stroke-width:0.5;" x1="1568.32" x2="1790.2106" y1="624.9766" y2="624.9766"/><text fill="#000000" font-family="sans-serif" font-size="14" lengthAdjust="spacing" textLength="161.3691" x="1573.32" y="642.5117">type = cmns-dsg:Name</text></g><g class="entity" data-entity="o13" data-source-line="40" data-uid="ent0014" id="entity_o13"><rect fill="#F1F1F1" height="44.9766" rx="2.5" ry="2.5" style="stroke:#181818;stroke-width:0.5;" width="270.2314" x="1544.15" y="684.4883"/><text fill="#000000" font-family="sans-serif" font-size="14" lengthAdjust="spacing" textLength="256.2314" x="1551.15" y="700.0234">data:Mazak-enclosurem-temperature</text><line style="stroke:#181818;stroke-width:0.5;" x1="1545.15" x2="1813.3814" y1="704.9766" y2="704.9766"/><text fill="#000000" font-family="sans-serif" font-size="14" lengthAdjust="spacing" textLength="158.4502" x="1550.15" y="722.5117">type = qp:Temperature</text></g><g class="entity" data-entity="o14" data-source-line="43" data-uid="ent0015" id="entity_o14"><rect fill="#F1F1F1" height="44.9766" rx="2.5" ry="2.5" style="stroke:#181818;stroke-width:0.5;" width="148.9277" x="986.72" y="684.4883"/><a href="./Mazak-xaxism.html" target="_top" title="./Mazak-xaxism.html" xlink:actuate="onRequest" xlink:href="./Mazak-xaxism.html" xlink:show="new" xlink:title="./Mazak-xaxism.html" xlink:type="simple"><text fill="#0000FF" font-family="sans-serif" font-size="14" lengthAdjust="spacing" text-decoration="underline" textLength="134.9277" x="993.72" y="700.0234">data:Mazak-xaxism</text></a><line style="stroke:#181818;stroke-width:0.5;" x1="987.72" x2="1134.6477" y1="704.9766" y2="704.9766"/><text fill="#000000" font-family="sans-serif" font-size="14" lengthAdjust="spacing" textLength="131.7832" x="992.72" y="722.5117">type = ex:Structure</text></g><g class="entity" data-entity="o15" data-source-line="46" data-uid="ent0016" id="entity_o15"><rect fill="#F1F1F1" height="44.9766" rx="2.5" ry="2.5" style="stroke:#181818;stroke-width:0.5;" width="194.3184" x="1582.11" y="764.4883"/><text fill="#000000" font-family="sans-serif" font-size="14" lengthAdjust="spacing" textLength="180.3184" x="1589.11" y="780.0234">data:Mazak-xaxism-name</text><line style="stroke:#181818;stroke-width:0.5;" x1="1583.11" x2="1775.4284" y1="784.9766" y2="784.9766"/><text fill="#000000" font-family="sans-serif" font-size="14" lengthAdjust="spacing" textLength="161.3691" x="1588.11" y="802.5117">type = cmns-dsg:Name</text></g><g class="entity" data-entity="o16" data-source-line="49" data-uid="ent0017" id="entity_o16"><rect fill="#F1F1F1" height="44.9766" rx="2.5" ry="2.5" style="stroke:#181818;stroke-width:0.5;" width="258.5654" x="931.9" y="764.4883"/><text fill="#000000" font-family="sans-serif" font-size="14" lengthAdjust="spacing" textLength="158.7236" x="981.8209" y="780.0234">data:Mazak-x-function</text><line style="stroke:#181818;stroke-width:0.5;" x1="932.9" x2="1189.4654" y1="784.9766" y2="784.9766"/><text fill="#000000" font-family="sans-serif" font-size="14" lengthAdjust="spacing" textLength="246.5654" x="937.9" y="802.5117">type = ex:PrismaticMotionCapability</text></g><g class="entity" data-entity="o17" data-source-line="52" data-uid="ent0018" id="entity_o17"><rect fill="#F1F1F1" height="44.9766" rx="2.5" ry="2.5" style="stroke:#181818;stroke-width:0.5;" width="220.3291" x="951.02" y="844.4883"/><text fill="#000000" font-family="sans-serif" font-size="14" lengthAdjust="spacing" textLength="206.3291" x="958.02" y="860.0234">data:Mazak-x-position-actual</text><line style="stroke:#181818;stroke-width:0.5;" x1="952.02" x2="1170.3491" y1="864.9766" y2="864.9766"/><text fill="#000000" font-family="sans-serif" font-size="14" lengthAdjust="spacing" textLength="163.2285" x="957.02" y="882.5117">type = qp:Displacement</text></g><g class="entity" data-entity="o18" data-source-line="55" data-uid="ent0019" id="entity_o18"><rect fill="#F1F1F1" height="44.9766" rx="2.5" ry="2.5" style="stroke:#181818;stroke-width:0.5;" width="175.2285" x="973.57" y="924.4883"/><text fill="#000000" font-family="sans-serif" font-size="14" lengthAdjust="spacing" textLength="157.623" x="982.3727" y="940.0234">data:Mazak-x-position</text><line style="stroke:#181818;stroke-width:0.5;" x1="974.57" x2="1147.7985" y1="944.9766" y2="944.9766"/><text fill="#000000" font-family="sans-serif" font-size="14" lengthAdjust="spacing" textLength="163.2285" x="979.57" y="962.5117">type = qp:Displacement</text></g><g class="entity" data-entity="o19" data-source-line="58" data-uid="ent0020" id="entity_o19"><rect fill="#F1F1F1" height="44.9766" rx="2.5" ry="2.5" style="stroke:#181818;stroke-width:0.5;" width="200.0879" x="961.14" y="1004.4883"/><text fill="#000000" font-family="sans-serif" font-size="14" lengthAdjust="spacing" textLength="186.0879" x="968.14" y="1020.0234">data:Mazak-x-temperature</text><line style="stroke:#181818;stroke-width:0.5;" x1="962.14" x2="1160.2279" y1="1024.9766" y2="1024.9766"/><text fill="#000000" font-family="sans-serif" font-size="14" lengthAdjust="spacing" textLength="158.4502" x="967.14" y="1042.5117">type = qp:Temperature</text></g><g class="entity" data-entity="o20" data-source-line="61" data-uid="ent0021" id="entity_o20"><rect fill="#F1F1F1" height="44.9766" rx="2.5" ry="2.5" style="stroke:#181818;stroke-width:0.5;" width="188.4805" x="966.95" y="1084.4883"/><a href="./Mazak-x-Xballscrew.html" target="_top" title="./Mazak-x-Xballscrew.html" xlink:actuate="onRequest" xlink:href="./Mazak-x-Xballscrew.html" xlink:show="new" xlink:title="./Mazak-x-Xballscrew.html" xlink:type="simple"><text fill="#0000FF" font-family="sans-serif" font-size="14" lengthAdjust="spacing" text-decoration="underline" textLength="174.4805" x="973.95" y="1100.0234">data:Mazak-x-Xballscrew</text></a><line style="stroke:#181818;stroke-width:0.5;" x1="967.95" x2="1154.4305" y1="1104.9766" y2="1104.9766"/><text fill="#000000" font-family="sans-serif" font-size="14" lengthAdjust="spacing" textLength="132.4668" x="972.95" y="1122.5117">type = ex:Ballscrew</text></g><g class="entity" data-entity="o21" data-source-line="64" data-uid="ent0022" id="entity_o21"><rect fill="#F1F1F1" height="44.9766" rx="2.5" ry="2.5" style="stroke:#181818;stroke-width:0.5;" width="233.8711" x="1562.33" y="1084.4883"/><text fill="#000000" font-family="sans-serif" font-size="14" lengthAdjust="spacing" textLength="219.8711" x="1569.33" y="1100.0234">data:Mazak-x-Xballscrew-name</text><line style="stroke:#181818;stroke-width:0.5;" x1="1563.33" x2="1795.2011" y1="1104.9766" y2="1104.9766"/><text fill="#000000" font-family="sans-serif" font-size="14" lengthAdjust="spacing" textLength="161.3691" x="1568.33" y="1122.5117">type = cmns-dsg:Name</text></g><g class="entity" data-entity="o22" data-source-line="67" data-uid="ent0023" id="entity_o22"><rect fill="#F1F1F1" height="44.9766" rx="2.5" ry="2.5" style="stroke:#181818;stroke-width:0.5;" width="166.4551" x="977.96" y="1164.4883"/><a href="./Mazak-x-Xmotor.html" target="_top" title="./Mazak-x-Xmotor.html" xlink:actuate="onRequest" xlink:href="./Mazak-x-Xmotor.html" xlink:show="new" xlink:title="./Mazak-x-Xmotor.html" xlink:type="simple"><text fill="#0000FF" font-family="sans-serif" font-size="14" lengthAdjust="spacing" text-decoration="underline" textLength="152.4551" x="984.96" y="1180.0234">data:Mazak-x-Xmotor</text></a><line style="stroke:#181818;stroke-width:0.5;" x1="978.96" x2="1143.4151" y1="1184.9766" y2="1184.9766"/><text fill="#000000" font-family="sans-serif" font-size="14" lengthAdjust="spacing" textLength="110.1885" x="983.96" y="1202.5117">type = ex:Motor</text></g><g class="entity" data-entity="o23" data-source-line="70" data-uid="ent0024" id="entity_o23"><rect fill="#F1F1F1" height="44.9766" rx="2.5" ry="2.5" style="stroke:#181818;stroke-width:0.5;" width="211.8457" x="1573.34" y="1164.4883"/><text fill="#000000" font-family="sans-serif" font-size="14" lengthAdjust="spacing" textLength="197.8457" x="1580.34" y="1180.0234">data:Mazak-x-Xmotor-name</text><line style="stroke:#181818;stroke-width:0.5;" x1="1574.34" x2="1784.1857" y1="1184.9766" y2="1184.9766"/><text fill="#000000" font-family="sans-serif" font-size="14" lengthAdjust="spacing" textLength="161.3691" x="1579.34" y="1202.5117">type = cmns-dsg:Name</text></g><g class="entity" data-entity="o24" data-source-line="73" data-uid="ent0025" id="entity_o24"><rect fill="#F1F1F1" height="44.9766" rx="2.5" ry="2.5" style="stroke:#181818;stroke-width:0.5;" width="138.1504" x="7" y="804.4883"/><a href="./Mazak.html" target="_top" title="./Mazak.html" xlink:actuate="onRequest" xlink:href="./Mazak.html" xlink:show="new" xlink:title="./Mazak.html" xlink:type="simple"><text fill="#0000FF" font-family="sans-serif" font-size="14" lengthAdjust="spacing" text-decoration="underline" textLength="77.6699" x="37.2402" y="820.0234">data:Mazak</text></a><line style="stroke:#181818;stroke-width:0.5;" x1="8" x2="144.1504" y1="824.9766" y2="824.9766"/><text fill="#000000" font-family="sans-serif" font-size="14" lengthAdjust="spacing" textLength="126.1504" x="13" y="842.5117">type = ex:Machine</text></g><!--link o1 to o2--><g class="link" data-entity-1="o1" data-entity-2="o2" data-source-line="76" data-uid="lnk26" id="link_o1_o2"><path codeLine="76" d="M548.5,804.0283 C579.16,725.5783 677.9,472.9783 677.9,472.9783 C677.9,472.9783 931.9,346.9783 931.9,346.9783 C931.9,346.9783 946.6507,341.4615 971.1507,332.2915" fill="none" id="o1-to-o2" style="stroke:#181818;stroke-width:1;"/><polygon fill="#181818" points="976.77,330.1883,966.9389,329.5969,972.0873,331.941,969.7432,337.0893,976.77,330.1883" style="stroke:#181818;stroke-width:1;"/><text fill="#000000" font-family="sans-serif" font-size="13" lengthAdjust="spacing" textLength="126.0771" x="726.9" y="359.1566">cmns-dsg:hasName</text></g><!--link o1 to o3--><g class="link" data-entity-1="o1" data-entity-2="o3" data-source-line="78" data-uid="lnk27" id="link_o1_o3"><path codeLine="78" d="M556.22,804.2983 C593.02,754.2983 677.9,638.9783 677.9,638.9783 C677.9,638.9783 926.4703,475.1203 1020.5803,413.0903" fill="none" id="o1-to-o3" style="stroke:#181818;stroke-width:1;"/><polygon fill="#181818" points="1025.59,409.7883,1015.8742,411.4015,1021.4153,412.5399,1020.2768,418.0811,1025.59,409.7883" style="stroke:#181818;stroke-width:1;"/><text fill="#000000" font-family="sans-serif" font-size="13" lengthAdjust="spacing" textLength="112.3027" x="733.9" y="494.4566">core:prescribedBy</text></g><!--link o3 to o4--><g class="link" data-entity-1="o3" data-entity-2="o4" data-source-line="79" data-uid="lnk28" id="link_o3_o4"><path codeLine="79" d="M1135.69,364.0583 C1164.36,355.1183 1190.47,346.9783 1190.47,346.9783 C1190.47,346.9783 1220.47,168.9783 1220.47,168.9783 C1220.47,168.9783 1477.47,106.9783 1477.47,106.9783 C1477.47,106.9783 1512.2855,100.0399 1557.0355,91.1299" fill="none" id="o3-to-o4" style="stroke:#181818;stroke-width:1;"/><polygon fill="#181818" points="1562.92,89.9583,1553.3122,87.7927,1558.0163,90.9346,1554.8744,95.6387,1562.92,89.9583" style="stroke:#181818;stroke-width:1;"/><text fill="#000000" font-family="sans-serif" font-size="13" lengthAdjust="spacing" textLength="225.0688" x="1221.47" y="111.2266">core:hasValueExpressionAtAllTimes</text></g><!--link o3 to o5--><g class="link" data-entity-1="o3" data-entity-2="o5" data-source-line="80" data-uid="lnk29" id="link_o3_o5"><path codeLine="80" d="M1135.69,364.0583 C1164.36,355.1183 1190.47,346.9783 1190.47,346.9783 C1190.47,346.9783 1220.47,246.9783 1220.47,246.9783 C1220.47,246.9783 1477.47,186.9783 1477.47,186.9783 C1477.47,186.9783 1512.2855,180.0399 1557.0355,171.1299" fill="none" id="o3-to-o5" style="stroke:#181818;stroke-width:1;"/><polygon fill="#181818" points="1562.92,169.9583,1553.3122,167.7927,1558.0163,170.9346,1554.8744,175.6387,1562.92,169.9583" style="stroke:#181818;stroke-width:1;"/><text fill="#000000" font-family="sans-serif" font-size="13" lengthAdjust="spacing" textLength="225.0688" x="1221.47" y="190.9866">core:hasValueExpressionAtAllTimes</text></g><!--link o3 to o6--><g class="link" data-entity-1="o3" data-entity-2="o6" data-source-line="81" data-uid="lnk30" id="link_o3_o6"><path codeLine="81" d="M1135.69,364.0583 C1164.36,355.1183 1190.47,346.9783 1190.47,346.9783 C1190.47,346.9783 1220.47,310.9783 1220.47,310.9783 C1220.47,310.9783 1411.7285,275.8911 1547.2685,251.0211" fill="none" id="o3-to-o6" style="stroke:#181818;stroke-width:1;"/><polygon fill="#181818" points="1553.17,249.9383,1543.5959,247.6282,1548.2521,250.8407,1545.0397,255.4969,1553.17,249.9383" style="stroke:#181818;stroke-width:1;"/><text fill="#000000" font-family="sans-serif" font-size="13" lengthAdjust="spacing" textLength="225.0688" x="1221.47" y="268.0666">core:hasValueExpressionAtAllTimes</text></g><!--link o3 to o7--><g class="link" data-entity-1="o3" data-entity-2="o7" data-source-line="82" data-uid="lnk31" id="link_o3_o7"><path codeLine="82" d="M1175.53,369.0783 C1200.91,365.0683 1220.47,361.9783 1220.47,361.9783 C1220.47,361.9783 1370.1128,344.0039 1499.8828,328.4139" fill="none" id="o3-to-o7" style="stroke:#181818;stroke-width:1;"/><polygon fill="#181818" points="1505.84,327.6983,1496.4271,324.8003,1500.8757,328.2947,1497.3814,332.7432,1505.84,327.6983" style="stroke:#181818;stroke-width:1;"/><text fill="#000000" font-family="sans-serif" font-size="13" lengthAdjust="spacing" textLength="225.0688" x="1221.47" y="332.6966">core:hasValueExpressionAtAllTimes</text></g><!--link o3 to o8--><g class="link" data-entity-1="o3" data-entity-2="o8" data-source-line="83" data-uid="lnk32" id="link_o3_o8"><path codeLine="83" d="M1175.54,386.9783 C1268.59,386.9783 1395.81,386.9783 1501.73,386.9783" fill="none" id="o3-to-o8" style="stroke:#181818;stroke-width:1;"/><polygon fill="#181818" points="1507.73,386.9783,1498.73,382.9783,1502.73,386.9783,1498.73,390.9783,1507.73,386.9783" style="stroke:#181818;stroke-width:1;"/><text fill="#000000" font-family="sans-serif" font-size="13" lengthAdjust="spacing" textLength="225.0688" x="1221.47" y="383.5466">core:hasValueExpressionAtAllTimes</text></g><!--link o3 to o9--><g class="link" data-entity-1="o3" data-entity-2="o9" data-source-line="84" data-uid="lnk33" id="link_o3_o9"><path codeLine="84" d="M1175.53,404.8783 C1200.91,408.8883 1220.47,411.9783 1220.47,411.9783 C1220.47,411.9783 1355.6129,428.2122 1481.1429,443.3022" fill="none" id="o3-to-o9" style="stroke:#181818;stroke-width:1;"/><polygon fill="#181818" points="1487.1,444.0183,1478.6417,438.9727,1482.1357,443.4215,1477.6869,446.9155,1487.1,444.0183" style="stroke:#181818;stroke-width:1;"/><text fill="#000000" font-family="sans-serif" font-size="13" lengthAdjust="spacing" textLength="225.0688" x="1221.47" y="408.5466">core:hasValueExpressionAtAllTimes</text></g><!--link o3 to o10--><g class="link" data-entity-1="o3" data-entity-2="o10" data-source-line="85" data-uid="lnk34" id="link_o3_o10"><path codeLine="85" d="M1109.68,409.7783 C1156.3,432.1683 1220.47,462.9783 1220.47,462.9783 C1220.47,462.9783 1411.7285,498.0754 1547.2685,522.9454" fill="none" id="o3-to-o10" style="stroke:#181818;stroke-width:1;"/><polygon fill="#181818" points="1553.17,524.0283,1545.0397,518.4697,1548.2521,523.1259,1543.5959,526.3383,1553.17,524.0283" style="stroke:#181818;stroke-width:1;"/><text fill="#000000" font-family="sans-serif" font-size="13" lengthAdjust="spacing" textLength="225.0688" x="1221.47" y="459.5466">core:hasValueExpressionAtAllTimes</text></g><!--link o1 to o11--><g class="link" data-entity-1="o1" data-entity-2="o11" data-source-line="86" data-uid="lnk35" id="link_o1_o11"><path codeLine="86" d="M566.87,804.2583 C607.19,770.7483 677.9,711.9783 677.9,711.9783 C677.9,711.9783 852.733,673.1106 965.663,648.0006" fill="none" id="o1-to-o11" style="stroke:#181818;stroke-width:1;"/><polygon fill="#181818" points="971.52,646.6983,961.8664,644.7471,966.6392,647.7835,963.6028,652.5564,971.52,646.6983" style="stroke:#181818;stroke-width:1;"/><text fill="#000000" font-family="sans-serif" font-size="13" lengthAdjust="spacing" textLength="74.7246" x="752.9" y="660.9566">ex:joinedTo</text></g><!--link o11 to o12--><g class="link" data-entity-1="o11" data-entity-2="o12" data-source-line="87" data-uid="lnk36" id="link_o11_o12"><path codeLine="87" d="M1150.78,626.9783 C1260.58,626.9783 1441.74,626.9783 1561.08,626.9783" fill="none" id="o11-to-o12" style="stroke:#181818;stroke-width:1;"/><polygon fill="#181818" points="1567.08,626.9783,1558.08,622.9783,1562.08,626.9783,1558.08,630.9783,1567.08,626.9783" style="stroke:#181818;stroke-width:1;"/><text fill="#000000" font-family="sans-serif" font-size="13" lengthAdjust="spacing" textLength="126.0771" x="1270.97" y="623.5466">cmns-dsg:hasName</text></g><!--link o11 to o13--><g class="link" data-entity-1="o11" data-entity-2="o13" data-source-line="88" data-uid="lnk37" id="link_o11_o13"><path codeLine="88" d="M1150.58,640.9383 C1186.84,646.6683 1220.47,651.9783 1220.47,651.9783 C1220.47,651.9783 1402.6828,673.8729 1537.7428,690.0929" fill="none" id="o11-to-o13" style="stroke:#181818;stroke-width:1;"/><polygon fill="#181818" points="1543.7,690.8083,1535.2412,685.7637,1538.7357,690.2121,1534.2873,693.7066,1543.7,690.8083" style="stroke:#181818;stroke-width:1;"/><text fill="#000000" font-family="sans-serif" font-size="13" lengthAdjust="spacing" textLength="171.3169" x="1248.47" y="648.5466">core:measuresAtSomeTime</text></g><!--link o1 to o14--><g class="link" data-entity-1="o1" data-entity-2="o14" data-source-line="89" data-uid="lnk38" id="link_o1_o14"><path codeLine="89" d="M600.62,804.0183 C637.69,790.0883 677.9,774.9783 677.9,774.9783 C677.9,774.9783 869.4827,740.899 980.5727,721.139" fill="none" id="o1-to-o14" style="stroke:#181818;stroke-width:1;"/><polygon fill="#181818" points="986.48,720.0883,976.9186,717.7262,981.5573,720.9639,978.3196,725.6026,986.48,720.0883" style="stroke:#181818;stroke-width:1;"/><text fill="#000000" font-family="sans-serif" font-size="13" lengthAdjust="spacing" textLength="74.7246" x="752.9" y="733.4766">ex:joinedTo</text></g><!--link o14 to o15--><g class="link" data-entity-1="o14" data-entity-2="o15" data-source-line="90" data-uid="lnk39" id="link_o14_o15"><path codeLine="90" d="M1135.89,716.5483 C1247.19,731.0083 1452.31,757.6357 1575.76,773.6657" fill="none" id="o14-to-o15" style="stroke:#181818;stroke-width:1;"/><polygon fill="#181818" points="1581.71,774.4383,1573.3,769.3127,1576.7516,773.7944,1572.2699,777.2461,1581.71,774.4383" style="stroke:#181818;stroke-width:1;"/><text fill="#000000" font-family="sans-serif" font-size="13" lengthAdjust="spacing" textLength="126.0771" x="1270.97" y="725.0066">cmns-dsg:hasName</text></g><!--link o1 to o16--><g class="link" data-entity-1="o1" data-entity-2="o16" data-source-line="91" data-uid="lnk40" id="link_o1_o16"><path codeLine="91" d="M648.36,818.6183 C730.93,812.2783 838.7176,803.9981 925.7576,797.3081" fill="none" id="o1-to-o16" style="stroke:#181818;stroke-width:1;"/><polygon fill="#181818" points="931.74,796.8483,922.4599,793.5498,926.7547,797.2315,923.073,801.5262,931.74,796.8483" style="stroke:#181818;stroke-width:1;"/><text fill="#000000" font-family="sans-serif" font-size="13" lengthAdjust="spacing" textLength="107.6309" x="736.4" y="796.4866">core:hasFunction</text></g><!--link o1 to o17--><g class="link" data-entity-1="o1" data-entity-2="o17" data-source-line="92" data-uid="lnk41" id="link_o1_o17"><path codeLine="92" d="M648.22,837.9783 C665.55,839.7283 677.9,840.9783 677.9,840.9783 C677.9,840.9783 831.6938,851.4413 944.6538,859.1213" fill="none" id="o1-to-o17" style="stroke:#181818;stroke-width:1;"/><polygon fill="#181818" points="950.64,859.5283,941.9321,854.927,945.6515,859.1891,941.3894,862.9086,950.64,859.5283" style="stroke:#181818;stroke-width:1;"/><text fill="#000000" font-family="sans-serif" font-size="13" lengthAdjust="spacing" textLength="171.3169" x="704.4" y="837.5466">core:measuresAtSomeTime</text></g><!--link o1 to o18--><g class="link" data-entity-1="o1" data-entity-2="o18" data-source-line="93" data-uid="lnk42" id="link_o1_o18"><path codeLine="93" d="M598.21,849.8783 C635.93,864.5983 677.9,880.9783 677.9,880.9783 C677.9,880.9783 854.7375,911.5071 967.5275,930.9871" fill="none" id="o1-to-o18" style="stroke:#181818;stroke-width:1;"/><polygon fill="#181818" points="973.44,932.0083,965.2521,926.5349,968.5129,931.1573,963.8905,934.4182,973.44,932.0083" style="stroke:#181818;stroke-width:1;"/><text fill="#000000" font-family="sans-serif" font-size="13" lengthAdjust="spacing" textLength="171.3169" x="704.4" y="877.5466">core:measuresAtSomeTime</text></g><!--link o1 to o19--><g class="link" data-entity-1="o1" data-entity-2="o19" data-source-line="94" data-uid="lnk43" id="link_o1_o19"><path codeLine="94" d="M566.87,849.8983 C607.19,883.7083 677.9,942.9783 677.9,942.9783 C677.9,942.9783 841.6198,978.9505 954.8798,1003.8405" fill="none" id="o1-to-o19" style="stroke:#181818;stroke-width:1;"/><polygon fill="#181818" points="960.74,1005.1283,952.8083,999.2898,955.8565,1004.0551,951.0912,1007.1033,960.74,1005.1283" style="stroke:#181818;stroke-width:1;"/><text fill="#000000" font-family="sans-serif" font-size="13" lengthAdjust="spacing" textLength="171.3169" x="704.4" y="939.5466">core:measuresAtSomeTime</text></g><!--link o1 to o20--><g class="link" data-entity-1="o1" data-entity-2="o20" data-source-line="95" data-uid="lnk44" id="link_o1_o20"><path codeLine="95" d="M556.22,849.6583 C593.02,899.6583 677.9,1014.9783 677.9,1014.9783 C677.9,1014.9783 847.6566,1055.8343 960.8366,1083.0743" fill="none" id="o1-to-o20" style="stroke:#181818;stroke-width:1;"/><polygon fill="#181818" points="966.67,1084.4783,958.8559,1078.4834,961.8088,1083.3083,956.9839,1086.2613,966.67,1084.4783" style="stroke:#181818;stroke-width:1;"/><text fill="#000000" font-family="sans-serif" font-size="13" lengthAdjust="spacing" textLength="222.5425" x="678.9" y="1011.5466">obo:has member part at some time</text></g><!--link o20 to o21--><g class="link" data-entity-1="o20" data-entity-2="o21" data-source-line="96" data-uid="lnk45" id="link_o20_o21"><path codeLine="96" d="M1155.76,1106.9783 C1264.57,1106.9783 1438.25,1106.9783 1555.95,1106.9783" fill="none" id="o20-to-o21" style="stroke:#181818;stroke-width:1;"/><polygon fill="#181818" points="1561.95,1106.9783,1552.95,1102.9783,1556.95,1106.9783,1552.95,1110.9783,1561.95,1106.9783" style="stroke:#181818;stroke-width:1;"/><text fill="#000000" font-family="sans-serif" font-size="13" lengthAdjust="spacing" textLength="126.0771" x="1270.97" y="1103.5466">cmns-dsg:hasName</text></g><!--link o1 to o22--><g class="link" data-entity-1="o1" data-entity-2="o22" data-source-line="97" data-uid="lnk46" id="link_o1_o22"><path codeLine="97" d="M551.32,849.5783 C584.79,913.6583 677.9,1091.9783 677.9,1091.9783 C677.9,1091.9783 859.5071,1137.1111 971.8871,1165.0411" fill="none" id="o1-to-o22" style="stroke:#181818;stroke-width:1;"/><polygon fill="#181818" points="977.71,1166.4883,969.9405,1160.4356,972.8576,1165.2823,968.0109,1168.1994,977.71,1166.4883" style="stroke:#181818;stroke-width:1;"/><text fill="#000000" font-family="sans-serif" font-size="13" lengthAdjust="spacing" textLength="222.5425" x="678.9" y="1088.5466">obo:has member part at some time</text></g><!--link o22 to o23--><g class="link" data-entity-1="o22" data-entity-2="o23" data-source-line="98" data-uid="lnk47" id="link_o22_o23"><path codeLine="98" d="M1144.63,1186.9783 C1255.21,1186.9783 1445.65,1186.9783 1566.85,1186.9783" fill="none" id="o22-to-o23" style="stroke:#181818;stroke-width:1;"/><polygon fill="#181818" points="1572.85,1186.9783,1563.85,1182.9783,1567.85,1186.9783,1563.85,1190.9783,1572.85,1186.9783" style="stroke:#181818;stroke-width:1;"/><text fill="#000000" font-family="sans-serif" font-size="13" lengthAdjust="spacing" textLength="126.0771" x="1270.97" y="1183.5466">cmns-dsg:hasName</text></g><!--link o24 to o1--><g class="link" data-entity-1="o24" data-entity-2="o1" data-source-line="99" data-uid="lnk48" id="link_o24_o1"><path codeLine="99" d="M145.51,826.9783 C220.29,826.9783 335.12,826.9783 422.89,826.9783" fill="none" id="o24-to-o1" style="stroke:#181818;stroke-width:1;"/><polygon fill="#181818" points="428.89,826.9783,419.89,822.9783,423.89,826.9783,419.89,830.9783,428.89,826.9783" style="stroke:#181818;stroke-width:1;"/><text fill="#000000" font-family="sans-serif" font-size="13" lengthAdjust="spacing" textLength="222.5425" x="176.15" y="823.5466">obo:has member part at some time</text></g><!--SRC=[hPPlJzim4CRVvrDOl0yZQKlRI9jKe30aKb1R8IQ49ZSzgC6ECzlLsatxxhEJD77_GRBr9NUFVtxEnrqgtqYSO84PeYG6jKm09PmkpHyEXMU554U2lCmKcX81aI8yTXHH5528V-4tT-7moQkEewF7n-DFUUnufXX5Kwnma4UUdeuGbeXxwBU3qbi-8rW4D_eQB49kiAEbLC0SzASWsW0tnWmoXcyn8XPBTofVWe5Expqh4uYoimtxB1SGN80aB_582yWpYN1QttiOzwO_k1f_TGUSaHZJZDhSfDvZEeV-8X4WvSV4wq6_D_n-UJiyxxiXNX0sPnctTK0kYKlkwNznx_itj-VNus_ki7TtVR7kk7rGiksvSnZotV3sQjWBm_w6yUxXyRPxxwG6lvmaY2FAvLm0sngfCbNCriPmZPIOHqehzdWl2TPmUNMdowBeyKr0O7Db3hF7xKSIZ4l1xdeNkYLokzOiNDJPh5TdTjgkiLLxWppFutJtvO3JTGTtGb-WTqUKRR9pdE09eKGjz_8IBecHkbWxNwqHhxt-N1T49XH7m21M7v9oHESV4DjzwzRjc_immPJAIC3FxUvPoLKF_PFr5pnR2VQQB1dsfy2hqiardumhBdPvJ1E5Ft_TNsYI-xsbPsrVZLg-DkqKBZR-qqCSpSo7sJ0yvBfVpCSmA2-OOPdUaKNDbj6H4M49jJPDkdWqxw5WD5Pg8ua4cS3qREdeS9fjMgoDfTLJFKh7X84irArQwjDQwdOjTQUMkbjBhTTv9Nd-m7ep1wP_hrntRphcZebacTtzAz95QnXWisHbJuqu0uClwSqjUZFFj7RJywpz-fVvWYkpxIfNTwg8kXL4ldbHFk762sB09Y2G_bsg45P8QZ5IgLhBChdtNcM-Nmtcv_B6xY5QlM85s5y0]--></g></svg>