<svg xmlns="http://www.w3.org/2000/svg" xmlns:xlink="http://www.w3.org/1999/xlink" contentStyleType="text/css" data-diagram-type="CLASS" height="795px" preserveAspectRatio="none" style="width:1197px;height:795px;background:#FFFFFF;" version="1.1" viewBox="0 0 1197 795" width="1197px" zoomAndPan="magnify"><defs/><g><g class="entity" data-entity="o1" data-source-line="3" data-uid="ent0002" id="entity_o1"><rect fill="#F1F1F1" height="44.9766" rx="2.5" ry="2.5" style="stroke:#181818;stroke-width:0.5;" width="218.7529" x="429.15" y="383.24"/><a href="./Mazak-y.html" target="_top" title="./Mazak-y.html" xlink:actuate="onRequest" xlink:href="./Mazak-y.html" xlink:show="new" xlink:title="./Mazak-y.html" xlink:type="simple"><text fill="#0000FF" font-family="sans-serif" font-size="14" lengthAdjust="spacing" text-decoration="underline" textLength="93.085" x="491.984" y="398.7752">data:Mazak-y</text></a><line style="stroke:#181818;stroke-width:0.5;" x1="430.15" x2="646.9029" y1="403.7283" y2="403.7283"/><text fill="#000000" font-family="sans-serif" font-size="14" lengthAdjust="spacing" textLength="206.7529" x="435.15" y="421.2634">type = ex:LinearMotionSystem</text></g><g class="entity" data-entity="o2" data-source-line="6" data-uid="ent0003" id="entity_o2"><rect fill="#F1F1F1" height="61.4648" rx="2.5" ry="2.5" style="stroke:#181818;stroke-width:0.5;" width="254.8535" x="933.76" y="7"/><text fill="#000000" font-family="sans-serif" font-size="14" lengthAdjust="spacing" textLength="138.4756" x="991.949" y="22.5352">data:Mazak-y-name</text><line style="stroke:#181818;stroke-width:0.5;" x1="934.76" x2="1187.6135" y1="27.4883" y2="27.4883"/><text fill="#000000" font-family="sans-serif" font-size="14" lengthAdjust="spacing" textLength="161.3691" x="939.76" y="45.0234">type = cmns-dsg:Name</text><text fill="#000000" font-family="sans-serif" font-size="14" lengthAdjust="spacing" textLength="242.8535" x="939.76" y="61.5117">core:hasSimpleExpressionValue = Y</text></g><g class="entity" data-entity="o3" data-source-line="9" data-uid="ent0004" id="entity_o3"><rect fill="#F1F1F1" height="44.9766" rx="2.5" ry="2.5" style="stroke:#181818;stroke-width:0.5;" width="227.8037" x="947.28" y="103.24"/><text fill="#000000" font-family="sans-serif" font-size="14" lengthAdjust="spacing" textLength="132.1045" x="995.1296" y="118.7752">data:Mazak-y-spec</text><line style="stroke:#181818;stroke-width:0.5;" x1="948.28" x2="1174.0837" y1="123.7283" y2="123.7283"/><text fill="#000000" font-family="sans-serif" font-size="14" lengthAdjust="spacing" textLength="215.8037" x="953.28" y="141.2634">type = core:DesignSpecification</text></g><g class="entity" data-entity="o4" data-source-line="12" data-uid="ent0005" id="entity_o4"><rect fill="#F1F1F1" height="44.9766" rx="2.5" ry="2.5" style="stroke:#181818;stroke-width:0.5;" width="148.9277" x="986.72" y="183.24"/><a href="./Mazak-xaxism.html" target="_top" title="./Mazak-xaxism.html" xlink:actuate="onRequest" xlink:href="./Mazak-xaxism.html" xlink:show="new" xlink:title="./Mazak-xaxism.html" xlink:type="simple"><text fill="#0000FF" font-family="sans-serif" font-size="14" lengthAdjust="spacing" text-decoration="underline" textLength="134.9277" x="993.72" y="198.7752">data:Mazak-xaxism</text></a><line style="stroke:#181818;stroke-width:0.5;" x1="987.72" x2="1134.6477" y1="203.7283" y2="203.7283"/><text fill="#000000" font-family="sans-serif" font-size="14" lengthAdjust="spacing" textLength="131.7832" x="992.72" y="221.2634">type = ex:Structure</text></g><g class="entity" data-entity="o5" data-source-line="15" data-uid="ent0006" id="entity_o5"><rect fill="#F1F1F1" height="44.9766" rx="2.5" ry="2.5" style="stroke:#181818;stroke-width:0.5;" width="147.6563" x="987.36" y="263.24"/><a href="./Mazak-yaxism.html" target="_top" title="./Mazak-yaxism.html" xlink:actuate="onRequest" xlink:href="./Mazak-yaxism.html" xlink:show="new" xlink:title="./Mazak-yaxism.html" xlink:type="simple"><text fill="#0000FF" font-family="sans-serif" font-size="14" lengthAdjust="spacing" text-decoration="underline" textLength="133.6563" x="994.36" y="278.7752">data:Mazak-yaxism</text></a><line style="stroke:#181818;stroke-width:0.5;" x1="988.36" x2="1134.0163" y1="283.7283" y2="283.7283"/><text fill="#000000" font-family="sans-serif" font-size="14" lengthAdjust="spacing" textLength="131.7832" x="993.36" y="301.2634">type = ex:Structure</text></g><g class="entity" data-entity="o6" data-source-line="18" data-uid="ent0007" id="entity_o6"><rect fill="#F1F1F1" height="44.9766" rx="2.5" ry="2.5" style="stroke:#181818;stroke-width:0.5;" width="258.5654" x="931.9" y="343.24"/><text fill="#000000" font-family="sans-serif" font-size="14" lengthAdjust="spacing" textLength="157.4521" x="982.4566" y="358.7752">data:Mazak-y-function</text><line style="stroke:#181818;stroke-width:0.5;" x1="932.9" x2="1189.4654" y1="363.7283" y2="363.7283"/><text fill="#000000" font-family="sans-serif" font-size="14" lengthAdjust="spacing" textLength="246.5654" x="937.9" y="381.2634">type = ex:PrismaticMotionCapability</text></g><g class="entity" data-entity="o7" data-source-line="21" data-uid="ent0008" id="entity_o7"><rect fill="#F1F1F1" height="44.9766" rx="2.5" ry="2.5" style="stroke:#181818;stroke-width:0.5;" width="219.0576" x="951.66" y="423.24"/><text fill="#000000" font-family="sans-serif" font-size="14" lengthAdjust="spacing" textLength="205.0576" x="958.66" y="438.7752">data:Mazak-y-position-actual</text><line style="stroke:#181818;stroke-width:0.5;" x1="952.66" x2="1169.7176" y1="443.7283" y2="443.7283"/><text fill="#000000" font-family="sans-serif" font-size="14" lengthAdjust="spacing" textLength="163.2285" x="957.66" y="461.2634">type = qp:Displacement</text></g><g class="entity" data-entity="o8" data-source-line="24" data-uid="ent0009" id="entity_o8"><rect fill="#F1F1F1" height="44.9766" rx="2.5" ry="2.5" style="stroke:#181818;stroke-width:0.5;" width="175.2285" x="973.57" y="503.24"/><text fill="#000000" font-family="sans-serif" font-size="14" lengthAdjust="spacing" textLength="156.3516" x="983.0085" y="518.7752">data:Mazak-y-position</text><line style="stroke:#181818;stroke-width:0.5;" x1="974.57" x2="1147.7985" y1="523.7283" y2="523.7283"/><text fill="#000000" font-family="sans-serif" font-size="14" lengthAdjust="spacing" textLength="163.2285" x="979.57" y="541.2634">type = qp:Displacement</text></g><g class="entity" data-entity="o9" data-source-line="27" data-uid="ent0010" id="entity_o9"><rect fill="#F1F1F1" height="44.9766" rx="2.5" ry="2.5" style="stroke:#181818;stroke-width:0.5;" width="198.8164" x="961.78" y="583.24"/><text fill="#000000" font-family="sans-serif" font-size="14" lengthAdjust="spacing" textLength="184.8164" x="968.78" y="598.7752">data:Mazak-y-temperature</text><line style="stroke:#181818;stroke-width:0.5;" x1="962.78" x2="1159.5964" y1="603.7283" y2="603.7283"/><text fill="#000000" font-family="sans-serif" font-size="14" lengthAdjust="spacing" textLength="158.4502" x="967.78" y="621.2634">type = qp:Temperature</text></g><g class="entity" data-entity="o10" data-source-line="30" data-uid="ent0011" id="entity_o10"><rect fill="#F1F1F1" height="44.9766" rx="2.5" ry="2.5" style="stroke:#181818;stroke-width:0.5;" width="187.168" x="967.6" y="663.24"/><a href="./Mazak-y-Yballscrew.html" target="_top" title="./Mazak-y-Yballscrew.html" xlink:actuate="onRequest" xlink:href="./Mazak-y-Yballscrew.html" xlink:show="new" xlink:title="./Mazak-y-Yballscrew.html" xlink:type="simple"><text fill="#0000FF" font-family="sans-serif" font-size="14" lengthAdjust="spacing" text-decoration="underline" textLength="173.168" x="974.6" y="678.7752">data:Mazak-y-Yballscrew</text></a><line style="stroke:#181818;stroke-width:0.5;" x1="968.6" x2="1153.768" y1="683.7283" y2="683.7283"/><text fill="#000000" font-family="sans-serif" font-size="14" lengthAdjust="spacing" textLength="132.4668" x="973.6" y="701.2634">type = ex:Ballscrew</text></g><g class="entity" data-entity="o11" data-source-line="33" data-uid="ent0012" id="entity_o11"><rect fill="#F1F1F1" height="44.9766" rx="2.5" ry="2.5" style="stroke:#181818;stroke-width:0.5;" width="165.1426" x="978.61" y="743.24"/><a href="./Mazak-y-Ymotor.html" target="_top" title="./Mazak-y-Ymotor.html" xlink:actuate="onRequest" xlink:href="./Mazak-y-Ymotor.html" xlink:show="new" xlink:title="./Mazak-y-Ymotor.html" xlink:type="simple"><text fill="#0000FF" font-family="sans-serif" font-size="14" lengthAdjust="spacing" text-decoration="underline" textLength="151.1426" x="985.61" y="758.7752">data:Mazak-y-Ymotor</text></a><line style="stroke:#181818;stroke-width:0.5;" x1="979.61" x2="1142.7526" y1="763.7283" y2="763.7283"/><text fill="#000000" font-family="sans-serif" font-size="14" lengthAdjust="spacing" textLength="110.1885" x="984.61" y="781.2634">type = ex:Motor</text></g><g class="entity" data-entity="o12" data-source-line="36" data-uid="ent0013" id="entity_o12"><rect fill="#F1F1F1" height="44.9766" rx="2.5" ry="2.5" style="stroke:#181818;stroke-width:0.5;" width="138.1504" x="7" y="383.24"/><a href="./Mazak.html" target="_top" title="./Mazak.html" xlink:actuate="onRequest" xlink:href="./Mazak.html" xlink:show="new" xlink:title="./Mazak.html" xlink:type="simple"><text fill="#0000FF" font-family="sans-serif" font-size="14" lengthAdjust="spacing" text-decoration="underline" textLength="77.6699" x="37.2402" y="398.7752">data:Mazak</text></a><line style="stroke:#181818;stroke-width:0.5;" x1="8" x2="144.1504" y1="403.7283" y2="403.7283"/><text fill="#000000" font-family="sans-serif" font-size="14" lengthAdjust="spacing" textLength="126.1504" x="13" y="421.2634">type = ex:Machine</text></g><!--link o1 to o2--><g class="link" data-entity-1="o1" data-entity-2="o2" data-source-line="39" data-uid="lnk14" id="link_o1_o2"><path codeLine="39" d="M551.32,383.14 C584.79,319.05 677.9,140.73 677.9,140.73 C677.9,140.73 826.1467,100.7912 938.6567,70.4712" fill="none" id="o1-to-o2" style="stroke:#181818;stroke-width:1;"/><polygon fill="#181818" points="944.45,68.91,934.7192,67.3896,939.6222,70.211,936.8008,75.1141,944.45,68.91" style="stroke:#181818;stroke-width:1;"/><text fill="#000000" font-family="sans-serif" font-size="13" lengthAdjust="spacing" textLength="126.0771" x="726.9" y="79.6284">cmns-dsg:hasName</text></g><!--link o1 to o3--><g class="link" data-entity-1="o1" data-entity-2="o3" data-source-line="41" data-uid="lnk15" id="link_o1_o3"><path codeLine="41" d="M556.22,383.05 C593.02,333.05 677.9,217.73 677.9,217.73 C677.9,217.73 845.6466,177.3639 958.8766,150.1139" fill="none" id="o1-to-o3" style="stroke:#181818;stroke-width:1;"/><polygon fill="#181818" points="964.71,148.71,955.0239,146.9269,959.8488,149.8799,956.8957,154.7048,964.71,148.71" style="stroke:#181818;stroke-width:1;"/><text fill="#000000" font-family="sans-serif" font-size="13" lengthAdjust="spacing" textLength="112.3027" x="733.9" y="162.7884">core:prescribedBy</text></g><!--link o1 to o4--><g class="link" data-entity-1="o1" data-entity-2="o4" data-source-line="42" data-uid="lnk16" id="link_o1_o4"><path codeLine="42" d="M566.87,383.01 C607.19,349.5 677.9,290.73 677.9,290.73 C677.9,290.73 869.533,248.1223 980.623,223.4223" fill="none" id="o1-to-o4" style="stroke:#181818;stroke-width:1;"/><polygon fill="#181818" points="986.48,222.12,976.8264,220.1687,981.5992,223.2052,978.5627,227.978,986.48,222.12" style="stroke:#181818;stroke-width:1;"/><text fill="#000000" font-family="sans-serif" font-size="13" lengthAdjust="spacing" textLength="74.7246" x="752.9" y="239.7084">ex:joinedTo</text></g><!--link o1 to o5--><g class="link" data-entity-1="o1" data-entity-2="o5" data-source-line="43" data-uid="lnk17" id="link_o1_o5"><path codeLine="43" d="M600.62,382.77 C637.69,368.84 677.9,353.73 677.9,353.73 C677.9,353.73 870.0228,319.5611 981.0228,299.8111" fill="none" id="o1-to-o5" style="stroke:#181818;stroke-width:1;"/><polygon fill="#181818" points="986.93,298.76,977.3685,296.3984,982.0073,299.6359,978.7699,304.2747,986.93,298.76" style="stroke:#181818;stroke-width:1;"/><text fill="#000000" font-family="sans-serif" font-size="13" lengthAdjust="spacing" textLength="74.7246" x="752.9" y="312.2284">ex:joinedTo</text></g><!--link o1 to o6--><g class="link" data-entity-1="o1" data-entity-2="o6" data-source-line="44" data-uid="lnk18" id="link_o1_o6"><path codeLine="44" d="M648.36,397.37 C730.93,391.03 838.7176,382.7498 925.7576,376.0598" fill="none" id="o1-to-o6" style="stroke:#181818;stroke-width:1;"/><polygon fill="#181818" points="931.74,375.6,922.4599,372.3015,926.7547,375.9832,923.073,380.278,931.74,375.6" style="stroke:#181818;stroke-width:1;"/><text fill="#000000" font-family="sans-serif" font-size="13" lengthAdjust="spacing" textLength="107.6309" x="736.4" y="375.2384">core:hasFunction</text></g><!--link o1 to o7--><g class="link" data-entity-1="o1" data-entity-2="o7" data-source-line="45" data-uid="lnk19" id="link_o1_o7"><path codeLine="45" d="M648.22,416.73 C665.55,418.48 677.9,419.73 677.9,419.73 C677.9,419.73 832.4138,430.2432 945.4238,437.9232" fill="none" id="o1-to-o7" style="stroke:#181818;stroke-width:1;"/><polygon fill="#181818" points="951.41,438.33,942.7019,433.729,946.4215,437.991,942.1595,441.7106,951.41,438.33" style="stroke:#181818;stroke-width:1;"/><text fill="#000000" font-family="sans-serif" font-size="13" lengthAdjust="spacing" textLength="171.3169" x="704.4" y="416.2984">core:measuresAtSomeTime</text></g><!--link o1 to o8--><g class="link" data-entity-1="o1" data-entity-2="o8" data-source-line="46" data-uid="lnk20" id="link_o1_o8"><path codeLine="46" d="M598.21,428.63 C635.93,443.35 677.9,459.73 677.9,459.73 C677.9,459.73 854.7375,490.2589 967.5275,509.7389" fill="none" id="o1-to-o8" style="stroke:#181818;stroke-width:1;"/><polygon fill="#181818" points="973.44,510.76,965.2521,505.2866,968.5129,509.909,963.8905,513.1699,973.44,510.76" style="stroke:#181818;stroke-width:1;"/><text fill="#000000" font-family="sans-serif" font-size="13" lengthAdjust="spacing" textLength="171.3169" x="704.4" y="456.2984">core:measuresAtSomeTime</text></g><!--link o1 to o9--><g class="link" data-entity-1="o1" data-entity-2="o9" data-source-line="47" data-uid="lnk21" id="link_o1_o9"><path codeLine="47" d="M566.87,428.65 C607.19,462.46 677.9,521.73 677.9,521.73 C677.9,521.73 842.6098,557.9223 955.8798,582.8123" fill="none" id="o1-to-o9" style="stroke:#181818;stroke-width:1;"/><polygon fill="#181818" points="961.74,584.1,953.8082,578.2616,956.8565,583.0269,952.0912,586.0752,961.74,584.1" style="stroke:#181818;stroke-width:1;"/><text fill="#000000" font-family="sans-serif" font-size="13" lengthAdjust="spacing" textLength="171.3169" x="704.4" y="518.2984">core:measuresAtSomeTime</text></g><!--link o1 to o10--><g class="link" data-entity-1="o1" data-entity-2="o10" data-source-line="48" data-uid="lnk22" id="link_o1_o10"><path codeLine="48" d="M556.22,428.41 C593.02,478.41 677.9,593.73 677.9,593.73 C677.9,593.73 848.1665,634.7063 961.3265,661.9363" fill="none" id="o1-to-o10" style="stroke:#181818;stroke-width:1;"/><polygon fill="#181818" points="967.16,663.34,959.3456,657.3454,962.2988,662.1702,957.474,665.1234,967.16,663.34" style="stroke:#181818;stroke-width:1;"/><text fill="#000000" font-family="sans-serif" font-size="13" lengthAdjust="spacing" textLength="222.5425" x="678.9" y="590.2984">obo:has member part at some time</text></g><!--link o1 to o11--><g class="link" data-entity-1="o1" data-entity-2="o11" data-source-line="49" data-uid="lnk23" id="link_o1_o11"><path codeLine="49" d="M551.32,428.33 C584.79,492.41 677.9,670.73 677.9,670.73 C677.9,670.73 860.027,715.9932 972.357,743.9032" fill="none" id="o1-to-o11" style="stroke:#181818;stroke-width:1;"/><polygon fill="#181818" points="978.18,745.35,970.4101,739.2978,973.3275,744.1443,968.481,747.0618,978.18,745.35" style="stroke:#181818;stroke-width:1;"/><text fill="#000000" font-family="sans-serif" font-size="13" lengthAdjust="spacing" textLength="222.5425" x="678.9" y="667.2984">obo:has member part at some time</text></g><!--link o12 to o1--><g class="link" data-entity-1="o12" data-entity-2="o1" data-source-line="50" data-uid="lnk24" id="link_o12_o1"><path codeLine="50" d="M145.51,405.73 C220.29,405.73 335.12,405.73 422.89,405.73" fill="none" id="o12-to-o1" style="stroke:#181818;stroke-width:1;"/><polygon fill="#181818" points="428.89,405.73,419.89,401.73,423.89,405.73,419.89,409.73,428.89,405.73" style="stroke:#181818;stroke-width:1;"/><text fill="#000000" font-family="sans-serif" font-size="13" lengthAdjust="spacing" textLength="222.5425" x="176.15" y="402.2984">obo:has member part at some time</text></g><!--SRC=[dPHDRzim38Rl-HL4xswNzDl01hJhTcgA0Gu654KFjCmaQYLBanGqth3_FibA73kDCQCtc-_BHwP8shxoKgD12OANv2fDe9Memij8qDo1Ks3uOkcWu8QOuweSgVp5Fy7HqzFnoHH_usjI7I-T552WmtGJUNu-0hIWnl1d13NtCz0wlVTWD5CLG5bb7SaH_6s8RK1IegJ8cBGOJ9OsAUmYVV1oRwxLn6BkQJjN6KhloF95cNa3dtE6TKKjpAweDQwvbUygY-5jUMVTyZ9dLioj31r6LeUHLGTvFW3PANQ-Akl6nFIBRleFuz6-IXRl_2jgpBdWhkh5QMLvi2ReZqKHgPSjwY-Ttd6h1JAILBh_WYBXwWC4FnwQ38Rg8-Iw2vdjz9uBJnvp5C8oGs_lhxqbDkFwgNjzjrj3BrygfymXTYqqtBqzc0Rn87CVrH0cUmHaox2bWJ669FaIzYJTxSSIRRqYCHectqSoBhMWRsjjo5hVcfyeLe7ts31Ej-vWOORdLDnMZNhcLN_sY_8d5pFLnCzxuXUjixzlnhGHBxUY9BI-XVR6PKhIZ8UltdYk1dYk1tXyNrDGkGeV0f9aJWRyVyy1Eh3U3AxZ7WzpJpRs0Uv_]--></g></svg>