<svg xmlns="http://www.w3.org/2000/svg" xmlns:xlink="http://www.w3.org/1999/xlink" contentStyleType="text/css" data-diagram-type="CLASS" height="635px" preserveAspectRatio="none" style="width:1195px;height:635px;background:#FFFFFF;" version="1.1" viewBox="0 0 1195 635" width="1195px" zoomAndPan="magnify"><defs/><g><g class="entity" data-entity="o1" data-source-line="3" data-uid="ent0002" id="entity_o1"><rect fill="#F1F1F1" height="44.9766" rx="2.5" ry="2.5" style="stroke:#181818;stroke-width:0.5;" width="220.7559" x="429.15" y="303.24"/><a href="./Mazak-br.html" target="_top" title="./Mazak-br.html" xlink:actuate="onRequest" xlink:href="./Mazak-br.html" xlink:show="new" xlink:title="./Mazak-br.html" xlink:type="simple"><text fill="#0000FF" font-family="sans-serif" font-size="14" lengthAdjust="spacing" text-decoration="underline" textLength="100.3105" x="489.3727" y="318.7752">data:Mazak-br</text></a><line style="stroke:#181818;stroke-width:0.5;" x1="430.15" x2="648.9059" y1="323.7283" y2="323.7283"/><text fill="#000000" font-family="sans-serif" font-size="14" lengthAdjust="spacing" textLength="208.7559" x="435.15" y="341.2634">type = ex:RotaryMotionSystem</text></g><g class="entity" data-entity="o2" data-source-line="6" data-uid="ent0003" id="entity_o2"><rect fill="#F1F1F1" height="61.4648" rx="2.5" ry="2.5" style="stroke:#181818;stroke-width:0.5;" width="254.1836" x="934.28" y="7"/><text fill="#000000" font-family="sans-serif" font-size="14" lengthAdjust="spacing" textLength="145.7012" x="988.5212" y="22.5352">data:Mazak-br-name</text><line style="stroke:#181818;stroke-width:0.5;" x1="935.28" x2="1187.4636" y1="27.4883" y2="27.4883"/><text fill="#000000" font-family="sans-serif" font-size="14" lengthAdjust="spacing" textLength="161.3691" x="940.28" y="45.0234">type = cmns-dsg:Name</text><text fill="#000000" font-family="sans-serif" font-size="14" lengthAdjust="spacing" textLength="242.1836" x="940.28" y="61.5117">core:hasSimpleExpressionValue = B</text></g><g class="entity" data-entity="o3" data-source-line="9" data-uid="ent0004" id="entity_o3"><rect fill="#F1F1F1" height="44.9766" rx="2.5" ry="2.5" style="stroke:#181818;stroke-width:0.5;" width="227.8037" x="947.47" y="103.24"/><text fill="#000000" font-family="sans-serif" font-size="14" lengthAdjust="spacing" textLength="139.3301" x="991.7068" y="118.7752">data:Mazak-br-spec</text><line style="stroke:#181818;stroke-width:0.5;" x1="948.47" x2="1174.2737" y1="123.7283" y2="123.7283"/><text fill="#000000" font-family="sans-serif" font-size="14" lengthAdjust="spacing" textLength="215.8037" x="953.47" y="141.2634">type = core:DesignSpecification</text></g><g class="entity" data-entity="o4" data-source-line="12" data-uid="ent0005" id="entity_o4"><rect fill="#F1F1F1" height="44.9766" rx="2.5" ry="2.5" style="stroke:#181818;stroke-width:0.5;" width="178.5" x="972.12" y="183.24"/><a href="./Mazak-enclosurem.html" target="_top" title="./Mazak-enclosurem.html" xlink:actuate="onRequest" xlink:href="./Mazak-enclosurem.html" xlink:show="new" xlink:title="./Mazak-enclosurem.html" xlink:type="simple"><text fill="#0000FF" font-family="sans-serif" font-size="14" lengthAdjust="spacing" text-decoration="underline" textLength="164.5" x="979.12" y="198.7752">data:Mazak-enclosurem</text></a><line style="stroke:#181818;stroke-width:0.5;" x1="973.12" x2="1149.62" y1="203.7283" y2="203.7283"/><text fill="#000000" font-family="sans-serif" font-size="14" lengthAdjust="spacing" textLength="131.7832" x="978.12" y="221.2634">type = ex:Structure</text></g><g class="entity" data-entity="o5" data-source-line="15" data-uid="ent0006" id="entity_o5"><rect fill="#F1F1F1" height="44.9766" rx="2.5" ry="2.5" style="stroke:#181818;stroke-width:0.5;" width="148.7705" x="986.99" y="263.24"/><a href="./Mazak-trundle.html" target="_top" title="./Mazak-trundle.html" xlink:actuate="onRequest" xlink:href="./Mazak-trundle.html" xlink:show="new" xlink:title="./Mazak-trundle.html" xlink:type="simple"><text fill="#0000FF" font-family="sans-serif" font-size="14" lengthAdjust="spacing" text-decoration="underline" textLength="134.7705" x="993.99" y="278.7752">data:Mazak-trundle</text></a><line style="stroke:#181818;stroke-width:0.5;" x1="987.99" x2="1134.7605" y1="283.7283" y2="283.7283"/><text fill="#000000" font-family="sans-serif" font-size="14" lengthAdjust="spacing" textLength="131.7832" x="992.99" y="301.2634">type = ex:Structure</text></g><g class="entity" data-entity="o6" data-source-line="18" data-uid="ent0007" id="entity_o6"><rect fill="#F1F1F1" height="44.9766" rx="2.5" ry="2.5" style="stroke:#181818;stroke-width:0.5;" width="254.9287" x="933.91" y="343.24"/><text fill="#000000" font-family="sans-serif" font-size="14" lengthAdjust="spacing" textLength="164.6777" x="979.0355" y="358.7752">data:Mazak-br-function</text><line style="stroke:#181818;stroke-width:0.5;" x1="934.91" x2="1187.8387" y1="363.7283" y2="363.7283"/><text fill="#000000" font-family="sans-serif" font-size="14" lengthAdjust="spacing" textLength="242.9287" x="939.91" y="381.2634">type = ex:RevoluteMotionCapability</text></g><g class="entity" data-entity="o7" data-source-line="21" data-uid="ent0008" id="entity_o7"><rect fill="#F1F1F1" height="44.9766" rx="2.5" ry="2.5" style="stroke:#181818;stroke-width:0.5;" width="159.4072" x="981.67" y="423.24"/><text fill="#000000" font-family="sans-serif" font-size="14" lengthAdjust="spacing" textLength="145.4072" x="988.67" y="438.7752">data:Mazak-br-angle</text><line style="stroke:#181818;stroke-width:0.5;" x1="982.67" x2="1140.0772" y1="443.7283" y2="443.7283"/><text fill="#000000" font-family="sans-serif" font-size="14" lengthAdjust="spacing" textLength="110.127" x="987.67" y="461.2634">type = qp:Angle</text></g><g class="entity" data-entity="o8" data-source-line="24" data-uid="ent0009" id="entity_o8"><rect fill="#F1F1F1" height="44.9766" rx="2.5" ry="2.5" style="stroke:#181818;stroke-width:0.5;" width="208.1133" x="957.31" y="503.24"/><text fill="#000000" font-family="sans-serif" font-size="14" lengthAdjust="spacing" textLength="194.1133" x="964.31" y="518.7752">data:Mazak-br-angle-actual</text><line style="stroke:#181818;stroke-width:0.5;" x1="958.31" x2="1164.4233" y1="523.7283" y2="523.7283"/><text fill="#000000" font-family="sans-serif" font-size="14" lengthAdjust="spacing" textLength="110.127" x="963.31" y="541.2634">type = qp:Angle</text></g><g class="entity" data-entity="o9" data-source-line="27" data-uid="ent0010" id="entity_o9"><rect fill="#F1F1F1" height="44.9766" rx="2.5" ry="2.5" style="stroke:#181818;stroke-width:0.5;" width="171.6982" x="975.52" y="583.24"/><a href="./Mazak-br-Bmotor.html" target="_top" title="./Mazak-br-Bmotor.html" xlink:actuate="onRequest" xlink:href="./Mazak-br-Bmotor.html" xlink:show="new" xlink:title="./Mazak-br-Bmotor.html" xlink:type="simple"><text fill="#0000FF" font-family="sans-serif" font-size="14" lengthAdjust="spacing" text-decoration="underline" textLength="157.6982" x="982.52" y="598.7752">data:Mazak-br-Bmotor</text></a><line style="stroke:#181818;stroke-width:0.5;" x1="976.52" x2="1146.2182" y1="603.7283" y2="603.7283"/><text fill="#000000" font-family="sans-serif" font-size="14" lengthAdjust="spacing" textLength="110.1885" x="981.52" y="621.2634">type = ex:Motor</text></g><g class="entity" data-entity="o10" data-source-line="30" data-uid="ent0011" id="entity_o10"><rect fill="#F1F1F1" height="44.9766" rx="2.5" ry="2.5" style="stroke:#181818;stroke-width:0.5;" width="138.1504" x="7" y="303.24"/><a href="./Mazak.html" target="_top" title="./Mazak.html" xlink:actuate="onRequest" xlink:href="./Mazak.html" xlink:show="new" xlink:title="./Mazak.html" xlink:type="simple"><text fill="#0000FF" font-family="sans-serif" font-size="14" lengthAdjust="spacing" text-decoration="underline" textLength="77.6699" x="37.2402" y="318.7752">data:Mazak</text></a><line style="stroke:#181818;stroke-width:0.5;" x1="8" x2="144.1504" y1="323.7283" y2="323.7283"/><text fill="#000000" font-family="sans-serif" font-size="14" lengthAdjust="spacing" textLength="126.1504" x="13" y="341.2634">type = ex:Machine</text></g><!--link o1 to o2--><g class="link" data-entity-1="o1" data-entity-2="o2" data-source-line="33" data-uid="lnk12" id="link_o1_o2"><path codeLine="33" d="M557.34,303.05 C594.41,253.05 679.91,137.73 679.91,137.73 C679.91,137.73 824.1171,99.8252 935.7471,70.4852" fill="none" id="o1-to-o2" style="stroke:#181818;stroke-width:1;"/><polygon fill="#181818" points="941.55,68.96,931.8288,67.3792,936.7142,70.231,933.8624,75.1164,941.55,68.96" style="stroke:#181818;stroke-width:1;"/><text fill="#000000" font-family="sans-serif" font-size="13" lengthAdjust="spacing" textLength="126.0771" x="728.91" y="78.3084">cmns-dsg:hasName</text></g><!--link o1 to o3--><g class="link" data-entity-1="o1" data-entity-2="o3" data-source-line="35" data-uid="lnk13" id="link_o1_o3"><path codeLine="35" d="M568.06,303.01 C608.68,269.5 679.91,210.73 679.91,210.73 C679.91,210.73 839.1243,175.158 951.8043,149.988" fill="none" id="o1-to-o3" style="stroke:#181818;stroke-width:1;"/><polygon fill="#181818" points="957.66,148.68,948.0045,146.7382,952.7803,149.77,949.7485,154.5458,957.66,148.68" style="stroke:#181818;stroke-width:1;"/><text fill="#000000" font-family="sans-serif" font-size="13" lengthAdjust="spacing" textLength="112.3027" x="735.91" y="159.7084">core:prescribedBy</text></g><!--link o1 to o4--><g class="link" data-entity-1="o1" data-entity-2="o4" data-source-line="36" data-uid="lnk14" id="link_o1_o4"><path codeLine="36" d="M602.07,302.77 C639.4,288.84 679.91,273.73 679.91,273.73 C679.91,273.73 853.3136,242.7354 965.7436,222.6454" fill="none" id="o1-to-o4" style="stroke:#181818;stroke-width:1;"/><polygon fill="#181818" points="971.65,221.59,962.0867,219.2355,966.728,222.4695,963.4939,227.1108,971.65,221.59" style="stroke:#181818;stroke-width:1;"/><text fill="#000000" font-family="sans-serif" font-size="13" lengthAdjust="spacing" textLength="74.7246" x="754.91" y="232.2284">ex:joinedTo</text></g><!--link o1 to o5--><g class="link" data-entity-1="o1" data-entity-2="o5" data-source-line="37" data-uid="lnk15" id="link_o1_o5"><path codeLine="37" d="M650.14,317.3 C751.27,309.52 892.6777,298.6404 980.5077,291.8804" fill="none" id="o1-to-o5" style="stroke:#181818;stroke-width:1;"/><polygon fill="#181818" points="986.49,291.42,977.2096,288.1225,981.5047,291.8037,977.8235,296.0989,986.49,291.42" style="stroke:#181818;stroke-width:1;"/><text fill="#000000" font-family="sans-serif" font-size="13" lengthAdjust="spacing" textLength="74.7246" x="754.91" y="295.2384">ex:joinedTo</text></g><!--link o1 to o6--><g class="link" data-entity-1="o1" data-entity-2="o6" data-source-line="38" data-uid="lnk16" id="link_o1_o6"><path codeLine="38" d="M650.35,336.76 C667.62,338.5 679.91,339.73 679.91,339.73 C679.91,339.73 816.794,349.091 927.434,356.651" fill="none" id="o1-to-o6" style="stroke:#181818;stroke-width:1;"/><polygon fill="#181818" points="933.42,357.06,924.7136,352.4558,928.4316,356.7191,924.1683,360.4372,933.42,357.06" style="stroke:#181818;stroke-width:1;"/><text fill="#000000" font-family="sans-serif" font-size="13" lengthAdjust="spacing" textLength="107.6309" x="738.41" y="336.2984">core:hasFunction</text></g><!--link o1 to o7--><g class="link" data-entity-1="o1" data-entity-2="o7" data-source-line="39" data-uid="lnk17" id="link_o1_o7"><path codeLine="39" d="M599.64,348.63 C637.62,363.35 679.91,379.73 679.91,379.73 C679.91,379.73 864.1884,411.6941 975.6284,431.0341" fill="none" id="o1-to-o7" style="stroke:#181818;stroke-width:1;"/><polygon fill="#181818" points="981.54,432.06,973.3565,426.58,976.6136,431.205,971.9886,434.4622,981.54,432.06" style="stroke:#181818;stroke-width:1;"/><text fill="#000000" font-family="sans-serif" font-size="13" lengthAdjust="spacing" textLength="171.3169" x="706.41" y="376.2984">core:measuresAtSomeTime</text></g><!--link o1 to o8--><g class="link" data-entity-1="o1" data-entity-2="o8" data-source-line="40" data-uid="lnk18" id="link_o1_o8"><path codeLine="40" d="M568.06,348.65 C608.68,382.46 679.91,441.73 679.91,441.73 C679.91,441.73 838.3911,476.7266 951.0511,501.5966" fill="none" id="o1-to-o8" style="stroke:#181818;stroke-width:1;"/><polygon fill="#181818" points="956.91,502.89,948.9838,497.044,952.0276,501.8122,947.2593,504.8559,956.91,502.89" style="stroke:#181818;stroke-width:1;"/><text fill="#000000" font-family="sans-serif" font-size="13" lengthAdjust="spacing" textLength="171.3169" x="706.41" y="438.2984">core:measuresAtSomeTime</text></g><!--link o1 to o9--><g class="link" data-entity-1="o1" data-entity-2="o9" data-source-line="41" data-uid="lnk19" id="link_o1_o9"><path codeLine="41" d="M557.34,348.41 C594.41,398.41 679.91,513.73 679.91,513.73 C679.91,513.73 857.498,556.68 969.628,583.79" fill="none" id="o1-to-o9" style="stroke:#181818;stroke-width:1;"/><polygon fill="#181818" points="975.46,585.2,967.6521,579.197,970.6,584.025,965.772,586.973,975.46,585.2" style="stroke:#181818;stroke-width:1;"/><text fill="#000000" font-family="sans-serif" font-size="13" lengthAdjust="spacing" textLength="222.5425" x="680.91" y="510.2984">obo:has member part at some time</text></g><!--link o10 to o1--><g class="link" data-entity-1="o10" data-entity-2="o1" data-source-line="42" data-uid="lnk20" id="link_o10_o1"><path codeLine="42" d="M145.16,325.73 C219.87,325.73 334.87,325.73 422.97,325.73" fill="none" id="o10-to-o1" style="stroke:#181818;stroke-width:1;"/><polygon fill="#181818" points="428.97,325.73,419.97,321.73,423.97,325.73,419.97,329.73,428.97,325.73" style="stroke:#181818;stroke-width:1;"/><text fill="#000000" font-family="sans-serif" font-size="13" lengthAdjust="spacing" textLength="222.5425" x="176.15" y="322.2984">obo:has member part at some time</text></g><!--SRC=[ZPJBRjim44Nt_ef1zahZvYqW1U8-TkwY2he9iXX9Ovi9oL79KH6rwB-Nj1wM7HlnJffxvuo6l91_KRP2XmQqiYHDHL2nRkBBHDD2G1YSMgu4IkMe4CLsmlbpU8AJnyVJ3tFyWoz9xavNOZIKA9ZsfQUd4q0FF8M_4rYJxu1Uqnyiw9evHrJMU24pWNy3SukGM3JKGZwE88MnFYdzClqUvCFDlgAYRJuVDxEZz0jvjRHPCAY5Ad2zrOYpMOnieTdNZioR1JTIl-Z5zgAPkBgGODYF3gejDRtXTlKUUda4T7llHMtNzzJsN-sSFlrcNGkrv_yPAyoLLj8Sng5TwkuIhaUiNrLw7vLt6XCCNukwxRzvftySg6HcM7XVhZgbFw3RxGNdKTiBtKKD-JpR8M2nYl6FZ2aaoQUOldIJkXNwTV3QQenJg6JAL9g-lbQEl0yd-nDr7NcpWN7UkwEbS2gdSjOCwaLGm-nd3fFB1nxgbmVgLwFPtxeB7yJhNZI4CQ7-NZ8szA3YLtUUcoCyjy73ESSPOCZav23yAmHGm0SlI6i-QztJ8zp_0G00]--></g></svg>