<svg xmlns="http://www.w3.org/2000/svg" xmlns:xlink="http://www.w3.org/1999/xlink" contentStyleType="text/css" data-diagram-type="CLASS" height="896px" preserveAspectRatio="none" style="width:1794px;height:896px;background:#FFFFFF;" version="1.1" viewBox="0 0 1794 896" width="1794px" zoomAndPan="magnify"><title>Mazak-br</title><defs/><g><text fill="#000000" font-family="sans-serif" font-size="14" font-weight="bold" lengthAdjust="spacing" textLength="70.8818" x="854.8691" y="23.5352">Mazak-br</text><g class="entity" data-entity="o1" data-source-line="4" data-uid="ent0002" id="entity_o1"><rect fill="#F1F1F1" height="44.9766" rx="2.5" ry="2.5" style="stroke:#181818;stroke-width:0.5;" width="220.7559" x="429.15" y="556.7283"/><a href="./Mazak-br.html" target="_top" title="./Mazak-br.html" xlink:actuate="onRequest" xlink:href="./Mazak-br.html" xlink:show="new" xlink:title="./Mazak-br.html" xlink:type="simple"><text fill="#0000FF" font-family="sans-serif" font-size="14" lengthAdjust="spacing" text-decoration="underline" textLength="100.3105" x="489.3727" y="572.2634">data:Mazak-br</text></a><line style="stroke:#181818;stroke-width:0.5;" x1="430.15" x2="648.9059" y1="577.2166" y2="577.2166"/><text fill="#000000" font-family="sans-serif" font-size="14" lengthAdjust="spacing" textLength="208.7559" x="435.15" y="594.7517">type = ex:RotaryMotionSystem</text></g><g class="entity" data-entity="o2" data-source-line="7" data-uid="ent0003" id="entity_o2"><rect fill="#F1F1F1" height="61.4648" rx="2.5" ry="2.5" style="stroke:#181818;stroke-width:0.5;" width="254.1836" x="934.28" y="186.4883"/><text fill="#000000" font-family="sans-serif" font-size="14" lengthAdjust="spacing" textLength="145.7012" x="988.5212" y="202.0234">data:Mazak-br-name</text><line style="stroke:#181818;stroke-width:0.5;" x1="935.28" x2="1187.4636" y1="206.9766" y2="206.9766"/><text fill="#000000" font-family="sans-serif" font-size="14" lengthAdjust="spacing" textLength="161.3691" x="940.28" y="224.5117">type = cmns-dsg:Name</text><text fill="#000000" font-family="sans-serif" font-size="14" lengthAdjust="spacing" textLength="242.1836" x="940.28" y="241">core:hasSimpleExpressionValue = B</text></g><g class="entity" data-entity="o3" data-source-line="10" data-uid="ent0004" id="entity_o3"><rect fill="#F1F1F1" height="44.9766" rx="2.5" ry="2.5" style="stroke:#181818;stroke-width:0.5;" width="227.8037" x="947.47" y="282.7283"/><text fill="#000000" font-family="sans-serif" font-size="14" lengthAdjust="spacing" textLength="139.3301" x="991.7068" y="298.2634">data:Mazak-br-spec</text><line style="stroke:#181818;stroke-width:0.5;" x1="948.47" x2="1174.2737" y1="303.2166" y2="303.2166"/><text fill="#000000" font-family="sans-serif" font-size="14" lengthAdjust="spacing" textLength="215.8037" x="953.47" y="320.7517">type = core:DesignSpecification</text></g><g class="entity" data-entity="o4" data-source-line="13" data-uid="ent0005" id="entity_o4"><rect fill="#F1F1F1" height="61.4648" rx="2.5" ry="2.5" style="stroke:#181818;stroke-width:0.5;" width="285.9707" x="1488.74" y="44.4883"/><text fill="#000000" font-family="sans-serif" font-size="14" lengthAdjust="spacing" textLength="267.9551" x="1497.7478" y="60.0234">data:Mazak-br-spec-ANGLE-Maximum</text><line style="stroke:#181818;stroke-width:0.5;" x1="1489.74" x2="1773.7107" y1="64.9766" y2="64.9766"/><text fill="#000000" font-family="sans-serif" font-size="14" lengthAdjust="spacing" textLength="194.4209" x="1494.74" y="82.5117">type = core:ValueExpression</text><text fill="#000000" font-family="sans-serif" font-size="14" lengthAdjust="spacing" textLength="273.9707" x="1494.74" y="99">core:hasSimpleExpressionValue = 120.0</text></g><g class="entity" data-entity="o5" data-source-line="16" data-uid="ent0006" id="entity_o5"><rect fill="#F1F1F1" height="61.4648" rx="2.5" ry="2.5" style="stroke:#181818;stroke-width:0.5;" width="285.2188" x="1489.12" y="140.4883"/><text fill="#000000" font-family="sans-serif" font-size="14" lengthAdjust="spacing" textLength="264.373" x="1499.5429" y="156.0234">data:Mazak-br-spec-ANGLE-Minimum</text><line style="stroke:#181818;stroke-width:0.5;" x1="1490.12" x2="1773.3388" y1="160.9766" y2="160.9766"/><text fill="#000000" font-family="sans-serif" font-size="14" lengthAdjust="spacing" textLength="194.4209" x="1495.12" y="178.5117">type = core:ValueExpression</text><text fill="#000000" font-family="sans-serif" font-size="14" lengthAdjust="spacing" textLength="273.2188" x="1495.12" y="195">core:hasSimpleExpressionValue = -30.0</text></g><g class="entity" data-entity="o6" data-source-line="19" data-uid="ent0007" id="entity_o6"><rect fill="#F1F1F1" height="61.4648" rx="2.5" ry="2.5" style="stroke:#181818;stroke-width:0.5;" width="293.5283" x="1484.97" y="236.4883"/><text fill="#000000" font-family="sans-serif" font-size="14" lengthAdjust="spacing" textLength="279.5283" x="1491.97" y="252.0234">data:Mazak-br-spec-TORQUE-Maximum</text><line style="stroke:#181818;stroke-width:0.5;" x1="1485.97" x2="1777.4983" y1="256.9766" y2="256.9766"/><text fill="#000000" font-family="sans-serif" font-size="14" lengthAdjust="spacing" textLength="194.4209" x="1490.97" y="274.5117">type = core:ValueExpression</text><text fill="#000000" font-family="sans-serif" font-size="14" lengthAdjust="spacing" textLength="273.9707" x="1490.97" y="291">core:hasSimpleExpressionValue = 400.0</text></g><g class="entity" data-entity="o7" data-source-line="22" data-uid="ent0008" id="entity_o7"><rect fill="#F1F1F1" height="61.4648" rx="2.5" ry="2.5" style="stroke:#181818;stroke-width:0.5;" width="289.9463" x="1486.76" y="332.4883"/><text fill="#000000" font-family="sans-serif" font-size="14" lengthAdjust="spacing" textLength="275.9463" x="1493.76" y="348.0234">data:Mazak-br-spec-TORQUE-Minimum</text><line style="stroke:#181818;stroke-width:0.5;" x1="1487.76" x2="1775.7063" y1="352.9766" y2="352.9766"/><text fill="#000000" font-family="sans-serif" font-size="14" lengthAdjust="spacing" textLength="194.4209" x="1492.76" y="370.5117">type = core:ValueExpression</text><text fill="#000000" font-family="sans-serif" font-size="14" lengthAdjust="spacing" textLength="256.2656" x="1492.76" y="387">core:hasSimpleExpressionValue = 0.0</text></g><g class="entity" data-entity="o8" data-source-line="25" data-uid="ent0009" id="entity_o8"><rect fill="#F1F1F1" height="44.9766" rx="2.5" ry="2.5" style="stroke:#181818;stroke-width:0.5;" width="178.5" x="972.12" y="436.7283"/><a href="./Mazak-enclosurem.html" target="_top" title="./Mazak-enclosurem.html" xlink:actuate="onRequest" xlink:href="./Mazak-enclosurem.html" xlink:show="new" xlink:title="./Mazak-enclosurem.html" xlink:type="simple"><text fill="#0000FF" font-family="sans-serif" font-size="14" lengthAdjust="spacing" text-decoration="underline" textLength="164.5" x="979.12" y="452.2634">data:Mazak-enclosurem</text></a><line style="stroke:#181818;stroke-width:0.5;" x1="973.12" x2="1149.62" y1="457.2166" y2="457.2166"/><text fill="#000000" font-family="sans-serif" font-size="14" lengthAdjust="spacing" textLength="131.7832" x="978.12" y="474.7517">type = ex:Structure</text></g><g class="entity" data-entity="o9" data-source-line="28" data-uid="ent0010" id="entity_o9"><rect fill="#F1F1F1" height="61.4648" rx="2.5" ry="2.5" style="stroke:#181818;stroke-width:0.5;" width="311.79" x="1475.83" y="428.4883"/><text fill="#000000" font-family="sans-serif" font-size="14" lengthAdjust="spacing" textLength="209.8906" x="1526.7797" y="444.0234">data:Mazak-enclosurem-name</text><line style="stroke:#181818;stroke-width:0.5;" x1="1476.83" x2="1786.62" y1="448.9766" y2="448.9766"/><text fill="#000000" font-family="sans-serif" font-size="14" lengthAdjust="spacing" textLength="161.3691" x="1481.83" y="466.5117">type = cmns-dsg:Name</text><text fill="#000000" font-family="sans-serif" font-size="14" lengthAdjust="spacing" textLength="299.79" x="1481.83" y="483">core:hasSimpleExpressionValue = enclosure</text></g><g class="entity" data-entity="o10" data-source-line="31" data-uid="ent0011" id="entity_o10"><rect fill="#F1F1F1" height="44.9766" rx="2.5" ry="2.5" style="stroke:#181818;stroke-width:0.5;" width="270.2314" x="1496.61" y="524.7283"/><text fill="#000000" font-family="sans-serif" font-size="14" lengthAdjust="spacing" textLength="256.2314" x="1503.61" y="540.2634">data:Mazak-enclosurem-temperature</text><line style="stroke:#181818;stroke-width:0.5;" x1="1497.61" x2="1765.8414" y1="545.2166" y2="545.2166"/><text fill="#000000" font-family="sans-serif" font-size="14" lengthAdjust="spacing" textLength="158.4502" x="1502.61" y="562.7517">type = qp:Temperature</text></g><g class="entity" data-entity="o11" data-source-line="34" data-uid="ent0012" id="entity_o11"><rect fill="#F1F1F1" height="44.9766" rx="2.5" ry="2.5" style="stroke:#181818;stroke-width:0.5;" width="148.7705" x="986.99" y="516.7283"/><a href="./Mazak-trundle.html" target="_top" title="./Mazak-trundle.html" xlink:actuate="onRequest" xlink:href="./Mazak-trundle.html" xlink:show="new" xlink:title="./Mazak-trundle.html" xlink:type="simple"><text fill="#0000FF" font-family="sans-serif" font-size="14" lengthAdjust="spacing" text-decoration="underline" textLength="134.7705" x="993.99" y="532.2634">data:Mazak-trundle</text></a><line style="stroke:#181818;stroke-width:0.5;" x1="987.99" x2="1134.7605" y1="537.2166" y2="537.2166"/><text fill="#000000" font-family="sans-serif" font-size="14" lengthAdjust="spacing" textLength="131.7832" x="992.99" y="554.7517">type = ex:Structure</text></g><g class="entity" data-entity="o12" data-source-line="37" data-uid="ent0013" id="entity_o12"><rect fill="#F1F1F1" height="61.4648" rx="2.5" ry="2.5" style="stroke:#181818;stroke-width:0.5;" width="309.418" x="1477.02" y="604.4883"/><text fill="#000000" font-family="sans-serif" font-size="14" lengthAdjust="spacing" textLength="180.1611" x="1541.6484" y="620.0234">data:Mazak-trundle-name</text><line style="stroke:#181818;stroke-width:0.5;" x1="1478.02" x2="1785.438" y1="624.9766" y2="624.9766"/><text fill="#000000" font-family="sans-serif" font-size="14" lengthAdjust="spacing" textLength="161.3691" x="1483.02" y="642.5117">type = cmns-dsg:Name</text><text fill="#000000" font-family="sans-serif" font-size="14" lengthAdjust="spacing" textLength="297.418" x="1483.02" y="659">core:hasSimpleExpressionValue = TRUNDLE</text></g><g class="entity" data-entity="o13" data-source-line="40" data-uid="ent0014" id="entity_o13"><rect fill="#F1F1F1" height="44.9766" rx="2.5" ry="2.5" style="stroke:#181818;stroke-width:0.5;" width="254.9287" x="933.91" y="596.7283"/><text fill="#000000" font-family="sans-serif" font-size="14" lengthAdjust="spacing" textLength="164.6777" x="979.0355" y="612.2634">data:Mazak-br-function</text><line style="stroke:#181818;stroke-width:0.5;" x1="934.91" x2="1187.8387" y1="617.2166" y2="617.2166"/><text fill="#000000" font-family="sans-serif" font-size="14" lengthAdjust="spacing" textLength="242.9287" x="939.91" y="634.7517">type = ex:RevoluteMotionCapability</text></g><g class="entity" data-entity="o14" data-source-line="43" data-uid="ent0015" id="entity_o14"><rect fill="#F1F1F1" height="44.9766" rx="2.5" ry="2.5" style="stroke:#181818;stroke-width:0.5;" width="159.4072" x="981.67" y="676.7283"/><text fill="#000000" font-family="sans-serif" font-size="14" lengthAdjust="spacing" textLength="145.4072" x="988.67" y="692.2634">data:Mazak-br-angle</text><line style="stroke:#181818;stroke-width:0.5;" x1="982.67" x2="1140.0772" y1="697.2166" y2="697.2166"/><text fill="#000000" font-family="sans-serif" font-size="14" lengthAdjust="spacing" textLength="110.127" x="987.67" y="714.7517">type = qp:Angle</text></g><g class="entity" data-entity="o15" data-source-line="46" data-uid="ent0016" id="entity_o15"><rect fill="#F1F1F1" height="44.9766" rx="2.5" ry="2.5" style="stroke:#181818;stroke-width:0.5;" width="208.1133" x="957.31" y="756.7283"/><text fill="#000000" font-family="sans-serif" font-size="14" lengthAdjust="spacing" textLength="194.1133" x="964.31" y="772.2634">data:Mazak-br-angle-actual</text><line style="stroke:#181818;stroke-width:0.5;" x1="958.31" x2="1164.4233" y1="777.2166" y2="777.2166"/><text fill="#000000" font-family="sans-serif" font-size="14" lengthAdjust="spacing" textLength="110.127" x="963.31" y="794.7517">type = qp:Angle</text></g><g class="entity" data-entity="o16" data-source-line="49" data-uid="ent0017" id="entity_o16"><rect fill="#F1F1F1" height="44.9766" rx="2.5" ry="2.5" style="stroke:#181818;stroke-width:0.5;" width="171.6982" x="975.52" y="836.7283"/><a href="./Mazak-br-Bmotor.html" target="_top" title="./Mazak-br-Bmotor.html" xlink:actuate="onRequest" xlink:href="./Mazak-br-Bmotor.html" xlink:show="new" xlink:title="./Mazak-br-Bmotor.html" xlink:type="simple"><text fill="#0000FF" font-family="sans-serif" font-size="14" lengthAdjust="spacing" text-decoration="underline" textLength="157.6982" x="982.52" y="852.2634">data:Mazak-br-Bmotor</text></a><line style="stroke:#181818;stroke-width:0.5;" x1="976.52" x2="1146.2182" y1="857.2166" y2="857.2166"/><text fill="#000000" font-family="sans-serif" font-size="14" lengthAdjust="spacing" textLength="110.1885" x="981.52" y="874.7517">type = ex:Motor</text></g><g class="entity" data-entity="o17" data-source-line="52" data-uid="ent0018" id="entity_o17"><rect fill="#F1F1F1" height="61.4648" rx="2.5" ry="2.5" style="stroke:#181818;stroke-width:0.5;" width="295.418" x="1484.02" y="828.4883"/><text fill="#000000" font-family="sans-serif" font-size="14" lengthAdjust="spacing" textLength="203.0889" x="1530.1846" y="844.0234">data:Mazak-br-Bmotor-name</text><line style="stroke:#181818;stroke-width:0.5;" x1="1485.02" x2="1778.438" y1="848.9766" y2="848.9766"/><text fill="#000000" font-family="sans-serif" font-size="14" lengthAdjust="spacing" textLength="161.3691" x="1490.02" y="866.5117">type = cmns-dsg:Name</text><text fill="#000000" font-family="sans-serif" font-size="14" lengthAdjust="spacing" textLength="283.418" x="1490.02" y="883">core:hasSimpleExpressionValue = Bmotor</text></g><g class="entity" data-entity="o18" data-source-line="55" data-uid="ent0019" id="entity_o18"><rect fill="#F1F1F1" height="44.9766" rx="2.5" ry="2.5" style="stroke:#181818;stroke-width:0.5;" width="138.1504" x="7" y="556.7283"/><a href="./Mazak.html" target="_top" title="./Mazak.html" xlink:actuate="onRequest" xlink:href="./Mazak.html" xlink:show="new" xlink:title="./Mazak.html" xlink:type="simple"><text fill="#0000FF" font-family="sans-serif" font-size="14" lengthAdjust="spacing" text-decoration="underline" textLength="77.6699" x="37.2402" y="572.2634">data:Mazak</text></a><line style="stroke:#181818;stroke-width:0.5;" x1="8" x2="144.1504" y1="577.2166" y2="577.2166"/><text fill="#000000" font-family="sans-serif" font-size="14" lengthAdjust="spacing" textLength="126.1504" x="13" y="594.7517">type = ex:Machine</text></g><!--link o1 to o2--><g class="link" data-entity-1="o1" data-entity-2="o2" data-source-line="58" data-uid="lnk20" id="link_o1_o2"><path codeLine="58" d="M554.4,556.4183 C589.66,498.4983 679.91,350.2183 679.91,350.2183 C679.91,350.2183 853.046,289.6881 965.506,250.3781" fill="none" id="o1-to-o2" style="stroke:#181818;stroke-width:1;"/><polygon fill="#181818" points="971.17,248.3983,961.3542,247.592,966.45,250.0481,963.994,255.144,971.17,248.3983" style="stroke:#181818;stroke-width:1;"/><text fill="#000000" font-family="sans-serif" font-size="13" lengthAdjust="spacing" textLength="126.0771" x="728.91" y="272.3166">cmns-dsg:hasName</text></g><!--link o1 to o3--><g class="link" data-entity-1="o1" data-entity-2="o3" data-source-line="60" data-uid="lnk21" id="link_o1_o3"><path codeLine="60" d="M568.06,556.4983 C608.68,522.9783 679.91,464.2183 679.91,464.2183 C679.91,464.2183 894.554,374.5118 999.914,330.4818" fill="none" id="o1-to-o3" style="stroke:#181818;stroke-width:1;"/><polygon fill="#181818" points="1005.45,328.1683,995.6036,327.9479,1000.8366,330.0962,998.6883,335.3292,1005.45,328.1683" style="stroke:#181818;stroke-width:1;"/><text fill="#000000" font-family="sans-serif" font-size="13" lengthAdjust="spacing" textLength="112.3027" x="735.91" y="371.7666">core:prescribedBy</text></g><!--link o3 to o4--><g class="link" data-entity-1="o3" data-entity-2="o4" data-source-line="61" data-uid="lnk22" id="link_o3_o4"><path codeLine="61" d="M1134.84,282.2983 C1163.09,273.3583 1188.83,265.2183 1188.83,265.2183 C1188.83,265.2183 1218.83,185.2183 1218.83,185.2183 C1218.83,185.2183 1386.2232,140.5167 1508.0032,107.9867" fill="none" id="o3-to-o4" style="stroke:#181818;stroke-width:1;"/><polygon fill="#181818" points="1513.8,106.4383,1504.0726,104.8964,1508.9694,107.7286,1506.1372,112.6254,1513.8,106.4383" style="stroke:#181818;stroke-width:1;"/><text fill="#000000" font-family="sans-serif" font-size="13" lengthAdjust="spacing" textLength="225.0688" x="1219.83" y="123.4866">core:hasValueExpressionAtAllTimes</text></g><!--link o3 to o5--><g class="link" data-entity-1="o3" data-entity-2="o5" data-source-line="63" data-uid="lnk23" id="link_o3_o5"><path codeLine="63" d="M1134.84,282.2983 C1163.09,273.3583 1188.83,265.2183 1188.83,265.2183 C1188.83,265.2183 1218.83,255.2183 1218.83,255.2183 C1218.83,255.2183 1363.711,225.6673 1482.811,201.3773" fill="none" id="o3-to-o5" style="stroke:#181818;stroke-width:1;"/><polygon fill="#181818" points="1488.69,200.1783,1479.0722,198.0575,1483.7908,201.1774,1480.6709,205.8961,1488.69,200.1783" style="stroke:#181818;stroke-width:1;"/><text fill="#000000" font-family="sans-serif" font-size="13" lengthAdjust="spacing" textLength="225.0688" x="1219.83" y="207.2666">core:hasValueExpressionAtAllTimes</text></g><!--link o3 to o6--><g class="link" data-entity-1="o3" data-entity-2="o6" data-source-line="65" data-uid="lnk24" id="link_o3_o6"><path codeLine="65" d="M1175.68,297.6383 C1264.41,291.7083 1382.5134,283.8085 1478.6934,277.3785" fill="none" id="o3-to-o6" style="stroke:#181818;stroke-width:1;"/><polygon fill="#181818" points="1484.68,276.9783,1475.4332,273.5875,1479.6911,277.3118,1475.9669,281.5697,1484.68,276.9783" style="stroke:#181818;stroke-width:1;"/><text fill="#000000" font-family="sans-serif" font-size="13" lengthAdjust="spacing" textLength="225.0688" x="1219.83" y="277.1566">core:hasValueExpressionAtAllTimes</text></g><!--link o3 to o7--><g class="link" data-entity-1="o3" data-entity-2="o7" data-source-line="67" data-uid="lnk25" id="link_o3_o7"><path codeLine="67" d="M1175.68,316.7783 C1264.9,325.8883 1383.891,338.0296 1480.291,347.8596" fill="none" id="o3-to-o7" style="stroke:#181818;stroke-width:1;"/><polygon fill="#181818" points="1486.26,348.4683,1477.7122,343.5759,1481.2858,347.9611,1476.9006,351.5346,1486.26,348.4683" style="stroke:#181818;stroke-width:1;"/><text fill="#000000" font-family="sans-serif" font-size="13" lengthAdjust="spacing" textLength="225.0688" x="1219.83" y="318.9266">core:hasValueExpressionAtAllTimes</text></g><!--link o1 to o8--><g class="link" data-entity-1="o1" data-entity-2="o8" data-source-line="69" data-uid="lnk26" id="link_o1_o8"><path codeLine="69" d="M602.07,556.2583 C639.4,542.3283 679.91,527.2183 679.91,527.2183 C679.91,527.2183 853.3136,496.2242 965.7436,476.1242" fill="none" id="o1-to-o8" style="stroke:#181818;stroke-width:1;"/><polygon fill="#181818" points="971.65,475.0683,962.0865,472.7146,966.728,475.9482,963.4944,480.5897,971.65,475.0683" style="stroke:#181818;stroke-width:1;"/><text fill="#000000" font-family="sans-serif" font-size="13" lengthAdjust="spacing" textLength="74.7246" x="754.91" y="485.7166">ex:joinedTo</text></g><!--link o8 to o9--><g class="link" data-entity-1="o8" data-entity-2="o9" data-source-line="70" data-uid="lnk27" id="link_o8_o9"><path codeLine="70" d="M1150.86,459.2183 C1237.45,459.2183 1365.14,459.2183 1469.44,459.2183" fill="none" id="o8-to-o9" style="stroke:#181818;stroke-width:1;"/><polygon fill="#181818" points="1475.44,459.2183,1466.44,455.2183,1470.44,459.2183,1466.44,463.2183,1475.44,459.2183" style="stroke:#181818;stroke-width:1;"/><text fill="#000000" font-family="sans-serif" font-size="13" lengthAdjust="spacing" textLength="126.0771" x="1269.33" y="455.7866">cmns-dsg:hasName</text></g><!--link o8 to o10--><g class="link" data-entity-1="o8" data-entity-2="o10" data-source-line="72" data-uid="lnk28" id="link_o8_o10"><path codeLine="72" d="M1151.12,473.3983 C1186.43,479.0383 1218.83,484.2183 1218.83,484.2183 C1218.83,484.2183 1370.049,507.3411 1490.219,525.7211" fill="none" id="o8-to-o10" style="stroke:#181818;stroke-width:1;"/><polygon fill="#181818" points="1496.15,526.6283,1487.8582,521.3135,1491.2075,525.8723,1486.6487,529.2216,1496.15,526.6283" style="stroke:#181818;stroke-width:1;"/><text fill="#000000" font-family="sans-serif" font-size="13" lengthAdjust="spacing" textLength="171.3169" x="1246.83" y="480.7866">core:measuresAtSomeTime</text></g><!--link o1 to o11--><g class="link" data-entity-1="o1" data-entity-2="o11" data-source-line="73" data-uid="lnk29" id="link_o1_o11"><path codeLine="73" d="M650.14,570.7783 C751.27,562.9983 892.6777,552.1187 980.5077,545.3587" fill="none" id="o1-to-o11" style="stroke:#181818;stroke-width:1;"/><polygon fill="#181818" points="986.49,544.8983,977.2096,541.6007,981.5047,545.282,977.8235,549.5771,986.49,544.8983" style="stroke:#181818;stroke-width:1;"/><text fill="#000000" font-family="sans-serif" font-size="13" lengthAdjust="spacing" textLength="74.7246" x="754.91" y="548.7266">ex:joinedTo</text></g><!--link o11 to o12--><g class="link" data-entity-1="o11" data-entity-2="o12" data-source-line="74" data-uid="lnk30" id="link_o11_o12"><path codeLine="74" d="M1136.09,551.6683 C1221.92,566.1683 1360.1038,589.509 1470.6938,608.189" fill="none" id="o11-to-o12" style="stroke:#181818;stroke-width:1;"/><polygon fill="#181818" points="1476.61,609.1883,1468.4019,603.7452,1471.6798,608.3555,1467.0695,611.6334,1476.61,609.1883" style="stroke:#181818;stroke-width:1;"/><text fill="#000000" font-family="sans-serif" font-size="13" lengthAdjust="spacing" textLength="126.0771" x="1269.33" y="564.1466">cmns-dsg:hasName</text></g><!--link o1 to o13--><g class="link" data-entity-1="o1" data-entity-2="o13" data-source-line="76" data-uid="lnk31" id="link_o1_o13"><path codeLine="76" d="M650.35,590.2483 C667.62,591.9783 679.91,593.2183 679.91,593.2183 C679.91,593.2183 816.794,602.5693 927.434,610.1293" fill="none" id="o1-to-o13" style="stroke:#181818;stroke-width:1;"/><polygon fill="#181818" points="933.42,610.5383,924.7136,605.934,928.4316,610.1974,924.1683,613.9154,933.42,610.5383" style="stroke:#181818;stroke-width:1;"/><text fill="#000000" font-family="sans-serif" font-size="13" lengthAdjust="spacing" textLength="107.6309" x="738.41" y="589.7866">core:hasFunction</text></g><!--link o1 to o14--><g class="link" data-entity-1="o1" data-entity-2="o14" data-source-line="77" data-uid="lnk32" id="link_o1_o14"><path codeLine="77" d="M599.64,602.1183 C637.62,616.8383 679.91,633.2183 679.91,633.2183 C679.91,633.2183 864.1883,665.1829 975.6283,684.5129" fill="none" id="o1-to-o14" style="stroke:#181818;stroke-width:1;"/><polygon fill="#181818" points="981.54,685.5383,973.356,680.059,976.6136,684.6838,971.9888,687.9413,981.54,685.5383" style="stroke:#181818;stroke-width:1;"/><text fill="#000000" font-family="sans-serif" font-size="13" lengthAdjust="spacing" textLength="171.3169" x="706.41" y="629.7866">core:measuresAtSomeTime</text></g><!--link o1 to o15--><g class="link" data-entity-1="o1" data-entity-2="o15" data-source-line="78" data-uid="lnk33" id="link_o1_o15"><path codeLine="78" d="M568.06,602.1383 C608.68,635.9383 679.91,695.2183 679.91,695.2183 C679.91,695.2183 838.3912,730.2044 951.0512,755.0844" fill="none" id="o1-to-o15" style="stroke:#181818;stroke-width:1;"/><polygon fill="#181818" points="956.91,756.3783,948.9843,750.5316,952.0276,755.3001,947.2592,758.3434,956.91,756.3783" style="stroke:#181818;stroke-width:1;"/><text fill="#000000" font-family="sans-serif" font-size="13" lengthAdjust="spacing" textLength="171.3169" x="706.41" y="691.7866">core:measuresAtSomeTime</text></g><!--link o1 to o16--><g class="link" data-entity-1="o1" data-entity-2="o16" data-source-line="79" data-uid="lnk34" id="link_o1_o16"><path codeLine="79" d="M557.34,601.8883 C594.41,651.8983 679.91,767.2183 679.91,767.2183 C679.91,767.2183 857.4981,810.1578 969.6281,837.2778" fill="none" id="o1-to-o16" style="stroke:#181818;stroke-width:1;"/><polygon fill="#181818" points="975.46,838.6883,967.6526,832.6846,970.6001,837.5129,965.7719,840.4604,975.46,838.6883" style="stroke:#181818;stroke-width:1;"/><text fill="#000000" font-family="sans-serif" font-size="13" lengthAdjust="spacing" textLength="222.5425" x="680.91" y="763.7866">obo:has member part at some time</text></g><!--link o16 to o17--><g class="link" data-entity-1="o16" data-entity-2="o17" data-source-line="80" data-uid="lnk35" id="link_o16_o17"><path codeLine="80" d="M1147.46,859.2183 C1236.18,859.2183 1370.93,859.2183 1477.7,859.2183" fill="none" id="o16-to-o17" style="stroke:#181818;stroke-width:1;"/><polygon fill="#181818" points="1483.7,859.2183,1474.7,855.2183,1478.7,859.2183,1474.7,863.2183,1483.7,859.2183" style="stroke:#181818;stroke-width:1;"/><text fill="#000000" font-family="sans-serif" font-size="13" lengthAdjust="spacing" textLength="126.0771" x="1269.33" y="855.7866">cmns-dsg:hasName</text></g><!--link o18 to o1--><g class="link" data-entity-1="o18" data-entity-2="o1" data-source-line="82" data-uid="lnk36" id="link_o18_o1"><path codeLine="82" d="M145.16,579.2183 C219.87,579.2183 334.87,579.2183 422.97,579.2183" fill="none" id="o18-to-o1" style="stroke:#181818;stroke-width:1;"/><polygon fill="#181818" points="428.97,579.2183,419.97,575.2183,423.97,579.2183,419.97,583.2183,428.97,579.2183" style="stroke:#181818;stroke-width:1;"/><text fill="#000000" font-family="sans-serif" font-size="13" lengthAdjust="spacing" textLength="222.5425" x="176.15" y="575.7866">obo:has member part at some time</text></g><!--SRC=[hPPBSzem4CVl_XIQt4rnU0NFj3FGq5u2dGBf9PE3i1TG8bck9NTmC_tkbVmK3ZIYxP5z_FQ_ykuEufb4CKumGvH48BCOKCnffdyu5BOIIOuIijjB59840abuv4WYAQ0v_ecVtKtYyCsJSg2hXuVEkyhOsKj6KOWbzYlJu-CLmW9n3xquA2_q7i71NtA9aspEDNcL2GdCGRzgvX71ZJ230d9jG08M2JSKEt-XtEUJHGn1aTmpata2_Yq8iejMAe1iIO3p9l_8SIUBptSpTuuFXAMieFRRr6-OfZ0xn0a8OKqaKKCS_1jn_MNvzRubSlX_aARAqGN8PaGW2YWNQGBirQWqhcfaRev7PYMJD90gu8pQ1c1CpFZ2YJ4WQYPZIB2kM8vmru1zZ_rr4t2wMoKu2YcyQhMqrwlXNTPecMvqwVt5OcpJAD_haj1hxIVyu3ILK6peHnpZ3Q54PkTvEDhHIax_-A4cslL6fejLovYMWC4R0FFek5F69JzrUqfF_Sx3unxdsdbULf5illB8vfLhQMr1jOpMNCzniDTtLpCyvBeVz9tpcm9xBF8QXLMlchAi28kfiMxvzYdUj6RqgcWT4YHa0-4qSvGvz_ODLcjp9t92wPem4CvHsBcItdMtqwt10plmm0Bizapmq0uyj03tkoPuP0SUMO1pRFd-DofUVTqdhhvjkEQECkJsySblExQWrxUfPgcBLAOnmDeZ9dB56MZ9jH1rNbfAlCfpUiuycq5RB-yNjtUpfahFIFfKtfR6sxSHEh09qX-ORxWkWnYm3IH8_PEH24iaL32IHVIm31-TRj7cQnO7mD4BMx0iAly6]--></g></svg>