<svg xmlns="http://www.w3.org/2000/svg" xmlns:xlink="http://www.w3.org/1999/xlink" contentStyleType="text/css" data-diagram-type="CLASS" height="1356px" preserveAspectRatio="none" style="width:1887px;height:1356px;background:#FFFFFF;" version="1.1" viewBox="0 0 1887 1356" width="1887px" zoomAndPan="magnify"><title>Mazak-x</title><defs/><g><text fill="#000000" font-family="sans-serif" font-size="14" font-weight="bold" lengthAdjust="spacing" textLength="63.5127" x="904.7755" y="23.5352">Mazak-x</text><g class="entity" data-entity="o1" data-source-line="4" data-uid="ent0002" id="entity_o1"><rect fill="#F1F1F1" height="44.9766" rx="2.5" ry="2.5" style="stroke:#181818;stroke-width:0.5;" width="218.7529" x="429.15" y="924.7283"/><a href="./Mazak-x.html" target="_top" title="./Mazak-x.html" xlink:actuate="onRequest" xlink:href="./Mazak-x.html" xlink:show="new" xlink:title="./Mazak-x.html" xlink:type="simple"><text fill="#0000FF" font-family="sans-serif" font-size="14" lengthAdjust="spacing" text-decoration="underline" textLength="94.3564" x="491.3482" y="940.2634">data:Mazak-x</text></a><line style="stroke:#181818;stroke-width:0.5;" x1="430.15" x2="646.9029" y1="945.2166" y2="945.2166"/><text fill="#000000" font-family="sans-serif" font-size="14" lengthAdjust="spacing" textLength="206.7529" x="435.15" y="962.7517">type = ex:LinearMotionSystem</text></g><g class="entity" data-entity="o2" data-source-line="7" data-uid="ent0003" id="entity_o2"><rect fill="#F1F1F1" height="61.4648" rx="2.5" ry="2.5" style="stroke:#181818;stroke-width:0.5;" width="254.8945" x="933.74" y="340.4883"/><text fill="#000000" font-family="sans-serif" font-size="14" lengthAdjust="spacing" textLength="139.7471" x="991.3137" y="356.0234">data:Mazak-x-name</text><line style="stroke:#181818;stroke-width:0.5;" x1="934.74" x2="1187.6345" y1="360.9766" y2="360.9766"/><text fill="#000000" font-family="sans-serif" font-size="14" lengthAdjust="spacing" textLength="161.3691" x="939.74" y="378.5117">type = cmns-dsg:Name</text><text fill="#000000" font-family="sans-serif" font-size="14" lengthAdjust="spacing" textLength="242.8945" x="939.74" y="395">core:hasSimpleExpressionValue = X</text></g><g class="entity" data-entity="o3" data-source-line="10" data-uid="ent0004" id="entity_o3"><rect fill="#F1F1F1" height="44.9766" rx="2.5" ry="2.5" style="stroke:#181818;stroke-width:0.5;" width="227.8037" x="947.28" y="436.7283"/><text fill="#000000" font-family="sans-serif" font-size="14" lengthAdjust="spacing" textLength="133.376" x="994.4939" y="452.2634">data:Mazak-x-spec</text><line style="stroke:#181818;stroke-width:0.5;" x1="948.28" x2="1174.0837" y1="457.2166" y2="457.2166"/><text fill="#000000" font-family="sans-serif" font-size="14" lengthAdjust="spacing" textLength="215.8037" x="953.28" y="474.7517">type = core:DesignSpecification</text></g><g class="entity" data-entity="o4" data-source-line="13" data-uid="ent0005" id="entity_o4"><rect fill="#F1F1F1" height="61.4648" rx="2.5" ry="2.5" style="stroke:#181818;stroke-width:0.5;" width="285.9707" x="1536.28" y="44.4883"/><text fill="#000000" font-family="sans-serif" font-size="14" lengthAdjust="spacing" textLength="260.7568" x="1548.8869" y="60.0234">data:Mazak-x-spec-LENGTH-Nominal</text><line style="stroke:#181818;stroke-width:0.5;" x1="1537.28" x2="1821.2507" y1="64.9766" y2="64.9766"/><text fill="#000000" font-family="sans-serif" font-size="14" lengthAdjust="spacing" textLength="194.4209" x="1542.28" y="82.5117">type = core:ValueExpression</text><text fill="#000000" font-family="sans-serif" font-size="14" lengthAdjust="spacing" textLength="273.9707" x="1542.28" y="99">core:hasSimpleExpressionValue = 650.0</text></g><g class="entity" data-entity="o5" data-source-line="16" data-uid="ent0006" id="entity_o5"><rect fill="#F1F1F1" height="61.4648" rx="2.5" ry="2.5" style="stroke:#181818;stroke-width:0.5;" width="330.2783" x="1514.13" y="140.4883"/><text fill="#000000" font-family="sans-serif" font-size="14" lengthAdjust="spacing" textLength="316.2783" x="1521.13" y="156.0234">data:Mazak-x-spec-LINEAR_FORCE-Maximum</text><line style="stroke:#181818;stroke-width:0.5;" x1="1515.13" x2="1843.4083" y1="160.9766" y2="160.9766"/><text fill="#000000" font-family="sans-serif" font-size="14" lengthAdjust="spacing" textLength="194.4209" x="1520.13" y="178.5117">type = core:ValueExpression</text><text fill="#000000" font-family="sans-serif" font-size="14" lengthAdjust="spacing" textLength="282.8232" x="1520.13" y="195">core:hasSimpleExpressionValue = 5200.0</text></g><g class="entity" data-entity="o6" data-source-line="19" data-uid="ent0007" id="entity_o6"><rect fill="#F1F1F1" height="61.4648" rx="2.5" ry="2.5" style="stroke:#181818;stroke-width:0.5;" width="326.6963" x="1515.92" y="236.4883"/><text fill="#000000" font-family="sans-serif" font-size="14" lengthAdjust="spacing" textLength="312.6963" x="1522.92" y="252.0234">data:Mazak-x-spec-LINEAR_FORCE-Minimum</text><line style="stroke:#181818;stroke-width:0.5;" x1="1516.92" x2="1841.6163" y1="256.9766" y2="256.9766"/><text fill="#000000" font-family="sans-serif" font-size="14" lengthAdjust="spacing" textLength="194.4209" x="1521.92" y="274.5117">type = core:ValueExpression</text><text fill="#000000" font-family="sans-serif" font-size="14" lengthAdjust="spacing" textLength="256.2656" x="1521.92" y="291">core:hasSimpleExpressionValue = 0.0</text></g><g class="entity" data-entity="o7" data-source-line="22" data-uid="ent0008" id="entity_o7"><rect fill="#F1F1F1" height="61.4648" rx="2.5" ry="2.5" style="stroke:#181818;stroke-width:0.5;" width="346.0762" x="1506.23" y="332.4883"/><text fill="#000000" font-family="sans-serif" font-size="14" lengthAdjust="spacing" textLength="332.0762" x="1513.23" y="348.0234">data:Mazak-x-spec-VELOCITY-RAPID-Maximum</text><line style="stroke:#181818;stroke-width:0.5;" x1="1507.23" x2="1851.3062" y1="352.9766" y2="352.9766"/><text fill="#000000" font-family="sans-serif" font-size="14" lengthAdjust="spacing" textLength="194.4209" x="1512.23" y="370.5117">type = core:ValueExpression</text><text fill="#000000" font-family="sans-serif" font-size="14" lengthAdjust="spacing" textLength="282.8232" x="1512.23" y="387">core:hasSimpleExpressionValue = 7000.0</text></g><g class="entity" data-entity="o8" data-source-line="25" data-uid="ent0009" id="entity_o8"><rect fill="#F1F1F1" height="61.4648" rx="2.5" ry="2.5" style="stroke:#181818;stroke-width:0.5;" width="342.4941" x="1508.02" y="428.4883"/><text fill="#000000" font-family="sans-serif" font-size="14" lengthAdjust="spacing" textLength="328.4941" x="1515.02" y="444.0234">data:Mazak-x-spec-VELOCITY-RAPID-Minimum</text><line style="stroke:#181818;stroke-width:0.5;" x1="1509.02" x2="1849.5141" y1="448.9766" y2="448.9766"/><text fill="#000000" font-family="sans-serif" font-size="14" lengthAdjust="spacing" textLength="194.4209" x="1514.02" y="466.5117">type = core:ValueExpression</text><text fill="#000000" font-family="sans-serif" font-size="14" lengthAdjust="spacing" textLength="256.2656" x="1514.02" y="483">core:hasSimpleExpressionValue = 1.0</text></g><g class="entity" data-entity="o9" data-source-line="28" data-uid="ent0010" id="entity_o9"><rect fill="#F1F1F1" height="61.4648" rx="2.5" ry="2.5" style="stroke:#181818;stroke-width:0.5;" width="403.5938" x="1477.47" y="524.4883"/><text fill="#000000" font-family="sans-serif" font-size="14" lengthAdjust="spacing" textLength="389.5938" x="1484.47" y="540.0234">data:Mazak-x-spec-VELOCITY-PROGRAMMED-Maximum</text><line style="stroke:#181818;stroke-width:0.5;" x1="1478.47" x2="1880.0638" y1="544.9766" y2="544.9766"/><text fill="#000000" font-family="sans-serif" font-size="14" lengthAdjust="spacing" textLength="194.4209" x="1483.47" y="562.5117">type = core:ValueExpression</text><text fill="#000000" font-family="sans-serif" font-size="14" lengthAdjust="spacing" textLength="282.8232" x="1483.47" y="579">core:hasSimpleExpressionValue = 7000.0</text></g><g class="entity" data-entity="o10" data-source-line="31" data-uid="ent0011" id="entity_o10"><rect fill="#F1F1F1" height="61.4648" rx="2.5" ry="2.5" style="stroke:#181818;stroke-width:0.5;" width="400.0117" x="1479.26" y="620.4883"/><text fill="#000000" font-family="sans-serif" font-size="14" lengthAdjust="spacing" textLength="386.0117" x="1486.26" y="636.0234">data:Mazak-x-spec-VELOCITY-PROGRAMMED-Minimum</text><line style="stroke:#181818;stroke-width:0.5;" x1="1480.26" x2="1878.2717" y1="640.9766" y2="640.9766"/><text fill="#000000" font-family="sans-serif" font-size="14" lengthAdjust="spacing" textLength="194.4209" x="1485.26" y="658.5117">type = core:ValueExpression</text><text fill="#000000" font-family="sans-serif" font-size="14" lengthAdjust="spacing" textLength="256.2656" x="1485.26" y="675">core:hasSimpleExpressionValue = 1.0</text></g><g class="entity" data-entity="o11" data-source-line="34" data-uid="ent0012" id="entity_o11"><rect fill="#F1F1F1" height="44.9766" rx="2.5" ry="2.5" style="stroke:#181818;stroke-width:0.5;" width="178.5" x="971.94" y="724.7283"/><a href="./Mazak-enclosurem.html" target="_top" title="./Mazak-enclosurem.html" xlink:actuate="onRequest" xlink:href="./Mazak-enclosurem.html" xlink:show="new" xlink:title="./Mazak-enclosurem.html" xlink:type="simple"><text fill="#0000FF" font-family="sans-serif" font-size="14" lengthAdjust="spacing" text-decoration="underline" textLength="164.5" x="978.94" y="740.2634">data:Mazak-enclosurem</text></a><line style="stroke:#181818;stroke-width:0.5;" x1="972.94" x2="1149.44" y1="745.2166" y2="745.2166"/><text fill="#000000" font-family="sans-serif" font-size="14" lengthAdjust="spacing" textLength="131.7832" x="977.94" y="762.7517">type = ex:Structure</text></g><g class="entity" data-entity="o12" data-source-line="37" data-uid="ent0013" id="entity_o12"><rect fill="#F1F1F1" height="61.4648" rx="2.5" ry="2.5" style="stroke:#181818;stroke-width:0.5;" width="311.79" x="1523.37" y="716.4883"/><text fill="#000000" font-family="sans-serif" font-size="14" lengthAdjust="spacing" textLength="209.8906" x="1574.3197" y="732.0234">data:Mazak-enclosurem-name</text><line style="stroke:#181818;stroke-width:0.5;" x1="1524.37" x2="1834.16" y1="736.9766" y2="736.9766"/><text fill="#000000" font-family="sans-serif" font-size="14" lengthAdjust="spacing" textLength="161.3691" x="1529.37" y="754.5117">type = cmns-dsg:Name</text><text fill="#000000" font-family="sans-serif" font-size="14" lengthAdjust="spacing" textLength="299.79" x="1529.37" y="771">core:hasSimpleExpressionValue = enclosure</text></g><g class="entity" data-entity="o13" data-source-line="40" data-uid="ent0014" id="entity_o13"><rect fill="#F1F1F1" height="44.9766" rx="2.5" ry="2.5" style="stroke:#181818;stroke-width:0.5;" width="270.2314" x="1544.15" y="812.7283"/><text fill="#000000" font-family="sans-serif" font-size="14" lengthAdjust="spacing" textLength="256.2314" x="1551.15" y="828.2634">data:Mazak-enclosurem-temperature</text><line style="stroke:#181818;stroke-width:0.5;" x1="1545.15" x2="1813.3814" y1="833.2166" y2="833.2166"/><text fill="#000000" font-family="sans-serif" font-size="14" lengthAdjust="spacing" textLength="158.4502" x="1550.15" y="850.7517">type = qp:Temperature</text></g><g class="entity" data-entity="o14" data-source-line="43" data-uid="ent0015" id="entity_o14"><rect fill="#F1F1F1" height="44.9766" rx="2.5" ry="2.5" style="stroke:#181818;stroke-width:0.5;" width="148.9277" x="986.72" y="804.7283"/><a href="./Mazak-xaxism.html" target="_top" title="./Mazak-xaxism.html" xlink:actuate="onRequest" xlink:href="./Mazak-xaxism.html" xlink:show="new" xlink:title="./Mazak-xaxism.html" xlink:type="simple"><text fill="#0000FF" font-family="sans-serif" font-size="14" lengthAdjust="spacing" text-decoration="underline" textLength="134.9277" x="993.72" y="820.2634">data:Mazak-xaxism</text></a><line style="stroke:#181818;stroke-width:0.5;" x1="987.72" x2="1134.6477" y1="825.2166" y2="825.2166"/><text fill="#000000" font-family="sans-serif" font-size="14" lengthAdjust="spacing" textLength="131.7832" x="992.72" y="842.7517">type = ex:Structure</text></g><g class="entity" data-entity="o15" data-source-line="46" data-uid="ent0016" id="entity_o15"><rect fill="#F1F1F1" height="61.4648" rx="2.5" ry="2.5" style="stroke:#181818;stroke-width:0.5;" width="291.8906" x="1533.32" y="892.4883"/><text fill="#000000" font-family="sans-serif" font-size="14" lengthAdjust="spacing" textLength="180.3184" x="1589.1061" y="908.0234">data:Mazak-xaxism-name</text><line style="stroke:#181818;stroke-width:0.5;" x1="1534.32" x2="1824.2106" y1="912.9766" y2="912.9766"/><text fill="#000000" font-family="sans-serif" font-size="14" lengthAdjust="spacing" textLength="161.3691" x="1539.32" y="930.5117">type = cmns-dsg:Name</text><text fill="#000000" font-family="sans-serif" font-size="14" lengthAdjust="spacing" textLength="279.8906" x="1539.32" y="947">core:hasSimpleExpressionValue = X_AXIS</text></g><g class="entity" data-entity="o16" data-source-line="49" data-uid="ent0017" id="entity_o16"><rect fill="#F1F1F1" height="44.9766" rx="2.5" ry="2.5" style="stroke:#181818;stroke-width:0.5;" width="258.5654" x="931.9" y="884.7283"/><text fill="#000000" font-family="sans-serif" font-size="14" lengthAdjust="spacing" textLength="158.7236" x="981.8209" y="900.2634">data:Mazak-x-function</text><line style="stroke:#181818;stroke-width:0.5;" x1="932.9" x2="1189.4654" y1="905.2166" y2="905.2166"/><text fill="#000000" font-family="sans-serif" font-size="14" lengthAdjust="spacing" textLength="246.5654" x="937.9" y="922.7517">type = ex:PrismaticMotionCapability</text></g><g class="entity" data-entity="o17" data-source-line="52" data-uid="ent0018" id="entity_o17"><rect fill="#F1F1F1" height="44.9766" rx="2.5" ry="2.5" style="stroke:#181818;stroke-width:0.5;" width="220.3291" x="951.02" y="964.7283"/><text fill="#000000" font-family="sans-serif" font-size="14" lengthAdjust="spacing" textLength="206.3291" x="958.02" y="980.2634">data:Mazak-x-position-actual</text><line style="stroke:#181818;stroke-width:0.5;" x1="952.02" x2="1170.3491" y1="985.2166" y2="985.2166"/><text fill="#000000" font-family="sans-serif" font-size="14" lengthAdjust="spacing" textLength="163.2285" x="957.02" y="1002.7517">type = qp:Displacement</text></g><g class="entity" data-entity="o18" data-source-line="55" data-uid="ent0019" id="entity_o18"><rect fill="#F1F1F1" height="44.9766" rx="2.5" ry="2.5" style="stroke:#181818;stroke-width:0.5;" width="175.2285" x="973.57" y="1044.7283"/><text fill="#000000" font-family="sans-serif" font-size="14" lengthAdjust="spacing" textLength="157.623" x="982.3727" y="1060.2634">data:Mazak-x-position</text><line style="stroke:#181818;stroke-width:0.5;" x1="974.57" x2="1147.7985" y1="1065.2166" y2="1065.2166"/><text fill="#000000" font-family="sans-serif" font-size="14" lengthAdjust="spacing" textLength="163.2285" x="979.57" y="1082.7517">type = qp:Displacement</text></g><g class="entity" data-entity="o19" data-source-line="58" data-uid="ent0020" id="entity_o19"><rect fill="#F1F1F1" height="44.9766" rx="2.5" ry="2.5" style="stroke:#181818;stroke-width:0.5;" width="200.0879" x="961.14" y="1124.7283"/><text fill="#000000" font-family="sans-serif" font-size="14" lengthAdjust="spacing" textLength="186.0879" x="968.14" y="1140.2634">data:Mazak-x-temperature</text><line style="stroke:#181818;stroke-width:0.5;" x1="962.14" x2="1160.2279" y1="1145.2166" y2="1145.2166"/><text fill="#000000" font-family="sans-serif" font-size="14" lengthAdjust="spacing" textLength="158.4502" x="967.14" y="1162.7517">type = qp:Temperature</text></g><g class="entity" data-entity="o20" data-source-line="61" data-uid="ent0021" id="entity_o20"><rect fill="#F1F1F1" height="44.9766" rx="2.5" ry="2.5" style="stroke:#181818;stroke-width:0.5;" width="188.4805" x="966.95" y="1204.7283"/><a href="./Mazak-x-Xballscrew.html" target="_top" title="./Mazak-x-Xballscrew.html" xlink:actuate="onRequest" xlink:href="./Mazak-x-Xballscrew.html" xlink:show="new" xlink:title="./Mazak-x-Xballscrew.html" xlink:type="simple"><text fill="#0000FF" font-family="sans-serif" font-size="14" lengthAdjust="spacing" text-decoration="underline" textLength="174.4805" x="973.95" y="1220.2634">data:Mazak-x-Xballscrew</text></a><line style="stroke:#181818;stroke-width:0.5;" x1="967.95" x2="1154.4305" y1="1225.2166" y2="1225.2166"/><text fill="#000000" font-family="sans-serif" font-size="14" lengthAdjust="spacing" textLength="132.4668" x="972.95" y="1242.7517">type = ex:Ballscrew</text></g><g class="entity" data-entity="o21" data-source-line="64" data-uid="ent0022" id="entity_o21"><rect fill="#F1F1F1" height="61.4648" rx="2.5" ry="2.5" style="stroke:#181818;stroke-width:0.5;" width="318.1543" x="1520.19" y="1192.4883"/><text fill="#000000" font-family="sans-serif" font-size="14" lengthAdjust="spacing" textLength="219.8711" x="1569.3316" y="1208.0234">data:Mazak-x-Xballscrew-name</text><line style="stroke:#181818;stroke-width:0.5;" x1="1521.19" x2="1837.3443" y1="1212.9766" y2="1212.9766"/><text fill="#000000" font-family="sans-serif" font-size="14" lengthAdjust="spacing" textLength="161.3691" x="1526.19" y="1230.5117">type = cmns-dsg:Name</text><text fill="#000000" font-family="sans-serif" font-size="14" lengthAdjust="spacing" textLength="306.1543" x="1526.19" y="1247">core:hasSimpleExpressionValue = Xballscrew</text></g><g class="entity" data-entity="o22" data-source-line="67" data-uid="ent0023" id="entity_o22"><rect fill="#F1F1F1" height="44.9766" rx="2.5" ry="2.5" style="stroke:#181818;stroke-width:0.5;" width="166.4551" x="977.96" y="1288.7283"/><a href="./Mazak-x-Xmotor.html" target="_top" title="./Mazak-x-Xmotor.html" xlink:actuate="onRequest" xlink:href="./Mazak-x-Xmotor.html" xlink:show="new" xlink:title="./Mazak-x-Xmotor.html" xlink:type="simple"><text fill="#0000FF" font-family="sans-serif" font-size="14" lengthAdjust="spacing" text-decoration="underline" textLength="152.4551" x="984.96" y="1304.2634">data:Mazak-x-Xmotor</text></a><line style="stroke:#181818;stroke-width:0.5;" x1="978.96" x2="1143.4151" y1="1309.2166" y2="1309.2166"/><text fill="#000000" font-family="sans-serif" font-size="14" lengthAdjust="spacing" textLength="110.1885" x="983.96" y="1326.7517">type = ex:Motor</text></g><g class="entity" data-entity="o23" data-source-line="70" data-uid="ent0024" id="entity_o23"><rect fill="#F1F1F1" height="61.4648" rx="2.5" ry="2.5" style="stroke:#181818;stroke-width:0.5;" width="296.1289" x="1531.2" y="1288.4883"/><text fill="#000000" font-family="sans-serif" font-size="14" lengthAdjust="spacing" textLength="197.8457" x="1580.3416" y="1304.0234">data:Mazak-x-Xmotor-name</text><line style="stroke:#181818;stroke-width:0.5;" x1="1532.2" x2="1826.3289" y1="1308.9766" y2="1308.9766"/><text fill="#000000" font-family="sans-serif" font-size="14" lengthAdjust="spacing" textLength="161.3691" x="1537.2" y="1326.5117">type = cmns-dsg:Name</text><text fill="#000000" font-family="sans-serif" font-size="14" lengthAdjust="spacing" textLength="284.1289" x="1537.2" y="1343">core:hasSimpleExpressionValue = Xmotor</text></g><g class="entity" data-entity="o24" data-source-line="73" data-uid="ent0025" id="entity_o24"><rect fill="#F1F1F1" height="44.9766" rx="2.5" ry="2.5" style="stroke:#181818;stroke-width:0.5;" width="138.1504" x="7" y="924.7283"/><a href="./Mazak.html" target="_top" title="./Mazak.html" xlink:actuate="onRequest" xlink:href="./Mazak.html" xlink:show="new" xlink:title="./Mazak.html" xlink:type="simple"><text fill="#0000FF" font-family="sans-serif" font-size="14" lengthAdjust="spacing" text-decoration="underline" textLength="77.6699" x="37.2402" y="940.2634">data:Mazak</text></a><line style="stroke:#181818;stroke-width:0.5;" x1="8" x2="144.1504" y1="945.2166" y2="945.2166"/><text fill="#000000" font-family="sans-serif" font-size="14" lengthAdjust="spacing" textLength="126.1504" x="13" y="962.7517">type = ex:Machine</text></g><!--link o1 to o2--><g class="link" data-entity-1="o1" data-entity-2="o2" data-source-line="76" data-uid="lnk26" id="link_o1_o2"><path codeLine="76" d="M547.87,924.2383 C577.79,841.8683 677.9,566.2183 677.9,566.2183 C677.9,566.2183 931.9,419.2183 931.9,419.2183 C931.9,419.2183 946.6507,413.7015 971.1507,404.5315" fill="none" id="o1-to-o2" style="stroke:#181818;stroke-width:1;"/><polygon fill="#181818" points="976.77,402.4283,966.9389,401.8369,972.0873,404.181,969.7432,409.3293,976.77,402.4283" style="stroke:#181818;stroke-width:1;"/><text fill="#000000" font-family="sans-serif" font-size="13" lengthAdjust="spacing" textLength="126.0771" x="726.9" y="433.9966">cmns-dsg:hasName</text></g><!--link o1 to o3--><g class="link" data-entity-1="o1" data-entity-2="o3" data-source-line="78" data-uid="lnk27" id="link_o1_o3"><path codeLine="78" d="M556.22,924.5383 C593.02,874.5383 677.9,759.2183 677.9,759.2183 C677.9,759.2183 937.2099,555.7225 1026.4199,485.7125" fill="none" id="o1-to-o3" style="stroke:#181818;stroke-width:1;"/><polygon fill="#181818" points="1031.14,482.0083,1021.5905,484.4179,1027.2066,485.0951,1026.5294,490.7113,1031.14,482.0083" style="stroke:#181818;stroke-width:1;"/><text fill="#000000" font-family="sans-serif" font-size="13" lengthAdjust="spacing" textLength="112.3027" x="733.9" y="587.8266">core:prescribedBy</text></g><!--link o3 to o4--><g class="link" data-entity-1="o3" data-entity-2="o4" data-source-line="79" data-uid="lnk28" id="link_o3_o4"><path codeLine="79" d="M1135.69,436.2983 C1164.36,427.3583 1190.47,419.2183 1190.47,419.2183 C1190.47,419.2183 1220.47,204.2183 1220.47,204.2183 C1220.47,204.2183 1477.47,123.2183 1477.47,123.2183 C1477.47,123.2183 1503.5145,116.9936 1541.8645,107.8236" fill="none" id="o3-to-o4" style="stroke:#181818;stroke-width:1;"/><polygon fill="#181818" points="1547.7,106.4283,1538.0165,104.631,1542.8371,107.5911,1539.877,112.4116,1547.7,106.4283" style="stroke:#181818;stroke-width:1;"/><text fill="#000000" font-family="sans-serif" font-size="13" lengthAdjust="spacing" textLength="225.0688" x="1221.47" y="129.8166">core:hasValueExpressionAtAllTimes</text></g><!--link o3 to o5--><g class="link" data-entity-1="o3" data-entity-2="o5" data-source-line="81" data-uid="lnk29" id="link_o3_o5"><path codeLine="81" d="M1135.69,436.2983 C1164.36,427.3583 1190.47,419.2183 1190.47,419.2183 C1190.47,419.2183 1220.47,300.2183 1220.47,300.2183 C1220.47,300.2183 1477.47,219.2183 1477.47,219.2183 C1477.47,219.2183 1503.5145,212.9936 1541.8645,203.8236" fill="none" id="o3-to-o5" style="stroke:#181818;stroke-width:1;"/><polygon fill="#181818" points="1547.7,202.4283,1538.0165,200.631,1542.8371,203.5911,1539.877,208.4116,1547.7,202.4283" style="stroke:#181818;stroke-width:1;"/><text fill="#000000" font-family="sans-serif" font-size="13" lengthAdjust="spacing" textLength="225.0688" x="1221.47" y="225.8166">core:hasValueExpressionAtAllTimes</text></g><!--link o3 to o6--><g class="link" data-entity-1="o3" data-entity-2="o6" data-source-line="83" data-uid="lnk30" id="link_o3_o6"><path codeLine="83" d="M1135.69,436.2983 C1164.36,427.3583 1190.47,419.2183 1190.47,419.2183 C1190.47,419.2183 1220.47,376.2183 1220.47,376.2183 C1220.47,376.2183 1406.2531,331.9778 1541.5531,299.7678" fill="none" id="o3-to-o6" style="stroke:#181818;stroke-width:1;"/><polygon fill="#181818" points="1547.39,298.3783,1537.7083,296.5714,1542.5259,299.5362,1539.561,304.3539,1547.39,298.3783" style="stroke:#181818;stroke-width:1;"/><text fill="#000000" font-family="sans-serif" font-size="13" lengthAdjust="spacing" textLength="225.0688" x="1221.47" y="321.5566">core:hasValueExpressionAtAllTimes</text></g><!--link o3 to o7--><g class="link" data-entity-1="o3" data-entity-2="o7" data-source-line="85" data-uid="lnk31" id="link_o3_o7"><path codeLine="85" d="M1175.53,441.3083 C1200.91,437.3083 1220.47,434.2183 1220.47,434.2183 C1220.47,434.2183 1370.1408,410.9976 1499.9108,390.8776" fill="none" id="o3-to-o7" style="stroke:#181818;stroke-width:1;"/><polygon fill="#181818" points="1505.84,389.9583,1496.3334,387.3844,1500.899,390.7243,1497.5591,395.29,1505.84,389.9583" style="stroke:#181818;stroke-width:1;"/><text fill="#000000" font-family="sans-serif" font-size="13" lengthAdjust="spacing" textLength="225.0688" x="1221.47" y="397.4166">core:hasValueExpressionAtAllTimes</text></g><!--link o3 to o8--><g class="link" data-entity-1="o3" data-entity-2="o8" data-source-line="87" data-uid="lnk32" id="link_o3_o8"><path codeLine="87" d="M1175.54,459.2183 C1268.59,459.2183 1395.81,459.2183 1501.73,459.2183" fill="none" id="o3-to-o8" style="stroke:#181818;stroke-width:1;"/><polygon fill="#181818" points="1507.73,459.2183,1498.73,455.2183,1502.73,459.2183,1498.73,463.2183,1507.73,459.2183" style="stroke:#181818;stroke-width:1;"/><text fill="#000000" font-family="sans-serif" font-size="13" lengthAdjust="spacing" textLength="225.0688" x="1221.47" y="455.7866">core:hasValueExpressionAtAllTimes</text></g><!--link o3 to o9--><g class="link" data-entity-1="o3" data-entity-2="o9" data-source-line="89" data-uid="lnk33" id="link_o3_o9"><path codeLine="89" d="M1175.53,477.1183 C1200.91,481.1283 1220.47,484.2183 1220.47,484.2183 C1220.47,484.2183 1348.2909,504.0389 1471.2109,523.0989" fill="none" id="o3-to-o9" style="stroke:#181818;stroke-width:1;"/><polygon fill="#181818" points="1477.14,524.0183,1468.8592,518.6865,1472.199,523.2521,1467.6334,526.592,1477.14,524.0183" style="stroke:#181818;stroke-width:1;"/><text fill="#000000" font-family="sans-serif" font-size="13" lengthAdjust="spacing" textLength="225.0688" x="1221.47" y="480.7866">core:hasValueExpressionAtAllTimes</text></g><!--link o3 to o10--><g class="link" data-entity-1="o3" data-entity-2="o10" data-source-line="91" data-uid="lnk34" id="link_o3_o10"><path codeLine="91" d="M1105.86,482.1183 C1152.71,506.6783 1220.47,542.2183 1220.47,542.2183 C1220.47,542.2183 1406.2532,586.4483 1541.5532,618.6683" fill="none" id="o3-to-o10" style="stroke:#181818;stroke-width:1;"/><polygon fill="#181818" points="1547.39,620.0583,1539.5615,614.0822,1542.526,618.9,1537.7082,621.8645,1547.39,620.0583" style="stroke:#181818;stroke-width:1;"/><text fill="#000000" font-family="sans-serif" font-size="13" lengthAdjust="spacing" textLength="225.0688" x="1221.47" y="538.7866">core:hasValueExpressionAtAllTimes</text></g><!--link o1 to o11--><g class="link" data-entity-1="o1" data-entity-2="o11" data-source-line="93" data-uid="lnk35" id="link_o1_o11"><path codeLine="93" d="M566.87,924.4983 C607.19,890.9783 677.9,832.2183 677.9,832.2183 C677.9,832.2183 852.733,793.3406 965.663,768.2306" fill="none" id="o1-to-o11" style="stroke:#181818;stroke-width:1;"/><polygon fill="#181818" points="971.52,766.9283,961.8664,764.9771,966.6392,768.0135,963.6028,772.7864,971.52,766.9283" style="stroke:#181818;stroke-width:1;"/><text fill="#000000" font-family="sans-serif" font-size="13" lengthAdjust="spacing" textLength="74.7246" x="752.9" y="781.1966">ex:joinedTo</text></g><!--link o11 to o12--><g class="link" data-entity-1="o11" data-entity-2="o12" data-source-line="94" data-uid="lnk36" id="link_o11_o12"><path codeLine="94" d="M1150.78,747.2183 C1247.84,747.2183 1399.36,747.2183 1517.04,747.2183" fill="none" id="o11-to-o12" style="stroke:#181818;stroke-width:1;"/><polygon fill="#181818" points="1523.04,747.2183,1514.04,743.2183,1518.04,747.2183,1514.04,751.2183,1523.04,747.2183" style="stroke:#181818;stroke-width:1;"/><text fill="#000000" font-family="sans-serif" font-size="13" lengthAdjust="spacing" textLength="126.0771" x="1270.97" y="743.7866">cmns-dsg:hasName</text></g><!--link o11 to o13--><g class="link" data-entity-1="o11" data-entity-2="o13" data-source-line="96" data-uid="lnk37" id="link_o11_o13"><path codeLine="96" d="M1150.58,761.1783 C1186.84,766.9083 1220.47,772.2183 1220.47,772.2183 C1220.47,772.2183 1402.696,797.2901 1537.756,815.8801" fill="none" id="o11-to-o13" style="stroke:#181818;stroke-width:1;"/><polygon fill="#181818" points="1543.7,816.6983,1535.3295,811.5084,1538.7467,816.0165,1534.2386,819.4337,1543.7,816.6983" style="stroke:#181818;stroke-width:1;"/><text fill="#000000" font-family="sans-serif" font-size="13" lengthAdjust="spacing" textLength="171.3169" x="1248.47" y="768.7866">core:measuresAtSomeTime</text></g><!--link o1 to o14--><g class="link" data-entity-1="o1" data-entity-2="o14" data-source-line="97" data-uid="lnk38" id="link_o1_o14"><path codeLine="97" d="M600.62,924.2583 C637.69,910.3283 677.9,895.2183 677.9,895.2183 C677.9,895.2183 869.4827,861.139 980.5727,841.379" fill="none" id="o1-to-o14" style="stroke:#181818;stroke-width:1;"/><polygon fill="#181818" points="986.48,840.3283,976.9186,837.9662,981.5573,841.2039,978.3196,845.8426,986.48,840.3283" style="stroke:#181818;stroke-width:1;"/><text fill="#000000" font-family="sans-serif" font-size="13" lengthAdjust="spacing" textLength="74.7246" x="752.9" y="853.7166">ex:joinedTo</text></g><!--link o14 to o15--><g class="link" data-entity-1="o14" data-entity-2="o15" data-source-line="98" data-uid="lnk39" id="link_o14_o15"><path codeLine="98" d="M1135.89,838.6983 C1233.62,853.9283 1402.3415,880.2246 1527.0515,899.6546" fill="none" id="o14-to-o15" style="stroke:#181818;stroke-width:1;"/><polygon fill="#181818" points="1532.98,900.5783,1524.7031,895.2405,1528.0396,899.8086,1523.4715,903.1451,1532.98,900.5783" style="stroke:#181818;stroke-width:1;"/><text fill="#000000" font-family="sans-serif" font-size="13" lengthAdjust="spacing" textLength="126.0771" x="1270.97" y="849.5266">cmns-dsg:hasName</text></g><!--link o1 to o16--><g class="link" data-entity-1="o1" data-entity-2="o16" data-source-line="100" data-uid="lnk40" id="link_o1_o16"><path codeLine="100" d="M648.36,938.8583 C730.93,932.5083 838.7176,924.2274 925.7576,917.5474" fill="none" id="o1-to-o16" style="stroke:#181818;stroke-width:1;"/><polygon fill="#181818" points="931.74,917.0883,922.4603,913.7887,926.7547,917.4709,923.0725,921.7652,931.74,917.0883" style="stroke:#181818;stroke-width:1;"/><text fill="#000000" font-family="sans-serif" font-size="13" lengthAdjust="spacing" textLength="107.6309" x="736.4" y="916.7266">core:hasFunction</text></g><!--link o1 to o17--><g class="link" data-entity-1="o1" data-entity-2="o17" data-source-line="101" data-uid="lnk41" id="link_o1_o17"><path codeLine="101" d="M648.22,958.2083 C665.55,959.9683 677.9,961.2183 677.9,961.2183 C677.9,961.2183 831.6939,971.6708 944.6539,979.3608" fill="none" id="o1-to-o17" style="stroke:#181818;stroke-width:1;"/><polygon fill="#181818" points="950.64,979.7683,941.9325,975.1662,945.6515,979.4287,941.3891,983.1478,950.64,979.7683" style="stroke:#181818;stroke-width:1;"/><text fill="#000000" font-family="sans-serif" font-size="13" lengthAdjust="spacing" textLength="171.3169" x="704.4" y="957.7866">core:measuresAtSomeTime</text></g><!--link o1 to o18--><g class="link" data-entity-1="o1" data-entity-2="o18" data-source-line="102" data-uid="lnk42" id="link_o1_o18"><path codeLine="102" d="M598.21,970.1183 C635.93,984.8383 677.9,1001.2183 677.9,1001.2183 C677.9,1001.2183 854.7374,1031.7476 967.5274,1051.2176" fill="none" id="o1-to-o18" style="stroke:#181818;stroke-width:1;"/><polygon fill="#181818" points="973.44,1052.2383,965.2516,1046.7656,968.5129,1051.3878,963.8907,1054.649,973.44,1052.2383" style="stroke:#181818;stroke-width:1;"/><text fill="#000000" font-family="sans-serif" font-size="13" lengthAdjust="spacing" textLength="171.3169" x="704.4" y="997.7866">core:measuresAtSomeTime</text></g><!--link o1 to o19--><g class="link" data-entity-1="o1" data-entity-2="o19" data-source-line="103" data-uid="lnk43" id="link_o1_o19"><path codeLine="103" d="M566.87,970.1383 C607.19,1003.9383 677.9,1063.2183 677.9,1063.2183 C677.9,1063.2183 841.6198,1099.1905 954.8798,1124.0805" fill="none" id="o1-to-o19" style="stroke:#181818;stroke-width:1;"/><polygon fill="#181818" points="960.74,1125.3683,952.8083,1119.5298,955.8565,1124.2951,951.0912,1127.3433,960.74,1125.3683" style="stroke:#181818;stroke-width:1;"/><text fill="#000000" font-family="sans-serif" font-size="13" lengthAdjust="spacing" textLength="171.3169" x="704.4" y="1059.7866">core:measuresAtSomeTime</text></g><!--link o1 to o20--><g class="link" data-entity-1="o1" data-entity-2="o20" data-source-line="104" data-uid="lnk44" id="link_o1_o20"><path codeLine="104" d="M556.22,969.8883 C593.02,1019.8983 677.9,1135.2183 677.9,1135.2183 C677.9,1135.2183 847.6565,1176.0748 960.8365,1203.3048" fill="none" id="o1-to-o20" style="stroke:#181818;stroke-width:1;"/><polygon fill="#181818" points="966.67,1204.7083,958.8553,1198.714,961.8087,1203.5387,956.984,1206.4921,966.67,1204.7083" style="stroke:#181818;stroke-width:1;"/><text fill="#000000" font-family="sans-serif" font-size="13" lengthAdjust="spacing" textLength="222.5425" x="678.9" y="1131.7866">obo:has member part at some time</text></g><!--link o20 to o21--><g class="link" data-entity-1="o20" data-entity-2="o21" data-source-line="105" data-uid="lnk45" id="link_o20_o21"><path codeLine="105" d="M1155.76,1226.6083 C1252.28,1225.9783 1398.5801,1225.0268 1513.9001,1224.2868" fill="none" id="o20-to-o21" style="stroke:#181818;stroke-width:1;"/><polygon fill="#181818" points="1519.9,1224.2483,1510.8745,1220.3061,1514.9001,1224.2804,1510.9259,1228.306,1519.9,1224.2483" style="stroke:#181818;stroke-width:1;"/><text fill="#000000" font-family="sans-serif" font-size="13" lengthAdjust="spacing" textLength="126.0771" x="1270.97" y="1221.3066">cmns-dsg:hasName</text></g><!--link o1 to o22--><g class="link" data-entity-1="o1" data-entity-2="o22" data-source-line="107" data-uid="lnk46" id="link_o1_o22"><path codeLine="107" d="M551.32,969.8083 C584.79,1033.8983 677.9,1212.2183 677.9,1212.2183 C677.9,1212.2183 859.5217,1259.2437 971.9017,1288.3537" fill="none" id="o1-to-o22" style="stroke:#181818;stroke-width:1;"/><polygon fill="#181818" points="977.71,1289.8583,970.0006,1283.7293,972.8697,1288.6045,967.9945,1291.4737,977.71,1289.8583" style="stroke:#181818;stroke-width:1;"/><text fill="#000000" font-family="sans-serif" font-size="13" lengthAdjust="spacing" textLength="222.5425" x="678.9" y="1208.7866">obo:has member part at some time</text></g><!--link o22 to o23--><g class="link" data-entity-1="o22" data-entity-2="o23" data-source-line="108" data-uid="lnk47" id="link_o22_o23"><path codeLine="108" d="M1144.63,1312.2883 C1243.16,1313.5683 1403.8505,1315.6504 1524.7605,1317.2204" fill="none" id="o22-to-o23" style="stroke:#181818;stroke-width:1;"/><polygon fill="#181818" points="1530.76,1317.2983,1521.8127,1313.1818,1525.7604,1317.2334,1521.7088,1321.1811,1530.76,1317.2983" style="stroke:#181818;stroke-width:1;"/><text fill="#000000" font-family="sans-serif" font-size="13" lengthAdjust="spacing" textLength="126.0771" x="1270.97" y="1309.9266">cmns-dsg:hasName</text></g><!--link o24 to o1--><g class="link" data-entity-1="o24" data-entity-2="o1" data-source-line="110" data-uid="lnk48" id="link_o24_o1"><path codeLine="110" d="M145.51,947.2183 C220.29,947.2183 335.12,947.2183 422.89,947.2183" fill="none" id="o24-to-o1" style="stroke:#181818;stroke-width:1;"/><polygon fill="#181818" points="428.89,947.2183,419.89,943.2183,423.89,947.2183,419.89,951.2183,428.89,947.2183" style="stroke:#181818;stroke-width:1;"/><text fill="#000000" font-family="sans-serif" font-size="13" lengthAdjust="spacing" textLength="222.5425" x="176.15" y="943.7866">obo:has member part at some time</text></g><!--SRC=[hPTTRzem58RlyokitQSZWV0HQPFIbdP8XLQ0AgQgganmYrixpcAZmQRzzzb9I1m-McVZadDUF-TrV7mi-1kEOfX02WYEaDZ42CICRDGFYw1d0GG32NvP2h302Ge5Pf4bi2083E4l-6QlBJP_bN7mwU7Xx7CUEriAIi022kZdaSV7Jm1om1pmsm9fbIy0hVqRMGOcGwQmamqNY5hWJq7K0NO4ASeOhiO8QSJj1N_nHp9zT2sFKPYjRUfhMOByIyJnIpIH0loCGvZkxpsCVTCVNK-_sID6SGH9HctjKkyXMQ7-EauGvnyJ1wD-C7wwkXrVzEqXN6EweXdNEo4NHoMt_L_S-_xDxSLW-jqU1tU3owhZpad9kkVkQSXtuzlhSJ0SzdUCzqwFrzqxZHhyyYQXA2IChn94zwvKcIhkrixbceXa5GgfEEAz96YNowbxkpIAlBunIg0gcSFqw_OZzgUbuF1-r_98-FvUit2nprQzVMQhzJrwjIV8yofAPryEQ5STt2MoW9mTOJR9Bc0CvvXWiJdAYnd7Icf3wNmxHfnEzNDTOXuJ62AA8l4XAKTq_m6nVswzkkTcp-QG41ucwEV-wMd9xHcwZUeNFDyAZfei6VfJu9YSPCKdPO8bXpocYSAVM_KtLCdZtjArkgzcBL-xTWeNEvq-XE5IFSoAuG3R_geUGxyii8GyhP55rPIHaGccCT4cJJfu96zMC9fRjPA42PwZnVd6ak4qsz9OEqCh404XKqmHjogoOoNRNkEiKO0zCx1d0FRSXavkcv7R1cGTsp73TWomdKR5SDUCt3KWEngsPuRjrJSitpCZT4NthkMy5-KZvgjMVsMoqHTJPgb8bZdSwev9hnUFb8OhkfuYg58y41D6aJ9UkcdjkMdb6U-m6vDkdJq5iy6aBABtuLN-q9JPZedFhecePo1orO6nELDU04LqZX8W_ny800NWKWn4gfQoJEuSdZ-EoMSe9dfPtJMhxkRovk7gJPFgwSosr8pDlev1vRy0]--></g></svg>