<svg xmlns="http://www.w3.org/2000/svg" xmlns:xlink="http://www.w3.org/1999/xlink" contentStyleType="text/css" data-diagram-type="CLASS" height="876px" preserveAspectRatio="none" style="width:1786px;height:876px;background:#FFFFFF;" version="1.1" viewBox="0 0 1786 876" width="1786px" zoomAndPan="magnify"><title>Mazak-c2</title><defs/><g><text fill="#000000" font-family="sans-serif" font-size="14" font-weight="bold" lengthAdjust="spacing" textLength="71.9277" x="850.332" y="23.5352">Mazak-c2</text><g class="entity" data-entity="o1" data-source-line="4" data-uid="ent0002" id="entity_o1"><rect fill="#F1F1F1" height="44.9766" rx="2.5" ry="2.5" style="stroke:#181818;stroke-width:0.5;" width="220.7559" x="429.15" y="504.4883"/><a href="./Mazak-c2.html" target="_top" title="./Mazak-c2.html" xlink:actuate="onRequest" xlink:href="./Mazak-c2.html" xlink:show="new" xlink:title="./Mazak-c2.html" xlink:type="simple"><text fill="#0000FF" font-family="sans-serif" font-size="14" lengthAdjust="spacing" text-decoration="underline" textLength="101.7939" x="488.631" y="520.0234">data:Mazak-c2</text></a><line style="stroke:#181818;stroke-width:0.5;" x1="430.15" x2="648.9059" y1="524.9766" y2="524.9766"/><text fill="#000000" font-family="sans-serif" font-size="14" lengthAdjust="spacing" textLength="208.7559" x="435.15" y="542.5117">type = ex:RotaryMotionSystem</text></g><g class="entity" data-entity="o2" data-source-line="7" data-uid="ent0003" id="entity_o2"><rect fill="#F1F1F1" height="61.4648" rx="2.5" ry="2.5" style="stroke:#181818;stroke-width:0.5;" width="264.6699" x="933.91" y="128.2483"/><text fill="#000000" font-family="sans-serif" font-size="14" lengthAdjust="spacing" textLength="147.1846" x="992.6527" y="143.7834">data:Mazak-c2-name</text><line style="stroke:#181818;stroke-width:0.5;" x1="934.91" x2="1197.5799" y1="148.7366" y2="148.7366"/><text fill="#000000" font-family="sans-serif" font-size="14" lengthAdjust="spacing" textLength="161.3691" x="939.91" y="166.2717">type = cmns-dsg:Name</text><text fill="#000000" font-family="sans-serif" font-size="14" lengthAdjust="spacing" textLength="252.6699" x="939.91" y="182.76">core:hasSimpleExpressionValue = C2</text></g><g class="entity" data-entity="o3" data-source-line="10" data-uid="ent0004" id="entity_o3"><rect fill="#F1F1F1" height="44.9766" rx="2.5" ry="2.5" style="stroke:#181818;stroke-width:0.5;" width="227.8037" x="952.34" y="224.4883"/><text fill="#000000" font-family="sans-serif" font-size="14" lengthAdjust="spacing" textLength="140.8135" x="995.8351" y="240.0234">data:Mazak-c2-spec</text><line style="stroke:#181818;stroke-width:0.5;" x1="953.34" x2="1179.1437" y1="244.9766" y2="244.9766"/><text fill="#000000" font-family="sans-serif" font-size="14" lengthAdjust="spacing" textLength="215.8037" x="958.34" y="262.5117">type = core:DesignSpecification</text></g><g class="entity" data-entity="o4" data-source-line="13" data-uid="ent0005" id="entity_o4"><rect fill="#F1F1F1" height="44.9766" rx="2.5" ry="2.5" style="stroke:#181818;stroke-width:0.5;" width="283.4385" x="1491.36" y="44.4883"/><text fill="#000000" font-family="sans-serif" font-size="14" lengthAdjust="spacing" textLength="269.4385" x="1498.36" y="60.0234">data:Mazak-c2-spec-ANGLE-Maximum</text><line style="stroke:#181818;stroke-width:0.5;" x1="1492.36" x2="1773.7985" y1="64.9766" y2="64.9766"/><text fill="#000000" font-family="sans-serif" font-size="14" lengthAdjust="spacing" textLength="194.4209" x="1497.36" y="82.5117">type = core:ValueExpression</text></g><g class="entity" data-entity="o5" data-source-line="16" data-uid="ent0006" id="entity_o5"><rect fill="#F1F1F1" height="44.9766" rx="2.5" ry="2.5" style="stroke:#181818;stroke-width:0.5;" width="279.8564" x="1493.15" y="124.4883"/><text fill="#000000" font-family="sans-serif" font-size="14" lengthAdjust="spacing" textLength="265.8564" x="1500.15" y="140.0234">data:Mazak-c2-spec-ANGLE-Minimum</text><line style="stroke:#181818;stroke-width:0.5;" x1="1494.15" x2="1772.0064" y1="144.9766" y2="144.9766"/><text fill="#000000" font-family="sans-serif" font-size="14" lengthAdjust="spacing" textLength="194.4209" x="1499.15" y="162.5117">type = core:ValueExpression</text></g><g class="entity" data-entity="o6" data-source-line="19" data-uid="ent0007" id="entity_o6"><rect fill="#F1F1F1" height="44.9766" rx="2.5" ry="2.5" style="stroke:#181818;stroke-width:0.5;" width="295.0117" x="1485.58" y="204.4883"/><text fill="#000000" font-family="sans-serif" font-size="14" lengthAdjust="spacing" textLength="281.0117" x="1492.58" y="220.0234">data:Mazak-c2-spec-TORQUE-Maximum</text><line style="stroke:#181818;stroke-width:0.5;" x1="1486.58" x2="1779.5917" y1="224.9766" y2="224.9766"/><text fill="#000000" font-family="sans-serif" font-size="14" lengthAdjust="spacing" textLength="194.4209" x="1491.58" y="242.5117">type = core:ValueExpression</text></g><g class="entity" data-entity="o7" data-source-line="22" data-uid="ent0008" id="entity_o7"><rect fill="#F1F1F1" height="44.9766" rx="2.5" ry="2.5" style="stroke:#181818;stroke-width:0.5;" width="291.4297" x="1487.37" y="284.4883"/><text fill="#000000" font-family="sans-serif" font-size="14" lengthAdjust="spacing" textLength="277.4297" x="1494.37" y="300.0234">data:Mazak-c2-spec-TORQUE-Minimum</text><line style="stroke:#181818;stroke-width:0.5;" x1="1488.37" x2="1777.7997" y1="304.9766" y2="304.9766"/><text fill="#000000" font-family="sans-serif" font-size="14" lengthAdjust="spacing" textLength="194.4209" x="1493.37" y="322.5117">type = core:ValueExpression</text></g><g class="entity" data-entity="o8" data-source-line="25" data-uid="ent0009" id="entity_o8"><rect fill="#F1F1F1" height="44.9766" rx="2.5" ry="2.5" style="stroke:#181818;stroke-width:0.5;" width="148.7705" x="991.86" y="344.4883"/><a href="./Mazak-trundle.html" target="_top" title="./Mazak-trundle.html" xlink:actuate="onRequest" xlink:href="./Mazak-trundle.html" xlink:show="new" xlink:title="./Mazak-trundle.html" xlink:type="simple"><text fill="#0000FF" font-family="sans-serif" font-size="14" lengthAdjust="spacing" text-decoration="underline" textLength="134.7705" x="998.86" y="360.0234">data:Mazak-trundle</text></a><line style="stroke:#181818;stroke-width:0.5;" x1="992.86" x2="1139.6305" y1="364.9766" y2="364.9766"/><text fill="#000000" font-family="sans-serif" font-size="14" lengthAdjust="spacing" textLength="131.7832" x="997.86" y="382.5117">type = ex:Structure</text></g><g class="entity" data-entity="o9" data-source-line="28" data-uid="ent0010" id="entity_o9"><rect fill="#F1F1F1" height="44.9766" rx="2.5" ry="2.5" style="stroke:#181818;stroke-width:0.5;" width="194.1611" x="1536" y="364.4883"/><text fill="#000000" font-family="sans-serif" font-size="14" lengthAdjust="spacing" textLength="180.1611" x="1543" y="380.0234">data:Mazak-trundle-name</text><line style="stroke:#181818;stroke-width:0.5;" x1="1537" x2="1729.1611" y1="384.9766" y2="384.9766"/><text fill="#000000" font-family="sans-serif" font-size="14" lengthAdjust="spacing" textLength="161.3691" x="1542" y="402.5117">type = cmns-dsg:Name</text></g><g class="entity" data-entity="o10" data-source-line="31" data-uid="ent0011" id="entity_o10"><rect fill="#F1F1F1" height="44.9766" rx="2.5" ry="2.5" style="stroke:#181818;stroke-width:0.5;" width="143.7832" x="994.35" y="424.4883"/><a href="./Mazak-table.html" target="_top" title="./Mazak-table.html" xlink:actuate="onRequest" xlink:href="./Mazak-table.html" xlink:show="new" xlink:title="./Mazak-table.html" xlink:type="simple"><text fill="#0000FF" font-family="sans-serif" font-size="14" lengthAdjust="spacing" text-decoration="underline" textLength="119.3965" x="1006.5434" y="440.0234">data:Mazak-table</text></a><line style="stroke:#181818;stroke-width:0.5;" x1="995.35" x2="1137.1332" y1="444.9766" y2="444.9766"/><text fill="#000000" font-family="sans-serif" font-size="14" lengthAdjust="spacing" textLength="131.7832" x="1000.35" y="462.5117">type = ex:Structure</text></g><g class="entity" data-entity="o11" data-source-line="34" data-uid="ent0012" id="entity_o11"><rect fill="#F1F1F1" height="44.9766" rx="2.5" ry="2.5" style="stroke:#181818;stroke-width:0.5;" width="178.7871" x="1543.69" y="444.4883"/><text fill="#000000" font-family="sans-serif" font-size="14" lengthAdjust="spacing" textLength="164.7871" x="1550.69" y="460.0234">data:Mazak-table-name</text><line style="stroke:#181818;stroke-width:0.5;" x1="1544.69" x2="1721.4771" y1="464.9766" y2="464.9766"/><text fill="#000000" font-family="sans-serif" font-size="14" lengthAdjust="spacing" textLength="161.3691" x="1549.69" y="482.5117">type = cmns-dsg:Name</text></g><g class="entity" data-entity="o12" data-source-line="37" data-uid="ent0013" id="entity_o12"><rect fill="#F1F1F1" height="44.9766" rx="2.5" ry="2.5" style="stroke:#181818;stroke-width:0.5;" width="254.9287" x="938.78" y="504.4883"/><text fill="#000000" font-family="sans-serif" font-size="14" lengthAdjust="spacing" textLength="166.1611" x="983.1638" y="520.0234">data:Mazak-c2-function</text><line style="stroke:#181818;stroke-width:0.5;" x1="939.78" x2="1192.7087" y1="524.9766" y2="524.9766"/><text fill="#000000" font-family="sans-serif" font-size="14" lengthAdjust="spacing" textLength="242.9287" x="944.78" y="542.5117">type = ex:RevoluteMotionCapability</text></g><g class="entity" data-entity="o13" data-source-line="40" data-uid="ent0014" id="entity_o13"><rect fill="#F1F1F1" height="44.9766" rx="2.5" ry="2.5" style="stroke:#181818;stroke-width:0.5;" width="160.8906" x="985.8" y="584.4883"/><text fill="#000000" font-family="sans-serif" font-size="14" lengthAdjust="spacing" textLength="146.8906" x="992.8" y="600.0234">data:Mazak-c2-angle</text><line style="stroke:#181818;stroke-width:0.5;" x1="986.8" x2="1145.6906" y1="604.9766" y2="604.9766"/><text fill="#000000" font-family="sans-serif" font-size="14" lengthAdjust="spacing" textLength="110.127" x="991.8" y="622.5117">type = qp:Angle</text></g><g class="entity" data-entity="o14" data-source-line="43" data-uid="ent0015" id="entity_o14"><rect fill="#F1F1F1" height="44.9766" rx="2.5" ry="2.5" style="stroke:#181818;stroke-width:0.5;" width="209.5967" x="961.44" y="664.4883"/><text fill="#000000" font-family="sans-serif" font-size="14" lengthAdjust="spacing" textLength="195.5967" x="968.44" y="680.0234">data:Mazak-c2-angle-actual</text><line style="stroke:#181818;stroke-width:0.5;" x1="962.44" x2="1170.0367" y1="684.9766" y2="684.9766"/><text fill="#000000" font-family="sans-serif" font-size="14" lengthAdjust="spacing" textLength="110.127" x="967.44" y="702.5117">type = qp:Angle</text></g><g class="entity" data-entity="o15" data-source-line="46" data-uid="ent0016" id="entity_o15"><rect fill="#F1F1F1" height="44.9766" rx="2.5" ry="2.5" style="stroke:#181818;stroke-width:0.5;" width="207.5254" x="962.48" y="744.4883"/><text fill="#000000" font-family="sans-serif" font-size="14" lengthAdjust="spacing" textLength="193.5254" x="969.48" y="760.0234">data:Mazak-c2-temperature</text><line style="stroke:#181818;stroke-width:0.5;" x1="963.48" x2="1169.0054" y1="764.9766" y2="764.9766"/><text fill="#000000" font-family="sans-serif" font-size="14" lengthAdjust="spacing" textLength="158.4502" x="968.48" y="782.5117">type = qp:Temperature</text></g><g class="entity" data-entity="o16" data-source-line="49" data-uid="ent0017" id="entity_o16"><rect fill="#F1F1F1" height="44.9766" rx="2.5" ry="2.5" style="stroke:#181818;stroke-width:0.5;" width="174.8154" x="978.83" y="824.4883"/><a href="./Mazak-c2-Cmotor.html" target="_top" title="./Mazak-c2-Cmotor.html" xlink:actuate="onRequest" xlink:href="./Mazak-c2-Cmotor.html" xlink:show="new" xlink:title="./Mazak-c2-Cmotor.html" xlink:type="simple"><text fill="#0000FF" font-family="sans-serif" font-size="14" lengthAdjust="spacing" text-decoration="underline" textLength="160.8154" x="985.83" y="840.0234">data:Mazak-c2-Cmotor</text></a><line style="stroke:#181818;stroke-width:0.5;" x1="979.83" x2="1152.6454" y1="844.9766" y2="844.9766"/><text fill="#000000" font-family="sans-serif" font-size="14" lengthAdjust="spacing" textLength="110.1885" x="984.83" y="862.5117">type = ex:Motor</text></g><g class="entity" data-entity="o17" data-source-line="52" data-uid="ent0018" id="entity_o17"><rect fill="#F1F1F1" height="44.9766" rx="2.5" ry="2.5" style="stroke:#181818;stroke-width:0.5;" width="220.2061" x="1522.98" y="824.4883"/><text fill="#000000" font-family="sans-serif" font-size="14" lengthAdjust="spacing" textLength="206.2061" x="1529.98" y="840.0234">data:Mazak-c2-Cmotor-name</text><line style="stroke:#181818;stroke-width:0.5;" x1="1523.98" x2="1742.1861" y1="844.9766" y2="844.9766"/><text fill="#000000" font-family="sans-serif" font-size="14" lengthAdjust="spacing" textLength="161.3691" x="1528.98" y="862.5117">type = cmns-dsg:Name</text></g><g class="entity" data-entity="o18" data-source-line="55" data-uid="ent0019" id="entity_o18"><rect fill="#F1F1F1" height="44.9766" rx="2.5" ry="2.5" style="stroke:#181818;stroke-width:0.5;" width="138.1504" x="7" y="504.4883"/><a href="./Mazak.html" target="_top" title="./Mazak.html" xlink:actuate="onRequest" xlink:href="./Mazak.html" xlink:show="new" xlink:title="./Mazak.html" xlink:type="simple"><text fill="#0000FF" font-family="sans-serif" font-size="14" lengthAdjust="spacing" text-decoration="underline" textLength="77.6699" x="37.2402" y="520.0234">data:Mazak</text></a><line style="stroke:#181818;stroke-width:0.5;" x1="8" x2="144.1504" y1="524.9766" y2="524.9766"/><text fill="#000000" font-family="sans-serif" font-size="14" lengthAdjust="spacing" textLength="126.1504" x="13" y="542.5117">type = ex:Machine</text></g><!--link o1 to o2--><g class="link" data-entity-1="o1" data-entity-2="o2" data-source-line="58" data-uid="lnk20" id="link_o1_o2"><path codeLine="58" d="M553.39,504.0983 C587.9,442.6983 679.91,278.9783 679.91,278.9783 C679.91,278.9783 845.1013,227.5321 959.2713,191.9821" fill="none" id="o1-to-o2" style="stroke:#181818;stroke-width:1;"/><polygon fill="#181818" points="965,190.1983,955.2177,189.0548,960.2261,191.6848,957.5961,196.6931,965,190.1983" style="stroke:#181818;stroke-width:1;"/><text fill="#000000" font-family="sans-serif" font-size="13" lengthAdjust="spacing" textLength="126.0771" x="728.91" y="208.3666">cmns-dsg:hasName</text></g><!--link o1 to o3--><g class="link" data-entity-1="o1" data-entity-2="o3" data-source-line="60" data-uid="lnk21" id="link_o1_o3"><path codeLine="60" d="M561.7,504.1983 C600.69,462.2383 679.91,376.9783 679.91,376.9783 C679.91,376.9783 880.9348,309.1563 991.5548,271.8363" fill="none" id="o1-to-o3" style="stroke:#181818;stroke-width:1;"/><polygon fill="#181818" points="997.24,269.9183,987.4336,269.0052,992.5024,271.5166,989.9909,276.5854,997.24,269.9183" style="stroke:#181818;stroke-width:1;"/><text fill="#000000" font-family="sans-serif" font-size="13" lengthAdjust="spacing" textLength="112.3027" x="735.91" y="300.7666">core:prescribedBy</text></g><!--link o3 to o4--><g class="link" data-entity-1="o3" data-entity-2="o4" data-source-line="61" data-uid="lnk22" id="link_o3_o4"><path codeLine="61" d="M1142.5,224.0583 C1171.84,215.1183 1198.58,206.9783 1198.58,206.9783 C1198.58,206.9783 1228.58,148.9783 1228.58,148.9783 C1228.58,148.9783 1393.9002,115.3833 1513.2702,91.1233" fill="none" id="o3-to-o4" style="stroke:#181818;stroke-width:1;"/><polygon fill="#181818" points="1519.15,89.9283,1509.5337,87.8009,1514.2502,90.9241,1511.1269,95.6406,1519.15,89.9283" style="stroke:#181818;stroke-width:1;"/><text fill="#000000" font-family="sans-serif" font-size="13" lengthAdjust="spacing" textLength="225.0688" x="1229.58" y="99.6366">core:hasValueExpressionAtAllTimes</text></g><!--link o3 to o5--><g class="link" data-entity-1="o3" data-entity-2="o5" data-source-line="62" data-uid="lnk23" id="link_o3_o5"><path codeLine="62" d="M1162.02,224.0683 C1197.14,215.5783 1228.58,207.9783 1228.58,207.9783 C1228.58,207.9783 1370.3274,186.5552 1487.0074,168.9152" fill="none" id="o3-to-o5" style="stroke:#181818;stroke-width:1;"/><polygon fill="#181818" points="1492.94,168.0183,1483.4432,165.4086,1487.9962,168.7657,1484.6391,173.3187,1492.94,168.0183" style="stroke:#181818;stroke-width:1;"/><text fill="#000000" font-family="sans-serif" font-size="13" lengthAdjust="spacing" textLength="225.0688" x="1229.58" y="170.3966">core:hasValueExpressionAtAllTimes</text></g><!--link o3 to o6--><g class="link" data-entity-1="o3" data-entity-2="o6" data-source-line="63" data-uid="lnk24" id="link_o3_o6"><path codeLine="63" d="M1180.53,242.9683 C1268.12,239.8683 1384.0938,235.7608 1479.1938,232.3908" fill="none" id="o3-to-o6" style="stroke:#181818;stroke-width:1;"/><polygon fill="#181818" points="1485.19,232.1783,1476.054,228.4995,1480.1931,232.3554,1476.3373,236.4945,1485.19,232.1783" style="stroke:#181818;stroke-width:1;"/><text fill="#000000" font-family="sans-serif" font-size="13" lengthAdjust="spacing" textLength="225.0688" x="1229.58" y="230.0166">core:hasValueExpressionAtAllTimes</text></g><!--link o3 to o7--><g class="link" data-entity-1="o3" data-entity-2="o7" data-source-line="64" data-uid="lnk25" id="link_o3_o7"><path codeLine="64" d="M1180.61,260.3283 C1207.51,263.4983 1228.58,265.9783 1228.58,265.9783 C1228.58,265.9783 1365.3308,279.8715 1481.0108,291.6315" fill="none" id="o3-to-o7" style="stroke:#181818;stroke-width:1;"/><polygon fill="#181818" points="1486.98,292.2383,1478.4307,287.3485,1482.0056,291.7326,1477.6216,295.3075,1486.98,292.2383" style="stroke:#181818;stroke-width:1;"/><text fill="#000000" font-family="sans-serif" font-size="13" lengthAdjust="spacing" textLength="225.0688" x="1229.58" y="262.5466">core:hasValueExpressionAtAllTimes</text></g><!--link o1 to o8--><g class="link" data-entity-1="o1" data-entity-2="o8" data-source-line="65" data-uid="lnk26" id="link_o1_o8"><path codeLine="65" d="M579.72,504.1983 C620.95,480.2483 679.91,445.9783 679.91,445.9783 C679.91,445.9783 873.6323,406.2634 985.5223,383.3234" fill="none" id="o1-to-o8" style="stroke:#181818;stroke-width:1;"/><polygon fill="#181818" points="991.4,382.1183,981.78,380.0074,986.5019,383.1225,983.3868,387.8444,991.4,382.1183" style="stroke:#181818;stroke-width:1;"/><text fill="#000000" font-family="sans-serif" font-size="13" lengthAdjust="spacing" textLength="74.7246" x="754.91" y="398.3166">ex:joinedTo</text></g><!--link o8 to o9--><g class="link" data-entity-1="o8" data-entity-2="o9" data-source-line="66" data-uid="lnk27" id="link_o8_o9"><path codeLine="66" d="M1141.08,369.5983 C1242.16,373.1783 1417.7637,379.3964 1529.5237,383.3464" fill="none" id="o8-to-o9" style="stroke:#181818;stroke-width:1;"/><polygon fill="#181818" points="1535.52,383.5583,1526.6669,379.2429,1530.5231,383.3817,1526.3843,387.2379,1535.52,383.5583" style="stroke:#181818;stroke-width:1;"/><text fill="#000000" font-family="sans-serif" font-size="13" lengthAdjust="spacing" textLength="126.0771" x="1279.08" y="369.4566">cmns-dsg:hasName</text></g><!--link o1 to o10--><g class="link" data-entity-1="o1" data-entity-2="o10" data-source-line="67" data-uid="lnk28" id="link_o1_o10"><path codeLine="67" d="M650.35,507.2783 C667.62,504.1883 679.91,501.9783 679.91,501.9783 C679.91,501.9783 876.8403,473.8765 988.1803,457.9765" fill="none" id="o1-to-o10" style="stroke:#181818;stroke-width:1;"/><polygon fill="#181818" points="994.12,457.1283,984.6449,454.4408,989.1702,457.8351,985.7759,462.3605,994.12,457.1283" style="stroke:#181818;stroke-width:1;"/><text fill="#000000" font-family="sans-serif" font-size="13" lengthAdjust="spacing" textLength="74.7246" x="754.91" y="467.7566">ex:joinedTo</text></g><!--link o10 to o11--><g class="link" data-entity-1="o10" data-entity-2="o11" data-source-line="68" data-uid="lnk29" id="link_o10_o11"><path codeLine="68" d="M1138.49,449.4983 C1241.41,453.1483 1425.5438,459.666 1537.4038,463.626" fill="none" id="o10-to-o11" style="stroke:#181818;stroke-width:1;"/><polygon fill="#181818" points="1543.4,463.8383,1534.5472,459.5224,1538.4031,463.6614,1534.2641,467.5174,1543.4,463.8383" style="stroke:#181818;stroke-width:1;"/><text fill="#000000" font-family="sans-serif" font-size="13" lengthAdjust="spacing" textLength="126.0771" x="1279.08" y="449.4566">cmns-dsg:hasName</text></g><!--link o1 to o12--><g class="link" data-entity-1="o1" data-entity-2="o12" data-source-line="69" data-uid="lnk30" id="link_o1_o12"><path codeLine="69" d="M650.21,526.9783 C734.33,526.9783 844.57,526.9783 932.64,526.9783" fill="none" id="o1-to-o12" style="stroke:#181818;stroke-width:1;"/><polygon fill="#181818" points="938.64,526.9783,929.64,522.9783,933.64,526.9783,929.64,530.9783,938.64,526.9783" style="stroke:#181818;stroke-width:1;"/><text fill="#000000" font-family="sans-serif" font-size="13" lengthAdjust="spacing" textLength="107.6309" x="738.41" y="523.5466">core:hasFunction</text></g><!--link o1 to o13--><g class="link" data-entity-1="o1" data-entity-2="o13" data-source-line="70" data-uid="lnk31" id="link_o1_o13"><path codeLine="70" d="M650.35,546.6783 C667.62,549.7783 679.91,551.9783 679.91,551.9783 C679.91,551.9783 866.5902,578.6305 979.4602,594.7405" fill="none" id="o1-to-o13" style="stroke:#181818;stroke-width:1;"/><polygon fill="#181818" points="985.4,595.5883,977.0555,590.3567,980.4502,594.8818,975.9251,598.2765,985.4,595.5883" style="stroke:#181818;stroke-width:1;"/><text fill="#000000" font-family="sans-serif" font-size="13" lengthAdjust="spacing" textLength="171.3169" x="706.41" y="548.5466">core:measuresAtSomeTime</text></g><!--link o1 to o14--><g class="link" data-entity-1="o1" data-entity-2="o14" data-source-line="71" data-uid="lnk32" id="link_o1_o14"><path codeLine="71" d="M579.72,549.7583 C620.95,573.7183 679.91,607.9783 679.91,607.9783 C679.91,607.9783 840.9722,641.0035 955.0822,664.3935" fill="none" id="o1-to-o14" style="stroke:#181818;stroke-width:1;"/><polygon fill="#181818" points="960.96,665.5983,952.9465,659.8725,956.0618,664.5943,951.3401,667.7096,960.96,665.5983" style="stroke:#181818;stroke-width:1;"/><text fill="#000000" font-family="sans-serif" font-size="13" lengthAdjust="spacing" textLength="171.3169" x="706.41" y="604.5466">core:measuresAtSomeTime</text></g><!--link o1 to o15--><g class="link" data-entity-1="o1" data-entity-2="o15" data-source-line="72" data-uid="lnk33" id="link_o1_o15"><path codeLine="72" d="M561.7,549.7583 C600.69,591.7283 679.91,676.9783 679.91,676.9783 C679.91,676.9783 846.9973,716.0034 961.1673,742.6734" fill="none" id="o1-to-o15" style="stroke:#181818;stroke-width:1;"/><polygon fill="#181818" points="967.01,744.0383,959.1558,738.0959,962.1411,742.9009,957.336,745.8861,967.01,744.0383" style="stroke:#181818;stroke-width:1;"/><text fill="#000000" font-family="sans-serif" font-size="13" lengthAdjust="spacing" textLength="171.3169" x="706.41" y="673.5466">core:measuresAtSomeTime</text></g><!--link o1 to o16--><g class="link" data-entity-1="o1" data-entity-2="o16" data-source-line="73" data-uid="lnk34" id="link_o1_o16"><path codeLine="73" d="M554.66,549.7883 C590.09,606.9983 679.91,751.9783 679.91,751.9783 C679.91,751.9783 859.3244,796.212 972.9344,824.222" fill="none" id="o1-to-o16" style="stroke:#181818;stroke-width:1;"/><polygon fill="#181818" points="978.76,825.6583,970.9792,819.6202,973.9054,824.4614,969.0642,827.3876,978.76,825.6583" style="stroke:#181818;stroke-width:1;"/><text fill="#000000" font-family="sans-serif" font-size="13" lengthAdjust="spacing" textLength="222.5425" x="680.91" y="748.5466">obo:has member part at some time</text></g><!--link o16 to o17--><g class="link" data-entity-1="o16" data-entity-2="o17" data-source-line="74" data-uid="lnk35" id="link_o16_o17"><path codeLine="74" d="M1153.95,846.9783 C1252.91,846.9783 1408.94,846.9783 1516.55,846.9783" fill="none" id="o16-to-o17" style="stroke:#181818;stroke-width:1;"/><polygon fill="#181818" points="1522.55,846.9783,1513.55,842.9783,1517.55,846.9783,1513.55,850.9783,1522.55,846.9783" style="stroke:#181818;stroke-width:1;"/><text fill="#000000" font-family="sans-serif" font-size="13" lengthAdjust="spacing" textLength="126.0771" x="1279.08" y="843.5466">cmns-dsg:hasName</text></g><!--link o18 to o1--><g class="link" data-entity-1="o18" data-entity-2="o1" data-source-line="75" data-uid="lnk36" id="link_o18_o1"><path codeLine="75" d="M145.16,526.9783 C219.87,526.9783 334.87,526.9783 422.97,526.9783" fill="none" id="o18-to-o1" style="stroke:#181818;stroke-width:1;"/><polygon fill="#181818" points="428.97,526.9783,419.97,522.9783,423.97,526.9783,419.97,530.9783,428.97,526.9783" style="stroke:#181818;stroke-width:1;"/><text fill="#000000" font-family="sans-serif" font-size="13" lengthAdjust="spacing" textLength="222.5425" x="176.15" y="523.5466">obo:has member part at some time</text></g><!--SRC=[hLLDSzCm4BtxLsXwTy5fFbhFm4m8XGifGnEuT7fOsvj4hMGPIMPgElnt95kn7PCKU-2OtVUUdrRx5FL8qmmaSC9eYhh8a6I25VQ7nt2ZYHP4qkrEauHAZ3KLgQUfPaYMy1CU_NZaYUZ1DCZPtTtvgttnVASv8mbe2FUb-_ip0eg8W3nxfFpG6u9FuQtG88kbiCghGcda7lbLQnue-2bmh4H6BP6OfyfFr3QyCUtJP9LXN94lscGXCNoFYcxJbG7G3OsXFEIBElxyvkEdQty9JvJdl58TTrM_0Sln-YcJg5HlHPesYfD_Krn_lltojMDo-dyasovd0oIR5T4oJnE6V-o9g- -NvV9mMLQc7UjSdhfcnsujobMVHMdPWkYOALkjz_VrG4-Mt78K1CDtTvEdPVISmgWJ8VmXMAwn2j42CeWeexeuhGVfbktjjDFmFGldjlKNfW_cmC2Sm7YGW0buXXBim1n_SiXVDu3ZTsH45bne8OyyCgvJtzNqS59BsppjhIAtxsesQ7swXceRdJLUGhop3wpL28ZllxKFMjXyO0Ug_4PLjPaobHNb6MlbgeoPqLkCQf6BFTnYOaaZJDuLdYcNtN5Bh9FHkPupjgOSLOsU349F1w5d_T3kL9S6RORs8Cp8ahNmJA6iNnqTcIEPb7POfb9rWXTvxP5_SB5hklM4EO8o6whcUYKuMiCDQDm7DEa3icCLaR1U24SUeIJcpreJq4GPCD4LUkhWi-CdS_CAUeZz1W00]--></g></svg>