<svg xmlns="http://www.w3.org/2000/svg" xmlns:xlink="http://www.w3.org/1999/xlink" contentStyleType="text/css" data-diagram-type="CLASS" height="555px" preserveAspectRatio="none" style="width:1215px;height:555px;background:#FFFFFF;" version="1.1" viewBox="0 0 1215 555" width="1215px" zoomAndPan="magnify"><defs/><g><g class="entity" data-entity="o1" data-source-line="3" data-uid="ent0002" id="entity_o1"><rect fill="#F1F1F1" height="44.9766" rx="2.5" ry="2.5" style="stroke:#181818;stroke-width:0.5;" width="220.7559" x="429.15" y="263.24"/><a href="./Mazak-c.html" target="_top" title="./Mazak-c.html" xlink:actuate="onRequest" xlink:href="./Mazak-c.html" xlink:show="new" xlink:title="./Mazak-c.html" xlink:type="simple"><text fill="#0000FF" font-family="sans-serif" font-size="14" lengthAdjust="spacing" text-decoration="underline" textLength="92.9414" x="493.0572" y="278.7752">data:Mazak-c</text></a><line style="stroke:#181818;stroke-width:0.5;" x1="430.15" x2="648.9059" y1="283.7283" y2="283.7283"/><text fill="#000000" font-family="sans-serif" font-size="14" lengthAdjust="spacing" textLength="208.7559" x="435.15" y="301.2634">type = ex:RotaryMotionSystem</text></g><g class="entity" data-entity="o2" data-source-line="6" data-uid="ent0003" id="entity_o2"><rect fill="#F1F1F1" height="61.4648" rx="2.5" ry="2.5" style="stroke:#181818;stroke-width:0.5;" width="264.6699" x="938.93" y="7"/><text fill="#000000" font-family="sans-serif" font-size="14" lengthAdjust="spacing" textLength="138.332" x="1002.0989" y="22.5352">data:Mazak-c-name</text><line style="stroke:#181818;stroke-width:0.5;" x1="939.93" x2="1202.5999" y1="27.4883" y2="27.4883"/><text fill="#000000" font-family="sans-serif" font-size="14" lengthAdjust="spacing" textLength="161.3691" x="944.93" y="45.0234">type = cmns-dsg:Name</text><text fill="#000000" font-family="sans-serif" font-size="14" lengthAdjust="spacing" textLength="252.6699" x="944.93" y="61.5117">core:hasSimpleExpressionValue = C1</text></g><g class="entity" data-entity="o3" data-source-line="9" data-uid="ent0004" id="entity_o3"><rect fill="#F1F1F1" height="44.9766" rx="2.5" ry="2.5" style="stroke:#181818;stroke-width:0.5;" width="227.8037" x="957.36" y="103.24"/><text fill="#000000" font-family="sans-serif" font-size="14" lengthAdjust="spacing" textLength="131.9609" x="1005.2814" y="118.7752">data:Mazak-c-spec</text><line style="stroke:#181818;stroke-width:0.5;" x1="958.36" x2="1184.1637" y1="123.7283" y2="123.7283"/><text fill="#000000" font-family="sans-serif" font-size="14" lengthAdjust="spacing" textLength="215.8037" x="963.36" y="141.2634">type = core:DesignSpecification</text></g><g class="entity" data-entity="o4" data-source-line="12" data-uid="ent0005" id="entity_o4"><rect fill="#F1F1F1" height="44.9766" rx="2.5" ry="2.5" style="stroke:#181818;stroke-width:0.5;" width="143.7832" x="999.37" y="183.24"/><a href="./Mazak-zaxis.html" target="_top" title="./Mazak-zaxis.html" xlink:actuate="onRequest" xlink:href="./Mazak-zaxis.html" xlink:show="new" xlink:title="./Mazak-zaxis.html" xlink:type="simple"><text fill="#0000FF" font-family="sans-serif" font-size="14" lengthAdjust="spacing" text-decoration="underline" textLength="121.2969" x="1010.6132" y="198.7752">data:Mazak-zaxis</text></a><line style="stroke:#181818;stroke-width:0.5;" x1="1000.37" x2="1142.1532" y1="203.7283" y2="203.7283"/><text fill="#000000" font-family="sans-serif" font-size="14" lengthAdjust="spacing" textLength="131.7832" x="1005.37" y="221.2634">type = ex:Structure</text></g><g class="entity" data-entity="o5" data-source-line="15" data-uid="ent0006" id="entity_o5"><rect fill="#F1F1F1" height="44.9766" rx="2.5" ry="2.5" style="stroke:#181818;stroke-width:0.5;" width="274.7188" x="933.91" y="263.24"/><text fill="#000000" font-family="sans-serif" font-size="14" lengthAdjust="spacing" textLength="157.3086" x="992.6151" y="278.7752">data:Mazak-c-function</text><line style="stroke:#181818;stroke-width:0.5;" x1="934.91" x2="1207.6287" y1="283.7283" y2="283.7283"/><text fill="#000000" font-family="sans-serif" font-size="14" lengthAdjust="spacing" textLength="262.7188" x="939.91" y="301.2634">type = ex:ContinuousMotionCapability</text></g><g class="entity" data-entity="o6" data-source-line="18" data-uid="ent0007" id="entity_o6"><rect fill="#F1F1F1" height="44.9766" rx="2.5" ry="2.5" style="stroke:#181818;stroke-width:0.5;" width="262.5479" x="939.99" y="343.24"/><text fill="#000000" font-family="sans-serif" font-size="14" lengthAdjust="spacing" textLength="248.5479" x="946.99" y="358.7752">data:Mazak-c-rotary_velocity-actual</text><line style="stroke:#181818;stroke-width:0.5;" x1="940.99" x2="1201.5379" y1="363.7283" y2="363.7283"/><text fill="#000000" font-family="sans-serif" font-size="14" lengthAdjust="spacing" textLength="111.9658" x="945.99" y="381.2634">type = qp:Speed</text></g><g class="entity" data-entity="o7" data-source-line="21" data-uid="ent0008" id="entity_o7"><rect fill="#F1F1F1" height="44.9766" rx="2.5" ry="2.5" style="stroke:#181818;stroke-width:0.5;" width="198.6729" x="971.93" y="423.24"/><text fill="#000000" font-family="sans-serif" font-size="14" lengthAdjust="spacing" textLength="184.6729" x="978.93" y="438.7752">data:Mazak-c-temperature</text><line style="stroke:#181818;stroke-width:0.5;" x1="972.93" x2="1169.6029" y1="443.7283" y2="443.7283"/><text fill="#000000" font-family="sans-serif" font-size="14" lengthAdjust="spacing" textLength="158.4502" x="977.93" y="461.2634">type = qp:Temperature</text></g><g class="entity" data-entity="o8" data-source-line="24" data-uid="ent0009" id="entity_o8"><rect fill="#F1F1F1" height="44.9766" rx="2.5" ry="2.5" style="stroke:#181818;stroke-width:0.5;" width="174.8154" x="983.86" y="503.24"/><a href="./Mazak-c-C2motor.html" target="_top" title="./Mazak-c-C2motor.html" xlink:actuate="onRequest" xlink:href="./Mazak-c-C2motor.html" xlink:show="new" xlink:title="./Mazak-c-C2motor.html" xlink:type="simple"><text fill="#0000FF" font-family="sans-serif" font-size="14" lengthAdjust="spacing" text-decoration="underline" textLength="160.8154" x="990.86" y="518.7752">data:Mazak-c-C2motor</text></a><line style="stroke:#181818;stroke-width:0.5;" x1="984.86" x2="1157.6754" y1="523.7283" y2="523.7283"/><text fill="#000000" font-family="sans-serif" font-size="14" lengthAdjust="spacing" textLength="110.1885" x="989.86" y="541.2634">type = ex:Motor</text></g><g class="entity" data-entity="o9" data-source-line="27" data-uid="ent0010" id="entity_o9"><rect fill="#F1F1F1" height="44.9766" rx="2.5" ry="2.5" style="stroke:#181818;stroke-width:0.5;" width="138.1504" x="7" y="263.24"/><a href="./Mazak.html" target="_top" title="./Mazak.html" xlink:actuate="onRequest" xlink:href="./Mazak.html" xlink:show="new" xlink:title="./Mazak.html" xlink:type="simple"><text fill="#0000FF" font-family="sans-serif" font-size="14" lengthAdjust="spacing" text-decoration="underline" textLength="77.6699" x="37.2402" y="278.7752">data:Mazak</text></a><line style="stroke:#181818;stroke-width:0.5;" x1="8" x2="144.1504" y1="283.7283" y2="283.7283"/><text fill="#000000" font-family="sans-serif" font-size="14" lengthAdjust="spacing" textLength="126.1504" x="13" y="301.2634">type = ex:Machine</text></g><!--link o1 to o2--><g class="link" data-entity-1="o1" data-entity-2="o2" data-source-line="30" data-uid="lnk11" id="link_o1_o2"><path codeLine="30" d="M561.7,262.95 C600.69,220.99 679.91,135.73 679.91,135.73 C679.91,135.73 825.8606,99.0911 940.1306,70.4011" fill="none" id="o1-to-o2" style="stroke:#181818;stroke-width:1;"/><polygon fill="#181818" points="945.95,68.94,936.2469,67.252,941.1005,70.1576,938.195,75.0112,945.95,68.94" style="stroke:#181818;stroke-width:1;"/><text fill="#000000" font-family="sans-serif" font-size="13" lengthAdjust="spacing" textLength="126.0771" x="728.91" y="77.4284">cmns-dsg:hasName</text></g><!--link o1 to o3--><g class="link" data-entity-1="o1" data-entity-2="o3" data-source-line="32" data-uid="lnk12" id="link_o1_o3"><path codeLine="32" d="M579.72,262.95 C620.95,239 679.91,204.73 679.91,204.73 C679.91,204.73 835.9392,173.1501 951.2192,149.8201" fill="none" id="o1-to-o3" style="stroke:#181818;stroke-width:1;"/><polygon fill="#181818" points="957.1,148.63,947.4854,146.4947,952.1993,149.6218,949.0723,154.3357,957.1,148.63" style="stroke:#181818;stroke-width:1;"/><text fill="#000000" font-family="sans-serif" font-size="13" lengthAdjust="spacing" textLength="112.3027" x="735.91" y="157.0684">core:prescribedBy</text></g><!--link o1 to o4--><g class="link" data-entity-1="o1" data-entity-2="o4" data-source-line="33" data-uid="lnk13" id="link_o1_o4"><path codeLine="33" d="M650.35,266.03 C667.62,262.94 679.91,260.73 679.91,260.73 C679.91,260.73 880.5887,232.4569 993.1787,216.5969" fill="none" id="o1-to-o4" style="stroke:#181818;stroke-width:1;"/><polygon fill="#181818" points="999.12,215.76,989.65,213.0545,994.1689,216.4574,990.7659,220.9763,999.12,215.76" style="stroke:#181818;stroke-width:1;"/><text fill="#000000" font-family="sans-serif" font-size="13" lengthAdjust="spacing" textLength="74.7246" x="754.91" y="226.5084">ex:joinedTo</text></g><!--link o1 to o5--><g class="link" data-entity-1="o1" data-entity-2="o5" data-source-line="34" data-uid="lnk14" id="link_o1_o5"><path codeLine="34" d="M650.29,285.73 C732.57,285.73 839.68,285.73 927.79,285.73" fill="none" id="o1-to-o5" style="stroke:#181818;stroke-width:1;"/><polygon fill="#181818" points="933.79,285.73,924.79,281.73,928.79,285.73,924.79,289.73,933.79,285.73" style="stroke:#181818;stroke-width:1;"/><text fill="#000000" font-family="sans-serif" font-size="13" lengthAdjust="spacing" textLength="107.6309" x="738.41" y="282.2984">core:hasFunction</text></g><!--link o1 to o6--><g class="link" data-entity-1="o1" data-entity-2="o6" data-source-line="35" data-uid="lnk15" id="link_o1_o6"><path codeLine="35" d="M650.35,305.43 C667.62,308.53 679.91,310.73 679.91,310.73 C679.91,310.73 820.3187,330.5128 933.7987,346.5028" fill="none" id="o1-to-o6" style="stroke:#181818;stroke-width:1;"/><polygon fill="#181818" points="939.74,347.34,931.3861,342.1234,934.7889,346.6424,930.2699,350.0451,939.74,347.34" style="stroke:#181818;stroke-width:1;"/><text fill="#000000" font-family="sans-serif" font-size="13" lengthAdjust="spacing" textLength="171.3169" x="706.41" y="307.2984">core:measuresAtSomeTime</text></g><!--link o1 to o7--><g class="link" data-entity-1="o1" data-entity-2="o7" data-source-line="36" data-uid="lnk16" id="link_o1_o7"><path codeLine="36" d="M579.72,308.51 C620.95,332.47 679.91,366.73 679.91,366.73 C679.91,366.73 849.9793,401.1496 965.6293,424.5596" fill="none" id="o1-to-o7" style="stroke:#181818;stroke-width:1;"/><polygon fill="#181818" points="971.51,425.75,963.4825,420.0439,966.6094,424.758,961.8953,427.8849,971.51,425.75" style="stroke:#181818;stroke-width:1;"/><text fill="#000000" font-family="sans-serif" font-size="13" lengthAdjust="spacing" textLength="171.3169" x="706.41" y="363.2984">core:measuresAtSomeTime</text></g><!--link o1 to o8--><g class="link" data-entity-1="o1" data-entity-2="o8" data-source-line="37" data-uid="lnk17" id="link_o1_o8"><path codeLine="37" d="M561.7,308.51 C600.69,350.48 679.91,435.73 679.91,435.73 C679.91,435.73 862.7834,477.8917 977.7834,504.4117" fill="none" id="o1-to-o8" style="stroke:#181818;stroke-width:1;"/><polygon fill="#181818" points="983.63,505.76,975.759,499.8399,978.7579,504.6364,973.9613,507.6353,983.63,505.76" style="stroke:#181818;stroke-width:1;"/><text fill="#000000" font-family="sans-serif" font-size="13" lengthAdjust="spacing" textLength="222.5425" x="680.91" y="432.2984">obo:has member part at some time</text></g><!--link o9 to o1--><g class="link" data-entity-1="o9" data-entity-2="o1" data-source-line="38" data-uid="lnk18" id="link_o9_o1"><path codeLine="38" d="M145.16,285.73 C219.87,285.73 334.87,285.73 422.97,285.73" fill="none" id="o9-to-o1" style="stroke:#181818;stroke-width:1;"/><polygon fill="#181818" points="428.97,285.73,419.97,281.73,423.97,285.73,419.97,289.73,428.97,285.73" style="stroke:#181818;stroke-width:1;"/><text fill="#000000" font-family="sans-serif" font-size="13" lengthAdjust="spacing" textLength="222.5425" x="176.15" y="282.2984">obo:has member part at some time</text></g><!--SRC=[ZPDDRzim38Rl-HL4x-wGVjT02spPUiiESx1BKHIqp2Hg9L6Lv27kiFy-oOuTfss0tYo-Bn-A5EsVfR7eK8EIXa9Z2Ioh9XqcYfO10eEJgtM0IZeIGRAPSFaKl-3e_lxuonnVyJaJn-kW5LGOCDz67XwE03tm5FvEeENU06toNnpGDNDEeABnWVG4_Wt4CI0pgAbZd8mOGXkVLNwL_upomLnlINIvf-DSTfH_9ozNfeW6kPG2suv6c5rJhxYH_brZRRHlxco_kIAuMeJQ7RxNiZRj3Blqy_tq6PiWJSsrx-OpGukbL38q1tck7UVZ7r8ieY_3M1vLHxyOqLzi7ZkcwY0eFeGbX-doNVRbVlPYftyyBP7DJZG7TkzNeLVwgLtjjprFseVGjwWUSFq6W6ATzZKXff1bjsbZyjschD6toz95qmx4I26rLVHZOnrv7uVz6rMTUBFf03djxSaZd2of-jOCwbbKO_4dZgMh1G_nyr6Hk-rp3-95Bsf27sVfluQ2DIrakjxMS_a9prNqSCcf1cZI9Jc8Vt403E2Z5q9hlkxCqq-O_mC0]--></g></svg>