<svg xmlns="http://www.w3.org/2000/svg" xmlns:xlink="http://www.w3.org/1999/xlink" contentStyleType="text/css" data-diagram-type="CLASS" height="778px" preserveAspectRatio="none" style="width:1775px;height:778px;background:#FFFFFF;" version="1.1" viewBox="0 0 1775 778" width="1775px" zoomAndPan="magnify"><defs/><g><g class="entity" data-entity="o1" data-source-line="3" data-uid="ent0002" id="entity_o1"><rect fill="#F1F1F1" height="44.9766" rx="2.5" ry="2.5" style="stroke:#181818;stroke-width:0.5;" width="220.7559" x="429.15" y="447"/><a href="./Mazak-br.html" target="_top" title="./Mazak-br.html" xlink:actuate="onRequest" xlink:href="./Mazak-br.html" xlink:show="new" xlink:title="./Mazak-br.html" xlink:type="simple"><text fill="#0000FF" font-family="sans-serif" font-size="14" lengthAdjust="spacing" text-decoration="underline" textLength="100.3105" x="489.3727" y="462.5352">data:Mazak-br</text></a><line style="stroke:#181818;stroke-width:0.5;" x1="430.15" x2="648.9059" y1="467.4883" y2="467.4883"/><text fill="#000000" font-family="sans-serif" font-size="14" lengthAdjust="spacing" textLength="208.7559" x="435.15" y="485.0234">type = ex:RotaryMotionSystem</text></g><g class="entity" data-entity="o2" data-source-line="6" data-uid="ent0003" id="entity_o2"><rect fill="#F1F1F1" height="61.4648" rx="2.5" ry="2.5" style="stroke:#181818;stroke-width:0.5;" width="254.1836" x="934.28" y="100.76"/><text fill="#000000" font-family="sans-serif" font-size="14" lengthAdjust="spacing" textLength="145.7012" x="988.5212" y="116.2952">data:Mazak-br-name</text><line style="stroke:#181818;stroke-width:0.5;" x1="935.28" x2="1187.4636" y1="121.2483" y2="121.2483"/><text fill="#000000" font-family="sans-serif" font-size="14" lengthAdjust="spacing" textLength="161.3691" x="940.28" y="138.7834">type = cmns-dsg:Name</text><text fill="#000000" font-family="sans-serif" font-size="14" lengthAdjust="spacing" textLength="242.1836" x="940.28" y="155.2717">core:hasSimpleExpressionValue = B</text></g><g class="entity" data-entity="o3" data-source-line="9" data-uid="ent0004" id="entity_o3"><rect fill="#F1F1F1" height="44.9766" rx="2.5" ry="2.5" style="stroke:#181818;stroke-width:0.5;" width="227.8037" x="947.47" y="197"/><text fill="#000000" font-family="sans-serif" font-size="14" lengthAdjust="spacing" textLength="139.3301" x="991.7068" y="212.5352">data:Mazak-br-spec</text><line style="stroke:#181818;stroke-width:0.5;" x1="948.47" x2="1174.2737" y1="217.4883" y2="217.4883"/><text fill="#000000" font-family="sans-serif" font-size="14" lengthAdjust="spacing" textLength="215.8037" x="953.47" y="235.0234">type = core:DesignSpecification</text></g><g class="entity" data-entity="o4" data-source-line="12" data-uid="ent0005" id="entity_o4"><rect fill="#F1F1F1" height="44.9766" rx="2.5" ry="2.5" style="stroke:#181818;stroke-width:0.5;" width="281.9551" x="1481.62" y="7"/><text fill="#000000" font-family="sans-serif" font-size="14" lengthAdjust="spacing" textLength="267.9551" x="1488.62" y="22.5352">data:Mazak-br-spec-ANGLE-Maximum</text><line style="stroke:#181818;stroke-width:0.5;" x1="1482.62" x2="1762.5751" y1="27.4883" y2="27.4883"/><text fill="#000000" font-family="sans-serif" font-size="14" lengthAdjust="spacing" textLength="194.4209" x="1487.62" y="45.0234">type = core:ValueExpression</text></g><g class="entity" data-entity="o5" data-source-line="15" data-uid="ent0006" id="entity_o5"><rect fill="#F1F1F1" height="44.9766" rx="2.5" ry="2.5" style="stroke:#181818;stroke-width:0.5;" width="278.373" x="1483.41" y="87"/><text fill="#000000" font-family="sans-serif" font-size="14" lengthAdjust="spacing" textLength="264.373" x="1490.41" y="102.5352">data:Mazak-br-spec-ANGLE-Minimum</text><line style="stroke:#181818;stroke-width:0.5;" x1="1484.41" x2="1760.783" y1="107.4883" y2="107.4883"/><text fill="#000000" font-family="sans-serif" font-size="14" lengthAdjust="spacing" textLength="194.4209" x="1489.41" y="125.0234">type = core:ValueExpression</text></g><g class="entity" data-entity="o6" data-source-line="18" data-uid="ent0007" id="entity_o6"><rect fill="#F1F1F1" height="44.9766" rx="2.5" ry="2.5" style="stroke:#181818;stroke-width:0.5;" width="293.5283" x="1475.83" y="167"/><text fill="#000000" font-family="sans-serif" font-size="14" lengthAdjust="spacing" textLength="279.5283" x="1482.83" y="182.5352">data:Mazak-br-spec-TORQUE-Maximum</text><line style="stroke:#181818;stroke-width:0.5;" x1="1476.83" x2="1768.3583" y1="187.4883" y2="187.4883"/><text fill="#000000" font-family="sans-serif" font-size="14" lengthAdjust="spacing" textLength="194.4209" x="1481.83" y="205.0234">type = core:ValueExpression</text></g><g class="entity" data-entity="o7" data-source-line="21" data-uid="ent0008" id="entity_o7"><rect fill="#F1F1F1" height="44.9766" rx="2.5" ry="2.5" style="stroke:#181818;stroke-width:0.5;" width="289.9463" x="1477.63" y="247"/><text fill="#000000" font-family="sans-serif" font-size="14" lengthAdjust="spacing" textLength="275.9463" x="1484.63" y="262.5352">data:Mazak-br-spec-TORQUE-Minimum</text><line style="stroke:#181818;stroke-width:0.5;" x1="1478.63" x2="1766.5763" y1="267.4883" y2="267.4883"/><text fill="#000000" font-family="sans-serif" font-size="14" lengthAdjust="spacing" textLength="194.4209" x="1483.63" y="285.0234">type = core:ValueExpression</text></g><g class="entity" data-entity="o8" data-source-line="24" data-uid="ent0009" id="entity_o8"><rect fill="#F1F1F1" height="44.9766" rx="2.5" ry="2.5" style="stroke:#181818;stroke-width:0.5;" width="178.5" x="972.12" y="327"/><a href="./Mazak-enclosurem.html" target="_top" title="./Mazak-enclosurem.html" xlink:actuate="onRequest" xlink:href="./Mazak-enclosurem.html" xlink:show="new" xlink:title="./Mazak-enclosurem.html" xlink:type="simple"><text fill="#0000FF" font-family="sans-serif" font-size="14" lengthAdjust="spacing" text-decoration="underline" textLength="164.5" x="979.12" y="342.5352">data:Mazak-enclosurem</text></a><line style="stroke:#181818;stroke-width:0.5;" x1="973.12" x2="1149.62" y1="347.4883" y2="347.4883"/><text fill="#000000" font-family="sans-serif" font-size="14" lengthAdjust="spacing" textLength="131.7832" x="978.12" y="365.0234">type = ex:Structure</text></g><g class="entity" data-entity="o9" data-source-line="27" data-uid="ent0010" id="entity_o9"><rect fill="#F1F1F1" height="44.9766" rx="2.5" ry="2.5" style="stroke:#181818;stroke-width:0.5;" width="223.8906" x="1510.65" y="327"/><text fill="#000000" font-family="sans-serif" font-size="14" lengthAdjust="spacing" textLength="209.8906" x="1517.65" y="342.5352">data:Mazak-enclosurem-name</text><line style="stroke:#181818;stroke-width:0.5;" x1="1511.65" x2="1733.5406" y1="347.4883" y2="347.4883"/><text fill="#000000" font-family="sans-serif" font-size="14" lengthAdjust="spacing" textLength="161.3691" x="1516.65" y="365.0234">type = cmns-dsg:Name</text></g><g class="entity" data-entity="o10" data-source-line="30" data-uid="ent0011" id="entity_o10"><rect fill="#F1F1F1" height="44.9766" rx="2.5" ry="2.5" style="stroke:#181818;stroke-width:0.5;" width="270.2314" x="1487.48" y="407"/><text fill="#000000" font-family="sans-serif" font-size="14" lengthAdjust="spacing" textLength="256.2314" x="1494.48" y="422.5352">data:Mazak-enclosurem-temperature</text><line style="stroke:#181818;stroke-width:0.5;" x1="1488.48" x2="1756.7114" y1="427.4883" y2="427.4883"/><text fill="#000000" font-family="sans-serif" font-size="14" lengthAdjust="spacing" textLength="158.4502" x="1493.48" y="445.0234">type = qp:Temperature</text></g><g class="entity" data-entity="o11" data-source-line="33" data-uid="ent0012" id="entity_o11"><rect fill="#F1F1F1" height="44.9766" rx="2.5" ry="2.5" style="stroke:#181818;stroke-width:0.5;" width="148.7705" x="986.99" y="407"/><a href="./Mazak-trundle.html" target="_top" title="./Mazak-trundle.html" xlink:actuate="onRequest" xlink:href="./Mazak-trundle.html" xlink:show="new" xlink:title="./Mazak-trundle.html" xlink:type="simple"><text fill="#0000FF" font-family="sans-serif" font-size="14" lengthAdjust="spacing" text-decoration="underline" textLength="134.7705" x="993.99" y="422.5352">data:Mazak-trundle</text></a><line style="stroke:#181818;stroke-width:0.5;" x1="987.99" x2="1134.7605" y1="427.4883" y2="427.4883"/><text fill="#000000" font-family="sans-serif" font-size="14" lengthAdjust="spacing" textLength="131.7832" x="992.99" y="445.0234">type = ex:Structure</text></g><g class="entity" data-entity="o12" data-source-line="36" data-uid="ent0013" id="entity_o12"><rect fill="#F1F1F1" height="44.9766" rx="2.5" ry="2.5" style="stroke:#181818;stroke-width:0.5;" width="194.1611" x="1525.52" y="487"/><text fill="#000000" font-family="sans-serif" font-size="14" lengthAdjust="spacing" textLength="180.1611" x="1532.52" y="502.5352">data:Mazak-trundle-name</text><line style="stroke:#181818;stroke-width:0.5;" x1="1526.52" x2="1718.6811" y1="507.4883" y2="507.4883"/><text fill="#000000" font-family="sans-serif" font-size="14" lengthAdjust="spacing" textLength="161.3691" x="1531.52" y="525.0234">type = cmns-dsg:Name</text></g><g class="entity" data-entity="o13" data-source-line="39" data-uid="ent0014" id="entity_o13"><rect fill="#F1F1F1" height="44.9766" rx="2.5" ry="2.5" style="stroke:#181818;stroke-width:0.5;" width="254.9287" x="933.91" y="487"/><text fill="#000000" font-family="sans-serif" font-size="14" lengthAdjust="spacing" textLength="164.6777" x="979.0355" y="502.5352">data:Mazak-br-function</text><line style="stroke:#181818;stroke-width:0.5;" x1="934.91" x2="1187.8387" y1="507.4883" y2="507.4883"/><text fill="#000000" font-family="sans-serif" font-size="14" lengthAdjust="spacing" textLength="242.9287" x="939.91" y="525.0234">type = ex:RevoluteMotionCapability</text></g><g class="entity" data-entity="o14" data-source-line="42" data-uid="ent0015" id="entity_o14"><rect fill="#F1F1F1" height="44.9766" rx="2.5" ry="2.5" style="stroke:#181818;stroke-width:0.5;" width="159.4072" x="981.67" y="567"/><text fill="#000000" font-family="sans-serif" font-size="14" lengthAdjust="spacing" textLength="145.4072" x="988.67" y="582.5352">data:Mazak-br-angle</text><line style="stroke:#181818;stroke-width:0.5;" x1="982.67" x2="1140.0772" y1="587.4883" y2="587.4883"/><text fill="#000000" font-family="sans-serif" font-size="14" lengthAdjust="spacing" textLength="110.127" x="987.67" y="605.0234">type = qp:Angle</text></g><g class="entity" data-entity="o15" data-source-line="45" data-uid="ent0016" id="entity_o15"><rect fill="#F1F1F1" height="44.9766" rx="2.5" ry="2.5" style="stroke:#181818;stroke-width:0.5;" width="208.1133" x="957.31" y="647"/><text fill="#000000" font-family="sans-serif" font-size="14" lengthAdjust="spacing" textLength="194.1133" x="964.31" y="662.5352">data:Mazak-br-angle-actual</text><line style="stroke:#181818;stroke-width:0.5;" x1="958.31" x2="1164.4233" y1="667.4883" y2="667.4883"/><text fill="#000000" font-family="sans-serif" font-size="14" lengthAdjust="spacing" textLength="110.127" x="963.31" y="685.0234">type = qp:Angle</text></g><g class="entity" data-entity="o16" data-source-line="48" data-uid="ent0017" id="entity_o16"><rect fill="#F1F1F1" height="44.9766" rx="2.5" ry="2.5" style="stroke:#181818;stroke-width:0.5;" width="171.6982" x="975.52" y="727"/><a href="./Mazak-br-Bmotor.html" target="_top" title="./Mazak-br-Bmotor.html" xlink:actuate="onRequest" xlink:href="./Mazak-br-Bmotor.html" xlink:show="new" xlink:title="./Mazak-br-Bmotor.html" xlink:type="simple"><text fill="#0000FF" font-family="sans-serif" font-size="14" lengthAdjust="spacing" text-decoration="underline" textLength="157.6982" x="982.52" y="742.5352">data:Mazak-br-Bmotor</text></a><line style="stroke:#181818;stroke-width:0.5;" x1="976.52" x2="1146.2182" y1="747.4883" y2="747.4883"/><text fill="#000000" font-family="sans-serif" font-size="14" lengthAdjust="spacing" textLength="110.1885" x="981.52" y="765.0234">type = ex:Motor</text></g><g class="entity" data-entity="o17" data-source-line="51" data-uid="ent0018" id="entity_o17"><rect fill="#F1F1F1" height="44.9766" rx="2.5" ry="2.5" style="stroke:#181818;stroke-width:0.5;" width="217.0889" x="1514.05" y="727"/><text fill="#000000" font-family="sans-serif" font-size="14" lengthAdjust="spacing" textLength="203.0889" x="1521.05" y="742.5352">data:Mazak-br-Bmotor-name</text><line style="stroke:#181818;stroke-width:0.5;" x1="1515.05" x2="1730.1389" y1="747.4883" y2="747.4883"/><text fill="#000000" font-family="sans-serif" font-size="14" lengthAdjust="spacing" textLength="161.3691" x="1520.05" y="765.0234">type = cmns-dsg:Name</text></g><g class="entity" data-entity="o18" data-source-line="54" data-uid="ent0019" id="entity_o18"><rect fill="#F1F1F1" height="44.9766" rx="2.5" ry="2.5" style="stroke:#181818;stroke-width:0.5;" width="138.1504" x="7" y="447"/><a href="./Mazak.html" target="_top" title="./Mazak.html" xlink:actuate="onRequest" xlink:href="./Mazak.html" xlink:show="new" xlink:title="./Mazak.html" xlink:type="simple"><text fill="#0000FF" font-family="sans-serif" font-size="14" lengthAdjust="spacing" text-decoration="underline" textLength="77.6699" x="37.2402" y="462.5352">data:Mazak</text></a><line style="stroke:#181818;stroke-width:0.5;" x1="8" x2="144.1504" y1="467.4883" y2="467.4883"/><text fill="#000000" font-family="sans-serif" font-size="14" lengthAdjust="spacing" textLength="126.1504" x="13" y="485.0234">type = ex:Machine</text></g><!--link o1 to o2--><g class="link" data-entity-1="o1" data-entity-2="o2" data-source-line="57" data-uid="lnk20" id="link_o1_o2"><path codeLine="57" d="M555.18,446.78 C590.97,391.33 679.91,253.49 679.91,253.49 C679.91,253.49 844.9466,200.5723 957.6666,164.4223" fill="none" id="o1-to-o2" style="stroke:#181818;stroke-width:1;"/><polygon fill="#181818" points="963.38,162.59,953.5884,161.5296,958.6189,164.1169,956.0315,169.1474,963.38,162.59" style="stroke:#181818;stroke-width:1;"/><text fill="#000000" font-family="sans-serif" font-size="13" lengthAdjust="spacing" textLength="126.0771" x="728.91" y="181.7584">cmns-dsg:hasName</text></g><!--link o1 to o3--><g class="link" data-entity-1="o1" data-entity-2="o3" data-source-line="59" data-uid="lnk21" id="link_o1_o3"><path codeLine="59" d="M568.06,446.77 C608.68,413.26 679.91,354.49 679.91,354.49 C679.91,354.49 881.6255,282.9166 990.1755,244.3966" fill="none" id="o1-to-o3" style="stroke:#181818;stroke-width:1;"/><polygon fill="#181818" points="995.83,242.39,986.0105,241.6302,991.1179,244.0621,988.6859,249.1695,995.83,242.39" style="stroke:#181818;stroke-width:1;"/><text fill="#000000" font-family="sans-serif" font-size="13" lengthAdjust="spacing" textLength="112.3027" x="735.91" y="275.4784">core:prescribedBy</text></g><!--link o3 to o4--><g class="link" data-entity-1="o3" data-entity-2="o4" data-source-line="60" data-uid="lnk22" id="link_o3_o4"><path codeLine="60" d="M1134.84,196.57 C1163.09,187.63 1188.83,179.49 1188.83,179.49 C1188.83,179.49 1218.83,113.49 1218.83,113.49 C1218.83,113.49 1386.4164,78.545 1505.6664,53.675" fill="none" id="o3-to-o4" style="stroke:#181818;stroke-width:1;"/><polygon fill="#181818" points="1511.54,52.45,1501.9129,50.3717,1506.6453,53.4708,1503.5462,58.2032,1511.54,52.45" style="stroke:#181818;stroke-width:1;"/><text fill="#000000" font-family="sans-serif" font-size="13" lengthAdjust="spacing" textLength="225.0688" x="1219.83" y="63.0284">core:hasValueExpressionAtAllTimes</text></g><!--link o3 to o5--><g class="link" data-entity-1="o3" data-entity-2="o5" data-source-line="61" data-uid="lnk23" id="link_o3_o5"><path codeLine="61" d="M1141.98,196.6 C1180.63,185.48 1218.83,174.49 1218.83,174.49 C1218.83,174.49 1360.5666,151.6159 1477.0666,132.8159" fill="none" id="o3-to-o5" style="stroke:#181818;stroke-width:1;"/><polygon fill="#181818" points="1482.99,131.86,1473.4677,129.3449,1478.0539,132.6566,1474.7422,137.2427,1482.99,131.86" style="stroke:#181818;stroke-width:1;"/><text fill="#000000" font-family="sans-serif" font-size="13" lengthAdjust="spacing" textLength="225.0688" x="1219.83" y="134.6684">core:hasValueExpressionAtAllTimes</text></g><!--link o3 to o6--><g class="link" data-entity-1="o3" data-entity-2="o6" data-source-line="62" data-uid="lnk24" id="link_o3_o6"><path codeLine="62" d="M1175.54,213.42 C1261.95,208.79 1375.7186,202.6811 1469.3886,197.6611" fill="none" id="o3-to-o6" style="stroke:#181818;stroke-width:1;"/><polygon fill="#181818" points="1475.38,197.34,1466.1788,193.8274,1470.3872,197.6076,1466.607,201.8159,1475.38,197.34" style="stroke:#181818;stroke-width:1;"/><text fill="#000000" font-family="sans-serif" font-size="13" lengthAdjust="spacing" textLength="225.0688" x="1219.83" y="195.7684">core:hasValueExpressionAtAllTimes</text></g><!--link o3 to o7--><g class="link" data-entity-1="o3" data-entity-2="o7" data-source-line="63" data-uid="lnk25" id="link_o3_o7"><path codeLine="63" d="M1175.67,231.08 C1200.14,233.58 1218.83,235.49 1218.83,235.49 C1218.83,235.49 1355.7812,247.0556 1471.3512,256.8056" fill="none" id="o3-to-o7" style="stroke:#181818;stroke-width:1;"/><polygon fill="#181818" points="1477.33,257.31,1468.6981,252.5676,1472.3477,256.8897,1468.0256,260.5392,1477.33,257.31" style="stroke:#181818;stroke-width:1;"/><text fill="#000000" font-family="sans-serif" font-size="13" lengthAdjust="spacing" textLength="225.0688" x="1219.83" y="232.0584">core:hasValueExpressionAtAllTimes</text></g><!--link o1 to o8--><g class="link" data-entity-1="o1" data-entity-2="o8" data-source-line="64" data-uid="lnk26" id="link_o1_o8"><path codeLine="64" d="M602.07,446.53 C639.4,432.6 679.91,417.49 679.91,417.49 C679.91,417.49 853.3136,386.4954 965.7436,366.4054" fill="none" id="o1-to-o8" style="stroke:#181818;stroke-width:1;"/><polygon fill="#181818" points="971.65,365.35,962.0867,362.9955,966.728,366.2295,963.4939,370.8708,971.65,365.35" style="stroke:#181818;stroke-width:1;"/><text fill="#000000" font-family="sans-serif" font-size="13" lengthAdjust="spacing" textLength="74.7246" x="754.91" y="375.9884">ex:joinedTo</text></g><!--link o8 to o9--><g class="link" data-entity-1="o8" data-entity-2="o9" data-source-line="65" data-uid="lnk27" id="link_o8_o9"><path codeLine="65" d="M1150.98,349.49 C1248.3,349.49 1398.76,349.49 1504.29,349.49" fill="none" id="o8-to-o9" style="stroke:#181818;stroke-width:1;"/><polygon fill="#181818" points="1510.29,349.49,1501.29,345.49,1505.29,349.49,1501.29,353.49,1510.29,349.49" style="stroke:#181818;stroke-width:1;"/><text fill="#000000" font-family="sans-serif" font-size="13" lengthAdjust="spacing" textLength="126.0771" x="1269.33" y="346.0584">cmns-dsg:hasName</text></g><!--link o8 to o10--><g class="link" data-entity-1="o8" data-entity-2="o10" data-source-line="66" data-uid="lnk28" id="link_o8_o10"><path codeLine="66" d="M1151.12,363.67 C1186.43,369.31 1218.83,374.49 1218.83,374.49 C1218.83,374.49 1364.1351,394.3384 1481.2551,410.3284" fill="none" id="o8-to-o10" style="stroke:#181818;stroke-width:1;"/><polygon fill="#181818" points="1487.2,411.14,1478.8238,405.9593,1482.246,410.4636,1477.7416,413.8858,1487.2,411.14" style="stroke:#181818;stroke-width:1;"/><text fill="#000000" font-family="sans-serif" font-size="13" lengthAdjust="spacing" textLength="171.3169" x="1246.83" y="371.0584">core:measuresAtSomeTime</text></g><!--link o1 to o11--><g class="link" data-entity-1="o1" data-entity-2="o11" data-source-line="67" data-uid="lnk29" id="link_o1_o11"><path codeLine="67" d="M650.14,461.06 C751.27,453.28 892.6777,442.4004 980.5077,435.6404" fill="none" id="o1-to-o11" style="stroke:#181818;stroke-width:1;"/><polygon fill="#181818" points="986.49,435.18,977.2096,431.8825,981.5047,435.5637,977.8235,439.8589,986.49,435.18" style="stroke:#181818;stroke-width:1;"/><text fill="#000000" font-family="sans-serif" font-size="13" lengthAdjust="spacing" textLength="74.7246" x="754.91" y="438.9984">ex:joinedTo</text></g><!--link o11 to o12--><g class="link" data-entity-1="o11" data-entity-2="o12" data-source-line="68" data-uid="lnk30" id="link_o11_o12"><path codeLine="68" d="M1136.06,440.03 C1236.01,454.33 1408.7905,479.0502 1519.2905,494.8602" fill="none" id="o11-to-o12" style="stroke:#181818;stroke-width:1;"/><polygon fill="#181818" points="1525.23,495.71,1516.8873,490.4756,1520.2804,495.0018,1515.7542,498.395,1525.23,495.71" style="stroke:#181818;stroke-width:1;"/><text fill="#000000" font-family="sans-serif" font-size="13" lengthAdjust="spacing" textLength="126.0771" x="1269.33" y="449.6984">cmns-dsg:hasName</text></g><!--link o1 to o13--><g class="link" data-entity-1="o1" data-entity-2="o13" data-source-line="69" data-uid="lnk31" id="link_o1_o13"><path codeLine="69" d="M650.35,480.52 C667.62,482.26 679.91,483.49 679.91,483.49 C679.91,483.49 816.794,492.851 927.434,500.411" fill="none" id="o1-to-o13" style="stroke:#181818;stroke-width:1;"/><polygon fill="#181818" points="933.42,500.82,924.7136,496.2158,928.4316,500.4791,924.1683,504.1972,933.42,500.82" style="stroke:#181818;stroke-width:1;"/><text fill="#000000" font-family="sans-serif" font-size="13" lengthAdjust="spacing" textLength="107.6309" x="738.41" y="480.0584">core:hasFunction</text></g><!--link o1 to o14--><g class="link" data-entity-1="o1" data-entity-2="o14" data-source-line="70" data-uid="lnk32" id="link_o1_o14"><path codeLine="70" d="M599.64,492.39 C637.62,507.11 679.91,523.49 679.91,523.49 C679.91,523.49 864.1884,555.4541 975.6284,574.7941" fill="none" id="o1-to-o14" style="stroke:#181818;stroke-width:1;"/><polygon fill="#181818" points="981.54,575.82,973.3565,570.34,976.6136,574.965,971.9886,578.2222,981.54,575.82" style="stroke:#181818;stroke-width:1;"/><text fill="#000000" font-family="sans-serif" font-size="13" lengthAdjust="spacing" textLength="171.3169" x="706.41" y="520.0584">core:measuresAtSomeTime</text></g><!--link o1 to o15--><g class="link" data-entity-1="o1" data-entity-2="o15" data-source-line="71" data-uid="lnk33" id="link_o1_o15"><path codeLine="71" d="M568.06,492.41 C608.68,526.22 679.91,585.49 679.91,585.49 C679.91,585.49 838.3911,620.4866 951.0511,645.3566" fill="none" id="o1-to-o15" style="stroke:#181818;stroke-width:1;"/><polygon fill="#181818" points="956.91,646.65,948.9838,640.804,952.0276,645.5722,947.2593,648.6159,956.91,646.65" style="stroke:#181818;stroke-width:1;"/><text fill="#000000" font-family="sans-serif" font-size="13" lengthAdjust="spacing" textLength="171.3169" x="706.41" y="582.0584">core:measuresAtSomeTime</text></g><!--link o1 to o16--><g class="link" data-entity-1="o1" data-entity-2="o16" data-source-line="72" data-uid="lnk34" id="link_o1_o16"><path codeLine="72" d="M557.34,492.17 C594.41,542.17 679.91,657.49 679.91,657.49 C679.91,657.49 857.498,700.44 969.628,727.55" fill="none" id="o1-to-o16" style="stroke:#181818;stroke-width:1;"/><polygon fill="#181818" points="975.46,728.96,967.6521,722.957,970.6,727.785,965.772,730.733,975.46,728.96" style="stroke:#181818;stroke-width:1;"/><text fill="#000000" font-family="sans-serif" font-size="13" lengthAdjust="spacing" textLength="222.5425" x="680.91" y="654.0584">obo:has member part at some time</text></g><!--link o16 to o17--><g class="link" data-entity-1="o16" data-entity-2="o17" data-source-line="73" data-uid="lnk35" id="link_o16_o17"><path codeLine="73" d="M1147.61,749.49 C1245.76,749.49 1401.15,749.49 1507.9,749.49" fill="none" id="o16-to-o17" style="stroke:#181818;stroke-width:1;"/><polygon fill="#181818" points="1513.9,749.49,1504.9,745.49,1508.9,749.49,1504.9,753.49,1513.9,749.49" style="stroke:#181818;stroke-width:1;"/><text fill="#000000" font-family="sans-serif" font-size="13" lengthAdjust="spacing" textLength="126.0771" x="1269.33" y="746.0584">cmns-dsg:hasName</text></g><!--link o18 to o1--><g class="link" data-entity-1="o18" data-entity-2="o1" data-source-line="74" data-uid="lnk36" id="link_o18_o1"><path codeLine="74" d="M145.16,469.49 C219.87,469.49 334.87,469.49 422.97,469.49" fill="none" id="o18-to-o1" style="stroke:#181818;stroke-width:1;"/><polygon fill="#181818" points="428.97,469.49,419.97,465.49,423.97,469.49,419.97,473.49,428.97,469.49" style="stroke:#181818;stroke-width:1;"/><text fill="#000000" font-family="sans-serif" font-size="13" lengthAdjust="spacing" textLength="222.5425" x="176.15" y="466.0584">obo:has member part at some time</text></g><!--SRC=[hPLDSzCm48Rl_XMQtbr8yzLwXiuaKBYGCZI1IwS7sTuaQlLX99c9OVZlIBPiAsv27U2MxBvwjBlPLr5FX6TOOeOeuQ2B350cQ66_11JM6cc19DbiDKg9X4GJmGCHFvfFwEp-_lpL0l_0Js4ipxUQKPHYZQCwzF1mXh12Oe1-1gWalq6mY-w4nh9O28jQ5ae32z2lXhb723bcK44kF4Z2k0fJjObkJVhuOPL1KXqU-eU5XEWTABBXIoCWQvBWigi_SiBPxOUFD-42xmZBMKKTTQbVCStXPfT9KAetaV2MEFutukhJtUSldI8d_mVfLpaz0Tck2F242fLBOCzMfKtLAtEvlp9BBVD46y6HQbk0jp5N9swC1p4xcO74zaQtmgyzsBSiMhM2mzsQWdbAuLchBjvOOt1Qe-wur-NWBuonpdbfP4SOTlm9tmNDDLGEVOip71DAT76SX_c6rkMCzWSriwaNJeROj8of0unV0FYFJZXdGej3Ru_BD7EUxFUuiCdZPLM7_IbF-qovAQrRK5D6PwyNEDdQXzOo1YWCh-qx5xKNRB4gxwYYrceciYGievxTIlSPthnX36krbIIIn93EYy24o-p8OtMSEzCpIbU4WMhKuvFKavFKqtvgrzMbKPkPFGepiNGb0XCeurS79-QInhZk3WROcblDz58miEY6R5pOGG_gpE6VeyuElGRUErErsL6VgyTzH7Qi8XRs6iI0nI2H-S_M26kaZ1ZfIZrnykdXekkHz83z1W00]--></g></svg>