<svg xmlns="http://www.w3.org/2000/svg" xmlns:xlink="http://www.w3.org/1999/xlink" contentStyleType="text/css" data-diagram-type="CLASS" height="1252px" preserveAspectRatio="none" style="width:1885px;height:1252px;background:#FFFFFF;" version="1.1" viewBox="0 0 1885 1252" width="1885px" zoomAndPan="magnify"><title>Mazak-y</title><defs/><g><text fill="#000000" font-family="sans-serif" font-size="14" font-weight="bold" lengthAdjust="spacing" textLength="63.4033" x="904.1945" y="23.5352">Mazak-y</text><g class="entity" data-entity="o1" data-source-line="4" data-uid="ent0002" id="entity_o1"><rect fill="#F1F1F1" height="44.9766" rx="2.5" ry="2.5" style="stroke:#181818;stroke-width:0.5;" width="218.7529" x="429.15" y="820.7283"/><a href="./Mazak-y.html" target="_top" title="./Mazak-y.html" xlink:actuate="onRequest" xlink:href="./Mazak-y.html" xlink:show="new" xlink:title="./Mazak-y.html" xlink:type="simple"><text fill="#0000FF" font-family="sans-serif" font-size="14" lengthAdjust="spacing" text-decoration="underline" textLength="93.085" x="491.984" y="836.2634">data:Mazak-y</text></a><line style="stroke:#181818;stroke-width:0.5;" x1="430.15" x2="646.9029" y1="841.2166" y2="841.2166"/><text fill="#000000" font-family="sans-serif" font-size="14" lengthAdjust="spacing" textLength="206.7529" x="435.15" y="858.7517">type = ex:LinearMotionSystem</text></g><g class="entity" data-entity="o2" data-source-line="7" data-uid="ent0003" id="entity_o2"><rect fill="#F1F1F1" height="61.4648" rx="2.5" ry="2.5" style="stroke:#181818;stroke-width:0.5;" width="254.8535" x="933.76" y="340.4883"/><text fill="#000000" font-family="sans-serif" font-size="14" lengthAdjust="spacing" textLength="138.4756" x="991.949" y="356.0234">data:Mazak-y-name</text><line style="stroke:#181818;stroke-width:0.5;" x1="934.76" x2="1187.6135" y1="360.9766" y2="360.9766"/><text fill="#000000" font-family="sans-serif" font-size="14" lengthAdjust="spacing" textLength="161.3691" x="939.76" y="378.5117">type = cmns-dsg:Name</text><text fill="#000000" font-family="sans-serif" font-size="14" lengthAdjust="spacing" textLength="242.8535" x="939.76" y="395">core:hasSimpleExpressionValue = Y</text></g><g class="entity" data-entity="o3" data-source-line="10" data-uid="ent0004" id="entity_o3"><rect fill="#F1F1F1" height="44.9766" rx="2.5" ry="2.5" style="stroke:#181818;stroke-width:0.5;" width="227.8037" x="947.28" y="436.7283"/><text fill="#000000" font-family="sans-serif" font-size="14" lengthAdjust="spacing" textLength="132.1045" x="995.1296" y="452.2634">data:Mazak-y-spec</text><line style="stroke:#181818;stroke-width:0.5;" x1="948.28" x2="1174.0837" y1="457.2166" y2="457.2166"/><text fill="#000000" font-family="sans-serif" font-size="14" lengthAdjust="spacing" textLength="215.8037" x="953.28" y="474.7517">type = core:DesignSpecification</text></g><g class="entity" data-entity="o4" data-source-line="13" data-uid="ent0005" id="entity_o4"><rect fill="#F1F1F1" height="61.4648" rx="2.5" ry="2.5" style="stroke:#181818;stroke-width:0.5;" width="285.9707" x="1535.64" y="44.4883"/><text fill="#000000" font-family="sans-serif" font-size="14" lengthAdjust="spacing" textLength="259.4854" x="1548.8827" y="60.0234">data:Mazak-y-spec-LENGTH-Nominal</text><line style="stroke:#181818;stroke-width:0.5;" x1="1536.64" x2="1820.6107" y1="64.9766" y2="64.9766"/><text fill="#000000" font-family="sans-serif" font-size="14" lengthAdjust="spacing" textLength="194.4209" x="1541.64" y="82.5117">type = core:ValueExpression</text><text fill="#000000" font-family="sans-serif" font-size="14" lengthAdjust="spacing" textLength="273.9707" x="1541.64" y="99">core:hasSimpleExpressionValue = 550.0</text></g><g class="entity" data-entity="o5" data-source-line="16" data-uid="ent0006" id="entity_o5"><rect fill="#F1F1F1" height="61.4648" rx="2.5" ry="2.5" style="stroke:#181818;stroke-width:0.5;" width="329.0068" x="1514.13" y="140.4883"/><text fill="#000000" font-family="sans-serif" font-size="14" lengthAdjust="spacing" textLength="315.0068" x="1521.13" y="156.0234">data:Mazak-y-spec-LINEAR_FORCE-Maximum</text><line style="stroke:#181818;stroke-width:0.5;" x1="1515.13" x2="1842.1368" y1="160.9766" y2="160.9766"/><text fill="#000000" font-family="sans-serif" font-size="14" lengthAdjust="spacing" textLength="194.4209" x="1520.13" y="178.5117">type = core:ValueExpression</text><text fill="#000000" font-family="sans-serif" font-size="14" lengthAdjust="spacing" textLength="282.8232" x="1520.13" y="195">core:hasSimpleExpressionValue = 5200.0</text></g><g class="entity" data-entity="o6" data-source-line="19" data-uid="ent0007" id="entity_o6"><rect fill="#F1F1F1" height="61.4648" rx="2.5" ry="2.5" style="stroke:#181818;stroke-width:0.5;" width="325.4248" x="1515.92" y="236.4883"/><text fill="#000000" font-family="sans-serif" font-size="14" lengthAdjust="spacing" textLength="311.4248" x="1522.92" y="252.0234">data:Mazak-y-spec-LINEAR_FORCE-Minimum</text><line style="stroke:#181818;stroke-width:0.5;" x1="1516.92" x2="1840.3448" y1="256.9766" y2="256.9766"/><text fill="#000000" font-family="sans-serif" font-size="14" lengthAdjust="spacing" textLength="194.4209" x="1521.92" y="274.5117">type = core:ValueExpression</text><text fill="#000000" font-family="sans-serif" font-size="14" lengthAdjust="spacing" textLength="256.2656" x="1521.92" y="291">core:hasSimpleExpressionValue = 0.0</text></g><g class="entity" data-entity="o7" data-source-line="22" data-uid="ent0008" id="entity_o7"><rect fill="#F1F1F1" height="61.4648" rx="2.5" ry="2.5" style="stroke:#181818;stroke-width:0.5;" width="344.8047" x="1506.23" y="332.4883"/><text fill="#000000" font-family="sans-serif" font-size="14" lengthAdjust="spacing" textLength="330.8047" x="1513.23" y="348.0234">data:Mazak-y-spec-VELOCITY-RAPID-Maximum</text><line style="stroke:#181818;stroke-width:0.5;" x1="1507.23" x2="1850.0347" y1="352.9766" y2="352.9766"/><text fill="#000000" font-family="sans-serif" font-size="14" lengthAdjust="spacing" textLength="194.4209" x="1512.23" y="370.5117">type = core:ValueExpression</text><text fill="#000000" font-family="sans-serif" font-size="14" lengthAdjust="spacing" textLength="282.8232" x="1512.23" y="387">core:hasSimpleExpressionValue = 7000.0</text></g><g class="entity" data-entity="o8" data-source-line="25" data-uid="ent0009" id="entity_o8"><rect fill="#F1F1F1" height="61.4648" rx="2.5" ry="2.5" style="stroke:#181818;stroke-width:0.5;" width="341.2227" x="1508.02" y="428.4883"/><text fill="#000000" font-family="sans-serif" font-size="14" lengthAdjust="spacing" textLength="327.2227" x="1515.02" y="444.0234">data:Mazak-y-spec-VELOCITY-RAPID-Minimum</text><line style="stroke:#181818;stroke-width:0.5;" x1="1509.02" x2="1848.2427" y1="448.9766" y2="448.9766"/><text fill="#000000" font-family="sans-serif" font-size="14" lengthAdjust="spacing" textLength="194.4209" x="1514.02" y="466.5117">type = core:ValueExpression</text><text fill="#000000" font-family="sans-serif" font-size="14" lengthAdjust="spacing" textLength="256.2656" x="1514.02" y="483">core:hasSimpleExpressionValue = 1.0</text></g><g class="entity" data-entity="o9" data-source-line="28" data-uid="ent0010" id="entity_o9"><rect fill="#F1F1F1" height="61.4648" rx="2.5" ry="2.5" style="stroke:#181818;stroke-width:0.5;" width="402.3223" x="1477.47" y="524.4883"/><text fill="#000000" font-family="sans-serif" font-size="14" lengthAdjust="spacing" textLength="388.3223" x="1484.47" y="540.0234">data:Mazak-y-spec-VELOCITY-PROGRAMMED-Maximum</text><line style="stroke:#181818;stroke-width:0.5;" x1="1478.47" x2="1878.7923" y1="544.9766" y2="544.9766"/><text fill="#000000" font-family="sans-serif" font-size="14" lengthAdjust="spacing" textLength="194.4209" x="1483.47" y="562.5117">type = core:ValueExpression</text><text fill="#000000" font-family="sans-serif" font-size="14" lengthAdjust="spacing" textLength="282.8232" x="1483.47" y="579">core:hasSimpleExpressionValue = 7000.0</text></g><g class="entity" data-entity="o10" data-source-line="31" data-uid="ent0011" id="entity_o10"><rect fill="#F1F1F1" height="61.4648" rx="2.5" ry="2.5" style="stroke:#181818;stroke-width:0.5;" width="398.7402" x="1479.26" y="620.4883"/><text fill="#000000" font-family="sans-serif" font-size="14" lengthAdjust="spacing" textLength="384.7402" x="1486.26" y="636.0234">data:Mazak-y-spec-VELOCITY-PROGRAMMED-Minimum</text><line style="stroke:#181818;stroke-width:0.5;" x1="1480.26" x2="1877.0002" y1="640.9766" y2="640.9766"/><text fill="#000000" font-family="sans-serif" font-size="14" lengthAdjust="spacing" textLength="194.4209" x="1485.26" y="658.5117">type = core:ValueExpression</text><text fill="#000000" font-family="sans-serif" font-size="14" lengthAdjust="spacing" textLength="256.2656" x="1485.26" y="675">core:hasSimpleExpressionValue = 1.0</text></g><g class="entity" data-entity="o11" data-source-line="34" data-uid="ent0012" id="entity_o11"><rect fill="#F1F1F1" height="44.9766" rx="2.5" ry="2.5" style="stroke:#181818;stroke-width:0.5;" width="148.9277" x="986.72" y="620.7283"/><a href="./Mazak-xaxism.html" target="_top" title="./Mazak-xaxism.html" xlink:actuate="onRequest" xlink:href="./Mazak-xaxism.html" xlink:show="new" xlink:title="./Mazak-xaxism.html" xlink:type="simple"><text fill="#0000FF" font-family="sans-serif" font-size="14" lengthAdjust="spacing" text-decoration="underline" textLength="134.9277" x="993.72" y="636.2634">data:Mazak-xaxism</text></a><line style="stroke:#181818;stroke-width:0.5;" x1="987.72" x2="1134.6477" y1="641.2166" y2="641.2166"/><text fill="#000000" font-family="sans-serif" font-size="14" lengthAdjust="spacing" textLength="131.7832" x="992.72" y="658.7517">type = ex:Structure</text></g><g class="entity" data-entity="o12" data-source-line="37" data-uid="ent0013" id="entity_o12"><rect fill="#F1F1F1" height="61.4648" rx="2.5" ry="2.5" style="stroke:#181818;stroke-width:0.5;" width="291.8906" x="1532.68" y="716.4883"/><text fill="#000000" font-family="sans-serif" font-size="14" lengthAdjust="spacing" textLength="180.3184" x="1588.4661" y="732.0234">data:Mazak-xaxism-name</text><line style="stroke:#181818;stroke-width:0.5;" x1="1533.68" x2="1823.5706" y1="736.9766" y2="736.9766"/><text fill="#000000" font-family="sans-serif" font-size="14" lengthAdjust="spacing" textLength="161.3691" x="1538.68" y="754.5117">type = cmns-dsg:Name</text><text fill="#000000" font-family="sans-serif" font-size="14" lengthAdjust="spacing" textLength="279.8906" x="1538.68" y="771">core:hasSimpleExpressionValue = X_AXIS</text></g><g class="entity" data-entity="o13" data-source-line="40" data-uid="ent0014" id="entity_o13"><rect fill="#F1F1F1" height="44.9766" rx="2.5" ry="2.5" style="stroke:#181818;stroke-width:0.5;" width="147.6563" x="987.36" y="700.7283"/><a href="./Mazak-yaxism.html" target="_top" title="./Mazak-yaxism.html" xlink:actuate="onRequest" xlink:href="./Mazak-yaxism.html" xlink:show="new" xlink:title="./Mazak-yaxism.html" xlink:type="simple"><text fill="#0000FF" font-family="sans-serif" font-size="14" lengthAdjust="spacing" text-decoration="underline" textLength="133.6563" x="994.36" y="716.2634">data:Mazak-yaxism</text></a><line style="stroke:#181818;stroke-width:0.5;" x1="988.36" x2="1134.0163" y1="721.2166" y2="721.2166"/><text fill="#000000" font-family="sans-serif" font-size="14" lengthAdjust="spacing" textLength="131.7832" x="993.36" y="738.7517">type = ex:Structure</text></g><g class="entity" data-entity="o14" data-source-line="43" data-uid="ent0015" id="entity_o14"><rect fill="#F1F1F1" height="61.4648" rx="2.5" ry="2.5" style="stroke:#181818;stroke-width:0.5;" width="291.8496" x="1532.71" y="812.4883"/><text fill="#000000" font-family="sans-serif" font-size="14" lengthAdjust="spacing" textLength="179.0469" x="1589.1114" y="828.0234">data:Mazak-yaxism-name</text><line style="stroke:#181818;stroke-width:0.5;" x1="1533.71" x2="1823.5596" y1="832.9766" y2="832.9766"/><text fill="#000000" font-family="sans-serif" font-size="14" lengthAdjust="spacing" textLength="161.3691" x="1538.71" y="850.5117">type = cmns-dsg:Name</text><text fill="#000000" font-family="sans-serif" font-size="14" lengthAdjust="spacing" textLength="279.8496" x="1538.71" y="867">core:hasSimpleExpressionValue = Y_AXIS</text></g><g class="entity" data-entity="o15" data-source-line="46" data-uid="ent0016" id="entity_o15"><rect fill="#F1F1F1" height="44.9766" rx="2.5" ry="2.5" style="stroke:#181818;stroke-width:0.5;" width="258.5654" x="931.9" y="780.7283"/><text fill="#000000" font-family="sans-serif" font-size="14" lengthAdjust="spacing" textLength="157.4521" x="982.4566" y="796.2634">data:Mazak-y-function</text><line style="stroke:#181818;stroke-width:0.5;" x1="932.9" x2="1189.4654" y1="801.2166" y2="801.2166"/><text fill="#000000" font-family="sans-serif" font-size="14" lengthAdjust="spacing" textLength="246.5654" x="937.9" y="818.7517">type = ex:PrismaticMotionCapability</text></g><g class="entity" data-entity="o16" data-source-line="49" data-uid="ent0017" id="entity_o16"><rect fill="#F1F1F1" height="44.9766" rx="2.5" ry="2.5" style="stroke:#181818;stroke-width:0.5;" width="219.0576" x="951.66" y="860.7283"/><text fill="#000000" font-family="sans-serif" font-size="14" lengthAdjust="spacing" textLength="205.0576" x="958.66" y="876.2634">data:Mazak-y-position-actual</text><line style="stroke:#181818;stroke-width:0.5;" x1="952.66" x2="1169.7176" y1="881.2166" y2="881.2166"/><text fill="#000000" font-family="sans-serif" font-size="14" lengthAdjust="spacing" textLength="163.2285" x="957.66" y="898.7517">type = qp:Displacement</text></g><g class="entity" data-entity="o17" data-source-line="52" data-uid="ent0018" id="entity_o17"><rect fill="#F1F1F1" height="44.9766" rx="2.5" ry="2.5" style="stroke:#181818;stroke-width:0.5;" width="175.2285" x="973.57" y="940.7283"/><text fill="#000000" font-family="sans-serif" font-size="14" lengthAdjust="spacing" textLength="156.3516" x="983.0085" y="956.2634">data:Mazak-y-position</text><line style="stroke:#181818;stroke-width:0.5;" x1="974.57" x2="1147.7985" y1="961.2166" y2="961.2166"/><text fill="#000000" font-family="sans-serif" font-size="14" lengthAdjust="spacing" textLength="163.2285" x="979.57" y="978.7517">type = qp:Displacement</text></g><g class="entity" data-entity="o18" data-source-line="55" data-uid="ent0019" id="entity_o18"><rect fill="#F1F1F1" height="44.9766" rx="2.5" ry="2.5" style="stroke:#181818;stroke-width:0.5;" width="198.8164" x="961.78" y="1020.7283"/><text fill="#000000" font-family="sans-serif" font-size="14" lengthAdjust="spacing" textLength="184.8164" x="968.78" y="1036.2634">data:Mazak-y-temperature</text><line style="stroke:#181818;stroke-width:0.5;" x1="962.78" x2="1159.5964" y1="1041.2166" y2="1041.2166"/><text fill="#000000" font-family="sans-serif" font-size="14" lengthAdjust="spacing" textLength="158.4502" x="967.78" y="1058.7517">type = qp:Temperature</text></g><g class="entity" data-entity="o19" data-source-line="58" data-uid="ent0020" id="entity_o19"><rect fill="#F1F1F1" height="44.9766" rx="2.5" ry="2.5" style="stroke:#181818;stroke-width:0.5;" width="187.168" x="967.6" y="1100.7283"/><a href="./Mazak-y-Yballscrew.html" target="_top" title="./Mazak-y-Yballscrew.html" xlink:actuate="onRequest" xlink:href="./Mazak-y-Yballscrew.html" xlink:show="new" xlink:title="./Mazak-y-Yballscrew.html" xlink:type="simple"><text fill="#0000FF" font-family="sans-serif" font-size="14" lengthAdjust="spacing" text-decoration="underline" textLength="173.168" x="974.6" y="1116.2634">data:Mazak-y-Yballscrew</text></a><line style="stroke:#181818;stroke-width:0.5;" x1="968.6" x2="1153.768" y1="1121.2166" y2="1121.2166"/><text fill="#000000" font-family="sans-serif" font-size="14" lengthAdjust="spacing" textLength="132.4668" x="973.6" y="1138.7517">type = ex:Ballscrew</text></g><g class="entity" data-entity="o20" data-source-line="61" data-uid="ent0021" id="entity_o20"><rect fill="#F1F1F1" height="61.4648" rx="2.5" ry="2.5" style="stroke:#181818;stroke-width:0.5;" width="318.1133" x="1519.57" y="1088.4883"/><text fill="#000000" font-family="sans-serif" font-size="14" lengthAdjust="spacing" textLength="218.5586" x="1569.3473" y="1104.0234">data:Mazak-y-Yballscrew-name</text><line style="stroke:#181818;stroke-width:0.5;" x1="1520.57" x2="1836.6833" y1="1108.9766" y2="1108.9766"/><text fill="#000000" font-family="sans-serif" font-size="14" lengthAdjust="spacing" textLength="161.3691" x="1525.57" y="1126.5117">type = cmns-dsg:Name</text><text fill="#000000" font-family="sans-serif" font-size="14" lengthAdjust="spacing" textLength="306.1133" x="1525.57" y="1143">core:hasSimpleExpressionValue = Yballscrew</text></g><g class="entity" data-entity="o21" data-source-line="64" data-uid="ent0022" id="entity_o21"><rect fill="#F1F1F1" height="44.9766" rx="2.5" ry="2.5" style="stroke:#181818;stroke-width:0.5;" width="165.1426" x="978.61" y="1184.7283"/><a href="./Mazak-y-Ymotor.html" target="_top" title="./Mazak-y-Ymotor.html" xlink:actuate="onRequest" xlink:href="./Mazak-y-Ymotor.html" xlink:show="new" xlink:title="./Mazak-y-Ymotor.html" xlink:type="simple"><text fill="#0000FF" font-family="sans-serif" font-size="14" lengthAdjust="spacing" text-decoration="underline" textLength="151.1426" x="985.61" y="1200.2634">data:Mazak-y-Ymotor</text></a><line style="stroke:#181818;stroke-width:0.5;" x1="979.61" x2="1142.7526" y1="1205.2166" y2="1205.2166"/><text fill="#000000" font-family="sans-serif" font-size="14" lengthAdjust="spacing" textLength="110.1885" x="984.61" y="1222.7517">type = ex:Motor</text></g><g class="entity" data-entity="o22" data-source-line="67" data-uid="ent0023" id="entity_o22"><rect fill="#F1F1F1" height="61.4648" rx="2.5" ry="2.5" style="stroke:#181818;stroke-width:0.5;" width="296.0879" x="1530.59" y="1184.4883"/><text fill="#000000" font-family="sans-serif" font-size="14" lengthAdjust="spacing" textLength="196.5332" x="1580.3673" y="1200.0234">data:Mazak-y-Ymotor-name</text><line style="stroke:#181818;stroke-width:0.5;" x1="1531.59" x2="1825.6779" y1="1204.9766" y2="1204.9766"/><text fill="#000000" font-family="sans-serif" font-size="14" lengthAdjust="spacing" textLength="161.3691" x="1536.59" y="1222.5117">type = cmns-dsg:Name</text><text fill="#000000" font-family="sans-serif" font-size="14" lengthAdjust="spacing" textLength="284.0879" x="1536.59" y="1239">core:hasSimpleExpressionValue = Ymotor</text></g><g class="entity" data-entity="o23" data-source-line="70" data-uid="ent0024" id="entity_o23"><rect fill="#F1F1F1" height="44.9766" rx="2.5" ry="2.5" style="stroke:#181818;stroke-width:0.5;" width="138.1504" x="7" y="820.7283"/><a href="./Mazak.html" target="_top" title="./Mazak.html" xlink:actuate="onRequest" xlink:href="./Mazak.html" xlink:show="new" xlink:title="./Mazak.html" xlink:type="simple"><text fill="#0000FF" font-family="sans-serif" font-size="14" lengthAdjust="spacing" text-decoration="underline" textLength="77.6699" x="37.2402" y="836.2634">data:Mazak</text></a><line style="stroke:#181818;stroke-width:0.5;" x1="8" x2="144.1504" y1="841.2166" y2="841.2166"/><text fill="#000000" font-family="sans-serif" font-size="14" lengthAdjust="spacing" textLength="126.1504" x="13" y="858.7517">type = ex:Machine</text></g><!--link o1 to o2--><g class="link" data-entity-1="o1" data-entity-2="o2" data-source-line="73" data-uid="lnk25" id="link_o1_o2"><path codeLine="73" d="M549.37,820.2483 C580.98,746.4483 677.9,520.2183 677.9,520.2183 C677.9,520.2183 931.9,419.2183 931.9,419.2183 C931.9,419.2183 946.6507,413.7015 971.1507,404.5315" fill="none" id="o1-to-o2" style="stroke:#181818;stroke-width:1;"/><polygon fill="#181818" points="976.77,402.4283,966.9389,401.8369,972.0873,404.181,969.7432,409.3293,976.77,402.4283" style="stroke:#181818;stroke-width:1;"/><text fill="#000000" font-family="sans-serif" font-size="13" lengthAdjust="spacing" textLength="126.0771" x="726.9" y="428.2966">cmns-dsg:hasName</text></g><!--link o1 to o3--><g class="link" data-entity-1="o1" data-entity-2="o3" data-source-line="75" data-uid="lnk26" id="link_o1_o3"><path codeLine="75" d="M556.22,820.5383 C593.02,770.5383 677.9,655.2183 677.9,655.2183 C677.9,655.2183 909.4009,536.5258 1010.2509,484.8158" fill="none" id="o1-to-o3" style="stroke:#181818;stroke-width:1;"/><polygon fill="#181818" points="1015.59,482.0783,1005.7563,482.6252,1011.1408,484.3596,1009.4064,489.744,1015.59,482.0783" style="stroke:#181818;stroke-width:1;"/><text fill="#000000" font-family="sans-serif" font-size="13" lengthAdjust="spacing" textLength="112.3027" x="733.9" y="542.0466">core:prescribedBy</text></g><!--link o3 to o4--><g class="link" data-entity-1="o3" data-entity-2="o4" data-source-line="76" data-uid="lnk27" id="link_o3_o4"><path codeLine="76" d="M1135.69,436.2983 C1164.36,427.3583 1190.47,419.2183 1190.47,419.2183 C1190.47,419.2183 1220.47,204.2183 1220.47,204.2183 C1220.47,204.2183 1477.47,123.2183 1477.47,123.2183 C1477.47,123.2183 1503.4054,116.9974 1541.6454,107.8274" fill="none" id="o3-to-o4" style="stroke:#181818;stroke-width:1;"/><polygon fill="#181818" points="1547.48,106.4283,1537.7954,104.6373,1542.6178,107.5942,1539.6609,112.4167,1547.48,106.4283" style="stroke:#181818;stroke-width:1;"/><text fill="#000000" font-family="sans-serif" font-size="13" lengthAdjust="spacing" textLength="225.0688" x="1221.47" y="129.8166">core:hasValueExpressionAtAllTimes</text></g><!--link o3 to o5--><g class="link" data-entity-1="o3" data-entity-2="o5" data-source-line="78" data-uid="lnk28" id="link_o3_o5"><path codeLine="78" d="M1135.69,436.2983 C1164.36,427.3583 1190.47,419.2183 1190.47,419.2183 C1190.47,419.2183 1220.47,300.2183 1220.47,300.2183 C1220.47,300.2183 1477.47,219.2183 1477.47,219.2183 C1477.47,219.2183 1503.4054,212.9974 1541.6454,203.8274" fill="none" id="o3-to-o5" style="stroke:#181818;stroke-width:1;"/><polygon fill="#181818" points="1547.48,202.4283,1537.7954,200.6373,1542.6178,203.5942,1539.6609,208.4167,1547.48,202.4283" style="stroke:#181818;stroke-width:1;"/><text fill="#000000" font-family="sans-serif" font-size="13" lengthAdjust="spacing" textLength="225.0688" x="1221.47" y="225.8166">core:hasValueExpressionAtAllTimes</text></g><!--link o3 to o6--><g class="link" data-entity-1="o3" data-entity-2="o6" data-source-line="80" data-uid="lnk29" id="link_o3_o6"><path codeLine="80" d="M1135.69,436.2983 C1164.36,427.3583 1190.47,419.2183 1190.47,419.2183 C1190.47,419.2183 1220.47,376.2183 1220.47,376.2183 C1220.47,376.2183 1405.9836,331.9797 1541.0936,299.7697" fill="none" id="o3-to-o6" style="stroke:#181818;stroke-width:1;"/><polygon fill="#181818" points="1546.93,298.3783,1537.2477,296.5744,1542.0663,299.5378,1539.1029,304.3563,1546.93,298.3783" style="stroke:#181818;stroke-width:1;"/><text fill="#000000" font-family="sans-serif" font-size="13" lengthAdjust="spacing" textLength="225.0688" x="1221.47" y="321.5566">core:hasValueExpressionAtAllTimes</text></g><!--link o3 to o7--><g class="link" data-entity-1="o3" data-entity-2="o7" data-source-line="82" data-uid="lnk30" id="link_o3_o7"><path codeLine="82" d="M1175.53,441.3083 C1200.91,437.3083 1220.47,434.2183 1220.47,434.2183 C1220.47,434.2183 1370.191,410.9588 1499.841,390.8288" fill="none" id="o3-to-o7" style="stroke:#181818;stroke-width:1;"/><polygon fill="#181818" points="1505.77,389.9083,1496.2629,387.3365,1500.8292,390.6754,1497.4903,395.2418,1505.77,389.9083" style="stroke:#181818;stroke-width:1;"/><text fill="#000000" font-family="sans-serif" font-size="13" lengthAdjust="spacing" textLength="225.0688" x="1221.47" y="397.4166">core:hasValueExpressionAtAllTimes</text></g><!--link o3 to o8--><g class="link" data-entity-1="o3" data-entity-2="o8" data-source-line="84" data-uid="lnk31" id="link_o3_o8"><path codeLine="84" d="M1175.43,459.2183 C1268.47,459.2183 1395.7,459.2183 1501.56,459.2183" fill="none" id="o3-to-o8" style="stroke:#181818;stroke-width:1;"/><polygon fill="#181818" points="1507.56,459.2183,1498.56,455.2183,1502.56,459.2183,1498.56,463.2183,1507.56,459.2183" style="stroke:#181818;stroke-width:1;"/><text fill="#000000" font-family="sans-serif" font-size="13" lengthAdjust="spacing" textLength="225.0688" x="1221.47" y="455.7866">core:hasValueExpressionAtAllTimes</text></g><!--link o3 to o9--><g class="link" data-entity-1="o3" data-entity-2="o9" data-source-line="86" data-uid="lnk32" id="link_o3_o9"><path codeLine="86" d="M1175.53,477.1183 C1200.91,481.1283 1220.47,484.2183 1220.47,484.2183 C1220.47,484.2183 1348.3511,504.0773 1471.1811,523.1573" fill="none" id="o3-to-o9" style="stroke:#181818;stroke-width:1;"/><polygon fill="#181818" points="1477.11,524.0783,1468.8306,518.7442,1472.1693,523.3108,1467.6027,526.6494,1477.11,524.0783" style="stroke:#181818;stroke-width:1;"/><text fill="#000000" font-family="sans-serif" font-size="13" lengthAdjust="spacing" textLength="225.0688" x="1221.47" y="480.7866">core:hasValueExpressionAtAllTimes</text></g><!--link o3 to o10--><g class="link" data-entity-1="o3" data-entity-2="o10" data-source-line="88" data-uid="lnk33" id="link_o3_o10"><path codeLine="88" d="M1105.86,482.1183 C1152.71,506.6783 1220.47,542.2183 1220.47,542.2183 C1220.47,542.2183 1405.9837,586.4465 1541.0937,618.6665" fill="none" id="o3-to-o10" style="stroke:#181818;stroke-width:1;"/><polygon fill="#181818" points="1546.93,620.0583,1539.1034,614.0797,1542.0664,618.8984,1537.2476,621.8615,1546.93,620.0583" style="stroke:#181818;stroke-width:1;"/><text fill="#000000" font-family="sans-serif" font-size="13" lengthAdjust="spacing" textLength="225.0688" x="1221.47" y="538.7866">core:hasValueExpressionAtAllTimes</text></g><!--link o1 to o11--><g class="link" data-entity-1="o1" data-entity-2="o11" data-source-line="90" data-uid="lnk34" id="link_o1_o11"><path codeLine="90" d="M566.87,820.4983 C607.19,786.9783 677.9,728.2183 677.9,728.2183 C677.9,728.2183 869.533,685.6105 980.623,660.9105" fill="none" id="o1-to-o11" style="stroke:#181818;stroke-width:1;"/><polygon fill="#181818" points="986.48,659.6083,976.8264,657.657,981.5992,660.6935,978.5627,665.4663,986.48,659.6083" style="stroke:#181818;stroke-width:1;"/><text fill="#000000" font-family="sans-serif" font-size="13" lengthAdjust="spacing" textLength="74.7246" x="752.9" y="677.1966">ex:joinedTo</text></g><!--link o11 to o12--><g class="link" data-entity-1="o11" data-entity-2="o12" data-source-line="91" data-uid="lnk35" id="link_o11_o12"><path codeLine="91" d="M1135.69,666.1383 C1164.36,675.0783 1190.47,683.2183 1190.47,683.2183 C1190.47,683.2183 1220.47,711.2183 1220.47,711.2183 C1220.47,711.2183 1392.5085,724.7673 1526.3685,735.3073" fill="none" id="o11-to-o12" style="stroke:#181818;stroke-width:1;"/><polygon fill="#181818" points="1532.35,735.7783,1523.6918,731.0842,1527.3654,735.3858,1523.0638,739.0595,1532.35,735.7783" style="stroke:#181818;stroke-width:1;"/><text fill="#000000" font-family="sans-serif" font-size="13" lengthAdjust="spacing" textLength="126.0771" x="1270.97" y="707.7866">cmns-dsg:hasName</text></g><!--link o1 to o13--><g class="link" data-entity-1="o1" data-entity-2="o13" data-source-line="93" data-uid="lnk36" id="link_o1_o13"><path codeLine="93" d="M600.62,820.2583 C637.69,806.3283 677.9,791.2183 677.9,791.2183 C677.9,791.2183 870.0227,757.0388 981.0227,737.2988" fill="none" id="o1-to-o13" style="stroke:#181818;stroke-width:1;"/><polygon fill="#181818" points="986.93,736.2483,977.3687,733.8859,982.0072,737.1237,978.7694,741.7623,986.93,736.2483" style="stroke:#181818;stroke-width:1;"/><text fill="#000000" font-family="sans-serif" font-size="13" lengthAdjust="spacing" textLength="74.7246" x="752.9" y="749.7166">ex:joinedTo</text></g><!--link o13 to o14--><g class="link" data-entity-1="o13" data-entity-2="o14" data-source-line="94" data-uid="lnk37" id="link_o13_o14"><path codeLine="94" d="M1135.51,737.5083 C1233.04,756.5283 1401.7409,789.4198 1526.4509,813.7398" fill="none" id="o13-to-o14" style="stroke:#181818;stroke-width:1;"/><polygon fill="#181818" points="1532.34,814.8883,1524.272,809.2396,1527.4324,813.9312,1522.7408,817.0917,1532.34,814.8883" style="stroke:#181818;stroke-width:1;"/><text fill="#000000" font-family="sans-serif" font-size="13" lengthAdjust="spacing" textLength="126.0771" x="1270.97" y="751.9666">cmns-dsg:hasName</text></g><!--link o1 to o15--><g class="link" data-entity-1="o1" data-entity-2="o15" data-source-line="96" data-uid="lnk38" id="link_o1_o15"><path codeLine="96" d="M648.36,834.8583 C730.93,828.5083 838.7176,820.2274 925.7576,813.5474" fill="none" id="o1-to-o15" style="stroke:#181818;stroke-width:1;"/><polygon fill="#181818" points="931.74,813.0883,922.4603,809.7887,926.7547,813.4709,923.0725,817.7652,931.74,813.0883" style="stroke:#181818;stroke-width:1;"/><text fill="#000000" font-family="sans-serif" font-size="13" lengthAdjust="spacing" textLength="107.6309" x="736.4" y="812.7266">core:hasFunction</text></g><!--link o1 to o16--><g class="link" data-entity-1="o1" data-entity-2="o16" data-source-line="97" data-uid="lnk39" id="link_o1_o16"><path codeLine="97" d="M648.22,854.2083 C665.55,855.9683 677.9,857.2183 677.9,857.2183 C677.9,857.2183 832.4138,867.7209 945.4238,875.4109" fill="none" id="o1-to-o16" style="stroke:#181818;stroke-width:1;"/><polygon fill="#181818" points="951.41,875.8183,942.7023,871.2165,946.4215,875.4788,942.1592,879.198,951.41,875.8183" style="stroke:#181818;stroke-width:1;"/><text fill="#000000" font-family="sans-serif" font-size="13" lengthAdjust="spacing" textLength="171.3169" x="704.4" y="853.7866">core:measuresAtSomeTime</text></g><!--link o1 to o17--><g class="link" data-entity-1="o1" data-entity-2="o17" data-source-line="98" data-uid="lnk40" id="link_o1_o17"><path codeLine="98" d="M598.21,866.1183 C635.93,880.8383 677.9,897.2183 677.9,897.2183 C677.9,897.2183 854.7374,927.7476 967.5274,947.2176" fill="none" id="o1-to-o17" style="stroke:#181818;stroke-width:1;"/><polygon fill="#181818" points="973.44,948.2383,965.2516,942.7656,968.5129,947.3878,963.8907,950.649,973.44,948.2383" style="stroke:#181818;stroke-width:1;"/><text fill="#000000" font-family="sans-serif" font-size="13" lengthAdjust="spacing" textLength="171.3169" x="704.4" y="893.7866">core:measuresAtSomeTime</text></g><!--link o1 to o18--><g class="link" data-entity-1="o1" data-entity-2="o18" data-source-line="99" data-uid="lnk41" id="link_o1_o18"><path codeLine="99" d="M566.87,866.1383 C607.19,899.9383 677.9,959.2183 677.9,959.2183 C677.9,959.2183 842.6098,995.4106 955.8798,1020.3006" fill="none" id="o1-to-o18" style="stroke:#181818;stroke-width:1;"/><polygon fill="#181818" points="961.74,1021.5883,953.8082,1015.7499,956.8565,1020.5152,952.0912,1023.5635,961.74,1021.5883" style="stroke:#181818;stroke-width:1;"/><text fill="#000000" font-family="sans-serif" font-size="13" lengthAdjust="spacing" textLength="171.3169" x="704.4" y="955.7866">core:measuresAtSomeTime</text></g><!--link o1 to o19--><g class="link" data-entity-1="o1" data-entity-2="o19" data-source-line="100" data-uid="lnk42" id="link_o1_o19"><path codeLine="100" d="M556.22,865.8883 C593.02,915.8983 677.9,1031.2183 677.9,1031.2183 C677.9,1031.2183 848.1665,1072.1946 961.3265,1099.4246" fill="none" id="o1-to-o19" style="stroke:#181818;stroke-width:1;"/><polygon fill="#181818" points="967.16,1100.8283,959.3456,1094.8337,962.2988,1099.6585,957.474,1102.6117,967.16,1100.8283" style="stroke:#181818;stroke-width:1;"/><text fill="#000000" font-family="sans-serif" font-size="13" lengthAdjust="spacing" textLength="222.5425" x="678.9" y="1027.7866">obo:has member part at some time</text></g><!--link o19 to o20--><g class="link" data-entity-1="o19" data-entity-2="o20" data-source-line="101" data-uid="lnk43" id="link_o19_o20"><path codeLine="101" d="M1154.99,1122.6083 C1251.28,1121.9883 1397.6501,1121.0373 1513.0801,1120.2873" fill="none" id="o19-to-o20" style="stroke:#181818;stroke-width:1;"/><polygon fill="#181818" points="1519.08,1120.2483,1510.0542,1116.3068,1514.0801,1120.2808,1510.1062,1124.3067,1519.08,1120.2483" style="stroke:#181818;stroke-width:1;"/><text fill="#000000" font-family="sans-serif" font-size="13" lengthAdjust="spacing" textLength="126.0771" x="1270.97" y="1117.3066">cmns-dsg:hasName</text></g><!--link o1 to o21--><g class="link" data-entity-1="o1" data-entity-2="o21" data-source-line="103" data-uid="lnk44" id="link_o1_o21"><path codeLine="103" d="M551.32,865.8083 C584.79,929.8983 677.9,1108.2183 677.9,1108.2183 C677.9,1108.2183 860.0416,1155.3841 972.3716,1184.4741" fill="none" id="o1-to-o21" style="stroke:#181818;stroke-width:1;"/><polygon fill="#181818" points="978.18,1185.9783,970.4702,1179.8497,973.3397,1184.7248,968.4646,1187.5943,978.18,1185.9783" style="stroke:#181818;stroke-width:1;"/><text fill="#000000" font-family="sans-serif" font-size="13" lengthAdjust="spacing" textLength="222.5425" x="678.9" y="1104.7866">obo:has member part at some time</text></g><!--link o21 to o22--><g class="link" data-entity-1="o21" data-entity-2="o22" data-source-line="104" data-uid="lnk45" id="link_o21_o22"><path codeLine="104" d="M1144.23,1208.2783 C1242.57,1209.5583 1403.2205,1211.6504 1524.1105,1213.2204" fill="none" id="o21-to-o22" style="stroke:#181818;stroke-width:1;"/><polygon fill="#181818" points="1530.11,1213.2983,1521.1627,1209.1817,1525.1104,1213.2334,1521.0588,1217.1811,1530.11,1213.2983" style="stroke:#181818;stroke-width:1;"/><text fill="#000000" font-family="sans-serif" font-size="13" lengthAdjust="spacing" textLength="126.0771" x="1270.97" y="1205.9266">cmns-dsg:hasName</text></g><!--link o23 to o1--><g class="link" data-entity-1="o23" data-entity-2="o1" data-source-line="106" data-uid="lnk46" id="link_o23_o1"><path codeLine="106" d="M145.51,843.2183 C220.29,843.2183 335.12,843.2183 422.89,843.2183" fill="none" id="o23-to-o1" style="stroke:#181818;stroke-width:1;"/><polygon fill="#181818" points="428.89,843.2183,419.89,839.2183,423.89,843.2183,419.89,847.2183,428.89,843.2183" style="stroke:#181818;stroke-width:1;"/><text fill="#000000" font-family="sans-serif" font-size="13" lengthAdjust="spacing" textLength="222.5425" x="176.15" y="839.7866">obo:has member part at some time</text></g><!--SRC=[hPPTRzem58RlyokitgTB-2WGQPFIbdP83Qq0LKLLLPdW5hTndCL68vlstsSd8N42QSt69SV7ptaTd_CQzex32CQGW027Y2SH0X4D4ld32D0B1vo26B-kE5ZY6FaSqz3Wc0S8UF0NV3SJWoxUH1oSF3wUVibZfojE0h2473fvvEdf1406g0r-6o2jyXMWZNCZoi3Oen8xJHX7n01_2g8AC4D8KCPeAGoVXCnSibTdB9ORzx88-TdUjhgNniYvH0o_XbEHW5-m3zFpVOGnRuRZwzbtSqm93c6GKJjrwZqCrcYuYMB4sEV4qNZeJfwlRYSNGzE36qpM9EDsZyZ5OSaz-o_k_V3czc8qcviJzsvqMLNSEofPrTm_3lbkSdizSJrlM1C-E3vULMzR1_3BITe8YOpiZ5CMBcQgDbHJ7gzzlewRvY7RhGoKhJLHodplLvLKLRKFKvNigEeSFESlwp1rg1pGhIguYqK1CU5-vZSNC88B762UDF8Yoh1CDQ5GlXrsMvsU7v5pYLaKG1yH5F9FIJcYzmy8OOuHYg7yX3cbNwNCoeI6UpFd2nW4p8_HpztRKnQBEnnKl-3vDg5HPCbG3TiwiB_CEQ6SnliqfWjRVQrQvtjoiLbRkbVLTLZVr-KKAcgTxa5_9PzFoR21QNwJJvPJ5bX1bjR8ej8BH6IAIHGeVf3QW-3D2qPxcorJ_1WlqF9SlBxjRBMZi6hMud8t26QO86PKqffAThlMgLM0kthWhWwuPQdaCptocGPPnVRqi3qDRC-g2ExhaViQP5l13lImWyC5YrT72rt9-r1otelYoN5agxzHqUZB6JLa95lPt-gsJgy_FBiFesbPfBrJP7kkpluYEjqzhnLH6_SgVp_ArQBv289C62jp-PGI9BzRcTJJIUhh9CaxfWigjG22o0B5GFmvvm1om4Gou5ds87SLQx-jwDncQTIbITbQrLlRz0PJqtArr8eDQPtPmJKg_mK0]--></g></svg>