<svg xmlns="http://www.w3.org/2000/svg" xmlns:xlink="http://www.w3.org/1999/xlink" contentStyleType="text/css" data-diagram-type="CLASS" height="838px" preserveAspectRatio="none" style="width:1786px;height:838px;background:#FFFFFF;" version="1.1" viewBox="0 0 1786 838" width="1786px" zoomAndPan="magnify"><defs/><g><g class="entity" data-entity="o1" data-source-line="3" data-uid="ent0002" id="entity_o1"><rect fill="#F1F1F1" height="44.9766" rx="2.5" ry="2.5" style="stroke:#181818;stroke-width:0.5;" width="220.7559" x="429.15" y="467"/><a href="./Mazak-c2.html" target="_top" title="./Mazak-c2.html" xlink:actuate="onRequest" xlink:href="./Mazak-c2.html" xlink:show="new" xlink:title="./Mazak-c2.html" xlink:type="simple"><text fill="#0000FF" font-family="sans-serif" font-size="14" lengthAdjust="spacing" text-decoration="underline" textLength="101.7939" x="488.631" y="482.5352">data:Mazak-c2</text></a><line style="stroke:#181818;stroke-width:0.5;" x1="430.15" x2="648.9059" y1="487.4883" y2="487.4883"/><text fill="#000000" font-family="sans-serif" font-size="14" lengthAdjust="spacing" textLength="208.7559" x="435.15" y="505.0234">type = ex:RotaryMotionSystem</text></g><g class="entity" data-entity="o2" data-source-line="6" data-uid="ent0003" id="entity_o2"><rect fill="#F1F1F1" height="61.4648" rx="2.5" ry="2.5" style="stroke:#181818;stroke-width:0.5;" width="264.6699" x="933.91" y="90.76"/><text fill="#000000" font-family="sans-serif" font-size="14" lengthAdjust="spacing" textLength="147.1846" x="992.6527" y="106.2952">data:Mazak-c2-name</text><line style="stroke:#181818;stroke-width:0.5;" x1="934.91" x2="1197.5799" y1="111.2483" y2="111.2483"/><text fill="#000000" font-family="sans-serif" font-size="14" lengthAdjust="spacing" textLength="161.3691" x="939.91" y="128.7834">type = cmns-dsg:Name</text><text fill="#000000" font-family="sans-serif" font-size="14" lengthAdjust="spacing" textLength="252.6699" x="939.91" y="145.2717">core:hasSimpleExpressionValue = C2</text></g><g class="entity" data-entity="o3" data-source-line="9" data-uid="ent0004" id="entity_o3"><rect fill="#F1F1F1" height="44.9766" rx="2.5" ry="2.5" style="stroke:#181818;stroke-width:0.5;" width="227.8037" x="952.34" y="187"/><text fill="#000000" font-family="sans-serif" font-size="14" lengthAdjust="spacing" textLength="140.8135" x="995.8351" y="202.5352">data:Mazak-c2-spec</text><line style="stroke:#181818;stroke-width:0.5;" x1="953.34" x2="1179.1437" y1="207.4883" y2="207.4883"/><text fill="#000000" font-family="sans-serif" font-size="14" lengthAdjust="spacing" textLength="215.8037" x="958.34" y="225.0234">type = core:DesignSpecification</text></g><g class="entity" data-entity="o4" data-source-line="12" data-uid="ent0005" id="entity_o4"><rect fill="#F1F1F1" height="44.9766" rx="2.5" ry="2.5" style="stroke:#181818;stroke-width:0.5;" width="283.4385" x="1491.36" y="7"/><text fill="#000000" font-family="sans-serif" font-size="14" lengthAdjust="spacing" textLength="269.4385" x="1498.36" y="22.5352">data:Mazak-c2-spec-ANGLE-Maximum</text><line style="stroke:#181818;stroke-width:0.5;" x1="1492.36" x2="1773.7985" y1="27.4883" y2="27.4883"/><text fill="#000000" font-family="sans-serif" font-size="14" lengthAdjust="spacing" textLength="194.4209" x="1497.36" y="45.0234">type = core:ValueExpression</text></g><g class="entity" data-entity="o5" data-source-line="15" data-uid="ent0006" id="entity_o5"><rect fill="#F1F1F1" height="44.9766" rx="2.5" ry="2.5" style="stroke:#181818;stroke-width:0.5;" width="279.8564" x="1493.15" y="87"/><text fill="#000000" font-family="sans-serif" font-size="14" lengthAdjust="spacing" textLength="265.8564" x="1500.15" y="102.5352">data:Mazak-c2-spec-ANGLE-Minimum</text><line style="stroke:#181818;stroke-width:0.5;" x1="1494.15" x2="1772.0064" y1="107.4883" y2="107.4883"/><text fill="#000000" font-family="sans-serif" font-size="14" lengthAdjust="spacing" textLength="194.4209" x="1499.15" y="125.0234">type = core:ValueExpression</text></g><g class="entity" data-entity="o6" data-source-line="18" data-uid="ent0007" id="entity_o6"><rect fill="#F1F1F1" height="44.9766" rx="2.5" ry="2.5" style="stroke:#181818;stroke-width:0.5;" width="295.0117" x="1485.58" y="167"/><text fill="#000000" font-family="sans-serif" font-size="14" lengthAdjust="spacing" textLength="281.0117" x="1492.58" y="182.5352">data:Mazak-c2-spec-TORQUE-Maximum</text><line style="stroke:#181818;stroke-width:0.5;" x1="1486.58" x2="1779.5917" y1="187.4883" y2="187.4883"/><text fill="#000000" font-family="sans-serif" font-size="14" lengthAdjust="spacing" textLength="194.4209" x="1491.58" y="205.0234">type = core:ValueExpression</text></g><g class="entity" data-entity="o7" data-source-line="21" data-uid="ent0008" id="entity_o7"><rect fill="#F1F1F1" height="44.9766" rx="2.5" ry="2.5" style="stroke:#181818;stroke-width:0.5;" width="291.4297" x="1487.37" y="247"/><text fill="#000000" font-family="sans-serif" font-size="14" lengthAdjust="spacing" textLength="277.4297" x="1494.37" y="262.5352">data:Mazak-c2-spec-TORQUE-Minimum</text><line style="stroke:#181818;stroke-width:0.5;" x1="1488.37" x2="1777.7997" y1="267.4883" y2="267.4883"/><text fill="#000000" font-family="sans-serif" font-size="14" lengthAdjust="spacing" textLength="194.4209" x="1493.37" y="285.0234">type = core:ValueExpression</text></g><g class="entity" data-entity="o8" data-source-line="24" data-uid="ent0009" id="entity_o8"><rect fill="#F1F1F1" height="44.9766" rx="2.5" ry="2.5" style="stroke:#181818;stroke-width:0.5;" width="148.7705" x="991.86" y="307"/><a href="./Mazak-trundle.html" target="_top" title="./Mazak-trundle.html" xlink:actuate="onRequest" xlink:href="./Mazak-trundle.html" xlink:show="new" xlink:title="./Mazak-trundle.html" xlink:type="simple"><text fill="#0000FF" font-family="sans-serif" font-size="14" lengthAdjust="spacing" text-decoration="underline" textLength="134.7705" x="998.86" y="322.5352">data:Mazak-trundle</text></a><line style="stroke:#181818;stroke-width:0.5;" x1="992.86" x2="1139.6305" y1="327.4883" y2="327.4883"/><text fill="#000000" font-family="sans-serif" font-size="14" lengthAdjust="spacing" textLength="131.7832" x="997.86" y="345.0234">type = ex:Structure</text></g><g class="entity" data-entity="o9" data-source-line="27" data-uid="ent0010" id="entity_o9"><rect fill="#F1F1F1" height="44.9766" rx="2.5" ry="2.5" style="stroke:#181818;stroke-width:0.5;" width="194.1611" x="1536" y="327"/><text fill="#000000" font-family="sans-serif" font-size="14" lengthAdjust="spacing" textLength="180.1611" x="1543" y="342.5352">data:Mazak-trundle-name</text><line style="stroke:#181818;stroke-width:0.5;" x1="1537" x2="1729.1611" y1="347.4883" y2="347.4883"/><text fill="#000000" font-family="sans-serif" font-size="14" lengthAdjust="spacing" textLength="161.3691" x="1542" y="365.0234">type = cmns-dsg:Name</text></g><g class="entity" data-entity="o10" data-source-line="30" data-uid="ent0011" id="entity_o10"><rect fill="#F1F1F1" height="44.9766" rx="2.5" ry="2.5" style="stroke:#181818;stroke-width:0.5;" width="143.7832" x="994.35" y="387"/><a href="./Mazak-table.html" target="_top" title="./Mazak-table.html" xlink:actuate="onRequest" xlink:href="./Mazak-table.html" xlink:show="new" xlink:title="./Mazak-table.html" xlink:type="simple"><text fill="#0000FF" font-family="sans-serif" font-size="14" lengthAdjust="spacing" text-decoration="underline" textLength="119.3965" x="1006.5434" y="402.5352">data:Mazak-table</text></a><line style="stroke:#181818;stroke-width:0.5;" x1="995.35" x2="1137.1332" y1="407.4883" y2="407.4883"/><text fill="#000000" font-family="sans-serif" font-size="14" lengthAdjust="spacing" textLength="131.7832" x="1000.35" y="425.0234">type = ex:Structure</text></g><g class="entity" data-entity="o11" data-source-line="33" data-uid="ent0012" id="entity_o11"><rect fill="#F1F1F1" height="44.9766" rx="2.5" ry="2.5" style="stroke:#181818;stroke-width:0.5;" width="178.7871" x="1543.69" y="407"/><text fill="#000000" font-family="sans-serif" font-size="14" lengthAdjust="spacing" textLength="164.7871" x="1550.69" y="422.5352">data:Mazak-table-name</text><line style="stroke:#181818;stroke-width:0.5;" x1="1544.69" x2="1721.4771" y1="427.4883" y2="427.4883"/><text fill="#000000" font-family="sans-serif" font-size="14" lengthAdjust="spacing" textLength="161.3691" x="1549.69" y="445.0234">type = cmns-dsg:Name</text></g><g class="entity" data-entity="o12" data-source-line="36" data-uid="ent0013" id="entity_o12"><rect fill="#F1F1F1" height="44.9766" rx="2.5" ry="2.5" style="stroke:#181818;stroke-width:0.5;" width="254.9287" x="938.78" y="467"/><text fill="#000000" font-family="sans-serif" font-size="14" lengthAdjust="spacing" textLength="166.1611" x="983.1638" y="482.5352">data:Mazak-c2-function</text><line style="stroke:#181818;stroke-width:0.5;" x1="939.78" x2="1192.7087" y1="487.4883" y2="487.4883"/><text fill="#000000" font-family="sans-serif" font-size="14" lengthAdjust="spacing" textLength="242.9287" x="944.78" y="505.0234">type = ex:RevoluteMotionCapability</text></g><g class="entity" data-entity="o13" data-source-line="39" data-uid="ent0014" id="entity_o13"><rect fill="#F1F1F1" height="44.9766" rx="2.5" ry="2.5" style="stroke:#181818;stroke-width:0.5;" width="160.8906" x="985.8" y="547"/><text fill="#000000" font-family="sans-serif" font-size="14" lengthAdjust="spacing" textLength="146.8906" x="992.8" y="562.5352">data:Mazak-c2-angle</text><line style="stroke:#181818;stroke-width:0.5;" x1="986.8" x2="1145.6906" y1="567.4883" y2="567.4883"/><text fill="#000000" font-family="sans-serif" font-size="14" lengthAdjust="spacing" textLength="110.127" x="991.8" y="585.0234">type = qp:Angle</text></g><g class="entity" data-entity="o14" data-source-line="42" data-uid="ent0015" id="entity_o14"><rect fill="#F1F1F1" height="44.9766" rx="2.5" ry="2.5" style="stroke:#181818;stroke-width:0.5;" width="209.5967" x="961.44" y="627"/><text fill="#000000" font-family="sans-serif" font-size="14" lengthAdjust="spacing" textLength="195.5967" x="968.44" y="642.5352">data:Mazak-c2-angle-actual</text><line style="stroke:#181818;stroke-width:0.5;" x1="962.44" x2="1170.0367" y1="647.4883" y2="647.4883"/><text fill="#000000" font-family="sans-serif" font-size="14" lengthAdjust="spacing" textLength="110.127" x="967.44" y="665.0234">type = qp:Angle</text></g><g class="entity" data-entity="o15" data-source-line="45" data-uid="ent0016" id="entity_o15"><rect fill="#F1F1F1" height="44.9766" rx="2.5" ry="2.5" style="stroke:#181818;stroke-width:0.5;" width="207.5254" x="962.48" y="707"/><text fill="#000000" font-family="sans-serif" font-size="14" lengthAdjust="spacing" textLength="193.5254" x="969.48" y="722.5352">data:Mazak-c2-temperature</text><line style="stroke:#181818;stroke-width:0.5;" x1="963.48" x2="1169.0054" y1="727.4883" y2="727.4883"/><text fill="#000000" font-family="sans-serif" font-size="14" lengthAdjust="spacing" textLength="158.4502" x="968.48" y="745.0234">type = qp:Temperature</text></g><g class="entity" data-entity="o16" data-source-line="48" data-uid="ent0017" id="entity_o16"><rect fill="#F1F1F1" height="44.9766" rx="2.5" ry="2.5" style="stroke:#181818;stroke-width:0.5;" width="174.8154" x="978.83" y="787"/><a href="./Mazak-c2-Cmotor.html" target="_top" title="./Mazak-c2-Cmotor.html" xlink:actuate="onRequest" xlink:href="./Mazak-c2-Cmotor.html" xlink:show="new" xlink:title="./Mazak-c2-Cmotor.html" xlink:type="simple"><text fill="#0000FF" font-family="sans-serif" font-size="14" lengthAdjust="spacing" text-decoration="underline" textLength="160.8154" x="985.83" y="802.5352">data:Mazak-c2-Cmotor</text></a><line style="stroke:#181818;stroke-width:0.5;" x1="979.83" x2="1152.6454" y1="807.4883" y2="807.4883"/><text fill="#000000" font-family="sans-serif" font-size="14" lengthAdjust="spacing" textLength="110.1885" x="984.83" y="825.0234">type = ex:Motor</text></g><g class="entity" data-entity="o17" data-source-line="51" data-uid="ent0018" id="entity_o17"><rect fill="#F1F1F1" height="44.9766" rx="2.5" ry="2.5" style="stroke:#181818;stroke-width:0.5;" width="220.2061" x="1522.98" y="787"/><text fill="#000000" font-family="sans-serif" font-size="14" lengthAdjust="spacing" textLength="206.2061" x="1529.98" y="802.5352">data:Mazak-c2-Cmotor-name</text><line style="stroke:#181818;stroke-width:0.5;" x1="1523.98" x2="1742.1861" y1="807.4883" y2="807.4883"/><text fill="#000000" font-family="sans-serif" font-size="14" lengthAdjust="spacing" textLength="161.3691" x="1528.98" y="825.0234">type = cmns-dsg:Name</text></g><g class="entity" data-entity="o18" data-source-line="54" data-uid="ent0019" id="entity_o18"><rect fill="#F1F1F1" height="44.9766" rx="2.5" ry="2.5" style="stroke:#181818;stroke-width:0.5;" width="138.1504" x="7" y="467"/><a href="./Mazak.html" target="_top" title="./Mazak.html" xlink:actuate="onRequest" xlink:href="./Mazak.html" xlink:show="new" xlink:title="./Mazak.html" xlink:type="simple"><text fill="#0000FF" font-family="sans-serif" font-size="14" lengthAdjust="spacing" text-decoration="underline" textLength="77.6699" x="37.2402" y="482.5352">data:Mazak</text></a><line style="stroke:#181818;stroke-width:0.5;" x1="8" x2="144.1504" y1="487.4883" y2="487.4883"/><text fill="#000000" font-family="sans-serif" font-size="14" lengthAdjust="spacing" textLength="126.1504" x="13" y="505.0234">type = ex:Machine</text></g><!--link o1 to o2--><g class="link" data-entity-1="o1" data-entity-2="o2" data-source-line="57" data-uid="lnk20" id="link_o1_o2"><path codeLine="57" d="M553.39,466.61 C587.9,405.21 679.91,241.49 679.91,241.49 C679.91,241.49 845.1013,190.0438 959.2713,154.4938" fill="none" id="o1-to-o2" style="stroke:#181818;stroke-width:1;"/><polygon fill="#181818" points="965,152.71,955.2177,151.5665,960.2261,154.1965,957.5961,159.2048,965,152.71" style="stroke:#181818;stroke-width:1;"/><text fill="#000000" font-family="sans-serif" font-size="13" lengthAdjust="spacing" textLength="126.0771" x="728.91" y="170.8784">cmns-dsg:hasName</text></g><!--link o1 to o3--><g class="link" data-entity-1="o1" data-entity-2="o3" data-source-line="59" data-uid="lnk21" id="link_o1_o3"><path codeLine="59" d="M561.7,466.71 C600.69,424.75 679.91,339.49 679.91,339.49 C679.91,339.49 880.9348,271.668 991.5548,234.348" fill="none" id="o1-to-o3" style="stroke:#181818;stroke-width:1;"/><polygon fill="#181818" points="997.24,232.43,987.4336,231.5169,992.5024,234.0283,989.9909,239.0971,997.24,232.43" style="stroke:#181818;stroke-width:1;"/><text fill="#000000" font-family="sans-serif" font-size="13" lengthAdjust="spacing" textLength="112.3027" x="735.91" y="263.2784">core:prescribedBy</text></g><!--link o3 to o4--><g class="link" data-entity-1="o3" data-entity-2="o4" data-source-line="60" data-uid="lnk22" id="link_o3_o4"><path codeLine="60" d="M1142.5,186.57 C1171.84,177.63 1198.58,169.49 1198.58,169.49 C1198.58,169.49 1228.58,111.49 1228.58,111.49 C1228.58,111.49 1393.9002,77.895 1513.2702,53.635" fill="none" id="o3-to-o4" style="stroke:#181818;stroke-width:1;"/><polygon fill="#181818" points="1519.15,52.44,1509.5337,50.3126,1514.2502,53.4358,1511.1269,58.1523,1519.15,52.44" style="stroke:#181818;stroke-width:1;"/><text fill="#000000" font-family="sans-serif" font-size="13" lengthAdjust="spacing" textLength="225.0688" x="1229.58" y="62.1484">core:hasValueExpressionAtAllTimes</text></g><!--link o3 to o5--><g class="link" data-entity-1="o3" data-entity-2="o5" data-source-line="61" data-uid="lnk23" id="link_o3_o5"><path codeLine="61" d="M1162.02,186.58 C1197.14,178.09 1228.58,170.49 1228.58,170.49 C1228.58,170.49 1370.3274,149.0669 1487.0074,131.4269" fill="none" id="o3-to-o5" style="stroke:#181818;stroke-width:1;"/><polygon fill="#181818" points="1492.94,130.53,1483.4432,127.9203,1487.9962,131.2774,1484.6391,135.8304,1492.94,130.53" style="stroke:#181818;stroke-width:1;"/><text fill="#000000" font-family="sans-serif" font-size="13" lengthAdjust="spacing" textLength="225.0688" x="1229.58" y="132.9084">core:hasValueExpressionAtAllTimes</text></g><!--link o3 to o6--><g class="link" data-entity-1="o3" data-entity-2="o6" data-source-line="62" data-uid="lnk24" id="link_o3_o6"><path codeLine="62" d="M1180.53,205.48 C1268.12,202.38 1384.0938,198.2725 1479.1938,194.9025" fill="none" id="o3-to-o6" style="stroke:#181818;stroke-width:1;"/><polygon fill="#181818" points="1485.19,194.69,1476.054,191.0112,1480.1931,194.8671,1476.3373,199.0062,1485.19,194.69" style="stroke:#181818;stroke-width:1;"/><text fill="#000000" font-family="sans-serif" font-size="13" lengthAdjust="spacing" textLength="225.0688" x="1229.58" y="192.5284">core:hasValueExpressionAtAllTimes</text></g><!--link o3 to o7--><g class="link" data-entity-1="o3" data-entity-2="o7" data-source-line="63" data-uid="lnk25" id="link_o3_o7"><path codeLine="63" d="M1180.61,222.84 C1207.51,226.01 1228.58,228.49 1228.58,228.49 C1228.58,228.49 1365.3308,242.3832 1481.0108,254.1432" fill="none" id="o3-to-o7" style="stroke:#181818;stroke-width:1;"/><polygon fill="#181818" points="1486.98,254.75,1478.4307,249.8603,1482.0056,254.2443,1477.6216,257.8192,1486.98,254.75" style="stroke:#181818;stroke-width:1;"/><text fill="#000000" font-family="sans-serif" font-size="13" lengthAdjust="spacing" textLength="225.0688" x="1229.58" y="225.0584">core:hasValueExpressionAtAllTimes</text></g><!--link o1 to o8--><g class="link" data-entity-1="o1" data-entity-2="o8" data-source-line="64" data-uid="lnk26" id="link_o1_o8"><path codeLine="64" d="M579.72,466.71 C620.95,442.76 679.91,408.49 679.91,408.49 C679.91,408.49 873.6323,368.7751 985.5223,345.8351" fill="none" id="o1-to-o8" style="stroke:#181818;stroke-width:1;"/><polygon fill="#181818" points="991.4,344.63,981.78,342.5191,986.5019,345.6342,983.3868,350.3561,991.4,344.63" style="stroke:#181818;stroke-width:1;"/><text fill="#000000" font-family="sans-serif" font-size="13" lengthAdjust="spacing" textLength="74.7246" x="754.91" y="360.8284">ex:joinedTo</text></g><!--link o8 to o9--><g class="link" data-entity-1="o8" data-entity-2="o9" data-source-line="65" data-uid="lnk27" id="link_o8_o9"><path codeLine="65" d="M1141.08,332.11 C1242.16,335.69 1417.7637,341.9081 1529.5237,345.8581" fill="none" id="o8-to-o9" style="stroke:#181818;stroke-width:1;"/><polygon fill="#181818" points="1535.52,346.07,1526.6669,341.7546,1530.5231,345.8934,1526.3843,349.7496,1535.52,346.07" style="stroke:#181818;stroke-width:1;"/><text fill="#000000" font-family="sans-serif" font-size="13" lengthAdjust="spacing" textLength="126.0771" x="1279.08" y="331.9684">cmns-dsg:hasName</text></g><!--link o1 to o10--><g class="link" data-entity-1="o1" data-entity-2="o10" data-source-line="66" data-uid="lnk28" id="link_o1_o10"><path codeLine="66" d="M650.35,469.79 C667.62,466.7 679.91,464.49 679.91,464.49 C679.91,464.49 876.8403,436.3882 988.1803,420.4882" fill="none" id="o1-to-o10" style="stroke:#181818;stroke-width:1;"/><polygon fill="#181818" points="994.12,419.64,984.6449,416.9525,989.1702,420.3469,985.7759,424.8722,994.12,419.64" style="stroke:#181818;stroke-width:1;"/><text fill="#000000" font-family="sans-serif" font-size="13" lengthAdjust="spacing" textLength="74.7246" x="754.91" y="430.2684">ex:joinedTo</text></g><!--link o10 to o11--><g class="link" data-entity-1="o10" data-entity-2="o11" data-source-line="67" data-uid="lnk29" id="link_o10_o11"><path codeLine="67" d="M1138.49,412.01 C1241.41,415.66 1425.5438,422.1777 1537.4038,426.1377" fill="none" id="o10-to-o11" style="stroke:#181818;stroke-width:1;"/><polygon fill="#181818" points="1543.4,426.35,1534.5472,422.0341,1538.4031,426.1731,1534.2641,430.0291,1543.4,426.35" style="stroke:#181818;stroke-width:1;"/><text fill="#000000" font-family="sans-serif" font-size="13" lengthAdjust="spacing" textLength="126.0771" x="1279.08" y="411.9684">cmns-dsg:hasName</text></g><!--link o1 to o12--><g class="link" data-entity-1="o1" data-entity-2="o12" data-source-line="68" data-uid="lnk30" id="link_o1_o12"><path codeLine="68" d="M650.21,489.49 C734.33,489.49 844.57,489.49 932.64,489.49" fill="none" id="o1-to-o12" style="stroke:#181818;stroke-width:1;"/><polygon fill="#181818" points="938.64,489.49,929.64,485.49,933.64,489.49,929.64,493.49,938.64,489.49" style="stroke:#181818;stroke-width:1;"/><text fill="#000000" font-family="sans-serif" font-size="13" lengthAdjust="spacing" textLength="107.6309" x="738.41" y="486.0584">core:hasFunction</text></g><!--link o1 to o13--><g class="link" data-entity-1="o1" data-entity-2="o13" data-source-line="69" data-uid="lnk31" id="link_o1_o13"><path codeLine="69" d="M650.35,509.19 C667.62,512.29 679.91,514.49 679.91,514.49 C679.91,514.49 866.5902,541.1422 979.4602,557.2522" fill="none" id="o1-to-o13" style="stroke:#181818;stroke-width:1;"/><polygon fill="#181818" points="985.4,558.1,977.0555,552.8684,980.4502,557.3935,975.9251,560.7882,985.4,558.1" style="stroke:#181818;stroke-width:1;"/><text fill="#000000" font-family="sans-serif" font-size="13" lengthAdjust="spacing" textLength="171.3169" x="706.41" y="511.0584">core:measuresAtSomeTime</text></g><!--link o1 to o14--><g class="link" data-entity-1="o1" data-entity-2="o14" data-source-line="70" data-uid="lnk32" id="link_o1_o14"><path codeLine="70" d="M579.72,512.27 C620.95,536.23 679.91,570.49 679.91,570.49 C679.91,570.49 840.9722,603.5152 955.0822,626.9052" fill="none" id="o1-to-o14" style="stroke:#181818;stroke-width:1;"/><polygon fill="#181818" points="960.96,628.11,952.9465,622.3842,956.0618,627.106,951.3401,630.2213,960.96,628.11" style="stroke:#181818;stroke-width:1;"/><text fill="#000000" font-family="sans-serif" font-size="13" lengthAdjust="spacing" textLength="171.3169" x="706.41" y="567.0584">core:measuresAtSomeTime</text></g><!--link o1 to o15--><g class="link" data-entity-1="o1" data-entity-2="o15" data-source-line="71" data-uid="lnk33" id="link_o1_o15"><path codeLine="71" d="M561.7,512.27 C600.69,554.24 679.91,639.49 679.91,639.49 C679.91,639.49 846.9973,678.5152 961.1673,705.1852" fill="none" id="o1-to-o15" style="stroke:#181818;stroke-width:1;"/><polygon fill="#181818" points="967.01,706.55,959.1558,700.6076,962.1411,705.4126,957.336,708.3979,967.01,706.55" style="stroke:#181818;stroke-width:1;"/><text fill="#000000" font-family="sans-serif" font-size="13" lengthAdjust="spacing" textLength="171.3169" x="706.41" y="636.0584">core:measuresAtSomeTime</text></g><!--link o1 to o16--><g class="link" data-entity-1="o1" data-entity-2="o16" data-source-line="72" data-uid="lnk34" id="link_o1_o16"><path codeLine="72" d="M554.66,512.3 C590.09,569.51 679.91,714.49 679.91,714.49 C679.91,714.49 859.3244,758.7237 972.9344,786.7337" fill="none" id="o1-to-o16" style="stroke:#181818;stroke-width:1;"/><polygon fill="#181818" points="978.76,788.17,970.9792,782.1319,973.9054,786.9731,969.0642,789.8993,978.76,788.17" style="stroke:#181818;stroke-width:1;"/><text fill="#000000" font-family="sans-serif" font-size="13" lengthAdjust="spacing" textLength="222.5425" x="680.91" y="711.0584">obo:has member part at some time</text></g><!--link o16 to o17--><g class="link" data-entity-1="o16" data-entity-2="o17" data-source-line="73" data-uid="lnk35" id="link_o16_o17"><path codeLine="73" d="M1153.95,809.49 C1252.91,809.49 1408.94,809.49 1516.55,809.49" fill="none" id="o16-to-o17" style="stroke:#181818;stroke-width:1;"/><polygon fill="#181818" points="1522.55,809.49,1513.55,805.49,1517.55,809.49,1513.55,813.49,1522.55,809.49" style="stroke:#181818;stroke-width:1;"/><text fill="#000000" font-family="sans-serif" font-size="13" lengthAdjust="spacing" textLength="126.0771" x="1279.08" y="806.0584">cmns-dsg:hasName</text></g><!--link o18 to o1--><g class="link" data-entity-1="o18" data-entity-2="o1" data-source-line="74" data-uid="lnk36" id="link_o18_o1"><path codeLine="74" d="M145.16,489.49 C219.87,489.49 334.87,489.49 422.97,489.49" fill="none" id="o18-to-o1" style="stroke:#181818;stroke-width:1;"/><polygon fill="#181818" points="428.97,489.49,419.97,485.49,423.97,489.49,419.97,493.49,428.97,489.49" style="stroke:#181818;stroke-width:1;"/><text fill="#000000" font-family="sans-serif" font-size="13" lengthAdjust="spacing" textLength="222.5425" x="176.15" y="486.0584">obo:has member part at some time</text></g><!--SRC=[hPLDSzCm48Rl_XMQtbrmce_MCp0JGk52oj04BfqUrlOcKIjPHfAPcWx_7SbMRCSanHwu9RllFdwrshNL8qqpaC09eodg8aEI2LROFnx3ZIPQ44ctEqqIAZ7MLAIUY1xCBt9sTtV-QWa_uT6FH-SxpHb9G4Eu3ztVdn5GH0JasICb-Gt1f_1MQ935KbZKgb0QkKT-rSm3Wfy2nmeoQa5YdYe_KTlmngHF5wiCuwhuebqi98RlKT5jkZ82kg4nbATwaUFFRpv-klQNy4HvpYlgk4lz1Yp7wwTCebAzYJHjY9D_8wu_ttxvsZ4v_J_8jilP06Gp8bhcQSBmZpbnyVsmN1uEoygaOvtBKzVigbk3SjLdK5gs83fcoaRh-Nqzq9CjRZaAWk6pkydJSjSSOTHP8VmXMAwnMg85P11HHdLncWVfbktjjBVXUnRERUelbJwO0mDpWF4WW5dm32NOXhdwoM7zkX4SloC3MN2XXJpoad6P-gwcXvrQskHfRrLn-wvcWyQdQwYsqHdZ9SGx-qQrZ83u_blxGWkR1-n0bS-eedQdJ6H5USPQUrMkcU4jHZNaOY-tcbZI29DtXMV2PNRSWdLsTAxdZAqfHrMh9uFKqq7gMJ-rEzMbKPkcFGZJicGjF1CeurT7M-QAp9PsgaoaoWGlrhLR_i6jNPEjEymHb9bGDTShmT4QRaJZFg997v5jguY4zK8uyWWbCLzdJK0JPSH4L-gfay-EdyprA-W1-mq0]--></g></svg>