<svg xmlns="http://www.w3.org/2000/svg" xmlns:xlink="http://www.w3.org/1999/xlink" contentStyleType="text/css" data-diagram-type="CLASS" height="555px" preserveAspectRatio="none" style="width:1797px;height:555px;background:#FFFFFF;" version="1.1" viewBox="0 0 1797 555" width="1797px" zoomAndPan="magnify"><defs/><g><g class="entity" data-entity="o1" data-source-line="3" data-uid="ent0002" id="entity_o1"><rect fill="#F1F1F1" height="44.9766" rx="2.5" ry="2.5" style="stroke:#181818;stroke-width:0.5;" width="220.7559" x="429.15" y="263.24"/><a href="./Mazak-c.html" target="_top" title="./Mazak-c.html" xlink:actuate="onRequest" xlink:href="./Mazak-c.html" xlink:show="new" xlink:title="./Mazak-c.html" xlink:type="simple"><text fill="#0000FF" font-family="sans-serif" font-size="14" lengthAdjust="spacing" text-decoration="underline" textLength="92.9414" x="493.0572" y="278.7752">data:Mazak-c</text></a><line style="stroke:#181818;stroke-width:0.5;" x1="430.15" x2="648.9059" y1="283.7283" y2="283.7283"/><text fill="#000000" font-family="sans-serif" font-size="14" lengthAdjust="spacing" textLength="208.7559" x="435.15" y="301.2634">type = ex:RotaryMotionSystem</text></g><g class="entity" data-entity="o2" data-source-line="6" data-uid="ent0003" id="entity_o2"><rect fill="#F1F1F1" height="61.4648" rx="2.5" ry="2.5" style="stroke:#181818;stroke-width:0.5;" width="264.6699" x="938.93" y="7"/><text fill="#000000" font-family="sans-serif" font-size="14" lengthAdjust="spacing" textLength="138.332" x="1002.0989" y="22.5352">data:Mazak-c-name</text><line style="stroke:#181818;stroke-width:0.5;" x1="939.93" x2="1202.5999" y1="27.4883" y2="27.4883"/><text fill="#000000" font-family="sans-serif" font-size="14" lengthAdjust="spacing" textLength="161.3691" x="944.93" y="45.0234">type = cmns-dsg:Name</text><text fill="#000000" font-family="sans-serif" font-size="14" lengthAdjust="spacing" textLength="252.6699" x="944.93" y="61.5117">core:hasSimpleExpressionValue = C1</text></g><g class="entity" data-entity="o3" data-source-line="9" data-uid="ent0004" id="entity_o3"><rect fill="#F1F1F1" height="44.9766" rx="2.5" ry="2.5" style="stroke:#181818;stroke-width:0.5;" width="227.8037" x="957.36" y="103.24"/><text fill="#000000" font-family="sans-serif" font-size="14" lengthAdjust="spacing" textLength="131.9609" x="1005.2814" y="118.7752">data:Mazak-c-spec</text><line style="stroke:#181818;stroke-width:0.5;" x1="958.36" x2="1184.1637" y1="123.7283" y2="123.7283"/><text fill="#000000" font-family="sans-serif" font-size="14" lengthAdjust="spacing" textLength="215.8037" x="963.36" y="141.2634">type = core:DesignSpecification</text></g><g class="entity" data-entity="o4" data-source-line="12" data-uid="ent0005" id="entity_o4"><rect fill="#F1F1F1" height="44.9766" rx="2.5" ry="2.5" style="stroke:#181818;stroke-width:0.5;" width="295.791" x="1495.62" y="23.24"/><text fill="#000000" font-family="sans-serif" font-size="14" lengthAdjust="spacing" textLength="281.791" x="1502.62" y="38.7752">data:Mazak-c-spec-VELOCITY-Maximum</text><line style="stroke:#181818;stroke-width:0.5;" x1="1496.62" x2="1790.411" y1="43.7283" y2="43.7283"/><text fill="#000000" font-family="sans-serif" font-size="14" lengthAdjust="spacing" textLength="194.4209" x="1501.62" y="61.2634">type = core:ValueExpression</text></g><g class="entity" data-entity="o5" data-source-line="15" data-uid="ent0006" id="entity_o5"><rect fill="#F1F1F1" height="44.9766" rx="2.5" ry="2.5" style="stroke:#181818;stroke-width:0.5;" width="292.209" x="1497.42" y="103.24"/><text fill="#000000" font-family="sans-serif" font-size="14" lengthAdjust="spacing" textLength="278.209" x="1504.42" y="118.7752">data:Mazak-c-spec-VELOCITY-Minimum</text><line style="stroke:#181818;stroke-width:0.5;" x1="1498.42" x2="1788.629" y1="123.7283" y2="123.7283"/><text fill="#000000" font-family="sans-serif" font-size="14" lengthAdjust="spacing" textLength="194.4209" x="1503.42" y="141.2634">type = core:ValueExpression</text></g><g class="entity" data-entity="o6" data-source-line="18" data-uid="ent0007" id="entity_o6"><rect fill="#F1F1F1" height="44.9766" rx="2.5" ry="2.5" style="stroke:#181818;stroke-width:0.5;" width="143.7832" x="999.37" y="183.24"/><a href="./Mazak-zaxis.html" target="_top" title="./Mazak-zaxis.html" xlink:actuate="onRequest" xlink:href="./Mazak-zaxis.html" xlink:show="new" xlink:title="./Mazak-zaxis.html" xlink:type="simple"><text fill="#0000FF" font-family="sans-serif" font-size="14" lengthAdjust="spacing" text-decoration="underline" textLength="121.2969" x="1010.6132" y="198.7752">data:Mazak-zaxis</text></a><line style="stroke:#181818;stroke-width:0.5;" x1="1000.37" x2="1142.1532" y1="203.7283" y2="203.7283"/><text fill="#000000" font-family="sans-serif" font-size="14" lengthAdjust="spacing" textLength="131.7832" x="1005.37" y="221.2634">type = ex:Structure</text></g><g class="entity" data-entity="o7" data-source-line="21" data-uid="ent0008" id="entity_o7"><rect fill="#F1F1F1" height="44.9766" rx="2.5" ry="2.5" style="stroke:#181818;stroke-width:0.5;" width="180.6875" x="1553.18" y="183.24"/><text fill="#000000" font-family="sans-serif" font-size="14" lengthAdjust="spacing" textLength="166.6875" x="1560.18" y="198.7752">data:Mazak-zaxis-name</text><line style="stroke:#181818;stroke-width:0.5;" x1="1554.18" x2="1732.8675" y1="203.7283" y2="203.7283"/><text fill="#000000" font-family="sans-serif" font-size="14" lengthAdjust="spacing" textLength="161.3691" x="1559.18" y="221.2634">type = cmns-dsg:Name</text></g><g class="entity" data-entity="o8" data-source-line="24" data-uid="ent0009" id="entity_o8"><rect fill="#F1F1F1" height="44.9766" rx="2.5" ry="2.5" style="stroke:#181818;stroke-width:0.5;" width="274.7188" x="933.91" y="263.24"/><text fill="#000000" font-family="sans-serif" font-size="14" lengthAdjust="spacing" textLength="157.3086" x="992.6151" y="278.7752">data:Mazak-c-function</text><line style="stroke:#181818;stroke-width:0.5;" x1="934.91" x2="1207.6287" y1="283.7283" y2="283.7283"/><text fill="#000000" font-family="sans-serif" font-size="14" lengthAdjust="spacing" textLength="262.7188" x="939.91" y="301.2634">type = ex:ContinuousMotionCapability</text></g><g class="entity" data-entity="o9" data-source-line="27" data-uid="ent0010" id="entity_o9"><rect fill="#F1F1F1" height="44.9766" rx="2.5" ry="2.5" style="stroke:#181818;stroke-width:0.5;" width="262.5479" x="939.99" y="343.24"/><text fill="#000000" font-family="sans-serif" font-size="14" lengthAdjust="spacing" textLength="248.5479" x="946.99" y="358.7752">data:Mazak-c-rotary_velocity-actual</text><line style="stroke:#181818;stroke-width:0.5;" x1="940.99" x2="1201.5379" y1="363.7283" y2="363.7283"/><text fill="#000000" font-family="sans-serif" font-size="14" lengthAdjust="spacing" textLength="111.9658" x="945.99" y="381.2634">type = qp:Speed</text></g><g class="entity" data-entity="o10" data-source-line="30" data-uid="ent0011" id="entity_o10"><rect fill="#F1F1F1" height="44.9766" rx="2.5" ry="2.5" style="stroke:#181818;stroke-width:0.5;" width="198.6729" x="971.93" y="423.24"/><text fill="#000000" font-family="sans-serif" font-size="14" lengthAdjust="spacing" textLength="184.6729" x="978.93" y="438.7752">data:Mazak-c-temperature</text><line style="stroke:#181818;stroke-width:0.5;" x1="972.93" x2="1169.6029" y1="443.7283" y2="443.7283"/><text fill="#000000" font-family="sans-serif" font-size="14" lengthAdjust="spacing" textLength="158.4502" x="977.93" y="461.2634">type = qp:Temperature</text></g><g class="entity" data-entity="o11" data-source-line="33" data-uid="ent0012" id="entity_o11"><rect fill="#F1F1F1" height="44.9766" rx="2.5" ry="2.5" style="stroke:#181818;stroke-width:0.5;" width="174.8154" x="983.86" y="503.24"/><a href="./Mazak-c-C2motor.html" target="_top" title="./Mazak-c-C2motor.html" xlink:actuate="onRequest" xlink:href="./Mazak-c-C2motor.html" xlink:show="new" xlink:title="./Mazak-c-C2motor.html" xlink:type="simple"><text fill="#0000FF" font-family="sans-serif" font-size="14" lengthAdjust="spacing" text-decoration="underline" textLength="160.8154" x="990.86" y="518.7752">data:Mazak-c-C2motor</text></a><line style="stroke:#181818;stroke-width:0.5;" x1="984.86" x2="1157.6754" y1="523.7283" y2="523.7283"/><text fill="#000000" font-family="sans-serif" font-size="14" lengthAdjust="spacing" textLength="110.1885" x="989.86" y="541.2634">type = ex:Motor</text></g><g class="entity" data-entity="o12" data-source-line="36" data-uid="ent0013" id="entity_o12"><rect fill="#F1F1F1" height="44.9766" rx="2.5" ry="2.5" style="stroke:#181818;stroke-width:0.5;" width="220.2061" x="1533.42" y="503.24"/><text fill="#000000" font-family="sans-serif" font-size="14" lengthAdjust="spacing" textLength="206.2061" x="1540.42" y="518.7752">data:Mazak-c-C2motor-name</text><line style="stroke:#181818;stroke-width:0.5;" x1="1534.42" x2="1752.6261" y1="523.7283" y2="523.7283"/><text fill="#000000" font-family="sans-serif" font-size="14" lengthAdjust="spacing" textLength="161.3691" x="1539.42" y="541.2634">type = cmns-dsg:Name</text></g><g class="entity" data-entity="o13" data-source-line="39" data-uid="ent0014" id="entity_o13"><rect fill="#F1F1F1" height="44.9766" rx="2.5" ry="2.5" style="stroke:#181818;stroke-width:0.5;" width="138.1504" x="7" y="263.24"/><a href="./Mazak.html" target="_top" title="./Mazak.html" xlink:actuate="onRequest" xlink:href="./Mazak.html" xlink:show="new" xlink:title="./Mazak.html" xlink:type="simple"><text fill="#0000FF" font-family="sans-serif" font-size="14" lengthAdjust="spacing" text-decoration="underline" textLength="77.6699" x="37.2402" y="278.7752">data:Mazak</text></a><line style="stroke:#181818;stroke-width:0.5;" x1="8" x2="144.1504" y1="283.7283" y2="283.7283"/><text fill="#000000" font-family="sans-serif" font-size="14" lengthAdjust="spacing" textLength="126.1504" x="13" y="301.2634">type = ex:Machine</text></g><!--link o1 to o2--><g class="link" data-entity-1="o1" data-entity-2="o2" data-source-line="42" data-uid="lnk15" id="link_o1_o2"><path codeLine="42" d="M561.7,262.95 C600.69,220.99 679.91,135.73 679.91,135.73 C679.91,135.73 825.8606,99.0911 940.1306,70.4011" fill="none" id="o1-to-o2" style="stroke:#181818;stroke-width:1;"/><polygon fill="#181818" points="945.95,68.94,936.2469,67.252,941.1005,70.1576,938.195,75.0112,945.95,68.94" style="stroke:#181818;stroke-width:1;"/><text fill="#000000" font-family="sans-serif" font-size="13" lengthAdjust="spacing" textLength="126.0771" x="728.91" y="77.4284">cmns-dsg:hasName</text></g><!--link o1 to o3--><g class="link" data-entity-1="o1" data-entity-2="o3" data-source-line="44" data-uid="lnk16" id="link_o1_o3"><path codeLine="44" d="M579.72,262.95 C620.95,239 679.91,204.73 679.91,204.73 C679.91,204.73 835.9392,173.1501 951.2192,149.8201" fill="none" id="o1-to-o3" style="stroke:#181818;stroke-width:1;"/><polygon fill="#181818" points="957.1,148.63,947.4854,146.4947,952.1993,149.6218,949.0723,154.3357,957.1,148.63" style="stroke:#181818;stroke-width:1;"/><text fill="#000000" font-family="sans-serif" font-size="13" lengthAdjust="spacing" textLength="112.3027" x="735.91" y="157.0684">core:prescribedBy</text></g><!--link o3 to o4--><g class="link" data-entity-1="o3" data-entity-2="o4" data-source-line="45" data-uid="lnk17" id="link_o3_o4"><path codeLine="45" d="M1185.53,108.71 C1214.99,104.28 1238.62,100.73 1238.62,100.73 C1238.62,100.73 1373.9049,82.3096 1489.3349,66.5896" fill="none" id="o3-to-o4" style="stroke:#181818;stroke-width:1;"/><polygon fill="#181818" points="1495.28,65.78,1485.8226,63.0311,1490.3257,66.4547,1486.9021,70.9579,1495.28,65.78" style="stroke:#181818;stroke-width:1;"/><text fill="#000000" font-family="sans-serif" font-size="13" lengthAdjust="spacing" textLength="225.0688" x="1239.62" y="66.5084">core:hasValueExpressionAtAllTimes</text></g><!--link o3 to o5--><g class="link" data-entity-1="o3" data-entity-2="o5" data-source-line="46" data-uid="lnk18" id="link_o3_o5"><path codeLine="46" d="M1185.61,125.73 C1275.02,125.73 1394.34,125.73 1491.13,125.73" fill="none" id="o3-to-o5" style="stroke:#181818;stroke-width:1;"/><polygon fill="#181818" points="1497.13,125.73,1488.13,121.73,1492.13,125.73,1488.13,129.73,1497.13,125.73" style="stroke:#181818;stroke-width:1;"/><text fill="#000000" font-family="sans-serif" font-size="13" lengthAdjust="spacing" textLength="225.0688" x="1239.62" y="122.2984">core:hasValueExpressionAtAllTimes</text></g><!--link o1 to o6--><g class="link" data-entity-1="o1" data-entity-2="o6" data-source-line="47" data-uid="lnk19" id="link_o1_o6"><path codeLine="47" d="M650.35,266.03 C667.62,262.94 679.91,260.73 679.91,260.73 C679.91,260.73 880.5887,232.4569 993.1787,216.5969" fill="none" id="o1-to-o6" style="stroke:#181818;stroke-width:1;"/><polygon fill="#181818" points="999.12,215.76,989.65,213.0545,994.1689,216.4574,990.7659,220.9763,999.12,215.76" style="stroke:#181818;stroke-width:1;"/><text fill="#000000" font-family="sans-serif" font-size="13" lengthAdjust="spacing" textLength="74.7246" x="754.91" y="226.5084">ex:joinedTo</text></g><!--link o6 to o7--><g class="link" data-entity-1="o6" data-entity-2="o7" data-source-line="48" data-uid="lnk20" id="link_o6_o7"><path codeLine="48" d="M1143.62,205.73 C1247.33,205.73 1433.62,205.73 1546.79,205.73" fill="none" id="o6-to-o7" style="stroke:#181818;stroke-width:1;"/><polygon fill="#181818" points="1552.79,205.73,1543.79,201.73,1547.79,205.73,1543.79,209.73,1552.79,205.73" style="stroke:#181818;stroke-width:1;"/><text fill="#000000" font-family="sans-serif" font-size="13" lengthAdjust="spacing" textLength="126.0771" x="1289.12" y="202.2984">cmns-dsg:hasName</text></g><!--link o1 to o8--><g class="link" data-entity-1="o1" data-entity-2="o8" data-source-line="49" data-uid="lnk21" id="link_o1_o8"><path codeLine="49" d="M650.29,285.73 C732.57,285.73 839.68,285.73 927.79,285.73" fill="none" id="o1-to-o8" style="stroke:#181818;stroke-width:1;"/><polygon fill="#181818" points="933.79,285.73,924.79,281.73,928.79,285.73,924.79,289.73,933.79,285.73" style="stroke:#181818;stroke-width:1;"/><text fill="#000000" font-family="sans-serif" font-size="13" lengthAdjust="spacing" textLength="107.6309" x="738.41" y="282.2984">core:hasFunction</text></g><!--link o1 to o9--><g class="link" data-entity-1="o1" data-entity-2="o9" data-source-line="50" data-uid="lnk22" id="link_o1_o9"><path codeLine="50" d="M650.35,305.43 C667.62,308.53 679.91,310.73 679.91,310.73 C679.91,310.73 820.3187,330.5128 933.7987,346.5028" fill="none" id="o1-to-o9" style="stroke:#181818;stroke-width:1;"/><polygon fill="#181818" points="939.74,347.34,931.3861,342.1234,934.7889,346.6424,930.2699,350.0451,939.74,347.34" style="stroke:#181818;stroke-width:1;"/><text fill="#000000" font-family="sans-serif" font-size="13" lengthAdjust="spacing" textLength="171.3169" x="706.41" y="307.2984">core:measuresAtSomeTime</text></g><!--link o1 to o10--><g class="link" data-entity-1="o1" data-entity-2="o10" data-source-line="51" data-uid="lnk23" id="link_o1_o10"><path codeLine="51" d="M579.72,308.51 C620.95,332.47 679.91,366.73 679.91,366.73 C679.91,366.73 849.9793,401.1496 965.6293,424.5596" fill="none" id="o1-to-o10" style="stroke:#181818;stroke-width:1;"/><polygon fill="#181818" points="971.51,425.75,963.4825,420.0439,966.6094,424.758,961.8953,427.8849,971.51,425.75" style="stroke:#181818;stroke-width:1;"/><text fill="#000000" font-family="sans-serif" font-size="13" lengthAdjust="spacing" textLength="171.3169" x="706.41" y="363.2984">core:measuresAtSomeTime</text></g><!--link o1 to o11--><g class="link" data-entity-1="o1" data-entity-2="o11" data-source-line="52" data-uid="lnk24" id="link_o1_o11"><path codeLine="52" d="M561.7,308.51 C600.69,350.48 679.91,435.73 679.91,435.73 C679.91,435.73 862.7834,477.8917 977.7834,504.4117" fill="none" id="o1-to-o11" style="stroke:#181818;stroke-width:1;"/><polygon fill="#181818" points="983.63,505.76,975.759,499.8399,978.7579,504.6364,973.9613,507.6353,983.63,505.76" style="stroke:#181818;stroke-width:1;"/><text fill="#000000" font-family="sans-serif" font-size="13" lengthAdjust="spacing" textLength="222.5425" x="680.91" y="432.2984">obo:has member part at some time</text></g><!--link o11 to o12--><g class="link" data-entity-1="o11" data-entity-2="o12" data-source-line="53" data-uid="lnk25" id="link_o11_o12"><path codeLine="53" d="M1158.88,525.73 C1259.05,525.73 1418.12,525.73 1527.08,525.73" fill="none" id="o11-to-o12" style="stroke:#181818;stroke-width:1;"/><polygon fill="#181818" points="1533.08,525.73,1524.08,521.73,1528.08,525.73,1524.08,529.73,1533.08,525.73" style="stroke:#181818;stroke-width:1;"/><text fill="#000000" font-family="sans-serif" font-size="13" lengthAdjust="spacing" textLength="126.0771" x="1289.12" y="522.2984">cmns-dsg:hasName</text></g><!--link o13 to o1--><g class="link" data-entity-1="o13" data-entity-2="o1" data-source-line="54" data-uid="lnk26" id="link_o13_o1"><path codeLine="54" d="M145.16,285.73 C219.87,285.73 334.87,285.73 422.97,285.73" fill="none" id="o13-to-o1" style="stroke:#181818;stroke-width:1;"/><polygon fill="#181818" points="428.97,285.73,419.97,281.73,423.97,285.73,419.97,289.73,428.97,285.73" style="stroke:#181818;stroke-width:1;"/><text fill="#000000" font-family="sans-serif" font-size="13" lengthAdjust="spacing" textLength="222.5425" x="176.15" y="282.2984">obo:has member part at some time</text></g><!--SRC=[bPJRQjj048RlzHHBxfLMSOw21bmrXKBTGcq29OGoaiRs9djGTrV5IkcxTtTriAnOmRwJPlxvPdRsb_Gp5GKeu8HHWQOga1IILUubOBWqn4YYw6fjI4uLPePA4SZqoJwHauU7qtSpU87dC3jT6yv83WRY9lBuU4904ncHlm7nt0y4D_4FQK1LC-b0yqeRv07vrn7xW500nvfnrcDaNEWmrwlucqsFrke2ixfsqg-L2kDFgEbApAs0Bca6_aHlOSBxkw_Vao-Bd-4CDfINlEQU3xdtm4gysnGAjJw2ISMMUN44Sxly5pkMVdK1FjfUmkNk9SoDAZDJgh7z-ThU_g-Etl-o5DuhTVtrRlj42aD5AKjT-o210bBAgAb6UShRvjSVP3ApkX3i-C1g-asF_hk8xSrYFWgoXYjGWJjyuy_tk-MBhM3_khCmEUFIIFNQysscy_x0_3EN71sjAUxjFJh8-Dremu6wCIQ3CI1Rk-_RCI8IXhVk2ukt3TQWVOywwdne8tFA2zRpehUcvILH1vcqSgV954qn_rW5DkopvptOmDTJCsLiGJdgJdrncBhfV6dLzc1FqXuhNyZ01dpyQk-ncgBhNelFZL-xv4sRv0ZQUa5FpLnoT6qxZRNE0QB8YcGgNHV2aQUeYFtX6WA6Q2icfbQtylqt4JLhEGJs7m00]--></g></svg>