<svg xmlns="http://www.w3.org/2000/svg" xmlns:xlink="http://www.w3.org/1999/xlink" contentStyleType="text/css" data-diagram-type="CLASS" height="592px" preserveAspectRatio="none" style="width:1797px;height:592px;background:#FFFFFF;" version="1.1" viewBox="0 0 1797 592" width="1797px" zoomAndPan="magnify"><title>Mazak-c</title><defs/><g><text fill="#000000" font-family="sans-serif" font-size="14" font-weight="bold" lengthAdjust="spacing" textLength="62.6924" x="860.3593" y="23.5352">Mazak-c</text><g class="entity" data-entity="o1" data-source-line="4" data-uid="ent0002" id="entity_o1"><rect fill="#F1F1F1" height="44.9766" rx="2.5" ry="2.5" style="stroke:#181818;stroke-width:0.5;" width="220.7559" x="429.15" y="300.7283"/><a href="./Mazak-c.html" target="_top" title="./Mazak-c.html" xlink:actuate="onRequest" xlink:href="./Mazak-c.html" xlink:show="new" xlink:title="./Mazak-c.html" xlink:type="simple"><text fill="#0000FF" font-family="sans-serif" font-size="14" lengthAdjust="spacing" text-decoration="underline" textLength="92.9414" x="493.0572" y="316.2634">data:Mazak-c</text></a><line style="stroke:#181818;stroke-width:0.5;" x1="430.15" x2="648.9059" y1="321.2166" y2="321.2166"/><text fill="#000000" font-family="sans-serif" font-size="14" lengthAdjust="spacing" textLength="208.7559" x="435.15" y="338.7517">type = ex:RotaryMotionSystem</text></g><g class="entity" data-entity="o2" data-source-line="7" data-uid="ent0003" id="entity_o2"><rect fill="#F1F1F1" height="61.4648" rx="2.5" ry="2.5" style="stroke:#181818;stroke-width:0.5;" width="264.6699" x="938.93" y="44.4883"/><text fill="#000000" font-family="sans-serif" font-size="14" lengthAdjust="spacing" textLength="138.332" x="1002.0989" y="60.0234">data:Mazak-c-name</text><line style="stroke:#181818;stroke-width:0.5;" x1="939.93" x2="1202.5999" y1="64.9766" y2="64.9766"/><text fill="#000000" font-family="sans-serif" font-size="14" lengthAdjust="spacing" textLength="161.3691" x="944.93" y="82.5117">type = cmns-dsg:Name</text><text fill="#000000" font-family="sans-serif" font-size="14" lengthAdjust="spacing" textLength="252.6699" x="944.93" y="99">core:hasSimpleExpressionValue = C1</text></g><g class="entity" data-entity="o3" data-source-line="10" data-uid="ent0004" id="entity_o3"><rect fill="#F1F1F1" height="44.9766" rx="2.5" ry="2.5" style="stroke:#181818;stroke-width:0.5;" width="227.8037" x="957.36" y="140.7283"/><text fill="#000000" font-family="sans-serif" font-size="14" lengthAdjust="spacing" textLength="131.9609" x="1005.2814" y="156.2634">data:Mazak-c-spec</text><line style="stroke:#181818;stroke-width:0.5;" x1="958.36" x2="1184.1637" y1="161.2166" y2="161.2166"/><text fill="#000000" font-family="sans-serif" font-size="14" lengthAdjust="spacing" textLength="215.8037" x="963.36" y="178.7517">type = core:DesignSpecification</text></g><g class="entity" data-entity="o4" data-source-line="13" data-uid="ent0005" id="entity_o4"><rect fill="#F1F1F1" height="44.9766" rx="2.5" ry="2.5" style="stroke:#181818;stroke-width:0.5;" width="295.791" x="1495.62" y="60.7283"/><text fill="#000000" font-family="sans-serif" font-size="14" lengthAdjust="spacing" textLength="281.791" x="1502.62" y="76.2634">data:Mazak-c-spec-VELOCITY-Maximum</text><line style="stroke:#181818;stroke-width:0.5;" x1="1496.62" x2="1790.411" y1="81.2166" y2="81.2166"/><text fill="#000000" font-family="sans-serif" font-size="14" lengthAdjust="spacing" textLength="194.4209" x="1501.62" y="98.7517">type = core:ValueExpression</text></g><g class="entity" data-entity="o5" data-source-line="16" data-uid="ent0006" id="entity_o5"><rect fill="#F1F1F1" height="44.9766" rx="2.5" ry="2.5" style="stroke:#181818;stroke-width:0.5;" width="292.209" x="1497.42" y="140.7283"/><text fill="#000000" font-family="sans-serif" font-size="14" lengthAdjust="spacing" textLength="278.209" x="1504.42" y="156.2634">data:Mazak-c-spec-VELOCITY-Minimum</text><line style="stroke:#181818;stroke-width:0.5;" x1="1498.42" x2="1788.629" y1="161.2166" y2="161.2166"/><text fill="#000000" font-family="sans-serif" font-size="14" lengthAdjust="spacing" textLength="194.4209" x="1503.42" y="178.7517">type = core:ValueExpression</text></g><g class="entity" data-entity="o6" data-source-line="19" data-uid="ent0007" id="entity_o6"><rect fill="#F1F1F1" height="44.9766" rx="2.5" ry="2.5" style="stroke:#181818;stroke-width:0.5;" width="143.7832" x="999.37" y="220.7283"/><a href="./Mazak-zaxis.html" target="_top" title="./Mazak-zaxis.html" xlink:actuate="onRequest" xlink:href="./Mazak-zaxis.html" xlink:show="new" xlink:title="./Mazak-zaxis.html" xlink:type="simple"><text fill="#0000FF" font-family="sans-serif" font-size="14" lengthAdjust="spacing" text-decoration="underline" textLength="121.2969" x="1010.6132" y="236.2634">data:Mazak-zaxis</text></a><line style="stroke:#181818;stroke-width:0.5;" x1="1000.37" x2="1142.1532" y1="241.2166" y2="241.2166"/><text fill="#000000" font-family="sans-serif" font-size="14" lengthAdjust="spacing" textLength="131.7832" x="1005.37" y="258.7517">type = ex:Structure</text></g><g class="entity" data-entity="o7" data-source-line="22" data-uid="ent0008" id="entity_o7"><rect fill="#F1F1F1" height="44.9766" rx="2.5" ry="2.5" style="stroke:#181818;stroke-width:0.5;" width="180.6875" x="1553.18" y="220.7283"/><text fill="#000000" font-family="sans-serif" font-size="14" lengthAdjust="spacing" textLength="166.6875" x="1560.18" y="236.2634">data:Mazak-zaxis-name</text><line style="stroke:#181818;stroke-width:0.5;" x1="1554.18" x2="1732.8675" y1="241.2166" y2="241.2166"/><text fill="#000000" font-family="sans-serif" font-size="14" lengthAdjust="spacing" textLength="161.3691" x="1559.18" y="258.7517">type = cmns-dsg:Name</text></g><g class="entity" data-entity="o8" data-source-line="25" data-uid="ent0009" id="entity_o8"><rect fill="#F1F1F1" height="44.9766" rx="2.5" ry="2.5" style="stroke:#181818;stroke-width:0.5;" width="274.7188" x="933.91" y="300.7283"/><text fill="#000000" font-family="sans-serif" font-size="14" lengthAdjust="spacing" textLength="157.3086" x="992.6151" y="316.2634">data:Mazak-c-function</text><line style="stroke:#181818;stroke-width:0.5;" x1="934.91" x2="1207.6287" y1="321.2166" y2="321.2166"/><text fill="#000000" font-family="sans-serif" font-size="14" lengthAdjust="spacing" textLength="262.7188" x="939.91" y="338.7517">type = ex:ContinuousMotionCapability</text></g><g class="entity" data-entity="o9" data-source-line="28" data-uid="ent0010" id="entity_o9"><rect fill="#F1F1F1" height="44.9766" rx="2.5" ry="2.5" style="stroke:#181818;stroke-width:0.5;" width="262.5479" x="939.99" y="380.7283"/><text fill="#000000" font-family="sans-serif" font-size="14" lengthAdjust="spacing" textLength="248.5479" x="946.99" y="396.2634">data:Mazak-c-rotary_velocity-actual</text><line style="stroke:#181818;stroke-width:0.5;" x1="940.99" x2="1201.5379" y1="401.2166" y2="401.2166"/><text fill="#000000" font-family="sans-serif" font-size="14" lengthAdjust="spacing" textLength="111.9658" x="945.99" y="418.7517">type = qp:Speed</text></g><g class="entity" data-entity="o10" data-source-line="31" data-uid="ent0011" id="entity_o10"><rect fill="#F1F1F1" height="44.9766" rx="2.5" ry="2.5" style="stroke:#181818;stroke-width:0.5;" width="198.6729" x="971.93" y="460.7283"/><text fill="#000000" font-family="sans-serif" font-size="14" lengthAdjust="spacing" textLength="184.6729" x="978.93" y="476.2634">data:Mazak-c-temperature</text><line style="stroke:#181818;stroke-width:0.5;" x1="972.93" x2="1169.6029" y1="481.2166" y2="481.2166"/><text fill="#000000" font-family="sans-serif" font-size="14" lengthAdjust="spacing" textLength="158.4502" x="977.93" y="498.7517">type = qp:Temperature</text></g><g class="entity" data-entity="o11" data-source-line="34" data-uid="ent0012" id="entity_o11"><rect fill="#F1F1F1" height="44.9766" rx="2.5" ry="2.5" style="stroke:#181818;stroke-width:0.5;" width="174.8154" x="983.86" y="540.7283"/><a href="./Mazak-c-C2motor.html" target="_top" title="./Mazak-c-C2motor.html" xlink:actuate="onRequest" xlink:href="./Mazak-c-C2motor.html" xlink:show="new" xlink:title="./Mazak-c-C2motor.html" xlink:type="simple"><text fill="#0000FF" font-family="sans-serif" font-size="14" lengthAdjust="spacing" text-decoration="underline" textLength="160.8154" x="990.86" y="556.2634">data:Mazak-c-C2motor</text></a><line style="stroke:#181818;stroke-width:0.5;" x1="984.86" x2="1157.6754" y1="561.2166" y2="561.2166"/><text fill="#000000" font-family="sans-serif" font-size="14" lengthAdjust="spacing" textLength="110.1885" x="989.86" y="578.7517">type = ex:Motor</text></g><g class="entity" data-entity="o12" data-source-line="37" data-uid="ent0013" id="entity_o12"><rect fill="#F1F1F1" height="44.9766" rx="2.5" ry="2.5" style="stroke:#181818;stroke-width:0.5;" width="220.2061" x="1533.42" y="540.7283"/><text fill="#000000" font-family="sans-serif" font-size="14" lengthAdjust="spacing" textLength="206.2061" x="1540.42" y="556.2634">data:Mazak-c-C2motor-name</text><line style="stroke:#181818;stroke-width:0.5;" x1="1534.42" x2="1752.6261" y1="561.2166" y2="561.2166"/><text fill="#000000" font-family="sans-serif" font-size="14" lengthAdjust="spacing" textLength="161.3691" x="1539.42" y="578.7517">type = cmns-dsg:Name</text></g><g class="entity" data-entity="o13" data-source-line="40" data-uid="ent0014" id="entity_o13"><rect fill="#F1F1F1" height="44.9766" rx="2.5" ry="2.5" style="stroke:#181818;stroke-width:0.5;" width="138.1504" x="7" y="300.7283"/><a href="./Mazak.html" target="_top" title="./Mazak.html" xlink:actuate="onRequest" xlink:href="./Mazak.html" xlink:show="new" xlink:title="./Mazak.html" xlink:type="simple"><text fill="#0000FF" font-family="sans-serif" font-size="14" lengthAdjust="spacing" text-decoration="underline" textLength="77.6699" x="37.2402" y="316.2634">data:Mazak</text></a><line style="stroke:#181818;stroke-width:0.5;" x1="8" x2="144.1504" y1="321.2166" y2="321.2166"/><text fill="#000000" font-family="sans-serif" font-size="14" lengthAdjust="spacing" textLength="126.1504" x="13" y="338.7517">type = ex:Machine</text></g><!--link o1 to o2--><g class="link" data-entity-1="o1" data-entity-2="o2" data-source-line="43" data-uid="lnk15" id="link_o1_o2"><path codeLine="43" d="M561.7,300.4383 C600.69,258.4783 679.91,173.2183 679.91,173.2183 C679.91,173.2183 825.8606,136.5794 940.1306,107.8894" fill="none" id="o1-to-o2" style="stroke:#181818;stroke-width:1;"/><polygon fill="#181818" points="945.95,106.4283,936.2469,104.7403,941.1005,107.6459,938.195,112.4995,945.95,106.4283" style="stroke:#181818;stroke-width:1;"/><text fill="#000000" font-family="sans-serif" font-size="13" lengthAdjust="spacing" textLength="126.0771" x="728.91" y="114.9166">cmns-dsg:hasName</text></g><!--link o1 to o3--><g class="link" data-entity-1="o1" data-entity-2="o3" data-source-line="45" data-uid="lnk16" id="link_o1_o3"><path codeLine="45" d="M579.72,300.4383 C620.95,276.4883 679.91,242.2183 679.91,242.2183 C679.91,242.2183 835.9392,210.6384 951.2192,187.3084" fill="none" id="o1-to-o3" style="stroke:#181818;stroke-width:1;"/><polygon fill="#181818" points="957.1,186.1183,947.4854,183.983,952.1993,187.1101,949.0723,191.824,957.1,186.1183" style="stroke:#181818;stroke-width:1;"/><text fill="#000000" font-family="sans-serif" font-size="13" lengthAdjust="spacing" textLength="112.3027" x="735.91" y="194.5566">core:prescribedBy</text></g><!--link o3 to o4--><g class="link" data-entity-1="o3" data-entity-2="o4" data-source-line="46" data-uid="lnk17" id="link_o3_o4"><path codeLine="46" d="M1185.53,146.1983 C1214.99,141.7683 1238.62,138.2183 1238.62,138.2183 C1238.62,138.2183 1373.9049,119.7979 1489.3349,104.0779" fill="none" id="o3-to-o4" style="stroke:#181818;stroke-width:1;"/><polygon fill="#181818" points="1495.28,103.2683,1485.8226,100.5193,1490.3257,103.943,1486.9021,108.4462,1495.28,103.2683" style="stroke:#181818;stroke-width:1;"/><text fill="#000000" font-family="sans-serif" font-size="13" lengthAdjust="spacing" textLength="225.0688" x="1239.62" y="103.9966">core:hasValueExpressionAtAllTimes</text></g><!--link o3 to o5--><g class="link" data-entity-1="o3" data-entity-2="o5" data-source-line="47" data-uid="lnk18" id="link_o3_o5"><path codeLine="47" d="M1185.61,163.2183 C1275.02,163.2183 1394.34,163.2183 1491.13,163.2183" fill="none" id="o3-to-o5" style="stroke:#181818;stroke-width:1;"/><polygon fill="#181818" points="1497.13,163.2183,1488.13,159.2183,1492.13,163.2183,1488.13,167.2183,1497.13,163.2183" style="stroke:#181818;stroke-width:1;"/><text fill="#000000" font-family="sans-serif" font-size="13" lengthAdjust="spacing" textLength="225.0688" x="1239.62" y="159.7866">core:hasValueExpressionAtAllTimes</text></g><!--link o1 to o6--><g class="link" data-entity-1="o1" data-entity-2="o6" data-source-line="48" data-uid="lnk19" id="link_o1_o6"><path codeLine="48" d="M650.35,303.5183 C667.62,300.4283 679.91,298.2183 679.91,298.2183 C679.91,298.2183 880.5887,269.9452 993.1787,254.0852" fill="none" id="o1-to-o6" style="stroke:#181818;stroke-width:1;"/><polygon fill="#181818" points="999.12,253.2483,989.65,250.5428,994.1689,253.9457,990.7659,258.4646,999.12,253.2483" style="stroke:#181818;stroke-width:1;"/><text fill="#000000" font-family="sans-serif" font-size="13" lengthAdjust="spacing" textLength="74.7246" x="754.91" y="263.9966">ex:joinedTo</text></g><!--link o6 to o7--><g class="link" data-entity-1="o6" data-entity-2="o7" data-source-line="49" data-uid="lnk20" id="link_o6_o7"><path codeLine="49" d="M1143.62,243.2183 C1247.33,243.2183 1433.62,243.2183 1546.79,243.2183" fill="none" id="o6-to-o7" style="stroke:#181818;stroke-width:1;"/><polygon fill="#181818" points="1552.79,243.2183,1543.79,239.2183,1547.79,243.2183,1543.79,247.2183,1552.79,243.2183" style="stroke:#181818;stroke-width:1;"/><text fill="#000000" font-family="sans-serif" font-size="13" lengthAdjust="spacing" textLength="126.0771" x="1289.12" y="239.7866">cmns-dsg:hasName</text></g><!--link o1 to o8--><g class="link" data-entity-1="o1" data-entity-2="o8" data-source-line="50" data-uid="lnk21" id="link_o1_o8"><path codeLine="50" d="M650.29,323.2183 C732.57,323.2183 839.68,323.2183 927.79,323.2183" fill="none" id="o1-to-o8" style="stroke:#181818;stroke-width:1;"/><polygon fill="#181818" points="933.79,323.2183,924.79,319.2183,928.79,323.2183,924.79,327.2183,933.79,323.2183" style="stroke:#181818;stroke-width:1;"/><text fill="#000000" font-family="sans-serif" font-size="13" lengthAdjust="spacing" textLength="107.6309" x="738.41" y="319.7866">core:hasFunction</text></g><!--link o1 to o9--><g class="link" data-entity-1="o1" data-entity-2="o9" data-source-line="51" data-uid="lnk22" id="link_o1_o9"><path codeLine="51" d="M650.35,342.9183 C667.62,346.0183 679.91,348.2183 679.91,348.2183 C679.91,348.2183 820.3187,368.0011 933.7987,383.9911" fill="none" id="o1-to-o9" style="stroke:#181818;stroke-width:1;"/><polygon fill="#181818" points="939.74,384.8283,931.3861,379.6117,934.7889,384.1306,930.2699,387.5334,939.74,384.8283" style="stroke:#181818;stroke-width:1;"/><text fill="#000000" font-family="sans-serif" font-size="13" lengthAdjust="spacing" textLength="171.3169" x="706.41" y="344.7866">core:measuresAtSomeTime</text></g><!--link o1 to o10--><g class="link" data-entity-1="o1" data-entity-2="o10" data-source-line="52" data-uid="lnk23" id="link_o1_o10"><path codeLine="52" d="M579.72,345.9983 C620.95,369.9583 679.91,404.2183 679.91,404.2183 C679.91,404.2183 849.9793,438.6379 965.6293,462.0479" fill="none" id="o1-to-o10" style="stroke:#181818;stroke-width:1;"/><polygon fill="#181818" points="971.51,463.2383,963.4825,457.5322,966.6094,462.2463,961.8953,465.3732,971.51,463.2383" style="stroke:#181818;stroke-width:1;"/><text fill="#000000" font-family="sans-serif" font-size="13" lengthAdjust="spacing" textLength="171.3169" x="706.41" y="400.7866">core:measuresAtSomeTime</text></g><!--link o1 to o11--><g class="link" data-entity-1="o1" data-entity-2="o11" data-source-line="53" data-uid="lnk24" id="link_o1_o11"><path codeLine="53" d="M561.7,345.9983 C600.69,387.9683 679.91,473.2183 679.91,473.2183 C679.91,473.2183 862.7834,515.38 977.7834,541.9" fill="none" id="o1-to-o11" style="stroke:#181818;stroke-width:1;"/><polygon fill="#181818" points="983.63,543.2483,975.759,537.3282,978.7579,542.1247,973.9613,545.1236,983.63,543.2483" style="stroke:#181818;stroke-width:1;"/><text fill="#000000" font-family="sans-serif" font-size="13" lengthAdjust="spacing" textLength="222.5425" x="680.91" y="469.7866">obo:has member part at some time</text></g><!--link o11 to o12--><g class="link" data-entity-1="o11" data-entity-2="o12" data-source-line="54" data-uid="lnk25" id="link_o11_o12"><path codeLine="54" d="M1158.88,563.2183 C1259.05,563.2183 1418.12,563.2183 1527.08,563.2183" fill="none" id="o11-to-o12" style="stroke:#181818;stroke-width:1;"/><polygon fill="#181818" points="1533.08,563.2183,1524.08,559.2183,1528.08,563.2183,1524.08,567.2183,1533.08,563.2183" style="stroke:#181818;stroke-width:1;"/><text fill="#000000" font-family="sans-serif" font-size="13" lengthAdjust="spacing" textLength="126.0771" x="1289.12" y="559.7866">cmns-dsg:hasName</text></g><!--link o13 to o1--><g class="link" data-entity-1="o13" data-entity-2="o1" data-source-line="55" data-uid="lnk26" id="link_o13_o1"><path codeLine="55" d="M145.16,323.2183 C219.87,323.2183 334.87,323.2183 422.97,323.2183" fill="none" id="o13-to-o1" style="stroke:#181818;stroke-width:1;"/><polygon fill="#181818" points="428.97,323.2183,419.97,319.2183,423.97,323.2183,419.97,327.2183,428.97,323.2183" style="stroke:#181818;stroke-width:1;"/><text fill="#000000" font-family="sans-serif" font-size="13" lengthAdjust="spacing" textLength="222.5425" x="176.15" y="319.7866">obo:has member part at some time</text></g><!--SRC=[bPJRQjj048RlzHHBxfLMSOw21bmrXKBTGcq29OGoaiRs9hjQTNTKh9I-UtTrignOmRxqp3_V7FQNpJFFSj0WcU0PKfaZovKetGzFu98OAQRvQaqivHeJuYhpY9D0DeCNUFOJJyLFDivE7XvEtpMnqpL9mL8W29l8u-C90yDKmFvwhEhoWU4c_A48T3bJ3Zil3Q7qsB-Es0Vu6KYi6MSzHY8puwTc5NwpwT5QasDIrqxwjKfZ-0aDNsLpA-1Bda2rtriO__xkw_Veo-AdFuCDbuMikUT3xZs80kyskKPZZc3oRCkyE8AvFVwB7SkyUe0gsZx2vUuZp4aN2HLwx7vLRU_-LqVVVrbabNFg-klTzf7AY6U5AapjWmXoYBdWL8xoT6MRNtzGgCJgVB3ZWwZfDptwxpoqBulfACWQBaSDRld6d-ztonTRmVvp9tvq9XKf_ThpRQRp_i3yCvSS7QqfxjqzECZutMZ3WRen9eCn85cxhzqn0kRxj-uB2xSDrc2g7dNK-T16vbpcekV5ofgM5mKTPDBAdIRHFCRqO-dPS9Kzxy46lfxIL8W5bsWwzSLXwgRpfLNRnPwKNIjTACy6glZLthMQekjUYy-DNxlaJPkK2CPwmKnfhYIwjft6MkS0KM15AbQk2vCeOzJC_lqI0sB6YXdLwbQ-_oM2vYo7mFu3]--></g></svg>