<svg xmlns="http://www.w3.org/2000/svg" xmlns:xlink="http://www.w3.org/1999/xlink" contentStyleType="text/css" data-diagram-type="CLASS" height="715px" preserveAspectRatio="none" style="width:1205px;height:715px;background:#FFFFFF;" version="1.1" viewBox="0 0 1205 715" width="1205px" zoomAndPan="magnify"><defs/><g><g class="entity" data-entity="o1" data-source-line="3" data-uid="ent0002" id="entity_o1"><rect fill="#F1F1F1" height="44.9766" rx="2.5" ry="2.5" style="stroke:#181818;stroke-width:0.5;" width="220.7559" x="429.15" y="343.24"/><a href="./Mazak-c2.html" target="_top" title="./Mazak-c2.html" xlink:actuate="onRequest" xlink:href="./Mazak-c2.html" xlink:show="new" xlink:title="./Mazak-c2.html" xlink:type="simple"><text fill="#0000FF" font-family="sans-serif" font-size="14" lengthAdjust="spacing" text-decoration="underline" textLength="101.7939" x="488.631" y="358.7752">data:Mazak-c2</text></a><line style="stroke:#181818;stroke-width:0.5;" x1="430.15" x2="648.9059" y1="363.7283" y2="363.7283"/><text fill="#000000" font-family="sans-serif" font-size="14" lengthAdjust="spacing" textLength="208.7559" x="435.15" y="381.2634">type = ex:RotaryMotionSystem</text></g><g class="entity" data-entity="o2" data-source-line="6" data-uid="ent0003" id="entity_o2"><rect fill="#F1F1F1" height="61.4648" rx="2.5" ry="2.5" style="stroke:#181818;stroke-width:0.5;" width="264.6699" x="933.91" y="7"/><text fill="#000000" font-family="sans-serif" font-size="14" lengthAdjust="spacing" textLength="147.1846" x="992.6527" y="22.5352">data:Mazak-c2-name</text><line style="stroke:#181818;stroke-width:0.5;" x1="934.91" x2="1197.5799" y1="27.4883" y2="27.4883"/><text fill="#000000" font-family="sans-serif" font-size="14" lengthAdjust="spacing" textLength="161.3691" x="939.91" y="45.0234">type = cmns-dsg:Name</text><text fill="#000000" font-family="sans-serif" font-size="14" lengthAdjust="spacing" textLength="252.6699" x="939.91" y="61.5117">core:hasSimpleExpressionValue = C2</text></g><g class="entity" data-entity="o3" data-source-line="9" data-uid="ent0004" id="entity_o3"><rect fill="#F1F1F1" height="44.9766" rx="2.5" ry="2.5" style="stroke:#181818;stroke-width:0.5;" width="227.8037" x="952.34" y="103.24"/><text fill="#000000" font-family="sans-serif" font-size="14" lengthAdjust="spacing" textLength="140.8135" x="995.8351" y="118.7752">data:Mazak-c2-spec</text><line style="stroke:#181818;stroke-width:0.5;" x1="953.34" x2="1179.1437" y1="123.7283" y2="123.7283"/><text fill="#000000" font-family="sans-serif" font-size="14" lengthAdjust="spacing" textLength="215.8037" x="958.34" y="141.2634">type = core:DesignSpecification</text></g><g class="entity" data-entity="o4" data-source-line="12" data-uid="ent0005" id="entity_o4"><rect fill="#F1F1F1" height="44.9766" rx="2.5" ry="2.5" style="stroke:#181818;stroke-width:0.5;" width="148.7705" x="991.86" y="183.24"/><a href="./Mazak-trundle.html" target="_top" title="./Mazak-trundle.html" xlink:actuate="onRequest" xlink:href="./Mazak-trundle.html" xlink:show="new" xlink:title="./Mazak-trundle.html" xlink:type="simple"><text fill="#0000FF" font-family="sans-serif" font-size="14" lengthAdjust="spacing" text-decoration="underline" textLength="134.7705" x="998.86" y="198.7752">data:Mazak-trundle</text></a><line style="stroke:#181818;stroke-width:0.5;" x1="992.86" x2="1139.6305" y1="203.7283" y2="203.7283"/><text fill="#000000" font-family="sans-serif" font-size="14" lengthAdjust="spacing" textLength="131.7832" x="997.86" y="221.2634">type = ex:Structure</text></g><g class="entity" data-entity="o5" data-source-line="15" data-uid="ent0006" id="entity_o5"><rect fill="#F1F1F1" height="44.9766" rx="2.5" ry="2.5" style="stroke:#181818;stroke-width:0.5;" width="143.7832" x="994.35" y="263.24"/><a href="./Mazak-table.html" target="_top" title="./Mazak-table.html" xlink:actuate="onRequest" xlink:href="./Mazak-table.html" xlink:show="new" xlink:title="./Mazak-table.html" xlink:type="simple"><text fill="#0000FF" font-family="sans-serif" font-size="14" lengthAdjust="spacing" text-decoration="underline" textLength="119.3965" x="1006.5434" y="278.7752">data:Mazak-table</text></a><line style="stroke:#181818;stroke-width:0.5;" x1="995.35" x2="1137.1332" y1="283.7283" y2="283.7283"/><text fill="#000000" font-family="sans-serif" font-size="14" lengthAdjust="spacing" textLength="131.7832" x="1000.35" y="301.2634">type = ex:Structure</text></g><g class="entity" data-entity="o6" data-source-line="18" data-uid="ent0007" id="entity_o6"><rect fill="#F1F1F1" height="44.9766" rx="2.5" ry="2.5" style="stroke:#181818;stroke-width:0.5;" width="254.9287" x="938.78" y="343.24"/><text fill="#000000" font-family="sans-serif" font-size="14" lengthAdjust="spacing" textLength="166.1611" x="983.1638" y="358.7752">data:Mazak-c2-function</text><line style="stroke:#181818;stroke-width:0.5;" x1="939.78" x2="1192.7087" y1="363.7283" y2="363.7283"/><text fill="#000000" font-family="sans-serif" font-size="14" lengthAdjust="spacing" textLength="242.9287" x="944.78" y="381.2634">type = ex:RevoluteMotionCapability</text></g><g class="entity" data-entity="o7" data-source-line="21" data-uid="ent0008" id="entity_o7"><rect fill="#F1F1F1" height="44.9766" rx="2.5" ry="2.5" style="stroke:#181818;stroke-width:0.5;" width="160.8906" x="985.8" y="423.24"/><text fill="#000000" font-family="sans-serif" font-size="14" lengthAdjust="spacing" textLength="146.8906" x="992.8" y="438.7752">data:Mazak-c2-angle</text><line style="stroke:#181818;stroke-width:0.5;" x1="986.8" x2="1145.6906" y1="443.7283" y2="443.7283"/><text fill="#000000" font-family="sans-serif" font-size="14" lengthAdjust="spacing" textLength="110.127" x="991.8" y="461.2634">type = qp:Angle</text></g><g class="entity" data-entity="o8" data-source-line="24" data-uid="ent0009" id="entity_o8"><rect fill="#F1F1F1" height="44.9766" rx="2.5" ry="2.5" style="stroke:#181818;stroke-width:0.5;" width="209.5967" x="961.44" y="503.24"/><text fill="#000000" font-family="sans-serif" font-size="14" lengthAdjust="spacing" textLength="195.5967" x="968.44" y="518.7752">data:Mazak-c2-angle-actual</text><line style="stroke:#181818;stroke-width:0.5;" x1="962.44" x2="1170.0367" y1="523.7283" y2="523.7283"/><text fill="#000000" font-family="sans-serif" font-size="14" lengthAdjust="spacing" textLength="110.127" x="967.44" y="541.2634">type = qp:Angle</text></g><g class="entity" data-entity="o9" data-source-line="27" data-uid="ent0010" id="entity_o9"><rect fill="#F1F1F1" height="44.9766" rx="2.5" ry="2.5" style="stroke:#181818;stroke-width:0.5;" width="207.5254" x="962.48" y="583.24"/><text fill="#000000" font-family="sans-serif" font-size="14" lengthAdjust="spacing" textLength="193.5254" x="969.48" y="598.7752">data:Mazak-c2-temperature</text><line style="stroke:#181818;stroke-width:0.5;" x1="963.48" x2="1169.0054" y1="603.7283" y2="603.7283"/><text fill="#000000" font-family="sans-serif" font-size="14" lengthAdjust="spacing" textLength="158.4502" x="968.48" y="621.2634">type = qp:Temperature</text></g><g class="entity" data-entity="o10" data-source-line="30" data-uid="ent0011" id="entity_o10"><rect fill="#F1F1F1" height="44.9766" rx="2.5" ry="2.5" style="stroke:#181818;stroke-width:0.5;" width="174.8154" x="978.83" y="663.24"/><a href="./Mazak-c2-Cmotor.html" target="_top" title="./Mazak-c2-Cmotor.html" xlink:actuate="onRequest" xlink:href="./Mazak-c2-Cmotor.html" xlink:show="new" xlink:title="./Mazak-c2-Cmotor.html" xlink:type="simple"><text fill="#0000FF" font-family="sans-serif" font-size="14" lengthAdjust="spacing" text-decoration="underline" textLength="160.8154" x="985.83" y="678.7752">data:Mazak-c2-Cmotor</text></a><line style="stroke:#181818;stroke-width:0.5;" x1="979.83" x2="1152.6454" y1="683.7283" y2="683.7283"/><text fill="#000000" font-family="sans-serif" font-size="14" lengthAdjust="spacing" textLength="110.1885" x="984.83" y="701.2634">type = ex:Motor</text></g><g class="entity" data-entity="o11" data-source-line="33" data-uid="ent0012" id="entity_o11"><rect fill="#F1F1F1" height="44.9766" rx="2.5" ry="2.5" style="stroke:#181818;stroke-width:0.5;" width="138.1504" x="7" y="343.24"/><a href="./Mazak.html" target="_top" title="./Mazak.html" xlink:actuate="onRequest" xlink:href="./Mazak.html" xlink:show="new" xlink:title="./Mazak.html" xlink:type="simple"><text fill="#0000FF" font-family="sans-serif" font-size="14" lengthAdjust="spacing" text-decoration="underline" textLength="77.6699" x="37.2402" y="358.7752">data:Mazak</text></a><line style="stroke:#181818;stroke-width:0.5;" x1="8" x2="144.1504" y1="363.7283" y2="363.7283"/><text fill="#000000" font-family="sans-serif" font-size="14" lengthAdjust="spacing" textLength="126.1504" x="13" y="381.2634">type = ex:Machine</text></g><!--link o1 to o2--><g class="link" data-entity-1="o1" data-entity-2="o2" data-source-line="36" data-uid="lnk13" id="link_o1_o2"><path codeLine="36" d="M554.66,342.92 C590.09,285.72 679.91,140.73 679.91,140.73 C679.91,140.73 829.3736,100.7797 942.7836,70.4597" fill="none" id="o1-to-o2" style="stroke:#181818;stroke-width:1;"/><polygon fill="#181818" points="948.58,68.91,938.8523,67.3702,943.7496,70.2014,940.9185,75.0988,948.58,68.91" style="stroke:#181818;stroke-width:1;"/><text fill="#000000" font-family="sans-serif" font-size="13" lengthAdjust="spacing" textLength="126.0771" x="728.91" y="79.6284">cmns-dsg:hasName</text></g><!--link o1 to o3--><g class="link" data-entity-1="o1" data-entity-2="o3" data-source-line="38" data-uid="lnk14" id="link_o1_o3"><path codeLine="38" d="M561.7,342.95 C600.69,300.99 679.91,215.73 679.91,215.73 C679.91,215.73 846.9972,176.7044 961.1672,150.0444" fill="none" id="o1-to-o3" style="stroke:#181818;stroke-width:1;"/><polygon fill="#181818" points="967.01,148.68,957.3362,146.8313,962.141,149.817,959.1554,154.6218,967.01,148.68" style="stroke:#181818;stroke-width:1;"/><text fill="#000000" font-family="sans-serif" font-size="13" lengthAdjust="spacing" textLength="112.3027" x="735.91" y="161.9084">core:prescribedBy</text></g><!--link o1 to o4--><g class="link" data-entity-1="o1" data-entity-2="o4" data-source-line="39" data-uid="lnk15" id="link_o1_o4"><path codeLine="39" d="M579.72,342.95 C620.95,319 679.91,284.73 679.91,284.73 C679.91,284.73 873.6323,245.0151 985.5223,222.0751" fill="none" id="o1-to-o4" style="stroke:#181818;stroke-width:1;"/><polygon fill="#181818" points="991.4,220.87,981.78,218.7591,986.5019,221.8742,983.3868,226.5961,991.4,220.87" style="stroke:#181818;stroke-width:1;"/><text fill="#000000" font-family="sans-serif" font-size="13" lengthAdjust="spacing" textLength="74.7246" x="754.91" y="237.0684">ex:joinedTo</text></g><!--link o1 to o5--><g class="link" data-entity-1="o1" data-entity-2="o5" data-source-line="40" data-uid="lnk16" id="link_o1_o5"><path codeLine="40" d="M650.35,346.03 C667.62,342.94 679.91,340.73 679.91,340.73 C679.91,340.73 876.8403,312.6282 988.1803,296.7282" fill="none" id="o1-to-o5" style="stroke:#181818;stroke-width:1;"/><polygon fill="#181818" points="994.12,295.88,984.6449,293.1925,989.1702,296.5869,985.7759,301.1122,994.12,295.88" style="stroke:#181818;stroke-width:1;"/><text fill="#000000" font-family="sans-serif" font-size="13" lengthAdjust="spacing" textLength="74.7246" x="754.91" y="306.5084">ex:joinedTo</text></g><!--link o1 to o6--><g class="link" data-entity-1="o1" data-entity-2="o6" data-source-line="41" data-uid="lnk17" id="link_o1_o6"><path codeLine="41" d="M650.21,365.73 C734.33,365.73 844.57,365.73 932.64,365.73" fill="none" id="o1-to-o6" style="stroke:#181818;stroke-width:1;"/><polygon fill="#181818" points="938.64,365.73,929.64,361.73,933.64,365.73,929.64,369.73,938.64,365.73" style="stroke:#181818;stroke-width:1;"/><text fill="#000000" font-family="sans-serif" font-size="13" lengthAdjust="spacing" textLength="107.6309" x="738.41" y="362.2984">core:hasFunction</text></g><!--link o1 to o7--><g class="link" data-entity-1="o1" data-entity-2="o7" data-source-line="42" data-uid="lnk18" id="link_o1_o7"><path codeLine="42" d="M650.35,385.43 C667.62,388.53 679.91,390.73 679.91,390.73 C679.91,390.73 866.5902,417.3822 979.4602,433.4922" fill="none" id="o1-to-o7" style="stroke:#181818;stroke-width:1;"/><polygon fill="#181818" points="985.4,434.34,977.0555,429.1084,980.4502,433.6335,975.9251,437.0282,985.4,434.34" style="stroke:#181818;stroke-width:1;"/><text fill="#000000" font-family="sans-serif" font-size="13" lengthAdjust="spacing" textLength="171.3169" x="706.41" y="387.2984">core:measuresAtSomeTime</text></g><!--link o1 to o8--><g class="link" data-entity-1="o1" data-entity-2="o8" data-source-line="43" data-uid="lnk19" id="link_o1_o8"><path codeLine="43" d="M579.72,388.51 C620.95,412.47 679.91,446.73 679.91,446.73 C679.91,446.73 840.9722,479.7552 955.0822,503.1452" fill="none" id="o1-to-o8" style="stroke:#181818;stroke-width:1;"/><polygon fill="#181818" points="960.96,504.35,952.9465,498.6242,956.0618,503.346,951.3401,506.4613,960.96,504.35" style="stroke:#181818;stroke-width:1;"/><text fill="#000000" font-family="sans-serif" font-size="13" lengthAdjust="spacing" textLength="171.3169" x="706.41" y="443.2984">core:measuresAtSomeTime</text></g><!--link o1 to o9--><g class="link" data-entity-1="o1" data-entity-2="o9" data-source-line="44" data-uid="lnk20" id="link_o1_o9"><path codeLine="44" d="M561.7,388.51 C600.69,430.48 679.91,515.73 679.91,515.73 C679.91,515.73 846.9973,554.7552 961.1673,581.4252" fill="none" id="o1-to-o9" style="stroke:#181818;stroke-width:1;"/><polygon fill="#181818" points="967.01,582.79,959.1558,576.8476,962.1411,581.6526,957.336,584.6379,967.01,582.79" style="stroke:#181818;stroke-width:1;"/><text fill="#000000" font-family="sans-serif" font-size="13" lengthAdjust="spacing" textLength="171.3169" x="706.41" y="512.2984">core:measuresAtSomeTime</text></g><!--link o1 to o10--><g class="link" data-entity-1="o1" data-entity-2="o10" data-source-line="45" data-uid="lnk21" id="link_o1_o10"><path codeLine="45" d="M554.66,388.54 C590.09,445.75 679.91,590.73 679.91,590.73 C679.91,590.73 859.3244,634.9637 972.9344,662.9737" fill="none" id="o1-to-o10" style="stroke:#181818;stroke-width:1;"/><polygon fill="#181818" points="978.76,664.41,970.9792,658.3719,973.9054,663.2131,969.0642,666.1393,978.76,664.41" style="stroke:#181818;stroke-width:1;"/><text fill="#000000" font-family="sans-serif" font-size="13" lengthAdjust="spacing" textLength="222.5425" x="680.91" y="587.2984">obo:has member part at some time</text></g><!--link o11 to o1--><g class="link" data-entity-1="o11" data-entity-2="o1" data-source-line="46" data-uid="lnk22" id="link_o11_o1"><path codeLine="46" d="M145.16,365.73 C219.87,365.73 334.87,365.73 422.97,365.73" fill="none" id="o11-to-o1" style="stroke:#181818;stroke-width:1;"/><polygon fill="#181818" points="428.97,365.73,419.97,361.73,423.97,365.73,419.97,369.73,428.97,365.73" style="stroke:#181818;stroke-width:1;"/><text fill="#000000" font-family="sans-serif" font-size="13" lengthAdjust="spacing" textLength="222.5425" x="176.15" y="362.2984">obo:has member part at some time</text></g><!--SRC=[bPJBRjim44Nt_ef1zaeQvosW1L8dtRcBoEWco68aZMqcV9KS5L6B_dj9ws79jL5tPy-zzv0p7Dk_2MtHeG8fD75j2QoHTVmoaRHaO0DEhDOCfN1Ki31wOlBNy0bEdfzFp-Ru4z-IOdgwPYMXHCQqAxsyd01wCEVmQm8RyaUWz_J9CBfwRY8ggpsJci3ldZaY91eLDP3f058exPFIhzAlGJuSzfQA9dmn31j7wGDviT9PC8YbA73JrO2pROnTfKj9VtNNrhiMBySjPa4kk79q08hvFcIiTi2h8u3ZRfULthnEax_UcJdzCB9YQgO-Gukva8BhmpZKAzcE_cR0-cxJ-wZy8vXWk2tA9d_xN_cm3vOSncQR-DquljZg-wSR63DbsBWzAzag_MP-68zf7iMzr5rMJzXPxZaMw_ZJYOnpI99FSNFJxSQkqM-Mjgd6LGoLJ2WhwV7TEl8-lCytb5NapQOzvAApHq_XH4xbvxfNBuCQ3dyruUXoOVhwrO7wzU3mB-tUzE9D9of27wRixpapYXOYNhlrt1xXkJl24nuW1PERU15Gf79o4FwD69311pDmu-xiHxZ_0000]--></g></svg>