<svg xmlns="http://www.w3.org/2000/svg" xmlns:xlink="http://www.w3.org/1999/xlink" contentStyleType="text/css" data-diagram-type="CLASS" height="1136px" preserveAspectRatio="none" style="width:1885px;height:1136px;background:#FFFFFF;" version="1.1" viewBox="0 0 1885 1136" width="1885px" zoomAndPan="magnify"><title>Mazak-y</title><defs/><g><text fill="#000000" font-family="sans-serif" font-size="14" font-weight="bold" lengthAdjust="spacing" textLength="63.4033" x="904.1945" y="23.5352">Mazak-y</text><g class="entity" data-entity="o1" data-source-line="4" data-uid="ent0002" id="entity_o1"><rect fill="#F1F1F1" height="44.9766" rx="2.5" ry="2.5" style="stroke:#181818;stroke-width:0.5;" width="218.7529" x="429.15" y="724.4883"/><a href="./Mazak-y.html" target="_top" title="./Mazak-y.html" xlink:actuate="onRequest" xlink:href="./Mazak-y.html" xlink:show="new" xlink:title="./Mazak-y.html" xlink:type="simple"><text fill="#0000FF" font-family="sans-serif" font-size="14" lengthAdjust="spacing" text-decoration="underline" textLength="93.085" x="491.984" y="740.0234">data:Mazak-y</text></a><line style="stroke:#181818;stroke-width:0.5;" x1="430.15" x2="646.9029" y1="744.9766" y2="744.9766"/><text fill="#000000" font-family="sans-serif" font-size="14" lengthAdjust="spacing" textLength="206.7529" x="435.15" y="762.5117">type = ex:LinearMotionSystem</text></g><g class="entity" data-entity="o2" data-source-line="7" data-uid="ent0003" id="entity_o2"><rect fill="#F1F1F1" height="61.4648" rx="2.5" ry="2.5" style="stroke:#181818;stroke-width:0.5;" width="254.8535" x="933.76" y="268.2483"/><text fill="#000000" font-family="sans-serif" font-size="14" lengthAdjust="spacing" textLength="138.4756" x="991.949" y="283.7834">data:Mazak-y-name</text><line style="stroke:#181818;stroke-width:0.5;" x1="934.76" x2="1187.6135" y1="288.7366" y2="288.7366"/><text fill="#000000" font-family="sans-serif" font-size="14" lengthAdjust="spacing" textLength="161.3691" x="939.76" y="306.2717">type = cmns-dsg:Name</text><text fill="#000000" font-family="sans-serif" font-size="14" lengthAdjust="spacing" textLength="242.8535" x="939.76" y="322.76">core:hasSimpleExpressionValue = Y</text></g><g class="entity" data-entity="o3" data-source-line="10" data-uid="ent0004" id="entity_o3"><rect fill="#F1F1F1" height="44.9766" rx="2.5" ry="2.5" style="stroke:#181818;stroke-width:0.5;" width="227.8037" x="947.28" y="364.4883"/><text fill="#000000" font-family="sans-serif" font-size="14" lengthAdjust="spacing" textLength="132.1045" x="995.1296" y="380.0234">data:Mazak-y-spec</text><line style="stroke:#181818;stroke-width:0.5;" x1="948.28" x2="1174.0837" y1="384.9766" y2="384.9766"/><text fill="#000000" font-family="sans-serif" font-size="14" lengthAdjust="spacing" textLength="215.8037" x="953.28" y="402.5117">type = core:DesignSpecification</text></g><g class="entity" data-entity="o4" data-source-line="13" data-uid="ent0005" id="entity_o4"><rect fill="#F1F1F1" height="44.9766" rx="2.5" ry="2.5" style="stroke:#181818;stroke-width:0.5;" width="273.4854" x="1541.89" y="44.4883"/><text fill="#000000" font-family="sans-serif" font-size="14" lengthAdjust="spacing" textLength="259.4854" x="1548.89" y="60.0234">data:Mazak-y-spec-LENGTH-Nominal</text><line style="stroke:#181818;stroke-width:0.5;" x1="1542.89" x2="1814.3754" y1="64.9766" y2="64.9766"/><text fill="#000000" font-family="sans-serif" font-size="14" lengthAdjust="spacing" textLength="194.4209" x="1547.89" y="82.5117">type = core:ValueExpression</text></g><g class="entity" data-entity="o5" data-source-line="16" data-uid="ent0006" id="entity_o5"><rect fill="#F1F1F1" height="44.9766" rx="2.5" ry="2.5" style="stroke:#181818;stroke-width:0.5;" width="329.0068" x="1514.13" y="124.4883"/><text fill="#000000" font-family="sans-serif" font-size="14" lengthAdjust="spacing" textLength="315.0068" x="1521.13" y="140.0234">data:Mazak-y-spec-LINEAR_FORCE-Maximum</text><line style="stroke:#181818;stroke-width:0.5;" x1="1515.13" x2="1842.1368" y1="144.9766" y2="144.9766"/><text fill="#000000" font-family="sans-serif" font-size="14" lengthAdjust="spacing" textLength="194.4209" x="1520.13" y="162.5117">type = core:ValueExpression</text></g><g class="entity" data-entity="o6" data-source-line="19" data-uid="ent0007" id="entity_o6"><rect fill="#F1F1F1" height="44.9766" rx="2.5" ry="2.5" style="stroke:#181818;stroke-width:0.5;" width="325.4248" x="1515.92" y="204.4883"/><text fill="#000000" font-family="sans-serif" font-size="14" lengthAdjust="spacing" textLength="311.4248" x="1522.92" y="220.0234">data:Mazak-y-spec-LINEAR_FORCE-Minimum</text><line style="stroke:#181818;stroke-width:0.5;" x1="1516.92" x2="1840.3448" y1="224.9766" y2="224.9766"/><text fill="#000000" font-family="sans-serif" font-size="14" lengthAdjust="spacing" textLength="194.4209" x="1521.92" y="242.5117">type = core:ValueExpression</text></g><g class="entity" data-entity="o7" data-source-line="22" data-uid="ent0008" id="entity_o7"><rect fill="#F1F1F1" height="44.9766" rx="2.5" ry="2.5" style="stroke:#181818;stroke-width:0.5;" width="344.8047" x="1506.23" y="284.4883"/><text fill="#000000" font-family="sans-serif" font-size="14" lengthAdjust="spacing" textLength="330.8047" x="1513.23" y="300.0234">data:Mazak-y-spec-VELOCITY-RAPID-Maximum</text><line style="stroke:#181818;stroke-width:0.5;" x1="1507.23" x2="1850.0347" y1="304.9766" y2="304.9766"/><text fill="#000000" font-family="sans-serif" font-size="14" lengthAdjust="spacing" textLength="194.4209" x="1512.23" y="322.5117">type = core:ValueExpression</text></g><g class="entity" data-entity="o8" data-source-line="25" data-uid="ent0009" id="entity_o8"><rect fill="#F1F1F1" height="44.9766" rx="2.5" ry="2.5" style="stroke:#181818;stroke-width:0.5;" width="341.2227" x="1508.02" y="364.4883"/><text fill="#000000" font-family="sans-serif" font-size="14" lengthAdjust="spacing" textLength="327.2227" x="1515.02" y="380.0234">data:Mazak-y-spec-VELOCITY-RAPID-Minimum</text><line style="stroke:#181818;stroke-width:0.5;" x1="1509.02" x2="1848.2427" y1="384.9766" y2="384.9766"/><text fill="#000000" font-family="sans-serif" font-size="14" lengthAdjust="spacing" textLength="194.4209" x="1514.02" y="402.5117">type = core:ValueExpression</text></g><g class="entity" data-entity="o9" data-source-line="28" data-uid="ent0010" id="entity_o9"><rect fill="#F1F1F1" height="44.9766" rx="2.5" ry="2.5" style="stroke:#181818;stroke-width:0.5;" width="402.3223" x="1477.47" y="444.4883"/><text fill="#000000" font-family="sans-serif" font-size="14" lengthAdjust="spacing" textLength="388.3223" x="1484.47" y="460.0234">data:Mazak-y-spec-VELOCITY-PROGRAMMED-Maximum</text><line style="stroke:#181818;stroke-width:0.5;" x1="1478.47" x2="1878.7923" y1="464.9766" y2="464.9766"/><text fill="#000000" font-family="sans-serif" font-size="14" lengthAdjust="spacing" textLength="194.4209" x="1483.47" y="482.5117">type = core:ValueExpression</text></g><g class="entity" data-entity="o10" data-source-line="31" data-uid="ent0011" id="entity_o10"><rect fill="#F1F1F1" height="44.9766" rx="2.5" ry="2.5" style="stroke:#181818;stroke-width:0.5;" width="398.7402" x="1479.26" y="524.4883"/><text fill="#000000" font-family="sans-serif" font-size="14" lengthAdjust="spacing" textLength="384.7402" x="1486.26" y="540.0234">data:Mazak-y-spec-VELOCITY-PROGRAMMED-Minimum</text><line style="stroke:#181818;stroke-width:0.5;" x1="1480.26" x2="1877.0002" y1="544.9766" y2="544.9766"/><text fill="#000000" font-family="sans-serif" font-size="14" lengthAdjust="spacing" textLength="194.4209" x="1485.26" y="562.5117">type = core:ValueExpression</text></g><g class="entity" data-entity="o11" data-source-line="34" data-uid="ent0012" id="entity_o11"><rect fill="#F1F1F1" height="44.9766" rx="2.5" ry="2.5" style="stroke:#181818;stroke-width:0.5;" width="148.9277" x="986.72" y="524.4883"/><a href="./Mazak-xaxism.html" target="_top" title="./Mazak-xaxism.html" xlink:actuate="onRequest" xlink:href="./Mazak-xaxism.html" xlink:show="new" xlink:title="./Mazak-xaxism.html" xlink:type="simple"><text fill="#0000FF" font-family="sans-serif" font-size="14" lengthAdjust="spacing" text-decoration="underline" textLength="134.9277" x="993.72" y="540.0234">data:Mazak-xaxism</text></a><line style="stroke:#181818;stroke-width:0.5;" x1="987.72" x2="1134.6477" y1="544.9766" y2="544.9766"/><text fill="#000000" font-family="sans-serif" font-size="14" lengthAdjust="spacing" textLength="131.7832" x="992.72" y="562.5117">type = ex:Structure</text></g><g class="entity" data-entity="o12" data-source-line="37" data-uid="ent0013" id="entity_o12"><rect fill="#F1F1F1" height="44.9766" rx="2.5" ry="2.5" style="stroke:#181818;stroke-width:0.5;" width="194.3184" x="1581.47" y="604.4883"/><text fill="#000000" font-family="sans-serif" font-size="14" lengthAdjust="spacing" textLength="180.3184" x="1588.47" y="620.0234">data:Mazak-xaxism-name</text><line style="stroke:#181818;stroke-width:0.5;" x1="1582.47" x2="1774.7884" y1="624.9766" y2="624.9766"/><text fill="#000000" font-family="sans-serif" font-size="14" lengthAdjust="spacing" textLength="161.3691" x="1587.47" y="642.5117">type = cmns-dsg:Name</text></g><g class="entity" data-entity="o13" data-source-line="40" data-uid="ent0014" id="entity_o13"><rect fill="#F1F1F1" height="44.9766" rx="2.5" ry="2.5" style="stroke:#181818;stroke-width:0.5;" width="147.6563" x="987.36" y="604.4883"/><a href="./Mazak-yaxism.html" target="_top" title="./Mazak-yaxism.html" xlink:actuate="onRequest" xlink:href="./Mazak-yaxism.html" xlink:show="new" xlink:title="./Mazak-yaxism.html" xlink:type="simple"><text fill="#0000FF" font-family="sans-serif" font-size="14" lengthAdjust="spacing" text-decoration="underline" textLength="133.6563" x="994.36" y="620.0234">data:Mazak-yaxism</text></a><line style="stroke:#181818;stroke-width:0.5;" x1="988.36" x2="1134.0163" y1="624.9766" y2="624.9766"/><text fill="#000000" font-family="sans-serif" font-size="14" lengthAdjust="spacing" textLength="131.7832" x="993.36" y="642.5117">type = ex:Structure</text></g><g class="entity" data-entity="o14" data-source-line="43" data-uid="ent0015" id="entity_o14"><rect fill="#F1F1F1" height="44.9766" rx="2.5" ry="2.5" style="stroke:#181818;stroke-width:0.5;" width="193.0469" x="1582.11" y="684.4883"/><text fill="#000000" font-family="sans-serif" font-size="14" lengthAdjust="spacing" textLength="179.0469" x="1589.11" y="700.0234">data:Mazak-yaxism-name</text><line style="stroke:#181818;stroke-width:0.5;" x1="1583.11" x2="1774.1569" y1="704.9766" y2="704.9766"/><text fill="#000000" font-family="sans-serif" font-size="14" lengthAdjust="spacing" textLength="161.3691" x="1588.11" y="722.5117">type = cmns-dsg:Name</text></g><g class="entity" data-entity="o15" data-source-line="46" data-uid="ent0016" id="entity_o15"><rect fill="#F1F1F1" height="44.9766" rx="2.5" ry="2.5" style="stroke:#181818;stroke-width:0.5;" width="258.5654" x="931.9" y="684.4883"/><text fill="#000000" font-family="sans-serif" font-size="14" lengthAdjust="spacing" textLength="157.4521" x="982.4566" y="700.0234">data:Mazak-y-function</text><line style="stroke:#181818;stroke-width:0.5;" x1="932.9" x2="1189.4654" y1="704.9766" y2="704.9766"/><text fill="#000000" font-family="sans-serif" font-size="14" lengthAdjust="spacing" textLength="246.5654" x="937.9" y="722.5117">type = ex:PrismaticMotionCapability</text></g><g class="entity" data-entity="o16" data-source-line="49" data-uid="ent0017" id="entity_o16"><rect fill="#F1F1F1" height="44.9766" rx="2.5" ry="2.5" style="stroke:#181818;stroke-width:0.5;" width="219.0576" x="951.66" y="764.4883"/><text fill="#000000" font-family="sans-serif" font-size="14" lengthAdjust="spacing" textLength="205.0576" x="958.66" y="780.0234">data:Mazak-y-position-actual</text><line style="stroke:#181818;stroke-width:0.5;" x1="952.66" x2="1169.7176" y1="784.9766" y2="784.9766"/><text fill="#000000" font-family="sans-serif" font-size="14" lengthAdjust="spacing" textLength="163.2285" x="957.66" y="802.5117">type = qp:Displacement</text></g><g class="entity" data-entity="o17" data-source-line="52" data-uid="ent0018" id="entity_o17"><rect fill="#F1F1F1" height="44.9766" rx="2.5" ry="2.5" style="stroke:#181818;stroke-width:0.5;" width="175.2285" x="973.57" y="844.4883"/><text fill="#000000" font-family="sans-serif" font-size="14" lengthAdjust="spacing" textLength="156.3516" x="983.0085" y="860.0234">data:Mazak-y-position</text><line style="stroke:#181818;stroke-width:0.5;" x1="974.57" x2="1147.7985" y1="864.9766" y2="864.9766"/><text fill="#000000" font-family="sans-serif" font-size="14" lengthAdjust="spacing" textLength="163.2285" x="979.57" y="882.5117">type = qp:Displacement</text></g><g class="entity" data-entity="o18" data-source-line="55" data-uid="ent0019" id="entity_o18"><rect fill="#F1F1F1" height="44.9766" rx="2.5" ry="2.5" style="stroke:#181818;stroke-width:0.5;" width="198.8164" x="961.78" y="924.4883"/><text fill="#000000" font-family="sans-serif" font-size="14" lengthAdjust="spacing" textLength="184.8164" x="968.78" y="940.0234">data:Mazak-y-temperature</text><line style="stroke:#181818;stroke-width:0.5;" x1="962.78" x2="1159.5964" y1="944.9766" y2="944.9766"/><text fill="#000000" font-family="sans-serif" font-size="14" lengthAdjust="spacing" textLength="158.4502" x="967.78" y="962.5117">type = qp:Temperature</text></g><g class="entity" data-entity="o19" data-source-line="58" data-uid="ent0020" id="entity_o19"><rect fill="#F1F1F1" height="44.9766" rx="2.5" ry="2.5" style="stroke:#181818;stroke-width:0.5;" width="187.168" x="967.6" y="1004.4883"/><a href="./Mazak-y-Yballscrew.html" target="_top" title="./Mazak-y-Yballscrew.html" xlink:actuate="onRequest" xlink:href="./Mazak-y-Yballscrew.html" xlink:show="new" xlink:title="./Mazak-y-Yballscrew.html" xlink:type="simple"><text fill="#0000FF" font-family="sans-serif" font-size="14" lengthAdjust="spacing" text-decoration="underline" textLength="173.168" x="974.6" y="1020.0234">data:Mazak-y-Yballscrew</text></a><line style="stroke:#181818;stroke-width:0.5;" x1="968.6" x2="1153.768" y1="1024.9766" y2="1024.9766"/><text fill="#000000" font-family="sans-serif" font-size="14" lengthAdjust="spacing" textLength="132.4668" x="973.6" y="1042.5117">type = ex:Ballscrew</text></g><g class="entity" data-entity="o20" data-source-line="61" data-uid="ent0021" id="entity_o20"><rect fill="#F1F1F1" height="44.9766" rx="2.5" ry="2.5" style="stroke:#181818;stroke-width:0.5;" width="232.5586" x="1562.35" y="1004.4883"/><text fill="#000000" font-family="sans-serif" font-size="14" lengthAdjust="spacing" textLength="218.5586" x="1569.35" y="1020.0234">data:Mazak-y-Yballscrew-name</text><line style="stroke:#181818;stroke-width:0.5;" x1="1563.35" x2="1793.9086" y1="1024.9766" y2="1024.9766"/><text fill="#000000" font-family="sans-serif" font-size="14" lengthAdjust="spacing" textLength="161.3691" x="1568.35" y="1042.5117">type = cmns-dsg:Name</text></g><g class="entity" data-entity="o21" data-source-line="64" data-uid="ent0022" id="entity_o21"><rect fill="#F1F1F1" height="44.9766" rx="2.5" ry="2.5" style="stroke:#181818;stroke-width:0.5;" width="165.1426" x="978.61" y="1084.4883"/><a href="./Mazak-y-Ymotor.html" target="_top" title="./Mazak-y-Ymotor.html" xlink:actuate="onRequest" xlink:href="./Mazak-y-Ymotor.html" xlink:show="new" xlink:title="./Mazak-y-Ymotor.html" xlink:type="simple"><text fill="#0000FF" font-family="sans-serif" font-size="14" lengthAdjust="spacing" text-decoration="underline" textLength="151.1426" x="985.61" y="1100.0234">data:Mazak-y-Ymotor</text></a><line style="stroke:#181818;stroke-width:0.5;" x1="979.61" x2="1142.7526" y1="1104.9766" y2="1104.9766"/><text fill="#000000" font-family="sans-serif" font-size="14" lengthAdjust="spacing" textLength="110.1885" x="984.61" y="1122.5117">type = ex:Motor</text></g><g class="entity" data-entity="o22" data-source-line="67" data-uid="ent0023" id="entity_o22"><rect fill="#F1F1F1" height="44.9766" rx="2.5" ry="2.5" style="stroke:#181818;stroke-width:0.5;" width="210.5332" x="1573.36" y="1084.4883"/><text fill="#000000" font-family="sans-serif" font-size="14" lengthAdjust="spacing" textLength="196.5332" x="1580.36" y="1100.0234">data:Mazak-y-Ymotor-name</text><line style="stroke:#181818;stroke-width:0.5;" x1="1574.36" x2="1782.8932" y1="1104.9766" y2="1104.9766"/><text fill="#000000" font-family="sans-serif" font-size="14" lengthAdjust="spacing" textLength="161.3691" x="1579.36" y="1122.5117">type = cmns-dsg:Name</text></g><g class="entity" data-entity="o23" data-source-line="70" data-uid="ent0024" id="entity_o23"><rect fill="#F1F1F1" height="44.9766" rx="2.5" ry="2.5" style="stroke:#181818;stroke-width:0.5;" width="138.1504" x="7" y="724.4883"/><a href="./Mazak.html" target="_top" title="./Mazak.html" xlink:actuate="onRequest" xlink:href="./Mazak.html" xlink:show="new" xlink:title="./Mazak.html" xlink:type="simple"><text fill="#0000FF" font-family="sans-serif" font-size="14" lengthAdjust="spacing" text-decoration="underline" textLength="77.6699" x="37.2402" y="740.0234">data:Mazak</text></a><line style="stroke:#181818;stroke-width:0.5;" x1="8" x2="144.1504" y1="744.9766" y2="744.9766"/><text fill="#000000" font-family="sans-serif" font-size="14" lengthAdjust="spacing" textLength="126.1504" x="13" y="762.5117">type = ex:Machine</text></g><!--link o1 to o2--><g class="link" data-entity-1="o1" data-entity-2="o2" data-source-line="73" data-uid="lnk25" id="link_o1_o2"><path codeLine="73" d="M549.81,724.0083 C581.88,652.3983 677.9,437.9783 677.9,437.9783 C677.9,437.9783 856.0412,373.2085 968.7512,332.2285" fill="none" id="o1-to-o2" style="stroke:#181818;stroke-width:1;"/><polygon fill="#181818" points="974.39,330.1783,964.5649,329.4944,969.691,331.8868,967.2985,337.0128,974.39,330.1783" style="stroke:#181818;stroke-width:1;"/><text fill="#000000" font-family="sans-serif" font-size="13" lengthAdjust="spacing" textLength="126.0771" x="726.9" y="356.7266">cmns-dsg:hasName</text></g><!--link o1 to o3--><g class="link" data-entity-1="o1" data-entity-2="o3" data-source-line="75" data-uid="lnk26" id="link_o1_o3"><path codeLine="75" d="M556.22,724.2983 C593.02,674.2983 677.9,558.9783 677.9,558.9783 C677.9,558.9783 899.9584,459.0702 1003.9484,412.2802" fill="none" id="o1-to-o3" style="stroke:#181818;stroke-width:1;"/><polygon fill="#181818" points="1009.42,409.8183,999.5712,409.8634,1004.8603,411.8699,1002.8538,417.159,1009.42,409.8183" style="stroke:#181818;stroke-width:1;"/><text fill="#000000" font-family="sans-serif" font-size="13" lengthAdjust="spacing" textLength="112.3027" x="733.9" y="459.2466">core:prescribedBy</text></g><!--link o3 to o4--><g class="link" data-entity-1="o3" data-entity-2="o4" data-source-line="76" data-uid="lnk27" id="link_o3_o4"><path codeLine="76" d="M1135.69,364.0583 C1164.36,355.1183 1190.47,346.9783 1190.47,346.9783 C1190.47,346.9783 1220.47,168.9783 1220.47,168.9783 C1220.47,168.9783 1477.47,106.9783 1477.47,106.9783 C1477.47,106.9783 1512.1562,100.0435 1556.7662,91.1335" fill="none" id="o3-to-o4" style="stroke:#181818;stroke-width:1;"/><polygon fill="#181818" points="1562.65,89.9583,1553.0409,87.7985,1557.7468,90.9376,1554.6078,95.6436,1562.65,89.9583" style="stroke:#181818;stroke-width:1;"/><text fill="#000000" font-family="sans-serif" font-size="13" lengthAdjust="spacing" textLength="225.0688" x="1221.47" y="111.2266">core:hasValueExpressionAtAllTimes</text></g><!--link o3 to o5--><g class="link" data-entity-1="o3" data-entity-2="o5" data-source-line="77" data-uid="lnk28" id="link_o3_o5"><path codeLine="77" d="M1135.69,364.0583 C1164.36,355.1183 1190.47,346.9783 1190.47,346.9783 C1190.47,346.9783 1220.47,246.9783 1220.47,246.9783 C1220.47,246.9783 1477.47,186.9783 1477.47,186.9783 C1477.47,186.9783 1512.1562,180.0435 1556.7662,171.1335" fill="none" id="o3-to-o5" style="stroke:#181818;stroke-width:1;"/><polygon fill="#181818" points="1562.65,169.9583,1553.0409,167.7985,1557.7468,170.9376,1554.6078,175.6436,1562.65,169.9583" style="stroke:#181818;stroke-width:1;"/><text fill="#000000" font-family="sans-serif" font-size="13" lengthAdjust="spacing" textLength="225.0688" x="1221.47" y="190.9866">core:hasValueExpressionAtAllTimes</text></g><!--link o3 to o6--><g class="link" data-entity-1="o3" data-entity-2="o6" data-source-line="78" data-uid="lnk29" id="link_o3_o6"><path codeLine="78" d="M1135.69,364.0583 C1164.36,355.1183 1190.47,346.9783 1190.47,346.9783 C1190.47,346.9783 1220.47,310.9783 1220.47,310.9783 C1220.47,310.9783 1411.4488,275.8925 1546.8088,251.0225" fill="none" id="o3-to-o6" style="stroke:#181818;stroke-width:1;"/><polygon fill="#181818" points="1552.71,249.9383,1543.1353,247.6305,1547.7923,250.8418,1544.581,255.4988,1552.71,249.9383" style="stroke:#181818;stroke-width:1;"/><text fill="#000000" font-family="sans-serif" font-size="13" lengthAdjust="spacing" textLength="225.0688" x="1221.47" y="268.0666">core:hasValueExpressionAtAllTimes</text></g><!--link o3 to o7--><g class="link" data-entity-1="o3" data-entity-2="o7" data-source-line="79" data-uid="lnk30" id="link_o3_o7"><path codeLine="79" d="M1175.53,369.0783 C1200.91,365.0683 1220.47,361.9783 1220.47,361.9783 C1220.47,361.9783 1370.163,343.9751 1499.813,328.3751" fill="none" id="o3-to-o7" style="stroke:#181818;stroke-width:1;"/><polygon fill="#181818" points="1505.77,327.6583,1496.3566,324.7621,1500.8058,328.2556,1497.3123,332.7048,1505.77,327.6583" style="stroke:#181818;stroke-width:1;"/><text fill="#000000" font-family="sans-serif" font-size="13" lengthAdjust="spacing" textLength="225.0688" x="1221.47" y="332.6966">core:hasValueExpressionAtAllTimes</text></g><!--link o3 to o8--><g class="link" data-entity-1="o3" data-entity-2="o8" data-source-line="80" data-uid="lnk31" id="link_o3_o8"><path codeLine="80" d="M1175.43,386.9783 C1268.47,386.9783 1395.7,386.9783 1501.56,386.9783" fill="none" id="o3-to-o8" style="stroke:#181818;stroke-width:1;"/><polygon fill="#181818" points="1507.56,386.9783,1498.56,382.9783,1502.56,386.9783,1498.56,390.9783,1507.56,386.9783" style="stroke:#181818;stroke-width:1;"/><text fill="#000000" font-family="sans-serif" font-size="13" lengthAdjust="spacing" textLength="225.0688" x="1221.47" y="383.5466">core:hasValueExpressionAtAllTimes</text></g><!--link o3 to o9--><g class="link" data-entity-1="o3" data-entity-2="o9" data-source-line="81" data-uid="lnk32" id="link_o3_o9"><path codeLine="81" d="M1175.53,404.8783 C1200.91,408.8883 1220.47,411.9783 1220.47,411.9783 C1220.47,411.9783 1355.423,428.2112 1480.773,443.3012" fill="none" id="o3-to-o9" style="stroke:#181818;stroke-width:1;"/><polygon fill="#181818" points="1486.73,444.0183,1478.2726,438.9713,1481.7658,443.4207,1477.3164,446.9139,1486.73,444.0183" style="stroke:#181818;stroke-width:1;"/><text fill="#000000" font-family="sans-serif" font-size="13" lengthAdjust="spacing" textLength="225.0688" x="1221.47" y="408.5466">core:hasValueExpressionAtAllTimes</text></g><!--link o3 to o10--><g class="link" data-entity-1="o3" data-entity-2="o10" data-source-line="82" data-uid="lnk33" id="link_o3_o10"><path codeLine="82" d="M1109.68,409.7783 C1156.3,432.1683 1220.47,462.9783 1220.47,462.9783 C1220.47,462.9783 1411.4488,498.074 1546.8088,522.944" fill="none" id="o3-to-o10" style="stroke:#181818;stroke-width:1;"/><polygon fill="#181818" points="1552.71,524.0283,1544.581,518.4678,1547.7923,523.1247,1543.1353,526.3361,1552.71,524.0283" style="stroke:#181818;stroke-width:1;"/><text fill="#000000" font-family="sans-serif" font-size="13" lengthAdjust="spacing" textLength="225.0688" x="1221.47" y="459.5466">core:hasValueExpressionAtAllTimes</text></g><!--link o1 to o11--><g class="link" data-entity-1="o1" data-entity-2="o11" data-source-line="83" data-uid="lnk34" id="link_o1_o11"><path codeLine="83" d="M566.87,724.2583 C607.19,690.7483 677.9,631.9783 677.9,631.9783 C677.9,631.9783 869.533,589.3705 980.623,564.6705" fill="none" id="o1-to-o11" style="stroke:#181818;stroke-width:1;"/><polygon fill="#181818" points="986.48,563.3683,976.8264,561.417,981.5992,564.4535,978.5627,569.2263,986.48,563.3683" style="stroke:#181818;stroke-width:1;"/><text fill="#000000" font-family="sans-serif" font-size="13" lengthAdjust="spacing" textLength="74.7246" x="752.9" y="580.9566">ex:joinedTo</text></g><!--link o11 to o12--><g class="link" data-entity-1="o11" data-entity-2="o12" data-source-line="84" data-uid="lnk35" id="link_o11_o12"><path codeLine="84" d="M1135.69,569.8983 C1164.36,578.8383 1190.47,586.9783 1190.47,586.9783 C1190.47,586.9783 1220.47,606.9783 1220.47,606.9783 C1220.47,606.9783 1441.1157,616.6364 1575.2457,622.4964" fill="none" id="o11-to-o12" style="stroke:#181818;stroke-width:1;"/><polygon fill="#181818" points="1581.24,622.7583,1572.4232,618.3693,1576.2448,622.54,1572.074,626.3616,1581.24,622.7583" style="stroke:#181818;stroke-width:1;"/><text fill="#000000" font-family="sans-serif" font-size="13" lengthAdjust="spacing" textLength="126.0771" x="1270.97" y="603.5466">cmns-dsg:hasName</text></g><!--link o1 to o13--><g class="link" data-entity-1="o1" data-entity-2="o13" data-source-line="85" data-uid="lnk36" id="link_o1_o13"><path codeLine="85" d="M600.62,724.0183 C637.69,710.0883 677.9,694.9783 677.9,694.9783 C677.9,694.9783 870.0228,660.8093 981.0228,641.0593" fill="none" id="o1-to-o13" style="stroke:#181818;stroke-width:1;"/><polygon fill="#181818" points="986.93,640.0083,977.3685,637.6467,982.0073,640.8842,978.7699,645.523,986.93,640.0083" style="stroke:#181818;stroke-width:1;"/><text fill="#000000" font-family="sans-serif" font-size="13" lengthAdjust="spacing" textLength="74.7246" x="752.9" y="653.4766">ex:joinedTo</text></g><!--link o13 to o14--><g class="link" data-entity-1="o13" data-entity-2="o14" data-source-line="86" data-uid="lnk37" id="link_o13_o14"><path codeLine="86" d="M1135.51,636.5083 C1246.82,650.9783 1452.58,677.725 1575.92,693.755" fill="none" id="o13-to-o14" style="stroke:#181818;stroke-width:1;"/><polygon fill="#181818" points="1581.87,694.5283,1573.4606,689.4017,1576.9117,693.8839,1572.4295,697.335,1581.87,694.5283" style="stroke:#181818;stroke-width:1;"/><text fill="#000000" font-family="sans-serif" font-size="13" lengthAdjust="spacing" textLength="126.0771" x="1270.97" y="645.0066">cmns-dsg:hasName</text></g><!--link o1 to o15--><g class="link" data-entity-1="o1" data-entity-2="o15" data-source-line="87" data-uid="lnk38" id="link_o1_o15"><path codeLine="87" d="M648.36,738.6183 C730.93,732.2783 838.7176,723.9981 925.7576,717.3081" fill="none" id="o1-to-o15" style="stroke:#181818;stroke-width:1;"/><polygon fill="#181818" points="931.74,716.8483,922.4599,713.5498,926.7547,717.2315,923.073,721.5262,931.74,716.8483" style="stroke:#181818;stroke-width:1;"/><text fill="#000000" font-family="sans-serif" font-size="13" lengthAdjust="spacing" textLength="107.6309" x="736.4" y="716.4866">core:hasFunction</text></g><!--link o1 to o16--><g class="link" data-entity-1="o1" data-entity-2="o16" data-source-line="88" data-uid="lnk39" id="link_o1_o16"><path codeLine="88" d="M648.22,757.9783 C665.55,759.7283 677.9,760.9783 677.9,760.9783 C677.9,760.9783 832.4138,771.4915 945.4238,779.1715" fill="none" id="o1-to-o16" style="stroke:#181818;stroke-width:1;"/><polygon fill="#181818" points="951.41,779.5783,942.7019,774.9773,946.4215,779.2393,942.1595,782.9589,951.41,779.5783" style="stroke:#181818;stroke-width:1;"/><text fill="#000000" font-family="sans-serif" font-size="13" lengthAdjust="spacing" textLength="171.3169" x="704.4" y="757.5466">core:measuresAtSomeTime</text></g><!--link o1 to o17--><g class="link" data-entity-1="o1" data-entity-2="o17" data-source-line="89" data-uid="lnk40" id="link_o1_o17"><path codeLine="89" d="M598.21,769.8783 C635.93,784.5983 677.9,800.9783 677.9,800.9783 C677.9,800.9783 854.7375,831.5071 967.5275,850.9871" fill="none" id="o1-to-o17" style="stroke:#181818;stroke-width:1;"/><polygon fill="#181818" points="973.44,852.0083,965.2521,846.5349,968.5129,851.1573,963.8905,854.4182,973.44,852.0083" style="stroke:#181818;stroke-width:1;"/><text fill="#000000" font-family="sans-serif" font-size="13" lengthAdjust="spacing" textLength="171.3169" x="704.4" y="797.5466">core:measuresAtSomeTime</text></g><!--link o1 to o18--><g class="link" data-entity-1="o1" data-entity-2="o18" data-source-line="90" data-uid="lnk41" id="link_o1_o18"><path codeLine="90" d="M566.87,769.8983 C607.19,803.7083 677.9,862.9783 677.9,862.9783 C677.9,862.9783 842.6098,899.1706 955.8798,924.0606" fill="none" id="o1-to-o18" style="stroke:#181818;stroke-width:1;"/><polygon fill="#181818" points="961.74,925.3483,953.8082,919.5099,956.8565,924.2752,952.0912,927.3235,961.74,925.3483" style="stroke:#181818;stroke-width:1;"/><text fill="#000000" font-family="sans-serif" font-size="13" lengthAdjust="spacing" textLength="171.3169" x="704.4" y="859.5466">core:measuresAtSomeTime</text></g><!--link o1 to o19--><g class="link" data-entity-1="o1" data-entity-2="o19" data-source-line="91" data-uid="lnk42" id="link_o1_o19"><path codeLine="91" d="M556.22,769.6583 C593.02,819.6583 677.9,934.9783 677.9,934.9783 C677.9,934.9783 848.1665,975.9546 961.3265,1003.1846" fill="none" id="o1-to-o19" style="stroke:#181818;stroke-width:1;"/><polygon fill="#181818" points="967.16,1004.5883,959.3456,998.5937,962.2988,1003.4185,957.474,1006.3717,967.16,1004.5883" style="stroke:#181818;stroke-width:1;"/><text fill="#000000" font-family="sans-serif" font-size="13" lengthAdjust="spacing" textLength="222.5425" x="678.9" y="931.5466">obo:has member part at some time</text></g><!--link o19 to o20--><g class="link" data-entity-1="o19" data-entity-2="o20" data-source-line="92" data-uid="lnk43" id="link_o19_o20"><path codeLine="92" d="M1154.99,1026.9783 C1263.79,1026.9783 1438.18,1026.9783 1555.99,1026.9783" fill="none" id="o19-to-o20" style="stroke:#181818;stroke-width:1;"/><polygon fill="#181818" points="1561.99,1026.9783,1552.99,1022.9783,1556.99,1026.9783,1552.99,1030.9783,1561.99,1026.9783" style="stroke:#181818;stroke-width:1;"/><text fill="#000000" font-family="sans-serif" font-size="13" lengthAdjust="spacing" textLength="126.0771" x="1270.97" y="1023.5466">cmns-dsg:hasName</text></g><!--link o1 to o21--><g class="link" data-entity-1="o1" data-entity-2="o21" data-source-line="93" data-uid="lnk44" id="link_o1_o21"><path codeLine="93" d="M551.32,769.5783 C584.79,833.6583 677.9,1011.9783 677.9,1011.9783 C677.9,1011.9783 860.027,1057.2415 972.357,1085.1515" fill="none" id="o1-to-o21" style="stroke:#181818;stroke-width:1;"/><polygon fill="#181818" points="978.18,1086.5983,970.4101,1080.5461,973.3275,1085.3926,968.481,1088.3101,978.18,1086.5983" style="stroke:#181818;stroke-width:1;"/><text fill="#000000" font-family="sans-serif" font-size="13" lengthAdjust="spacing" textLength="222.5425" x="678.9" y="1008.5466">obo:has member part at some time</text></g><!--link o21 to o22--><g class="link" data-entity-1="o21" data-entity-2="o22" data-source-line="94" data-uid="lnk45" id="link_o21_o22"><path codeLine="94" d="M1144.23,1106.9783 C1254.84,1106.9783 1445.87,1106.9783 1567.01,1106.9783" fill="none" id="o21-to-o22" style="stroke:#181818;stroke-width:1;"/><polygon fill="#181818" points="1573.01,1106.9783,1564.01,1102.9783,1568.01,1106.9783,1564.01,1110.9783,1573.01,1106.9783" style="stroke:#181818;stroke-width:1;"/><text fill="#000000" font-family="sans-serif" font-size="13" lengthAdjust="spacing" textLength="126.0771" x="1270.97" y="1103.5466">cmns-dsg:hasName</text></g><!--link o23 to o1--><g class="link" data-entity-1="o23" data-entity-2="o1" data-source-line="95" data-uid="lnk46" id="link_o23_o1"><path codeLine="95" d="M145.51,746.9783 C220.29,746.9783 335.12,746.9783 422.89,746.9783" fill="none" id="o23-to-o1" style="stroke:#181818;stroke-width:1;"/><polygon fill="#181818" points="428.89,746.9783,419.89,742.9783,423.89,746.9783,419.89,750.9783,428.89,746.9783" style="stroke:#181818;stroke-width:1;"/><text fill="#000000" font-family="sans-serif" font-size="13" lengthAdjust="spacing" textLength="222.5425" x="176.15" y="743.5466">obo:has member part at some time</text></g><!--SRC=[hPPTRzem58RlyokitgSh7oqGQPDIe5sb1Yf0bL1LJIOOS6l7cMqqqcd_VNO-JMXQid79EUzv_CRsEKQyuY247590S81a528GCXBf7nP1Amaa0nolDn8iCKU-n2om99O40G- -mLSxijZYHSN1sTFJ-PSqThwHb80bbD198y_FPm0Am1hWjmNYLRu2j7FkrJAGUqnZfv6GY5hWJquq0NO0AKeOJOFXqq3OIx5sHYfTMIj2v2UrBREMSUGCaC3hOAe4U8Lz67_VHnZxVZYwdNstHupY09A4sYvJ7o7Pek4kv4Y8pubtew4x-N4pdlI7jWTtc6vfmhqy8HS71VVglxYFm_jn_susjoVkmzrWtt7df6JJS_Sqv8V9-7RYUjwmPBntUhpfld5HWrzqqavP5FIWdP9mtbEbfffAllNbbbVrGr9jD5JZg8uo-ljzLz6-grOzLz61gtRjFbzjWtX2fO3BVGSFN2sWEjnFvaqVXd212PPH9Iza0ckf3PNphDaRPlVy39q15Y61Fg8ea9-IKaJd7n1gE8Q8Gxs5AQMxJvaLWefpi-SBI8ZmEVfrU7f6CZ_3tluENcU2IfC5mnpO5pNlbpsdJ3B-diSuaVbhbcw-fvFLtk9QqrUzUr-saxietNGF-XlzV6f60zZsD_raESK26oZYDPAedWKgCiKq9COyYCU3uirpHYjJQudFyG8jhzNhsqgoRODL6YskT0cPOOf4hhwifRwgfUxKKdThgNkrr6he7YLFDrZDKKUVtmjJfxUSCKj7aipxvvTbMmTrcO7sXtNcAToaewl8vhjE4HIgfuKhfumYxRaGTOuHTOyHwQrb2wQz08he0d6W_XTA02KGIWnaekwb5_hYeozhDew2DJDvHNjaktW4x2y0]--></g></svg>