<svg xmlns="http://www.w3.org/2000/svg" xmlns:xlink="http://www.w3.org/1999/xlink" contentStyleType="text/css" data-diagram-type="CLASS" height="1098px" preserveAspectRatio="none" style="width:1885px;height:1098px;background:#FFFFFF;" version="1.1" viewBox="0 0 1885 1098" width="1885px" zoomAndPan="magnify"><defs/><g><g class="entity" data-entity="o1" data-source-line="3" data-uid="ent0002" id="entity_o1"><rect fill="#F1F1F1" height="44.9766" rx="2.5" ry="2.5" style="stroke:#181818;stroke-width:0.5;" width="218.7529" x="429.15" y="687"/><a href="./Mazak-y.html" target="_top" title="./Mazak-y.html" xlink:actuate="onRequest" xlink:href="./Mazak-y.html" xlink:show="new" xlink:title="./Mazak-y.html" xlink:type="simple"><text fill="#0000FF" font-family="sans-serif" font-size="14" lengthAdjust="spacing" text-decoration="underline" textLength="93.085" x="491.984" y="702.5352">data:Mazak-y</text></a><line style="stroke:#181818;stroke-width:0.5;" x1="430.15" x2="646.9029" y1="707.4883" y2="707.4883"/><text fill="#000000" font-family="sans-serif" font-size="14" lengthAdjust="spacing" textLength="206.7529" x="435.15" y="725.0234">type = ex:LinearMotionSystem</text></g><g class="entity" data-entity="o2" data-source-line="6" data-uid="ent0003" id="entity_o2"><rect fill="#F1F1F1" height="61.4648" rx="2.5" ry="2.5" style="stroke:#181818;stroke-width:0.5;" width="254.8535" x="933.76" y="230.76"/><text fill="#000000" font-family="sans-serif" font-size="14" lengthAdjust="spacing" textLength="138.4756" x="991.949" y="246.2952">data:Mazak-y-name</text><line style="stroke:#181818;stroke-width:0.5;" x1="934.76" x2="1187.6135" y1="251.2483" y2="251.2483"/><text fill="#000000" font-family="sans-serif" font-size="14" lengthAdjust="spacing" textLength="161.3691" x="939.76" y="268.7834">type = cmns-dsg:Name</text><text fill="#000000" font-family="sans-serif" font-size="14" lengthAdjust="spacing" textLength="242.8535" x="939.76" y="285.2717">core:hasSimpleExpressionValue = Y</text></g><g class="entity" data-entity="o3" data-source-line="9" data-uid="ent0004" id="entity_o3"><rect fill="#F1F1F1" height="44.9766" rx="2.5" ry="2.5" style="stroke:#181818;stroke-width:0.5;" width="227.8037" x="947.28" y="327"/><text fill="#000000" font-family="sans-serif" font-size="14" lengthAdjust="spacing" textLength="132.1045" x="995.1296" y="342.5352">data:Mazak-y-spec</text><line style="stroke:#181818;stroke-width:0.5;" x1="948.28" x2="1174.0837" y1="347.4883" y2="347.4883"/><text fill="#000000" font-family="sans-serif" font-size="14" lengthAdjust="spacing" textLength="215.8037" x="953.28" y="365.0234">type = core:DesignSpecification</text></g><g class="entity" data-entity="o4" data-source-line="12" data-uid="ent0005" id="entity_o4"><rect fill="#F1F1F1" height="44.9766" rx="2.5" ry="2.5" style="stroke:#181818;stroke-width:0.5;" width="273.4854" x="1541.89" y="7"/><text fill="#000000" font-family="sans-serif" font-size="14" lengthAdjust="spacing" textLength="259.4854" x="1548.89" y="22.5352">data:Mazak-y-spec-LENGTH-Nominal</text><line style="stroke:#181818;stroke-width:0.5;" x1="1542.89" x2="1814.3754" y1="27.4883" y2="27.4883"/><text fill="#000000" font-family="sans-serif" font-size="14" lengthAdjust="spacing" textLength="194.4209" x="1547.89" y="45.0234">type = core:ValueExpression</text></g><g class="entity" data-entity="o5" data-source-line="15" data-uid="ent0006" id="entity_o5"><rect fill="#F1F1F1" height="44.9766" rx="2.5" ry="2.5" style="stroke:#181818;stroke-width:0.5;" width="329.0068" x="1514.13" y="87"/><text fill="#000000" font-family="sans-serif" font-size="14" lengthAdjust="spacing" textLength="315.0068" x="1521.13" y="102.5352">data:Mazak-y-spec-LINEAR_FORCE-Maximum</text><line style="stroke:#181818;stroke-width:0.5;" x1="1515.13" x2="1842.1368" y1="107.4883" y2="107.4883"/><text fill="#000000" font-family="sans-serif" font-size="14" lengthAdjust="spacing" textLength="194.4209" x="1520.13" y="125.0234">type = core:ValueExpression</text></g><g class="entity" data-entity="o6" data-source-line="18" data-uid="ent0007" id="entity_o6"><rect fill="#F1F1F1" height="44.9766" rx="2.5" ry="2.5" style="stroke:#181818;stroke-width:0.5;" width="325.4248" x="1515.92" y="167"/><text fill="#000000" font-family="sans-serif" font-size="14" lengthAdjust="spacing" textLength="311.4248" x="1522.92" y="182.5352">data:Mazak-y-spec-LINEAR_FORCE-Minimum</text><line style="stroke:#181818;stroke-width:0.5;" x1="1516.92" x2="1840.3448" y1="187.4883" y2="187.4883"/><text fill="#000000" font-family="sans-serif" font-size="14" lengthAdjust="spacing" textLength="194.4209" x="1521.92" y="205.0234">type = core:ValueExpression</text></g><g class="entity" data-entity="o7" data-source-line="21" data-uid="ent0008" id="entity_o7"><rect fill="#F1F1F1" height="44.9766" rx="2.5" ry="2.5" style="stroke:#181818;stroke-width:0.5;" width="344.8047" x="1506.23" y="247"/><text fill="#000000" font-family="sans-serif" font-size="14" lengthAdjust="spacing" textLength="330.8047" x="1513.23" y="262.5352">data:Mazak-y-spec-VELOCITY-RAPID-Maximum</text><line style="stroke:#181818;stroke-width:0.5;" x1="1507.23" x2="1850.0347" y1="267.4883" y2="267.4883"/><text fill="#000000" font-family="sans-serif" font-size="14" lengthAdjust="spacing" textLength="194.4209" x="1512.23" y="285.0234">type = core:ValueExpression</text></g><g class="entity" data-entity="o8" data-source-line="24" data-uid="ent0009" id="entity_o8"><rect fill="#F1F1F1" height="44.9766" rx="2.5" ry="2.5" style="stroke:#181818;stroke-width:0.5;" width="341.2227" x="1508.02" y="327"/><text fill="#000000" font-family="sans-serif" font-size="14" lengthAdjust="spacing" textLength="327.2227" x="1515.02" y="342.5352">data:Mazak-y-spec-VELOCITY-RAPID-Minimum</text><line style="stroke:#181818;stroke-width:0.5;" x1="1509.02" x2="1848.2427" y1="347.4883" y2="347.4883"/><text fill="#000000" font-family="sans-serif" font-size="14" lengthAdjust="spacing" textLength="194.4209" x="1514.02" y="365.0234">type = core:ValueExpression</text></g><g class="entity" data-entity="o9" data-source-line="27" data-uid="ent0010" id="entity_o9"><rect fill="#F1F1F1" height="44.9766" rx="2.5" ry="2.5" style="stroke:#181818;stroke-width:0.5;" width="402.3223" x="1477.47" y="407"/><text fill="#000000" font-family="sans-serif" font-size="14" lengthAdjust="spacing" textLength="388.3223" x="1484.47" y="422.5352">data:Mazak-y-spec-VELOCITY-PROGRAMMED-Maximum</text><line style="stroke:#181818;stroke-width:0.5;" x1="1478.47" x2="1878.7923" y1="427.4883" y2="427.4883"/><text fill="#000000" font-family="sans-serif" font-size="14" lengthAdjust="spacing" textLength="194.4209" x="1483.47" y="445.0234">type = core:ValueExpression</text></g><g class="entity" data-entity="o10" data-source-line="30" data-uid="ent0011" id="entity_o10"><rect fill="#F1F1F1" height="44.9766" rx="2.5" ry="2.5" style="stroke:#181818;stroke-width:0.5;" width="398.7402" x="1479.26" y="487"/><text fill="#000000" font-family="sans-serif" font-size="14" lengthAdjust="spacing" textLength="384.7402" x="1486.26" y="502.5352">data:Mazak-y-spec-VELOCITY-PROGRAMMED-Minimum</text><line style="stroke:#181818;stroke-width:0.5;" x1="1480.26" x2="1877.0002" y1="507.4883" y2="507.4883"/><text fill="#000000" font-family="sans-serif" font-size="14" lengthAdjust="spacing" textLength="194.4209" x="1485.26" y="525.0234">type = core:ValueExpression</text></g><g class="entity" data-entity="o11" data-source-line="33" data-uid="ent0012" id="entity_o11"><rect fill="#F1F1F1" height="44.9766" rx="2.5" ry="2.5" style="stroke:#181818;stroke-width:0.5;" width="148.9277" x="986.72" y="487"/><a href="./Mazak-xaxism.html" target="_top" title="./Mazak-xaxism.html" xlink:actuate="onRequest" xlink:href="./Mazak-xaxism.html" xlink:show="new" xlink:title="./Mazak-xaxism.html" xlink:type="simple"><text fill="#0000FF" font-family="sans-serif" font-size="14" lengthAdjust="spacing" text-decoration="underline" textLength="134.9277" x="993.72" y="502.5352">data:Mazak-xaxism</text></a><line style="stroke:#181818;stroke-width:0.5;" x1="987.72" x2="1134.6477" y1="507.4883" y2="507.4883"/><text fill="#000000" font-family="sans-serif" font-size="14" lengthAdjust="spacing" textLength="131.7832" x="992.72" y="525.0234">type = ex:Structure</text></g><g class="entity" data-entity="o12" data-source-line="36" data-uid="ent0013" id="entity_o12"><rect fill="#F1F1F1" height="44.9766" rx="2.5" ry="2.5" style="stroke:#181818;stroke-width:0.5;" width="194.3184" x="1581.47" y="567"/><text fill="#000000" font-family="sans-serif" font-size="14" lengthAdjust="spacing" textLength="180.3184" x="1588.47" y="582.5352">data:Mazak-xaxism-name</text><line style="stroke:#181818;stroke-width:0.5;" x1="1582.47" x2="1774.7884" y1="587.4883" y2="587.4883"/><text fill="#000000" font-family="sans-serif" font-size="14" lengthAdjust="spacing" textLength="161.3691" x="1587.47" y="605.0234">type = cmns-dsg:Name</text></g><g class="entity" data-entity="o13" data-source-line="39" data-uid="ent0014" id="entity_o13"><rect fill="#F1F1F1" height="44.9766" rx="2.5" ry="2.5" style="stroke:#181818;stroke-width:0.5;" width="147.6563" x="987.36" y="567"/><a href="./Mazak-yaxism.html" target="_top" title="./Mazak-yaxism.html" xlink:actuate="onRequest" xlink:href="./Mazak-yaxism.html" xlink:show="new" xlink:title="./Mazak-yaxism.html" xlink:type="simple"><text fill="#0000FF" font-family="sans-serif" font-size="14" lengthAdjust="spacing" text-decoration="underline" textLength="133.6563" x="994.36" y="582.5352">data:Mazak-yaxism</text></a><line style="stroke:#181818;stroke-width:0.5;" x1="988.36" x2="1134.0163" y1="587.4883" y2="587.4883"/><text fill="#000000" font-family="sans-serif" font-size="14" lengthAdjust="spacing" textLength="131.7832" x="993.36" y="605.0234">type = ex:Structure</text></g><g class="entity" data-entity="o14" data-source-line="42" data-uid="ent0015" id="entity_o14"><rect fill="#F1F1F1" height="44.9766" rx="2.5" ry="2.5" style="stroke:#181818;stroke-width:0.5;" width="193.0469" x="1582.11" y="647"/><text fill="#000000" font-family="sans-serif" font-size="14" lengthAdjust="spacing" textLength="179.0469" x="1589.11" y="662.5352">data:Mazak-yaxism-name</text><line style="stroke:#181818;stroke-width:0.5;" x1="1583.11" x2="1774.1569" y1="667.4883" y2="667.4883"/><text fill="#000000" font-family="sans-serif" font-size="14" lengthAdjust="spacing" textLength="161.3691" x="1588.11" y="685.0234">type = cmns-dsg:Name</text></g><g class="entity" data-entity="o15" data-source-line="45" data-uid="ent0016" id="entity_o15"><rect fill="#F1F1F1" height="44.9766" rx="2.5" ry="2.5" style="stroke:#181818;stroke-width:0.5;" width="258.5654" x="931.9" y="647"/><text fill="#000000" font-family="sans-serif" font-size="14" lengthAdjust="spacing" textLength="157.4521" x="982.4566" y="662.5352">data:Mazak-y-function</text><line style="stroke:#181818;stroke-width:0.5;" x1="932.9" x2="1189.4654" y1="667.4883" y2="667.4883"/><text fill="#000000" font-family="sans-serif" font-size="14" lengthAdjust="spacing" textLength="246.5654" x="937.9" y="685.0234">type = ex:PrismaticMotionCapability</text></g><g class="entity" data-entity="o16" data-source-line="48" data-uid="ent0017" id="entity_o16"><rect fill="#F1F1F1" height="44.9766" rx="2.5" ry="2.5" style="stroke:#181818;stroke-width:0.5;" width="219.0576" x="951.66" y="727"/><text fill="#000000" font-family="sans-serif" font-size="14" lengthAdjust="spacing" textLength="205.0576" x="958.66" y="742.5352">data:Mazak-y-position-actual</text><line style="stroke:#181818;stroke-width:0.5;" x1="952.66" x2="1169.7176" y1="747.4883" y2="747.4883"/><text fill="#000000" font-family="sans-serif" font-size="14" lengthAdjust="spacing" textLength="163.2285" x="957.66" y="765.0234">type = qp:Displacement</text></g><g class="entity" data-entity="o17" data-source-line="51" data-uid="ent0018" id="entity_o17"><rect fill="#F1F1F1" height="44.9766" rx="2.5" ry="2.5" style="stroke:#181818;stroke-width:0.5;" width="175.2285" x="973.57" y="807"/><text fill="#000000" font-family="sans-serif" font-size="14" lengthAdjust="spacing" textLength="156.3516" x="983.0085" y="822.5352">data:Mazak-y-position</text><line style="stroke:#181818;stroke-width:0.5;" x1="974.57" x2="1147.7985" y1="827.4883" y2="827.4883"/><text fill="#000000" font-family="sans-serif" font-size="14" lengthAdjust="spacing" textLength="163.2285" x="979.57" y="845.0234">type = qp:Displacement</text></g><g class="entity" data-entity="o18" data-source-line="54" data-uid="ent0019" id="entity_o18"><rect fill="#F1F1F1" height="44.9766" rx="2.5" ry="2.5" style="stroke:#181818;stroke-width:0.5;" width="198.8164" x="961.78" y="887"/><text fill="#000000" font-family="sans-serif" font-size="14" lengthAdjust="spacing" textLength="184.8164" x="968.78" y="902.5352">data:Mazak-y-temperature</text><line style="stroke:#181818;stroke-width:0.5;" x1="962.78" x2="1159.5964" y1="907.4883" y2="907.4883"/><text fill="#000000" font-family="sans-serif" font-size="14" lengthAdjust="spacing" textLength="158.4502" x="967.78" y="925.0234">type = qp:Temperature</text></g><g class="entity" data-entity="o19" data-source-line="57" data-uid="ent0020" id="entity_o19"><rect fill="#F1F1F1" height="44.9766" rx="2.5" ry="2.5" style="stroke:#181818;stroke-width:0.5;" width="187.168" x="967.6" y="967"/><a href="./Mazak-y-Yballscrew.html" target="_top" title="./Mazak-y-Yballscrew.html" xlink:actuate="onRequest" xlink:href="./Mazak-y-Yballscrew.html" xlink:show="new" xlink:title="./Mazak-y-Yballscrew.html" xlink:type="simple"><text fill="#0000FF" font-family="sans-serif" font-size="14" lengthAdjust="spacing" text-decoration="underline" textLength="173.168" x="974.6" y="982.5352">data:Mazak-y-Yballscrew</text></a><line style="stroke:#181818;stroke-width:0.5;" x1="968.6" x2="1153.768" y1="987.4883" y2="987.4883"/><text fill="#000000" font-family="sans-serif" font-size="14" lengthAdjust="spacing" textLength="132.4668" x="973.6" y="1005.0234">type = ex:Ballscrew</text></g><g class="entity" data-entity="o20" data-source-line="60" data-uid="ent0021" id="entity_o20"><rect fill="#F1F1F1" height="44.9766" rx="2.5" ry="2.5" style="stroke:#181818;stroke-width:0.5;" width="232.5586" x="1562.35" y="967"/><text fill="#000000" font-family="sans-serif" font-size="14" lengthAdjust="spacing" textLength="218.5586" x="1569.35" y="982.5352">data:Mazak-y-Yballscrew-name</text><line style="stroke:#181818;stroke-width:0.5;" x1="1563.35" x2="1793.9086" y1="987.4883" y2="987.4883"/><text fill="#000000" font-family="sans-serif" font-size="14" lengthAdjust="spacing" textLength="161.3691" x="1568.35" y="1005.0234">type = cmns-dsg:Name</text></g><g class="entity" data-entity="o21" data-source-line="63" data-uid="ent0022" id="entity_o21"><rect fill="#F1F1F1" height="44.9766" rx="2.5" ry="2.5" style="stroke:#181818;stroke-width:0.5;" width="165.1426" x="978.61" y="1047"/><a href="./Mazak-y-Ymotor.html" target="_top" title="./Mazak-y-Ymotor.html" xlink:actuate="onRequest" xlink:href="./Mazak-y-Ymotor.html" xlink:show="new" xlink:title="./Mazak-y-Ymotor.html" xlink:type="simple"><text fill="#0000FF" font-family="sans-serif" font-size="14" lengthAdjust="spacing" text-decoration="underline" textLength="151.1426" x="985.61" y="1062.5352">data:Mazak-y-Ymotor</text></a><line style="stroke:#181818;stroke-width:0.5;" x1="979.61" x2="1142.7526" y1="1067.4883" y2="1067.4883"/><text fill="#000000" font-family="sans-serif" font-size="14" lengthAdjust="spacing" textLength="110.1885" x="984.61" y="1085.0234">type = ex:Motor</text></g><g class="entity" data-entity="o22" data-source-line="66" data-uid="ent0023" id="entity_o22"><rect fill="#F1F1F1" height="44.9766" rx="2.5" ry="2.5" style="stroke:#181818;stroke-width:0.5;" width="210.5332" x="1573.36" y="1047"/><text fill="#000000" font-family="sans-serif" font-size="14" lengthAdjust="spacing" textLength="196.5332" x="1580.36" y="1062.5352">data:Mazak-y-Ymotor-name</text><line style="stroke:#181818;stroke-width:0.5;" x1="1574.36" x2="1782.8932" y1="1067.4883" y2="1067.4883"/><text fill="#000000" font-family="sans-serif" font-size="14" lengthAdjust="spacing" textLength="161.3691" x="1579.36" y="1085.0234">type = cmns-dsg:Name</text></g><g class="entity" data-entity="o23" data-source-line="69" data-uid="ent0024" id="entity_o23"><rect fill="#F1F1F1" height="44.9766" rx="2.5" ry="2.5" style="stroke:#181818;stroke-width:0.5;" width="138.1504" x="7" y="687"/><a href="./Mazak.html" target="_top" title="./Mazak.html" xlink:actuate="onRequest" xlink:href="./Mazak.html" xlink:show="new" xlink:title="./Mazak.html" xlink:type="simple"><text fill="#0000FF" font-family="sans-serif" font-size="14" lengthAdjust="spacing" text-decoration="underline" textLength="77.6699" x="37.2402" y="702.5352">data:Mazak</text></a><line style="stroke:#181818;stroke-width:0.5;" x1="8" x2="144.1504" y1="707.4883" y2="707.4883"/><text fill="#000000" font-family="sans-serif" font-size="14" lengthAdjust="spacing" textLength="126.1504" x="13" y="725.0234">type = ex:Machine</text></g><!--link o1 to o2--><g class="link" data-entity-1="o1" data-entity-2="o2" data-source-line="72" data-uid="lnk25" id="link_o1_o2"><path codeLine="72" d="M549.81,686.52 C581.88,614.91 677.9,400.49 677.9,400.49 C677.9,400.49 856.0412,335.7202 968.7512,294.7402" fill="none" id="o1-to-o2" style="stroke:#181818;stroke-width:1;"/><polygon fill="#181818" points="974.39,292.69,964.5649,292.0061,969.691,294.3985,967.2985,299.5246,974.39,292.69" style="stroke:#181818;stroke-width:1;"/><text fill="#000000" font-family="sans-serif" font-size="13" lengthAdjust="spacing" textLength="126.0771" x="726.9" y="319.2384">cmns-dsg:hasName</text></g><!--link o1 to o3--><g class="link" data-entity-1="o1" data-entity-2="o3" data-source-line="74" data-uid="lnk26" id="link_o1_o3"><path codeLine="74" d="M556.22,686.81 C593.02,636.81 677.9,521.49 677.9,521.49 C677.9,521.49 899.9584,421.5819 1003.9484,374.7919" fill="none" id="o1-to-o3" style="stroke:#181818;stroke-width:1;"/><polygon fill="#181818" points="1009.42,372.33,999.5712,372.3752,1004.8603,374.3816,1002.8538,379.6707,1009.42,372.33" style="stroke:#181818;stroke-width:1;"/><text fill="#000000" font-family="sans-serif" font-size="13" lengthAdjust="spacing" textLength="112.3027" x="733.9" y="421.7584">core:prescribedBy</text></g><!--link o3 to o4--><g class="link" data-entity-1="o3" data-entity-2="o4" data-source-line="75" data-uid="lnk27" id="link_o3_o4"><path codeLine="75" d="M1135.69,326.57 C1164.36,317.63 1190.47,309.49 1190.47,309.49 C1190.47,309.49 1220.47,131.49 1220.47,131.49 C1220.47,131.49 1477.47,69.49 1477.47,69.49 C1477.47,69.49 1512.1562,62.5552 1556.7662,53.6452" fill="none" id="o3-to-o4" style="stroke:#181818;stroke-width:1;"/><polygon fill="#181818" points="1562.65,52.47,1553.0409,50.3102,1557.7468,53.4493,1554.6078,58.1553,1562.65,52.47" style="stroke:#181818;stroke-width:1;"/><text fill="#000000" font-family="sans-serif" font-size="13" lengthAdjust="spacing" textLength="225.0688" x="1221.47" y="73.7384">core:hasValueExpressionAtAllTimes</text></g><!--link o3 to o5--><g class="link" data-entity-1="o3" data-entity-2="o5" data-source-line="76" data-uid="lnk28" id="link_o3_o5"><path codeLine="76" d="M1135.69,326.57 C1164.36,317.63 1190.47,309.49 1190.47,309.49 C1190.47,309.49 1220.47,209.49 1220.47,209.49 C1220.47,209.49 1477.47,149.49 1477.47,149.49 C1477.47,149.49 1512.1562,142.5552 1556.7662,133.6452" fill="none" id="o3-to-o5" style="stroke:#181818;stroke-width:1;"/><polygon fill="#181818" points="1562.65,132.47,1553.0409,130.3102,1557.7468,133.4493,1554.6078,138.1553,1562.65,132.47" style="stroke:#181818;stroke-width:1;"/><text fill="#000000" font-family="sans-serif" font-size="13" lengthAdjust="spacing" textLength="225.0688" x="1221.47" y="153.4984">core:hasValueExpressionAtAllTimes</text></g><!--link o3 to o6--><g class="link" data-entity-1="o3" data-entity-2="o6" data-source-line="77" data-uid="lnk29" id="link_o3_o6"><path codeLine="77" d="M1135.69,326.57 C1164.36,317.63 1190.47,309.49 1190.47,309.49 C1190.47,309.49 1220.47,273.49 1220.47,273.49 C1220.47,273.49 1411.4488,238.4042 1546.8088,213.5342" fill="none" id="o3-to-o6" style="stroke:#181818;stroke-width:1;"/><polygon fill="#181818" points="1552.71,212.45,1543.1353,210.1422,1547.7923,213.3535,1544.581,218.0105,1552.71,212.45" style="stroke:#181818;stroke-width:1;"/><text fill="#000000" font-family="sans-serif" font-size="13" lengthAdjust="spacing" textLength="225.0688" x="1221.47" y="230.5784">core:hasValueExpressionAtAllTimes</text></g><!--link o3 to o7--><g class="link" data-entity-1="o3" data-entity-2="o7" data-source-line="78" data-uid="lnk30" id="link_o3_o7"><path codeLine="78" d="M1175.53,331.59 C1200.91,327.58 1220.47,324.49 1220.47,324.49 C1220.47,324.49 1370.163,306.4868 1499.813,290.8868" fill="none" id="o3-to-o7" style="stroke:#181818;stroke-width:1;"/><polygon fill="#181818" points="1505.77,290.17,1496.3566,287.2738,1500.8058,290.7673,1497.3123,295.2165,1505.77,290.17" style="stroke:#181818;stroke-width:1;"/><text fill="#000000" font-family="sans-serif" font-size="13" lengthAdjust="spacing" textLength="225.0688" x="1221.47" y="295.2084">core:hasValueExpressionAtAllTimes</text></g><!--link o3 to o8--><g class="link" data-entity-1="o3" data-entity-2="o8" data-source-line="79" data-uid="lnk31" id="link_o3_o8"><path codeLine="79" d="M1175.43,349.49 C1268.47,349.49 1395.7,349.49 1501.56,349.49" fill="none" id="o3-to-o8" style="stroke:#181818;stroke-width:1;"/><polygon fill="#181818" points="1507.56,349.49,1498.56,345.49,1502.56,349.49,1498.56,353.49,1507.56,349.49" style="stroke:#181818;stroke-width:1;"/><text fill="#000000" font-family="sans-serif" font-size="13" lengthAdjust="spacing" textLength="225.0688" x="1221.47" y="346.0584">core:hasValueExpressionAtAllTimes</text></g><!--link o3 to o9--><g class="link" data-entity-1="o3" data-entity-2="o9" data-source-line="80" data-uid="lnk32" id="link_o3_o9"><path codeLine="80" d="M1175.53,367.39 C1200.91,371.4 1220.47,374.49 1220.47,374.49 C1220.47,374.49 1355.423,390.7229 1480.773,405.8129" fill="none" id="o3-to-o9" style="stroke:#181818;stroke-width:1;"/><polygon fill="#181818" points="1486.73,406.53,1478.2726,401.483,1481.7658,405.9324,1477.3164,409.4256,1486.73,406.53" style="stroke:#181818;stroke-width:1;"/><text fill="#000000" font-family="sans-serif" font-size="13" lengthAdjust="spacing" textLength="225.0688" x="1221.47" y="371.0584">core:hasValueExpressionAtAllTimes</text></g><!--link o3 to o10--><g class="link" data-entity-1="o3" data-entity-2="o10" data-source-line="81" data-uid="lnk33" id="link_o3_o10"><path codeLine="81" d="M1109.68,372.29 C1156.3,394.68 1220.47,425.49 1220.47,425.49 C1220.47,425.49 1411.4488,460.5858 1546.8088,485.4558" fill="none" id="o3-to-o10" style="stroke:#181818;stroke-width:1;"/><polygon fill="#181818" points="1552.71,486.54,1544.581,480.9795,1547.7923,485.6365,1543.1353,488.8478,1552.71,486.54" style="stroke:#181818;stroke-width:1;"/><text fill="#000000" font-family="sans-serif" font-size="13" lengthAdjust="spacing" textLength="225.0688" x="1221.47" y="422.0584">core:hasValueExpressionAtAllTimes</text></g><!--link o1 to o11--><g class="link" data-entity-1="o1" data-entity-2="o11" data-source-line="82" data-uid="lnk34" id="link_o1_o11"><path codeLine="82" d="M566.87,686.77 C607.19,653.26 677.9,594.49 677.9,594.49 C677.9,594.49 869.533,551.8823 980.623,527.1823" fill="none" id="o1-to-o11" style="stroke:#181818;stroke-width:1;"/><polygon fill="#181818" points="986.48,525.88,976.8264,523.9287,981.5992,526.9652,978.5627,531.738,986.48,525.88" style="stroke:#181818;stroke-width:1;"/><text fill="#000000" font-family="sans-serif" font-size="13" lengthAdjust="spacing" textLength="74.7246" x="752.9" y="543.4684">ex:joinedTo</text></g><!--link o11 to o12--><g class="link" data-entity-1="o11" data-entity-2="o12" data-source-line="83" data-uid="lnk35" id="link_o11_o12"><path codeLine="83" d="M1135.69,532.41 C1164.36,541.35 1190.47,549.49 1190.47,549.49 C1190.47,549.49 1220.47,569.49 1220.47,569.49 C1220.47,569.49 1441.1157,579.1481 1575.2457,585.0081" fill="none" id="o11-to-o12" style="stroke:#181818;stroke-width:1;"/><polygon fill="#181818" points="1581.24,585.27,1572.4232,580.881,1576.2448,585.0518,1572.074,588.8734,1581.24,585.27" style="stroke:#181818;stroke-width:1;"/><text fill="#000000" font-family="sans-serif" font-size="13" lengthAdjust="spacing" textLength="126.0771" x="1270.97" y="566.0584">cmns-dsg:hasName</text></g><!--link o1 to o13--><g class="link" data-entity-1="o1" data-entity-2="o13" data-source-line="84" data-uid="lnk36" id="link_o1_o13"><path codeLine="84" d="M600.62,686.53 C637.69,672.6 677.9,657.49 677.9,657.49 C677.9,657.49 870.0228,623.3211 981.0228,603.5711" fill="none" id="o1-to-o13" style="stroke:#181818;stroke-width:1;"/><polygon fill="#181818" points="986.93,602.52,977.3685,600.1584,982.0073,603.3959,978.7699,608.0347,986.93,602.52" style="stroke:#181818;stroke-width:1;"/><text fill="#000000" font-family="sans-serif" font-size="13" lengthAdjust="spacing" textLength="74.7246" x="752.9" y="615.9884">ex:joinedTo</text></g><!--link o13 to o14--><g class="link" data-entity-1="o13" data-entity-2="o14" data-source-line="85" data-uid="lnk37" id="link_o13_o14"><path codeLine="85" d="M1135.51,599.02 C1246.82,613.49 1452.58,640.2367 1575.92,656.2667" fill="none" id="o13-to-o14" style="stroke:#181818;stroke-width:1;"/><polygon fill="#181818" points="1581.87,657.04,1573.4606,651.9134,1576.9117,656.3956,1572.4295,659.8467,1581.87,657.04" style="stroke:#181818;stroke-width:1;"/><text fill="#000000" font-family="sans-serif" font-size="13" lengthAdjust="spacing" textLength="126.0771" x="1270.97" y="607.5184">cmns-dsg:hasName</text></g><!--link o1 to o15--><g class="link" data-entity-1="o1" data-entity-2="o15" data-source-line="86" data-uid="lnk38" id="link_o1_o15"><path codeLine="86" d="M648.36,701.13 C730.93,694.79 838.7176,686.5098 925.7576,679.8198" fill="none" id="o1-to-o15" style="stroke:#181818;stroke-width:1;"/><polygon fill="#181818" points="931.74,679.36,922.4599,676.0615,926.7547,679.7432,923.073,684.038,931.74,679.36" style="stroke:#181818;stroke-width:1;"/><text fill="#000000" font-family="sans-serif" font-size="13" lengthAdjust="spacing" textLength="107.6309" x="736.4" y="678.9984">core:hasFunction</text></g><!--link o1 to o16--><g class="link" data-entity-1="o1" data-entity-2="o16" data-source-line="87" data-uid="lnk39" id="link_o1_o16"><path codeLine="87" d="M648.22,720.49 C665.55,722.24 677.9,723.49 677.9,723.49 C677.9,723.49 832.4138,734.0032 945.4238,741.6832" fill="none" id="o1-to-o16" style="stroke:#181818;stroke-width:1;"/><polygon fill="#181818" points="951.41,742.09,942.7019,737.489,946.4215,741.751,942.1595,745.4706,951.41,742.09" style="stroke:#181818;stroke-width:1;"/><text fill="#000000" font-family="sans-serif" font-size="13" lengthAdjust="spacing" textLength="171.3169" x="704.4" y="720.0584">core:measuresAtSomeTime</text></g><!--link o1 to o17--><g class="link" data-entity-1="o1" data-entity-2="o17" data-source-line="88" data-uid="lnk40" id="link_o1_o17"><path codeLine="88" d="M598.21,732.39 C635.93,747.11 677.9,763.49 677.9,763.49 C677.9,763.49 854.7375,794.0189 967.5275,813.4989" fill="none" id="o1-to-o17" style="stroke:#181818;stroke-width:1;"/><polygon fill="#181818" points="973.44,814.52,965.2521,809.0466,968.5129,813.669,963.8905,816.9299,973.44,814.52" style="stroke:#181818;stroke-width:1;"/><text fill="#000000" font-family="sans-serif" font-size="13" lengthAdjust="spacing" textLength="171.3169" x="704.4" y="760.0584">core:measuresAtSomeTime</text></g><!--link o1 to o18--><g class="link" data-entity-1="o1" data-entity-2="o18" data-source-line="89" data-uid="lnk41" id="link_o1_o18"><path codeLine="89" d="M566.87,732.41 C607.19,766.22 677.9,825.49 677.9,825.49 C677.9,825.49 842.6098,861.6823 955.8798,886.5723" fill="none" id="o1-to-o18" style="stroke:#181818;stroke-width:1;"/><polygon fill="#181818" points="961.74,887.86,953.8082,882.0216,956.8565,886.7869,952.0912,889.8352,961.74,887.86" style="stroke:#181818;stroke-width:1;"/><text fill="#000000" font-family="sans-serif" font-size="13" lengthAdjust="spacing" textLength="171.3169" x="704.4" y="822.0584">core:measuresAtSomeTime</text></g><!--link o1 to o19--><g class="link" data-entity-1="o1" data-entity-2="o19" data-source-line="90" data-uid="lnk42" id="link_o1_o19"><path codeLine="90" d="M556.22,732.17 C593.02,782.17 677.9,897.49 677.9,897.49 C677.9,897.49 848.1665,938.4663 961.3265,965.6963" fill="none" id="o1-to-o19" style="stroke:#181818;stroke-width:1;"/><polygon fill="#181818" points="967.16,967.1,959.3456,961.1054,962.2988,965.9302,957.474,968.8834,967.16,967.1" style="stroke:#181818;stroke-width:1;"/><text fill="#000000" font-family="sans-serif" font-size="13" lengthAdjust="spacing" textLength="222.5425" x="678.9" y="894.0584">obo:has member part at some time</text></g><!--link o19 to o20--><g class="link" data-entity-1="o19" data-entity-2="o20" data-source-line="91" data-uid="lnk43" id="link_o19_o20"><path codeLine="91" d="M1154.99,989.49 C1263.79,989.49 1438.18,989.49 1555.99,989.49" fill="none" id="o19-to-o20" style="stroke:#181818;stroke-width:1;"/><polygon fill="#181818" points="1561.99,989.49,1552.99,985.49,1556.99,989.49,1552.99,993.49,1561.99,989.49" style="stroke:#181818;stroke-width:1;"/><text fill="#000000" font-family="sans-serif" font-size="13" lengthAdjust="spacing" textLength="126.0771" x="1270.97" y="986.0584">cmns-dsg:hasName</text></g><!--link o1 to o21--><g class="link" data-entity-1="o1" data-entity-2="o21" data-source-line="92" data-uid="lnk44" id="link_o1_o21"><path codeLine="92" d="M551.32,732.09 C584.79,796.17 677.9,974.49 677.9,974.49 C677.9,974.49 860.027,1019.7532 972.357,1047.6632" fill="none" id="o1-to-o21" style="stroke:#181818;stroke-width:1;"/><polygon fill="#181818" points="978.18,1049.11,970.4101,1043.0578,973.3275,1047.9043,968.481,1050.8218,978.18,1049.11" style="stroke:#181818;stroke-width:1;"/><text fill="#000000" font-family="sans-serif" font-size="13" lengthAdjust="spacing" textLength="222.5425" x="678.9" y="971.0584">obo:has member part at some time</text></g><!--link o21 to o22--><g class="link" data-entity-1="o21" data-entity-2="o22" data-source-line="93" data-uid="lnk45" id="link_o21_o22"><path codeLine="93" d="M1144.23,1069.49 C1254.84,1069.49 1445.87,1069.49 1567.01,1069.49" fill="none" id="o21-to-o22" style="stroke:#181818;stroke-width:1;"/><polygon fill="#181818" points="1573.01,1069.49,1564.01,1065.49,1568.01,1069.49,1564.01,1073.49,1573.01,1069.49" style="stroke:#181818;stroke-width:1;"/><text fill="#000000" font-family="sans-serif" font-size="13" lengthAdjust="spacing" textLength="126.0771" x="1270.97" y="1066.0584">cmns-dsg:hasName</text></g><!--link o23 to o1--><g class="link" data-entity-1="o23" data-entity-2="o1" data-source-line="94" data-uid="lnk46" id="link_o23_o1"><path codeLine="94" d="M145.51,709.49 C220.29,709.49 335.12,709.49 422.89,709.49" fill="none" id="o23-to-o1" style="stroke:#181818;stroke-width:1;"/><polygon fill="#181818" points="428.89,709.49,419.89,705.49,423.89,709.49,419.89,713.49,428.89,709.49" style="stroke:#181818;stroke-width:1;"/><text fill="#000000" font-family="sans-serif" font-size="13" lengthAdjust="spacing" textLength="222.5425" x="176.15" y="706.0584">obo:has member part at some time</text></g><!--SRC=[hPPTRzem58Rl-HLMxzELhmAHDecsj4CYW01LGbKrcU0MjtQSsKOZdVRVP-VJ14AJZJlmUVtanSVl2U8TUpxaa0A2FIG37m6VaK1_gH7q8e5aWEFNZGHhp94hCVDgRFMcFe6BfwVBBmxyWEzMSBcHb80rbD2ELvwVBm0KWDN1xne8kLy1sjaZ1ORSOHeq3uH4j0R-f4GJO7cGeeZHC1WkzOIr5g_sM9KBzmeVkT7UfhcNSMJV8O5VlRaIu1Viml0NdS9Oey7uOV7T6ZEAFKWYQYjFVOHaYmOxdoCXFYSEnuF-xCVzP7Oxi1oumtHB8sxxZ5piPTph_-8-3aQJs-5YQStwq-7TlkFEMSccv-vvoDFPv67MTvn1pdZl_7ZJVVsg0ZzBqavP5FGWJj5ocgbSgEQIRrsvvKLvY7ORWQgNIfIHx-EkWdrNpMgkWWDNhSevVzbwuKoA0Urz1rEk7g0IxaRpvXRwS8K9ba4XpsS2Qwa5bVCax7KpFJzz-muBdq0NKUJ9JqanelCF23KSVSIXFiAOqjsdB391GT-ivGeI8boEVXrspoYcFUpjd-1D8YWqcJ7CWNrLyNvPIyeauySyXeN4NoDtynrTBFOMxZLzLRltUJkfYznDTw2xqIzCpQW3o_gcNrbsze0D5E4pebKz2zJA75EV6FCW70-AjqmPpKIj9Ix7AxI-2MfgEQos35PkjFHbdv05faYawdObzNKbTQUIkbj9tQkaLaEtb3m-O3L7RTs_DwQwjrwmcbw9AiVxbrIR1_iI0wsJ-ymktCUZAwkcfquH52hJeY_dZ2BjEHDroeYwPKJwQDcAQI-08hf27AX_WX902OGI0ncfU_65lZhronhrKh168Y-8HtAA9M1_0G00]--></g></svg>