<svg xmlns="http://www.w3.org/2000/svg" xmlns:xlink="http://www.w3.org/1999/xlink" contentStyleType="text/css" data-diagram-type="CLASS" height="816px" preserveAspectRatio="none" style="width:1775px;height:816px;background:#FFFFFF;" version="1.1" viewBox="0 0 1775 816" width="1775px" zoomAndPan="magnify"><title>Mazak-br</title><defs/><g><text fill="#000000" font-family="sans-serif" font-size="14" font-weight="bold" lengthAdjust="spacing" textLength="70.8818" x="845.2382" y="23.5352">Mazak-br</text><g class="entity" data-entity="o1" data-source-line="4" data-uid="ent0002" id="entity_o1"><rect fill="#F1F1F1" height="44.9766" rx="2.5" ry="2.5" style="stroke:#181818;stroke-width:0.5;" width="220.7559" x="429.15" y="484.4883"/><a href="./Mazak-br.html" target="_top" title="./Mazak-br.html" xlink:actuate="onRequest" xlink:href="./Mazak-br.html" xlink:show="new" xlink:title="./Mazak-br.html" xlink:type="simple"><text fill="#0000FF" font-family="sans-serif" font-size="14" lengthAdjust="spacing" text-decoration="underline" textLength="100.3105" x="489.3727" y="500.0234">data:Mazak-br</text></a><line style="stroke:#181818;stroke-width:0.5;" x1="430.15" x2="648.9059" y1="504.9766" y2="504.9766"/><text fill="#000000" font-family="sans-serif" font-size="14" lengthAdjust="spacing" textLength="208.7559" x="435.15" y="522.5117">type = ex:RotaryMotionSystem</text></g><g class="entity" data-entity="o2" data-source-line="7" data-uid="ent0003" id="entity_o2"><rect fill="#F1F1F1" height="61.4648" rx="2.5" ry="2.5" style="stroke:#181818;stroke-width:0.5;" width="254.1836" x="934.28" y="138.2483"/><text fill="#000000" font-family="sans-serif" font-size="14" lengthAdjust="spacing" textLength="145.7012" x="988.5212" y="153.7834">data:Mazak-br-name</text><line style="stroke:#181818;stroke-width:0.5;" x1="935.28" x2="1187.4636" y1="158.7366" y2="158.7366"/><text fill="#000000" font-family="sans-serif" font-size="14" lengthAdjust="spacing" textLength="161.3691" x="940.28" y="176.2717">type = cmns-dsg:Name</text><text fill="#000000" font-family="sans-serif" font-size="14" lengthAdjust="spacing" textLength="242.1836" x="940.28" y="192.76">core:hasSimpleExpressionValue = B</text></g><g class="entity" data-entity="o3" data-source-line="10" data-uid="ent0004" id="entity_o3"><rect fill="#F1F1F1" height="44.9766" rx="2.5" ry="2.5" style="stroke:#181818;stroke-width:0.5;" width="227.8037" x="947.47" y="234.4883"/><text fill="#000000" font-family="sans-serif" font-size="14" lengthAdjust="spacing" textLength="139.3301" x="991.7068" y="250.0234">data:Mazak-br-spec</text><line style="stroke:#181818;stroke-width:0.5;" x1="948.47" x2="1174.2737" y1="254.9766" y2="254.9766"/><text fill="#000000" font-family="sans-serif" font-size="14" lengthAdjust="spacing" textLength="215.8037" x="953.47" y="272.5117">type = core:DesignSpecification</text></g><g class="entity" data-entity="o4" data-source-line="13" data-uid="ent0005" id="entity_o4"><rect fill="#F1F1F1" height="44.9766" rx="2.5" ry="2.5" style="stroke:#181818;stroke-width:0.5;" width="281.9551" x="1481.62" y="44.4883"/><text fill="#000000" font-family="sans-serif" font-size="14" lengthAdjust="spacing" textLength="267.9551" x="1488.62" y="60.0234">data:Mazak-br-spec-ANGLE-Maximum</text><line style="stroke:#181818;stroke-width:0.5;" x1="1482.62" x2="1762.5751" y1="64.9766" y2="64.9766"/><text fill="#000000" font-family="sans-serif" font-size="14" lengthAdjust="spacing" textLength="194.4209" x="1487.62" y="82.5117">type = core:ValueExpression</text></g><g class="entity" data-entity="o5" data-source-line="16" data-uid="ent0006" id="entity_o5"><rect fill="#F1F1F1" height="44.9766" rx="2.5" ry="2.5" style="stroke:#181818;stroke-width:0.5;" width="278.373" x="1483.41" y="124.4883"/><text fill="#000000" font-family="sans-serif" font-size="14" lengthAdjust="spacing" textLength="264.373" x="1490.41" y="140.0234">data:Mazak-br-spec-ANGLE-Minimum</text><line style="stroke:#181818;stroke-width:0.5;" x1="1484.41" x2="1760.783" y1="144.9766" y2="144.9766"/><text fill="#000000" font-family="sans-serif" font-size="14" lengthAdjust="spacing" textLength="194.4209" x="1489.41" y="162.5117">type = core:ValueExpression</text></g><g class="entity" data-entity="o6" data-source-line="19" data-uid="ent0007" id="entity_o6"><rect fill="#F1F1F1" height="44.9766" rx="2.5" ry="2.5" style="stroke:#181818;stroke-width:0.5;" width="293.5283" x="1475.83" y="204.4883"/><text fill="#000000" font-family="sans-serif" font-size="14" lengthAdjust="spacing" textLength="279.5283" x="1482.83" y="220.0234">data:Mazak-br-spec-TORQUE-Maximum</text><line style="stroke:#181818;stroke-width:0.5;" x1="1476.83" x2="1768.3583" y1="224.9766" y2="224.9766"/><text fill="#000000" font-family="sans-serif" font-size="14" lengthAdjust="spacing" textLength="194.4209" x="1481.83" y="242.5117">type = core:ValueExpression</text></g><g class="entity" data-entity="o7" data-source-line="22" data-uid="ent0008" id="entity_o7"><rect fill="#F1F1F1" height="44.9766" rx="2.5" ry="2.5" style="stroke:#181818;stroke-width:0.5;" width="289.9463" x="1477.63" y="284.4883"/><text fill="#000000" font-family="sans-serif" font-size="14" lengthAdjust="spacing" textLength="275.9463" x="1484.63" y="300.0234">data:Mazak-br-spec-TORQUE-Minimum</text><line style="stroke:#181818;stroke-width:0.5;" x1="1478.63" x2="1766.5763" y1="304.9766" y2="304.9766"/><text fill="#000000" font-family="sans-serif" font-size="14" lengthAdjust="spacing" textLength="194.4209" x="1483.63" y="322.5117">type = core:ValueExpression</text></g><g class="entity" data-entity="o8" data-source-line="25" data-uid="ent0009" id="entity_o8"><rect fill="#F1F1F1" height="44.9766" rx="2.5" ry="2.5" style="stroke:#181818;stroke-width:0.5;" width="178.5" x="972.12" y="364.4883"/><a href="./Mazak-enclosurem.html" target="_top" title="./Mazak-enclosurem.html" xlink:actuate="onRequest" xlink:href="./Mazak-enclosurem.html" xlink:show="new" xlink:title="./Mazak-enclosurem.html" xlink:type="simple"><text fill="#0000FF" font-family="sans-serif" font-size="14" lengthAdjust="spacing" text-decoration="underline" textLength="164.5" x="979.12" y="380.0234">data:Mazak-enclosurem</text></a><line style="stroke:#181818;stroke-width:0.5;" x1="973.12" x2="1149.62" y1="384.9766" y2="384.9766"/><text fill="#000000" font-family="sans-serif" font-size="14" lengthAdjust="spacing" textLength="131.7832" x="978.12" y="402.5117">type = ex:Structure</text></g><g class="entity" data-entity="o9" data-source-line="28" data-uid="ent0010" id="entity_o9"><rect fill="#F1F1F1" height="44.9766" rx="2.5" ry="2.5" style="stroke:#181818;stroke-width:0.5;" width="223.8906" x="1510.65" y="364.4883"/><text fill="#000000" font-family="sans-serif" font-size="14" lengthAdjust="spacing" textLength="209.8906" x="1517.65" y="380.0234">data:Mazak-enclosurem-name</text><line style="stroke:#181818;stroke-width:0.5;" x1="1511.65" x2="1733.5406" y1="384.9766" y2="384.9766"/><text fill="#000000" font-family="sans-serif" font-size="14" lengthAdjust="spacing" textLength="161.3691" x="1516.65" y="402.5117">type = cmns-dsg:Name</text></g><g class="entity" data-entity="o10" data-source-line="31" data-uid="ent0011" id="entity_o10"><rect fill="#F1F1F1" height="44.9766" rx="2.5" ry="2.5" style="stroke:#181818;stroke-width:0.5;" width="270.2314" x="1487.48" y="444.4883"/><text fill="#000000" font-family="sans-serif" font-size="14" lengthAdjust="spacing" textLength="256.2314" x="1494.48" y="460.0234">data:Mazak-enclosurem-temperature</text><line style="stroke:#181818;stroke-width:0.5;" x1="1488.48" x2="1756.7114" y1="464.9766" y2="464.9766"/><text fill="#000000" font-family="sans-serif" font-size="14" lengthAdjust="spacing" textLength="158.4502" x="1493.48" y="482.5117">type = qp:Temperature</text></g><g class="entity" data-entity="o11" data-source-line="34" data-uid="ent0012" id="entity_o11"><rect fill="#F1F1F1" height="44.9766" rx="2.5" ry="2.5" style="stroke:#181818;stroke-width:0.5;" width="148.7705" x="986.99" y="444.4883"/><a href="./Mazak-trundle.html" target="_top" title="./Mazak-trundle.html" xlink:actuate="onRequest" xlink:href="./Mazak-trundle.html" xlink:show="new" xlink:title="./Mazak-trundle.html" xlink:type="simple"><text fill="#0000FF" font-family="sans-serif" font-size="14" lengthAdjust="spacing" text-decoration="underline" textLength="134.7705" x="993.99" y="460.0234">data:Mazak-trundle</text></a><line style="stroke:#181818;stroke-width:0.5;" x1="987.99" x2="1134.7605" y1="464.9766" y2="464.9766"/><text fill="#000000" font-family="sans-serif" font-size="14" lengthAdjust="spacing" textLength="131.7832" x="992.99" y="482.5117">type = ex:Structure</text></g><g class="entity" data-entity="o12" data-source-line="37" data-uid="ent0013" id="entity_o12"><rect fill="#F1F1F1" height="44.9766" rx="2.5" ry="2.5" style="stroke:#181818;stroke-width:0.5;" width="194.1611" x="1525.52" y="524.4883"/><text fill="#000000" font-family="sans-serif" font-size="14" lengthAdjust="spacing" textLength="180.1611" x="1532.52" y="540.0234">data:Mazak-trundle-name</text><line style="stroke:#181818;stroke-width:0.5;" x1="1526.52" x2="1718.6811" y1="544.9766" y2="544.9766"/><text fill="#000000" font-family="sans-serif" font-size="14" lengthAdjust="spacing" textLength="161.3691" x="1531.52" y="562.5117">type = cmns-dsg:Name</text></g><g class="entity" data-entity="o13" data-source-line="40" data-uid="ent0014" id="entity_o13"><rect fill="#F1F1F1" height="44.9766" rx="2.5" ry="2.5" style="stroke:#181818;stroke-width:0.5;" width="254.9287" x="933.91" y="524.4883"/><text fill="#000000" font-family="sans-serif" font-size="14" lengthAdjust="spacing" textLength="164.6777" x="979.0355" y="540.0234">data:Mazak-br-function</text><line style="stroke:#181818;stroke-width:0.5;" x1="934.91" x2="1187.8387" y1="544.9766" y2="544.9766"/><text fill="#000000" font-family="sans-serif" font-size="14" lengthAdjust="spacing" textLength="242.9287" x="939.91" y="562.5117">type = ex:RevoluteMotionCapability</text></g><g class="entity" data-entity="o14" data-source-line="43" data-uid="ent0015" id="entity_o14"><rect fill="#F1F1F1" height="44.9766" rx="2.5" ry="2.5" style="stroke:#181818;stroke-width:0.5;" width="159.4072" x="981.67" y="604.4883"/><text fill="#000000" font-family="sans-serif" font-size="14" lengthAdjust="spacing" textLength="145.4072" x="988.67" y="620.0234">data:Mazak-br-angle</text><line style="stroke:#181818;stroke-width:0.5;" x1="982.67" x2="1140.0772" y1="624.9766" y2="624.9766"/><text fill="#000000" font-family="sans-serif" font-size="14" lengthAdjust="spacing" textLength="110.127" x="987.67" y="642.5117">type = qp:Angle</text></g><g class="entity" data-entity="o15" data-source-line="46" data-uid="ent0016" id="entity_o15"><rect fill="#F1F1F1" height="44.9766" rx="2.5" ry="2.5" style="stroke:#181818;stroke-width:0.5;" width="208.1133" x="957.31" y="684.4883"/><text fill="#000000" font-family="sans-serif" font-size="14" lengthAdjust="spacing" textLength="194.1133" x="964.31" y="700.0234">data:Mazak-br-angle-actual</text><line style="stroke:#181818;stroke-width:0.5;" x1="958.31" x2="1164.4233" y1="704.9766" y2="704.9766"/><text fill="#000000" font-family="sans-serif" font-size="14" lengthAdjust="spacing" textLength="110.127" x="963.31" y="722.5117">type = qp:Angle</text></g><g class="entity" data-entity="o16" data-source-line="49" data-uid="ent0017" id="entity_o16"><rect fill="#F1F1F1" height="44.9766" rx="2.5" ry="2.5" style="stroke:#181818;stroke-width:0.5;" width="171.6982" x="975.52" y="764.4883"/><a href="./Mazak-br-Bmotor.html" target="_top" title="./Mazak-br-Bmotor.html" xlink:actuate="onRequest" xlink:href="./Mazak-br-Bmotor.html" xlink:show="new" xlink:title="./Mazak-br-Bmotor.html" xlink:type="simple"><text fill="#0000FF" font-family="sans-serif" font-size="14" lengthAdjust="spacing" text-decoration="underline" textLength="157.6982" x="982.52" y="780.0234">data:Mazak-br-Bmotor</text></a><line style="stroke:#181818;stroke-width:0.5;" x1="976.52" x2="1146.2182" y1="784.9766" y2="784.9766"/><text fill="#000000" font-family="sans-serif" font-size="14" lengthAdjust="spacing" textLength="110.1885" x="981.52" y="802.5117">type = ex:Motor</text></g><g class="entity" data-entity="o17" data-source-line="52" data-uid="ent0018" id="entity_o17"><rect fill="#F1F1F1" height="44.9766" rx="2.5" ry="2.5" style="stroke:#181818;stroke-width:0.5;" width="217.0889" x="1514.05" y="764.4883"/><text fill="#000000" font-family="sans-serif" font-size="14" lengthAdjust="spacing" textLength="203.0889" x="1521.05" y="780.0234">data:Mazak-br-Bmotor-name</text><line style="stroke:#181818;stroke-width:0.5;" x1="1515.05" x2="1730.1389" y1="784.9766" y2="784.9766"/><text fill="#000000" font-family="sans-serif" font-size="14" lengthAdjust="spacing" textLength="161.3691" x="1520.05" y="802.5117">type = cmns-dsg:Name</text></g><g class="entity" data-entity="o18" data-source-line="55" data-uid="ent0019" id="entity_o18"><rect fill="#F1F1F1" height="44.9766" rx="2.5" ry="2.5" style="stroke:#181818;stroke-width:0.5;" width="138.1504" x="7" y="484.4883"/><a href="./Mazak.html" target="_top" title="./Mazak.html" xlink:actuate="onRequest" xlink:href="./Mazak.html" xlink:show="new" xlink:title="./Mazak.html" xlink:type="simple"><text fill="#0000FF" font-family="sans-serif" font-size="14" lengthAdjust="spacing" text-decoration="underline" textLength="77.6699" x="37.2402" y="500.0234">data:Mazak</text></a><line style="stroke:#181818;stroke-width:0.5;" x1="8" x2="144.1504" y1="504.9766" y2="504.9766"/><text fill="#000000" font-family="sans-serif" font-size="14" lengthAdjust="spacing" textLength="126.1504" x="13" y="522.5117">type = ex:Machine</text></g><!--link o1 to o2--><g class="link" data-entity-1="o1" data-entity-2="o2" data-source-line="58" data-uid="lnk20" id="link_o1_o2"><path codeLine="58" d="M555.18,484.2683 C590.97,428.8183 679.91,290.9783 679.91,290.9783 C679.91,290.9783 844.9466,238.0606 957.6666,201.9106" fill="none" id="o1-to-o2" style="stroke:#181818;stroke-width:1;"/><polygon fill="#181818" points="963.38,200.0783,953.5884,199.0178,958.6189,201.6052,956.0315,206.6357,963.38,200.0783" style="stroke:#181818;stroke-width:1;"/><text fill="#000000" font-family="sans-serif" font-size="13" lengthAdjust="spacing" textLength="126.0771" x="728.91" y="219.2466">cmns-dsg:hasName</text></g><!--link o1 to o3--><g class="link" data-entity-1="o1" data-entity-2="o3" data-source-line="60" data-uid="lnk21" id="link_o1_o3"><path codeLine="60" d="M568.06,484.2583 C608.68,450.7483 679.91,391.9783 679.91,391.9783 C679.91,391.9783 881.6255,320.4048 990.1755,281.8848" fill="none" id="o1-to-o3" style="stroke:#181818;stroke-width:1;"/><polygon fill="#181818" points="995.83,279.8783,986.0105,279.1184,991.1179,281.5504,988.6859,286.6578,995.83,279.8783" style="stroke:#181818;stroke-width:1;"/><text fill="#000000" font-family="sans-serif" font-size="13" lengthAdjust="spacing" textLength="112.3027" x="735.91" y="312.9666">core:prescribedBy</text></g><!--link o3 to o4--><g class="link" data-entity-1="o3" data-entity-2="o4" data-source-line="61" data-uid="lnk22" id="link_o3_o4"><path codeLine="61" d="M1134.84,234.0583 C1163.09,225.1183 1188.83,216.9783 1188.83,216.9783 C1188.83,216.9783 1218.83,150.9783 1218.83,150.9783 C1218.83,150.9783 1386.4164,116.0332 1505.6664,91.1632" fill="none" id="o3-to-o4" style="stroke:#181818;stroke-width:1;"/><polygon fill="#181818" points="1511.54,89.9383,1501.9129,87.86,1506.6453,90.9591,1503.5462,95.6915,1511.54,89.9383" style="stroke:#181818;stroke-width:1;"/><text fill="#000000" font-family="sans-serif" font-size="13" lengthAdjust="spacing" textLength="225.0688" x="1219.83" y="100.5166">core:hasValueExpressionAtAllTimes</text></g><!--link o3 to o5--><g class="link" data-entity-1="o3" data-entity-2="o5" data-source-line="62" data-uid="lnk23" id="link_o3_o5"><path codeLine="62" d="M1141.98,234.0883 C1180.63,222.9683 1218.83,211.9783 1218.83,211.9783 C1218.83,211.9783 1360.5666,189.1042 1477.0666,170.3042" fill="none" id="o3-to-o5" style="stroke:#181818;stroke-width:1;"/><polygon fill="#181818" points="1482.99,169.3483,1473.4677,166.8332,1478.0539,170.1448,1474.7422,174.731,1482.99,169.3483" style="stroke:#181818;stroke-width:1;"/><text fill="#000000" font-family="sans-serif" font-size="13" lengthAdjust="spacing" textLength="225.0688" x="1219.83" y="172.1566">core:hasValueExpressionAtAllTimes</text></g><!--link o3 to o6--><g class="link" data-entity-1="o3" data-entity-2="o6" data-source-line="63" data-uid="lnk24" id="link_o3_o6"><path codeLine="63" d="M1175.54,250.9083 C1261.95,246.2783 1375.7186,240.1694 1469.3886,235.1494" fill="none" id="o3-to-o6" style="stroke:#181818;stroke-width:1;"/><polygon fill="#181818" points="1475.38,234.8283,1466.1788,231.3157,1470.3872,235.0959,1466.607,239.3042,1475.38,234.8283" style="stroke:#181818;stroke-width:1;"/><text fill="#000000" font-family="sans-serif" font-size="13" lengthAdjust="spacing" textLength="225.0688" x="1219.83" y="233.2566">core:hasValueExpressionAtAllTimes</text></g><!--link o3 to o7--><g class="link" data-entity-1="o3" data-entity-2="o7" data-source-line="64" data-uid="lnk25" id="link_o3_o7"><path codeLine="64" d="M1175.67,268.5683 C1200.14,271.0683 1218.83,272.9783 1218.83,272.9783 C1218.83,272.9783 1355.7812,284.5439 1471.3512,294.2939" fill="none" id="o3-to-o7" style="stroke:#181818;stroke-width:1;"/><polygon fill="#181818" points="1477.33,294.7983,1468.6981,290.0558,1472.3477,294.378,1468.0256,298.0275,1477.33,294.7983" style="stroke:#181818;stroke-width:1;"/><text fill="#000000" font-family="sans-serif" font-size="13" lengthAdjust="spacing" textLength="225.0688" x="1219.83" y="269.5466">core:hasValueExpressionAtAllTimes</text></g><!--link o1 to o8--><g class="link" data-entity-1="o1" data-entity-2="o8" data-source-line="65" data-uid="lnk26" id="link_o1_o8"><path codeLine="65" d="M602.07,484.0183 C639.4,470.0883 679.91,454.9783 679.91,454.9783 C679.91,454.9783 853.3136,423.9837 965.7436,403.8937" fill="none" id="o1-to-o8" style="stroke:#181818;stroke-width:1;"/><polygon fill="#181818" points="971.65,402.8383,962.0867,400.4838,966.728,403.7178,963.4939,408.359,971.65,402.8383" style="stroke:#181818;stroke-width:1;"/><text fill="#000000" font-family="sans-serif" font-size="13" lengthAdjust="spacing" textLength="74.7246" x="754.91" y="413.4766">ex:joinedTo</text></g><!--link o8 to o9--><g class="link" data-entity-1="o8" data-entity-2="o9" data-source-line="66" data-uid="lnk27" id="link_o8_o9"><path codeLine="66" d="M1150.98,386.9783 C1248.3,386.9783 1398.76,386.9783 1504.29,386.9783" fill="none" id="o8-to-o9" style="stroke:#181818;stroke-width:1;"/><polygon fill="#181818" points="1510.29,386.9783,1501.29,382.9783,1505.29,386.9783,1501.29,390.9783,1510.29,386.9783" style="stroke:#181818;stroke-width:1;"/><text fill="#000000" font-family="sans-serif" font-size="13" lengthAdjust="spacing" textLength="126.0771" x="1269.33" y="383.5466">cmns-dsg:hasName</text></g><!--link o8 to o10--><g class="link" data-entity-1="o8" data-entity-2="o10" data-source-line="67" data-uid="lnk28" id="link_o8_o10"><path codeLine="67" d="M1151.12,401.1583 C1186.43,406.7983 1218.83,411.9783 1218.83,411.9783 C1218.83,411.9783 1364.1351,431.8267 1481.2551,447.8167" fill="none" id="o8-to-o10" style="stroke:#181818;stroke-width:1;"/><polygon fill="#181818" points="1487.2,448.6283,1478.8238,443.4476,1482.246,447.9519,1477.7416,451.3741,1487.2,448.6283" style="stroke:#181818;stroke-width:1;"/><text fill="#000000" font-family="sans-serif" font-size="13" lengthAdjust="spacing" textLength="171.3169" x="1246.83" y="408.5466">core:measuresAtSomeTime</text></g><!--link o1 to o11--><g class="link" data-entity-1="o1" data-entity-2="o11" data-source-line="68" data-uid="lnk29" id="link_o1_o11"><path codeLine="68" d="M650.14,498.5483 C751.27,490.7683 892.6777,479.8887 980.5077,473.1287" fill="none" id="o1-to-o11" style="stroke:#181818;stroke-width:1;"/><polygon fill="#181818" points="986.49,472.6683,977.2096,469.3707,981.5047,473.052,977.8235,477.3471,986.49,472.6683" style="stroke:#181818;stroke-width:1;"/><text fill="#000000" font-family="sans-serif" font-size="13" lengthAdjust="spacing" textLength="74.7246" x="754.91" y="476.4866">ex:joinedTo</text></g><!--link o11 to o12--><g class="link" data-entity-1="o11" data-entity-2="o12" data-source-line="69" data-uid="lnk30" id="link_o11_o12"><path codeLine="69" d="M1136.06,477.5183 C1236.01,491.8183 1408.7905,516.5385 1519.2905,532.3485" fill="none" id="o11-to-o12" style="stroke:#181818;stroke-width:1;"/><polygon fill="#181818" points="1525.23,533.1983,1516.8873,527.9639,1520.2804,532.4901,1515.7542,535.8832,1525.23,533.1983" style="stroke:#181818;stroke-width:1;"/><text fill="#000000" font-family="sans-serif" font-size="13" lengthAdjust="spacing" textLength="126.0771" x="1269.33" y="487.1866">cmns-dsg:hasName</text></g><!--link o1 to o13--><g class="link" data-entity-1="o1" data-entity-2="o13" data-source-line="70" data-uid="lnk31" id="link_o1_o13"><path codeLine="70" d="M650.35,518.0083 C667.62,519.7483 679.91,520.9783 679.91,520.9783 C679.91,520.9783 816.794,530.3393 927.434,537.8993" fill="none" id="o1-to-o13" style="stroke:#181818;stroke-width:1;"/><polygon fill="#181818" points="933.42,538.3083,924.7136,533.704,928.4316,537.9674,924.1683,541.6854,933.42,538.3083" style="stroke:#181818;stroke-width:1;"/><text fill="#000000" font-family="sans-serif" font-size="13" lengthAdjust="spacing" textLength="107.6309" x="738.41" y="517.5466">core:hasFunction</text></g><!--link o1 to o14--><g class="link" data-entity-1="o1" data-entity-2="o14" data-source-line="71" data-uid="lnk32" id="link_o1_o14"><path codeLine="71" d="M599.64,529.8783 C637.62,544.5983 679.91,560.9783 679.91,560.9783 C679.91,560.9783 864.1884,592.9423 975.6284,612.2823" fill="none" id="o1-to-o14" style="stroke:#181818;stroke-width:1;"/><polygon fill="#181818" points="981.54,613.3083,973.3565,607.8283,976.6136,612.4533,971.9886,615.7105,981.54,613.3083" style="stroke:#181818;stroke-width:1;"/><text fill="#000000" font-family="sans-serif" font-size="13" lengthAdjust="spacing" textLength="171.3169" x="706.41" y="557.5466">core:measuresAtSomeTime</text></g><!--link o1 to o15--><g class="link" data-entity-1="o1" data-entity-2="o15" data-source-line="72" data-uid="lnk33" id="link_o1_o15"><path codeLine="72" d="M568.06,529.8983 C608.68,563.7083 679.91,622.9783 679.91,622.9783 C679.91,622.9783 838.3911,657.9749 951.0511,682.8449" fill="none" id="o1-to-o15" style="stroke:#181818;stroke-width:1;"/><polygon fill="#181818" points="956.91,684.1383,948.9838,678.2923,952.0276,683.0605,947.2593,686.1042,956.91,684.1383" style="stroke:#181818;stroke-width:1;"/><text fill="#000000" font-family="sans-serif" font-size="13" lengthAdjust="spacing" textLength="171.3169" x="706.41" y="619.5466">core:measuresAtSomeTime</text></g><!--link o1 to o16--><g class="link" data-entity-1="o1" data-entity-2="o16" data-source-line="73" data-uid="lnk34" id="link_o1_o16"><path codeLine="73" d="M557.34,529.6583 C594.41,579.6583 679.91,694.9783 679.91,694.9783 C679.91,694.9783 857.498,737.9283 969.628,765.0383" fill="none" id="o1-to-o16" style="stroke:#181818;stroke-width:1;"/><polygon fill="#181818" points="975.46,766.4483,967.6521,760.4453,970.6,765.2733,965.772,768.2212,975.46,766.4483" style="stroke:#181818;stroke-width:1;"/><text fill="#000000" font-family="sans-serif" font-size="13" lengthAdjust="spacing" textLength="222.5425" x="680.91" y="691.5466">obo:has member part at some time</text></g><!--link o16 to o17--><g class="link" data-entity-1="o16" data-entity-2="o17" data-source-line="74" data-uid="lnk35" id="link_o16_o17"><path codeLine="74" d="M1147.61,786.9783 C1245.76,786.9783 1401.15,786.9783 1507.9,786.9783" fill="none" id="o16-to-o17" style="stroke:#181818;stroke-width:1;"/><polygon fill="#181818" points="1513.9,786.9783,1504.9,782.9783,1508.9,786.9783,1504.9,790.9783,1513.9,786.9783" style="stroke:#181818;stroke-width:1;"/><text fill="#000000" font-family="sans-serif" font-size="13" lengthAdjust="spacing" textLength="126.0771" x="1269.33" y="783.5466">cmns-dsg:hasName</text></g><!--link o18 to o1--><g class="link" data-entity-1="o18" data-entity-2="o1" data-source-line="75" data-uid="lnk36" id="link_o18_o1"><path codeLine="75" d="M145.16,506.9783 C219.87,506.9783 334.87,506.9783 422.97,506.9783" fill="none" id="o18-to-o1" style="stroke:#181818;stroke-width:1;"/><polygon fill="#181818" points="428.97,506.9783,419.97,502.9783,423.97,506.9783,419.97,510.9783,428.97,506.9783" style="stroke:#181818;stroke-width:1;"/><text fill="#000000" font-family="sans-serif" font-size="13" lengthAdjust="spacing" textLength="222.5425" x="176.15" y="503.5466">obo:has member part at some time</text></g><!--SRC=[hPLBSzCm4CVl_XIQtbr8ysezGsSIA5n86Ph0fTE3R6yIjNeOIMPY6BuxaYtRYfjG1pXczx-_VNXNKK-4PrXYXYZXe8iCK2PeONy45DOQQO4asMmrIec4H1F10qqq1RJ0F_1J6Cj0n8_6WSxkxyzVrSRphMOKfLZZg3OzF9mXh90Oe9y1AXEzGR2BxeJ6ibW8IruMIWCBqA-6kKS8EMPGGIuyICAu2bErYMwD-tYmoY2fWeT-i90GlGD5Ddnf16HD4bms-KTEEBlzyF4cNE0TOJchgACkzIkcETpiCWbAzIOItXB7_qPSVRhx_ALJvEJ_8FqgfoSWsnK1db2XSWdisQgqhdfbBlTNPgbbdcWZE59j2_0svkh4ZV4WPYSpaDXcT2lyseDzow9LApZShIcOfnIUjUhipMaCJclKXNjT3lxYCDOvB-_Q4OQT-uJlWkOQgWjzYpCS4qfqSPo7-ORMvOps1pMphXSYGsnQnjG1nYy0_4Sdd3EXnQ6tntcQEK_sUrnOv_6ogc1_ojC-KsvAwnRKbD7PwmLEjlRTjOm12iDh-yv5RO8jLcMEocfFpLYMX6NKExVo-WnltZ26jTfA4abYIET5OCobT-InEfSxqpDALuI1QjJZazIJazJJVchNrQLHcvaz2ZEnT2K2OoZjLmSdvfpcS5qE1jWUjvhffM1WqGtPN647FQWzXpz7xHrw3RntHzLwHtrIZ_k8x5X5B6mQn835897v2zS8QwIC6EbAFN7owU6Ywv7qWFq6]--></g></svg>