<svg xmlns="http://www.w3.org/2000/svg" xmlns:xlink="http://www.w3.org/1999/xlink" contentStyleType="text/css" data-diagram-type="CLASS" height="1178px" preserveAspectRatio="none" style="width:1887px;height:1178px;background:#FFFFFF;" version="1.1" viewBox="0 0 1887 1178" width="1887px" zoomAndPan="magnify"><defs/><g><g class="entity" data-entity="o1" data-source-line="3" data-uid="ent0002" id="entity_o1"><rect fill="#F1F1F1" height="44.9766" rx="2.5" ry="2.5" style="stroke:#181818;stroke-width:0.5;" width="218.7529" x="429.15" y="767"/><a href="./Mazak-x.html" target="_top" title="./Mazak-x.html" xlink:actuate="onRequest" xlink:href="./Mazak-x.html" xlink:show="new" xlink:title="./Mazak-x.html" xlink:type="simple"><text fill="#0000FF" font-family="sans-serif" font-size="14" lengthAdjust="spacing" text-decoration="underline" textLength="94.3564" x="491.3482" y="782.5352">data:Mazak-x</text></a><line style="stroke:#181818;stroke-width:0.5;" x1="430.15" x2="646.9029" y1="787.4883" y2="787.4883"/><text fill="#000000" font-family="sans-serif" font-size="14" lengthAdjust="spacing" textLength="206.7529" x="435.15" y="805.0234">type = ex:LinearMotionSystem</text></g><g class="entity" data-entity="o2" data-source-line="6" data-uid="ent0003" id="entity_o2"><rect fill="#F1F1F1" height="61.4648" rx="2.5" ry="2.5" style="stroke:#181818;stroke-width:0.5;" width="254.8945" x="933.74" y="230.76"/><text fill="#000000" font-family="sans-serif" font-size="14" lengthAdjust="spacing" textLength="139.7471" x="991.3137" y="246.2952">data:Mazak-x-name</text><line style="stroke:#181818;stroke-width:0.5;" x1="934.74" x2="1187.6345" y1="251.2483" y2="251.2483"/><text fill="#000000" font-family="sans-serif" font-size="14" lengthAdjust="spacing" textLength="161.3691" x="939.74" y="268.7834">type = cmns-dsg:Name</text><text fill="#000000" font-family="sans-serif" font-size="14" lengthAdjust="spacing" textLength="242.8945" x="939.74" y="285.2717">core:hasSimpleExpressionValue = X</text></g><g class="entity" data-entity="o3" data-source-line="9" data-uid="ent0004" id="entity_o3"><rect fill="#F1F1F1" height="44.9766" rx="2.5" ry="2.5" style="stroke:#181818;stroke-width:0.5;" width="227.8037" x="947.28" y="327"/><text fill="#000000" font-family="sans-serif" font-size="14" lengthAdjust="spacing" textLength="133.376" x="994.4939" y="342.5352">data:Mazak-x-spec</text><line style="stroke:#181818;stroke-width:0.5;" x1="948.28" x2="1174.0837" y1="347.4883" y2="347.4883"/><text fill="#000000" font-family="sans-serif" font-size="14" lengthAdjust="spacing" textLength="215.8037" x="953.28" y="365.0234">type = core:DesignSpecification</text></g><g class="entity" data-entity="o4" data-source-line="12" data-uid="ent0005" id="entity_o4"><rect fill="#F1F1F1" height="44.9766" rx="2.5" ry="2.5" style="stroke:#181818;stroke-width:0.5;" width="274.7568" x="1541.89" y="7"/><text fill="#000000" font-family="sans-serif" font-size="14" lengthAdjust="spacing" textLength="260.7568" x="1548.89" y="22.5352">data:Mazak-x-spec-LENGTH-Nominal</text><line style="stroke:#181818;stroke-width:0.5;" x1="1542.89" x2="1815.6468" y1="27.4883" y2="27.4883"/><text fill="#000000" font-family="sans-serif" font-size="14" lengthAdjust="spacing" textLength="194.4209" x="1547.89" y="45.0234">type = core:ValueExpression</text></g><g class="entity" data-entity="o5" data-source-line="15" data-uid="ent0006" id="entity_o5"><rect fill="#F1F1F1" height="44.9766" rx="2.5" ry="2.5" style="stroke:#181818;stroke-width:0.5;" width="330.2783" x="1514.13" y="87"/><text fill="#000000" font-family="sans-serif" font-size="14" lengthAdjust="spacing" textLength="316.2783" x="1521.13" y="102.5352">data:Mazak-x-spec-LINEAR_FORCE-Maximum</text><line style="stroke:#181818;stroke-width:0.5;" x1="1515.13" x2="1843.4083" y1="107.4883" y2="107.4883"/><text fill="#000000" font-family="sans-serif" font-size="14" lengthAdjust="spacing" textLength="194.4209" x="1520.13" y="125.0234">type = core:ValueExpression</text></g><g class="entity" data-entity="o6" data-source-line="18" data-uid="ent0007" id="entity_o6"><rect fill="#F1F1F1" height="44.9766" rx="2.5" ry="2.5" style="stroke:#181818;stroke-width:0.5;" width="326.6963" x="1515.92" y="167"/><text fill="#000000" font-family="sans-serif" font-size="14" lengthAdjust="spacing" textLength="312.6963" x="1522.92" y="182.5352">data:Mazak-x-spec-LINEAR_FORCE-Minimum</text><line style="stroke:#181818;stroke-width:0.5;" x1="1516.92" x2="1841.6163" y1="187.4883" y2="187.4883"/><text fill="#000000" font-family="sans-serif" font-size="14" lengthAdjust="spacing" textLength="194.4209" x="1521.92" y="205.0234">type = core:ValueExpression</text></g><g class="entity" data-entity="o7" data-source-line="21" data-uid="ent0008" id="entity_o7"><rect fill="#F1F1F1" height="44.9766" rx="2.5" ry="2.5" style="stroke:#181818;stroke-width:0.5;" width="346.0762" x="1506.23" y="247"/><text fill="#000000" font-family="sans-serif" font-size="14" lengthAdjust="spacing" textLength="332.0762" x="1513.23" y="262.5352">data:Mazak-x-spec-VELOCITY-RAPID-Maximum</text><line style="stroke:#181818;stroke-width:0.5;" x1="1507.23" x2="1851.3062" y1="267.4883" y2="267.4883"/><text fill="#000000" font-family="sans-serif" font-size="14" lengthAdjust="spacing" textLength="194.4209" x="1512.23" y="285.0234">type = core:ValueExpression</text></g><g class="entity" data-entity="o8" data-source-line="24" data-uid="ent0009" id="entity_o8"><rect fill="#F1F1F1" height="44.9766" rx="2.5" ry="2.5" style="stroke:#181818;stroke-width:0.5;" width="342.4941" x="1508.02" y="327"/><text fill="#000000" font-family="sans-serif" font-size="14" lengthAdjust="spacing" textLength="328.4941" x="1515.02" y="342.5352">data:Mazak-x-spec-VELOCITY-RAPID-Minimum</text><line style="stroke:#181818;stroke-width:0.5;" x1="1509.02" x2="1849.5141" y1="347.4883" y2="347.4883"/><text fill="#000000" font-family="sans-serif" font-size="14" lengthAdjust="spacing" textLength="194.4209" x="1514.02" y="365.0234">type = core:ValueExpression</text></g><g class="entity" data-entity="o9" data-source-line="27" data-uid="ent0010" id="entity_o9"><rect fill="#F1F1F1" height="44.9766" rx="2.5" ry="2.5" style="stroke:#181818;stroke-width:0.5;" width="403.5938" x="1477.47" y="407"/><text fill="#000000" font-family="sans-serif" font-size="14" lengthAdjust="spacing" textLength="389.5938" x="1484.47" y="422.5352">data:Mazak-x-spec-VELOCITY-PROGRAMMED-Maximum</text><line style="stroke:#181818;stroke-width:0.5;" x1="1478.47" x2="1880.0638" y1="427.4883" y2="427.4883"/><text fill="#000000" font-family="sans-serif" font-size="14" lengthAdjust="spacing" textLength="194.4209" x="1483.47" y="445.0234">type = core:ValueExpression</text></g><g class="entity" data-entity="o10" data-source-line="30" data-uid="ent0011" id="entity_o10"><rect fill="#F1F1F1" height="44.9766" rx="2.5" ry="2.5" style="stroke:#181818;stroke-width:0.5;" width="400.0117" x="1479.26" y="487"/><text fill="#000000" font-family="sans-serif" font-size="14" lengthAdjust="spacing" textLength="386.0117" x="1486.26" y="502.5352">data:Mazak-x-spec-VELOCITY-PROGRAMMED-Minimum</text><line style="stroke:#181818;stroke-width:0.5;" x1="1480.26" x2="1878.2717" y1="507.4883" y2="507.4883"/><text fill="#000000" font-family="sans-serif" font-size="14" lengthAdjust="spacing" textLength="194.4209" x="1485.26" y="525.0234">type = core:ValueExpression</text></g><g class="entity" data-entity="o11" data-source-line="33" data-uid="ent0012" id="entity_o11"><rect fill="#F1F1F1" height="44.9766" rx="2.5" ry="2.5" style="stroke:#181818;stroke-width:0.5;" width="178.5" x="971.94" y="567"/><a href="./Mazak-enclosurem.html" target="_top" title="./Mazak-enclosurem.html" xlink:actuate="onRequest" xlink:href="./Mazak-enclosurem.html" xlink:show="new" xlink:title="./Mazak-enclosurem.html" xlink:type="simple"><text fill="#0000FF" font-family="sans-serif" font-size="14" lengthAdjust="spacing" text-decoration="underline" textLength="164.5" x="978.94" y="582.5352">data:Mazak-enclosurem</text></a><line style="stroke:#181818;stroke-width:0.5;" x1="972.94" x2="1149.44" y1="587.4883" y2="587.4883"/><text fill="#000000" font-family="sans-serif" font-size="14" lengthAdjust="spacing" textLength="131.7832" x="977.94" y="605.0234">type = ex:Structure</text></g><g class="entity" data-entity="o12" data-source-line="36" data-uid="ent0013" id="entity_o12"><rect fill="#F1F1F1" height="44.9766" rx="2.5" ry="2.5" style="stroke:#181818;stroke-width:0.5;" width="223.8906" x="1567.32" y="567"/><text fill="#000000" font-family="sans-serif" font-size="14" lengthAdjust="spacing" textLength="209.8906" x="1574.32" y="582.5352">data:Mazak-enclosurem-name</text><line style="stroke:#181818;stroke-width:0.5;" x1="1568.32" x2="1790.2106" y1="587.4883" y2="587.4883"/><text fill="#000000" font-family="sans-serif" font-size="14" lengthAdjust="spacing" textLength="161.3691" x="1573.32" y="605.0234">type = cmns-dsg:Name</text></g><g class="entity" data-entity="o13" data-source-line="39" data-uid="ent0014" id="entity_o13"><rect fill="#F1F1F1" height="44.9766" rx="2.5" ry="2.5" style="stroke:#181818;stroke-width:0.5;" width="270.2314" x="1544.15" y="647"/><text fill="#000000" font-family="sans-serif" font-size="14" lengthAdjust="spacing" textLength="256.2314" x="1551.15" y="662.5352">data:Mazak-enclosurem-temperature</text><line style="stroke:#181818;stroke-width:0.5;" x1="1545.15" x2="1813.3814" y1="667.4883" y2="667.4883"/><text fill="#000000" font-family="sans-serif" font-size="14" lengthAdjust="spacing" textLength="158.4502" x="1550.15" y="685.0234">type = qp:Temperature</text></g><g class="entity" data-entity="o14" data-source-line="42" data-uid="ent0015" id="entity_o14"><rect fill="#F1F1F1" height="44.9766" rx="2.5" ry="2.5" style="stroke:#181818;stroke-width:0.5;" width="148.9277" x="986.72" y="647"/><a href="./Mazak-xaxism.html" target="_top" title="./Mazak-xaxism.html" xlink:actuate="onRequest" xlink:href="./Mazak-xaxism.html" xlink:show="new" xlink:title="./Mazak-xaxism.html" xlink:type="simple"><text fill="#0000FF" font-family="sans-serif" font-size="14" lengthAdjust="spacing" text-decoration="underline" textLength="134.9277" x="993.72" y="662.5352">data:Mazak-xaxism</text></a><line style="stroke:#181818;stroke-width:0.5;" x1="987.72" x2="1134.6477" y1="667.4883" y2="667.4883"/><text fill="#000000" font-family="sans-serif" font-size="14" lengthAdjust="spacing" textLength="131.7832" x="992.72" y="685.0234">type = ex:Structure</text></g><g class="entity" data-entity="o15" data-source-line="45" data-uid="ent0016" id="entity_o15"><rect fill="#F1F1F1" height="44.9766" rx="2.5" ry="2.5" style="stroke:#181818;stroke-width:0.5;" width="194.3184" x="1582.11" y="727"/><text fill="#000000" font-family="sans-serif" font-size="14" lengthAdjust="spacing" textLength="180.3184" x="1589.11" y="742.5352">data:Mazak-xaxism-name</text><line style="stroke:#181818;stroke-width:0.5;" x1="1583.11" x2="1775.4284" y1="747.4883" y2="747.4883"/><text fill="#000000" font-family="sans-serif" font-size="14" lengthAdjust="spacing" textLength="161.3691" x="1588.11" y="765.0234">type = cmns-dsg:Name</text></g><g class="entity" data-entity="o16" data-source-line="48" data-uid="ent0017" id="entity_o16"><rect fill="#F1F1F1" height="44.9766" rx="2.5" ry="2.5" style="stroke:#181818;stroke-width:0.5;" width="258.5654" x="931.9" y="727"/><text fill="#000000" font-family="sans-serif" font-size="14" lengthAdjust="spacing" textLength="158.7236" x="981.8209" y="742.5352">data:Mazak-x-function</text><line style="stroke:#181818;stroke-width:0.5;" x1="932.9" x2="1189.4654" y1="747.4883" y2="747.4883"/><text fill="#000000" font-family="sans-serif" font-size="14" lengthAdjust="spacing" textLength="246.5654" x="937.9" y="765.0234">type = ex:PrismaticMotionCapability</text></g><g class="entity" data-entity="o17" data-source-line="51" data-uid="ent0018" id="entity_o17"><rect fill="#F1F1F1" height="44.9766" rx="2.5" ry="2.5" style="stroke:#181818;stroke-width:0.5;" width="220.3291" x="951.02" y="807"/><text fill="#000000" font-family="sans-serif" font-size="14" lengthAdjust="spacing" textLength="206.3291" x="958.02" y="822.5352">data:Mazak-x-position-actual</text><line style="stroke:#181818;stroke-width:0.5;" x1="952.02" x2="1170.3491" y1="827.4883" y2="827.4883"/><text fill="#000000" font-family="sans-serif" font-size="14" lengthAdjust="spacing" textLength="163.2285" x="957.02" y="845.0234">type = qp:Displacement</text></g><g class="entity" data-entity="o18" data-source-line="54" data-uid="ent0019" id="entity_o18"><rect fill="#F1F1F1" height="44.9766" rx="2.5" ry="2.5" style="stroke:#181818;stroke-width:0.5;" width="175.2285" x="973.57" y="887"/><text fill="#000000" font-family="sans-serif" font-size="14" lengthAdjust="spacing" textLength="157.623" x="982.3727" y="902.5352">data:Mazak-x-position</text><line style="stroke:#181818;stroke-width:0.5;" x1="974.57" x2="1147.7985" y1="907.4883" y2="907.4883"/><text fill="#000000" font-family="sans-serif" font-size="14" lengthAdjust="spacing" textLength="163.2285" x="979.57" y="925.0234">type = qp:Displacement</text></g><g class="entity" data-entity="o19" data-source-line="57" data-uid="ent0020" id="entity_o19"><rect fill="#F1F1F1" height="44.9766" rx="2.5" ry="2.5" style="stroke:#181818;stroke-width:0.5;" width="200.0879" x="961.14" y="967"/><text fill="#000000" font-family="sans-serif" font-size="14" lengthAdjust="spacing" textLength="186.0879" x="968.14" y="982.5352">data:Mazak-x-temperature</text><line style="stroke:#181818;stroke-width:0.5;" x1="962.14" x2="1160.2279" y1="987.4883" y2="987.4883"/><text fill="#000000" font-family="sans-serif" font-size="14" lengthAdjust="spacing" textLength="158.4502" x="967.14" y="1005.0234">type = qp:Temperature</text></g><g class="entity" data-entity="o20" data-source-line="60" data-uid="ent0021" id="entity_o20"><rect fill="#F1F1F1" height="44.9766" rx="2.5" ry="2.5" style="stroke:#181818;stroke-width:0.5;" width="188.4805" x="966.95" y="1047"/><a href="./Mazak-x-Xballscrew.html" target="_top" title="./Mazak-x-Xballscrew.html" xlink:actuate="onRequest" xlink:href="./Mazak-x-Xballscrew.html" xlink:show="new" xlink:title="./Mazak-x-Xballscrew.html" xlink:type="simple"><text fill="#0000FF" font-family="sans-serif" font-size="14" lengthAdjust="spacing" text-decoration="underline" textLength="174.4805" x="973.95" y="1062.5352">data:Mazak-x-Xballscrew</text></a><line style="stroke:#181818;stroke-width:0.5;" x1="967.95" x2="1154.4305" y1="1067.4883" y2="1067.4883"/><text fill="#000000" font-family="sans-serif" font-size="14" lengthAdjust="spacing" textLength="132.4668" x="972.95" y="1085.0234">type = ex:Ballscrew</text></g><g class="entity" data-entity="o21" data-source-line="63" data-uid="ent0022" id="entity_o21"><rect fill="#F1F1F1" height="44.9766" rx="2.5" ry="2.5" style="stroke:#181818;stroke-width:0.5;" width="233.8711" x="1562.33" y="1047"/><text fill="#000000" font-family="sans-serif" font-size="14" lengthAdjust="spacing" textLength="219.8711" x="1569.33" y="1062.5352">data:Mazak-x-Xballscrew-name</text><line style="stroke:#181818;stroke-width:0.5;" x1="1563.33" x2="1795.2011" y1="1067.4883" y2="1067.4883"/><text fill="#000000" font-family="sans-serif" font-size="14" lengthAdjust="spacing" textLength="161.3691" x="1568.33" y="1085.0234">type = cmns-dsg:Name</text></g><g class="entity" data-entity="o22" data-source-line="66" data-uid="ent0023" id="entity_o22"><rect fill="#F1F1F1" height="44.9766" rx="2.5" ry="2.5" style="stroke:#181818;stroke-width:0.5;" width="166.4551" x="977.96" y="1127"/><a href="./Mazak-x-Xmotor.html" target="_top" title="./Mazak-x-Xmotor.html" xlink:actuate="onRequest" xlink:href="./Mazak-x-Xmotor.html" xlink:show="new" xlink:title="./Mazak-x-Xmotor.html" xlink:type="simple"><text fill="#0000FF" font-family="sans-serif" font-size="14" lengthAdjust="spacing" text-decoration="underline" textLength="152.4551" x="984.96" y="1142.5352">data:Mazak-x-Xmotor</text></a><line style="stroke:#181818;stroke-width:0.5;" x1="978.96" x2="1143.4151" y1="1147.4883" y2="1147.4883"/><text fill="#000000" font-family="sans-serif" font-size="14" lengthAdjust="spacing" textLength="110.1885" x="983.96" y="1165.0234">type = ex:Motor</text></g><g class="entity" data-entity="o23" data-source-line="69" data-uid="ent0024" id="entity_o23"><rect fill="#F1F1F1" height="44.9766" rx="2.5" ry="2.5" style="stroke:#181818;stroke-width:0.5;" width="211.8457" x="1573.34" y="1127"/><text fill="#000000" font-family="sans-serif" font-size="14" lengthAdjust="spacing" textLength="197.8457" x="1580.34" y="1142.5352">data:Mazak-x-Xmotor-name</text><line style="stroke:#181818;stroke-width:0.5;" x1="1574.34" x2="1784.1857" y1="1147.4883" y2="1147.4883"/><text fill="#000000" font-family="sans-serif" font-size="14" lengthAdjust="spacing" textLength="161.3691" x="1579.34" y="1165.0234">type = cmns-dsg:Name</text></g><g class="entity" data-entity="o24" data-source-line="72" data-uid="ent0025" id="entity_o24"><rect fill="#F1F1F1" height="44.9766" rx="2.5" ry="2.5" style="stroke:#181818;stroke-width:0.5;" width="138.1504" x="7" y="767"/><a href="./Mazak.html" target="_top" title="./Mazak.html" xlink:actuate="onRequest" xlink:href="./Mazak.html" xlink:show="new" xlink:title="./Mazak.html" xlink:type="simple"><text fill="#0000FF" font-family="sans-serif" font-size="14" lengthAdjust="spacing" text-decoration="underline" textLength="77.6699" x="37.2402" y="782.5352">data:Mazak</text></a><line style="stroke:#181818;stroke-width:0.5;" x1="8" x2="144.1504" y1="787.4883" y2="787.4883"/><text fill="#000000" font-family="sans-serif" font-size="14" lengthAdjust="spacing" textLength="126.1504" x="13" y="805.0234">type = ex:Machine</text></g><!--link o1 to o2--><g class="link" data-entity-1="o1" data-entity-2="o2" data-source-line="75" data-uid="lnk26" id="link_o1_o2"><path codeLine="75" d="M548.5,766.54 C579.16,688.09 677.9,435.49 677.9,435.49 C677.9,435.49 931.9,309.49 931.9,309.49 C931.9,309.49 946.6507,303.9732 971.1507,294.8032" fill="none" id="o1-to-o2" style="stroke:#181818;stroke-width:1;"/><polygon fill="#181818" points="976.77,292.7,966.9389,292.1086,972.0873,294.4527,969.7432,299.601,976.77,292.7" style="stroke:#181818;stroke-width:1;"/><text fill="#000000" font-family="sans-serif" font-size="13" lengthAdjust="spacing" textLength="126.0771" x="726.9" y="321.6684">cmns-dsg:hasName</text></g><!--link o1 to o3--><g class="link" data-entity-1="o1" data-entity-2="o3" data-source-line="77" data-uid="lnk27" id="link_o1_o3"><path codeLine="77" d="M556.22,766.81 C593.02,716.81 677.9,601.49 677.9,601.49 C677.9,601.49 926.4703,437.632 1020.5803,375.602" fill="none" id="o1-to-o3" style="stroke:#181818;stroke-width:1;"/><polygon fill="#181818" points="1025.59,372.3,1015.8742,373.9132,1021.4153,375.0517,1020.2768,380.5928,1025.59,372.3" style="stroke:#181818;stroke-width:1;"/><text fill="#000000" font-family="sans-serif" font-size="13" lengthAdjust="spacing" textLength="112.3027" x="733.9" y="456.9684">core:prescribedBy</text></g><!--link o3 to o4--><g class="link" data-entity-1="o3" data-entity-2="o4" data-source-line="78" data-uid="lnk28" id="link_o3_o4"><path codeLine="78" d="M1135.69,326.57 C1164.36,317.63 1190.47,309.49 1190.47,309.49 C1190.47,309.49 1220.47,131.49 1220.47,131.49 C1220.47,131.49 1477.47,69.49 1477.47,69.49 C1477.47,69.49 1512.2855,62.5516 1557.0355,53.6416" fill="none" id="o3-to-o4" style="stroke:#181818;stroke-width:1;"/><polygon fill="#181818" points="1562.92,52.47,1553.3122,50.3045,1558.0163,53.4464,1554.8744,58.1505,1562.92,52.47" style="stroke:#181818;stroke-width:1;"/><text fill="#000000" font-family="sans-serif" font-size="13" lengthAdjust="spacing" textLength="225.0688" x="1221.47" y="73.7384">core:hasValueExpressionAtAllTimes</text></g><!--link o3 to o5--><g class="link" data-entity-1="o3" data-entity-2="o5" data-source-line="79" data-uid="lnk29" id="link_o3_o5"><path codeLine="79" d="M1135.69,326.57 C1164.36,317.63 1190.47,309.49 1190.47,309.49 C1190.47,309.49 1220.47,209.49 1220.47,209.49 C1220.47,209.49 1477.47,149.49 1477.47,149.49 C1477.47,149.49 1512.2855,142.5516 1557.0355,133.6416" fill="none" id="o3-to-o5" style="stroke:#181818;stroke-width:1;"/><polygon fill="#181818" points="1562.92,132.47,1553.3122,130.3045,1558.0163,133.4464,1554.8744,138.1505,1562.92,132.47" style="stroke:#181818;stroke-width:1;"/><text fill="#000000" font-family="sans-serif" font-size="13" lengthAdjust="spacing" textLength="225.0688" x="1221.47" y="153.4984">core:hasValueExpressionAtAllTimes</text></g><!--link o3 to o6--><g class="link" data-entity-1="o3" data-entity-2="o6" data-source-line="80" data-uid="lnk30" id="link_o3_o6"><path codeLine="80" d="M1135.69,326.57 C1164.36,317.63 1190.47,309.49 1190.47,309.49 C1190.47,309.49 1220.47,273.49 1220.47,273.49 C1220.47,273.49 1411.7285,238.4029 1547.2685,213.5329" fill="none" id="o3-to-o6" style="stroke:#181818;stroke-width:1;"/><polygon fill="#181818" points="1553.17,212.45,1543.5959,210.14,1548.2521,213.3524,1545.0397,218.0086,1553.17,212.45" style="stroke:#181818;stroke-width:1;"/><text fill="#000000" font-family="sans-serif" font-size="13" lengthAdjust="spacing" textLength="225.0688" x="1221.47" y="230.5784">core:hasValueExpressionAtAllTimes</text></g><!--link o3 to o7--><g class="link" data-entity-1="o3" data-entity-2="o7" data-source-line="81" data-uid="lnk31" id="link_o3_o7"><path codeLine="81" d="M1175.53,331.59 C1200.91,327.58 1220.47,324.49 1220.47,324.49 C1220.47,324.49 1370.1128,306.5157 1499.8828,290.9257" fill="none" id="o3-to-o7" style="stroke:#181818;stroke-width:1;"/><polygon fill="#181818" points="1505.84,290.21,1496.4271,287.3121,1500.8757,290.8064,1497.3814,295.2549,1505.84,290.21" style="stroke:#181818;stroke-width:1;"/><text fill="#000000" font-family="sans-serif" font-size="13" lengthAdjust="spacing" textLength="225.0688" x="1221.47" y="295.2084">core:hasValueExpressionAtAllTimes</text></g><!--link o3 to o8--><g class="link" data-entity-1="o3" data-entity-2="o8" data-source-line="82" data-uid="lnk32" id="link_o3_o8"><path codeLine="82" d="M1175.54,349.49 C1268.59,349.49 1395.81,349.49 1501.73,349.49" fill="none" id="o3-to-o8" style="stroke:#181818;stroke-width:1;"/><polygon fill="#181818" points="1507.73,349.49,1498.73,345.49,1502.73,349.49,1498.73,353.49,1507.73,349.49" style="stroke:#181818;stroke-width:1;"/><text fill="#000000" font-family="sans-serif" font-size="13" lengthAdjust="spacing" textLength="225.0688" x="1221.47" y="346.0584">core:hasValueExpressionAtAllTimes</text></g><!--link o3 to o9--><g class="link" data-entity-1="o3" data-entity-2="o9" data-source-line="83" data-uid="lnk33" id="link_o3_o9"><path codeLine="83" d="M1175.53,367.39 C1200.91,371.4 1220.47,374.49 1220.47,374.49 C1220.47,374.49 1355.6129,390.7239 1481.1429,405.8139" fill="none" id="o3-to-o9" style="stroke:#181818;stroke-width:1;"/><polygon fill="#181818" points="1487.1,406.53,1478.6417,401.4844,1482.1357,405.9332,1477.6869,409.4272,1487.1,406.53" style="stroke:#181818;stroke-width:1;"/><text fill="#000000" font-family="sans-serif" font-size="13" lengthAdjust="spacing" textLength="225.0688" x="1221.47" y="371.0584">core:hasValueExpressionAtAllTimes</text></g><!--link o3 to o10--><g class="link" data-entity-1="o3" data-entity-2="o10" data-source-line="84" data-uid="lnk34" id="link_o3_o10"><path codeLine="84" d="M1109.68,372.29 C1156.3,394.68 1220.47,425.49 1220.47,425.49 C1220.47,425.49 1411.7285,460.5871 1547.2685,485.4571" fill="none" id="o3-to-o10" style="stroke:#181818;stroke-width:1;"/><polygon fill="#181818" points="1553.17,486.54,1545.0397,480.9814,1548.2521,485.6376,1543.5959,488.85,1553.17,486.54" style="stroke:#181818;stroke-width:1;"/><text fill="#000000" font-family="sans-serif" font-size="13" lengthAdjust="spacing" textLength="225.0688" x="1221.47" y="422.0584">core:hasValueExpressionAtAllTimes</text></g><!--link o1 to o11--><g class="link" data-entity-1="o1" data-entity-2="o11" data-source-line="85" data-uid="lnk35" id="link_o1_o11"><path codeLine="85" d="M566.87,766.77 C607.19,733.26 677.9,674.49 677.9,674.49 C677.9,674.49 852.733,635.6223 965.663,610.5123" fill="none" id="o1-to-o11" style="stroke:#181818;stroke-width:1;"/><polygon fill="#181818" points="971.52,609.21,961.8664,607.2588,966.6392,610.2952,963.6028,615.0681,971.52,609.21" style="stroke:#181818;stroke-width:1;"/><text fill="#000000" font-family="sans-serif" font-size="13" lengthAdjust="spacing" textLength="74.7246" x="752.9" y="623.4684">ex:joinedTo</text></g><!--link o11 to o12--><g class="link" data-entity-1="o11" data-entity-2="o12" data-source-line="86" data-uid="lnk36" id="link_o11_o12"><path codeLine="86" d="M1150.78,589.49 C1260.58,589.49 1441.74,589.49 1561.08,589.49" fill="none" id="o11-to-o12" style="stroke:#181818;stroke-width:1;"/><polygon fill="#181818" points="1567.08,589.49,1558.08,585.49,1562.08,589.49,1558.08,593.49,1567.08,589.49" style="stroke:#181818;stroke-width:1;"/><text fill="#000000" font-family="sans-serif" font-size="13" lengthAdjust="spacing" textLength="126.0771" x="1270.97" y="586.0584">cmns-dsg:hasName</text></g><!--link o11 to o13--><g class="link" data-entity-1="o11" data-entity-2="o13" data-source-line="87" data-uid="lnk37" id="link_o11_o13"><path codeLine="87" d="M1150.58,603.45 C1186.84,609.18 1220.47,614.49 1220.47,614.49 C1220.47,614.49 1402.6828,636.3846 1537.7428,652.6046" fill="none" id="o11-to-o13" style="stroke:#181818;stroke-width:1;"/><polygon fill="#181818" points="1543.7,653.32,1535.2412,648.2754,1538.7357,652.7238,1534.2873,656.2183,1543.7,653.32" style="stroke:#181818;stroke-width:1;"/><text fill="#000000" font-family="sans-serif" font-size="13" lengthAdjust="spacing" textLength="171.3169" x="1248.47" y="611.0584">core:measuresAtSomeTime</text></g><!--link o1 to o14--><g class="link" data-entity-1="o1" data-entity-2="o14" data-source-line="88" data-uid="lnk38" id="link_o1_o14"><path codeLine="88" d="M600.62,766.53 C637.69,752.6 677.9,737.49 677.9,737.49 C677.9,737.49 869.4827,703.4107 980.5727,683.6507" fill="none" id="o1-to-o14" style="stroke:#181818;stroke-width:1;"/><polygon fill="#181818" points="986.48,682.6,976.9186,680.2379,981.5573,683.4756,978.3196,688.1143,986.48,682.6" style="stroke:#181818;stroke-width:1;"/><text fill="#000000" font-family="sans-serif" font-size="13" lengthAdjust="spacing" textLength="74.7246" x="752.9" y="695.9884">ex:joinedTo</text></g><!--link o14 to o15--><g class="link" data-entity-1="o14" data-entity-2="o15" data-source-line="89" data-uid="lnk39" id="link_o14_o15"><path codeLine="89" d="M1135.89,679.06 C1247.19,693.52 1452.31,720.1474 1575.76,736.1774" fill="none" id="o14-to-o15" style="stroke:#181818;stroke-width:1;"/><polygon fill="#181818" points="1581.71,736.95,1573.3,731.8244,1576.7516,736.3062,1572.2699,739.7578,1581.71,736.95" style="stroke:#181818;stroke-width:1;"/><text fill="#000000" font-family="sans-serif" font-size="13" lengthAdjust="spacing" textLength="126.0771" x="1270.97" y="687.5184">cmns-dsg:hasName</text></g><!--link o1 to o16--><g class="link" data-entity-1="o1" data-entity-2="o16" data-source-line="90" data-uid="lnk40" id="link_o1_o16"><path codeLine="90" d="M648.36,781.13 C730.93,774.79 838.7176,766.5098 925.7576,759.8198" fill="none" id="o1-to-o16" style="stroke:#181818;stroke-width:1;"/><polygon fill="#181818" points="931.74,759.36,922.4599,756.0615,926.7547,759.7432,923.073,764.038,931.74,759.36" style="stroke:#181818;stroke-width:1;"/><text fill="#000000" font-family="sans-serif" font-size="13" lengthAdjust="spacing" textLength="107.6309" x="736.4" y="758.9984">core:hasFunction</text></g><!--link o1 to o17--><g class="link" data-entity-1="o1" data-entity-2="o17" data-source-line="91" data-uid="lnk41" id="link_o1_o17"><path codeLine="91" d="M648.22,800.49 C665.55,802.24 677.9,803.49 677.9,803.49 C677.9,803.49 831.6938,813.953 944.6538,821.633" fill="none" id="o1-to-o17" style="stroke:#181818;stroke-width:1;"/><polygon fill="#181818" points="950.64,822.04,941.9321,817.4387,945.6515,821.7008,941.3894,825.4203,950.64,822.04" style="stroke:#181818;stroke-width:1;"/><text fill="#000000" font-family="sans-serif" font-size="13" lengthAdjust="spacing" textLength="171.3169" x="704.4" y="800.0584">core:measuresAtSomeTime</text></g><!--link o1 to o18--><g class="link" data-entity-1="o1" data-entity-2="o18" data-source-line="92" data-uid="lnk42" id="link_o1_o18"><path codeLine="92" d="M598.21,812.39 C635.93,827.11 677.9,843.49 677.9,843.49 C677.9,843.49 854.7375,874.0189 967.5275,893.4989" fill="none" id="o1-to-o18" style="stroke:#181818;stroke-width:1;"/><polygon fill="#181818" points="973.44,894.52,965.2521,889.0466,968.5129,893.669,963.8905,896.9299,973.44,894.52" style="stroke:#181818;stroke-width:1;"/><text fill="#000000" font-family="sans-serif" font-size="13" lengthAdjust="spacing" textLength="171.3169" x="704.4" y="840.0584">core:measuresAtSomeTime</text></g><!--link o1 to o19--><g class="link" data-entity-1="o1" data-entity-2="o19" data-source-line="93" data-uid="lnk43" id="link_o1_o19"><path codeLine="93" d="M566.87,812.41 C607.19,846.22 677.9,905.49 677.9,905.49 C677.9,905.49 841.6198,941.4622 954.8798,966.3522" fill="none" id="o1-to-o19" style="stroke:#181818;stroke-width:1;"/><polygon fill="#181818" points="960.74,967.64,952.8083,961.8015,955.8565,966.5668,951.0912,969.615,960.74,967.64" style="stroke:#181818;stroke-width:1;"/><text fill="#000000" font-family="sans-serif" font-size="13" lengthAdjust="spacing" textLength="171.3169" x="704.4" y="902.0584">core:measuresAtSomeTime</text></g><!--link o1 to o20--><g class="link" data-entity-1="o1" data-entity-2="o20" data-source-line="94" data-uid="lnk44" id="link_o1_o20"><path codeLine="94" d="M556.22,812.17 C593.02,862.17 677.9,977.49 677.9,977.49 C677.9,977.49 847.6566,1018.346 960.8366,1045.586" fill="none" id="o1-to-o20" style="stroke:#181818;stroke-width:1;"/><polygon fill="#181818" points="966.67,1046.99,958.8559,1040.9951,961.8088,1045.82,956.9839,1048.773,966.67,1046.99" style="stroke:#181818;stroke-width:1;"/><text fill="#000000" font-family="sans-serif" font-size="13" lengthAdjust="spacing" textLength="222.5425" x="678.9" y="974.0584">obo:has member part at some time</text></g><!--link o20 to o21--><g class="link" data-entity-1="o20" data-entity-2="o21" data-source-line="95" data-uid="lnk45" id="link_o20_o21"><path codeLine="95" d="M1155.76,1069.49 C1264.57,1069.49 1438.25,1069.49 1555.95,1069.49" fill="none" id="o20-to-o21" style="stroke:#181818;stroke-width:1;"/><polygon fill="#181818" points="1561.95,1069.49,1552.95,1065.49,1556.95,1069.49,1552.95,1073.49,1561.95,1069.49" style="stroke:#181818;stroke-width:1;"/><text fill="#000000" font-family="sans-serif" font-size="13" lengthAdjust="spacing" textLength="126.0771" x="1270.97" y="1066.0584">cmns-dsg:hasName</text></g><!--link o1 to o22--><g class="link" data-entity-1="o1" data-entity-2="o22" data-source-line="96" data-uid="lnk46" id="link_o1_o22"><path codeLine="96" d="M551.32,812.09 C584.79,876.17 677.9,1054.49 677.9,1054.49 C677.9,1054.49 859.5071,1099.6228 971.8871,1127.5528" fill="none" id="o1-to-o22" style="stroke:#181818;stroke-width:1;"/><polygon fill="#181818" points="977.71,1129,969.9405,1122.9473,972.8576,1127.794,968.0109,1130.7112,977.71,1129" style="stroke:#181818;stroke-width:1;"/><text fill="#000000" font-family="sans-serif" font-size="13" lengthAdjust="spacing" textLength="222.5425" x="678.9" y="1051.0584">obo:has member part at some time</text></g><!--link o22 to o23--><g class="link" data-entity-1="o22" data-entity-2="o23" data-source-line="97" data-uid="lnk47" id="link_o22_o23"><path codeLine="97" d="M1144.63,1149.49 C1255.21,1149.49 1445.65,1149.49 1566.85,1149.49" fill="none" id="o22-to-o23" style="stroke:#181818;stroke-width:1;"/><polygon fill="#181818" points="1572.85,1149.49,1563.85,1145.49,1567.85,1149.49,1563.85,1153.49,1572.85,1149.49" style="stroke:#181818;stroke-width:1;"/><text fill="#000000" font-family="sans-serif" font-size="13" lengthAdjust="spacing" textLength="126.0771" x="1270.97" y="1146.0584">cmns-dsg:hasName</text></g><!--link o24 to o1--><g class="link" data-entity-1="o24" data-entity-2="o1" data-source-line="98" data-uid="lnk48" id="link_o24_o1"><path codeLine="98" d="M145.51,789.49 C220.29,789.49 335.12,789.49 422.89,789.49" fill="none" id="o24-to-o1" style="stroke:#181818;stroke-width:1;"/><polygon fill="#181818" points="428.89,789.49,419.89,785.49,423.89,789.49,419.89,793.49,428.89,789.49" style="stroke:#181818;stroke-width:1;"/><text fill="#000000" font-family="sans-serif" font-size="13" lengthAdjust="spacing" textLength="222.5425" x="176.15" y="786.0584">obo:has member part at some time</text></g><!--SRC=[hPPTRzem58Rl-HLMxzCruJlI9b6W7L83253LgQec9nXmQyUPRJJOjFy-Emc9-MgJZJlmUVtuFJwSOyGR3YF88GK4XqXk8mGYHhRwIuMWXGII0OwNAmdccAD0OXPMcF-gFe6hv-VhJnxy1T-ipVLAKWBcK48tNNbvkG9G06Q3tnKGSpy3j74V51XoZsdGT2iaeXNm9oEQ02k452KCns04D1JMN2pTeGgVtIiY52Hxg-PUnf7RGm8lmwaIu0KEO9pHUnZheJ-ydtsrXepY49A4MZkaFaAoHlrDn94G7nC7mtvdylrkDEdsBGzkC5tJX5k_81U7ERVnNzp7_iEeEvXzioQTyQ2txxXvKRBfkNKPydWokfzqFAz_OBnzURpfthufmSyx2OK1OMBD4JrggJoKzTP1SqqbNmTIASvupmb6SzbbkykWgFQD48Vwo1HcjjkFo9tbWjFvRbH9n76koNAMPwrSdibkCyTwwGcoM8Vnj4i1ZNq7OwuEKBCZI2PP5qRGnmJBxLbUn0JMKWigvxinOZVthwk7HKHWW2WAvOUa5D7w1yHntTfbwsOz-P0G4N3qyxXwHd1NG-Tc_mPlTuAp9dE6-HJOHIgvvvCooVWfZt4Wy-Vi-_DqyBotUA_fgrhArw6TpCN1Bzs3mKe_nPfX0ylweXz3DpzW1KLyHhAgfunQcM8Q4MFIn8D7yPuoHdMdrfA0On_DRxSLjHn7QmRhO6XrP8UG6QP8PEfwANMZbBfPIjqgfMwNKgjnNaYUNh2QpAwktojJrPlFM4Ml997JzSl2MMaeWdh8YewSCeeqFgVNZkYrD58_JK-ZvktVfGCkZpQB7Dqg8ceN43dwHfdFj1T04VKH1-gVg0HG0g74GCPg9KlazdkPEKunc9FAgwURQ7UB1M1_0G00]--></g></svg>