<svg xmlns="http://www.w3.org/2000/svg" xmlns:xlink="http://www.w3.org/1999/xlink" contentStyleType="text/css" data-diagram-type="CLASS" height="948px" preserveAspectRatio="none" style="width:1801px;height:948px;background:#FFFFFF;" version="1.1" viewBox="0 0 1801 948" width="1801px" zoomAndPan="magnify"><title>Mazak-c2</title><defs/><g><text fill="#000000" font-family="sans-serif" font-size="14" font-weight="bold" lengthAdjust="spacing" textLength="71.9277" x="858.0351" y="23.5352">Mazak-c2</text><g class="entity" data-entity="o1" data-source-line="4" data-uid="ent0002" id="entity_o1"><rect fill="#F1F1F1" height="44.9766" rx="2.5" ry="2.5" style="stroke:#181818;stroke-width:0.5;" width="220.7559" x="429.15" y="568.7283"/><a href="./Mazak-c2.html" target="_top" title="./Mazak-c2.html" xlink:actuate="onRequest" xlink:href="./Mazak-c2.html" xlink:show="new" xlink:title="./Mazak-c2.html" xlink:type="simple"><text fill="#0000FF" font-family="sans-serif" font-size="14" lengthAdjust="spacing" text-decoration="underline" textLength="101.7939" x="488.631" y="584.2634">data:Mazak-c2</text></a><line style="stroke:#181818;stroke-width:0.5;" x1="430.15" x2="648.9059" y1="589.2166" y2="589.2166"/><text fill="#000000" font-family="sans-serif" font-size="14" lengthAdjust="spacing" textLength="208.7559" x="435.15" y="606.7517">type = ex:RotaryMotionSystem</text></g><g class="entity" data-entity="o2" data-source-line="7" data-uid="ent0003" id="entity_o2"><rect fill="#F1F1F1" height="61.4648" rx="2.5" ry="2.5" style="stroke:#181818;stroke-width:0.5;" width="264.6699" x="933.91" y="176.4883"/><text fill="#000000" font-family="sans-serif" font-size="14" lengthAdjust="spacing" textLength="147.1846" x="992.6527" y="192.0234">data:Mazak-c2-name</text><line style="stroke:#181818;stroke-width:0.5;" x1="934.91" x2="1197.5799" y1="196.9766" y2="196.9766"/><text fill="#000000" font-family="sans-serif" font-size="14" lengthAdjust="spacing" textLength="161.3691" x="939.91" y="214.5117">type = cmns-dsg:Name</text><text fill="#000000" font-family="sans-serif" font-size="14" lengthAdjust="spacing" textLength="252.6699" x="939.91" y="231">core:hasSimpleExpressionValue = C2</text></g><g class="entity" data-entity="o3" data-source-line="10" data-uid="ent0004" id="entity_o3"><rect fill="#F1F1F1" height="44.9766" rx="2.5" ry="2.5" style="stroke:#181818;stroke-width:0.5;" width="227.8037" x="952.34" y="272.7283"/><text fill="#000000" font-family="sans-serif" font-size="14" lengthAdjust="spacing" textLength="140.8135" x="995.8351" y="288.2634">data:Mazak-c2-spec</text><line style="stroke:#181818;stroke-width:0.5;" x1="953.34" x2="1179.1437" y1="293.2166" y2="293.2166"/><text fill="#000000" font-family="sans-serif" font-size="14" lengthAdjust="spacing" textLength="215.8037" x="958.34" y="310.7517">type = core:DesignSpecification</text></g><g class="entity" data-entity="o4" data-source-line="13" data-uid="ent0005" id="entity_o4"><rect fill="#F1F1F1" height="61.4648" rx="2.5" ry="2.5" style="stroke:#181818;stroke-width:0.5;" width="285.9707" x="1497.3" y="44.4883"/><text fill="#000000" font-family="sans-serif" font-size="14" lengthAdjust="spacing" textLength="269.4385" x="1505.5661" y="60.0234">data:Mazak-c2-spec-ANGLE-Maximum</text><line style="stroke:#181818;stroke-width:0.5;" x1="1498.3" x2="1782.2707" y1="64.9766" y2="64.9766"/><text fill="#000000" font-family="sans-serif" font-size="14" lengthAdjust="spacing" textLength="194.4209" x="1503.3" y="82.5117">type = core:ValueExpression</text><text fill="#000000" font-family="sans-serif" font-size="14" lengthAdjust="spacing" textLength="273.9707" x="1503.3" y="99">core:hasSimpleExpressionValue = 360.0</text></g><g class="entity" data-entity="o5" data-source-line="16" data-uid="ent0006" id="entity_o5"><rect fill="#F1F1F1" height="61.4648" rx="2.5" ry="2.5" style="stroke:#181818;stroke-width:0.5;" width="294.0713" x="1493.25" y="140.4883"/><text fill="#000000" font-family="sans-serif" font-size="14" lengthAdjust="spacing" textLength="265.8564" x="1507.3574" y="156.0234">data:Mazak-c2-spec-ANGLE-Minimum</text><line style="stroke:#181818;stroke-width:0.5;" x1="1494.25" x2="1786.3213" y1="160.9766" y2="160.9766"/><text fill="#000000" font-family="sans-serif" font-size="14" lengthAdjust="spacing" textLength="194.4209" x="1499.25" y="178.5117">type = core:ValueExpression</text><text fill="#000000" font-family="sans-serif" font-size="14" lengthAdjust="spacing" textLength="282.0713" x="1499.25" y="195">core:hasSimpleExpressionValue = -360.0</text></g><g class="entity" data-entity="o6" data-source-line="19" data-uid="ent0007" id="entity_o6"><rect fill="#F1F1F1" height="61.4648" rx="2.5" ry="2.5" style="stroke:#181818;stroke-width:0.5;" width="295.0117" x="1492.78" y="236.4883"/><text fill="#000000" font-family="sans-serif" font-size="14" lengthAdjust="spacing" textLength="281.0117" x="1499.78" y="252.0234">data:Mazak-c2-spec-TORQUE-Maximum</text><line style="stroke:#181818;stroke-width:0.5;" x1="1493.78" x2="1786.7917" y1="256.9766" y2="256.9766"/><text fill="#000000" font-family="sans-serif" font-size="14" lengthAdjust="spacing" textLength="194.4209" x="1498.78" y="274.5117">type = core:ValueExpression</text><text fill="#000000" font-family="sans-serif" font-size="14" lengthAdjust="spacing" textLength="273.9707" x="1498.78" y="291">core:hasSimpleExpressionValue = 400.0</text></g><g class="entity" data-entity="o7" data-source-line="22" data-uid="ent0008" id="entity_o7"><rect fill="#F1F1F1" height="61.4648" rx="2.5" ry="2.5" style="stroke:#181818;stroke-width:0.5;" width="291.4297" x="1494.57" y="332.4883"/><text fill="#000000" font-family="sans-serif" font-size="14" lengthAdjust="spacing" textLength="277.4297" x="1501.57" y="348.0234">data:Mazak-c2-spec-TORQUE-Minimum</text><line style="stroke:#181818;stroke-width:0.5;" x1="1495.57" x2="1784.9997" y1="352.9766" y2="352.9766"/><text fill="#000000" font-family="sans-serif" font-size="14" lengthAdjust="spacing" textLength="194.4209" x="1500.57" y="370.5117">type = core:ValueExpression</text><text fill="#000000" font-family="sans-serif" font-size="14" lengthAdjust="spacing" textLength="256.2656" x="1500.57" y="387">core:hasSimpleExpressionValue = 0.0</text></g><g class="entity" data-entity="o8" data-source-line="25" data-uid="ent0009" id="entity_o8"><rect fill="#F1F1F1" height="44.9766" rx="2.5" ry="2.5" style="stroke:#181818;stroke-width:0.5;" width="148.7705" x="991.86" y="408.7283"/><a href="./Mazak-trundle.html" target="_top" title="./Mazak-trundle.html" xlink:actuate="onRequest" xlink:href="./Mazak-trundle.html" xlink:show="new" xlink:title="./Mazak-trundle.html" xlink:type="simple"><text fill="#0000FF" font-family="sans-serif" font-size="14" lengthAdjust="spacing" text-decoration="underline" textLength="134.7705" x="998.86" y="424.2634">data:Mazak-trundle</text></a><line style="stroke:#181818;stroke-width:0.5;" x1="992.86" x2="1139.6305" y1="429.2166" y2="429.2166"/><text fill="#000000" font-family="sans-serif" font-size="14" lengthAdjust="spacing" textLength="131.7832" x="997.86" y="446.7517">type = ex:Structure</text></g><g class="entity" data-entity="o9" data-source-line="28" data-uid="ent0010" id="entity_o9"><rect fill="#F1F1F1" height="61.4648" rx="2.5" ry="2.5" style="stroke:#181818;stroke-width:0.5;" width="309.418" x="1485.58" y="428.4883"/><text fill="#000000" font-family="sans-serif" font-size="14" lengthAdjust="spacing" textLength="180.1611" x="1550.2084" y="444.0234">data:Mazak-trundle-name</text><line style="stroke:#181818;stroke-width:0.5;" x1="1486.58" x2="1793.998" y1="448.9766" y2="448.9766"/><text fill="#000000" font-family="sans-serif" font-size="14" lengthAdjust="spacing" textLength="161.3691" x="1491.58" y="466.5117">type = cmns-dsg:Name</text><text fill="#000000" font-family="sans-serif" font-size="14" lengthAdjust="spacing" textLength="297.418" x="1491.58" y="483">core:hasSimpleExpressionValue = TRUNDLE</text></g><g class="entity" data-entity="o10" data-source-line="31" data-uid="ent0011" id="entity_o10"><rect fill="#F1F1F1" height="44.9766" rx="2.5" ry="2.5" style="stroke:#181818;stroke-width:0.5;" width="143.7832" x="994.35" y="488.7283"/><a href="./Mazak-table.html" target="_top" title="./Mazak-table.html" xlink:actuate="onRequest" xlink:href="./Mazak-table.html" xlink:show="new" xlink:title="./Mazak-table.html" xlink:type="simple"><text fill="#0000FF" font-family="sans-serif" font-size="14" lengthAdjust="spacing" text-decoration="underline" textLength="119.3965" x="1006.5434" y="504.2634">data:Mazak-table</text></a><line style="stroke:#181818;stroke-width:0.5;" x1="995.35" x2="1137.1332" y1="509.2166" y2="509.2166"/><text fill="#000000" font-family="sans-serif" font-size="14" lengthAdjust="spacing" textLength="131.7832" x="1000.35" y="526.7517">type = ex:Structure</text></g><g class="entity" data-entity="o11" data-source-line="34" data-uid="ent0012" id="entity_o11"><rect fill="#F1F1F1" height="61.4648" rx="2.5" ry="2.5" style="stroke:#181818;stroke-width:0.5;" width="287.748" x="1496.41" y="524.4883"/><text fill="#000000" font-family="sans-serif" font-size="14" lengthAdjust="spacing" textLength="164.7871" x="1557.8905" y="540.0234">data:Mazak-table-name</text><line style="stroke:#181818;stroke-width:0.5;" x1="1497.41" x2="1783.158" y1="544.9766" y2="544.9766"/><text fill="#000000" font-family="sans-serif" font-size="14" lengthAdjust="spacing" textLength="161.3691" x="1502.41" y="562.5117">type = cmns-dsg:Name</text><text fill="#000000" font-family="sans-serif" font-size="14" lengthAdjust="spacing" textLength="275.748" x="1502.41" y="579">core:hasSimpleExpressionValue = TABLE</text></g><g class="entity" data-entity="o12" data-source-line="37" data-uid="ent0013" id="entity_o12"><rect fill="#F1F1F1" height="44.9766" rx="2.5" ry="2.5" style="stroke:#181818;stroke-width:0.5;" width="254.9287" x="938.78" y="568.7283"/><text fill="#000000" font-family="sans-serif" font-size="14" lengthAdjust="spacing" textLength="166.1611" x="983.1638" y="584.2634">data:Mazak-c2-function</text><line style="stroke:#181818;stroke-width:0.5;" x1="939.78" x2="1192.7087" y1="589.2166" y2="589.2166"/><text fill="#000000" font-family="sans-serif" font-size="14" lengthAdjust="spacing" textLength="242.9287" x="944.78" y="606.7517">type = ex:RevoluteMotionCapability</text></g><g class="entity" data-entity="o13" data-source-line="40" data-uid="ent0014" id="entity_o13"><rect fill="#F1F1F1" height="44.9766" rx="2.5" ry="2.5" style="stroke:#181818;stroke-width:0.5;" width="160.8906" x="985.8" y="648.7283"/><text fill="#000000" font-family="sans-serif" font-size="14" lengthAdjust="spacing" textLength="146.8906" x="992.8" y="664.2634">data:Mazak-c2-angle</text><line style="stroke:#181818;stroke-width:0.5;" x1="986.8" x2="1145.6906" y1="669.2166" y2="669.2166"/><text fill="#000000" font-family="sans-serif" font-size="14" lengthAdjust="spacing" textLength="110.127" x="991.8" y="686.7517">type = qp:Angle</text></g><g class="entity" data-entity="o14" data-source-line="43" data-uid="ent0015" id="entity_o14"><rect fill="#F1F1F1" height="44.9766" rx="2.5" ry="2.5" style="stroke:#181818;stroke-width:0.5;" width="209.5967" x="961.44" y="728.7283"/><text fill="#000000" font-family="sans-serif" font-size="14" lengthAdjust="spacing" textLength="195.5967" x="968.44" y="744.2634">data:Mazak-c2-angle-actual</text><line style="stroke:#181818;stroke-width:0.5;" x1="962.44" x2="1170.0367" y1="749.2166" y2="749.2166"/><text fill="#000000" font-family="sans-serif" font-size="14" lengthAdjust="spacing" textLength="110.127" x="967.44" y="766.7517">type = qp:Angle</text></g><g class="entity" data-entity="o15" data-source-line="46" data-uid="ent0016" id="entity_o15"><rect fill="#F1F1F1" height="44.9766" rx="2.5" ry="2.5" style="stroke:#181818;stroke-width:0.5;" width="207.5254" x="962.48" y="808.7283"/><text fill="#000000" font-family="sans-serif" font-size="14" lengthAdjust="spacing" textLength="193.5254" x="969.48" y="824.2634">data:Mazak-c2-temperature</text><line style="stroke:#181818;stroke-width:0.5;" x1="963.48" x2="1169.0054" y1="829.2166" y2="829.2166"/><text fill="#000000" font-family="sans-serif" font-size="14" lengthAdjust="spacing" textLength="158.4502" x="968.48" y="846.7517">type = qp:Temperature</text></g><g class="entity" data-entity="o16" data-source-line="49" data-uid="ent0017" id="entity_o16"><rect fill="#F1F1F1" height="44.9766" rx="2.5" ry="2.5" style="stroke:#181818;stroke-width:0.5;" width="174.8154" x="978.83" y="888.7283"/><a href="./Mazak-c2-Cmotor.html" target="_top" title="./Mazak-c2-Cmotor.html" xlink:actuate="onRequest" xlink:href="./Mazak-c2-Cmotor.html" xlink:show="new" xlink:title="./Mazak-c2-Cmotor.html" xlink:type="simple"><text fill="#0000FF" font-family="sans-serif" font-size="14" lengthAdjust="spacing" text-decoration="underline" textLength="160.8154" x="985.83" y="904.2634">data:Mazak-c2-Cmotor</text></a><line style="stroke:#181818;stroke-width:0.5;" x1="979.83" x2="1152.6454" y1="909.2166" y2="909.2166"/><text fill="#000000" font-family="sans-serif" font-size="14" lengthAdjust="spacing" textLength="110.1885" x="984.83" y="926.7517">type = ex:Motor</text></g><g class="entity" data-entity="o17" data-source-line="52" data-uid="ent0018" id="entity_o17"><rect fill="#F1F1F1" height="61.4648" rx="2.5" ry="2.5" style="stroke:#181818;stroke-width:0.5;" width="297.0518" x="1491.76" y="880.4883"/><text fill="#000000" font-family="sans-serif" font-size="14" lengthAdjust="spacing" textLength="206.2061" x="1537.1829" y="896.0234">data:Mazak-c2-Cmotor-name</text><line style="stroke:#181818;stroke-width:0.5;" x1="1492.76" x2="1787.8118" y1="900.9766" y2="900.9766"/><text fill="#000000" font-family="sans-serif" font-size="14" lengthAdjust="spacing" textLength="161.3691" x="1497.76" y="918.5117">type = cmns-dsg:Name</text><text fill="#000000" font-family="sans-serif" font-size="14" lengthAdjust="spacing" textLength="285.0518" x="1497.76" y="935">core:hasSimpleExpressionValue = Cmotor</text></g><g class="entity" data-entity="o18" data-source-line="55" data-uid="ent0019" id="entity_o18"><rect fill="#F1F1F1" height="44.9766" rx="2.5" ry="2.5" style="stroke:#181818;stroke-width:0.5;" width="138.1504" x="7" y="568.7283"/><a href="./Mazak.html" target="_top" title="./Mazak.html" xlink:actuate="onRequest" xlink:href="./Mazak.html" xlink:show="new" xlink:title="./Mazak.html" xlink:type="simple"><text fill="#0000FF" font-family="sans-serif" font-size="14" lengthAdjust="spacing" text-decoration="underline" textLength="77.6699" x="37.2402" y="584.2634">data:Mazak</text></a><line style="stroke:#181818;stroke-width:0.5;" x1="8" x2="144.1504" y1="589.2166" y2="589.2166"/><text fill="#000000" font-family="sans-serif" font-size="14" lengthAdjust="spacing" textLength="126.1504" x="13" y="606.7517">type = ex:Machine</text></g><!--link o1 to o2--><g class="link" data-entity-1="o1" data-entity-2="o2" data-source-line="58" data-uid="lnk20" id="link_o1_o2"><path codeLine="58" d="M552.9,568.4083 C587.01,505.5083 679.91,334.2183 679.91,334.2183 C679.91,334.2183 850.6915,277.9263 964.7815,240.3263" fill="none" id="o1-to-o2" style="stroke:#181818;stroke-width:1;"/><polygon fill="#181818" points="970.48,238.4483,960.6802,237.4663,965.7312,240.0133,963.1843,245.0643,970.48,238.4483" style="stroke:#181818;stroke-width:1;"/><text fill="#000000" font-family="sans-serif" font-size="13" lengthAdjust="spacing" textLength="126.0771" x="728.91" y="259.6766">cmns-dsg:hasName</text></g><!--link o1 to o3--><g class="link" data-entity-1="o1" data-entity-2="o3" data-source-line="60" data-uid="lnk21" id="link_o1_o3"><path codeLine="60" d="M561.7,568.4383 C600.69,526.4683 679.91,441.2183 679.91,441.2183 C679.91,441.2183 890.4793,361.4343 998.9993,320.3143" fill="none" id="o1-to-o3" style="stroke:#181818;stroke-width:1;"/><polygon fill="#181818" points="1004.61,318.1883,994.7766,317.6368,999.9344,319.9599,997.6113,325.1177,1004.61,318.1883" style="stroke:#181818;stroke-width:1;"/><text fill="#000000" font-family="sans-serif" font-size="13" lengthAdjust="spacing" textLength="112.3027" x="735.91" y="356.0466">core:prescribedBy</text></g><!--link o3 to o4--><g class="link" data-entity-1="o3" data-entity-2="o4" data-source-line="61" data-uid="lnk22" id="link_o3_o4"><path codeLine="61" d="M1142.5,272.2983 C1171.84,263.3583 1198.58,255.2183 1198.58,255.2183 C1198.58,255.2183 1228.58,184.2183 1228.58,184.2183 C1228.58,184.2183 1394.6907,140.1272 1516.0707,107.9172" fill="none" id="o3-to-o4" style="stroke:#181818;stroke-width:1;"/><polygon fill="#181818" points="1521.87,106.3783,1512.1451,104.8205,1517.0373,107.6607,1514.197,112.5529,1521.87,106.3783" style="stroke:#181818;stroke-width:1;"/><text fill="#000000" font-family="sans-serif" font-size="13" lengthAdjust="spacing" textLength="225.0688" x="1229.58" y="123.0166">core:hasValueExpressionAtAllTimes</text></g><!--link o3 to o5--><g class="link" data-entity-1="o3" data-entity-2="o5" data-source-line="63" data-uid="lnk23" id="link_o3_o5"><path codeLine="63" d="M1151.22,272.3183 C1190.42,261.6183 1228.58,251.2183 1228.58,251.2183 C1228.58,251.2183 1369.1507,223.8357 1487.1507,200.8457" fill="none" id="o3-to-o5" style="stroke:#181818;stroke-width:1;"/><polygon fill="#181818" points="1493.04,199.6983,1483.4412,197.4932,1488.1323,200.6545,1484.971,205.3456,1493.04,199.6983" style="stroke:#181818;stroke-width:1;"/><text fill="#000000" font-family="sans-serif" font-size="13" lengthAdjust="spacing" textLength="225.0688" x="1229.58" y="205.3866">core:hasValueExpressionAtAllTimes</text></g><!--link o3 to o6--><g class="link" data-entity-1="o3" data-entity-2="o6" data-source-line="65" data-uid="lnk24" id="link_o3_o6"><path codeLine="65" d="M1180.6,289.6683 C1270.01,285.2883 1389.3972,279.4521 1486.4872,274.6921" fill="none" id="o3-to-o6" style="stroke:#181818;stroke-width:1;"/><polygon fill="#181818" points="1492.48,274.3983,1483.2949,270.8438,1487.486,274.6431,1483.6867,278.8342,1492.48,274.3983" style="stroke:#181818;stroke-width:1;"/><text fill="#000000" font-family="sans-serif" font-size="13" lengthAdjust="spacing" textLength="225.0688" x="1229.58" y="272.8366">core:hasValueExpressionAtAllTimes</text></g><!--link o3 to o7--><g class="link" data-entity-1="o3" data-entity-2="o7" data-source-line="67" data-uid="lnk25" id="link_o3_o7"><path codeLine="67" d="M1180.6,308.6883 C1270.58,319.3883 1391.0319,333.7101 1488.3719,345.2801" fill="none" id="o3-to-o7" style="stroke:#181818;stroke-width:1;"/><polygon fill="#181818" points="1494.33,345.9883,1485.865,340.954,1489.365,345.3981,1484.9208,348.898,1494.33,345.9883" style="stroke:#181818;stroke-width:1;"/><text fill="#000000" font-family="sans-serif" font-size="13" lengthAdjust="spacing" textLength="225.0688" x="1229.58" y="311.8766">core:hasValueExpressionAtAllTimes</text></g><!--link o1 to o8--><g class="link" data-entity-1="o1" data-entity-2="o8" data-source-line="69" data-uid="lnk26" id="link_o1_o8"><path codeLine="69" d="M579.72,568.4383 C620.95,544.4783 679.91,510.2183 679.91,510.2183 C679.91,510.2183 873.6323,470.5034 985.5223,447.5634" fill="none" id="o1-to-o8" style="stroke:#181818;stroke-width:1;"/><polygon fill="#181818" points="991.4,446.3583,981.78,444.2474,986.5019,447.3625,983.3868,452.0844,991.4,446.3583" style="stroke:#181818;stroke-width:1;"/><text fill="#000000" font-family="sans-serif" font-size="13" lengthAdjust="spacing" textLength="74.7246" x="754.91" y="462.5566">ex:joinedTo</text></g><!--link o8 to o9--><g class="link" data-entity-1="o8" data-entity-2="o9" data-source-line="70" data-uid="lnk27" id="link_o8_o9"><path codeLine="70" d="M1140.85,434.8183 C1227.46,439.0583 1367.5972,445.9148 1479.2972,451.3848" fill="none" id="o8-to-o9" style="stroke:#181818;stroke-width:1;"/><polygon fill="#181818" points="1485.29,451.6783,1476.4964,447.2429,1480.296,451.4337,1476.1051,455.2333,1485.29,451.6783" style="stroke:#181818;stroke-width:1;"/><text fill="#000000" font-family="sans-serif" font-size="13" lengthAdjust="spacing" textLength="126.0771" x="1279.08" y="436.0566">cmns-dsg:hasName</text></g><!--link o1 to o10--><g class="link" data-entity-1="o1" data-entity-2="o10" data-source-line="72" data-uid="lnk28" id="link_o1_o10"><path codeLine="72" d="M650.35,571.5183 C667.62,568.4183 679.91,566.2183 679.91,566.2183 C679.91,566.2183 876.8402,538.106 988.1802,522.216" fill="none" id="o1-to-o10" style="stroke:#181818;stroke-width:1;"/><polygon fill="#181818" points="994.12,521.3683,984.6451,518.68,989.1702,522.0747,985.7754,526.5997,994.12,521.3683" style="stroke:#181818;stroke-width:1;"/><text fill="#000000" font-family="sans-serif" font-size="13" lengthAdjust="spacing" textLength="74.7246" x="754.91" y="531.9866">ex:joinedTo</text></g><!--link o10 to o11--><g class="link" data-entity-1="o10" data-entity-2="o11" data-source-line="73" data-uid="lnk29" id="link_o10_o11"><path codeLine="73" d="M1138.53,516.6983 C1227.64,523.5483 1376.2777,534.9883 1490.1977,543.7483" fill="none" id="o10-to-o11" style="stroke:#181818;stroke-width:1;"/><polygon fill="#181818" points="1496.18,544.2083,1487.5132,539.53,1491.1947,543.8249,1486.8998,547.5065,1496.18,544.2083" style="stroke:#181818;stroke-width:1;"/><text fill="#000000" font-family="sans-serif" font-size="13" lengthAdjust="spacing" textLength="126.0771" x="1279.08" y="520.7866">cmns-dsg:hasName</text></g><!--link o1 to o12--><g class="link" data-entity-1="o1" data-entity-2="o12" data-source-line="75" data-uid="lnk30" id="link_o1_o12"><path codeLine="75" d="M650.21,591.2183 C734.33,591.2183 844.57,591.2183 932.64,591.2183" fill="none" id="o1-to-o12" style="stroke:#181818;stroke-width:1;"/><polygon fill="#181818" points="938.64,591.2183,929.64,587.2183,933.64,591.2183,929.64,595.2183,938.64,591.2183" style="stroke:#181818;stroke-width:1;"/><text fill="#000000" font-family="sans-serif" font-size="13" lengthAdjust="spacing" textLength="107.6309" x="738.41" y="587.7866">core:hasFunction</text></g><!--link o1 to o13--><g class="link" data-entity-1="o1" data-entity-2="o13" data-source-line="76" data-uid="lnk31" id="link_o1_o13"><path codeLine="76" d="M650.35,610.9183 C667.62,614.0083 679.91,616.2183 679.91,616.2183 C679.91,616.2183 866.5902,642.8605 979.4602,658.9705" fill="none" id="o1-to-o13" style="stroke:#181818;stroke-width:1;"/><polygon fill="#181818" points="985.4,659.8183,977.0555,654.5867,980.4502,659.1118,975.9251,662.5065,985.4,659.8183" style="stroke:#181818;stroke-width:1;"/><text fill="#000000" font-family="sans-serif" font-size="13" lengthAdjust="spacing" textLength="171.3169" x="706.41" y="612.7866">core:measuresAtSomeTime</text></g><!--link o1 to o14--><g class="link" data-entity-1="o1" data-entity-2="o14" data-source-line="77" data-uid="lnk32" id="link_o1_o14"><path codeLine="77" d="M579.72,613.9983 C620.95,637.9483 679.91,672.2183 679.91,672.2183 C679.91,672.2183 840.9723,705.233 955.0823,728.633" fill="none" id="o1-to-o14" style="stroke:#181818;stroke-width:1;"/><polygon fill="#181818" points="960.96,729.8383,952.947,724.1119,956.0619,728.8339,951.3399,731.9488,960.96,729.8383" style="stroke:#181818;stroke-width:1;"/><text fill="#000000" font-family="sans-serif" font-size="13" lengthAdjust="spacing" textLength="171.3169" x="706.41" y="668.7866">core:measuresAtSomeTime</text></g><!--link o1 to o15--><g class="link" data-entity-1="o1" data-entity-2="o15" data-source-line="78" data-uid="lnk33" id="link_o1_o15"><path codeLine="78" d="M561.7,613.9983 C600.69,655.9583 679.91,741.2183 679.91,741.2183 C679.91,741.2183 846.9972,780.2439 961.1672,806.9039" fill="none" id="o1-to-o15" style="stroke:#181818;stroke-width:1;"/><polygon fill="#181818" points="967.01,808.2683,959.1554,802.3265,962.141,807.1313,957.3362,810.1169,967.01,808.2683" style="stroke:#181818;stroke-width:1;"/><text fill="#000000" font-family="sans-serif" font-size="13" lengthAdjust="spacing" textLength="171.3169" x="706.41" y="737.7866">core:measuresAtSomeTime</text></g><!--link o1 to o16--><g class="link" data-entity-1="o1" data-entity-2="o16" data-source-line="79" data-uid="lnk34" id="link_o1_o16"><path codeLine="79" d="M554.66,614.0283 C590.09,671.2283 679.91,816.2183 679.91,816.2183 C679.91,816.2183 859.3244,860.452 972.9344,888.462" fill="none" id="o1-to-o16" style="stroke:#181818;stroke-width:1;"/><polygon fill="#181818" points="978.76,889.8983,970.9792,883.8602,973.9054,888.7014,969.0642,891.6276,978.76,889.8983" style="stroke:#181818;stroke-width:1;"/><text fill="#000000" font-family="sans-serif" font-size="13" lengthAdjust="spacing" textLength="222.5425" x="680.91" y="812.7866">obo:has member part at some time</text></g><!--link o16 to o17--><g class="link" data-entity-1="o16" data-entity-2="o17" data-source-line="80" data-uid="lnk35" id="link_o16_o17"><path codeLine="80" d="M1154.12,911.2183 C1243.51,911.2183 1378.42,911.2183 1485.4,911.2183" fill="none" id="o16-to-o17" style="stroke:#181818;stroke-width:1;"/><polygon fill="#181818" points="1491.4,911.2183,1482.4,907.2183,1486.4,911.2183,1482.4,915.2183,1491.4,911.2183" style="stroke:#181818;stroke-width:1;"/><text fill="#000000" font-family="sans-serif" font-size="13" lengthAdjust="spacing" textLength="126.0771" x="1279.08" y="907.7866">cmns-dsg:hasName</text></g><!--link o18 to o1--><g class="link" data-entity-1="o18" data-entity-2="o1" data-source-line="82" data-uid="lnk36" id="link_o18_o1"><path codeLine="82" d="M145.16,591.2183 C219.87,591.2183 334.87,591.2183 422.97,591.2183" fill="none" id="o18-to-o1" style="stroke:#181818;stroke-width:1;"/><polygon fill="#181818" points="428.97,591.2183,419.97,587.2183,423.97,591.2183,419.97,595.2183,428.97,591.2183" style="stroke:#181818;stroke-width:1;"/><text fill="#000000" font-family="sans-serif" font-size="13" lengthAdjust="spacing" textLength="222.5425" x="176.15" y="587.7866">obo:has member part at some time</text></g><!--SRC=[hPPDSzem48Rl_XMQt4tvDC4pxOn3Q2-1Je7qaib1jWKeaInNaZlGJlzx9TlOiciQCUsHtNUVNMi_1l6AanHoI0712PAd586KaPF-uH2qaq0omF7-846CEOeaPeaZiIG8BE4F-Ef6GuU5Bye1RfwUUk_Enjv1KW9YAA5_DZq_tm0e01k0dmx84xq7wEYlcOJyj6IQl3a9YQW3VbNC1i5D84K5P6X08fe8DnPxVwNSbuD5Yg8YU6G6CuxyUoJmFjae0TxX2EOV-LUE6wm-FIpS9JnYcj62EcvJlqAIeSKnvKW8Qo9EQkBatuZRp-ilZwqYlV-3DAkSNe6iHqJoB8a9-cDEIljvM6wRmx9HxaXc_5ARosXZK6OsWsAK1SEkehIrcj_-bJNfOAEYmU3wsTrbIRvw9M7OMY7qdP5CecA9vZ258IPOdYxpOB8dvtBCRVYM-e5slH7fGlN1a9I0yLK0jU0fub0_M1a_QSPlQq5tZnHaJfbalEF8b9wgLrxpfPRQURcs8jZirVIgyMaNL9NH6kCbZ0xwm6h60BZk1ttG_3h10OeyHs7LEwKi6qnJOknLlcQADnzMaD5PhZKHno6AxqwECkVUiG5hxMWW0qAsc2BXD6INSewyVgzVWITsu8a5s6sIFJkoPq4Uzqtmr0uyjG3dsB81jqgl-ll2L7VZBNEK8RVFEhixiw1lru-h-uT5bK5TdrOAPIayWyuaXVcjBC6TcSCSku_bwQczrPHH18NQKX783QD8Fraj6jk89ZOYtLmMCbqBe8Y6Y0FrXqK2A85GOY0BjLVAfzslODF9OlqTlQu5ooBpRm00]--></g></svg>