<svg xmlns="http://www.w3.org/2000/svg" xmlns:xlink="http://www.w3.org/1999/xlink" contentStyleType="text/css" data-diagram-type="CLASS" height="395px" preserveAspectRatio="none" style="width:1854px;height:395px;background:#FFFFFF;" version="1.1" viewBox="0 0 1854 395" width="1854px" zoomAndPan="magnify"><defs/><g><g class="entity" data-entity="o1" data-source-line="3" data-uid="ent0002" id="entity_o1"><rect fill="#F1F1F1" height="44.9766" rx="2.5" ry="2.5" style="stroke:#181818;stroke-width:0.5;" width="220.7559" x="447.92" y="183.24"/><a href="./OKUMA.123456-Lc1.html" target="_top" title="./OKUMA.123456-Lc1.html" xlink:actuate="onRequest" xlink:href="./OKUMA.123456-Lc1.html" xlink:show="new" xlink:title="./OKUMA.123456-Lc1.html" xlink:type="simple"><text fill="#0000FF" font-family="sans-serif" font-size="14" lengthAdjust="spacing" text-decoration="underline" textLength="174.5078" x="471.044" y="198.7752">data:OKUMA.123456-Lc1</text></a><line style="stroke:#181818;stroke-width:0.5;" x1="448.92" x2="667.6759" y1="203.7283" y2="203.7283"/><text fill="#000000" font-family="sans-serif" font-size="14" lengthAdjust="spacing" textLength="208.7559" x="453.92" y="221.2634">type = ex:RotaryMotionSystem</text></g><g class="entity" data-entity="o2" data-source-line="6" data-uid="ent0003" id="entity_o2"><rect fill="#F1F1F1" height="61.4648" rx="2.5" ry="2.5" style="stroke:#181818;stroke-width:0.5;" width="264.6699" x="965.13" y="7"/><text fill="#000000" font-family="sans-serif" font-size="14" lengthAdjust="spacing" textLength="219.8984" x="987.5157" y="22.5352">data:OKUMA.123456-Lc1-name</text><line style="stroke:#181818;stroke-width:0.5;" x1="966.13" x2="1228.7999" y1="27.4883" y2="27.4883"/><text fill="#000000" font-family="sans-serif" font-size="14" lengthAdjust="spacing" textLength="161.3691" x="971.13" y="45.0234">type = cmns-dsg:Name</text><text fill="#000000" font-family="sans-serif" font-size="14" lengthAdjust="spacing" textLength="252.6699" x="971.13" y="61.5117">core:hasSimpleExpressionValue = C1</text></g><g class="entity" data-entity="o3" data-source-line="9" data-uid="ent0004" id="entity_o3"><rect fill="#F1F1F1" height="44.9766" rx="2.5" ry="2.5" style="stroke:#181818;stroke-width:0.5;" width="230.6787" x="982.13" y="103.24"/><a href="./OKUMA.123456-enclosure.html" target="_top" title="./OKUMA.123456-enclosure.html" xlink:actuate="onRequest" xlink:href="./OKUMA.123456-enclosure.html" xlink:show="new" xlink:title="./OKUMA.123456-enclosure.html" xlink:type="simple"><text fill="#0000FF" font-family="sans-serif" font-size="14" lengthAdjust="spacing" text-decoration="underline" textLength="216.6787" x="989.13" y="118.7752">data:OKUMA.123456-enclosure</text></a><line style="stroke:#181818;stroke-width:0.5;" x1="983.13" x2="1211.8087" y1="123.7283" y2="123.7283"/><text fill="#000000" font-family="sans-serif" font-size="14" lengthAdjust="spacing" textLength="131.7832" x="988.13" y="141.2634">type = ex:Structure</text></g><g class="entity" data-entity="o4" data-source-line="12" data-uid="ent0005" id="entity_o4"><rect fill="#F1F1F1" height="44.9766" rx="2.5" ry="2.5" style="stroke:#181818;stroke-width:0.5;" width="276.0693" x="1549.44" y="63.24"/><text fill="#000000" font-family="sans-serif" font-size="14" lengthAdjust="spacing" textLength="262.0693" x="1556.44" y="78.7752">data:OKUMA.123456-enclosure-name</text><line style="stroke:#181818;stroke-width:0.5;" x1="1550.44" x2="1824.5093" y1="83.7283" y2="83.7283"/><text fill="#000000" font-family="sans-serif" font-size="14" lengthAdjust="spacing" textLength="161.3691" x="1555.44" y="101.2634">type = cmns-dsg:Name</text></g><g class="entity" data-entity="o5" data-source-line="15" data-uid="ent0006" id="entity_o5"><rect fill="#F1F1F1" height="44.9766" rx="2.5" ry="2.5" style="stroke:#181818;stroke-width:0.5;" width="322.4102" x="1526.26" y="143.24"/><text fill="#000000" font-family="sans-serif" font-size="14" lengthAdjust="spacing" textLength="308.4102" x="1533.26" y="158.7752">data:OKUMA.123456-enclosure-temperature</text><line style="stroke:#181818;stroke-width:0.5;" x1="1527.26" x2="1847.6702" y1="163.7283" y2="163.7283"/><text fill="#000000" font-family="sans-serif" font-size="14" lengthAdjust="spacing" textLength="158.4502" x="1532.26" y="181.2634">type = qp:Temperature</text></g><g class="entity" data-entity="o6" data-source-line="18" data-uid="ent0007" id="entity_o6"><rect fill="#F1F1F1" height="44.9766" rx="2.5" ry="2.5" style="stroke:#181818;stroke-width:0.5;" width="274.7188" x="960.11" y="183.24"/><text fill="#000000" font-family="sans-serif" font-size="14" lengthAdjust="spacing" textLength="238.875" x="978.0319" y="198.7752">data:OKUMA.123456-Lc1-function</text><line style="stroke:#181818;stroke-width:0.5;" x1="961.11" x2="1233.8288" y1="203.7283" y2="203.7283"/><text fill="#000000" font-family="sans-serif" font-size="14" lengthAdjust="spacing" textLength="262.7188" x="966.11" y="221.2634">type = ex:ContinuousMotionCapability</text></g><g class="entity" data-entity="o7" data-source-line="21" data-uid="ent0008" id="entity_o7"><rect fill="#F1F1F1" height="44.9766" rx="2.5" ry="2.5" style="stroke:#181818;stroke-width:0.5;" width="344.1143" x="925.41" y="263.24"/><text fill="#000000" font-family="sans-serif" font-size="14" lengthAdjust="spacing" textLength="330.1143" x="932.41" y="278.7752">data:OKUMA.123456-Lc1-rotary_velocity-actual</text><line style="stroke:#181818;stroke-width:0.5;" x1="926.41" x2="1268.5243" y1="283.7283" y2="283.7283"/><text fill="#000000" font-family="sans-serif" font-size="14" lengthAdjust="spacing" textLength="111.9658" x="931.41" y="301.2634">type = qp:Speed</text></g><g class="entity" data-entity="o8" data-source-line="24" data-uid="ent0009" id="entity_o8"><rect fill="#F1F1F1" height="44.9766" rx="2.5" ry="2.5" style="stroke:#181818;stroke-width:0.5;" width="391.5898" x="901.67" y="343.24"/><text fill="#000000" font-family="sans-serif" font-size="14" lengthAdjust="spacing" textLength="377.5898" x="908.67" y="358.7752">data:OKUMA.123456-Lc1-rotary_velocity-programmed</text><line style="stroke:#181818;stroke-width:0.5;" x1="902.67" x2="1292.2598" y1="363.7283" y2="363.7283"/><text fill="#000000" font-family="sans-serif" font-size="14" lengthAdjust="spacing" textLength="111.9658" x="907.67" y="381.2634">type = qp:Speed</text></g><g class="entity" data-entity="o9" data-source-line="27" data-uid="ent0010" id="entity_o9"><rect fill="#F1F1F1" height="44.9766" rx="2.5" ry="2.5" style="stroke:#181818;stroke-width:0.5;" width="156.9189" x="7" y="183.24"/><a href="./OKUMA.123456.html" target="_top" title="./OKUMA.123456.html" xlink:actuate="onRequest" xlink:href="./OKUMA.123456.html" xlink:show="new" xlink:title="./OKUMA.123456.html" xlink:type="simple"><text fill="#0000FF" font-family="sans-serif" font-size="14" lengthAdjust="spacing" text-decoration="underline" textLength="142.9189" x="14" y="198.7752">data:OKUMA.123456</text></a><line style="stroke:#181818;stroke-width:0.5;" x1="8" x2="162.9189" y1="203.7283" y2="203.7283"/><text fill="#000000" font-family="sans-serif" font-size="14" lengthAdjust="spacing" textLength="126.1504" x="13" y="221.2634">type = ex:Machine</text></g><!--link o1 to o2--><g class="link" data-entity-1="o1" data-entity-2="o2" data-source-line="30" data-uid="lnk11" id="link_o1_o2"><path codeLine="30" d="M603.01,182.83 C643.89,161.43 698.67,132.73 698.67,132.73 C698.67,132.73 844.1241,97.9938 960.1041,70.2938" fill="none" id="o1-to-o2" style="stroke:#181818;stroke-width:1;"/><polygon fill="#181818" points="965.94,68.9,956.257,67.1001,961.0768,70.0615,958.1154,74.8813,965.94,68.9" style="stroke:#181818;stroke-width:1;"/><text fill="#000000" font-family="sans-serif" font-size="13" lengthAdjust="spacing" textLength="126.0771" x="722.17" y="90.3084">cmns-dsg:hasName</text></g><!--link o1 to o3--><g class="link" data-entity-1="o1" data-entity-2="o3" data-source-line="32" data-uid="lnk12" id="link_o1_o3"><path codeLine="32" d="M669.12,186.03 C686.39,182.94 698.67,180.73 698.67,180.73 C698.67,180.73 858.2366,158.672 975.7366,142.422" fill="none" id="o1-to-o3" style="stroke:#181818;stroke-width:1;"/><polygon fill="#181818" points="981.68,141.6,972.2169,138.8707,976.7271,142.285,973.3128,146.7952,981.68,141.6" style="stroke:#181818;stroke-width:1;"/><text fill="#000000" font-family="sans-serif" font-size="13" lengthAdjust="spacing" textLength="74.7246" x="748.17" y="154.7284">ex:joinedTo</text></g><!--link o3 to o4--><g class="link" data-entity-1="o3" data-entity-2="o4" data-source-line="33" data-uid="lnk13" id="link_o3_o4"><path codeLine="33" d="M1213.24,117.92 C1309.41,111.38 1440.9639,102.4377 1543.0039,95.4877" fill="none" id="o3-to-o4" style="stroke:#181818;stroke-width:1;"/><polygon fill="#181818" points="1548.99,95.08,1539.739,91.7008,1544.0016,95.4198,1540.2826,99.6823,1548.99,95.08" style="stroke:#181818;stroke-width:1;"/><text fill="#000000" font-family="sans-serif" font-size="13" lengthAdjust="spacing" textLength="126.0771" x="1346.76" y="96.3784">cmns-dsg:hasName</text></g><!--link o3 to o5--><g class="link" data-entity-1="o3" data-entity-2="o5" data-source-line="34" data-uid="lnk14" id="link_o3_o5"><path codeLine="34" d="M1213.24,133.54 C1302.31,139.6 1420.8838,147.6629 1519.8538,154.3929" fill="none" id="o3-to-o5" style="stroke:#181818;stroke-width:1;"/><polygon fill="#181818" points="1525.84,154.8,1517.1321,150.1986,1520.8515,154.4608,1516.5894,158.1802,1525.84,154.8" style="stroke:#181818;stroke-width:1;"/><text fill="#000000" font-family="sans-serif" font-size="13" lengthAdjust="spacing" textLength="171.3169" x="1324.26" y="138.7184">core:measuresAtSomeTime</text></g><!--link o1 to o6--><g class="link" data-entity-1="o1" data-entity-2="o6" data-source-line="35" data-uid="lnk15" id="link_o1_o6"><path codeLine="35" d="M668.97,205.73 C753.05,205.73 863.57,205.73 953.73,205.73" fill="none" id="o1-to-o6" style="stroke:#181818;stroke-width:1;"/><polygon fill="#181818" points="959.73,205.73,950.73,201.73,954.73,205.73,950.73,209.73,959.73,205.73" style="stroke:#181818;stroke-width:1;"/><text fill="#000000" font-family="sans-serif" font-size="13" lengthAdjust="spacing" textLength="107.6309" x="731.67" y="202.2984">core:hasFunction</text></g><!--link o1 to o7--><g class="link" data-entity-1="o1" data-entity-2="o7" data-source-line="36" data-uid="lnk16" id="link_o1_o7"><path codeLine="36" d="M669.12,225.43 C686.39,228.53 698.67,230.73 698.67,230.73 C698.67,230.73 815.3366,246.8578 924.4166,261.9478" fill="none" id="o1-to-o7" style="stroke:#181818;stroke-width:1;"/><polygon fill="#181818" points="930.36,262.77,921.993,257.5744,925.4072,262.0848,920.8968,265.499,930.36,262.77" style="stroke:#181818;stroke-width:1;"/><text fill="#000000" font-family="sans-serif" font-size="13" lengthAdjust="spacing" textLength="171.3169" x="699.67" y="227.2984">core:measuresAtSomeTime</text></g><!--link o1 to o8--><g class="link" data-entity-1="o1" data-entity-2="o8" data-source-line="37" data-uid="lnk17" id="link_o1_o8"><path codeLine="37" d="M603.01,228.63 C643.89,250.04 698.67,278.73 698.67,278.73 C698.67,278.73 901.67,325.73 901.67,325.73 C901.67,325.73 935.2825,332.6336 978.6925,341.5436" fill="none" id="o1-to-o8" style="stroke:#181818;stroke-width:1;"/><polygon fill="#181818" points="984.57,342.75,976.558,337.0221,979.6721,341.7447,974.9495,344.8588,984.57,342.75" style="stroke:#181818;stroke-width:1;"/><text fill="#000000" font-family="sans-serif" font-size="13" lengthAdjust="spacing" textLength="171.3169" x="699.67" y="275.2984">core:measuresAtSomeTime</text></g><!--link o9 to o1--><g class="link" data-entity-1="o9" data-entity-2="o1" data-source-line="38" data-uid="lnk18" id="link_o9_o1"><path codeLine="38" d="M164.21,205.73 C241.52,205.73 354.82,205.73 441.72,205.73" fill="none" id="o9-to-o1" style="stroke:#181818;stroke-width:1;"/><polygon fill="#181818" points="447.72,205.73,438.72,201.73,442.72,205.73,438.72,209.73,447.72,205.73" style="stroke:#181818;stroke-width:1;"/><text fill="#000000" font-family="sans-serif" font-size="13" lengthAdjust="spacing" textLength="222.5425" x="194.92" y="202.2984">obo:has member part at some time</text></g><!--SRC=[bPJBRjim44Nt-ef1zdAX-954G0C4HhjftGALcqqG5BGqiPcI79OS5H6A_dj9oLRaFEnq9t6kpbpD7Sd_bCOA9pGeQP0RYs19DV4cKNZ7m0HEhZSCbNHOiYIJqEe-NC79pStetTTFtnTNe-nqF9dEqizbDjgmLb095ldJqktj2GWFbC6V1DfExm4Vyc_4mZKBYkYYyOmwWRzzZnT9gH4QEzZf05PguzFAh_CleJo4F3EAfbJaQuUlsUq5EzFZVTC5kxhaK3_ijSSC74_UulWGAap8eXEnUqUS3eY_RBvyh1-Vv5rjsb0xqcp_BUTaM9gQQj_5CnTMhAIIt1m7kpRM7xzHKHaUI4KObr1TcxDzmuL5hFwVQ1sjm-9gh3hg-H7gqoru9VjTuXVxirY8SXC_YWZC84qlu-xbZmbkX6z3x4x9OJmffBOAFpnOXzw70LuBLKVUFEiXuo0F-7iAy6f9IJXepoSlmhV5wQw7HX5tmbznGHgNCcgsuDd0nyTjodtnx0s0yqEQYqwJ1GsjAFO0ZNg53iBVX44m-A053k9_]--></g></svg>