<svg xmlns="http://www.w3.org/2000/svg" xmlns:xlink="http://www.w3.org/1999/xlink" contentStyleType="text/css" data-diagram-type="CLASS" height="816px" preserveAspectRatio="none" style="width:1979px;height:816px;background:#FFFFFF;" version="1.1" viewBox="0 0 1979 816" width="1979px" zoomAndPan="magnify"><title>OKUMA.123456-Lx1</title><defs/><g><text fill="#000000" font-family="sans-serif" font-size="14" font-weight="bold" lengthAdjust="spacing" textLength="148.251" x="908.7396" y="23.5352">OKUMA.123456-Lx1</text><g class="entity" data-entity="o1" data-source-line="4" data-uid="ent0002" id="entity_o1"><rect fill="#F1F1F1" height="44.9766" rx="2.5" ry="2.5" style="stroke:#181818;stroke-width:0.5;" width="218.7529" x="447.92" y="558.4883"/><a href="./OKUMA.123456-Lx1.html" target="_top" title="./OKUMA.123456-Lx1.html" xlink:actuate="onRequest" xlink:href="./OKUMA.123456-Lx1.html" xlink:show="new" xlink:title="./OKUMA.123456-Lx1.html" xlink:type="simple"><text fill="#0000FF" font-family="sans-serif" font-size="14" lengthAdjust="spacing" text-decoration="underline" textLength="175.9229" x="469.335" y="574.0234">data:OKUMA.123456-Lx1</text></a><line style="stroke:#181818;stroke-width:0.5;" x1="448.92" x2="665.6729" y1="578.9766" y2="578.9766"/><text fill="#000000" font-family="sans-serif" font-size="14" lengthAdjust="spacing" textLength="206.7529" x="453.92" y="596.5117">type = ex:LinearMotionSystem</text></g><g class="entity" data-entity="o2" data-source-line="7" data-uid="ent0003" id="entity_o2"><rect fill="#F1F1F1" height="61.4648" rx="2.5" ry="2.5" style="stroke:#181818;stroke-width:0.5;" width="254.8945" x="923.17" y="268.2483"/><text fill="#000000" font-family="sans-serif" font-size="14" lengthAdjust="spacing" textLength="221.3135" x="939.9605" y="283.7834">data:OKUMA.123456-Lx1-name</text><line style="stroke:#181818;stroke-width:0.5;" x1="924.17" x2="1177.0645" y1="288.7366" y2="288.7366"/><text fill="#000000" font-family="sans-serif" font-size="14" lengthAdjust="spacing" textLength="161.3691" x="929.17" y="306.2717">type = cmns-dsg:Name</text><text fill="#000000" font-family="sans-serif" font-size="14" lengthAdjust="spacing" textLength="242.8945" x="929.17" y="322.76">core:hasSimpleExpressionValue = X</text></g><g class="entity" data-entity="o3" data-source-line="10" data-uid="ent0004" id="entity_o3"><rect fill="#F1F1F1" height="44.9766" rx="2.5" ry="2.5" style="stroke:#181818;stroke-width:0.5;" width="228.9424" x="936.15" y="364.4883"/><text fill="#000000" font-family="sans-serif" font-size="14" lengthAdjust="spacing" textLength="214.9424" x="943.15" y="380.0234">data:OKUMA.123456-Lx1-spec</text><line style="stroke:#181818;stroke-width:0.5;" x1="937.15" x2="1164.0924" y1="384.9766" y2="384.9766"/><text fill="#000000" font-family="sans-serif" font-size="14" lengthAdjust="spacing" textLength="215.8037" x="942.15" y="402.5117">type = core:DesignSpecification</text></g><g class="entity" data-entity="o4" data-source-line="13" data-uid="ent0005" id="entity_o4"><rect fill="#F1F1F1" height="44.9766" rx="2.5" ry="2.5" style="stroke:#181818;stroke-width:0.5;" width="356.3232" x="1552.99" y="44.4883"/><text fill="#000000" font-family="sans-serif" font-size="14" lengthAdjust="spacing" textLength="342.3232" x="1559.99" y="60.0234">data:OKUMA.123456-Lx1-spec-LENGTH-Nominal</text><line style="stroke:#181818;stroke-width:0.5;" x1="1553.99" x2="1908.3132" y1="64.9766" y2="64.9766"/><text fill="#000000" font-family="sans-serif" font-size="14" lengthAdjust="spacing" textLength="194.4209" x="1558.99" y="82.5117">type = core:ValueExpression</text></g><g class="entity" data-entity="o5" data-source-line="16" data-uid="ent0006" id="entity_o5"><rect fill="#F1F1F1" height="44.9766" rx="2.5" ry="2.5" style="stroke:#181818;stroke-width:0.5;" width="411.8447" x="1525.23" y="124.4883"/><text fill="#000000" font-family="sans-serif" font-size="14" lengthAdjust="spacing" textLength="397.8447" x="1532.23" y="140.0234">data:OKUMA.123456-Lx1-spec-LINEAR_FORCE-Maximum</text><line style="stroke:#181818;stroke-width:0.5;" x1="1526.23" x2="1936.0747" y1="144.9766" y2="144.9766"/><text fill="#000000" font-family="sans-serif" font-size="14" lengthAdjust="spacing" textLength="194.4209" x="1531.23" y="162.5117">type = core:ValueExpression</text></g><g class="entity" data-entity="o6" data-source-line="19" data-uid="ent0007" id="entity_o6"><rect fill="#F1F1F1" height="44.9766" rx="2.5" ry="2.5" style="stroke:#181818;stroke-width:0.5;" width="408.2627" x="1527.02" y="204.4883"/><text fill="#000000" font-family="sans-serif" font-size="14" lengthAdjust="spacing" textLength="394.2627" x="1534.02" y="220.0234">data:OKUMA.123456-Lx1-spec-LINEAR_FORCE-Minimum</text><line style="stroke:#181818;stroke-width:0.5;" x1="1528.02" x2="1934.2827" y1="224.9766" y2="224.9766"/><text fill="#000000" font-family="sans-serif" font-size="14" lengthAdjust="spacing" textLength="194.4209" x="1533.02" y="242.5117">type = core:ValueExpression</text></g><g class="entity" data-entity="o7" data-source-line="22" data-uid="ent0008" id="entity_o7"><rect fill="#F1F1F1" height="44.9766" rx="2.5" ry="2.5" style="stroke:#181818;stroke-width:0.5;" width="427.6426" x="1517.33" y="284.4883"/><text fill="#000000" font-family="sans-serif" font-size="14" lengthAdjust="spacing" textLength="413.6426" x="1524.33" y="300.0234">data:OKUMA.123456-Lx1-spec-VELOCITY-RAPID-Maximum</text><line style="stroke:#181818;stroke-width:0.5;" x1="1518.33" x2="1943.9726" y1="304.9766" y2="304.9766"/><text fill="#000000" font-family="sans-serif" font-size="14" lengthAdjust="spacing" textLength="194.4209" x="1523.33" y="322.5117">type = core:ValueExpression</text></g><g class="entity" data-entity="o8" data-source-line="25" data-uid="ent0009" id="entity_o8"><rect fill="#F1F1F1" height="44.9766" rx="2.5" ry="2.5" style="stroke:#181818;stroke-width:0.5;" width="424.0605" x="1519.12" y="364.4883"/><text fill="#000000" font-family="sans-serif" font-size="14" lengthAdjust="spacing" textLength="410.0605" x="1526.12" y="380.0234">data:OKUMA.123456-Lx1-spec-VELOCITY-RAPID-Minimum</text><line style="stroke:#181818;stroke-width:0.5;" x1="1520.12" x2="1942.1805" y1="384.9766" y2="384.9766"/><text fill="#000000" font-family="sans-serif" font-size="14" lengthAdjust="spacing" textLength="194.4209" x="1525.12" y="402.5117">type = core:ValueExpression</text></g><g class="entity" data-entity="o9" data-source-line="28" data-uid="ent0010" id="entity_o9"><rect fill="#F1F1F1" height="44.9766" rx="2.5" ry="2.5" style="stroke:#181818;stroke-width:0.5;" width="485.1602" x="1488.57" y="444.4883"/><text fill="#000000" font-family="sans-serif" font-size="14" lengthAdjust="spacing" textLength="471.1602" x="1495.57" y="460.0234">data:OKUMA.123456-Lx1-spec-VELOCITY-PROGRAMMED-Maximum</text><line style="stroke:#181818;stroke-width:0.5;" x1="1489.57" x2="1972.7302" y1="464.9766" y2="464.9766"/><text fill="#000000" font-family="sans-serif" font-size="14" lengthAdjust="spacing" textLength="194.4209" x="1494.57" y="482.5117">type = core:ValueExpression</text></g><g class="entity" data-entity="o10" data-source-line="31" data-uid="ent0011" id="entity_o10"><rect fill="#F1F1F1" height="44.9766" rx="2.5" ry="2.5" style="stroke:#181818;stroke-width:0.5;" width="481.5781" x="1490.36" y="524.4883"/><text fill="#000000" font-family="sans-serif" font-size="14" lengthAdjust="spacing" textLength="467.5781" x="1497.36" y="540.0234">data:OKUMA.123456-Lx1-spec-VELOCITY-PROGRAMMED-Minimum</text><line style="stroke:#181818;stroke-width:0.5;" x1="1491.36" x2="1970.9381" y1="544.9766" y2="544.9766"/><text fill="#000000" font-family="sans-serif" font-size="14" lengthAdjust="spacing" textLength="194.4209" x="1496.36" y="562.5117">type = core:ValueExpression</text></g><g class="entity" data-entity="o11" data-source-line="34" data-uid="ent0012" id="entity_o11"><rect fill="#F1F1F1" height="44.9766" rx="2.5" ry="2.5" style="stroke:#181818;stroke-width:0.5;" width="216.3984" x="942.42" y="524.4883"/><a href="./OKUMA.123456-z1_axis.html" target="_top" title="./OKUMA.123456-z1_axis.html" xlink:actuate="onRequest" xlink:href="./OKUMA.123456-z1_axis.html" xlink:show="new" xlink:title="./OKUMA.123456-z1_axis.html" xlink:type="simple"><text fill="#0000FF" font-family="sans-serif" font-size="14" lengthAdjust="spacing" text-decoration="underline" textLength="202.3984" x="949.42" y="540.0234">data:OKUMA.123456-z1_axis</text></a><line style="stroke:#181818;stroke-width:0.5;" x1="943.42" x2="1157.8184" y1="544.9766" y2="544.9766"/><text fill="#000000" font-family="sans-serif" font-size="14" lengthAdjust="spacing" textLength="131.7832" x="948.42" y="562.5117">type = ex:Structure</text></g><g class="entity" data-entity="o12" data-source-line="37" data-uid="ent0013" id="entity_o12"><rect fill="#F1F1F1" height="44.9766" rx="2.5" ry="2.5" style="stroke:#181818;stroke-width:0.5;" width="261.7891" x="1600.25" y="604.4883"/><text fill="#000000" font-family="sans-serif" font-size="14" lengthAdjust="spacing" textLength="247.7891" x="1607.25" y="620.0234">data:OKUMA.123456-z1_axis-name</text><line style="stroke:#181818;stroke-width:0.5;" x1="1601.25" x2="1861.0391" y1="624.9766" y2="624.9766"/><text fill="#000000" font-family="sans-serif" font-size="14" lengthAdjust="spacing" textLength="161.3691" x="1606.25" y="642.5117">type = cmns-dsg:Name</text></g><g class="entity" data-entity="o13" data-source-line="40" data-uid="ent0014" id="entity_o13"><rect fill="#F1F1F1" height="44.9766" rx="2.5" ry="2.5" style="stroke:#181818;stroke-width:0.5;" width="208.1064" x="946.57" y="604.4883"/><a href="./OKUMA.123456-x_axis.html" target="_top" title="./OKUMA.123456-x_axis.html" xlink:actuate="onRequest" xlink:href="./OKUMA.123456-x_axis.html" xlink:show="new" xlink:title="./OKUMA.123456-x_axis.html" xlink:type="simple"><text fill="#0000FF" font-family="sans-serif" font-size="14" lengthAdjust="spacing" text-decoration="underline" textLength="194.1064" x="953.57" y="620.0234">data:OKUMA.123456-x_axis</text></a><line style="stroke:#181818;stroke-width:0.5;" x1="947.57" x2="1153.6764" y1="624.9766" y2="624.9766"/><text fill="#000000" font-family="sans-serif" font-size="14" lengthAdjust="spacing" textLength="131.7832" x="952.57" y="642.5117">type = ex:Structure</text></g><g class="entity" data-entity="o14" data-source-line="43" data-uid="ent0015" id="entity_o14"><rect fill="#F1F1F1" height="44.9766" rx="2.5" ry="2.5" style="stroke:#181818;stroke-width:0.5;" width="253.4971" x="1604.4" y="684.4883"/><text fill="#000000" font-family="sans-serif" font-size="14" lengthAdjust="spacing" textLength="239.4971" x="1611.4" y="700.0234">data:OKUMA.123456-x_axis-name</text><line style="stroke:#181818;stroke-width:0.5;" x1="1605.4" x2="1856.8971" y1="704.9766" y2="704.9766"/><text fill="#000000" font-family="sans-serif" font-size="14" lengthAdjust="spacing" textLength="161.3691" x="1610.4" y="722.5117">type = cmns-dsg:Name</text></g><g class="entity" data-entity="o15" data-source-line="46" data-uid="ent0016" id="entity_o15"><rect fill="#F1F1F1" height="44.9766" rx="2.5" ry="2.5" style="stroke:#181818;stroke-width:0.5;" width="258.5654" x="921.34" y="684.4883"/><text fill="#000000" font-family="sans-serif" font-size="14" lengthAdjust="spacing" textLength="240.29" x="930.4777" y="700.0234">data:OKUMA.123456-Lx1-function</text><line style="stroke:#181818;stroke-width:0.5;" x1="922.34" x2="1178.9054" y1="704.9766" y2="704.9766"/><text fill="#000000" font-family="sans-serif" font-size="14" lengthAdjust="spacing" textLength="246.5654" x="927.34" y="722.5117">type = ex:PrismaticMotionCapability</text></g><g class="entity" data-entity="o16" data-source-line="49" data-uid="ent0017" id="entity_o16"><rect fill="#F1F1F1" height="44.9766" rx="2.5" ry="2.5" style="stroke:#181818;stroke-width:0.5;" width="301.8955" x="899.67" y="764.4883"/><text fill="#000000" font-family="sans-serif" font-size="14" lengthAdjust="spacing" textLength="287.8955" x="906.67" y="780.0234">data:OKUMA.123456-Lx1-position-actual</text><line style="stroke:#181818;stroke-width:0.5;" x1="900.67" x2="1200.5655" y1="784.9766" y2="784.9766"/><text fill="#000000" font-family="sans-serif" font-size="14" lengthAdjust="spacing" textLength="163.2285" x="905.67" y="802.5117">type = qp:Displacement</text></g><g class="entity" data-entity="o17" data-source-line="52" data-uid="ent0018" id="entity_o17"><rect fill="#F1F1F1" height="44.9766" rx="2.5" ry="2.5" style="stroke:#181818;stroke-width:0.5;" width="156.9189" x="7" y="558.4883"/><a href="./OKUMA.123456.html" target="_top" title="./OKUMA.123456.html" xlink:actuate="onRequest" xlink:href="./OKUMA.123456.html" xlink:show="new" xlink:title="./OKUMA.123456.html" xlink:type="simple"><text fill="#0000FF" font-family="sans-serif" font-size="14" lengthAdjust="spacing" text-decoration="underline" textLength="142.9189" x="14" y="574.0234">data:OKUMA.123456</text></a><line style="stroke:#181818;stroke-width:0.5;" x1="8" x2="162.9189" y1="578.9766" y2="578.9766"/><text fill="#000000" font-family="sans-serif" font-size="14" lengthAdjust="spacing" textLength="126.1504" x="13" y="596.5117">type = ex:Machine</text></g><!--link o1 to o2--><g class="link" data-entity-1="o1" data-entity-2="o2" data-source-line="55" data-uid="lnk19" id="link_o1_o2"><path codeLine="55" d="M580.22,558.0083 C619.24,517.1183 696.67,435.9783 696.67,435.9783 C696.67,435.9783 899.67,346.9783 899.67,346.9783 C899.67,346.9783 917.7658,341.1879 946.4058,332.0179" fill="none" id="o1-to-o2" style="stroke:#181818;stroke-width:1;"/><polygon fill="#181818" points="952.12,330.1883,942.3289,329.1232,947.3581,331.7129,944.7684,336.7422,952.12,330.1883" style="stroke:#181818;stroke-width:1;"/><text fill="#000000" font-family="sans-serif" font-size="13" lengthAdjust="spacing" textLength="126.0771" x="720.17" y="358.4666">cmns-dsg:hasName</text></g><!--link o1 to o3--><g class="link" data-entity-1="o1" data-entity-2="o3" data-source-line="57" data-uid="lnk20" id="link_o1_o3"><path codeLine="57" d="M616.1,558.1583 C710.59,520.8483 891.4793,449.4219 986.0693,412.0719" fill="none" id="o1-to-o3" style="stroke:#181818;stroke-width:1;"/><polygon fill="#181818" points="991.65,409.8683,981.8099,409.4532,986.9994,411.7046,984.748,416.8941,991.65,409.8683" style="stroke:#181818;stroke-width:1;"/><text fill="#000000" font-family="sans-serif" font-size="13" lengthAdjust="spacing" textLength="112.3027" x="727.17" y="457.4666">core:prescribedBy</text></g><!--link o3 to o4--><g class="link" data-entity-1="o3" data-entity-2="o4" data-source-line="58" data-uid="lnk21" id="link_o3_o4"><path codeLine="58" d="M1137.54,364.0583 C1171.04,355.1183 1201.57,346.9783 1201.57,346.9783 C1201.57,346.9783 1231.57,169.9783 1231.57,169.9783 C1231.57,169.9783 1488.57,106.9783 1488.57,106.9783 C1488.57,106.9783 1531.6105,99.8479 1585.4505,90.9379" fill="none" id="o3-to-o4" style="stroke:#181818;stroke-width:1;"/><polygon fill="#181818" points="1591.37,89.9583,1581.8377,87.4814,1586.4371,90.7746,1583.1438,95.374,1591.37,89.9583" style="stroke:#181818;stroke-width:1;"/><text fill="#000000" font-family="sans-serif" font-size="13" lengthAdjust="spacing" textLength="225.0688" x="1232.57" y="111.3566">core:hasValueExpressionAtAllTimes</text></g><!--link o3 to o5--><g class="link" data-entity-1="o3" data-entity-2="o5" data-source-line="59" data-uid="lnk22" id="link_o3_o5"><path codeLine="59" d="M1137.54,364.0583 C1171.04,355.1183 1201.57,346.9783 1201.57,346.9783 C1201.57,346.9783 1231.57,247.9783 1231.57,247.9783 C1231.57,247.9783 1488.57,186.9783 1488.57,186.9783 C1488.57,186.9783 1531.6105,179.8479 1585.4505,170.9379" fill="none" id="o3-to-o5" style="stroke:#181818;stroke-width:1;"/><polygon fill="#181818" points="1591.37,169.9583,1581.8377,167.4814,1586.4371,170.7746,1583.1438,175.374,1591.37,169.9583" style="stroke:#181818;stroke-width:1;"/><text fill="#000000" font-family="sans-serif" font-size="13" lengthAdjust="spacing" textLength="225.0688" x="1232.57" y="191.1066">core:hasValueExpressionAtAllTimes</text></g><!--link o3 to o6--><g class="link" data-entity-1="o3" data-entity-2="o6" data-source-line="60" data-uid="lnk23" id="link_o3_o6"><path codeLine="60" d="M1137.54,364.0583 C1171.04,355.1183 1201.57,346.9783 1201.57,346.9783 C1201.57,346.9783 1231.57,312.9783 1231.57,312.9783 C1231.57,312.9783 1488.57,266.9783 1488.57,266.9783 C1488.57,266.9783 1531.6105,259.8479 1585.4505,250.9379" fill="none" id="o3-to-o6" style="stroke:#181818;stroke-width:1;"/><polygon fill="#181818" points="1591.37,249.9583,1581.8377,247.4814,1586.4371,250.7746,1583.1438,255.374,1591.37,249.9583" style="stroke:#181818;stroke-width:1;"/><text fill="#000000" font-family="sans-serif" font-size="13" lengthAdjust="spacing" textLength="225.0688" x="1232.57" y="269.2466">core:hasValueExpressionAtAllTimes</text></g><!--link o3 to o7--><g class="link" data-entity-1="o3" data-entity-2="o7" data-source-line="61" data-uid="lnk24" id="link_o3_o7"><path codeLine="61" d="M1165.58,371.1483 C1201.3,366.1883 1231.57,361.9783 1231.57,361.9783 C1231.57,361.9783 1379.2762,345.6861 1515.9862,330.6061" fill="none" id="o3-to-o7" style="stroke:#181818;stroke-width:1;"/><polygon fill="#181818" points="1521.95,329.9483,1512.5657,326.9592,1516.9801,330.4965,1513.4428,334.9109,1521.95,329.9483" style="stroke:#181818;stroke-width:1;"/><text fill="#000000" font-family="sans-serif" font-size="13" lengthAdjust="spacing" textLength="225.0688" x="1232.57" y="334.3366">core:hasValueExpressionAtAllTimes</text></g><!--link o3 to o8--><g class="link" data-entity-1="o3" data-entity-2="o8" data-source-line="62" data-uid="lnk25" id="link_o3_o8"><path codeLine="62" d="M1165.57,386.9783 C1261.73,386.9783 1395.97,386.9783 1512.62,386.9783" fill="none" id="o3-to-o8" style="stroke:#181818;stroke-width:1;"/><polygon fill="#181818" points="1518.62,386.9783,1509.62,382.9783,1513.62,386.9783,1509.62,390.9783,1518.62,386.9783" style="stroke:#181818;stroke-width:1;"/><text fill="#000000" font-family="sans-serif" font-size="13" lengthAdjust="spacing" textLength="225.0688" x="1232.57" y="383.5466">core:hasValueExpressionAtAllTimes</text></g><!--link o3 to o9--><g class="link" data-entity-1="o3" data-entity-2="o9" data-source-line="63" data-uid="lnk26" id="link_o3_o9"><path codeLine="63" d="M1165.58,402.8083 C1201.3,407.7783 1231.57,411.9783 1231.57,411.9783 C1231.57,411.9783 1379.2762,428.27 1515.9862,443.36" fill="none" id="o3-to-o9" style="stroke:#181818;stroke-width:1;"/><polygon fill="#181818" points="1521.95,444.0183,1513.4432,439.055,1516.9802,443.4697,1512.5655,447.0067,1521.95,444.0183" style="stroke:#181818;stroke-width:1;"/><text fill="#000000" font-family="sans-serif" font-size="13" lengthAdjust="spacing" textLength="225.0688" x="1232.57" y="408.5466">core:hasValueExpressionAtAllTimes</text></g><!--link o3 to o10--><g class="link" data-entity-1="o3" data-entity-2="o10" data-source-line="64" data-uid="lnk27" id="link_o3_o10"><path codeLine="64" d="M1107.08,409.7883 C1159.95,431.5283 1231.57,460.9783 1231.57,460.9783 C1231.57,460.9783 1488.57,506.9783 1488.57,506.9783 C1488.57,506.9783 1531.6105,514.1087 1585.4505,523.0187" fill="none" id="o3-to-o10" style="stroke:#181818;stroke-width:1;"/><polygon fill="#181818" points="1591.37,523.9983,1583.1438,518.5825,1586.4371,523.1819,1581.8377,526.4752,1591.37,523.9983" style="stroke:#181818;stroke-width:1;"/><text fill="#000000" font-family="sans-serif" font-size="13" lengthAdjust="spacing" textLength="225.0688" x="1232.57" y="457.5466">core:hasValueExpressionAtAllTimes</text></g><!--link o1 to o11--><g class="link" data-entity-1="o1" data-entity-2="o11" data-source-line="65" data-uid="lnk28" id="link_o1_o11"><path codeLine="65" d="M667.03,573.4583 C748.86,567.7883 854.4843,560.4823 936.0343,554.8423" fill="none" id="o1-to-o11" style="stroke:#181818;stroke-width:1;"/><polygon fill="#181818" points="942.02,554.4283,932.7655,551.0588,937.0319,554.7733,933.3174,559.0397,942.02,554.4283" style="stroke:#181818;stroke-width:1;"/><text fill="#000000" font-family="sans-serif" font-size="13" lengthAdjust="spacing" textLength="74.7246" x="746.17" y="556.5066">ex:joinedTo</text></g><!--link o11 to o12--><g class="link" data-entity-1="o11" data-entity-2="o12" data-source-line="66" data-uid="lnk29" id="link_o11_o12"><path codeLine="66" d="M1137.54,569.8983 C1171.04,578.8383 1201.57,586.9783 1201.57,586.9783 C1201.57,586.9783 1231.57,606.9783 1231.57,606.9783 C1231.57,606.9783 1446.0848,615.588 1593.8048,621.508" fill="none" id="o11-to-o12" style="stroke:#181818;stroke-width:1;"/><polygon fill="#181818" points="1599.8,621.7483,1590.9674,617.3911,1594.804,621.5481,1590.647,625.3847,1599.8,621.7483" style="stroke:#181818;stroke-width:1;"/><text fill="#000000" font-family="sans-serif" font-size="13" lengthAdjust="spacing" textLength="126.0771" x="1282.07" y="603.5466">cmns-dsg:hasName</text></g><!--link o1 to o13--><g class="link" data-entity-1="o1" data-entity-2="o13" data-source-line="67" data-uid="lnk30" id="link_o1_o13"><path codeLine="67" d="M666.99,592.7583 C684.32,594.6383 696.67,595.9783 696.67,595.9783 C696.67,595.9783 835.983,608.2132 940.133,617.3632" fill="none" id="o1-to-o13" style="stroke:#181818;stroke-width:1;"/><polygon fill="#181818" points="946.11,617.8883,937.4946,613.116,941.1292,617.4507,936.7945,621.0853,946.11,617.8883" style="stroke:#181818;stroke-width:1;"/><text fill="#000000" font-family="sans-serif" font-size="13" lengthAdjust="spacing" textLength="74.7246" x="746.17" y="592.5466">ex:joinedTo</text></g><!--link o13 to o14--><g class="link" data-entity-1="o13" data-entity-2="o14" data-source-line="68" data-uid="lnk31" id="link_o13_o14"><path codeLine="68" d="M1155.04,639.1783 C1275.52,653.3783 1468.5813,676.1354 1598.0313,691.4054" fill="none" id="o13-to-o14" style="stroke:#181818;stroke-width:1;"/><polygon fill="#181818" points="1603.99,692.1083,1595.5206,687.0815,1599.0244,691.5225,1594.5834,695.0264,1603.99,692.1083" style="stroke:#181818;stroke-width:1;"/><text fill="#000000" font-family="sans-serif" font-size="13" lengthAdjust="spacing" textLength="126.0771" x="1282.07" y="645.0066">cmns-dsg:hasName</text></g><!--link o1 to o15--><g class="link" data-entity-1="o1" data-entity-2="o15" data-source-line="69" data-uid="lnk32" id="link_o1_o15"><path codeLine="69" d="M615.78,603.8283 C653.8,618.9383 696.67,635.9783 696.67,635.9783 C696.67,635.9783 826.5179,662.0947 929.6379,682.8447" fill="none" id="o1-to-o15" style="stroke:#181818;stroke-width:1;"/><polygon fill="#181818" points="935.52,684.0283,927.4859,678.3315,930.6183,683.0419,925.9078,686.1743,935.52,684.0283" style="stroke:#181818;stroke-width:1;"/><text fill="#000000" font-family="sans-serif" font-size="13" lengthAdjust="spacing" textLength="107.6309" x="729.67" y="632.5466">core:hasFunction</text></g><!--link o1 to o16--><g class="link" data-entity-1="o1" data-entity-2="o16" data-source-line="70" data-uid="lnk33" id="link_o1_o16"><path codeLine="70" d="M586.3,603.8483 C626.73,636.8683 696.67,693.9783 696.67,693.9783 C696.67,693.9783 852.5179,735.0499 957.0279,762.5799" fill="none" id="o1-to-o16" style="stroke:#181818;stroke-width:1;"/><polygon fill="#181818" points="962.83,764.1083,955.1458,757.9477,957.9949,762.8346,953.108,765.6838,962.83,764.1083" style="stroke:#181818;stroke-width:1;"/><text fill="#000000" font-family="sans-serif" font-size="13" lengthAdjust="spacing" textLength="171.3169" x="697.67" y="690.5466">core:measuresAtSomeTime</text></g><!--link o17 to o1--><g class="link" data-entity-1="o17" data-entity-2="o1" data-source-line="71" data-uid="lnk34" id="link_o17_o1"><path codeLine="71" d="M164.31,580.9783 C241.63,580.9783 354.85,580.9783 441.52,580.9783" fill="none" id="o17-to-o1" style="stroke:#181818;stroke-width:1;"/><polygon fill="#181818" points="447.52,580.9783,438.52,576.9783,442.52,580.9783,438.52,584.9783,447.52,580.9783" style="stroke:#181818;stroke-width:1;"/><text fill="#000000" font-family="sans-serif" font-size="13" lengthAdjust="spacing" textLength="222.5425" x="194.92" y="577.5466">obo:has member part at some time</text></g><!--SRC=[jLPTRzem57tFhx3w7hQKhpRIAcMGTcW44B2gKrLL9Z7WpeupsqZ9flttsGc445eWLNd4z_ZSSw_lkKJymc44EQI0u139948WOYJHFmo2vX981ZXUB2K8C4U-n2mq99O4WU7t7vvJioxhZMRBxCUMmMOl2W0k7Xzhdyh1sb9I0W8eeLqEFJrT02W0iy1V0wG2lW0Kstsb07AFwOoJH4X43V0lp_4ganb2YZAoomAPJqDX1c9X3rJuE8c8a9-Hr8iaZ2ExYmHUX1C5m7FimxGP9_6PVNTmD_rc3XZ58IGPVQDCVm_92hbnn94G5QXx0zSPFzyEnntNz62CwOfc2PhdI833ROBMnoIuT_l3Jc_wqnmxervtjuRsUL8KgxZwu1IZyV1kx7YUMohb-envYlLOdoiasZFh7-jPYHPl6NOTparRSkr4yfKlL_o8pzOi1SDQ9pbsJsryK6oygxN-BgtndjJ6-vVBV1McEtJDrDnLDE9OKBLM_6pjTM04PvXWcHmdZfZ0-eu9LKcR3MCL3VexihjOH0JwYA9G7chh6_tC6zdUbUr1Vwd_BpIZ1KppHkzVUzkQ9HHfTx9JFP3gP89fH0f3cSweudl8EUeRj8Ru7CzGy3Knr74QRHIuIlFjI8UGAQP8vEXc9NIh4hfT2NrL2NrT2QsSVn9ytM1bNbk_tmjJhnTCcQ5FiiZhxxU9rlVkRGGq3juhliBjsWdRQDvrYg1GjXIEd32Aj6P3pro6KY0sOve1K4HdY0Fr-I81b40eC90A_Hy0]--></g></svg>