<svg xmlns="http://www.w3.org/2000/svg" xmlns:xlink="http://www.w3.org/1999/xlink" contentStyleType="text/css" data-diagram-type="CLASS" height="2234px" preserveAspectRatio="none" style="width:1362px;height:2234px;background:#FFFFFF;" version="1.1" viewBox="0 0 1362 2234" width="1362px" zoomAndPan="magnify"><defs/><g><g class="entity" data-entity="o1" data-source-line="3" data-uid="ent0002" id="entity_o1"><rect fill="#F1F1F1" height="61.4648" rx="2.5" ry="2.5" style="stroke:#181818;stroke-width:0.5;" width="219.1973" x="7" y="1078.76"/><a href="./OKUMA.123456.html" target="_top" title="./OKUMA.123456.html" xlink:actuate="onRequest" xlink:href="./OKUMA.123456.html" xlink:show="new" xlink:title="./OKUMA.123456.html" xlink:type="simple"><text fill="#0000FF" font-family="sans-serif" font-size="14" lengthAdjust="spacing" text-decoration="underline" textLength="142.9189" x="45.1392" y="1094.2952">data:OKUMA.123456</text></a><line style="stroke:#181818;stroke-width:0.5;" x1="8" x2="225.1973" y1="1099.2483" y2="1099.2483"/><text fill="#000000" font-family="sans-serif" font-size="14" lengthAdjust="spacing" textLength="126.1504" x="13" y="1116.7834">type = ex:Machine</text><text fill="#000000" font-family="sans-serif" font-size="14" lengthAdjust="spacing" textLength="207.1973" x="13" y="1133.2717">cmns-dsg:hasName = OKUMA</text></g><g class="entity" data-entity="o2" data-source-line="6" data-uid="ent0003" id="entity_o2"><rect fill="#F1F1F1" height="44.9766" rx="2.5" ry="2.5" style="stroke:#181818;stroke-width:0.5;" width="208.1064" x="573.88" y="7"/><a href="./OKUMA.123456-x_axis.html" target="_top" title="./OKUMA.123456-x_axis.html" xlink:actuate="onRequest" xlink:href="./OKUMA.123456-x_axis.html" xlink:show="new" xlink:title="./OKUMA.123456-x_axis.html" xlink:type="simple"><text fill="#0000FF" font-family="sans-serif" font-size="14" lengthAdjust="spacing" text-decoration="underline" textLength="194.1064" x="580.88" y="22.5352">data:OKUMA.123456-x_axis</text></a><line style="stroke:#181818;stroke-width:0.5;" x1="574.88" x2="780.9864" y1="27.4883" y2="27.4883"/><text fill="#000000" font-family="sans-serif" font-size="14" lengthAdjust="spacing" textLength="131.7832" x="579.88" y="45.0234">type = ex:Structure</text></g><g class="entity" data-entity="o3" data-source-line="9" data-uid="ent0004" id="entity_o3"><rect fill="#F1F1F1" height="44.9766" rx="2.5" ry="2.5" style="stroke:#181818;stroke-width:0.5;" width="206.835" x="574.51" y="87"/><a href="./OKUMA.123456-y_axis.html" target="_top" title="./OKUMA.123456-y_axis.html" xlink:actuate="onRequest" xlink:href="./OKUMA.123456-y_axis.html" xlink:show="new" xlink:title="./OKUMA.123456-y_axis.html" xlink:type="simple"><text fill="#0000FF" font-family="sans-serif" font-size="14" lengthAdjust="spacing" text-decoration="underline" textLength="192.835" x="581.51" y="102.5352">data:OKUMA.123456-y_axis</text></a><line style="stroke:#181818;stroke-width:0.5;" x1="575.51" x2="780.345" y1="107.4883" y2="107.4883"/><text fill="#000000" font-family="sans-serif" font-size="14" lengthAdjust="spacing" textLength="131.7832" x="580.51" y="125.0234">type = ex:Structure</text></g><g class="entity" data-entity="o4" data-source-line="12" data-uid="ent0005" id="entity_o4"><rect fill="#F1F1F1" height="44.9766" rx="2.5" ry="2.5" style="stroke:#181818;stroke-width:0.5;" width="216.3984" x="569.73" y="167"/><a href="./OKUMA.123456-z1_axis.html" target="_top" title="./OKUMA.123456-z1_axis.html" xlink:actuate="onRequest" xlink:href="./OKUMA.123456-z1_axis.html" xlink:show="new" xlink:title="./OKUMA.123456-z1_axis.html" xlink:type="simple"><text fill="#0000FF" font-family="sans-serif" font-size="14" lengthAdjust="spacing" text-decoration="underline" textLength="202.3984" x="576.73" y="182.5352">data:OKUMA.123456-z1_axis</text></a><line style="stroke:#181818;stroke-width:0.5;" x1="570.73" x2="785.1284" y1="187.4883" y2="187.4883"/><text fill="#000000" font-family="sans-serif" font-size="14" lengthAdjust="spacing" textLength="131.7832" x="575.73" y="205.0234">type = ex:Structure</text></g><g class="entity" data-entity="o5" data-source-line="15" data-uid="ent0006" id="entity_o5"><rect fill="#F1F1F1" height="44.9766" rx="2.5" ry="2.5" style="stroke:#181818;stroke-width:0.5;" width="216.3984" x="569.73" y="247"/><a href="./OKUMA.123456-z4_axis.html" target="_top" title="./OKUMA.123456-z4_axis.html" xlink:actuate="onRequest" xlink:href="./OKUMA.123456-z4_axis.html" xlink:show="new" xlink:title="./OKUMA.123456-z4_axis.html" xlink:type="simple"><text fill="#0000FF" font-family="sans-serif" font-size="14" lengthAdjust="spacing" text-decoration="underline" textLength="202.3984" x="576.73" y="262.5352">data:OKUMA.123456-z4_axis</text></a><line style="stroke:#181818;stroke-width:0.5;" x1="570.73" x2="785.1284" y1="267.4883" y2="267.4883"/><text fill="#000000" font-family="sans-serif" font-size="14" lengthAdjust="spacing" textLength="131.7832" x="575.73" y="285.0234">type = ex:Structure</text></g><g class="entity" data-entity="o6" data-source-line="18" data-uid="ent0007" id="entity_o6"><rect fill="#F1F1F1" height="44.9766" rx="2.5" ry="2.5" style="stroke:#181818;stroke-width:0.5;" width="208.332" x="573.76" y="327"/><a href="./OKUMA.123456-b_axis.html" target="_top" title="./OKUMA.123456-b_axis.html" xlink:actuate="onRequest" xlink:href="./OKUMA.123456-b_axis.html" xlink:show="new" xlink:title="./OKUMA.123456-b_axis.html" xlink:type="simple"><text fill="#0000FF" font-family="sans-serif" font-size="14" lengthAdjust="spacing" text-decoration="underline" textLength="194.332" x="580.76" y="342.5352">data:OKUMA.123456-b_axis</text></a><line style="stroke:#181818;stroke-width:0.5;" x1="574.76" x2="781.092" y1="347.4883" y2="347.4883"/><text fill="#000000" font-family="sans-serif" font-size="14" lengthAdjust="spacing" textLength="131.7832" x="579.76" y="365.0234">type = ex:Structure</text></g><g class="entity" data-entity="o7" data-source-line="21" data-uid="ent0008" id="entity_o7"><rect fill="#F1F1F1" height="44.9766" rx="2.5" ry="2.5" style="stroke:#181818;stroke-width:0.5;" width="215.5439" x="570.16" y="407"/><a href="./OKUMA.123456-c1_axis.html" target="_top" title="./OKUMA.123456-c1_axis.html" xlink:actuate="onRequest" xlink:href="./OKUMA.123456-c1_axis.html" xlink:show="new" xlink:title="./OKUMA.123456-c1_axis.html" xlink:type="simple"><text fill="#0000FF" font-family="sans-serif" font-size="14" lengthAdjust="spacing" text-decoration="underline" textLength="201.5439" x="577.16" y="422.5352">data:OKUMA.123456-c1_axis</text></a><line style="stroke:#181818;stroke-width:0.5;" x1="571.16" x2="784.7039" y1="427.4883" y2="427.4883"/><text fill="#000000" font-family="sans-serif" font-size="14" lengthAdjust="spacing" textLength="131.7832" x="576.16" y="445.0234">type = ex:Structure</text></g><g class="entity" data-entity="o8" data-source-line="24" data-uid="ent0009" id="entity_o8"><rect fill="#F1F1F1" height="44.9766" rx="2.5" ry="2.5" style="stroke:#181818;stroke-width:0.5;" width="215.5439" x="570.16" y="487"/><a href="./OKUMA.123456-c2_axis.html" target="_top" title="./OKUMA.123456-c2_axis.html" xlink:actuate="onRequest" xlink:href="./OKUMA.123456-c2_axis.html" xlink:show="new" xlink:title="./OKUMA.123456-c2_axis.html" xlink:type="simple"><text fill="#0000FF" font-family="sans-serif" font-size="14" lengthAdjust="spacing" text-decoration="underline" textLength="201.5439" x="577.16" y="502.5352">data:OKUMA.123456-c2_axis</text></a><line style="stroke:#181818;stroke-width:0.5;" x1="571.16" x2="784.7039" y1="507.4883" y2="507.4883"/><text fill="#000000" font-family="sans-serif" font-size="14" lengthAdjust="spacing" textLength="131.7832" x="576.16" y="525.0234">type = ex:Structure</text></g><g class="entity" data-entity="o9" data-source-line="27" data-uid="ent0010" id="entity_o9"><rect fill="#F1F1F1" height="44.9766" rx="2.5" ry="2.5" style="stroke:#181818;stroke-width:0.5;" width="218.7529" x="568.55" y="567"/><a href="./OKUMA.123456-Lx1.html" target="_top" title="./OKUMA.123456-Lx1.html" xlink:actuate="onRequest" xlink:href="./OKUMA.123456-Lx1.html" xlink:show="new" xlink:title="./OKUMA.123456-Lx1.html" xlink:type="simple"><text fill="#0000FF" font-family="sans-serif" font-size="14" lengthAdjust="spacing" text-decoration="underline" textLength="175.9229" x="589.965" y="582.5352">data:OKUMA.123456-Lx1</text></a><line style="stroke:#181818;stroke-width:0.5;" x1="569.55" x2="786.3029" y1="587.4883" y2="587.4883"/><text fill="#000000" font-family="sans-serif" font-size="14" lengthAdjust="spacing" textLength="206.7529" x="574.55" y="605.0234">type = ex:LinearMotionSystem</text></g><g class="entity" data-entity="o10" data-source-line="30" data-uid="ent0011" id="entity_o10"><rect fill="#F1F1F1" height="44.9766" rx="2.5" ry="2.5" style="stroke:#181818;stroke-width:0.5;" width="218.7529" x="568.55" y="647"/><a href="./OKUMA.123456-LYI1.html" target="_top" title="./OKUMA.123456-LYI1.html" xlink:actuate="onRequest" xlink:href="./OKUMA.123456-LYI1.html" xlink:show="new" xlink:title="./OKUMA.123456-LYI1.html" xlink:type="simple"><text fill="#0000FF" font-family="sans-serif" font-size="14" lengthAdjust="spacing" text-decoration="underline" textLength="180.0928" x="587.8801" y="662.5352">data:OKUMA.123456-LYI1</text></a><line style="stroke:#181818;stroke-width:0.5;" x1="569.55" x2="786.3029" y1="667.4883" y2="667.4883"/><text fill="#000000" font-family="sans-serif" font-size="14" lengthAdjust="spacing" textLength="206.7529" x="574.55" y="685.0234">type = ex:LinearMotionSystem</text></g><g class="entity" data-entity="o11" data-source-line="33" data-uid="ent0012" id="entity_o11"><rect fill="#F1F1F1" height="44.9766" rx="2.5" ry="2.5" style="stroke:#181818;stroke-width:0.5;" width="218.7529" x="568.55" y="727"/><a href="./OKUMA.123456-Lz1.html" target="_top" title="./OKUMA.123456-Lz1.html" xlink:actuate="onRequest" xlink:href="./OKUMA.123456-Lz1.html" xlink:show="new" xlink:title="./OKUMA.123456-Lz1.html" xlink:type="simple"><text fill="#0000FF" font-family="sans-serif" font-size="14" lengthAdjust="spacing" text-decoration="underline" textLength="175.3623" x="590.2453" y="742.5352">data:OKUMA.123456-Lz1</text></a><line style="stroke:#181818;stroke-width:0.5;" x1="569.55" x2="786.3029" y1="747.4883" y2="747.4883"/><text fill="#000000" font-family="sans-serif" font-size="14" lengthAdjust="spacing" textLength="206.7529" x="574.55" y="765.0234">type = ex:LinearMotionSystem</text></g><g class="entity" data-entity="o12" data-source-line="36" data-uid="ent0013" id="entity_o12"><rect fill="#F1F1F1" height="44.9766" rx="2.5" ry="2.5" style="stroke:#181818;stroke-width:0.5;" width="220.7559" x="567.55" y="807"/><a href="./OKUMA.123456-Lb1.html" target="_top" title="./OKUMA.123456-Lb1.html" xlink:actuate="onRequest" xlink:href="./OKUMA.123456-Lb1.html" xlink:show="new" xlink:title="./OKUMA.123456-Lb1.html" xlink:type="simple"><text fill="#0000FF" font-family="sans-serif" font-size="14" lengthAdjust="spacing" text-decoration="underline" textLength="176.1484" x="589.8537" y="822.5352">data:OKUMA.123456-Lb1</text></a><line style="stroke:#181818;stroke-width:0.5;" x1="568.55" x2="787.3059" y1="827.4883" y2="827.4883"/><text fill="#000000" font-family="sans-serif" font-size="14" lengthAdjust="spacing" textLength="208.7559" x="573.55" y="845.0234">type = ex:RotaryMotionSystem</text></g><g class="entity" data-entity="o13" data-source-line="39" data-uid="ent0014" id="entity_o13"><rect fill="#F1F1F1" height="44.9766" rx="2.5" ry="2.5" style="stroke:#181818;stroke-width:0.5;" width="220.7559" x="567.55" y="887"/><a href="./OKUMA.123456-Lc1.html" target="_top" title="./OKUMA.123456-Lc1.html" xlink:actuate="onRequest" xlink:href="./OKUMA.123456-Lc1.html" xlink:show="new" xlink:title="./OKUMA.123456-Lc1.html" xlink:type="simple"><text fill="#0000FF" font-family="sans-serif" font-size="14" lengthAdjust="spacing" text-decoration="underline" textLength="174.5078" x="590.674" y="902.5352">data:OKUMA.123456-Lc1</text></a><line style="stroke:#181818;stroke-width:0.5;" x1="568.55" x2="787.3059" y1="907.4883" y2="907.4883"/><text fill="#000000" font-family="sans-serif" font-size="14" lengthAdjust="spacing" textLength="208.7559" x="573.55" y="925.0234">type = ex:RotaryMotionSystem</text></g><g class="entity" data-entity="o14" data-source-line="42" data-uid="ent0015" id="entity_o14"><rect fill="#F1F1F1" height="44.9766" rx="2.5" ry="2.5" style="stroke:#181818;stroke-width:0.5;" width="218.7529" x="568.55" y="967"/><a href="./OKUMA.123456-Lz4.html" target="_top" title="./OKUMA.123456-Lz4.html" xlink:actuate="onRequest" xlink:href="./OKUMA.123456-Lz4.html" xlink:show="new" xlink:title="./OKUMA.123456-Lz4.html" xlink:type="simple"><text fill="#0000FF" font-family="sans-serif" font-size="14" lengthAdjust="spacing" text-decoration="underline" textLength="175.3623" x="590.2453" y="982.5352">data:OKUMA.123456-Lz4</text></a><line style="stroke:#181818;stroke-width:0.5;" x1="569.55" x2="786.3029" y1="987.4883" y2="987.4883"/><text fill="#000000" font-family="sans-serif" font-size="14" lengthAdjust="spacing" textLength="206.7529" x="574.55" y="1005.0234">type = ex:LinearMotionSystem</text></g><g class="entity" data-entity="o15" data-source-line="45" data-uid="ent0016" id="entity_o15"><rect fill="#F1F1F1" height="44.9766" rx="2.5" ry="2.5" style="stroke:#181818;stroke-width:0.5;" width="220.7559" x="567.55" y="1047"/><a href="./OKUMA.123456-Lc2.html" target="_top" title="./OKUMA.123456-Lc2.html" xlink:actuate="onRequest" xlink:href="./OKUMA.123456-Lc2.html" xlink:show="new" xlink:title="./OKUMA.123456-Lc2.html" xlink:type="simple"><text fill="#0000FF" font-family="sans-serif" font-size="14" lengthAdjust="spacing" text-decoration="underline" textLength="174.5078" x="590.674" y="1062.5352">data:OKUMA.123456-Lc2</text></a><line style="stroke:#181818;stroke-width:0.5;" x1="568.55" x2="787.3059" y1="1067.4883" y2="1067.4883"/><text fill="#000000" font-family="sans-serif" font-size="14" lengthAdjust="spacing" textLength="208.7559" x="573.55" y="1085.0234">type = ex:RotaryMotionSystem</text></g><g class="entity" data-entity="o16" data-source-line="48" data-uid="ent0017" id="entity_o16"><rect fill="#F1F1F1" height="44.9766" rx="2.5" ry="2.5" style="stroke:#181818;stroke-width:0.5;" width="220.7559" x="567.55" y="1127"/><a href="./OKUMA.123456-Lc3.html" target="_top" title="./OKUMA.123456-Lc3.html" xlink:actuate="onRequest" xlink:href="./OKUMA.123456-Lc3.html" xlink:show="new" xlink:title="./OKUMA.123456-Lc3.html" xlink:type="simple"><text fill="#0000FF" font-family="sans-serif" font-size="14" lengthAdjust="spacing" text-decoration="underline" textLength="174.5078" x="590.674" y="1142.5352">data:OKUMA.123456-Lc3</text></a><line style="stroke:#181818;stroke-width:0.5;" x1="568.55" x2="787.3059" y1="1147.4883" y2="1147.4883"/><text fill="#000000" font-family="sans-serif" font-size="14" lengthAdjust="spacing" textLength="208.7559" x="573.55" y="1165.0234">type = ex:RotaryMotionSystem</text></g><g class="entity" data-entity="o17" data-source-line="51" data-uid="ent0018" id="entity_o17"><rect fill="#F1F1F1" height="44.9766" rx="2.5" ry="2.5" style="stroke:#181818;stroke-width:0.5;" width="220.7559" x="567.55" y="1207"/><a href="./OKUMA.123456-Lc6.html" target="_top" title="./OKUMA.123456-Lc6.html" xlink:actuate="onRequest" xlink:href="./OKUMA.123456-Lc6.html" xlink:show="new" xlink:title="./OKUMA.123456-Lc6.html" xlink:type="simple"><text fill="#0000FF" font-family="sans-serif" font-size="14" lengthAdjust="spacing" text-decoration="underline" textLength="174.5078" x="590.674" y="1222.5352">data:OKUMA.123456-Lc6</text></a><line style="stroke:#181818;stroke-width:0.5;" x1="568.55" x2="787.3059" y1="1227.4883" y2="1227.4883"/><text fill="#000000" font-family="sans-serif" font-size="14" lengthAdjust="spacing" textLength="208.7559" x="573.55" y="1245.0234">type = ex:RotaryMotionSystem</text></g><g class="entity" data-entity="o18" data-source-line="54" data-uid="ent0019" id="entity_o18"><rect fill="#F1F1F1" height="61.4648" rx="2.5" ry="2.5" style="stroke:#181818;stroke-width:0.5;" width="235.9248" x="559.97" y="1286.76"/><a href="./OKUMA.123456-Lct1.html" target="_top" title="./OKUMA.123456-Lct1.html" xlink:actuate="onRequest" xlink:href="./OKUMA.123456-Lct1.html" xlink:show="new" xlink:title="./OKUMA.123456-Lct1.html" xlink:type="simple"><text fill="#0000FF" font-family="sans-serif" font-size="14" lengthAdjust="spacing" text-decoration="underline" textLength="179.7441" x="588.0603" y="1302.2952">data:OKUMA.123456-Lct1</text></a><line style="stroke:#181818;stroke-width:0.5;" x1="560.97" x2="794.8948" y1="1307.2483" y2="1307.2483"/><text fill="#000000" font-family="sans-serif" font-size="14" lengthAdjust="spacing" textLength="168.6494" x="565.97" y="1324.7834">type = ex:ControlSystem</text><text fill="#000000" font-family="sans-serif" font-size="14" lengthAdjust="spacing" textLength="223.9248" x="565.97" y="1341.2717">cmns-dsg:hasName = Controller</text></g><g class="entity" data-entity="o19" data-source-line="57" data-uid="ent0020" id="entity_o19"><rect fill="#F1F1F1" height="44.9766" rx="2.5" ry="2.5" style="stroke:#181818;stroke-width:0.5;" width="282.0234" x="536.92" y="1383"/><a href="./OKUMA.123456-LCoolantSystem1.html" target="_top" title="./OKUMA.123456-LCoolantSystem1.html" xlink:actuate="onRequest" xlink:href="./OKUMA.123456-LCoolantSystem1.html" xlink:show="new" xlink:title="./OKUMA.123456-LCoolantSystem1.html" xlink:type="simple"><text fill="#0000FF" font-family="sans-serif" font-size="14" lengthAdjust="spacing" text-decoration="underline" textLength="268.0234" x="543.92" y="1398.5352">data:OKUMA.123456-LCoolantSystem1</text></a><line style="stroke:#181818;stroke-width:0.5;" x1="537.92" x2="817.9434" y1="1403.4883" y2="1403.4883"/><text fill="#000000" font-family="sans-serif" font-size="14" lengthAdjust="spacing" textLength="121.4678" x="542.92" y="1421.0234">type = obo:object</text></g><g class="entity" data-entity="o20" data-source-line="60" data-uid="ent0021" id="entity_o20"><rect fill="#F1F1F1" height="44.9766" rx="2.5" ry="2.5" style="stroke:#181818;stroke-width:0.5;" width="278.2227" x="538.82" y="1463"/><a href="./OKUMA.123456-LElectricSystem1.html" target="_top" title="./OKUMA.123456-LElectricSystem1.html" xlink:actuate="onRequest" xlink:href="./OKUMA.123456-LElectricSystem1.html" xlink:show="new" xlink:title="./OKUMA.123456-LElectricSystem1.html" xlink:type="simple"><text fill="#0000FF" font-family="sans-serif" font-size="14" lengthAdjust="spacing" text-decoration="underline" textLength="264.2227" x="545.82" y="1478.5352">data:OKUMA.123456-LElectricSystem1</text></a><line style="stroke:#181818;stroke-width:0.5;" x1="539.82" x2="816.0427" y1="1483.4883" y2="1483.4883"/><text fill="#000000" font-family="sans-serif" font-size="14" lengthAdjust="spacing" textLength="178.6299" x="544.82" y="1501.0234">type = ex:ElectricalSystem</text></g><g class="entity" data-entity="o21" data-source-line="63" data-uid="ent0022" id="entity_o21"><rect fill="#F1F1F1" height="44.9766" rx="2.5" ry="2.5" style="stroke:#181818;stroke-width:0.5;" width="293.2617" x="531.3" y="1543"/><a href="./OKUMA.123456-LHydraulicSystem1.html" target="_top" title="./OKUMA.123456-LHydraulicSystem1.html" xlink:actuate="onRequest" xlink:href="./OKUMA.123456-LHydraulicSystem1.html" xlink:show="new" xlink:title="./OKUMA.123456-LHydraulicSystem1.html" xlink:type="simple"><text fill="#0000FF" font-family="sans-serif" font-size="14" lengthAdjust="spacing" text-decoration="underline" textLength="279.2617" x="538.3" y="1558.5352">data:OKUMA.123456-LHydraulicSystem1</text></a><line style="stroke:#181818;stroke-width:0.5;" x1="532.3" x2="823.5617" y1="1563.4883" y2="1563.4883"/><text fill="#000000" font-family="sans-serif" font-size="14" lengthAdjust="spacing" textLength="181.8906" x="537.3" y="1581.0234">type = ex:HydraulicSystem</text></g><g class="entity" data-entity="o22" data-source-line="66" data-uid="ent0023" id="entity_o22"><rect fill="#F1F1F1" height="44.9766" rx="2.5" ry="2.5" style="stroke:#181818;stroke-width:0.5;" width="305.6484" x="525.11" y="1623"/><a href="./OKUMA.123456-LLubricationSystem1.html" target="_top" title="./OKUMA.123456-LLubricationSystem1.html" xlink:actuate="onRequest" xlink:href="./OKUMA.123456-LLubricationSystem1.html" xlink:show="new" xlink:title="./OKUMA.123456-LLubricationSystem1.html" xlink:type="simple"><text fill="#0000FF" font-family="sans-serif" font-size="14" lengthAdjust="spacing" text-decoration="underline" textLength="291.6484" x="532.11" y="1638.5352">data:OKUMA.123456-LLubricationSystem1</text></a><line style="stroke:#181818;stroke-width:0.5;" x1="526.11" x2="829.7584" y1="1643.4883" y2="1643.4883"/><text fill="#000000" font-family="sans-serif" font-size="14" lengthAdjust="spacing" textLength="194.2773" x="531.11" y="1661.0234">type = ex:LubricationSystem</text></g><g class="entity" data-entity="o23" data-source-line="69" data-uid="ent0024" id="entity_o23"><rect fill="#F1F1F1" height="44.9766" rx="2.5" ry="2.5" style="stroke:#181818;stroke-width:0.5;" width="299.6055" x="528.13" y="1703"/><a href="./OKUMA.123456-LPneumaticSystem1.html" target="_top" title="./OKUMA.123456-LPneumaticSystem1.html" xlink:actuate="onRequest" xlink:href="./OKUMA.123456-LPneumaticSystem1.html" xlink:show="new" xlink:title="./OKUMA.123456-LPneumaticSystem1.html" xlink:type="simple"><text fill="#0000FF" font-family="sans-serif" font-size="14" lengthAdjust="spacing" text-decoration="underline" textLength="285.6055" x="535.13" y="1718.5352">data:OKUMA.123456-LPneumaticSystem1</text></a><line style="stroke:#181818;stroke-width:0.5;" x1="529.13" x2="826.7355" y1="1723.4883" y2="1723.4883"/><text fill="#000000" font-family="sans-serif" font-size="14" lengthAdjust="spacing" textLength="188.2344" x="534.13" y="1741.0234">type = ex:PneumaticSystem</text></g><g class="entity" data-entity="o24" data-source-line="72" data-uid="ent0025" id="entity_o24"><rect fill="#F1F1F1" height="44.9766" rx="2.5" ry="2.5" style="stroke:#181818;stroke-width:0.5;" width="275.5703" x="540.15" y="1783"/><a href="./OKUMA.123456-LLoaderSystem1.html" target="_top" title="./OKUMA.123456-LLoaderSystem1.html" xlink:actuate="onRequest" xlink:href="./OKUMA.123456-LLoaderSystem1.html" xlink:show="new" xlink:title="./OKUMA.123456-LLoaderSystem1.html" xlink:type="simple"><text fill="#0000FF" font-family="sans-serif" font-size="14" lengthAdjust="spacing" text-decoration="underline" textLength="261.5703" x="547.15" y="1798.5352">data:OKUMA.123456-LLoaderSystem1</text></a><line style="stroke:#181818;stroke-width:0.5;" x1="541.15" x2="814.7203" y1="1803.4883" y2="1803.4883"/><text fill="#000000" font-family="sans-serif" font-size="14" lengthAdjust="spacing" textLength="121.4678" x="546.15" y="1821.0234">type = obo:object</text></g><g class="entity" data-entity="o25" data-source-line="75" data-uid="ent0026" id="entity_o25"><rect fill="#F1F1F1" height="44.9766" rx="2.5" ry="2.5" style="stroke:#181818;stroke-width:0.5;" width="327.3115" x="514.27" y="1863"/><a href="./OKUMA.123456-LWasteDisposalSystem1.html" target="_top" title="./OKUMA.123456-LWasteDisposalSystem1.html" xlink:actuate="onRequest" xlink:href="./OKUMA.123456-LWasteDisposalSystem1.html" xlink:show="new" xlink:title="./OKUMA.123456-LWasteDisposalSystem1.html" xlink:type="simple"><text fill="#0000FF" font-family="sans-serif" font-size="14" lengthAdjust="spacing" text-decoration="underline" textLength="313.3115" x="521.27" y="1878.5352">data:OKUMA.123456-LWasteDisposalSystem1</text></a><line style="stroke:#181818;stroke-width:0.5;" x1="515.27" x2="840.5815" y1="1883.4883" y2="1883.4883"/><text fill="#000000" font-family="sans-serif" font-size="14" lengthAdjust="spacing" textLength="121.4678" x="520.27" y="1901.0234">type = obo:object</text></g><g class="entity" data-entity="o26" data-source-line="78" data-uid="ent0027" id="entity_o26"><rect fill="#F1F1F1" height="44.9766" rx="2.5" ry="2.5" style="stroke:#181818;stroke-width:0.5;" width="335.4668" x="510.2" y="1943"/><a href="./OKUMA.123456-LToolingDeliverySystem1.html" target="_top" title="./OKUMA.123456-LToolingDeliverySystem1.html" xlink:actuate="onRequest" xlink:href="./OKUMA.123456-LToolingDeliverySystem1.html" xlink:show="new" xlink:title="./OKUMA.123456-LToolingDeliverySystem1.html" xlink:type="simple"><text fill="#0000FF" font-family="sans-serif" font-size="14" lengthAdjust="spacing" text-decoration="underline" textLength="321.4668" x="517.2" y="1958.5352">data:OKUMA.123456-LToolingDeliverySystem1</text></a><line style="stroke:#181818;stroke-width:0.5;" x1="511.2" x2="844.6668" y1="1963.4883" y2="1963.4883"/><text fill="#000000" font-family="sans-serif" font-size="14" lengthAdjust="spacing" textLength="121.4678" x="516.2" y="1981.0234">type = obo:object</text></g><g class="entity" data-entity="o27" data-source-line="81" data-uid="ent0028" id="entity_o27"><rect fill="#F1F1F1" height="44.9766" rx="2.5" ry="2.5" style="stroke:#181818;stroke-width:0.5;" width="296.3926" x="529.73" y="2023"/><a href="./OKUMA.123456-LBarFeederSystem1.html" target="_top" title="./OKUMA.123456-LBarFeederSystem1.html" xlink:actuate="onRequest" xlink:href="./OKUMA.123456-LBarFeederSystem1.html" xlink:show="new" xlink:title="./OKUMA.123456-LBarFeederSystem1.html" xlink:type="simple"><text fill="#0000FF" font-family="sans-serif" font-size="14" lengthAdjust="spacing" text-decoration="underline" textLength="282.3926" x="536.73" y="2038.5352">data:OKUMA.123456-LBarFeederSystem1</text></a><line style="stroke:#181818;stroke-width:0.5;" x1="530.73" x2="825.1226" y1="2043.4883" y2="2043.4883"/><text fill="#000000" font-family="sans-serif" font-size="14" lengthAdjust="spacing" textLength="121.4678" x="535.73" y="2061.0234">type = obo:object</text></g><g class="entity" data-entity="o28" data-source-line="84" data-uid="ent0029" id="entity_o28"><rect fill="#F1F1F1" height="44.9766" rx="2.5" ry="2.5" style="stroke:#181818;stroke-width:0.5;" width="232.3193" x="561.77" y="2103"/><a href="./OKUMA.123456-personnel.html" target="_top" title="./OKUMA.123456-personnel.html" xlink:actuate="onRequest" xlink:href="./OKUMA.123456-personnel.html" xlink:show="new" xlink:title="./OKUMA.123456-personnel.html" xlink:type="simple"><text fill="#0000FF" font-family="sans-serif" font-size="14" lengthAdjust="spacing" text-decoration="underline" textLength="218.3193" x="568.77" y="2118.5352">data:OKUMA.123456-personnel</text></a><line style="stroke:#181818;stroke-width:0.5;" x1="562.77" x2="793.0893" y1="2123.4883" y2="2123.4883"/><text fill="#000000" font-family="sans-serif" font-size="14" lengthAdjust="spacing" textLength="128.5703" x="567.77" y="2141.0234">type = core:Person</text></g><g class="entity" data-entity="o29" data-source-line="87" data-uid="ent0030" id="entity_o29"><rect fill="#F1F1F1" height="44.9766" rx="2.5" ry="2.5" style="stroke:#181818;stroke-width:0.5;" width="230.6787" x="562.59" y="2183"/><a href="./OKUMA.123456-enclosure.html" target="_top" title="./OKUMA.123456-enclosure.html" xlink:actuate="onRequest" xlink:href="./OKUMA.123456-enclosure.html" xlink:show="new" xlink:title="./OKUMA.123456-enclosure.html" xlink:type="simple"><text fill="#0000FF" font-family="sans-serif" font-size="14" lengthAdjust="spacing" text-decoration="underline" textLength="216.6787" x="569.59" y="2198.5352">data:OKUMA.123456-enclosure</text></a><line style="stroke:#181818;stroke-width:0.5;" x1="563.59" x2="792.2687" y1="2203.4883" y2="2203.4883"/><text fill="#000000" font-family="sans-serif" font-size="14" lengthAdjust="spacing" textLength="131.7832" x="568.59" y="2221.0234">type = ex:Structure</text></g><g class="entity" data-entity="o30" data-source-line="90" data-uid="ent0031" id="entity_o30"><rect fill="#F1F1F1" height="44.9766" rx="2.5" ry="2.5" style="stroke:#181818;stroke-width:0.5;" width="226.9736" x="1129.66" y="1295"/><a href="./OKUMA.123456-Lct1-Lp1.html" target="_top" title="./OKUMA.123456-Lct1-Lp1.html" xlink:actuate="onRequest" xlink:href="./OKUMA.123456-Lct1-Lp1.html" xlink:show="new" xlink:title="./OKUMA.123456-Lct1-Lp1.html" xlink:type="simple"><text fill="#0000FF" font-family="sans-serif" font-size="14" lengthAdjust="spacing" text-decoration="underline" textLength="212.9736" x="1136.66" y="1310.5352">data:OKUMA.123456-Lct1-Lp1</text></a><line style="stroke:#181818;stroke-width:0.5;" x1="1130.66" x2="1355.6336" y1="1315.4883" y2="1315.4883"/><text fill="#000000" font-family="sans-serif" font-size="14" lengthAdjust="spacing" textLength="198.0439" x="1135.66" y="1333.0234">type = ex:ControlSystemPath</text></g><!--link o1 to o2--><g class="link" data-entity-1="o1" data-entity-2="o2" data-source-line="93" data-uid="lnk32" id="link_o1_o2"><path codeLine="93" d="M122.01,1078.37 C145.66,911.72 256.2,132.49 256.2,132.49 C256.2,132.49 510.2,69.49 510.2,69.49 C510.2,69.49 538.3057,62.7502 575.5557,53.8102" fill="none" id="o1-to-o2" style="stroke:#181818;stroke-width:1;"/><polygon fill="#181818" points="581.39,52.41,571.705,50.6208,576.5281,53.5769,573.572,58.3999,581.39,52.41" style="stroke:#181818;stroke-width:1;"/><text fill="#000000" font-family="sans-serif" font-size="13" lengthAdjust="spacing" textLength="222.5425" x="257.2" y="73.8684">obo:has member part at some time</text></g><!--link o1 to o3--><g class="link" data-entity-1="o1" data-entity-2="o3" data-source-line="95" data-uid="lnk33" id="link_o1_o3"><path codeLine="95" d="M122.41,1078.35 C146.86,920.11 256.2,212.49 256.2,212.49 C256.2,212.49 510.2,149.49 510.2,149.49 C510.2,149.49 538.3057,142.7502 575.5557,133.8102" fill="none" id="o1-to-o3" style="stroke:#181818;stroke-width:1;"/><polygon fill="#181818" points="581.39,132.41,571.705,130.6208,576.5281,133.5769,573.572,138.3999,581.39,132.41" style="stroke:#181818;stroke-width:1;"/><text fill="#000000" font-family="sans-serif" font-size="13" lengthAdjust="spacing" textLength="222.5425" x="257.2" y="153.8684">obo:has member part at some time</text></g><!--link o1 to o4--><g class="link" data-entity-1="o1" data-entity-2="o4" data-source-line="96" data-uid="lnk34" id="link_o1_o4"><path codeLine="96" d="M122.86,1078.46 C148.18,929.23 256.2,292.49 256.2,292.49 C256.2,292.49 510.2,229.49 510.2,229.49 C510.2,229.49 538.3057,222.7502 575.5557,213.8102" fill="none" id="o1-to-o4" style="stroke:#181818;stroke-width:1;"/><polygon fill="#181818" points="581.39,212.41,571.705,210.6208,576.5281,213.5769,573.572,218.3999,581.39,212.41" style="stroke:#181818;stroke-width:1;"/><text fill="#000000" font-family="sans-serif" font-size="13" lengthAdjust="spacing" textLength="222.5425" x="257.2" y="233.8684">obo:has member part at some time</text></g><!--link o1 to o5--><g class="link" data-entity-1="o1" data-entity-2="o5" data-source-line="97" data-uid="lnk35" id="link_o1_o5"><path codeLine="97" d="M123.47,1078.29 C149.85,938.02 256.2,372.49 256.2,372.49 C256.2,372.49 510.2,309.49 510.2,309.49 C510.2,309.49 538.3057,302.7502 575.5557,293.8102" fill="none" id="o1-to-o5" style="stroke:#181818;stroke-width:1;"/><polygon fill="#181818" points="581.39,292.41,571.705,290.6208,576.5281,293.5769,573.572,298.3999,581.39,292.41" style="stroke:#181818;stroke-width:1;"/><text fill="#000000" font-family="sans-serif" font-size="13" lengthAdjust="spacing" textLength="222.5425" x="257.2" y="313.8684">obo:has member part at some time</text></g><!--link o1 to o6--><g class="link" data-entity-1="o1" data-entity-2="o6" data-source-line="98" data-uid="lnk36" id="link_o1_o6"><path codeLine="98" d="M124.1,1078.68 C151.5,948.79 256.2,452.49 256.2,452.49 C256.2,452.49 510.2,389.49 510.2,389.49 C510.2,389.49 538.3057,382.7502 575.5557,373.8102" fill="none" id="o1-to-o6" style="stroke:#181818;stroke-width:1;"/><polygon fill="#181818" points="581.39,372.41,571.705,370.6208,576.5281,373.5769,573.572,378.3999,581.39,372.41" style="stroke:#181818;stroke-width:1;"/><text fill="#000000" font-family="sans-serif" font-size="13" lengthAdjust="spacing" textLength="222.5425" x="257.2" y="393.8684">obo:has member part at some time</text></g><!--link o1 to o7--><g class="link" data-entity-1="o1" data-entity-2="o7" data-source-line="99" data-uid="lnk37" id="link_o1_o7"><path codeLine="99" d="M125.05,1078.47 C153.84,958.62 256.2,532.49 256.2,532.49 C256.2,532.49 510.2,469.49 510.2,469.49 C510.2,469.49 538.3057,462.7502 575.5557,453.8102" fill="none" id="o1-to-o7" style="stroke:#181818;stroke-width:1;"/><polygon fill="#181818" points="581.39,452.41,571.705,450.6208,576.5281,453.5769,573.572,458.3999,581.39,452.41" style="stroke:#181818;stroke-width:1;"/><text fill="#000000" font-family="sans-serif" font-size="13" lengthAdjust="spacing" textLength="222.5425" x="257.2" y="473.8684">obo:has member part at some time</text></g><!--link o1 to o8--><g class="link" data-entity-1="o1" data-entity-2="o8" data-source-line="100" data-uid="lnk38" id="link_o1_o8"><path codeLine="100" d="M126.27,1078.4 C156.61,969.6 256.2,612.49 256.2,612.49 C256.2,612.49 510.2,549.49 510.2,549.49 C510.2,549.49 538.3057,542.7502 575.5557,533.8102" fill="none" id="o1-to-o8" style="stroke:#181818;stroke-width:1;"/><polygon fill="#181818" points="581.39,532.41,571.705,530.6208,576.5281,533.5769,573.572,538.3999,581.39,532.41" style="stroke:#181818;stroke-width:1;"/><text fill="#000000" font-family="sans-serif" font-size="13" lengthAdjust="spacing" textLength="222.5425" x="257.2" y="553.8684">obo:has member part at some time</text></g><!--link o1 to o9--><g class="link" data-entity-1="o1" data-entity-2="o9" data-source-line="101" data-uid="lnk39" id="link_o1_o9"><path codeLine="101" d="M127.9,1078.49 C160.02,981.85 256.2,692.49 256.2,692.49 C256.2,692.49 510.2,629.49 510.2,629.49 C510.2,629.49 538.3057,622.7502 575.5557,613.8102" fill="none" id="o1-to-o9" style="stroke:#181818;stroke-width:1;"/><polygon fill="#181818" points="581.39,612.41,571.705,610.6208,576.5281,613.5769,573.572,618.3999,581.39,612.41" style="stroke:#181818;stroke-width:1;"/><text fill="#000000" font-family="sans-serif" font-size="13" lengthAdjust="spacing" textLength="222.5425" x="257.2" y="633.8684">obo:has member part at some time</text></g><!--link o1 to o10--><g class="link" data-entity-1="o1" data-entity-2="o10" data-source-line="102" data-uid="lnk40" id="link_o1_o10"><path codeLine="102" d="M130.39,1078.3 C164.7,994.62 256.2,771.49 256.2,771.49 C256.2,771.49 510.2,709.49 510.2,709.49 C510.2,709.49 538.3057,702.7502 575.5557,693.8102" fill="none" id="o1-to-o10" style="stroke:#181818;stroke-width:1;"/><polygon fill="#181818" points="581.39,692.41,571.705,690.6208,576.5281,693.5769,573.572,698.3999,581.39,692.41" style="stroke:#181818;stroke-width:1;"/><text fill="#000000" font-family="sans-serif" font-size="13" lengthAdjust="spacing" textLength="222.5425" x="257.2" y="713.7384">obo:has member part at some time</text></g><!--link o1 to o11--><g class="link" data-entity-1="o1" data-entity-2="o11" data-source-line="103" data-uid="lnk41" id="link_o1_o11"><path codeLine="103" d="M134.18,1078.39 C170.97,1009.38 256.2,849.49 256.2,849.49 C256.2,849.49 450.3527,803.3477 574.5727,773.8177" fill="none" id="o1-to-o11" style="stroke:#181818;stroke-width:1;"/><polygon fill="#181818" points="580.41,772.43,570.7289,770.62,575.5456,773.5864,572.5791,778.4031,580.41,772.43" style="stroke:#181818;stroke-width:1;"/><text fill="#000000" font-family="sans-serif" font-size="13" lengthAdjust="spacing" textLength="222.5425" x="257.2" y="793.0584">obo:has member part at some time</text></g><!--link o1 to o12--><g class="link" data-entity-1="o1" data-entity-2="o12" data-source-line="104" data-uid="lnk42" id="link_o1_o12"><path codeLine="104" d="M141.11,1078.28 C180.65,1025.78 256.2,925.49 256.2,925.49 C256.2,925.49 446.1103,882.1544 570.5703,853.7644" fill="none" id="o1-to-o12" style="stroke:#181818;stroke-width:1;"/><polygon fill="#181818" points="576.42,852.43,566.7558,850.5317,571.5452,853.542,568.535,858.3314,576.42,852.43" style="stroke:#181818;stroke-width:1;"/><text fill="#000000" font-family="sans-serif" font-size="13" lengthAdjust="spacing" textLength="222.5425" x="257.2" y="871.1784">obo:has member part at some time</text></g><!--link o1 to o13--><g class="link" data-entity-1="o1" data-entity-2="o13" data-source-line="105" data-uid="lnk43" id="link_o1_o13"><path codeLine="105" d="M155.84,1078.31 C196.86,1044.87 256.2,996.49 256.2,996.49 C256.2,996.49 436.6743,959.1751 561.3343,933.3951" fill="none" id="o1-to-o13" style="stroke:#181818;stroke-width:1;"/><polygon fill="#181818" points="567.21,932.18,557.5864,930.0855,562.3136,933.1926,559.2066,937.9198,567.21,932.18" style="stroke:#181818;stroke-width:1;"/><text fill="#000000" font-family="sans-serif" font-size="13" lengthAdjust="spacing" textLength="222.5425" x="257.2" y="946.9484">obo:has member part at some time</text></g><!--link o1 to o14--><g class="link" data-entity-1="o1" data-entity-2="o14" data-source-line="106" data-uid="lnk44" id="link_o1_o14"><path codeLine="106" d="M202.21,1078.36 C231.07,1067.74 256.2,1058.49 256.2,1058.49 C256.2,1058.49 437.7291,1028.7208 562.3891,1008.2808" fill="none" id="o1-to-o14" style="stroke:#181818;stroke-width:1;"/><polygon fill="#181818" points="568.31,1007.31,558.7814,1004.819,563.3759,1008.119,560.0758,1012.7135,568.31,1007.31" style="stroke:#181818;stroke-width:1;"/><text fill="#000000" font-family="sans-serif" font-size="13" lengthAdjust="spacing" textLength="222.5425" x="257.2" y="1018.4884">obo:has member part at some time</text></g><!--link o1 to o15--><g class="link" data-entity-1="o1" data-entity-2="o15" data-source-line="107" data-uid="lnk45" id="link_o1_o15"><path codeLine="107" d="M226.44,1101.71 C324.8,1094.67 462.8753,1084.7981 561.4353,1077.7481" fill="none" id="o1-to-o15" style="stroke:#181818;stroke-width:1;"/><polygon fill="#181818" points="567.42,1077.32,558.1575,1073.9723,562.4327,1077.6767,558.7283,1081.9519,567.42,1077.32" style="stroke:#181818;stroke-width:1;"/><text fill="#000000" font-family="sans-serif" font-size="13" lengthAdjust="spacing" textLength="222.5425" x="257.2" y="1080.1384">obo:has member part at some time</text></g><!--link o1 to o16--><g class="link" data-entity-1="o1" data-entity-2="o16" data-source-line="108" data-uid="lnk46" id="link_o1_o16"><path codeLine="108" d="M226.46,1120.49 C243.82,1122.24 256.2,1123.49 256.2,1123.49 C256.2,1123.49 436.5614,1134.6401 561.2214,1142.3401" fill="none" id="o1-to-o16" style="stroke:#181818;stroke-width:1;"/><polygon fill="#181818" points="567.21,1142.71,558.4737,1138.1628,562.2195,1142.4017,557.9805,1146.1475,567.21,1142.71" style="stroke:#181818;stroke-width:1;"/><text fill="#000000" font-family="sans-serif" font-size="13" lengthAdjust="spacing" textLength="222.5425" x="257.2" y="1120.0584">obo:has member part at some time</text></g><!--link o1 to o17--><g class="link" data-entity-1="o1" data-entity-2="o17" data-source-line="109" data-uid="lnk47" id="link_o1_o17"><path codeLine="109" d="M199.02,1140.63 C229.19,1152.17 256.2,1162.49 256.2,1162.49 C256.2,1162.49 436.6246,1191.2265 561.2846,1211.0765" fill="none" id="o1-to-o17" style="stroke:#181818;stroke-width:1;"/><polygon fill="#181818" points="567.21,1212.02,558.951,1206.6545,562.2722,1211.2337,557.693,1214.555,567.21,1212.02" style="stroke:#181818;stroke-width:1;"/><text fill="#000000" font-family="sans-serif" font-size="13" lengthAdjust="spacing" textLength="222.5425" x="257.2" y="1159.0584">obo:has member part at some time</text></g><!--link o1 to o18--><g class="link" data-entity-1="o1" data-entity-2="o18" data-source-line="110" data-uid="lnk48" id="link_o1_o18"><path codeLine="110" d="M155.47,1140.64 C196.51,1174.4 256.2,1223.49 256.2,1223.49 C256.2,1223.49 429.3844,1262.1814 553.8744,1290.0014" fill="none" id="o1-to-o18" style="stroke:#181818;stroke-width:1;"/><polygon fill="#181818" points="559.73,1291.31,551.819,1285.4435,554.8504,1290.2195,550.0743,1293.2509,559.73,1291.31" style="stroke:#181818;stroke-width:1;"/><text fill="#000000" font-family="sans-serif" font-size="13" lengthAdjust="spacing" textLength="222.5425" x="257.2" y="1220.0584">obo:has member part at some time</text></g><!--link o1 to o19--><g class="link" data-entity-1="o1" data-entity-2="o19" data-source-line="111" data-uid="lnk49" id="link_o1_o19"><path codeLine="111" d="M140.49,1140.7 C179.85,1194.38 256.2,1298.49 256.2,1298.49 C256.2,1298.49 510.2,1365.49 510.2,1365.49 C510.2,1365.49 538.3057,1372.2298 575.5557,1381.1698" fill="none" id="o1-to-o19" style="stroke:#181818;stroke-width:1;"/><polygon fill="#181818" points="581.39,1382.57,573.572,1376.5801,576.5281,1381.4031,571.705,1384.3592,581.39,1382.57" style="stroke:#181818;stroke-width:1;"/><text fill="#000000" font-family="sans-serif" font-size="13" lengthAdjust="spacing" textLength="222.5425" x="257.2" y="1295.0584">obo:has member part at some time</text></g><!--link o1 to o20--><g class="link" data-entity-1="o1" data-entity-2="o20" data-source-line="112" data-uid="lnk50" id="link_o1_o20"><path codeLine="112" d="M133.36,1140.54 C169.69,1212.1 256.2,1382.49 256.2,1382.49 C256.2,1382.49 510.2,1445.49 510.2,1445.49 C510.2,1445.49 538.3057,1452.2298 575.5557,1461.1698" fill="none" id="o1-to-o20" style="stroke:#181818;stroke-width:1;"/><polygon fill="#181818" points="581.39,1462.57,573.572,1456.5801,576.5281,1461.4031,571.705,1464.3592,581.39,1462.57" style="stroke:#181818;stroke-width:1;"/><text fill="#000000" font-family="sans-serif" font-size="13" lengthAdjust="spacing" textLength="222.5425" x="257.2" y="1379.0584">obo:has member part at some time</text></g><!--link o1 to o21--><g class="link" data-entity-1="o1" data-entity-2="o21" data-source-line="113" data-uid="lnk51" id="link_o1_o21"><path codeLine="113" d="M129.78,1140.51 C163.6,1226.65 256.2,1462.49 256.2,1462.49 C256.2,1462.49 510.2,1525.49 510.2,1525.49 C510.2,1525.49 538.3057,1532.2298 575.5557,1541.1698" fill="none" id="o1-to-o21" style="stroke:#181818;stroke-width:1;"/><polygon fill="#181818" points="581.39,1542.57,573.572,1536.5801,576.5281,1541.4031,571.705,1544.3592,581.39,1542.57" style="stroke:#181818;stroke-width:1;"/><text fill="#000000" font-family="sans-serif" font-size="13" lengthAdjust="spacing" textLength="222.5425" x="257.2" y="1459.0584">obo:has member part at some time</text></g><!--link o1 to o22--><g class="link" data-entity-1="o1" data-entity-2="o22" data-source-line="114" data-uid="lnk52" id="link_o1_o22"><path codeLine="114" d="M127.57,1140.63 C159.35,1239.92 256.2,1542.49 256.2,1542.49 C256.2,1542.49 510.2,1605.49 510.2,1605.49 C510.2,1605.49 538.3057,1612.2298 575.5557,1621.1698" fill="none" id="o1-to-o22" style="stroke:#181818;stroke-width:1;"/><polygon fill="#181818" points="581.39,1622.57,573.572,1616.5801,576.5281,1621.4031,571.705,1624.3592,581.39,1622.57" style="stroke:#181818;stroke-width:1;"/><text fill="#000000" font-family="sans-serif" font-size="13" lengthAdjust="spacing" textLength="222.5425" x="257.2" y="1539.0584">obo:has member part at some time</text></g><!--link o1 to o23--><g class="link" data-entity-1="o1" data-entity-2="o23" data-source-line="115" data-uid="lnk53" id="link_o1_o23"><path codeLine="115" d="M125.96,1140.43 C155.92,1251.34 256.2,1622.49 256.2,1622.49 C256.2,1622.49 510.2,1685.49 510.2,1685.49 C510.2,1685.49 538.3057,1692.2298 575.5557,1701.1698" fill="none" id="o1-to-o23" style="stroke:#181818;stroke-width:1;"/><polygon fill="#181818" points="581.39,1702.57,573.572,1696.5801,576.5281,1701.4031,571.705,1704.3592,581.39,1702.57" style="stroke:#181818;stroke-width:1;"/><text fill="#000000" font-family="sans-serif" font-size="13" lengthAdjust="spacing" textLength="222.5425" x="257.2" y="1619.0584">obo:has member part at some time</text></g><!--link o1 to o24--><g class="link" data-entity-1="o1" data-entity-2="o24" data-source-line="116" data-uid="lnk54" id="link_o1_o24"><path codeLine="116" d="M124.86,1140.54 C153.37,1262.55 256.2,1702.49 256.2,1702.49 C256.2,1702.49 510.2,1765.49 510.2,1765.49 C510.2,1765.49 538.3057,1772.2298 575.5557,1781.1698" fill="none" id="o1-to-o24" style="stroke:#181818;stroke-width:1;"/><polygon fill="#181818" points="581.39,1782.57,573.572,1776.5801,576.5281,1781.4031,571.705,1784.3592,581.39,1782.57" style="stroke:#181818;stroke-width:1;"/><text fill="#000000" font-family="sans-serif" font-size="13" lengthAdjust="spacing" textLength="222.5425" x="257.2" y="1699.0584">obo:has member part at some time</text></g><!--link o1 to o25--><g class="link" data-entity-1="o1" data-entity-2="o25" data-source-line="117" data-uid="lnk55" id="link_o1_o25"><path codeLine="117" d="M124.01,1140.6 C151.26,1272.96 256.2,1782.49 256.2,1782.49 C256.2,1782.49 510.2,1845.49 510.2,1845.49 C510.2,1845.49 538.3057,1852.2298 575.5557,1861.1698" fill="none" id="o1-to-o25" style="stroke:#181818;stroke-width:1;"/><polygon fill="#181818" points="581.39,1862.57,573.572,1856.5801,576.5281,1861.4031,571.705,1864.3592,581.39,1862.57" style="stroke:#181818;stroke-width:1;"/><text fill="#000000" font-family="sans-serif" font-size="13" lengthAdjust="spacing" textLength="222.5425" x="257.2" y="1779.0584">obo:has member part at some time</text></g><!--link o1 to o26--><g class="link" data-entity-1="o1" data-entity-2="o26" data-source-line="118" data-uid="lnk56" id="link_o1_o26"><path codeLine="118" d="M123.29,1140.41 C149.37,1282.11 256.2,1862.49 256.2,1862.49 C256.2,1862.49 510.2,1925.49 510.2,1925.49 C510.2,1925.49 538.3057,1932.2298 575.5557,1941.1698" fill="none" id="o1-to-o26" style="stroke:#181818;stroke-width:1;"/><polygon fill="#181818" points="581.39,1942.57,573.572,1936.5801,576.5281,1941.4031,571.705,1944.3592,581.39,1942.57" style="stroke:#181818;stroke-width:1;"/><text fill="#000000" font-family="sans-serif" font-size="13" lengthAdjust="spacing" textLength="222.5425" x="257.2" y="1859.0584">obo:has member part at some time</text></g><!--link o1 to o27--><g class="link" data-entity-1="o1" data-entity-2="o27" data-source-line="119" data-uid="lnk57" id="link_o1_o27"><path codeLine="119" d="M122.78,1140.63 C147.94,1291.85 256.2,1942.49 256.2,1942.49 C256.2,1942.49 510.2,2005.49 510.2,2005.49 C510.2,2005.49 538.3057,2012.2298 575.5557,2021.1698" fill="none" id="o1-to-o27" style="stroke:#181818;stroke-width:1;"/><polygon fill="#181818" points="581.39,2022.57,573.572,2016.5801,576.5281,2021.4031,571.705,2024.3592,581.39,2022.57" style="stroke:#181818;stroke-width:1;"/><text fill="#000000" font-family="sans-serif" font-size="13" lengthAdjust="spacing" textLength="222.5425" x="257.2" y="1939.0584">obo:has member part at some time</text></g><!--link o1 to o28--><g class="link" data-entity-1="o1" data-entity-2="o28" data-source-line="120" data-uid="lnk58" id="link_o1_o28"><path codeLine="120" d="M122.33,1140.66 C146.62,1300.67 256.2,2022.49 256.2,2022.49 C256.2,2022.49 510.2,2085.49 510.2,2085.49 C510.2,2085.49 538.3057,2092.2298 575.5557,2101.1698" fill="none" id="o1-to-o28" style="stroke:#181818;stroke-width:1;"/><polygon fill="#181818" points="581.39,2102.57,573.572,2096.5801,576.5281,2101.4031,571.705,2104.3592,581.39,2102.57" style="stroke:#181818;stroke-width:1;"/><text fill="#000000" font-family="sans-serif" font-size="13" lengthAdjust="spacing" textLength="222.5425" x="257.2" y="2019.0584">obo:has member part at some time</text></g><!--link o1 to o29--><g class="link" data-entity-1="o1" data-entity-2="o29" data-source-line="121" data-uid="lnk59" id="link_o1_o29"><path codeLine="121" d="M121.94,1140.57 C145.41,1308.77 256.2,2102.49 256.2,2102.49 C256.2,2102.49 510.2,2165.49 510.2,2165.49 C510.2,2165.49 538.3057,2172.2298 575.5557,2181.1698" fill="none" id="o1-to-o29" style="stroke:#181818;stroke-width:1;"/><polygon fill="#181818" points="581.39,2182.57,573.572,2176.5801,576.5281,2181.4031,571.705,2184.3592,581.39,2182.57" style="stroke:#181818;stroke-width:1;"/><text fill="#000000" font-family="sans-serif" font-size="13" lengthAdjust="spacing" textLength="222.5425" x="257.2" y="2099.0584">obo:has member part at some time</text></g><!--link o18 to o30--><g class="link" data-entity-1="o18" data-entity-2="o30" data-source-line="122" data-uid="lnk60" id="link_o18_o30"><path codeLine="122" d="M796.31,1317.49 C894.16,1317.49 1026.66,1317.49 1123.24,1317.49" fill="none" id="o18-to-o30" style="stroke:#181818;stroke-width:1;"/><polygon fill="#181818" points="1129.24,1317.49,1120.24,1313.49,1124.24,1317.49,1120.24,1321.49,1129.24,1317.49" style="stroke:#181818;stroke-width:1;"/><text fill="#000000" font-family="sans-serif" font-size="13" lengthAdjust="spacing" textLength="222.5425" x="876.66" y="1314.0584">obo:has member part at some time</text></g><!--SRC=[fPVHRjem58RlUGghzx3QX02HDcbhDsqQh6ZTD4rLDJd1Wsn973bc8anxzpaK34cnavFSbVhZVCxvyS5alyCafOB6A0eJ9lEKePH7UV6Y5x6V4acEHBXQIxGC1Gjao9CUzt-flz3LmyFWnTt7h_FN0qo6piWTh6KSeIMLr3l_z-FZ5Q8PuXZzxQ6zuILYMszEWtLXGV-C1VlR7tGRPeQwXzLZUL8kVo_59f0ROHVaLa5U4WpR27ROQZWi7nLEAuLZLpWbnQYDmhSQ_9B0RIC8x6qAocqQjr8GkuAK59CsYjaMcyghfMFfQRdqJ1q2AkQyE5htUIPPR7Ty_s2Mg3LzsgwxQNPco-uamTqalbdYdoILa_sPIohovfB0B0bEac4toSunjylH4gTRkm9YVXAY9QEExHgQ9KCjSJjANBFaz8KnxYYHbkJbAVhAMR_XYHGyQcAuuJoYYNn2pR8ofhtdWu3xt7los8rl8xKWmg1EMU7qbsHbAXmnskXnt-TBGJTHlRqAQdrbNbGuktssyOkTdj8t-v-ZUWULOVACjEzXaR1DhEZQ3bH1xQ_CcGfNqm5EbqpKFlmvfRrEYm_RDwfgt8PPohFZ1yIilGHh-wY5_OiwDM6okcLH-8U9lCv_6TSxS5liu0qLxnXhqF8ggArZk3Lb8kD9mYAJJGFQSZx00YwOjzWZLWrBWeXdwaPZqcX0QwQjxaHgqlPdgNKI5-lwbdrjcSOBAjTx6qRz_glYpk_jsxfMxunPx3E1r8yPYQX46OyPac7C2jX3GPna_MMsAj1FD2wAxxUXImqRbjh33WGUGM0N0eyXy0G2Jo6mkcf2Q0oY2OW6fOX1CM9GZXWK90ObYK5HOb2M19Gb0ML9G5aIK9O4b2K1PKb0MH9GbWIK9McOvUGmqwwRuXS7v67qHapy1m00]--></g></svg>