<svg xmlns="http://www.w3.org/2000/svg" xmlns:xlink="http://www.w3.org/1999/xlink" contentStyleType="text/css" data-diagram-type="CLASS" height="858px" preserveAspectRatio="none" style="width:1978px;height:858px;background:#FFFFFF;" version="1.1" viewBox="0 0 1978 858" width="1978px" zoomAndPan="magnify"><defs/><g><g class="entity" data-entity="o1" data-source-line="3" data-uid="ent0002" id="entity_o1"><rect fill="#F1F1F1" height="44.9766" rx="2.5" ry="2.5" style="stroke:#181818;stroke-width:0.5;" width="218.7529" x="447.92" y="601"/><a href="./OKUMA.123456-Lz4.html" target="_top" title="./OKUMA.123456-Lz4.html" xlink:actuate="onRequest" xlink:href="./OKUMA.123456-Lz4.html" xlink:show="new" xlink:title="./OKUMA.123456-Lz4.html" xlink:type="simple"><text fill="#0000FF" font-family="sans-serif" font-size="14" lengthAdjust="spacing" text-decoration="underline" textLength="175.3623" x="469.6153" y="616.5352">data:OKUMA.123456-Lz4</text></a><line style="stroke:#181818;stroke-width:0.5;" x1="448.92" x2="665.6729" y1="621.4883" y2="621.4883"/><text fill="#000000" font-family="sans-serif" font-size="14" lengthAdjust="spacing" textLength="206.7529" x="453.92" y="639.0234">type = ex:LinearMotionSystem</text></g><g class="entity" data-entity="o2" data-source-line="6" data-uid="ent0003" id="entity_o2"><rect fill="#F1F1F1" height="61.4648" rx="2.5" ry="2.5" style="stroke:#181818;stroke-width:0.5;" width="263.4463" x="918.62" y="230.76"/><text fill="#000000" font-family="sans-serif" font-size="14" lengthAdjust="spacing" textLength="220.7529" x="939.9667" y="246.2952">data:OKUMA.123456-Lz4-name</text><line style="stroke:#181818;stroke-width:0.5;" x1="919.62" x2="1181.0663" y1="251.2483" y2="251.2483"/><text fill="#000000" font-family="sans-serif" font-size="14" lengthAdjust="spacing" textLength="161.3691" x="924.62" y="268.7834">type = cmns-dsg:Name</text><text fill="#000000" font-family="sans-serif" font-size="14" lengthAdjust="spacing" textLength="251.4463" x="924.62" y="285.2717">core:hasSimpleExpressionValue = Z4</text></g><g class="entity" data-entity="o3" data-source-line="9" data-uid="ent0004" id="entity_o3"><rect fill="#F1F1F1" height="44.9766" rx="2.5" ry="2.5" style="stroke:#181818;stroke-width:0.5;" width="228.3818" x="936.15" y="327"/><text fill="#000000" font-family="sans-serif" font-size="14" lengthAdjust="spacing" textLength="214.3818" x="943.15" y="342.5352">data:OKUMA.123456-Lz4-spec</text><line style="stroke:#181818;stroke-width:0.5;" x1="937.15" x2="1163.5318" y1="347.4883" y2="347.4883"/><text fill="#000000" font-family="sans-serif" font-size="14" lengthAdjust="spacing" textLength="215.8037" x="942.15" y="365.0234">type = core:DesignSpecification</text></g><g class="entity" data-entity="o4" data-source-line="12" data-uid="ent0005" id="entity_o4"><rect fill="#F1F1F1" height="44.9766" rx="2.5" ry="2.5" style="stroke:#181818;stroke-width:0.5;" width="355.7627" x="1552.43" y="7"/><text fill="#000000" font-family="sans-serif" font-size="14" lengthAdjust="spacing" textLength="341.7627" x="1559.43" y="22.5352">data:OKUMA.123456-Lz4-spec-LENGTH-Nominal</text><line style="stroke:#181818;stroke-width:0.5;" x1="1553.43" x2="1907.1927" y1="27.4883" y2="27.4883"/><text fill="#000000" font-family="sans-serif" font-size="14" lengthAdjust="spacing" textLength="194.4209" x="1558.43" y="45.0234">type = core:ValueExpression</text></g><g class="entity" data-entity="o5" data-source-line="15" data-uid="ent0006" id="entity_o5"><rect fill="#F1F1F1" height="44.9766" rx="2.5" ry="2.5" style="stroke:#181818;stroke-width:0.5;" width="411.2842" x="1524.66" y="87"/><text fill="#000000" font-family="sans-serif" font-size="14" lengthAdjust="spacing" textLength="397.2842" x="1531.66" y="102.5352">data:OKUMA.123456-Lz4-spec-LINEAR_FORCE-Maximum</text><line style="stroke:#181818;stroke-width:0.5;" x1="1525.66" x2="1934.9442" y1="107.4883" y2="107.4883"/><text fill="#000000" font-family="sans-serif" font-size="14" lengthAdjust="spacing" textLength="194.4209" x="1530.66" y="125.0234">type = core:ValueExpression</text></g><g class="entity" data-entity="o6" data-source-line="18" data-uid="ent0007" id="entity_o6"><rect fill="#F1F1F1" height="44.9766" rx="2.5" ry="2.5" style="stroke:#181818;stroke-width:0.5;" width="407.7021" x="1526.46" y="167"/><text fill="#000000" font-family="sans-serif" font-size="14" lengthAdjust="spacing" textLength="393.7021" x="1533.46" y="182.5352">data:OKUMA.123456-Lz4-spec-LINEAR_FORCE-Minimum</text><line style="stroke:#181818;stroke-width:0.5;" x1="1527.46" x2="1933.1621" y1="187.4883" y2="187.4883"/><text fill="#000000" font-family="sans-serif" font-size="14" lengthAdjust="spacing" textLength="194.4209" x="1532.46" y="205.0234">type = core:ValueExpression</text></g><g class="entity" data-entity="o7" data-source-line="21" data-uid="ent0008" id="entity_o7"><rect fill="#F1F1F1" height="44.9766" rx="2.5" ry="2.5" style="stroke:#181818;stroke-width:0.5;" width="427.082" x="1516.77" y="247"/><text fill="#000000" font-family="sans-serif" font-size="14" lengthAdjust="spacing" textLength="413.082" x="1523.77" y="262.5352">data:OKUMA.123456-Lz4-spec-VELOCITY-RAPID-Maximum</text><line style="stroke:#181818;stroke-width:0.5;" x1="1517.77" x2="1942.852" y1="267.4883" y2="267.4883"/><text fill="#000000" font-family="sans-serif" font-size="14" lengthAdjust="spacing" textLength="194.4209" x="1522.77" y="285.0234">type = core:ValueExpression</text></g><g class="entity" data-entity="o8" data-source-line="24" data-uid="ent0009" id="entity_o8"><rect fill="#F1F1F1" height="44.9766" rx="2.5" ry="2.5" style="stroke:#181818;stroke-width:0.5;" width="423.5" x="1518.56" y="327"/><text fill="#000000" font-family="sans-serif" font-size="14" lengthAdjust="spacing" textLength="409.5" x="1525.56" y="342.5352">data:OKUMA.123456-Lz4-spec-VELOCITY-RAPID-Minimum</text><line style="stroke:#181818;stroke-width:0.5;" x1="1519.56" x2="1941.06" y1="347.4883" y2="347.4883"/><text fill="#000000" font-family="sans-serif" font-size="14" lengthAdjust="spacing" textLength="194.4209" x="1524.56" y="365.0234">type = core:ValueExpression</text></g><g class="entity" data-entity="o9" data-source-line="27" data-uid="ent0010" id="entity_o9"><rect fill="#F1F1F1" height="44.9766" rx="2.5" ry="2.5" style="stroke:#181818;stroke-width:0.5;" width="484.5996" x="1488.01" y="407"/><text fill="#000000" font-family="sans-serif" font-size="14" lengthAdjust="spacing" textLength="470.5996" x="1495.01" y="422.5352">data:OKUMA.123456-Lz4-spec-VELOCITY-PROGRAMMED-Maximum</text><line style="stroke:#181818;stroke-width:0.5;" x1="1489.01" x2="1971.6096" y1="427.4883" y2="427.4883"/><text fill="#000000" font-family="sans-serif" font-size="14" lengthAdjust="spacing" textLength="194.4209" x="1494.01" y="445.0234">type = core:ValueExpression</text></g><g class="entity" data-entity="o10" data-source-line="30" data-uid="ent0011" id="entity_o10"><rect fill="#F1F1F1" height="44.9766" rx="2.5" ry="2.5" style="stroke:#181818;stroke-width:0.5;" width="481.0176" x="1489.8" y="487"/><text fill="#000000" font-family="sans-serif" font-size="14" lengthAdjust="spacing" textLength="467.0176" x="1496.8" y="502.5352">data:OKUMA.123456-Lz4-spec-VELOCITY-PROGRAMMED-Minimum</text><line style="stroke:#181818;stroke-width:0.5;" x1="1490.8" x2="1969.8176" y1="507.4883" y2="507.4883"/><text fill="#000000" font-family="sans-serif" font-size="14" lengthAdjust="spacing" textLength="194.4209" x="1495.8" y="525.0234">type = core:ValueExpression</text></g><g class="entity" data-entity="o11" data-source-line="33" data-uid="ent0012" id="entity_o11"><rect fill="#F1F1F1" height="44.9766" rx="2.5" ry="2.5" style="stroke:#181818;stroke-width:0.5;" width="230.6787" x="935" y="567"/><a href="./OKUMA.123456-enclosure.html" target="_top" title="./OKUMA.123456-enclosure.html" xlink:actuate="onRequest" xlink:href="./OKUMA.123456-enclosure.html" xlink:show="new" xlink:title="./OKUMA.123456-enclosure.html" xlink:type="simple"><text fill="#0000FF" font-family="sans-serif" font-size="14" lengthAdjust="spacing" text-decoration="underline" textLength="216.6787" x="942" y="582.5352">data:OKUMA.123456-enclosure</text></a><line style="stroke:#181818;stroke-width:0.5;" x1="936" x2="1164.6787" y1="587.4883" y2="587.4883"/><text fill="#000000" font-family="sans-serif" font-size="14" lengthAdjust="spacing" textLength="131.7832" x="941" y="605.0234">type = ex:Structure</text></g><g class="entity" data-entity="o12" data-source-line="36" data-uid="ent0013" id="entity_o12"><rect fill="#F1F1F1" height="44.9766" rx="2.5" ry="2.5" style="stroke:#181818;stroke-width:0.5;" width="276.0693" x="1592.27" y="567"/><text fill="#000000" font-family="sans-serif" font-size="14" lengthAdjust="spacing" textLength="262.0693" x="1599.27" y="582.5352">data:OKUMA.123456-enclosure-name</text><line style="stroke:#181818;stroke-width:0.5;" x1="1593.27" x2="1867.3393" y1="587.4883" y2="587.4883"/><text fill="#000000" font-family="sans-serif" font-size="14" lengthAdjust="spacing" textLength="161.3691" x="1598.27" y="605.0234">type = cmns-dsg:Name</text></g><g class="entity" data-entity="o13" data-source-line="39" data-uid="ent0014" id="entity_o13"><rect fill="#F1F1F1" height="44.9766" rx="2.5" ry="2.5" style="stroke:#181818;stroke-width:0.5;" width="322.4102" x="1569.1" y="647"/><text fill="#000000" font-family="sans-serif" font-size="14" lengthAdjust="spacing" textLength="308.4102" x="1576.1" y="662.5352">data:OKUMA.123456-enclosure-temperature</text><line style="stroke:#181818;stroke-width:0.5;" x1="1570.1" x2="1890.5102" y1="667.4883" y2="667.4883"/><text fill="#000000" font-family="sans-serif" font-size="14" lengthAdjust="spacing" textLength="158.4502" x="1575.1" y="685.0234">type = qp:Temperature</text></g><g class="entity" data-entity="o14" data-source-line="42" data-uid="ent0015" id="entity_o14"><rect fill="#F1F1F1" height="44.9766" rx="2.5" ry="2.5" style="stroke:#181818;stroke-width:0.5;" width="216.3984" x="942.14" y="647"/><a href="./OKUMA.123456-z4_axis.html" target="_top" title="./OKUMA.123456-z4_axis.html" xlink:actuate="onRequest" xlink:href="./OKUMA.123456-z4_axis.html" xlink:show="new" xlink:title="./OKUMA.123456-z4_axis.html" xlink:type="simple"><text fill="#0000FF" font-family="sans-serif" font-size="14" lengthAdjust="spacing" text-decoration="underline" textLength="202.3984" x="949.14" y="662.5352">data:OKUMA.123456-z4_axis</text></a><line style="stroke:#181818;stroke-width:0.5;" x1="943.14" x2="1157.5384" y1="667.4883" y2="667.4883"/><text fill="#000000" font-family="sans-serif" font-size="14" lengthAdjust="spacing" textLength="131.7832" x="948.14" y="685.0234">type = ex:Structure</text></g><g class="entity" data-entity="o15" data-source-line="45" data-uid="ent0016" id="entity_o15"><rect fill="#F1F1F1" height="44.9766" rx="2.5" ry="2.5" style="stroke:#181818;stroke-width:0.5;" width="261.7891" x="1599.41" y="727"/><text fill="#000000" font-family="sans-serif" font-size="14" lengthAdjust="spacing" textLength="247.7891" x="1606.41" y="742.5352">data:OKUMA.123456-z4_axis-name</text><line style="stroke:#181818;stroke-width:0.5;" x1="1600.41" x2="1860.1991" y1="747.4883" y2="747.4883"/><text fill="#000000" font-family="sans-serif" font-size="14" lengthAdjust="spacing" textLength="161.3691" x="1605.41" y="765.0234">type = cmns-dsg:Name</text></g><g class="entity" data-entity="o16" data-source-line="48" data-uid="ent0017" id="entity_o16"><rect fill="#F1F1F1" height="44.9766" rx="2.5" ry="2.5" style="stroke:#181818;stroke-width:0.5;" width="258.5654" x="921.06" y="727"/><text fill="#000000" font-family="sans-serif" font-size="14" lengthAdjust="spacing" textLength="239.7295" x="930.478" y="742.5352">data:OKUMA.123456-Lz4-function</text><line style="stroke:#181818;stroke-width:0.5;" x1="922.06" x2="1178.6254" y1="747.4883" y2="747.4883"/><text fill="#000000" font-family="sans-serif" font-size="14" lengthAdjust="spacing" textLength="246.5654" x="927.06" y="765.0234">type = ex:PrismaticMotionCapability</text></g><g class="entity" data-entity="o17" data-source-line="51" data-uid="ent0018" id="entity_o17"><rect fill="#F1F1F1" height="44.9766" rx="2.5" ry="2.5" style="stroke:#181818;stroke-width:0.5;" width="301.335" x="899.67" y="807"/><text fill="#000000" font-family="sans-serif" font-size="14" lengthAdjust="spacing" textLength="287.335" x="906.67" y="822.5352">data:OKUMA.123456-Lz4-position-actual</text><line style="stroke:#181818;stroke-width:0.5;" x1="900.67" x2="1200.005" y1="827.4883" y2="827.4883"/><text fill="#000000" font-family="sans-serif" font-size="14" lengthAdjust="spacing" textLength="163.2285" x="905.67" y="845.0234">type = qp:Displacement</text></g><g class="entity" data-entity="o18" data-source-line="54" data-uid="ent0019" id="entity_o18"><rect fill="#F1F1F1" height="44.9766" rx="2.5" ry="2.5" style="stroke:#181818;stroke-width:0.5;" width="156.9189" x="7" y="601"/><a href="./OKUMA.123456.html" target="_top" title="./OKUMA.123456.html" xlink:actuate="onRequest" xlink:href="./OKUMA.123456.html" xlink:show="new" xlink:title="./OKUMA.123456.html" xlink:type="simple"><text fill="#0000FF" font-family="sans-serif" font-size="14" lengthAdjust="spacing" text-decoration="underline" textLength="142.9189" x="14" y="616.5352">data:OKUMA.123456</text></a><line style="stroke:#181818;stroke-width:0.5;" x1="8" x2="162.9189" y1="621.4883" y2="621.4883"/><text fill="#000000" font-family="sans-serif" font-size="14" lengthAdjust="spacing" textLength="126.1504" x="13" y="639.0234">type = ex:Machine</text></g><!--link o1 to o2--><g class="link" data-entity-1="o1" data-entity-2="o2" data-source-line="57" data-uid="lnk20" id="link_o1_o2"><path codeLine="57" d="M574.44,600.74 C610.94,549.3 696.67,428.49 696.67,428.49 C696.67,428.49 899.67,309.49 899.67,309.49 C899.67,309.49 917.7167,303.7025 946.3067,294.5325" fill="none" id="o1-to-o2" style="stroke:#181818;stroke-width:1;"/><polygon fill="#181818" points="952.02,292.7,942.2284,291.6399,947.2589,294.2271,944.6717,299.2576,952.02,292.7" style="stroke:#181818;stroke-width:1;"/><text fill="#000000" font-family="sans-serif" font-size="13" lengthAdjust="spacing" textLength="126.0771" x="720.17" y="326.0084">cmns-dsg:hasName</text></g><!--link o1 to o3--><g class="link" data-entity-1="o1" data-entity-2="o3" data-source-line="59" data-uid="lnk21" id="link_o1_o3"><path codeLine="59" d="M599.32,600.6 C691.86,548.96 910.7602,426.8131 1003.2002,375.2431" fill="none" id="o1-to-o3" style="stroke:#181818;stroke-width:1;"/><polygon fill="#181818" points="1008.44,372.32,998.6316,373.2115,1004.0735,374.756,1002.5291,380.1979,1008.44,372.32" style="stroke:#181818;stroke-width:1;"/><text fill="#000000" font-family="sans-serif" font-size="13" lengthAdjust="spacing" textLength="112.3027" x="727.17" y="450.4584">core:prescribedBy</text></g><!--link o3 to o4--><g class="link" data-entity-1="o3" data-entity-2="o4" data-source-line="60" data-uid="lnk22" id="link_o3_o4"><path codeLine="60" d="M1137.1,326.57 C1170.54,317.63 1201.01,309.49 1201.01,309.49 C1201.01,309.49 1231.01,132.49 1231.01,132.49 C1231.01,132.49 1488.01,69.49 1488.01,69.49 C1488.01,69.49 1530.9907,62.3607 1584.7707,53.4507" fill="none" id="o3-to-o4" style="stroke:#181818;stroke-width:1;"/><polygon fill="#181818" points="1590.69,52.47,1581.1572,49.9948,1585.7572,53.2872,1582.4648,57.8872,1590.69,52.47" style="stroke:#181818;stroke-width:1;"/><text fill="#000000" font-family="sans-serif" font-size="13" lengthAdjust="spacing" textLength="225.0688" x="1232.01" y="73.8684">core:hasValueExpressionAtAllTimes</text></g><!--link o3 to o5--><g class="link" data-entity-1="o3" data-entity-2="o5" data-source-line="61" data-uid="lnk23" id="link_o3_o5"><path codeLine="61" d="M1137.1,326.57 C1170.54,317.63 1201.01,309.49 1201.01,309.49 C1201.01,309.49 1231.01,210.49 1231.01,210.49 C1231.01,210.49 1488.01,149.49 1488.01,149.49 C1488.01,149.49 1530.9907,142.3607 1584.7707,133.4507" fill="none" id="o3-to-o5" style="stroke:#181818;stroke-width:1;"/><polygon fill="#181818" points="1590.69,132.47,1581.1572,129.9948,1585.7572,133.2872,1582.4648,137.8872,1590.69,132.47" style="stroke:#181818;stroke-width:1;"/><text fill="#000000" font-family="sans-serif" font-size="13" lengthAdjust="spacing" textLength="225.0688" x="1232.01" y="153.6184">core:hasValueExpressionAtAllTimes</text></g><!--link o3 to o6--><g class="link" data-entity-1="o3" data-entity-2="o6" data-source-line="62" data-uid="lnk24" id="link_o3_o6"><path codeLine="62" d="M1137.1,326.57 C1170.54,317.63 1201.01,309.49 1201.01,309.49 C1201.01,309.49 1231.01,275.49 1231.01,275.49 C1231.01,275.49 1488.01,229.49 1488.01,229.49 C1488.01,229.49 1530.9907,222.3607 1584.7707,213.4507" fill="none" id="o3-to-o6" style="stroke:#181818;stroke-width:1;"/><polygon fill="#181818" points="1590.69,212.47,1581.1572,209.9948,1585.7572,213.2872,1582.4648,217.8872,1590.69,212.47" style="stroke:#181818;stroke-width:1;"/><text fill="#000000" font-family="sans-serif" font-size="13" lengthAdjust="spacing" textLength="225.0688" x="1232.01" y="231.7584">core:hasValueExpressionAtAllTimes</text></g><!--link o3 to o7--><g class="link" data-entity-1="o3" data-entity-2="o7" data-source-line="63" data-uid="lnk25" id="link_o3_o7"><path codeLine="63" d="M1164.87,333.69 C1200.64,328.72 1231.01,324.49 1231.01,324.49 C1231.01,324.49 1378.6262,308.1982 1515.2662,293.1182" fill="none" id="o3-to-o7" style="stroke:#181818;stroke-width:1;"/><polygon fill="#181818" points="1521.23,292.46,1511.8455,289.4714,1516.2602,293.0085,1512.7231,297.4231,1521.23,292.46" style="stroke:#181818;stroke-width:1;"/><text fill="#000000" font-family="sans-serif" font-size="13" lengthAdjust="spacing" textLength="225.0688" x="1232.01" y="296.8484">core:hasValueExpressionAtAllTimes</text></g><!--link o3 to o8--><g class="link" data-entity-1="o3" data-entity-2="o8" data-source-line="64" data-uid="lnk26" id="link_o3_o8"><path codeLine="64" d="M1164.82,349.49 C1260.94,349.49 1395.34,349.49 1512.06,349.49" fill="none" id="o3-to-o8" style="stroke:#181818;stroke-width:1;"/><polygon fill="#181818" points="1518.06,349.49,1509.06,345.49,1513.06,349.49,1509.06,353.49,1518.06,349.49" style="stroke:#181818;stroke-width:1;"/><text fill="#000000" font-family="sans-serif" font-size="13" lengthAdjust="spacing" textLength="225.0688" x="1232.01" y="346.0584">core:hasValueExpressionAtAllTimes</text></g><!--link o3 to o9--><g class="link" data-entity-1="o3" data-entity-2="o9" data-source-line="65" data-uid="lnk27" id="link_o3_o9"><path codeLine="65" d="M1164.87,365.29 C1200.64,370.27 1231.01,374.49 1231.01,374.49 C1231.01,374.49 1378.6263,390.7814 1515.2663,405.8714" fill="none" id="o3-to-o9" style="stroke:#181818;stroke-width:1;"/><polygon fill="#181818" points="1521.23,406.53,1512.7235,401.5663,1516.2602,405.9812,1511.8453,409.5179,1521.23,406.53" style="stroke:#181818;stroke-width:1;"/><text fill="#000000" font-family="sans-serif" font-size="13" lengthAdjust="spacing" textLength="225.0688" x="1232.01" y="371.0584">core:hasValueExpressionAtAllTimes</text></g><!--link o3 to o10--><g class="link" data-entity-1="o3" data-entity-2="o10" data-source-line="66" data-uid="lnk28" id="link_o3_o10"><path codeLine="66" d="M1106.71,372.3 C1159.5,394.04 1231.01,423.49 1231.01,423.49 C1231.01,423.49 1488.01,469.49 1488.01,469.49 C1488.01,469.49 1530.9907,476.6193 1584.7707,485.5293" fill="none" id="o3-to-o10" style="stroke:#181818;stroke-width:1;"/><polygon fill="#181818" points="1590.69,486.51,1582.4648,481.0928,1585.7572,485.6928,1581.1572,488.9852,1590.69,486.51" style="stroke:#181818;stroke-width:1;"/><text fill="#000000" font-family="sans-serif" font-size="13" lengthAdjust="spacing" textLength="225.0688" x="1232.01" y="420.0584">core:hasValueExpressionAtAllTimes</text></g><!--link o1 to o11--><g class="link" data-entity-1="o1" data-entity-2="o11" data-source-line="67" data-uid="lnk29" id="link_o1_o11"><path codeLine="67" d="M666.97,615.97 C746.35,610.47 847.7843,603.4442 928.5643,597.8542" fill="none" id="o1-to-o11" style="stroke:#181818;stroke-width:1;"/><polygon fill="#181818" points="934.55,597.44,925.2953,594.0709,929.5619,597.7852,925.8476,602.0518,934.55,597.44" style="stroke:#181818;stroke-width:1;"/><text fill="#000000" font-family="sans-serif" font-size="13" lengthAdjust="spacing" textLength="74.7246" x="746.17" y="599.0184">ex:joinedTo</text></g><!--link o11 to o12--><g class="link" data-entity-1="o11" data-entity-2="o12" data-source-line="68" data-uid="lnk30" id="link_o11_o12"><path codeLine="68" d="M1165.96,589.49 C1283.58,589.49 1460.6,589.49 1585.91,589.49" fill="none" id="o11-to-o12" style="stroke:#181818;stroke-width:1;"/><polygon fill="#181818" points="1591.91,589.49,1582.91,585.49,1586.91,589.49,1582.91,593.49,1591.91,589.49" style="stroke:#181818;stroke-width:1;"/><text fill="#000000" font-family="sans-serif" font-size="13" lengthAdjust="spacing" textLength="126.0771" x="1281.51" y="586.0584">cmns-dsg:hasName</text></g><!--link o11 to o13--><g class="link" data-entity-1="o11" data-entity-2="o13" data-source-line="69" data-uid="lnk31" id="link_o11_o13"><path codeLine="69" d="M1166.14,605.47 C1201.35,610.37 1231.01,614.49 1231.01,614.49 C1231.01,614.49 1417.2662,635.0517 1562.9362,651.1317" fill="none" id="o11-to-o13" style="stroke:#181818;stroke-width:1;"/><polygon fill="#181818" points="1568.9,651.79,1560.3932,646.8267,1563.9302,651.2414,1559.5155,654.7784,1568.9,651.79" style="stroke:#181818;stroke-width:1;"/><text fill="#000000" font-family="sans-serif" font-size="13" lengthAdjust="spacing" textLength="171.3169" x="1259.01" y="611.0584">core:measuresAtSomeTime</text></g><!--link o1 to o14--><g class="link" data-entity-1="o1" data-entity-2="o14" data-source-line="70" data-uid="lnk32" id="link_o1_o14"><path codeLine="70" d="M666.99,635.27 C684.32,637.15 696.67,638.49 696.67,638.49 C696.67,638.49 832.353,650.4147 936.113,659.5347" fill="none" id="o1-to-o14" style="stroke:#181818;stroke-width:1;"/><polygon fill="#181818" points="942.09,660.06,933.4748,655.2873,937.1092,659.6222,932.7743,663.2566,942.09,660.06" style="stroke:#181818;stroke-width:1;"/><text fill="#000000" font-family="sans-serif" font-size="13" lengthAdjust="spacing" textLength="74.7246" x="746.17" y="635.0584">ex:joinedTo</text></g><!--link o14 to o15--><g class="link" data-entity-1="o14" data-entity-2="o15" data-source-line="71" data-uid="lnk33" id="link_o14_o15"><path codeLine="71" d="M1158.77,682.17 C1278.25,696.27 1465.2814,718.3368 1593.2314,733.4368" fill="none" id="o14-to-o15" style="stroke:#181818;stroke-width:1;"/><polygon fill="#181818" points="1599.19,734.14,1590.7208,729.1128,1594.2245,733.554,1589.7832,737.0576,1599.19,734.14" style="stroke:#181818;stroke-width:1;"/><text fill="#000000" font-family="sans-serif" font-size="13" lengthAdjust="spacing" textLength="126.0771" x="1281.51" y="687.5184">cmns-dsg:hasName</text></g><!--link o1 to o16--><g class="link" data-entity-1="o1" data-entity-2="o16" data-source-line="72" data-uid="lnk34" id="link_o1_o16"><path codeLine="72" d="M615.78,646.34 C653.8,661.45 696.67,678.49 696.67,678.49 C696.67,678.49 826.4081,704.6055 929.4481,725.3555" fill="none" id="o1-to-o16" style="stroke:#181818;stroke-width:1;"/><polygon fill="#181818" points="935.33,726.54,927.2968,720.842,930.4284,725.5529,925.7175,728.6845,935.33,726.54" style="stroke:#181818;stroke-width:1;"/><text fill="#000000" font-family="sans-serif" font-size="13" lengthAdjust="spacing" textLength="107.6309" x="729.67" y="675.0584">core:hasFunction</text></g><!--link o1 to o17--><g class="link" data-entity-1="o1" data-entity-2="o17" data-source-line="73" data-uid="lnk35" id="link_o1_o17"><path codeLine="73" d="M586.3,646.36 C626.73,679.38 696.67,736.49 696.67,736.49 C696.67,736.49 852.3882,777.5605 956.8182,805.0905" fill="none" id="o1-to-o17" style="stroke:#181818;stroke-width:1;"/><polygon fill="#181818" points="962.62,806.62,954.937,800.4579,957.7852,805.3454,952.8977,808.1936,962.62,806.62" style="stroke:#181818;stroke-width:1;"/><text fill="#000000" font-family="sans-serif" font-size="13" lengthAdjust="spacing" textLength="171.3169" x="697.67" y="733.0584">core:measuresAtSomeTime</text></g><!--link o18 to o1--><g class="link" data-entity-1="o18" data-entity-2="o1" data-source-line="74" data-uid="lnk36" id="link_o18_o1"><path codeLine="74" d="M164.31,623.49 C241.63,623.49 354.85,623.49 441.52,623.49" fill="none" id="o18-to-o1" style="stroke:#181818;stroke-width:1;"/><polygon fill="#181818" points="447.52,623.49,438.52,619.49,442.52,623.49,438.52,627.49,447.52,623.49" style="stroke:#181818;stroke-width:1;"/><text fill="#000000" font-family="sans-serif" font-size="13" lengthAdjust="spacing" textLength="222.5425" x="194.92" y="620.0584">obo:has member part at some time</text></g><!--SRC=[jPPVRzem5CNVyocileSj9Vnff4tA8EtG221WbRQggammuCwECzkHeDM- - -maJG85sg3o1hw7tyazvbuGVt0OGGuf83X4SXCX436oqMyCWXOII0OuNguac6EE0ebPQB3Pete5BkxkQf-6FtxwRiswhDkDfjb_icihIGcOGmcTtTBz_GM00Z0BF1iWSVe2qDhfAol8VQRHausGY1hWN-wnbsI6aA8KTbc21JGKvbmidO4glmqH4GfIIBqCOHmvNIJmCfme0LxW02PTlujdzht1pVIxEM0KXv2aU7iNVmj9ZBnrn94G5T2zWUUE7ww7uuvd-d2DQKnJWyOv371O63G_nk3MwmyxlUalS-oEUjtj7bhdiIXtqVvWYz5uU3DsVT_RQUNgZ3xbVgpF5OnU3IiA0y94pD6XaSq5-U3kJEv4yZYGId2yePnJ6blhnBajM6fFH8X3RPyXorFyDtAcXU1e3a_sWxeySIY5h9ndO9-KGKOf9z0uVNCjuZ3Pn1cfkVr88uu5LJihI7Tg1qPmXWcMcxV14HDOVyQ4ggUNzMMrjeFjOX4H622AGdaisGE9vacsjn_RXy5A_-feeWLCywjUxauHpGgA99tqL7_RrSa4quYKll7902ZURpk7r5_aMXDmF4FpRnj37ITLkmJRcHvNkeHCCKKYLpSggPkLrArAwdObzLKbjTehxv9d0QkruEWBV6Jg-kPJPkYJjBB_0lDoVZKKGJtKmfKJHf765tJx5TtEAetzzAnQJlyw6vYYsZfgtSvKIiHcJ1C0HNI6E53_bII04WWb1bAf_mC0]--></g></svg>