<svg xmlns="http://www.w3.org/2000/svg" xmlns:xlink="http://www.w3.org/1999/xlink" contentStyleType="text/css" data-diagram-type="CLASS" height="778px" preserveAspectRatio="none" style="width:1988px;height:778px;background:#FFFFFF;" version="1.1" viewBox="0 0 1988 778" width="1988px" zoomAndPan="magnify"><defs/><g><g class="entity" data-entity="o1" data-source-line="3" data-uid="ent0002" id="entity_o1"><rect fill="#F1F1F1" height="44.9766" rx="2.5" ry="2.5" style="stroke:#181818;stroke-width:0.5;" width="218.7529" x="447.92" y="521"/><a href="./OKUMA.123456-LYI1.html" target="_top" title="./OKUMA.123456-LYI1.html" xlink:actuate="onRequest" xlink:href="./OKUMA.123456-LYI1.html" xlink:show="new" xlink:title="./OKUMA.123456-LYI1.html" xlink:type="simple"><text fill="#0000FF" font-family="sans-serif" font-size="14" lengthAdjust="spacing" text-decoration="underline" textLength="180.0928" x="467.2501" y="536.5352">data:OKUMA.123456-LYI1</text></a><line style="stroke:#181818;stroke-width:0.5;" x1="448.92" x2="665.6729" y1="541.4883" y2="541.4883"/><text fill="#000000" font-family="sans-serif" font-size="14" lengthAdjust="spacing" textLength="206.7529" x="453.92" y="559.0234">type = ex:LinearMotionSystem</text></g><g class="entity" data-entity="o2" data-source-line="6" data-uid="ent0003" id="entity_o2"><rect fill="#F1F1F1" height="61.4648" rx="2.5" ry="2.5" style="stroke:#181818;stroke-width:0.5;" width="254.8535" x="925.28" y="230.76"/><text fill="#000000" font-family="sans-serif" font-size="14" lengthAdjust="spacing" textLength="225.4834" x="939.9651" y="246.2952">data:OKUMA.123456-LYI1-name</text><line style="stroke:#181818;stroke-width:0.5;" x1="926.28" x2="1179.1335" y1="251.2483" y2="251.2483"/><text fill="#000000" font-family="sans-serif" font-size="14" lengthAdjust="spacing" textLength="161.3691" x="931.28" y="268.7834">type = cmns-dsg:Name</text><text fill="#000000" font-family="sans-serif" font-size="14" lengthAdjust="spacing" textLength="242.8535" x="931.28" y="285.2717">core:hasSimpleExpressionValue = Y</text></g><g class="entity" data-entity="o3" data-source-line="9" data-uid="ent0004" id="entity_o3"><rect fill="#F1F1F1" height="44.9766" rx="2.5" ry="2.5" style="stroke:#181818;stroke-width:0.5;" width="233.1123" x="936.15" y="327"/><text fill="#000000" font-family="sans-serif" font-size="14" lengthAdjust="spacing" textLength="219.1123" x="943.15" y="342.5352">data:OKUMA.123456-LYI1-spec</text><line style="stroke:#181818;stroke-width:0.5;" x1="937.15" x2="1168.2623" y1="347.4883" y2="347.4883"/><text fill="#000000" font-family="sans-serif" font-size="14" lengthAdjust="spacing" textLength="215.8037" x="942.15" y="365.0234">type = core:DesignSpecification</text></g><g class="entity" data-entity="o4" data-source-line="12" data-uid="ent0005" id="entity_o4"><rect fill="#F1F1F1" height="44.9766" rx="2.5" ry="2.5" style="stroke:#181818;stroke-width:0.5;" width="360.4932" x="1557.16" y="7"/><text fill="#000000" font-family="sans-serif" font-size="14" lengthAdjust="spacing" textLength="346.4932" x="1564.16" y="22.5352">data:OKUMA.123456-LYI1-spec-LENGTH-Nominal</text><line style="stroke:#181818;stroke-width:0.5;" x1="1558.16" x2="1916.6532" y1="27.4883" y2="27.4883"/><text fill="#000000" font-family="sans-serif" font-size="14" lengthAdjust="spacing" textLength="194.4209" x="1563.16" y="45.0234">type = core:ValueExpression</text></g><g class="entity" data-entity="o5" data-source-line="15" data-uid="ent0006" id="entity_o5"><rect fill="#F1F1F1" height="44.9766" rx="2.5" ry="2.5" style="stroke:#181818;stroke-width:0.5;" width="416.0146" x="1529.4" y="87"/><text fill="#000000" font-family="sans-serif" font-size="14" lengthAdjust="spacing" textLength="402.0146" x="1536.4" y="102.5352">data:OKUMA.123456-LYI1-spec-LINEAR_FORCE-Maximum</text><line style="stroke:#181818;stroke-width:0.5;" x1="1530.4" x2="1944.4146" y1="107.4883" y2="107.4883"/><text fill="#000000" font-family="sans-serif" font-size="14" lengthAdjust="spacing" textLength="194.4209" x="1535.4" y="125.0234">type = core:ValueExpression</text></g><g class="entity" data-entity="o6" data-source-line="18" data-uid="ent0007" id="entity_o6"><rect fill="#F1F1F1" height="44.9766" rx="2.5" ry="2.5" style="stroke:#181818;stroke-width:0.5;" width="412.4326" x="1531.19" y="167"/><text fill="#000000" font-family="sans-serif" font-size="14" lengthAdjust="spacing" textLength="398.4326" x="1538.19" y="182.5352">data:OKUMA.123456-LYI1-spec-LINEAR_FORCE-Minimum</text><line style="stroke:#181818;stroke-width:0.5;" x1="1532.19" x2="1942.6226" y1="187.4883" y2="187.4883"/><text fill="#000000" font-family="sans-serif" font-size="14" lengthAdjust="spacing" textLength="194.4209" x="1537.19" y="205.0234">type = core:ValueExpression</text></g><g class="entity" data-entity="o7" data-source-line="21" data-uid="ent0008" id="entity_o7"><rect fill="#F1F1F1" height="44.9766" rx="2.5" ry="2.5" style="stroke:#181818;stroke-width:0.5;" width="431.8125" x="1521.5" y="247"/><text fill="#000000" font-family="sans-serif" font-size="14" lengthAdjust="spacing" textLength="417.8125" x="1528.5" y="262.5352">data:OKUMA.123456-LYI1-spec-VELOCITY-RAPID-Maximum</text><line style="stroke:#181818;stroke-width:0.5;" x1="1522.5" x2="1952.3125" y1="267.4883" y2="267.4883"/><text fill="#000000" font-family="sans-serif" font-size="14" lengthAdjust="spacing" textLength="194.4209" x="1527.5" y="285.0234">type = core:ValueExpression</text></g><g class="entity" data-entity="o8" data-source-line="24" data-uid="ent0009" id="entity_o8"><rect fill="#F1F1F1" height="44.9766" rx="2.5" ry="2.5" style="stroke:#181818;stroke-width:0.5;" width="428.2305" x="1523.29" y="327"/><text fill="#000000" font-family="sans-serif" font-size="14" lengthAdjust="spacing" textLength="414.2305" x="1530.29" y="342.5352">data:OKUMA.123456-LYI1-spec-VELOCITY-RAPID-Minimum</text><line style="stroke:#181818;stroke-width:0.5;" x1="1524.29" x2="1950.5205" y1="347.4883" y2="347.4883"/><text fill="#000000" font-family="sans-serif" font-size="14" lengthAdjust="spacing" textLength="194.4209" x="1529.29" y="365.0234">type = core:ValueExpression</text></g><g class="entity" data-entity="o9" data-source-line="27" data-uid="ent0010" id="entity_o9"><rect fill="#F1F1F1" height="44.9766" rx="2.5" ry="2.5" style="stroke:#181818;stroke-width:0.5;" width="489.3301" x="1492.74" y="407"/><text fill="#000000" font-family="sans-serif" font-size="14" lengthAdjust="spacing" textLength="475.3301" x="1499.74" y="422.5352">data:OKUMA.123456-LYI1-spec-VELOCITY-PROGRAMMED-Maximum</text><line style="stroke:#181818;stroke-width:0.5;" x1="1493.74" x2="1981.0701" y1="427.4883" y2="427.4883"/><text fill="#000000" font-family="sans-serif" font-size="14" lengthAdjust="spacing" textLength="194.4209" x="1498.74" y="445.0234">type = core:ValueExpression</text></g><g class="entity" data-entity="o10" data-source-line="30" data-uid="ent0011" id="entity_o10"><rect fill="#F1F1F1" height="44.9766" rx="2.5" ry="2.5" style="stroke:#181818;stroke-width:0.5;" width="485.748" x="1494.53" y="487"/><text fill="#000000" font-family="sans-serif" font-size="14" lengthAdjust="spacing" textLength="471.748" x="1501.53" y="502.5352">data:OKUMA.123456-LYI1-spec-VELOCITY-PROGRAMMED-Minimum</text><line style="stroke:#181818;stroke-width:0.5;" x1="1495.53" x2="1979.278" y1="507.4883" y2="507.4883"/><text fill="#000000" font-family="sans-serif" font-size="14" lengthAdjust="spacing" textLength="194.4209" x="1500.53" y="525.0234">type = core:ValueExpression</text></g><g class="entity" data-entity="o11" data-source-line="33" data-uid="ent0012" id="entity_o11"><rect fill="#F1F1F1" height="44.9766" rx="2.5" ry="2.5" style="stroke:#181818;stroke-width:0.5;" width="208.1064" x="948.65" y="487"/><a href="./OKUMA.123456-x_axis.html" target="_top" title="./OKUMA.123456-x_axis.html" xlink:actuate="onRequest" xlink:href="./OKUMA.123456-x_axis.html" xlink:show="new" xlink:title="./OKUMA.123456-x_axis.html" xlink:type="simple"><text fill="#0000FF" font-family="sans-serif" font-size="14" lengthAdjust="spacing" text-decoration="underline" textLength="194.1064" x="955.65" y="502.5352">data:OKUMA.123456-x_axis</text></a><line style="stroke:#181818;stroke-width:0.5;" x1="949.65" x2="1155.7564" y1="507.4883" y2="507.4883"/><text fill="#000000" font-family="sans-serif" font-size="14" lengthAdjust="spacing" textLength="131.7832" x="954.65" y="525.0234">type = ex:Structure</text></g><g class="entity" data-entity="o12" data-source-line="36" data-uid="ent0013" id="entity_o12"><rect fill="#F1F1F1" height="44.9766" rx="2.5" ry="2.5" style="stroke:#181818;stroke-width:0.5;" width="253.4971" x="1610.65" y="567"/><text fill="#000000" font-family="sans-serif" font-size="14" lengthAdjust="spacing" textLength="239.4971" x="1617.65" y="582.5352">data:OKUMA.123456-x_axis-name</text><line style="stroke:#181818;stroke-width:0.5;" x1="1611.65" x2="1863.1471" y1="587.4883" y2="587.4883"/><text fill="#000000" font-family="sans-serif" font-size="14" lengthAdjust="spacing" textLength="161.3691" x="1616.65" y="605.0234">type = cmns-dsg:Name</text></g><g class="entity" data-entity="o13" data-source-line="39" data-uid="ent0014" id="entity_o13"><rect fill="#F1F1F1" height="44.9766" rx="2.5" ry="2.5" style="stroke:#181818;stroke-width:0.5;" width="206.835" x="949.29" y="567"/><a href="./OKUMA.123456-y_axis.html" target="_top" title="./OKUMA.123456-y_axis.html" xlink:actuate="onRequest" xlink:href="./OKUMA.123456-y_axis.html" xlink:show="new" xlink:title="./OKUMA.123456-y_axis.html" xlink:type="simple"><text fill="#0000FF" font-family="sans-serif" font-size="14" lengthAdjust="spacing" text-decoration="underline" textLength="192.835" x="956.29" y="582.5352">data:OKUMA.123456-y_axis</text></a><line style="stroke:#181818;stroke-width:0.5;" x1="950.29" x2="1155.125" y1="587.4883" y2="587.4883"/><text fill="#000000" font-family="sans-serif" font-size="14" lengthAdjust="spacing" textLength="131.7832" x="955.29" y="605.0234">type = ex:Structure</text></g><g class="entity" data-entity="o14" data-source-line="42" data-uid="ent0015" id="entity_o14"><rect fill="#F1F1F1" height="44.9766" rx="2.5" ry="2.5" style="stroke:#181818;stroke-width:0.5;" width="252.2256" x="1611.29" y="647"/><text fill="#000000" font-family="sans-serif" font-size="14" lengthAdjust="spacing" textLength="238.2256" x="1618.29" y="662.5352">data:OKUMA.123456-y_axis-name</text><line style="stroke:#181818;stroke-width:0.5;" x1="1612.29" x2="1862.5156" y1="667.4883" y2="667.4883"/><text fill="#000000" font-family="sans-serif" font-size="14" lengthAdjust="spacing" textLength="161.3691" x="1617.29" y="685.0234">type = cmns-dsg:Name</text></g><g class="entity" data-entity="o15" data-source-line="45" data-uid="ent0016" id="entity_o15"><rect fill="#F1F1F1" height="44.9766" rx="2.5" ry="2.5" style="stroke:#181818;stroke-width:0.5;" width="258.5654" x="923.42" y="647"/><text fill="#000000" font-family="sans-serif" font-size="14" lengthAdjust="spacing" textLength="244.46" x="930.4727" y="662.5352">data:OKUMA.123456-LYI1-function</text><line style="stroke:#181818;stroke-width:0.5;" x1="924.42" x2="1180.9854" y1="667.4883" y2="667.4883"/><text fill="#000000" font-family="sans-serif" font-size="14" lengthAdjust="spacing" textLength="246.5654" x="929.42" y="685.0234">type = ex:PrismaticMotionCapability</text></g><g class="entity" data-entity="o16" data-source-line="48" data-uid="ent0017" id="entity_o16"><rect fill="#F1F1F1" height="44.9766" rx="2.5" ry="2.5" style="stroke:#181818;stroke-width:0.5;" width="306.0654" x="899.67" y="727"/><text fill="#000000" font-family="sans-serif" font-size="14" lengthAdjust="spacing" textLength="292.0654" x="906.67" y="742.5352">data:OKUMA.123456-LYI1-position-actual</text><line style="stroke:#181818;stroke-width:0.5;" x1="900.67" x2="1204.7354" y1="747.4883" y2="747.4883"/><text fill="#000000" font-family="sans-serif" font-size="14" lengthAdjust="spacing" textLength="163.2285" x="905.67" y="765.0234">type = qp:Displacement</text></g><g class="entity" data-entity="o17" data-source-line="51" data-uid="ent0018" id="entity_o17"><rect fill="#F1F1F1" height="44.9766" rx="2.5" ry="2.5" style="stroke:#181818;stroke-width:0.5;" width="156.9189" x="7" y="521"/><a href="./OKUMA.123456.html" target="_top" title="./OKUMA.123456.html" xlink:actuate="onRequest" xlink:href="./OKUMA.123456.html" xlink:show="new" xlink:title="./OKUMA.123456.html" xlink:type="simple"><text fill="#0000FF" font-family="sans-serif" font-size="14" lengthAdjust="spacing" text-decoration="underline" textLength="142.9189" x="14" y="536.5352">data:OKUMA.123456</text></a><line style="stroke:#181818;stroke-width:0.5;" x1="8" x2="162.9189" y1="541.4883" y2="541.4883"/><text fill="#000000" font-family="sans-serif" font-size="14" lengthAdjust="spacing" textLength="126.1504" x="13" y="559.0234">type = ex:Machine</text></g><!--link o1 to o2--><g class="link" data-entity-1="o1" data-entity-2="o2" data-source-line="54" data-uid="lnk19" id="link_o1_o2"><path codeLine="54" d="M580.22,520.52 C619.24,479.63 696.67,398.49 696.67,398.49 C696.67,398.49 899.67,309.49 899.67,309.49 C899.67,309.49 918.0885,303.6767 947.1285,294.5067" fill="none" id="o1-to-o2" style="stroke:#181818;stroke-width:1;"/><polygon fill="#181818" points="952.85,292.7,943.0632,291.5957,948.0821,294.2056,945.4722,299.2244,952.85,292.7" style="stroke:#181818;stroke-width:1;"/><text fill="#000000" font-family="sans-serif" font-size="13" lengthAdjust="spacing" textLength="126.0771" x="720.17" y="320.9784">cmns-dsg:hasName</text></g><!--link o1 to o3--><g class="link" data-entity-1="o1" data-entity-2="o3" data-source-line="56" data-uid="lnk20" id="link_o1_o3"><path codeLine="56" d="M616.35,520.67 C711.24,483.36 892.9161,411.9256 987.9061,374.5756" fill="none" id="o1-to-o3" style="stroke:#181818;stroke-width:1;"/><polygon fill="#181818" points="993.49,372.38,983.6505,371.9508,988.8368,374.2096,986.5779,379.3959,993.49,372.38" style="stroke:#181818;stroke-width:1;"/><text fill="#000000" font-family="sans-serif" font-size="13" lengthAdjust="spacing" textLength="112.3027" x="727.17" y="419.9784">core:prescribedBy</text></g><!--link o3 to o4--><g class="link" data-entity-1="o3" data-entity-2="o4" data-source-line="57" data-uid="lnk21" id="link_o3_o4"><path codeLine="57" d="M1140.82,326.57 C1174.79,317.63 1205.74,309.49 1205.74,309.49 C1205.74,309.49 1235.74,132.49 1235.74,132.49 C1235.74,132.49 1492.74,69.49 1492.74,69.49 C1492.74,69.49 1536.1992,62.3514 1590.5092,53.4414" fill="none" id="o3-to-o4" style="stroke:#181818;stroke-width:1;"/><polygon fill="#181818" points="1596.43,52.47,1586.9012,49.9798,1591.496,53.2795,1588.1963,57.8743,1596.43,52.47" style="stroke:#181818;stroke-width:1;"/><text fill="#000000" font-family="sans-serif" font-size="13" lengthAdjust="spacing" textLength="225.0688" x="1236.74" y="73.8684">core:hasValueExpressionAtAllTimes</text></g><!--link o3 to o5--><g class="link" data-entity-1="o3" data-entity-2="o5" data-source-line="58" data-uid="lnk22" id="link_o3_o5"><path codeLine="58" d="M1140.82,326.57 C1174.79,317.63 1205.74,309.49 1205.74,309.49 C1205.74,309.49 1235.74,210.49 1235.74,210.49 C1235.74,210.49 1492.74,149.49 1492.74,149.49 C1492.74,149.49 1536.1992,142.3514 1590.5092,133.4414" fill="none" id="o3-to-o5" style="stroke:#181818;stroke-width:1;"/><polygon fill="#181818" points="1596.43,132.47,1586.9012,129.9798,1591.496,133.2795,1588.1963,137.8743,1596.43,132.47" style="stroke:#181818;stroke-width:1;"/><text fill="#000000" font-family="sans-serif" font-size="13" lengthAdjust="spacing" textLength="225.0688" x="1236.74" y="153.6184">core:hasValueExpressionAtAllTimes</text></g><!--link o3 to o6--><g class="link" data-entity-1="o3" data-entity-2="o6" data-source-line="59" data-uid="lnk23" id="link_o3_o6"><path codeLine="59" d="M1140.82,326.57 C1174.79,317.63 1205.74,309.49 1205.74,309.49 C1205.74,309.49 1235.74,275.49 1235.74,275.49 C1235.74,275.49 1492.74,229.49 1492.74,229.49 C1492.74,229.49 1536.1992,222.3514 1590.5092,213.4414" fill="none" id="o3-to-o6" style="stroke:#181818;stroke-width:1;"/><polygon fill="#181818" points="1596.43,212.47,1586.9012,209.9798,1591.496,213.2795,1588.1963,217.8743,1596.43,212.47" style="stroke:#181818;stroke-width:1;"/><text fill="#000000" font-family="sans-serif" font-size="13" lengthAdjust="spacing" textLength="225.0688" x="1236.74" y="231.7584">core:hasValueExpressionAtAllTimes</text></g><!--link o3 to o7--><g class="link" data-entity-1="o3" data-entity-2="o7" data-source-line="60" data-uid="lnk24" id="link_o3_o7"><path codeLine="60" d="M1169.5,333.59 C1205.41,328.66 1235.74,324.49 1235.74,324.49 C1235.74,324.49 1384.0859,308.1951 1521.3759,293.1151" fill="none" id="o3-to-o7" style="stroke:#181818;stroke-width:1;"/><polygon fill="#181818" points="1527.34,292.46,1517.9571,289.4666,1522.3699,293.0059,1518.8305,297.4187,1527.34,292.46" style="stroke:#181818;stroke-width:1;"/><text fill="#000000" font-family="sans-serif" font-size="13" lengthAdjust="spacing" textLength="225.0688" x="1236.74" y="296.8484">core:hasValueExpressionAtAllTimes</text></g><!--link o3 to o8--><g class="link" data-entity-1="o3" data-entity-2="o8" data-source-line="61" data-uid="lnk25" id="link_o3_o8"><path codeLine="61" d="M1169.51,349.49 C1266.05,349.49 1400.14,349.49 1516.9,349.49" fill="none" id="o3-to-o8" style="stroke:#181818;stroke-width:1;"/><polygon fill="#181818" points="1522.9,349.49,1513.9,345.49,1517.9,349.49,1513.9,353.49,1522.9,349.49" style="stroke:#181818;stroke-width:1;"/><text fill="#000000" font-family="sans-serif" font-size="13" lengthAdjust="spacing" textLength="225.0688" x="1236.74" y="346.0584">core:hasValueExpressionAtAllTimes</text></g><!--link o3 to o9--><g class="link" data-entity-1="o3" data-entity-2="o9" data-source-line="62" data-uid="lnk26" id="link_o3_o9"><path codeLine="62" d="M1169.5,365.4 C1205.41,370.33 1235.74,374.49 1235.74,374.49 C1235.74,374.49 1384.0859,390.7845 1521.3759,405.8745" fill="none" id="o3-to-o9" style="stroke:#181818;stroke-width:1;"/><polygon fill="#181818" points="1527.34,406.53,1518.8309,401.5706,1522.3699,405.9837,1517.9569,409.5228,1527.34,406.53" style="stroke:#181818;stroke-width:1;"/><text fill="#000000" font-family="sans-serif" font-size="13" lengthAdjust="spacing" textLength="225.0688" x="1236.74" y="371.0584">core:hasValueExpressionAtAllTimes</text></g><!--link o3 to o10--><g class="link" data-entity-1="o3" data-entity-2="o10" data-source-line="63" data-uid="lnk27" id="link_o3_o10"><path codeLine="63" d="M1109.81,372.3 C1163.29,394.04 1235.74,423.49 1235.74,423.49 C1235.74,423.49 1492.74,469.49 1492.74,469.49 C1492.74,469.49 1536.1992,476.6286 1590.5092,485.5386" fill="none" id="o3-to-o10" style="stroke:#181818;stroke-width:1;"/><polygon fill="#181818" points="1596.43,486.51,1588.1963,481.1057,1591.496,485.7005,1586.9012,489.0002,1596.43,486.51" style="stroke:#181818;stroke-width:1;"/><text fill="#000000" font-family="sans-serif" font-size="13" lengthAdjust="spacing" textLength="225.0688" x="1236.74" y="420.0584">core:hasValueExpressionAtAllTimes</text></g><!--link o1 to o11--><g class="link" data-entity-1="o1" data-entity-2="o11" data-source-line="64" data-uid="lnk28" id="link_o1_o11"><path codeLine="64" d="M666.88,536.01 C750.73,530.23 859.9842,522.7022 942.4642,517.0222" fill="none" id="o1-to-o11" style="stroke:#181818;stroke-width:1;"/><polygon fill="#181818" points="948.45,516.61,939.1965,513.2378,943.4618,516.9535,939.7461,521.2189,948.45,516.61" style="stroke:#181818;stroke-width:1;"/><text fill="#000000" font-family="sans-serif" font-size="13" lengthAdjust="spacing" textLength="74.7246" x="746.17" y="519.0184">ex:joinedTo</text></g><!--link o11 to o12--><g class="link" data-entity-1="o11" data-entity-2="o12" data-source-line="65" data-uid="lnk29" id="link_o11_o12"><path codeLine="65" d="M1140.82,532.41 C1174.79,541.35 1205.74,549.49 1205.74,549.49 C1205.74,549.49 1235.74,569.49 1235.74,569.49 C1235.74,569.49 1456.0748,578.2903 1604.3948,584.2203" fill="none" id="o11-to-o12" style="stroke:#181818;stroke-width:1;"/><polygon fill="#181818" points="1610.39,584.46,1601.557,580.1037,1605.394,584.2603,1601.2374,588.0973,1610.39,584.46" style="stroke:#181818;stroke-width:1;"/><text fill="#000000" font-family="sans-serif" font-size="13" lengthAdjust="spacing" textLength="126.0771" x="1286.24" y="566.0584">cmns-dsg:hasName</text></g><!--link o1 to o13--><g class="link" data-entity-1="o1" data-entity-2="o13" data-source-line="66" data-uid="lnk30" id="link_o1_o13"><path codeLine="66" d="M666.99,555.27 C684.32,557.15 696.67,558.49 696.67,558.49 C696.67,558.49 838.1828,570.8478 943.0328,580.0078" fill="none" id="o1-to-o13" style="stroke:#181818;stroke-width:1;"/><polygon fill="#181818" points="949.01,580.53,940.3923,575.7619,944.029,580.0948,939.696,583.7315,949.01,580.53" style="stroke:#181818;stroke-width:1;"/><text fill="#000000" font-family="sans-serif" font-size="13" lengthAdjust="spacing" textLength="74.7246" x="746.17" y="555.0584">ex:joinedTo</text></g><!--link o13 to o14--><g class="link" data-entity-1="o13" data-entity-2="o14" data-source-line="67" data-uid="lnk31" id="link_o13_o14"><path codeLine="67" d="M1156.28,601.51 C1277.82,615.75 1474.3008,638.7817 1605.0308,654.1017" fill="none" id="o13-to-o14" style="stroke:#181818;stroke-width:1;"/><polygon fill="#181818" points="1610.99,654.8,1602.5167,649.7797,1606.024,654.218,1601.5856,657.7253,1610.99,654.8" style="stroke:#181818;stroke-width:1;"/><text fill="#000000" font-family="sans-serif" font-size="13" lengthAdjust="spacing" textLength="126.0771" x="1286.24" y="607.5184">cmns-dsg:hasName</text></g><!--link o1 to o15--><g class="link" data-entity-1="o1" data-entity-2="o15" data-source-line="68" data-uid="lnk32" id="link_o1_o15"><path codeLine="68" d="M615.78,566.34 C653.8,581.45 696.67,598.49 696.67,598.49 C696.67,598.49 827.3166,624.6131 931.0466,645.3631" fill="none" id="o1-to-o15" style="stroke:#181818;stroke-width:1;"/><polygon fill="#181818" points="936.93,646.54,928.8894,640.8523,932.0271,645.5592,927.3202,648.6969,936.93,646.54" style="stroke:#181818;stroke-width:1;"/><text fill="#000000" font-family="sans-serif" font-size="13" lengthAdjust="spacing" textLength="107.6309" x="729.67" y="595.0584">core:hasFunction</text></g><!--link o1 to o16--><g class="link" data-entity-1="o1" data-entity-2="o16" data-source-line="69" data-uid="lnk33" id="link_o1_o16"><path codeLine="69" d="M586.3,566.36 C626.73,599.38 696.67,656.49 696.67,656.49 C696.67,656.49 853.4757,697.5699 958.5957,725.0999" fill="none" id="o1-to-o16" style="stroke:#181818;stroke-width:1;"/><polygon fill="#181818" points="964.4,726.62,956.707,720.4704,959.5631,725.3533,954.6802,728.2094,964.4,726.62" style="stroke:#181818;stroke-width:1;"/><text fill="#000000" font-family="sans-serif" font-size="13" lengthAdjust="spacing" textLength="171.3169" x="697.67" y="653.0584">core:measuresAtSomeTime</text></g><!--link o17 to o1--><g class="link" data-entity-1="o17" data-entity-2="o1" data-source-line="70" data-uid="lnk34" id="link_o17_o1"><path codeLine="70" d="M164.31,543.49 C241.63,543.49 354.85,543.49 441.52,543.49" fill="none" id="o17-to-o1" style="stroke:#181818;stroke-width:1;"/><polygon fill="#181818" points="447.52,543.49,438.52,539.49,442.52,543.49,438.52,547.49,447.52,543.49" style="stroke:#181818;stroke-width:1;"/><text fill="#000000" font-family="sans-serif" font-size="13" lengthAdjust="spacing" textLength="222.5425" x="194.92" y="540.0584">obo:has member part at some time</text></g><!--SRC=[jLPTRzem57tFhx3w7hOqVBIHDYc3j4CZW81LGbLLES60EplER4SYclRVPoSG0hGisSeR-1wVS-_rFHV43np5a4CA28wGJ6C4OaPI_SKWQ2c1P83ZrLg21UOeb9X51WjUr2TmzVZO-33wzjrt6zQrtMorpS6yRpNMaXAmW18w9x6dfoi01M0M-6M0JEiJG1jdeCGWzvacdwP28cg0tuNAwrHc12dAsQvBR26DXBaGAsUemXLOH8p2dCKkip2Ed1uIU1LD5G0lSGYpogiHcWDlU3_xQWuPnH4aEN_pcFy1aWHvcvWZ8UfmzuUUEtc-6qswdkd33QO9pHLQ5r70qLwX_KuA3zvWrEtFvkR47VTxXrLqBgHHhkFclJN6az7znFLzxwYOsqiAbIkoFjPGEl7jvbabBTvoRXujl7jatgdaIIWJ_XUtvIGbrrgLR7kIQdesrVGmLVkVKarFKct-nuPP9b6sDRTKhSEKnXmBgdPBc6-_BenXW0cMQGNcc0ciBvbG5RLRCrRPepzZfuT5J628A8hakSQ-qT6YbPt3l7qOhlLFX6QqW6b-rclOsJTd3KNMd_nKpwCwcM8Qaz9CPYEg-EO5Xxr3QqZ8SO0MNr937MVHPedhQBnTwH8omnI90jsgXMxNGdTgeMzgeMzhePNnAy6t3LRkTVJxlJ3rUeiPC_H97ddz_NPH- -JUBe7csNlbLxZRMc4VBRfE4HJAcCALKqQHpjdGCvUZ58W5J3C0YcY0E53_M2I04WW51bAX_m00]--></g></svg>