<svg xmlns="http://www.w3.org/2000/svg" xmlns:xlink="http://www.w3.org/1999/xlink" contentStyleType="text/css" data-diagram-type="CLASS" height="778px" preserveAspectRatio="none" style="width:1979px;height:778px;background:#FFFFFF;" version="1.1" viewBox="0 0 1979 778" width="1979px" zoomAndPan="magnify"><defs/><g><g class="entity" data-entity="o1" data-source-line="3" data-uid="ent0002" id="entity_o1"><rect fill="#F1F1F1" height="44.9766" rx="2.5" ry="2.5" style="stroke:#181818;stroke-width:0.5;" width="218.7529" x="447.92" y="521"/><a href="./OKUMA.123456-Lx1.html" target="_top" title="./OKUMA.123456-Lx1.html" xlink:actuate="onRequest" xlink:href="./OKUMA.123456-Lx1.html" xlink:show="new" xlink:title="./OKUMA.123456-Lx1.html" xlink:type="simple"><text fill="#0000FF" font-family="sans-serif" font-size="14" lengthAdjust="spacing" text-decoration="underline" textLength="175.9229" x="469.335" y="536.5352">data:OKUMA.123456-Lx1</text></a><line style="stroke:#181818;stroke-width:0.5;" x1="448.92" x2="665.6729" y1="541.4883" y2="541.4883"/><text fill="#000000" font-family="sans-serif" font-size="14" lengthAdjust="spacing" textLength="206.7529" x="453.92" y="559.0234">type = ex:LinearMotionSystem</text></g><g class="entity" data-entity="o2" data-source-line="6" data-uid="ent0003" id="entity_o2"><rect fill="#F1F1F1" height="61.4648" rx="2.5" ry="2.5" style="stroke:#181818;stroke-width:0.5;" width="254.8945" x="923.17" y="230.76"/><text fill="#000000" font-family="sans-serif" font-size="14" lengthAdjust="spacing" textLength="221.3135" x="939.9605" y="246.2952">data:OKUMA.123456-Lx1-name</text><line style="stroke:#181818;stroke-width:0.5;" x1="924.17" x2="1177.0645" y1="251.2483" y2="251.2483"/><text fill="#000000" font-family="sans-serif" font-size="14" lengthAdjust="spacing" textLength="161.3691" x="929.17" y="268.7834">type = cmns-dsg:Name</text><text fill="#000000" font-family="sans-serif" font-size="14" lengthAdjust="spacing" textLength="242.8945" x="929.17" y="285.2717">core:hasSimpleExpressionValue = X</text></g><g class="entity" data-entity="o3" data-source-line="9" data-uid="ent0004" id="entity_o3"><rect fill="#F1F1F1" height="44.9766" rx="2.5" ry="2.5" style="stroke:#181818;stroke-width:0.5;" width="228.9424" x="936.15" y="327"/><text fill="#000000" font-family="sans-serif" font-size="14" lengthAdjust="spacing" textLength="214.9424" x="943.15" y="342.5352">data:OKUMA.123456-Lx1-spec</text><line style="stroke:#181818;stroke-width:0.5;" x1="937.15" x2="1164.0924" y1="347.4883" y2="347.4883"/><text fill="#000000" font-family="sans-serif" font-size="14" lengthAdjust="spacing" textLength="215.8037" x="942.15" y="365.0234">type = core:DesignSpecification</text></g><g class="entity" data-entity="o4" data-source-line="12" data-uid="ent0005" id="entity_o4"><rect fill="#F1F1F1" height="44.9766" rx="2.5" ry="2.5" style="stroke:#181818;stroke-width:0.5;" width="356.3232" x="1552.99" y="7"/><text fill="#000000" font-family="sans-serif" font-size="14" lengthAdjust="spacing" textLength="342.3232" x="1559.99" y="22.5352">data:OKUMA.123456-Lx1-spec-LENGTH-Nominal</text><line style="stroke:#181818;stroke-width:0.5;" x1="1553.99" x2="1908.3132" y1="27.4883" y2="27.4883"/><text fill="#000000" font-family="sans-serif" font-size="14" lengthAdjust="spacing" textLength="194.4209" x="1558.99" y="45.0234">type = core:ValueExpression</text></g><g class="entity" data-entity="o5" data-source-line="15" data-uid="ent0006" id="entity_o5"><rect fill="#F1F1F1" height="44.9766" rx="2.5" ry="2.5" style="stroke:#181818;stroke-width:0.5;" width="411.8447" x="1525.23" y="87"/><text fill="#000000" font-family="sans-serif" font-size="14" lengthAdjust="spacing" textLength="397.8447" x="1532.23" y="102.5352">data:OKUMA.123456-Lx1-spec-LINEAR_FORCE-Maximum</text><line style="stroke:#181818;stroke-width:0.5;" x1="1526.23" x2="1936.0747" y1="107.4883" y2="107.4883"/><text fill="#000000" font-family="sans-serif" font-size="14" lengthAdjust="spacing" textLength="194.4209" x="1531.23" y="125.0234">type = core:ValueExpression</text></g><g class="entity" data-entity="o6" data-source-line="18" data-uid="ent0007" id="entity_o6"><rect fill="#F1F1F1" height="44.9766" rx="2.5" ry="2.5" style="stroke:#181818;stroke-width:0.5;" width="408.2627" x="1527.02" y="167"/><text fill="#000000" font-family="sans-serif" font-size="14" lengthAdjust="spacing" textLength="394.2627" x="1534.02" y="182.5352">data:OKUMA.123456-Lx1-spec-LINEAR_FORCE-Minimum</text><line style="stroke:#181818;stroke-width:0.5;" x1="1528.02" x2="1934.2827" y1="187.4883" y2="187.4883"/><text fill="#000000" font-family="sans-serif" font-size="14" lengthAdjust="spacing" textLength="194.4209" x="1533.02" y="205.0234">type = core:ValueExpression</text></g><g class="entity" data-entity="o7" data-source-line="21" data-uid="ent0008" id="entity_o7"><rect fill="#F1F1F1" height="44.9766" rx="2.5" ry="2.5" style="stroke:#181818;stroke-width:0.5;" width="427.6426" x="1517.33" y="247"/><text fill="#000000" font-family="sans-serif" font-size="14" lengthAdjust="spacing" textLength="413.6426" x="1524.33" y="262.5352">data:OKUMA.123456-Lx1-spec-VELOCITY-RAPID-Maximum</text><line style="stroke:#181818;stroke-width:0.5;" x1="1518.33" x2="1943.9726" y1="267.4883" y2="267.4883"/><text fill="#000000" font-family="sans-serif" font-size="14" lengthAdjust="spacing" textLength="194.4209" x="1523.33" y="285.0234">type = core:ValueExpression</text></g><g class="entity" data-entity="o8" data-source-line="24" data-uid="ent0009" id="entity_o8"><rect fill="#F1F1F1" height="44.9766" rx="2.5" ry="2.5" style="stroke:#181818;stroke-width:0.5;" width="424.0605" x="1519.12" y="327"/><text fill="#000000" font-family="sans-serif" font-size="14" lengthAdjust="spacing" textLength="410.0605" x="1526.12" y="342.5352">data:OKUMA.123456-Lx1-spec-VELOCITY-RAPID-Minimum</text><line style="stroke:#181818;stroke-width:0.5;" x1="1520.12" x2="1942.1805" y1="347.4883" y2="347.4883"/><text fill="#000000" font-family="sans-serif" font-size="14" lengthAdjust="spacing" textLength="194.4209" x="1525.12" y="365.0234">type = core:ValueExpression</text></g><g class="entity" data-entity="o9" data-source-line="27" data-uid="ent0010" id="entity_o9"><rect fill="#F1F1F1" height="44.9766" rx="2.5" ry="2.5" style="stroke:#181818;stroke-width:0.5;" width="485.1602" x="1488.57" y="407"/><text fill="#000000" font-family="sans-serif" font-size="14" lengthAdjust="spacing" textLength="471.1602" x="1495.57" y="422.5352">data:OKUMA.123456-Lx1-spec-VELOCITY-PROGRAMMED-Maximum</text><line style="stroke:#181818;stroke-width:0.5;" x1="1489.57" x2="1972.7302" y1="427.4883" y2="427.4883"/><text fill="#000000" font-family="sans-serif" font-size="14" lengthAdjust="spacing" textLength="194.4209" x="1494.57" y="445.0234">type = core:ValueExpression</text></g><g class="entity" data-entity="o10" data-source-line="30" data-uid="ent0011" id="entity_o10"><rect fill="#F1F1F1" height="44.9766" rx="2.5" ry="2.5" style="stroke:#181818;stroke-width:0.5;" width="481.5781" x="1490.36" y="487"/><text fill="#000000" font-family="sans-serif" font-size="14" lengthAdjust="spacing" textLength="467.5781" x="1497.36" y="502.5352">data:OKUMA.123456-Lx1-spec-VELOCITY-PROGRAMMED-Minimum</text><line style="stroke:#181818;stroke-width:0.5;" x1="1491.36" x2="1970.9381" y1="507.4883" y2="507.4883"/><text fill="#000000" font-family="sans-serif" font-size="14" lengthAdjust="spacing" textLength="194.4209" x="1496.36" y="525.0234">type = core:ValueExpression</text></g><g class="entity" data-entity="o11" data-source-line="33" data-uid="ent0012" id="entity_o11"><rect fill="#F1F1F1" height="44.9766" rx="2.5" ry="2.5" style="stroke:#181818;stroke-width:0.5;" width="216.3984" x="942.42" y="487"/><a href="./OKUMA.123456-z1_axis.html" target="_top" title="./OKUMA.123456-z1_axis.html" xlink:actuate="onRequest" xlink:href="./OKUMA.123456-z1_axis.html" xlink:show="new" xlink:title="./OKUMA.123456-z1_axis.html" xlink:type="simple"><text fill="#0000FF" font-family="sans-serif" font-size="14" lengthAdjust="spacing" text-decoration="underline" textLength="202.3984" x="949.42" y="502.5352">data:OKUMA.123456-z1_axis</text></a><line style="stroke:#181818;stroke-width:0.5;" x1="943.42" x2="1157.8184" y1="507.4883" y2="507.4883"/><text fill="#000000" font-family="sans-serif" font-size="14" lengthAdjust="spacing" textLength="131.7832" x="948.42" y="525.0234">type = ex:Structure</text></g><g class="entity" data-entity="o12" data-source-line="36" data-uid="ent0013" id="entity_o12"><rect fill="#F1F1F1" height="44.9766" rx="2.5" ry="2.5" style="stroke:#181818;stroke-width:0.5;" width="261.7891" x="1600.25" y="567"/><text fill="#000000" font-family="sans-serif" font-size="14" lengthAdjust="spacing" textLength="247.7891" x="1607.25" y="582.5352">data:OKUMA.123456-z1_axis-name</text><line style="stroke:#181818;stroke-width:0.5;" x1="1601.25" x2="1861.0391" y1="587.4883" y2="587.4883"/><text fill="#000000" font-family="sans-serif" font-size="14" lengthAdjust="spacing" textLength="161.3691" x="1606.25" y="605.0234">type = cmns-dsg:Name</text></g><g class="entity" data-entity="o13" data-source-line="39" data-uid="ent0014" id="entity_o13"><rect fill="#F1F1F1" height="44.9766" rx="2.5" ry="2.5" style="stroke:#181818;stroke-width:0.5;" width="208.1064" x="946.57" y="567"/><a href="./OKUMA.123456-x_axis.html" target="_top" title="./OKUMA.123456-x_axis.html" xlink:actuate="onRequest" xlink:href="./OKUMA.123456-x_axis.html" xlink:show="new" xlink:title="./OKUMA.123456-x_axis.html" xlink:type="simple"><text fill="#0000FF" font-family="sans-serif" font-size="14" lengthAdjust="spacing" text-decoration="underline" textLength="194.1064" x="953.57" y="582.5352">data:OKUMA.123456-x_axis</text></a><line style="stroke:#181818;stroke-width:0.5;" x1="947.57" x2="1153.6764" y1="587.4883" y2="587.4883"/><text fill="#000000" font-family="sans-serif" font-size="14" lengthAdjust="spacing" textLength="131.7832" x="952.57" y="605.0234">type = ex:Structure</text></g><g class="entity" data-entity="o14" data-source-line="42" data-uid="ent0015" id="entity_o14"><rect fill="#F1F1F1" height="44.9766" rx="2.5" ry="2.5" style="stroke:#181818;stroke-width:0.5;" width="253.4971" x="1604.4" y="647"/><text fill="#000000" font-family="sans-serif" font-size="14" lengthAdjust="spacing" textLength="239.4971" x="1611.4" y="662.5352">data:OKUMA.123456-x_axis-name</text><line style="stroke:#181818;stroke-width:0.5;" x1="1605.4" x2="1856.8971" y1="667.4883" y2="667.4883"/><text fill="#000000" font-family="sans-serif" font-size="14" lengthAdjust="spacing" textLength="161.3691" x="1610.4" y="685.0234">type = cmns-dsg:Name</text></g><g class="entity" data-entity="o15" data-source-line="45" data-uid="ent0016" id="entity_o15"><rect fill="#F1F1F1" height="44.9766" rx="2.5" ry="2.5" style="stroke:#181818;stroke-width:0.5;" width="258.5654" x="921.34" y="647"/><text fill="#000000" font-family="sans-serif" font-size="14" lengthAdjust="spacing" textLength="240.29" x="930.4777" y="662.5352">data:OKUMA.123456-Lx1-function</text><line style="stroke:#181818;stroke-width:0.5;" x1="922.34" x2="1178.9054" y1="667.4883" y2="667.4883"/><text fill="#000000" font-family="sans-serif" font-size="14" lengthAdjust="spacing" textLength="246.5654" x="927.34" y="685.0234">type = ex:PrismaticMotionCapability</text></g><g class="entity" data-entity="o16" data-source-line="48" data-uid="ent0017" id="entity_o16"><rect fill="#F1F1F1" height="44.9766" rx="2.5" ry="2.5" style="stroke:#181818;stroke-width:0.5;" width="301.8955" x="899.67" y="727"/><text fill="#000000" font-family="sans-serif" font-size="14" lengthAdjust="spacing" textLength="287.8955" x="906.67" y="742.5352">data:OKUMA.123456-Lx1-position-actual</text><line style="stroke:#181818;stroke-width:0.5;" x1="900.67" x2="1200.5655" y1="747.4883" y2="747.4883"/><text fill="#000000" font-family="sans-serif" font-size="14" lengthAdjust="spacing" textLength="163.2285" x="905.67" y="765.0234">type = qp:Displacement</text></g><g class="entity" data-entity="o17" data-source-line="51" data-uid="ent0018" id="entity_o17"><rect fill="#F1F1F1" height="44.9766" rx="2.5" ry="2.5" style="stroke:#181818;stroke-width:0.5;" width="156.9189" x="7" y="521"/><a href="./OKUMA.123456.html" target="_top" title="./OKUMA.123456.html" xlink:actuate="onRequest" xlink:href="./OKUMA.123456.html" xlink:show="new" xlink:title="./OKUMA.123456.html" xlink:type="simple"><text fill="#0000FF" font-family="sans-serif" font-size="14" lengthAdjust="spacing" text-decoration="underline" textLength="142.9189" x="14" y="536.5352">data:OKUMA.123456</text></a><line style="stroke:#181818;stroke-width:0.5;" x1="8" x2="162.9189" y1="541.4883" y2="541.4883"/><text fill="#000000" font-family="sans-serif" font-size="14" lengthAdjust="spacing" textLength="126.1504" x="13" y="559.0234">type = ex:Machine</text></g><!--link o1 to o2--><g class="link" data-entity-1="o1" data-entity-2="o2" data-source-line="54" data-uid="lnk19" id="link_o1_o2"><path codeLine="54" d="M580.22,520.52 C619.24,479.63 696.67,398.49 696.67,398.49 C696.67,398.49 899.67,309.49 899.67,309.49 C899.67,309.49 917.7658,303.6996 946.4058,294.5296" fill="none" id="o1-to-o2" style="stroke:#181818;stroke-width:1;"/><polygon fill="#181818" points="952.12,292.7,942.3289,291.6349,947.3581,294.2247,944.7684,299.2539,952.12,292.7" style="stroke:#181818;stroke-width:1;"/><text fill="#000000" font-family="sans-serif" font-size="13" lengthAdjust="spacing" textLength="126.0771" x="720.17" y="320.9784">cmns-dsg:hasName</text></g><!--link o1 to o3--><g class="link" data-entity-1="o1" data-entity-2="o3" data-source-line="56" data-uid="lnk20" id="link_o1_o3"><path codeLine="56" d="M616.1,520.67 C710.59,483.36 891.4793,411.9336 986.0693,374.5836" fill="none" id="o1-to-o3" style="stroke:#181818;stroke-width:1;"/><polygon fill="#181818" points="991.65,372.38,981.8099,371.9649,986.9994,374.2163,984.748,379.4059,991.65,372.38" style="stroke:#181818;stroke-width:1;"/><text fill="#000000" font-family="sans-serif" font-size="13" lengthAdjust="spacing" textLength="112.3027" x="727.17" y="419.9784">core:prescribedBy</text></g><!--link o3 to o4--><g class="link" data-entity-1="o3" data-entity-2="o4" data-source-line="57" data-uid="lnk21" id="link_o3_o4"><path codeLine="57" d="M1137.54,326.57 C1171.04,317.63 1201.57,309.49 1201.57,309.49 C1201.57,309.49 1231.57,132.49 1231.57,132.49 C1231.57,132.49 1488.57,69.49 1488.57,69.49 C1488.57,69.49 1531.6105,62.3596 1585.4505,53.4496" fill="none" id="o3-to-o4" style="stroke:#181818;stroke-width:1;"/><polygon fill="#181818" points="1591.37,52.47,1581.8377,49.9931,1586.4371,53.2863,1583.1438,57.8858,1591.37,52.47" style="stroke:#181818;stroke-width:1;"/><text fill="#000000" font-family="sans-serif" font-size="13" lengthAdjust="spacing" textLength="225.0688" x="1232.57" y="73.8684">core:hasValueExpressionAtAllTimes</text></g><!--link o3 to o5--><g class="link" data-entity-1="o3" data-entity-2="o5" data-source-line="58" data-uid="lnk22" id="link_o3_o5"><path codeLine="58" d="M1137.54,326.57 C1171.04,317.63 1201.57,309.49 1201.57,309.49 C1201.57,309.49 1231.57,210.49 1231.57,210.49 C1231.57,210.49 1488.57,149.49 1488.57,149.49 C1488.57,149.49 1531.6105,142.3596 1585.4505,133.4496" fill="none" id="o3-to-o5" style="stroke:#181818;stroke-width:1;"/><polygon fill="#181818" points="1591.37,132.47,1581.8377,129.9931,1586.4371,133.2863,1583.1438,137.8858,1591.37,132.47" style="stroke:#181818;stroke-width:1;"/><text fill="#000000" font-family="sans-serif" font-size="13" lengthAdjust="spacing" textLength="225.0688" x="1232.57" y="153.6184">core:hasValueExpressionAtAllTimes</text></g><!--link o3 to o6--><g class="link" data-entity-1="o3" data-entity-2="o6" data-source-line="59" data-uid="lnk23" id="link_o3_o6"><path codeLine="59" d="M1137.54,326.57 C1171.04,317.63 1201.57,309.49 1201.57,309.49 C1201.57,309.49 1231.57,275.49 1231.57,275.49 C1231.57,275.49 1488.57,229.49 1488.57,229.49 C1488.57,229.49 1531.6105,222.3596 1585.4505,213.4496" fill="none" id="o3-to-o6" style="stroke:#181818;stroke-width:1;"/><polygon fill="#181818" points="1591.37,212.47,1581.8377,209.9931,1586.4371,213.2863,1583.1438,217.8858,1591.37,212.47" style="stroke:#181818;stroke-width:1;"/><text fill="#000000" font-family="sans-serif" font-size="13" lengthAdjust="spacing" textLength="225.0688" x="1232.57" y="231.7584">core:hasValueExpressionAtAllTimes</text></g><!--link o3 to o7--><g class="link" data-entity-1="o3" data-entity-2="o7" data-source-line="60" data-uid="lnk24" id="link_o3_o7"><path codeLine="60" d="M1165.58,333.66 C1201.3,328.7 1231.57,324.49 1231.57,324.49 C1231.57,324.49 1379.2762,308.1978 1515.9862,293.1178" fill="none" id="o3-to-o7" style="stroke:#181818;stroke-width:1;"/><polygon fill="#181818" points="1521.95,292.46,1512.5657,289.4709,1516.9801,293.0082,1513.4428,297.4227,1521.95,292.46" style="stroke:#181818;stroke-width:1;"/><text fill="#000000" font-family="sans-serif" font-size="13" lengthAdjust="spacing" textLength="225.0688" x="1232.57" y="296.8484">core:hasValueExpressionAtAllTimes</text></g><!--link o3 to o8--><g class="link" data-entity-1="o3" data-entity-2="o8" data-source-line="61" data-uid="lnk25" id="link_o3_o8"><path codeLine="61" d="M1165.57,349.49 C1261.73,349.49 1395.97,349.49 1512.62,349.49" fill="none" id="o3-to-o8" style="stroke:#181818;stroke-width:1;"/><polygon fill="#181818" points="1518.62,349.49,1509.62,345.49,1513.62,349.49,1509.62,353.49,1518.62,349.49" style="stroke:#181818;stroke-width:1;"/><text fill="#000000" font-family="sans-serif" font-size="13" lengthAdjust="spacing" textLength="225.0688" x="1232.57" y="346.0584">core:hasValueExpressionAtAllTimes</text></g><!--link o3 to o9--><g class="link" data-entity-1="o3" data-entity-2="o9" data-source-line="62" data-uid="lnk26" id="link_o3_o9"><path codeLine="62" d="M1165.58,365.32 C1201.3,370.29 1231.57,374.49 1231.57,374.49 C1231.57,374.49 1379.2762,390.7817 1515.9862,405.8717" fill="none" id="o3-to-o9" style="stroke:#181818;stroke-width:1;"/><polygon fill="#181818" points="1521.95,406.53,1513.4432,401.5667,1516.9802,405.9814,1512.5655,409.5184,1521.95,406.53" style="stroke:#181818;stroke-width:1;"/><text fill="#000000" font-family="sans-serif" font-size="13" lengthAdjust="spacing" textLength="225.0688" x="1232.57" y="371.0584">core:hasValueExpressionAtAllTimes</text></g><!--link o3 to o10--><g class="link" data-entity-1="o3" data-entity-2="o10" data-source-line="63" data-uid="lnk27" id="link_o3_o10"><path codeLine="63" d="M1107.08,372.3 C1159.95,394.04 1231.57,423.49 1231.57,423.49 C1231.57,423.49 1488.57,469.49 1488.57,469.49 C1488.57,469.49 1531.6105,476.6204 1585.4505,485.5304" fill="none" id="o3-to-o10" style="stroke:#181818;stroke-width:1;"/><polygon fill="#181818" points="1591.37,486.51,1583.1438,481.0942,1586.4371,485.6937,1581.8377,488.9869,1591.37,486.51" style="stroke:#181818;stroke-width:1;"/><text fill="#000000" font-family="sans-serif" font-size="13" lengthAdjust="spacing" textLength="225.0688" x="1232.57" y="420.0584">core:hasValueExpressionAtAllTimes</text></g><!--link o1 to o11--><g class="link" data-entity-1="o1" data-entity-2="o11" data-source-line="64" data-uid="lnk28" id="link_o1_o11"><path codeLine="64" d="M667.03,535.97 C748.86,530.3 854.4843,522.994 936.0343,517.354" fill="none" id="o1-to-o11" style="stroke:#181818;stroke-width:1;"/><polygon fill="#181818" points="942.02,516.94,932.7655,513.5705,937.0319,517.285,933.3174,521.5514,942.02,516.94" style="stroke:#181818;stroke-width:1;"/><text fill="#000000" font-family="sans-serif" font-size="13" lengthAdjust="spacing" textLength="74.7246" x="746.17" y="519.0184">ex:joinedTo</text></g><!--link o11 to o12--><g class="link" data-entity-1="o11" data-entity-2="o12" data-source-line="65" data-uid="lnk29" id="link_o11_o12"><path codeLine="65" d="M1137.54,532.41 C1171.04,541.35 1201.57,549.49 1201.57,549.49 C1201.57,549.49 1231.57,569.49 1231.57,569.49 C1231.57,569.49 1446.0848,578.0997 1593.8048,584.0197" fill="none" id="o11-to-o12" style="stroke:#181818;stroke-width:1;"/><polygon fill="#181818" points="1599.8,584.26,1590.9674,579.9028,1594.804,584.0598,1590.647,587.8964,1599.8,584.26" style="stroke:#181818;stroke-width:1;"/><text fill="#000000" font-family="sans-serif" font-size="13" lengthAdjust="spacing" textLength="126.0771" x="1282.07" y="566.0584">cmns-dsg:hasName</text></g><!--link o1 to o13--><g class="link" data-entity-1="o1" data-entity-2="o13" data-source-line="66" data-uid="lnk30" id="link_o1_o13"><path codeLine="66" d="M666.99,555.27 C684.32,557.15 696.67,558.49 696.67,558.49 C696.67,558.49 835.983,570.7249 940.133,579.8749" fill="none" id="o1-to-o13" style="stroke:#181818;stroke-width:1;"/><polygon fill="#181818" points="946.11,580.4,937.4946,575.6277,941.1292,579.9624,936.7945,583.597,946.11,580.4" style="stroke:#181818;stroke-width:1;"/><text fill="#000000" font-family="sans-serif" font-size="13" lengthAdjust="spacing" textLength="74.7246" x="746.17" y="555.0584">ex:joinedTo</text></g><!--link o13 to o14--><g class="link" data-entity-1="o13" data-entity-2="o14" data-source-line="67" data-uid="lnk31" id="link_o13_o14"><path codeLine="67" d="M1155.04,601.69 C1275.52,615.89 1468.5813,638.6471 1598.0313,653.9171" fill="none" id="o13-to-o14" style="stroke:#181818;stroke-width:1;"/><polygon fill="#181818" points="1603.99,654.62,1595.5206,649.5932,1599.0244,654.0343,1594.5834,657.5381,1603.99,654.62" style="stroke:#181818;stroke-width:1;"/><text fill="#000000" font-family="sans-serif" font-size="13" lengthAdjust="spacing" textLength="126.0771" x="1282.07" y="607.5184">cmns-dsg:hasName</text></g><!--link o1 to o15--><g class="link" data-entity-1="o1" data-entity-2="o15" data-source-line="68" data-uid="lnk32" id="link_o1_o15"><path codeLine="68" d="M615.78,566.34 C653.8,581.45 696.67,598.49 696.67,598.49 C696.67,598.49 826.5179,624.6064 929.6379,645.3564" fill="none" id="o1-to-o15" style="stroke:#181818;stroke-width:1;"/><polygon fill="#181818" points="935.52,646.54,927.4859,640.8432,930.6183,645.5537,925.9078,648.686,935.52,646.54" style="stroke:#181818;stroke-width:1;"/><text fill="#000000" font-family="sans-serif" font-size="13" lengthAdjust="spacing" textLength="107.6309" x="729.67" y="595.0584">core:hasFunction</text></g><!--link o1 to o16--><g class="link" data-entity-1="o1" data-entity-2="o16" data-source-line="69" data-uid="lnk33" id="link_o1_o16"><path codeLine="69" d="M586.3,566.36 C626.73,599.38 696.67,656.49 696.67,656.49 C696.67,656.49 852.5179,697.5616 957.0279,725.0916" fill="none" id="o1-to-o16" style="stroke:#181818;stroke-width:1;"/><polygon fill="#181818" points="962.83,726.62,955.1458,720.4594,957.9949,725.3463,953.108,728.1955,962.83,726.62" style="stroke:#181818;stroke-width:1;"/><text fill="#000000" font-family="sans-serif" font-size="13" lengthAdjust="spacing" textLength="171.3169" x="697.67" y="653.0584">core:measuresAtSomeTime</text></g><!--link o17 to o1--><g class="link" data-entity-1="o17" data-entity-2="o1" data-source-line="70" data-uid="lnk34" id="link_o17_o1"><path codeLine="70" d="M164.31,543.49 C241.63,543.49 354.85,543.49 441.52,543.49" fill="none" id="o17-to-o1" style="stroke:#181818;stroke-width:1;"/><polygon fill="#181818" points="447.52,543.49,438.52,539.49,442.52,543.49,438.52,547.49,447.52,543.49" style="stroke:#181818;stroke-width:1;"/><text fill="#000000" font-family="sans-serif" font-size="13" lengthAdjust="spacing" textLength="222.5425" x="194.92" y="540.0584">obo:has member part at some time</text></g><!--SRC=[jLPTRzem57tFhx3w7hQKhpRIAcMGTcW44B2gKrLL9Z7Wpeupsv72flttsGc445eWLNa3t-Dpxhs-vuBuXSC8SaW1mI6IgmY1Y96L_c8GD9T0Ci3nOYb1W3do9MQXmMOlwXEuU7oiVHf-_-4vDUkotcYsp7vYrPQI4X102UrowEdf0a01c0N-6Y1L-W9GOlUL5EGUqzIJbP286k1Vhl4ganb2YZAoomAPJqDX1c9X3rJuE8c8a9-Hr8iaZ2ExYmHUX1C5m7FimxJga_ZClZkuctup1upY49AClb6cluSaHcuISIH41UhUm7N6pxV3SSSrFPXW6jDCe7aE0Hnk1LeV8t3lzeUTtlIdENP6lUvk3UtpI1IhkFfWYT5uU3TsFCyjbN9zHfrYFTRd2a9xPlrZFQkanLk6NOTpqvPSEv4yzcNCZ_XipL8mh7MIO_UoJGucc-pcMdzNhibUgettBvTv7ARBSitKtCrenB6WQgtusThhm0ZECC5oTPmuOWBhEoPK9MqsZ5KqwE_8xc8H4UWZYa9vgArlz3DlP7itRG_wI_t3e1ajO9etUl_QszOieKYxavtgWLGd4qmZKXZAT4OLtqFEKT-WDSJdU8Q2hoj37QVHHe6hDD-ET0YPOef4ZcvMGhSgeTkLq5ULqDULqChv9y7N3LRcjVNxlJ3rUi6K6VeaYxp-VfjeVU_U9e76mNl5LxXTEs4RpRjE4HJAbiAH4qQHpjdGCvUX58ZDc6O05D4Pua3zJv40IY0K64Y5_Wy0]--></g></svg>