<svg xmlns="http://www.w3.org/2000/svg" xmlns:xlink="http://www.w3.org/1999/xlink" contentStyleType="text/css" data-diagram-type="CLASS" height="475px" preserveAspectRatio="none" style="width:1749px;height:475px;background:#FFFFFF;" version="1.1" viewBox="0 0 1749 475" width="1749px" zoomAndPan="magnify"><defs/><g><g class="entity" data-entity="o1" data-source-line="3" data-uid="ent0002" id="entity_o1"><rect fill="#F1F1F1" height="44.9766" rx="2.5" ry="2.5" style="stroke:#181818;stroke-width:0.5;" width="220.7559" x="447.92" y="223.24"/><a href="./OKUMA.123456-Lc2.html" target="_top" title="./OKUMA.123456-Lc2.html" xlink:actuate="onRequest" xlink:href="./OKUMA.123456-Lc2.html" xlink:show="new" xlink:title="./OKUMA.123456-Lc2.html" xlink:type="simple"><text fill="#0000FF" font-family="sans-serif" font-size="14" lengthAdjust="spacing" text-decoration="underline" textLength="174.5078" x="471.044" y="238.7752">data:OKUMA.123456-Lc2</text></a><line style="stroke:#181818;stroke-width:0.5;" x1="448.92" x2="667.6759" y1="243.7283" y2="243.7283"/><text fill="#000000" font-family="sans-serif" font-size="14" lengthAdjust="spacing" textLength="208.7559" x="453.92" y="261.2634">type = ex:RotaryMotionSystem</text></g><g class="entity" data-entity="o2" data-source-line="6" data-uid="ent0003" id="entity_o2"><rect fill="#F1F1F1" height="61.4648" rx="2.5" ry="2.5" style="stroke:#181818;stroke-width:0.5;" width="264.6699" x="965.13" y="7"/><text fill="#000000" font-family="sans-serif" font-size="14" lengthAdjust="spacing" textLength="219.8984" x="987.5157" y="22.5352">data:OKUMA.123456-Lc2-name</text><line style="stroke:#181818;stroke-width:0.5;" x1="966.13" x2="1228.7999" y1="27.4883" y2="27.4883"/><text fill="#000000" font-family="sans-serif" font-size="14" lengthAdjust="spacing" textLength="161.3691" x="971.13" y="45.0234">type = cmns-dsg:Name</text><text fill="#000000" font-family="sans-serif" font-size="14" lengthAdjust="spacing" textLength="252.6699" x="971.13" y="61.5117">core:hasSimpleExpressionValue = C2</text></g><g class="entity" data-entity="o3" data-source-line="9" data-uid="ent0004" id="entity_o3"><rect fill="#F1F1F1" height="44.9766" rx="2.5" ry="2.5" style="stroke:#181818;stroke-width:0.5;" width="216.3984" x="989.27" y="103.24"/><a href="./OKUMA.123456-z4_axis.html" target="_top" title="./OKUMA.123456-z4_axis.html" xlink:actuate="onRequest" xlink:href="./OKUMA.123456-z4_axis.html" xlink:show="new" xlink:title="./OKUMA.123456-z4_axis.html" xlink:type="simple"><text fill="#0000FF" font-family="sans-serif" font-size="14" lengthAdjust="spacing" text-decoration="underline" textLength="202.3984" x="996.27" y="118.7752">data:OKUMA.123456-z4_axis</text></a><line style="stroke:#181818;stroke-width:0.5;" x1="990.27" x2="1204.6684" y1="123.7283" y2="123.7283"/><text fill="#000000" font-family="sans-serif" font-size="14" lengthAdjust="spacing" textLength="131.7832" x="995.27" y="141.2634">type = ex:Structure</text></g><g class="entity" data-entity="o4" data-source-line="12" data-uid="ent0005" id="entity_o4"><rect fill="#F1F1F1" height="44.9766" rx="2.5" ry="2.5" style="stroke:#181818;stroke-width:0.5;" width="261.7891" x="1481.26" y="103.24"/><text fill="#000000" font-family="sans-serif" font-size="14" lengthAdjust="spacing" textLength="247.7891" x="1488.26" y="118.7752">data:OKUMA.123456-z4_axis-name</text><line style="stroke:#181818;stroke-width:0.5;" x1="1482.26" x2="1742.0491" y1="123.7283" y2="123.7283"/><text fill="#000000" font-family="sans-serif" font-size="14" lengthAdjust="spacing" textLength="161.3691" x="1487.26" y="141.2634">type = cmns-dsg:Name</text></g><g class="entity" data-entity="o5" data-source-line="15" data-uid="ent0006" id="entity_o5"><rect fill="#F1F1F1" height="44.9766" rx="2.5" ry="2.5" style="stroke:#181818;stroke-width:0.5;" width="215.5439" x="989.7" y="183.24"/><a href="./OKUMA.123456-c2_axis.html" target="_top" title="./OKUMA.123456-c2_axis.html" xlink:actuate="onRequest" xlink:href="./OKUMA.123456-c2_axis.html" xlink:show="new" xlink:title="./OKUMA.123456-c2_axis.html" xlink:type="simple"><text fill="#0000FF" font-family="sans-serif" font-size="14" lengthAdjust="spacing" text-decoration="underline" textLength="201.5439" x="996.7" y="198.7752">data:OKUMA.123456-c2_axis</text></a><line style="stroke:#181818;stroke-width:0.5;" x1="990.7" x2="1204.2439" y1="203.7283" y2="203.7283"/><text fill="#000000" font-family="sans-serif" font-size="14" lengthAdjust="spacing" textLength="131.7832" x="995.7" y="221.2634">type = ex:Structure</text></g><g class="entity" data-entity="o6" data-source-line="18" data-uid="ent0007" id="entity_o6"><rect fill="#F1F1F1" height="44.9766" rx="2.5" ry="2.5" style="stroke:#181818;stroke-width:0.5;" width="260.9346" x="1481.69" y="183.24"/><text fill="#000000" font-family="sans-serif" font-size="14" lengthAdjust="spacing" textLength="246.9346" x="1488.69" y="198.7752">data:OKUMA.123456-c2_axis-name</text><line style="stroke:#181818;stroke-width:0.5;" x1="1482.69" x2="1741.6246" y1="203.7283" y2="203.7283"/><text fill="#000000" font-family="sans-serif" font-size="14" lengthAdjust="spacing" textLength="161.3691" x="1487.69" y="221.2634">type = cmns-dsg:Name</text></g><g class="entity" data-entity="o7" data-source-line="21" data-uid="ent0008" id="entity_o7"><rect fill="#F1F1F1" height="44.9766" rx="2.5" ry="2.5" style="stroke:#181818;stroke-width:0.5;" width="254.9287" x="970.01" y="263.24"/><text fill="#000000" font-family="sans-serif" font-size="14" lengthAdjust="spacing" textLength="238.875" x="978.0369" y="278.7752">data:OKUMA.123456-Lc2-function</text><line style="stroke:#181818;stroke-width:0.5;" x1="971.01" x2="1223.9387" y1="283.7283" y2="283.7283"/><text fill="#000000" font-family="sans-serif" font-size="14" lengthAdjust="spacing" textLength="242.9287" x="976.01" y="301.2634">type = ex:RevoluteMotionCapability</text></g><g class="entity" data-entity="o8" data-source-line="24" data-uid="ent0009" id="entity_o8"><rect fill="#F1F1F1" height="44.9766" rx="2.5" ry="2.5" style="stroke:#181818;stroke-width:0.5;" width="344.1143" x="925.41" y="343.24"/><text fill="#000000" font-family="sans-serif" font-size="14" lengthAdjust="spacing" textLength="330.1143" x="932.41" y="358.7752">data:OKUMA.123456-Lc2-rotary_velocity-actual</text><line style="stroke:#181818;stroke-width:0.5;" x1="926.41" x2="1268.5243" y1="363.7283" y2="363.7283"/><text fill="#000000" font-family="sans-serif" font-size="14" lengthAdjust="spacing" textLength="111.9658" x="931.41" y="381.2634">type = qp:Speed</text></g><g class="entity" data-entity="o9" data-source-line="27" data-uid="ent0010" id="entity_o9"><rect fill="#F1F1F1" height="44.9766" rx="2.5" ry="2.5" style="stroke:#181818;stroke-width:0.5;" width="391.5898" x="901.67" y="423.24"/><text fill="#000000" font-family="sans-serif" font-size="14" lengthAdjust="spacing" textLength="377.5898" x="908.67" y="438.7752">data:OKUMA.123456-Lc2-rotary_velocity-programmed</text><line style="stroke:#181818;stroke-width:0.5;" x1="902.67" x2="1292.2598" y1="443.7283" y2="443.7283"/><text fill="#000000" font-family="sans-serif" font-size="14" lengthAdjust="spacing" textLength="111.9658" x="907.67" y="461.2634">type = qp:Speed</text></g><g class="entity" data-entity="o10" data-source-line="30" data-uid="ent0011" id="entity_o10"><rect fill="#F1F1F1" height="44.9766" rx="2.5" ry="2.5" style="stroke:#181818;stroke-width:0.5;" width="156.9189" x="7" y="223.24"/><a href="./OKUMA.123456.html" target="_top" title="./OKUMA.123456.html" xlink:actuate="onRequest" xlink:href="./OKUMA.123456.html" xlink:show="new" xlink:title="./OKUMA.123456.html" xlink:type="simple"><text fill="#0000FF" font-family="sans-serif" font-size="14" lengthAdjust="spacing" text-decoration="underline" textLength="142.9189" x="14" y="238.7752">data:OKUMA.123456</text></a><line style="stroke:#181818;stroke-width:0.5;" x1="8" x2="162.9189" y1="243.7283" y2="243.7283"/><text fill="#000000" font-family="sans-serif" font-size="14" lengthAdjust="spacing" textLength="126.1504" x="13" y="261.2634">type = ex:Machine</text></g><!--link o1 to o2--><g class="link" data-entity-1="o1" data-entity-2="o2" data-source-line="33" data-uid="lnk12" id="link_o1_o2"><path codeLine="33" d="M590.58,222.84 C631.67,192.77 698.67,143.73 698.67,143.73 C698.67,143.73 901.67,85.73 901.67,85.73 C901.67,85.73 926.7744,79.546 963.9744,70.376" fill="none" id="o1-to-o2" style="stroke:#181818;stroke-width:1;"/><polygon fill="#181818" points="969.8,68.94,960.1042,67.2103,964.9453,70.1367,962.0189,74.9778,969.8,68.94" style="stroke:#181818;stroke-width:1;"/><text fill="#000000" font-family="sans-serif" font-size="13" lengthAdjust="spacing" textLength="126.0771" x="722.17" y="92.0284">cmns-dsg:hasName</text></g><!--link o1 to o3--><g class="link" data-entity-1="o1" data-entity-2="o3" data-source-line="35" data-uid="lnk13" id="link_o1_o3"><path codeLine="35" d="M627.35,222.78 C662.73,210.85 698.67,198.73 698.67,198.73 C698.67,198.73 865.1086,168.193 982.9186,146.573" fill="none" id="o1-to-o3" style="stroke:#181818;stroke-width:1;"/><polygon fill="#181818" points="988.82,145.49,979.2458,143.1802,983.9021,146.3925,980.6898,151.0488,988.82,145.49" style="stroke:#181818;stroke-width:1;"/><text fill="#000000" font-family="sans-serif" font-size="13" lengthAdjust="spacing" textLength="74.7246" x="748.17" y="165.3384">ex:joinedTo</text></g><!--link o3 to o4--><g class="link" data-entity-1="o3" data-entity-2="o4" data-source-line="36" data-uid="lnk14" id="link_o3_o4"><path codeLine="36" d="M1205.95,125.73 C1286.11,125.73 1389.99,125.73 1475.11,125.73" fill="none" id="o3-to-o4" style="stroke:#181818;stroke-width:1;"/><polygon fill="#181818" points="1481.11,125.73,1472.11,121.73,1476.11,125.73,1472.11,129.73,1481.11,125.73" style="stroke:#181818;stroke-width:1;"/><text fill="#000000" font-family="sans-serif" font-size="13" lengthAdjust="spacing" textLength="126.0771" x="1324.26" y="122.2984">cmns-dsg:hasName</text></g><!--link o1 to o5--><g class="link" data-entity-1="o1" data-entity-2="o5" data-source-line="37" data-uid="lnk15" id="link_o1_o5"><path codeLine="37" d="M668.97,237.56 C762.56,230.6 890.3665,221.0751 983.2565,214.1651" fill="none" id="o1-to-o5" style="stroke:#181818;stroke-width:1;"/><polygon fill="#181818" points="989.24,213.72,979.9681,210.3987,984.2538,214.0909,980.5615,218.3766,989.24,213.72" style="stroke:#181818;stroke-width:1;"/><text fill="#000000" font-family="sans-serif" font-size="13" lengthAdjust="spacing" textLength="74.7246" x="748.17" y="219.9084">ex:joinedTo</text></g><!--link o5 to o6--><g class="link" data-entity-1="o5" data-entity-2="o6" data-source-line="38" data-uid="lnk16" id="link_o5_o6"><path codeLine="38" d="M1205.63,205.73 C1285.92,205.73 1390.15,205.73 1475.42,205.73" fill="none" id="o5-to-o6" style="stroke:#181818;stroke-width:1;"/><polygon fill="#181818" points="1481.42,205.73,1472.42,201.73,1476.42,205.73,1472.42,209.73,1481.42,205.73" style="stroke:#181818;stroke-width:1;"/><text fill="#000000" font-family="sans-serif" font-size="13" lengthAdjust="spacing" textLength="126.0771" x="1324.26" y="202.2984">cmns-dsg:hasName</text></g><!--link o1 to o7--><g class="link" data-entity-1="o1" data-entity-2="o7" data-source-line="39" data-uid="lnk17" id="link_o1_o7"><path codeLine="39" d="M669.12,256.76 C686.39,258.5 698.67,259.73 698.67,259.73 C698.67,259.73 847.1028,269.4286 963.5228,277.0386" fill="none" id="o1-to-o7" style="stroke:#181818;stroke-width:1;"/><polygon fill="#181818" points="969.51,277.43,960.7901,272.8515,964.5206,277.1039,960.2683,280.8344,969.51,277.43" style="stroke:#181818;stroke-width:1;"/><text fill="#000000" font-family="sans-serif" font-size="13" lengthAdjust="spacing" textLength="107.6309" x="731.67" y="256.2984">core:hasFunction</text></g><!--link o1 to o8--><g class="link" data-entity-1="o1" data-entity-2="o8" data-source-line="40" data-uid="lnk18" id="link_o1_o8"><path codeLine="40" d="M623.27,268.68 C659.92,281.83 698.67,295.73 698.67,295.73 C698.67,295.73 844.0508,321.3101 960.0308,341.7201" fill="none" id="o1-to-o8" style="stroke:#181818;stroke-width:1;"/><polygon fill="#181818" points="965.94,342.76,957.7695,337.2607,961.0157,341.8934,956.3829,345.1396,965.94,342.76" style="stroke:#181818;stroke-width:1;"/><text fill="#000000" font-family="sans-serif" font-size="13" lengthAdjust="spacing" textLength="171.3169" x="699.67" y="292.2984">core:measuresAtSomeTime</text></g><!--link o1 to o9--><g class="link" data-entity-1="o1" data-entity-2="o9" data-source-line="41" data-uid="lnk19" id="link_o1_o9"><path codeLine="41" d="M589.88,268.55 C630.91,299.17 698.67,349.73 698.67,349.73 C698.67,349.73 901.67,405.73 901.67,405.73 C901.67,405.73 935.2825,412.6336 978.6925,421.5436" fill="none" id="o1-to-o9" style="stroke:#181818;stroke-width:1;"/><polygon fill="#181818" points="984.57,422.75,976.558,417.0221,979.6721,421.7447,974.9495,424.8588,984.57,422.75" style="stroke:#181818;stroke-width:1;"/><text fill="#000000" font-family="sans-serif" font-size="13" lengthAdjust="spacing" textLength="171.3169" x="699.67" y="346.2984">core:measuresAtSomeTime</text></g><!--link o10 to o1--><g class="link" data-entity-1="o10" data-entity-2="o1" data-source-line="42" data-uid="lnk20" id="link_o10_o1"><path codeLine="42" d="M164.21,245.73 C241.52,245.73 354.82,245.73 441.72,245.73" fill="none" id="o10-to-o1" style="stroke:#181818;stroke-width:1;"/><polygon fill="#181818" points="447.72,245.73,438.72,241.73,442.72,245.73,438.72,249.73,447.72,245.73" style="stroke:#181818;stroke-width:1;"/><text fill="#000000" font-family="sans-serif" font-size="13" lengthAdjust="spacing" textLength="222.5425" x="194.92" y="242.2984">obo:has member part at some time</text></g><!--SRC=[dPHBJ-Cm4CVl-HGZxkdIz054OYM4u09bfGti1I4qJORMOCV6dg1c4TyTvz5kAAKit9nv_EQVcR7TWyWDMbGWHKvS6WAZPLbz19Bk65Y35RCvGoOifInq7kZflJ_1plLrxyUliwl9KQyV3OQZSNYUHhqvAmaPCiRhhfkR7K07kW_F0TIL3e4MyM_DQCk9hj19wPXK02-h6Xj9OOwA6bZKWQKgTs7cPl65TtSXxuJ-7TxYGhYFnBRkfU31My49soBbmj9sdIsaetNuBQrfj5Lhwrvg7NrBQmlfQ1t_ZzRDmxahydfF6j3UshJfISk2gPdtCHgS2Ycu_1nhwpsvVIAfKvyGelylb4sH_KwHHnCdXYZxEj5OFVCtGL7MK0y-eQwFweCHhVP-zsqh9fZEgsjM4ViGXZ-hROx_TNkEhcvuOzMMAaiYb95qiZ2MdFCT_8Eog7Z7qGeoyE4UVwyzFBlKWJVKzk56U9iqMayQDVRnjgIzZh3JTkehv_xIgGYTtq1tn8bMT2awW8EjCRjDKDy7wQckYe0YDIKB_iLYG0RdWu5zz2i0]--></g></svg>