<svg xmlns="http://www.w3.org/2000/svg" xmlns:xlink="http://www.w3.org/1999/xlink" contentStyleType="text/css" data-diagram-type="CLASS" height="1016px" preserveAspectRatio="none" style="width:1978px;height:1016px;background:#FFFFFF;" version="1.1" viewBox="0 0 1978 1016" width="1978px" zoomAndPan="magnify"><title>OKUMA.123456-Lz4</title><defs/><g><text fill="#000000" font-family="sans-serif" font-size="14" font-weight="bold" lengthAdjust="spacing" textLength="148.251" x="908.1793" y="23.5352">OKUMA.123456-Lz4</text><g class="entity" data-entity="o1" data-source-line="4" data-uid="ent0002" id="entity_o1"><rect fill="#F1F1F1" height="44.9766" rx="2.5" ry="2.5" style="stroke:#181818;stroke-width:0.5;" width="218.7529" x="447.92" y="758.7283"/><a href="./OKUMA.123456-Lz4.html" target="_top" title="./OKUMA.123456-Lz4.html" xlink:actuate="onRequest" xlink:href="./OKUMA.123456-Lz4.html" xlink:show="new" xlink:title="./OKUMA.123456-Lz4.html" xlink:type="simple"><text fill="#0000FF" font-family="sans-serif" font-size="14" lengthAdjust="spacing" text-decoration="underline" textLength="175.3623" x="469.6153" y="774.2634">data:OKUMA.123456-Lz4</text></a><line style="stroke:#181818;stroke-width:0.5;" x1="448.92" x2="665.6729" y1="779.2166" y2="779.2166"/><text fill="#000000" font-family="sans-serif" font-size="14" lengthAdjust="spacing" textLength="206.7529" x="453.92" y="796.7517">type = ex:LinearMotionSystem</text></g><g class="entity" data-entity="o2" data-source-line="7" data-uid="ent0003" id="entity_o2"><rect fill="#F1F1F1" height="61.4648" rx="2.5" ry="2.5" style="stroke:#181818;stroke-width:0.5;" width="263.4463" x="918.62" y="340.4883"/><text fill="#000000" font-family="sans-serif" font-size="14" lengthAdjust="spacing" textLength="220.7529" x="939.9667" y="356.0234">data:OKUMA.123456-Lz4-name</text><line style="stroke:#181818;stroke-width:0.5;" x1="919.62" x2="1181.0663" y1="360.9766" y2="360.9766"/><text fill="#000000" font-family="sans-serif" font-size="14" lengthAdjust="spacing" textLength="161.3691" x="924.62" y="378.5117">type = cmns-dsg:Name</text><text fill="#000000" font-family="sans-serif" font-size="14" lengthAdjust="spacing" textLength="251.4463" x="924.62" y="395">core:hasSimpleExpressionValue = Z4</text></g><g class="entity" data-entity="o3" data-source-line="10" data-uid="ent0004" id="entity_o3"><rect fill="#F1F1F1" height="44.9766" rx="2.5" ry="2.5" style="stroke:#181818;stroke-width:0.5;" width="228.3818" x="936.15" y="436.7283"/><text fill="#000000" font-family="sans-serif" font-size="14" lengthAdjust="spacing" textLength="214.3818" x="943.15" y="452.2634">data:OKUMA.123456-Lz4-spec</text><line style="stroke:#181818;stroke-width:0.5;" x1="937.15" x2="1163.5318" y1="457.2166" y2="457.2166"/><text fill="#000000" font-family="sans-serif" font-size="14" lengthAdjust="spacing" textLength="215.8037" x="942.15" y="474.7517">type = core:DesignSpecification</text></g><g class="entity" data-entity="o4" data-source-line="13" data-uid="ent0005" id="entity_o4"><rect fill="#F1F1F1" height="61.4648" rx="2.5" ry="2.5" style="stroke:#181818;stroke-width:0.5;" width="355.7627" x="1552.43" y="44.4883"/><text fill="#000000" font-family="sans-serif" font-size="14" lengthAdjust="spacing" textLength="341.7627" x="1559.43" y="60.0234">data:OKUMA.123456-Lz4-spec-LENGTH-Nominal</text><line style="stroke:#181818;stroke-width:0.5;" x1="1553.43" x2="1907.1927" y1="64.9766" y2="64.9766"/><text fill="#000000" font-family="sans-serif" font-size="14" lengthAdjust="spacing" textLength="194.4209" x="1558.43" y="82.5117">type = core:ValueExpression</text><text fill="#000000" font-family="sans-serif" font-size="14" lengthAdjust="spacing" textLength="273.9707" x="1558.43" y="99">core:hasSimpleExpressionValue = 650.0</text></g><g class="entity" data-entity="o5" data-source-line="16" data-uid="ent0006" id="entity_o5"><rect fill="#F1F1F1" height="61.4648" rx="2.5" ry="2.5" style="stroke:#181818;stroke-width:0.5;" width="411.2842" x="1524.66" y="140.4883"/><text fill="#000000" font-family="sans-serif" font-size="14" lengthAdjust="spacing" textLength="397.2842" x="1531.66" y="156.0234">data:OKUMA.123456-Lz4-spec-LINEAR_FORCE-Maximum</text><line style="stroke:#181818;stroke-width:0.5;" x1="1525.66" x2="1934.9442" y1="160.9766" y2="160.9766"/><text fill="#000000" font-family="sans-serif" font-size="14" lengthAdjust="spacing" textLength="194.4209" x="1530.66" y="178.5117">type = core:ValueExpression</text><text fill="#000000" font-family="sans-serif" font-size="14" lengthAdjust="spacing" textLength="282.8232" x="1530.66" y="195">core:hasSimpleExpressionValue = 5200.0</text></g><g class="entity" data-entity="o6" data-source-line="19" data-uid="ent0007" id="entity_o6"><rect fill="#F1F1F1" height="61.4648" rx="2.5" ry="2.5" style="stroke:#181818;stroke-width:0.5;" width="407.7021" x="1526.46" y="236.4883"/><text fill="#000000" font-family="sans-serif" font-size="14" lengthAdjust="spacing" textLength="393.7021" x="1533.46" y="252.0234">data:OKUMA.123456-Lz4-spec-LINEAR_FORCE-Minimum</text><line style="stroke:#181818;stroke-width:0.5;" x1="1527.46" x2="1933.1621" y1="256.9766" y2="256.9766"/><text fill="#000000" font-family="sans-serif" font-size="14" lengthAdjust="spacing" textLength="194.4209" x="1532.46" y="274.5117">type = core:ValueExpression</text><text fill="#000000" font-family="sans-serif" font-size="14" lengthAdjust="spacing" textLength="256.2656" x="1532.46" y="291">core:hasSimpleExpressionValue = 0.0</text></g><g class="entity" data-entity="o7" data-source-line="22" data-uid="ent0008" id="entity_o7"><rect fill="#F1F1F1" height="61.4648" rx="2.5" ry="2.5" style="stroke:#181818;stroke-width:0.5;" width="427.082" x="1516.77" y="332.4883"/><text fill="#000000" font-family="sans-serif" font-size="14" lengthAdjust="spacing" textLength="413.082" x="1523.77" y="348.0234">data:OKUMA.123456-Lz4-spec-VELOCITY-RAPID-Maximum</text><line style="stroke:#181818;stroke-width:0.5;" x1="1517.77" x2="1942.852" y1="352.9766" y2="352.9766"/><text fill="#000000" font-family="sans-serif" font-size="14" lengthAdjust="spacing" textLength="194.4209" x="1522.77" y="370.5117">type = core:ValueExpression</text><text fill="#000000" font-family="sans-serif" font-size="14" lengthAdjust="spacing" textLength="282.8232" x="1522.77" y="387">core:hasSimpleExpressionValue = 7000.0</text></g><g class="entity" data-entity="o8" data-source-line="25" data-uid="ent0009" id="entity_o8"><rect fill="#F1F1F1" height="61.4648" rx="2.5" ry="2.5" style="stroke:#181818;stroke-width:0.5;" width="423.5" x="1518.56" y="428.4883"/><text fill="#000000" font-family="sans-serif" font-size="14" lengthAdjust="spacing" textLength="409.5" x="1525.56" y="444.0234">data:OKUMA.123456-Lz4-spec-VELOCITY-RAPID-Minimum</text><line style="stroke:#181818;stroke-width:0.5;" x1="1519.56" x2="1941.06" y1="448.9766" y2="448.9766"/><text fill="#000000" font-family="sans-serif" font-size="14" lengthAdjust="spacing" textLength="194.4209" x="1524.56" y="466.5117">type = core:ValueExpression</text><text fill="#000000" font-family="sans-serif" font-size="14" lengthAdjust="spacing" textLength="256.2656" x="1524.56" y="483">core:hasSimpleExpressionValue = 1.0</text></g><g class="entity" data-entity="o9" data-source-line="28" data-uid="ent0010" id="entity_o9"><rect fill="#F1F1F1" height="61.4648" rx="2.5" ry="2.5" style="stroke:#181818;stroke-width:0.5;" width="484.5996" x="1488.01" y="524.4883"/><text fill="#000000" font-family="sans-serif" font-size="14" lengthAdjust="spacing" textLength="470.5996" x="1495.01" y="540.0234">data:OKUMA.123456-Lz4-spec-VELOCITY-PROGRAMMED-Maximum</text><line style="stroke:#181818;stroke-width:0.5;" x1="1489.01" x2="1971.6096" y1="544.9766" y2="544.9766"/><text fill="#000000" font-family="sans-serif" font-size="14" lengthAdjust="spacing" textLength="194.4209" x="1494.01" y="562.5117">type = core:ValueExpression</text><text fill="#000000" font-family="sans-serif" font-size="14" lengthAdjust="spacing" textLength="282.8232" x="1494.01" y="579">core:hasSimpleExpressionValue = 7000.0</text></g><g class="entity" data-entity="o10" data-source-line="31" data-uid="ent0011" id="entity_o10"><rect fill="#F1F1F1" height="61.4648" rx="2.5" ry="2.5" style="stroke:#181818;stroke-width:0.5;" width="481.0176" x="1489.8" y="620.4883"/><text fill="#000000" font-family="sans-serif" font-size="14" lengthAdjust="spacing" textLength="467.0176" x="1496.8" y="636.0234">data:OKUMA.123456-Lz4-spec-VELOCITY-PROGRAMMED-Minimum</text><line style="stroke:#181818;stroke-width:0.5;" x1="1490.8" x2="1969.8176" y1="640.9766" y2="640.9766"/><text fill="#000000" font-family="sans-serif" font-size="14" lengthAdjust="spacing" textLength="194.4209" x="1495.8" y="658.5117">type = core:ValueExpression</text><text fill="#000000" font-family="sans-serif" font-size="14" lengthAdjust="spacing" textLength="256.2656" x="1495.8" y="675">core:hasSimpleExpressionValue = 1.0</text></g><g class="entity" data-entity="o11" data-source-line="34" data-uid="ent0012" id="entity_o11"><rect fill="#F1F1F1" height="44.9766" rx="2.5" ry="2.5" style="stroke:#181818;stroke-width:0.5;" width="230.6787" x="935" y="724.7283"/><a href="./OKUMA.123456-enclosure.html" target="_top" title="./OKUMA.123456-enclosure.html" xlink:actuate="onRequest" xlink:href="./OKUMA.123456-enclosure.html" xlink:show="new" xlink:title="./OKUMA.123456-enclosure.html" xlink:type="simple"><text fill="#0000FF" font-family="sans-serif" font-size="14" lengthAdjust="spacing" text-decoration="underline" textLength="216.6787" x="942" y="740.2634">data:OKUMA.123456-enclosure</text></a><line style="stroke:#181818;stroke-width:0.5;" x1="936" x2="1164.6787" y1="745.2166" y2="745.2166"/><text fill="#000000" font-family="sans-serif" font-size="14" lengthAdjust="spacing" textLength="131.7832" x="941" y="762.7517">type = ex:Structure</text></g><g class="entity" data-entity="o12" data-source-line="37" data-uid="ent0013" id="entity_o12"><rect fill="#F1F1F1" height="61.4648" rx="2.5" ry="2.5" style="stroke:#181818;stroke-width:0.5;" width="311.79" x="1574.41" y="716.4883"/><text fill="#000000" font-family="sans-serif" font-size="14" lengthAdjust="spacing" textLength="262.0693" x="1599.2704" y="732.0234">data:OKUMA.123456-enclosure-name</text><line style="stroke:#181818;stroke-width:0.5;" x1="1575.41" x2="1885.2" y1="736.9766" y2="736.9766"/><text fill="#000000" font-family="sans-serif" font-size="14" lengthAdjust="spacing" textLength="161.3691" x="1580.41" y="754.5117">type = cmns-dsg:Name</text><text fill="#000000" font-family="sans-serif" font-size="14" lengthAdjust="spacing" textLength="299.79" x="1580.41" y="771">core:hasSimpleExpressionValue = enclosure</text></g><g class="entity" data-entity="o13" data-source-line="40" data-uid="ent0014" id="entity_o13"><rect fill="#F1F1F1" height="44.9766" rx="2.5" ry="2.5" style="stroke:#181818;stroke-width:0.5;" width="322.4102" x="1569.1" y="812.7283"/><text fill="#000000" font-family="sans-serif" font-size="14" lengthAdjust="spacing" textLength="308.4102" x="1576.1" y="828.2634">data:OKUMA.123456-enclosure-temperature</text><line style="stroke:#181818;stroke-width:0.5;" x1="1570.1" x2="1890.5102" y1="833.2166" y2="833.2166"/><text fill="#000000" font-family="sans-serif" font-size="14" lengthAdjust="spacing" textLength="158.4502" x="1575.1" y="850.7517">type = qp:Temperature</text></g><g class="entity" data-entity="o14" data-source-line="43" data-uid="ent0015" id="entity_o14"><rect fill="#F1F1F1" height="44.9766" rx="2.5" ry="2.5" style="stroke:#181818;stroke-width:0.5;" width="216.3984" x="942.14" y="804.7283"/><a href="./OKUMA.123456-z4_axis.html" target="_top" title="./OKUMA.123456-z4_axis.html" xlink:actuate="onRequest" xlink:href="./OKUMA.123456-z4_axis.html" xlink:show="new" xlink:title="./OKUMA.123456-z4_axis.html" xlink:type="simple"><text fill="#0000FF" font-family="sans-serif" font-size="14" lengthAdjust="spacing" text-decoration="underline" textLength="202.3984" x="949.14" y="820.2634">data:OKUMA.123456-z4_axis</text></a><line style="stroke:#181818;stroke-width:0.5;" x1="943.14" x2="1157.5384" y1="825.2166" y2="825.2166"/><text fill="#000000" font-family="sans-serif" font-size="14" lengthAdjust="spacing" textLength="131.7832" x="948.14" y="842.7517">type = ex:Structure</text></g><g class="entity" data-entity="o15" data-source-line="46" data-uid="ent0016" id="entity_o15"><rect fill="#F1F1F1" height="61.4648" rx="2.5" ry="2.5" style="stroke:#181818;stroke-width:0.5;" width="297.5098" x="1581.55" y="892.4883"/><text fill="#000000" font-family="sans-serif" font-size="14" lengthAdjust="spacing" textLength="247.7891" x="1606.4104" y="908.0234">data:OKUMA.123456-z4_axis-name</text><line style="stroke:#181818;stroke-width:0.5;" x1="1582.55" x2="1878.0598" y1="912.9766" y2="912.9766"/><text fill="#000000" font-family="sans-serif" font-size="14" lengthAdjust="spacing" textLength="161.3691" x="1587.55" y="930.5117">type = cmns-dsg:Name</text><text fill="#000000" font-family="sans-serif" font-size="14" lengthAdjust="spacing" textLength="285.5098" x="1587.55" y="947">core:hasSimpleExpressionValue = z4_axis</text></g><g class="entity" data-entity="o16" data-source-line="49" data-uid="ent0017" id="entity_o16"><rect fill="#F1F1F1" height="44.9766" rx="2.5" ry="2.5" style="stroke:#181818;stroke-width:0.5;" width="258.5654" x="921.06" y="884.7283"/><text fill="#000000" font-family="sans-serif" font-size="14" lengthAdjust="spacing" textLength="239.7295" x="930.478" y="900.2634">data:OKUMA.123456-Lz4-function</text><line style="stroke:#181818;stroke-width:0.5;" x1="922.06" x2="1178.6254" y1="905.2166" y2="905.2166"/><text fill="#000000" font-family="sans-serif" font-size="14" lengthAdjust="spacing" textLength="246.5654" x="927.06" y="922.7517">type = ex:PrismaticMotionCapability</text></g><g class="entity" data-entity="o17" data-source-line="52" data-uid="ent0018" id="entity_o17"><rect fill="#F1F1F1" height="44.9766" rx="2.5" ry="2.5" style="stroke:#181818;stroke-width:0.5;" width="301.335" x="899.67" y="964.7283"/><text fill="#000000" font-family="sans-serif" font-size="14" lengthAdjust="spacing" textLength="287.335" x="906.67" y="980.2634">data:OKUMA.123456-Lz4-position-actual</text><line style="stroke:#181818;stroke-width:0.5;" x1="900.67" x2="1200.005" y1="985.2166" y2="985.2166"/><text fill="#000000" font-family="sans-serif" font-size="14" lengthAdjust="spacing" textLength="163.2285" x="905.67" y="1002.7517">type = qp:Displacement</text></g><g class="entity" data-entity="o18" data-source-line="55" data-uid="ent0019" id="entity_o18"><rect fill="#F1F1F1" height="44.9766" rx="2.5" ry="2.5" style="stroke:#181818;stroke-width:0.5;" width="156.9189" x="7" y="758.7283"/><a href="./OKUMA.123456.html" target="_top" title="./OKUMA.123456.html" xlink:actuate="onRequest" xlink:href="./OKUMA.123456.html" xlink:show="new" xlink:title="./OKUMA.123456.html" xlink:type="simple"><text fill="#0000FF" font-family="sans-serif" font-size="14" lengthAdjust="spacing" text-decoration="underline" textLength="142.9189" x="14" y="774.2634">data:OKUMA.123456</text></a><line style="stroke:#181818;stroke-width:0.5;" x1="8" x2="162.9189" y1="779.2166" y2="779.2166"/><text fill="#000000" font-family="sans-serif" font-size="14" lengthAdjust="spacing" textLength="126.1504" x="13" y="796.7517">type = ex:Machine</text></g><!--link o1 to o2--><g class="link" data-entity-1="o1" data-entity-2="o2" data-source-line="58" data-uid="lnk20" id="link_o1_o2"><path codeLine="58" d="M572.33,758.5083 C607.5,701.5583 696.67,557.2183 696.67,557.2183 C696.67,557.2183 899.67,419.2183 899.67,419.2183 C899.67,419.2183 917.7167,413.4308 946.3067,404.2608" fill="none" id="o1-to-o2" style="stroke:#181818;stroke-width:1;"/><polygon fill="#181818" points="952.02,402.4283,942.2284,401.3682,947.2589,403.9554,944.6717,408.9859,952.02,402.4283" style="stroke:#181818;stroke-width:1;"/><text fill="#000000" font-family="sans-serif" font-size="13" lengthAdjust="spacing" textLength="126.0771" x="720.17" y="438.9266">cmns-dsg:hasName</text></g><!--link o1 to o3--><g class="link" data-entity-1="o1" data-entity-2="o3" data-source-line="60" data-uid="lnk21" id="link_o1_o3"><path codeLine="60" d="M593.22,758.3183 C683.6,699.0483 919.3925,544.4284 1009.5825,485.2884" fill="none" id="o1-to-o3" style="stroke:#181818;stroke-width:1;"/><polygon fill="#181818" points="1014.6,481.9983,1004.8804,483.5884,1010.4188,484.74,1009.2672,490.2784,1014.6,481.9983" style="stroke:#181818;stroke-width:1;"/><text fill="#000000" font-family="sans-serif" font-size="13" lengthAdjust="spacing" textLength="112.3027" x="727.17" y="578.4766">core:prescribedBy</text></g><!--link o3 to o4--><g class="link" data-entity-1="o3" data-entity-2="o4" data-source-line="61" data-uid="lnk22" id="link_o3_o4"><path codeLine="61" d="M1137.1,436.2983 C1170.54,427.3583 1201.01,419.2183 1201.01,419.2183 C1201.01,419.2183 1231.01,204.2183 1231.01,204.2183 C1231.01,204.2183 1488.01,123.2183 1488.01,123.2183 C1488.01,123.2183 1520.4253,116.7691 1566.5153,107.5991" fill="none" id="o3-to-o4" style="stroke:#181818;stroke-width:1;"/><polygon fill="#181818" points="1572.4,106.4283,1562.7925,104.2614,1567.4961,107.404,1564.3535,112.1076,1572.4,106.4283" style="stroke:#181818;stroke-width:1;"/><text fill="#000000" font-family="sans-serif" font-size="13" lengthAdjust="spacing" textLength="225.0688" x="1232.01" y="129.8266">core:hasValueExpressionAtAllTimes</text></g><!--link o3 to o5--><g class="link" data-entity-1="o3" data-entity-2="o5" data-source-line="63" data-uid="lnk23" id="link_o3_o5"><path codeLine="63" d="M1137.1,436.2983 C1170.54,427.3583 1201.01,419.2183 1201.01,419.2183 C1201.01,419.2183 1231.01,298.2183 1231.01,298.2183 C1231.01,298.2183 1488.01,219.2183 1488.01,219.2183 C1488.01,219.2183 1520.4253,212.7691 1566.5153,203.5991" fill="none" id="o3-to-o5" style="stroke:#181818;stroke-width:1;"/><polygon fill="#181818" points="1572.4,202.4283,1562.7925,200.2614,1567.4961,203.404,1564.3535,208.1076,1572.4,202.4283" style="stroke:#181818;stroke-width:1;"/><text fill="#000000" font-family="sans-serif" font-size="13" lengthAdjust="spacing" textLength="225.0688" x="1232.01" y="225.5766">core:hasValueExpressionAtAllTimes</text></g><!--link o3 to o6--><g class="link" data-entity-1="o3" data-entity-2="o6" data-source-line="65" data-uid="lnk24" id="link_o3_o6"><path codeLine="65" d="M1137.1,436.2983 C1170.54,427.3583 1201.01,419.2183 1201.01,419.2183 C1201.01,419.2183 1231.01,377.2183 1231.01,377.2183 C1231.01,377.2183 1488.01,315.2183 1488.01,315.2183 C1488.01,315.2183 1520.4253,308.7691 1566.5153,299.5991" fill="none" id="o3-to-o6" style="stroke:#181818;stroke-width:1;"/><polygon fill="#181818" points="1572.4,298.4283,1562.7925,296.2614,1567.4961,299.404,1564.3535,304.1076,1572.4,298.4283" style="stroke:#181818;stroke-width:1;"/><text fill="#000000" font-family="sans-serif" font-size="13" lengthAdjust="spacing" textLength="225.0688" x="1232.01" y="319.4666">core:hasValueExpressionAtAllTimes</text></g><!--link o3 to o7--><g class="link" data-entity-1="o3" data-entity-2="o7" data-source-line="67" data-uid="lnk25" id="link_o3_o7"><path codeLine="67" d="M1164.82,443.1483 C1260.47,429.6083 1394.0193,410.6994 1510.4093,394.2194" fill="none" id="o3-to-o7" style="stroke:#181818;stroke-width:1;"/><polygon fill="#181818" points="1516.35,393.3783,1506.8781,390.6795,1511.3994,394.0793,1507.9997,398.6005,1516.35,393.3783" style="stroke:#181818;stroke-width:1;"/><text fill="#000000" font-family="sans-serif" font-size="13" lengthAdjust="spacing" textLength="225.0688" x="1232.01" y="399.1866">core:hasValueExpressionAtAllTimes</text></g><!--link o3 to o8--><g class="link" data-entity-1="o3" data-entity-2="o8" data-source-line="69" data-uid="lnk26" id="link_o3_o8"><path codeLine="69" d="M1164.82,459.2183 C1260.94,459.2183 1395.34,459.2183 1512.06,459.2183" fill="none" id="o3-to-o8" style="stroke:#181818;stroke-width:1;"/><polygon fill="#181818" points="1518.06,459.2183,1509.06,455.2183,1513.06,459.2183,1509.06,463.2183,1518.06,459.2183" style="stroke:#181818;stroke-width:1;"/><text fill="#000000" font-family="sans-serif" font-size="13" lengthAdjust="spacing" textLength="225.0688" x="1232.01" y="455.7866">core:hasValueExpressionAtAllTimes</text></g><!--link o3 to o9--><g class="link" data-entity-1="o3" data-entity-2="o9" data-source-line="71" data-uid="lnk27" id="link_o3_o9"><path codeLine="71" d="M1164.82,475.2883 C1258.39,488.5383 1387.9993,506.8869 1502.8093,523.1469" fill="none" id="o3-to-o9" style="stroke:#181818;stroke-width:1;"/><polygon fill="#181818" points="1508.75,523.9883,1500.3998,518.7658,1503.7994,523.2872,1499.278,526.6867,1508.75,523.9883" style="stroke:#181818;stroke-width:1;"/><text fill="#000000" font-family="sans-serif" font-size="13" lengthAdjust="spacing" textLength="225.0688" x="1232.01" y="481.5366">core:hasValueExpressionAtAllTimes</text></g><!--link o3 to o10--><g class="link" data-entity-1="o3" data-entity-2="o10" data-source-line="73" data-uid="lnk28" id="link_o3_o10"><path codeLine="73" d="M1101.39,482.0583 C1154.55,506.3283 1231.01,541.2183 1231.01,541.2183 C1231.01,541.2183 1488.01,603.2183 1488.01,603.2183 C1488.01,603.2183 1520.4253,609.6675 1566.5153,618.8375" fill="none" id="o3-to-o10" style="stroke:#181818;stroke-width:1;"/><polygon fill="#181818" points="1572.4,620.0083,1564.3535,614.329,1567.4961,619.0326,1562.7925,622.1752,1572.4,620.0083" style="stroke:#181818;stroke-width:1;"/><text fill="#000000" font-family="sans-serif" font-size="13" lengthAdjust="spacing" textLength="225.0688" x="1232.01" y="537.7866">core:hasValueExpressionAtAllTimes</text></g><!--link o1 to o11--><g class="link" data-entity-1="o1" data-entity-2="o11" data-source-line="75" data-uid="lnk29" id="link_o1_o11"><path codeLine="75" d="M666.97,773.6983 C746.35,768.1983 847.7843,761.1725 928.5643,755.5825" fill="none" id="o1-to-o11" style="stroke:#181818;stroke-width:1;"/><polygon fill="#181818" points="934.55,755.1683,925.2953,751.7991,929.5619,755.5135,925.8476,759.7801,934.55,755.1683" style="stroke:#181818;stroke-width:1;"/><text fill="#000000" font-family="sans-serif" font-size="13" lengthAdjust="spacing" textLength="74.7246" x="746.17" y="756.7466">ex:joinedTo</text></g><!--link o11 to o12--><g class="link" data-entity-1="o11" data-entity-2="o12" data-source-line="76" data-uid="lnk30" id="link_o11_o12"><path codeLine="76" d="M1165.96,747.2183 C1278.11,747.2183 1443.7,747.2183 1568.05,747.2183" fill="none" id="o11-to-o12" style="stroke:#181818;stroke-width:1;"/><polygon fill="#181818" points="1574.05,747.2183,1565.05,743.2183,1569.05,747.2183,1565.05,751.2183,1574.05,747.2183" style="stroke:#181818;stroke-width:1;"/><text fill="#000000" font-family="sans-serif" font-size="13" lengthAdjust="spacing" textLength="126.0771" x="1281.51" y="743.7866">cmns-dsg:hasName</text></g><!--link o11 to o13--><g class="link" data-entity-1="o11" data-entity-2="o13" data-source-line="78" data-uid="lnk31" id="link_o11_o13"><path codeLine="78" d="M1166.14,763.1983 C1201.35,768.0983 1231.01,772.2183 1231.01,772.2183 C1231.01,772.2183 1417.2774,795.7656 1562.9474,814.1856" fill="none" id="o11-to-o13" style="stroke:#181818;stroke-width:1;"/><polygon fill="#181818" points="1568.9,814.9383,1560.4729,809.8408,1563.9395,814.311,1559.4693,817.7776,1568.9,814.9383" style="stroke:#181818;stroke-width:1;"/><text fill="#000000" font-family="sans-serif" font-size="13" lengthAdjust="spacing" textLength="171.3169" x="1259.01" y="768.7866">core:measuresAtSomeTime</text></g><!--link o1 to o14--><g class="link" data-entity-1="o1" data-entity-2="o14" data-source-line="79" data-uid="lnk32" id="link_o1_o14"><path codeLine="79" d="M666.99,792.9983 C684.32,794.8783 696.67,796.2183 696.67,796.2183 C696.67,796.2183 832.353,808.1429 936.113,817.2629" fill="none" id="o1-to-o14" style="stroke:#181818;stroke-width:1;"/><polygon fill="#181818" points="942.09,817.7883,933.4748,813.0156,937.1092,817.3505,932.7743,820.9849,942.09,817.7883" style="stroke:#181818;stroke-width:1;"/><text fill="#000000" font-family="sans-serif" font-size="13" lengthAdjust="spacing" textLength="74.7246" x="746.17" y="792.7866">ex:joinedTo</text></g><!--link o14 to o15--><g class="link" data-entity-1="o14" data-entity-2="o15" data-source-line="80" data-uid="lnk33" id="link_o14_o15"><path codeLine="80" d="M1158.77,842.4283 C1272.74,858.5683 1447.6693,883.3367 1575.1593,901.3967" fill="none" id="o14-to-o15" style="stroke:#181818;stroke-width:1;"/><polygon fill="#181818" points="1581.1,902.2383,1572.75,897.0155,1576.1494,901.537,1571.6279,904.9364,1581.1,902.2383" style="stroke:#181818;stroke-width:1;"/><text fill="#000000" font-family="sans-serif" font-size="13" lengthAdjust="spacing" textLength="126.0771" x="1281.51" y="849.5366">cmns-dsg:hasName</text></g><!--link o1 to o16--><g class="link" data-entity-1="o1" data-entity-2="o16" data-source-line="82" data-uid="lnk34" id="link_o1_o16"><path codeLine="82" d="M615.78,804.0683 C653.8,819.1783 696.67,836.2183 696.67,836.2183 C696.67,836.2183 826.4081,862.3338 929.4481,883.0838" fill="none" id="o1-to-o16" style="stroke:#181818;stroke-width:1;"/><polygon fill="#181818" points="935.33,884.2683,927.2968,878.5703,930.4284,883.2812,925.7175,886.4128,935.33,884.2683" style="stroke:#181818;stroke-width:1;"/><text fill="#000000" font-family="sans-serif" font-size="13" lengthAdjust="spacing" textLength="107.6309" x="729.67" y="832.7866">core:hasFunction</text></g><!--link o1 to o17--><g class="link" data-entity-1="o1" data-entity-2="o17" data-source-line="83" data-uid="lnk35" id="link_o1_o17"><path codeLine="83" d="M586.3,804.0883 C626.73,837.1083 696.67,894.2183 696.67,894.2183 C696.67,894.2183 852.3882,935.2888 956.8182,962.8188" fill="none" id="o1-to-o17" style="stroke:#181818;stroke-width:1;"/><polygon fill="#181818" points="962.62,964.3483,954.937,958.1862,957.7852,963.0737,952.8977,965.9219,962.62,964.3483" style="stroke:#181818;stroke-width:1;"/><text fill="#000000" font-family="sans-serif" font-size="13" lengthAdjust="spacing" textLength="171.3169" x="697.67" y="890.7866">core:measuresAtSomeTime</text></g><!--link o18 to o1--><g class="link" data-entity-1="o18" data-entity-2="o1" data-source-line="84" data-uid="lnk36" id="link_o18_o1"><path codeLine="84" d="M164.31,781.2183 C241.63,781.2183 354.85,781.2183 441.52,781.2183" fill="none" id="o18-to-o1" style="stroke:#181818;stroke-width:1;"/><polygon fill="#181818" points="447.52,781.2183,438.52,777.2183,442.52,781.2183,438.52,785.2183,447.52,781.2183" style="stroke:#181818;stroke-width:1;"/><text fill="#000000" font-family="sans-serif" font-size="13" lengthAdjust="spacing" textLength="222.5425" x="194.92" y="777.7866">obo:has member part at some time</text></g><!--SRC=[jPPjRzem4CVVvrDOVHz6Ii93f4tA2ktGU1AmIbjLLIOOS6V7MMmawBJlFfkaYKE1kbLvYU_Vt__kUdV0V-CeXWcaWE08YMsCGCp8Ldsm25e881X8y78bm1mdA1IOHPR0WY0m_FwZ7rISovhhrUtUasknsQCKW8kxkygd_M1b9IW1SoYWln-wlxy0a0FcWByMs2Nm6Q2DtvCPmAJFbEDaomMY5lYNUnmasH6aA8LTQh2GHjoUywK_aE7N8Jn6OGgfwH2M8B-DE5v64od02np2NJECU7QlCxYPVhC7ZE88aXJlxkDl8LcZpYPE4ETlG7S7dM3yS3qSNtNiFjnWkgQfWNSE0nmL1lMFCRZjz8PNtUbFUnoCkkro3OtpMEXLD3_OOZGUteo3Vh-pLqhhZ3vwFKxr3KOlbXL58M5ydQ1ZAviByiNTszo9IDQXa8BJ1UKSRMsTT-vjmP9t8aO9LFOPKj_YFx4_BGGd-_3aFiX_7Z_MXIoSzy1zLmyoYju1x_sNQx6ETWSw8zNBAOqIpAcyMM5wKwzW36UOOB5z7HmpZjNVs53Mz7o-d4QviMtCOm93H54aJdNsI4VpJZRBQVTXk59VHehe0Dl-eewxNxHc1VckE-chcdRvCi4q9jh4xnP0ydwvEQJsB5UQCC4pDF-wjUJpBkfgiBtj2KH0o1HJnAsIx9XdtQjMgZdOCmDx1c3liggJwsRakW5PnpRCi0q3RADQIhXfHcuQa1qDspB3jjwUi3oiHkYIxcJAsIpA2-ghMNzaSjBdKsQfbpHoUDOTas7FZwA6owUU8gX2F10JHf5AlCZ6VP6DcqMymzcOJ6jswWeNVH2liyjLH1id4srcAYbYCwO8W28wGmcGlsK5W09mAGP2gly3]--></g></svg>