<svg xmlns="http://www.w3.org/2000/svg" xmlns:xlink="http://www.w3.org/1999/xlink" contentStyleType="text/css" data-diagram-type="CLASS" height="816px" preserveAspectRatio="none" style="width:1988px;height:816px;background:#FFFFFF;" version="1.1" viewBox="0 0 1988 816" width="1988px" zoomAndPan="magnify"><title>OKUMA.123456-LYI1</title><defs/><g><text fill="#000000" font-family="sans-serif" font-size="14" font-weight="bold" lengthAdjust="spacing" textLength="154.2324" x="909.9188" y="23.5352">OKUMA.123456-LYI1</text><g class="entity" data-entity="o1" data-source-line="4" data-uid="ent0002" id="entity_o1"><rect fill="#F1F1F1" height="44.9766" rx="2.5" ry="2.5" style="stroke:#181818;stroke-width:0.5;" width="218.7529" x="447.92" y="558.4883"/><a href="./OKUMA.123456-LYI1.html" target="_top" title="./OKUMA.123456-LYI1.html" xlink:actuate="onRequest" xlink:href="./OKUMA.123456-LYI1.html" xlink:show="new" xlink:title="./OKUMA.123456-LYI1.html" xlink:type="simple"><text fill="#0000FF" font-family="sans-serif" font-size="14" lengthAdjust="spacing" text-decoration="underline" textLength="180.0928" x="467.2501" y="574.0234">data:OKUMA.123456-LYI1</text></a><line style="stroke:#181818;stroke-width:0.5;" x1="448.92" x2="665.6729" y1="578.9766" y2="578.9766"/><text fill="#000000" font-family="sans-serif" font-size="14" lengthAdjust="spacing" textLength="206.7529" x="453.92" y="596.5117">type = ex:LinearMotionSystem</text></g><g class="entity" data-entity="o2" data-source-line="7" data-uid="ent0003" id="entity_o2"><rect fill="#F1F1F1" height="61.4648" rx="2.5" ry="2.5" style="stroke:#181818;stroke-width:0.5;" width="254.8535" x="925.28" y="268.2483"/><text fill="#000000" font-family="sans-serif" font-size="14" lengthAdjust="spacing" textLength="225.4834" x="939.9651" y="283.7834">data:OKUMA.123456-LYI1-name</text><line style="stroke:#181818;stroke-width:0.5;" x1="926.28" x2="1179.1335" y1="288.7366" y2="288.7366"/><text fill="#000000" font-family="sans-serif" font-size="14" lengthAdjust="spacing" textLength="161.3691" x="931.28" y="306.2717">type = cmns-dsg:Name</text><text fill="#000000" font-family="sans-serif" font-size="14" lengthAdjust="spacing" textLength="242.8535" x="931.28" y="322.76">core:hasSimpleExpressionValue = Y</text></g><g class="entity" data-entity="o3" data-source-line="10" data-uid="ent0004" id="entity_o3"><rect fill="#F1F1F1" height="44.9766" rx="2.5" ry="2.5" style="stroke:#181818;stroke-width:0.5;" width="233.1123" x="936.15" y="364.4883"/><text fill="#000000" font-family="sans-serif" font-size="14" lengthAdjust="spacing" textLength="219.1123" x="943.15" y="380.0234">data:OKUMA.123456-LYI1-spec</text><line style="stroke:#181818;stroke-width:0.5;" x1="937.15" x2="1168.2623" y1="384.9766" y2="384.9766"/><text fill="#000000" font-family="sans-serif" font-size="14" lengthAdjust="spacing" textLength="215.8037" x="942.15" y="402.5117">type = core:DesignSpecification</text></g><g class="entity" data-entity="o4" data-source-line="13" data-uid="ent0005" id="entity_o4"><rect fill="#F1F1F1" height="44.9766" rx="2.5" ry="2.5" style="stroke:#181818;stroke-width:0.5;" width="360.4932" x="1557.16" y="44.4883"/><text fill="#000000" font-family="sans-serif" font-size="14" lengthAdjust="spacing" textLength="346.4932" x="1564.16" y="60.0234">data:OKUMA.123456-LYI1-spec-LENGTH-Nominal</text><line style="stroke:#181818;stroke-width:0.5;" x1="1558.16" x2="1916.6532" y1="64.9766" y2="64.9766"/><text fill="#000000" font-family="sans-serif" font-size="14" lengthAdjust="spacing" textLength="194.4209" x="1563.16" y="82.5117">type = core:ValueExpression</text></g><g class="entity" data-entity="o5" data-source-line="16" data-uid="ent0006" id="entity_o5"><rect fill="#F1F1F1" height="44.9766" rx="2.5" ry="2.5" style="stroke:#181818;stroke-width:0.5;" width="416.0146" x="1529.4" y="124.4883"/><text fill="#000000" font-family="sans-serif" font-size="14" lengthAdjust="spacing" textLength="402.0146" x="1536.4" y="140.0234">data:OKUMA.123456-LYI1-spec-LINEAR_FORCE-Maximum</text><line style="stroke:#181818;stroke-width:0.5;" x1="1530.4" x2="1944.4146" y1="144.9766" y2="144.9766"/><text fill="#000000" font-family="sans-serif" font-size="14" lengthAdjust="spacing" textLength="194.4209" x="1535.4" y="162.5117">type = core:ValueExpression</text></g><g class="entity" data-entity="o6" data-source-line="19" data-uid="ent0007" id="entity_o6"><rect fill="#F1F1F1" height="44.9766" rx="2.5" ry="2.5" style="stroke:#181818;stroke-width:0.5;" width="412.4326" x="1531.19" y="204.4883"/><text fill="#000000" font-family="sans-serif" font-size="14" lengthAdjust="spacing" textLength="398.4326" x="1538.19" y="220.0234">data:OKUMA.123456-LYI1-spec-LINEAR_FORCE-Minimum</text><line style="stroke:#181818;stroke-width:0.5;" x1="1532.19" x2="1942.6226" y1="224.9766" y2="224.9766"/><text fill="#000000" font-family="sans-serif" font-size="14" lengthAdjust="spacing" textLength="194.4209" x="1537.19" y="242.5117">type = core:ValueExpression</text></g><g class="entity" data-entity="o7" data-source-line="22" data-uid="ent0008" id="entity_o7"><rect fill="#F1F1F1" height="44.9766" rx="2.5" ry="2.5" style="stroke:#181818;stroke-width:0.5;" width="431.8125" x="1521.5" y="284.4883"/><text fill="#000000" font-family="sans-serif" font-size="14" lengthAdjust="spacing" textLength="417.8125" x="1528.5" y="300.0234">data:OKUMA.123456-LYI1-spec-VELOCITY-RAPID-Maximum</text><line style="stroke:#181818;stroke-width:0.5;" x1="1522.5" x2="1952.3125" y1="304.9766" y2="304.9766"/><text fill="#000000" font-family="sans-serif" font-size="14" lengthAdjust="spacing" textLength="194.4209" x="1527.5" y="322.5117">type = core:ValueExpression</text></g><g class="entity" data-entity="o8" data-source-line="25" data-uid="ent0009" id="entity_o8"><rect fill="#F1F1F1" height="44.9766" rx="2.5" ry="2.5" style="stroke:#181818;stroke-width:0.5;" width="428.2305" x="1523.29" y="364.4883"/><text fill="#000000" font-family="sans-serif" font-size="14" lengthAdjust="spacing" textLength="414.2305" x="1530.29" y="380.0234">data:OKUMA.123456-LYI1-spec-VELOCITY-RAPID-Minimum</text><line style="stroke:#181818;stroke-width:0.5;" x1="1524.29" x2="1950.5205" y1="384.9766" y2="384.9766"/><text fill="#000000" font-family="sans-serif" font-size="14" lengthAdjust="spacing" textLength="194.4209" x="1529.29" y="402.5117">type = core:ValueExpression</text></g><g class="entity" data-entity="o9" data-source-line="28" data-uid="ent0010" id="entity_o9"><rect fill="#F1F1F1" height="44.9766" rx="2.5" ry="2.5" style="stroke:#181818;stroke-width:0.5;" width="489.3301" x="1492.74" y="444.4883"/><text fill="#000000" font-family="sans-serif" font-size="14" lengthAdjust="spacing" textLength="475.3301" x="1499.74" y="460.0234">data:OKUMA.123456-LYI1-spec-VELOCITY-PROGRAMMED-Maximum</text><line style="stroke:#181818;stroke-width:0.5;" x1="1493.74" x2="1981.0701" y1="464.9766" y2="464.9766"/><text fill="#000000" font-family="sans-serif" font-size="14" lengthAdjust="spacing" textLength="194.4209" x="1498.74" y="482.5117">type = core:ValueExpression</text></g><g class="entity" data-entity="o10" data-source-line="31" data-uid="ent0011" id="entity_o10"><rect fill="#F1F1F1" height="44.9766" rx="2.5" ry="2.5" style="stroke:#181818;stroke-width:0.5;" width="485.748" x="1494.53" y="524.4883"/><text fill="#000000" font-family="sans-serif" font-size="14" lengthAdjust="spacing" textLength="471.748" x="1501.53" y="540.0234">data:OKUMA.123456-LYI1-spec-VELOCITY-PROGRAMMED-Minimum</text><line style="stroke:#181818;stroke-width:0.5;" x1="1495.53" x2="1979.278" y1="544.9766" y2="544.9766"/><text fill="#000000" font-family="sans-serif" font-size="14" lengthAdjust="spacing" textLength="194.4209" x="1500.53" y="562.5117">type = core:ValueExpression</text></g><g class="entity" data-entity="o11" data-source-line="34" data-uid="ent0012" id="entity_o11"><rect fill="#F1F1F1" height="44.9766" rx="2.5" ry="2.5" style="stroke:#181818;stroke-width:0.5;" width="208.1064" x="948.65" y="524.4883"/><a href="./OKUMA.123456-x_axis.html" target="_top" title="./OKUMA.123456-x_axis.html" xlink:actuate="onRequest" xlink:href="./OKUMA.123456-x_axis.html" xlink:show="new" xlink:title="./OKUMA.123456-x_axis.html" xlink:type="simple"><text fill="#0000FF" font-family="sans-serif" font-size="14" lengthAdjust="spacing" text-decoration="underline" textLength="194.1064" x="955.65" y="540.0234">data:OKUMA.123456-x_axis</text></a><line style="stroke:#181818;stroke-width:0.5;" x1="949.65" x2="1155.7564" y1="544.9766" y2="544.9766"/><text fill="#000000" font-family="sans-serif" font-size="14" lengthAdjust="spacing" textLength="131.7832" x="954.65" y="562.5117">type = ex:Structure</text></g><g class="entity" data-entity="o12" data-source-line="37" data-uid="ent0013" id="entity_o12"><rect fill="#F1F1F1" height="44.9766" rx="2.5" ry="2.5" style="stroke:#181818;stroke-width:0.5;" width="253.4971" x="1610.65" y="604.4883"/><text fill="#000000" font-family="sans-serif" font-size="14" lengthAdjust="spacing" textLength="239.4971" x="1617.65" y="620.0234">data:OKUMA.123456-x_axis-name</text><line style="stroke:#181818;stroke-width:0.5;" x1="1611.65" x2="1863.1471" y1="624.9766" y2="624.9766"/><text fill="#000000" font-family="sans-serif" font-size="14" lengthAdjust="spacing" textLength="161.3691" x="1616.65" y="642.5117">type = cmns-dsg:Name</text></g><g class="entity" data-entity="o13" data-source-line="40" data-uid="ent0014" id="entity_o13"><rect fill="#F1F1F1" height="44.9766" rx="2.5" ry="2.5" style="stroke:#181818;stroke-width:0.5;" width="206.835" x="949.29" y="604.4883"/><a href="./OKUMA.123456-y_axis.html" target="_top" title="./OKUMA.123456-y_axis.html" xlink:actuate="onRequest" xlink:href="./OKUMA.123456-y_axis.html" xlink:show="new" xlink:title="./OKUMA.123456-y_axis.html" xlink:type="simple"><text fill="#0000FF" font-family="sans-serif" font-size="14" lengthAdjust="spacing" text-decoration="underline" textLength="192.835" x="956.29" y="620.0234">data:OKUMA.123456-y_axis</text></a><line style="stroke:#181818;stroke-width:0.5;" x1="950.29" x2="1155.125" y1="624.9766" y2="624.9766"/><text fill="#000000" font-family="sans-serif" font-size="14" lengthAdjust="spacing" textLength="131.7832" x="955.29" y="642.5117">type = ex:Structure</text></g><g class="entity" data-entity="o14" data-source-line="43" data-uid="ent0015" id="entity_o14"><rect fill="#F1F1F1" height="44.9766" rx="2.5" ry="2.5" style="stroke:#181818;stroke-width:0.5;" width="252.2256" x="1611.29" y="684.4883"/><text fill="#000000" font-family="sans-serif" font-size="14" lengthAdjust="spacing" textLength="238.2256" x="1618.29" y="700.0234">data:OKUMA.123456-y_axis-name</text><line style="stroke:#181818;stroke-width:0.5;" x1="1612.29" x2="1862.5156" y1="704.9766" y2="704.9766"/><text fill="#000000" font-family="sans-serif" font-size="14" lengthAdjust="spacing" textLength="161.3691" x="1617.29" y="722.5117">type = cmns-dsg:Name</text></g><g class="entity" data-entity="o15" data-source-line="46" data-uid="ent0016" id="entity_o15"><rect fill="#F1F1F1" height="44.9766" rx="2.5" ry="2.5" style="stroke:#181818;stroke-width:0.5;" width="258.5654" x="923.42" y="684.4883"/><text fill="#000000" font-family="sans-serif" font-size="14" lengthAdjust="spacing" textLength="244.46" x="930.4727" y="700.0234">data:OKUMA.123456-LYI1-function</text><line style="stroke:#181818;stroke-width:0.5;" x1="924.42" x2="1180.9854" y1="704.9766" y2="704.9766"/><text fill="#000000" font-family="sans-serif" font-size="14" lengthAdjust="spacing" textLength="246.5654" x="929.42" y="722.5117">type = ex:PrismaticMotionCapability</text></g><g class="entity" data-entity="o16" data-source-line="49" data-uid="ent0017" id="entity_o16"><rect fill="#F1F1F1" height="44.9766" rx="2.5" ry="2.5" style="stroke:#181818;stroke-width:0.5;" width="306.0654" x="899.67" y="764.4883"/><text fill="#000000" font-family="sans-serif" font-size="14" lengthAdjust="spacing" textLength="292.0654" x="906.67" y="780.0234">data:OKUMA.123456-LYI1-position-actual</text><line style="stroke:#181818;stroke-width:0.5;" x1="900.67" x2="1204.7354" y1="784.9766" y2="784.9766"/><text fill="#000000" font-family="sans-serif" font-size="14" lengthAdjust="spacing" textLength="163.2285" x="905.67" y="802.5117">type = qp:Displacement</text></g><g class="entity" data-entity="o17" data-source-line="52" data-uid="ent0018" id="entity_o17"><rect fill="#F1F1F1" height="44.9766" rx="2.5" ry="2.5" style="stroke:#181818;stroke-width:0.5;" width="156.9189" x="7" y="558.4883"/><a href="./OKUMA.123456.html" target="_top" title="./OKUMA.123456.html" xlink:actuate="onRequest" xlink:href="./OKUMA.123456.html" xlink:show="new" xlink:title="./OKUMA.123456.html" xlink:type="simple"><text fill="#0000FF" font-family="sans-serif" font-size="14" lengthAdjust="spacing" text-decoration="underline" textLength="142.9189" x="14" y="574.0234">data:OKUMA.123456</text></a><line style="stroke:#181818;stroke-width:0.5;" x1="8" x2="162.9189" y1="578.9766" y2="578.9766"/><text fill="#000000" font-family="sans-serif" font-size="14" lengthAdjust="spacing" textLength="126.1504" x="13" y="596.5117">type = ex:Machine</text></g><!--link o1 to o2--><g class="link" data-entity-1="o1" data-entity-2="o2" data-source-line="55" data-uid="lnk19" id="link_o1_o2"><path codeLine="55" d="M580.22,558.0083 C619.24,517.1183 696.67,435.9783 696.67,435.9783 C696.67,435.9783 899.67,346.9783 899.67,346.9783 C899.67,346.9783 918.0885,341.165 947.1285,331.995" fill="none" id="o1-to-o2" style="stroke:#181818;stroke-width:1;"/><polygon fill="#181818" points="952.85,330.1883,943.0632,329.084,948.0821,331.6939,945.4722,336.7127,952.85,330.1883" style="stroke:#181818;stroke-width:1;"/><text fill="#000000" font-family="sans-serif" font-size="13" lengthAdjust="spacing" textLength="126.0771" x="720.17" y="358.4666">cmns-dsg:hasName</text></g><!--link o1 to o3--><g class="link" data-entity-1="o1" data-entity-2="o3" data-source-line="57" data-uid="lnk20" id="link_o1_o3"><path codeLine="57" d="M616.35,558.1583 C711.24,520.8483 892.9161,449.4139 987.9061,412.0639" fill="none" id="o1-to-o3" style="stroke:#181818;stroke-width:1;"/><polygon fill="#181818" points="993.49,409.8683,983.6505,409.4391,988.8368,411.6979,986.5779,416.8842,993.49,409.8683" style="stroke:#181818;stroke-width:1;"/><text fill="#000000" font-family="sans-serif" font-size="13" lengthAdjust="spacing" textLength="112.3027" x="727.17" y="457.4666">core:prescribedBy</text></g><!--link o3 to o4--><g class="link" data-entity-1="o3" data-entity-2="o4" data-source-line="58" data-uid="lnk21" id="link_o3_o4"><path codeLine="58" d="M1140.82,364.0583 C1174.79,355.1183 1205.74,346.9783 1205.74,346.9783 C1205.74,346.9783 1235.74,169.9783 1235.74,169.9783 C1235.74,169.9783 1492.74,106.9783 1492.74,106.9783 C1492.74,106.9783 1536.1992,99.8396 1590.5092,90.9296" fill="none" id="o3-to-o4" style="stroke:#181818;stroke-width:1;"/><polygon fill="#181818" points="1596.43,89.9583,1586.9012,87.4681,1591.496,90.7678,1588.1963,95.3626,1596.43,89.9583" style="stroke:#181818;stroke-width:1;"/><text fill="#000000" font-family="sans-serif" font-size="13" lengthAdjust="spacing" textLength="225.0688" x="1236.74" y="111.3566">core:hasValueExpressionAtAllTimes</text></g><!--link o3 to o5--><g class="link" data-entity-1="o3" data-entity-2="o5" data-source-line="59" data-uid="lnk22" id="link_o3_o5"><path codeLine="59" d="M1140.82,364.0583 C1174.79,355.1183 1205.74,346.9783 1205.74,346.9783 C1205.74,346.9783 1235.74,247.9783 1235.74,247.9783 C1235.74,247.9783 1492.74,186.9783 1492.74,186.9783 C1492.74,186.9783 1536.1992,179.8396 1590.5092,170.9296" fill="none" id="o3-to-o5" style="stroke:#181818;stroke-width:1;"/><polygon fill="#181818" points="1596.43,169.9583,1586.9012,167.4681,1591.496,170.7678,1588.1963,175.3626,1596.43,169.9583" style="stroke:#181818;stroke-width:1;"/><text fill="#000000" font-family="sans-serif" font-size="13" lengthAdjust="spacing" textLength="225.0688" x="1236.74" y="191.1066">core:hasValueExpressionAtAllTimes</text></g><!--link o3 to o6--><g class="link" data-entity-1="o3" data-entity-2="o6" data-source-line="60" data-uid="lnk23" id="link_o3_o6"><path codeLine="60" d="M1140.82,364.0583 C1174.79,355.1183 1205.74,346.9783 1205.74,346.9783 C1205.74,346.9783 1235.74,312.9783 1235.74,312.9783 C1235.74,312.9783 1492.74,266.9783 1492.74,266.9783 C1492.74,266.9783 1536.1992,259.8396 1590.5092,250.9296" fill="none" id="o3-to-o6" style="stroke:#181818;stroke-width:1;"/><polygon fill="#181818" points="1596.43,249.9583,1586.9012,247.4681,1591.496,250.7678,1588.1963,255.3626,1596.43,249.9583" style="stroke:#181818;stroke-width:1;"/><text fill="#000000" font-family="sans-serif" font-size="13" lengthAdjust="spacing" textLength="225.0688" x="1236.74" y="269.2466">core:hasValueExpressionAtAllTimes</text></g><!--link o3 to o7--><g class="link" data-entity-1="o3" data-entity-2="o7" data-source-line="61" data-uid="lnk24" id="link_o3_o7"><path codeLine="61" d="M1169.5,371.0783 C1205.41,366.1483 1235.74,361.9783 1235.74,361.9783 C1235.74,361.9783 1384.0859,345.6834 1521.3759,330.6034" fill="none" id="o3-to-o7" style="stroke:#181818;stroke-width:1;"/><polygon fill="#181818" points="1527.34,329.9483,1517.9571,326.9548,1522.3699,330.4942,1518.8305,334.907,1527.34,329.9483" style="stroke:#181818;stroke-width:1;"/><text fill="#000000" font-family="sans-serif" font-size="13" lengthAdjust="spacing" textLength="225.0688" x="1236.74" y="334.3366">core:hasValueExpressionAtAllTimes</text></g><!--link o3 to o8--><g class="link" data-entity-1="o3" data-entity-2="o8" data-source-line="62" data-uid="lnk25" id="link_o3_o8"><path codeLine="62" d="M1169.51,386.9783 C1266.05,386.9783 1400.14,386.9783 1516.9,386.9783" fill="none" id="o3-to-o8" style="stroke:#181818;stroke-width:1;"/><polygon fill="#181818" points="1522.9,386.9783,1513.9,382.9783,1517.9,386.9783,1513.9,390.9783,1522.9,386.9783" style="stroke:#181818;stroke-width:1;"/><text fill="#000000" font-family="sans-serif" font-size="13" lengthAdjust="spacing" textLength="225.0688" x="1236.74" y="383.5466">core:hasValueExpressionAtAllTimes</text></g><!--link o3 to o9--><g class="link" data-entity-1="o3" data-entity-2="o9" data-source-line="63" data-uid="lnk26" id="link_o3_o9"><path codeLine="63" d="M1169.5,402.8883 C1205.41,407.8183 1235.74,411.9783 1235.74,411.9783 C1235.74,411.9783 1384.0859,428.2727 1521.3759,443.3627" fill="none" id="o3-to-o9" style="stroke:#181818;stroke-width:1;"/><polygon fill="#181818" points="1527.34,444.0183,1518.8309,439.0589,1522.3699,443.472,1517.9569,447.011,1527.34,444.0183" style="stroke:#181818;stroke-width:1;"/><text fill="#000000" font-family="sans-serif" font-size="13" lengthAdjust="spacing" textLength="225.0688" x="1236.74" y="408.5466">core:hasValueExpressionAtAllTimes</text></g><!--link o3 to o10--><g class="link" data-entity-1="o3" data-entity-2="o10" data-source-line="64" data-uid="lnk27" id="link_o3_o10"><path codeLine="64" d="M1109.81,409.7883 C1163.29,431.5283 1235.74,460.9783 1235.74,460.9783 C1235.74,460.9783 1492.74,506.9783 1492.74,506.9783 C1492.74,506.9783 1536.1992,514.1169 1590.5092,523.0269" fill="none" id="o3-to-o10" style="stroke:#181818;stroke-width:1;"/><polygon fill="#181818" points="1596.43,523.9983,1588.1963,518.594,1591.496,523.1888,1586.9012,526.4885,1596.43,523.9983" style="stroke:#181818;stroke-width:1;"/><text fill="#000000" font-family="sans-serif" font-size="13" lengthAdjust="spacing" textLength="225.0688" x="1236.74" y="457.5466">core:hasValueExpressionAtAllTimes</text></g><!--link o1 to o11--><g class="link" data-entity-1="o1" data-entity-2="o11" data-source-line="65" data-uid="lnk28" id="link_o1_o11"><path codeLine="65" d="M666.88,573.4983 C750.73,567.7183 859.9842,560.1905 942.4642,554.5105" fill="none" id="o1-to-o11" style="stroke:#181818;stroke-width:1;"/><polygon fill="#181818" points="948.45,554.0983,939.1965,550.7261,943.4618,554.4418,939.7461,558.7072,948.45,554.0983" style="stroke:#181818;stroke-width:1;"/><text fill="#000000" font-family="sans-serif" font-size="13" lengthAdjust="spacing" textLength="74.7246" x="746.17" y="556.5066">ex:joinedTo</text></g><!--link o11 to o12--><g class="link" data-entity-1="o11" data-entity-2="o12" data-source-line="66" data-uid="lnk29" id="link_o11_o12"><path codeLine="66" d="M1140.82,569.8983 C1174.79,578.8383 1205.74,586.9783 1205.74,586.9783 C1205.74,586.9783 1235.74,606.9783 1235.74,606.9783 C1235.74,606.9783 1456.0748,615.7786 1604.3948,621.7086" fill="none" id="o11-to-o12" style="stroke:#181818;stroke-width:1;"/><polygon fill="#181818" points="1610.39,621.9483,1601.557,617.5919,1605.394,621.7485,1601.2374,625.5855,1610.39,621.9483" style="stroke:#181818;stroke-width:1;"/><text fill="#000000" font-family="sans-serif" font-size="13" lengthAdjust="spacing" textLength="126.0771" x="1286.24" y="603.5466">cmns-dsg:hasName</text></g><!--link o1 to o13--><g class="link" data-entity-1="o1" data-entity-2="o13" data-source-line="67" data-uid="lnk30" id="link_o1_o13"><path codeLine="67" d="M666.99,592.7583 C684.32,594.6383 696.67,595.9783 696.67,595.9783 C696.67,595.9783 838.1828,608.3361 943.0328,617.4961" fill="none" id="o1-to-o13" style="stroke:#181818;stroke-width:1;"/><polygon fill="#181818" points="949.01,618.0183,940.3923,613.2502,944.029,617.5831,939.696,621.2198,949.01,618.0183" style="stroke:#181818;stroke-width:1;"/><text fill="#000000" font-family="sans-serif" font-size="13" lengthAdjust="spacing" textLength="74.7246" x="746.17" y="592.5466">ex:joinedTo</text></g><!--link o13 to o14--><g class="link" data-entity-1="o13" data-entity-2="o14" data-source-line="68" data-uid="lnk31" id="link_o13_o14"><path codeLine="68" d="M1156.28,638.9983 C1277.82,653.2383 1474.3008,676.2699 1605.0308,691.5899" fill="none" id="o13-to-o14" style="stroke:#181818;stroke-width:1;"/><polygon fill="#181818" points="1610.99,692.2883,1602.5167,687.2679,1606.024,691.7063,1601.5856,695.2136,1610.99,692.2883" style="stroke:#181818;stroke-width:1;"/><text fill="#000000" font-family="sans-serif" font-size="13" lengthAdjust="spacing" textLength="126.0771" x="1286.24" y="645.0066">cmns-dsg:hasName</text></g><!--link o1 to o15--><g class="link" data-entity-1="o1" data-entity-2="o15" data-source-line="69" data-uid="lnk32" id="link_o1_o15"><path codeLine="69" d="M615.78,603.8283 C653.8,618.9383 696.67,635.9783 696.67,635.9783 C696.67,635.9783 827.3166,662.1014 931.0466,682.8514" fill="none" id="o1-to-o15" style="stroke:#181818;stroke-width:1;"/><polygon fill="#181818" points="936.93,684.0283,928.8894,678.3406,932.0271,683.0475,927.3202,686.1852,936.93,684.0283" style="stroke:#181818;stroke-width:1;"/><text fill="#000000" font-family="sans-serif" font-size="13" lengthAdjust="spacing" textLength="107.6309" x="729.67" y="632.5466">core:hasFunction</text></g><!--link o1 to o16--><g class="link" data-entity-1="o1" data-entity-2="o16" data-source-line="70" data-uid="lnk33" id="link_o1_o16"><path codeLine="70" d="M586.3,603.8483 C626.73,636.8683 696.67,693.9783 696.67,693.9783 C696.67,693.9783 853.4757,735.0582 958.5957,762.5882" fill="none" id="o1-to-o16" style="stroke:#181818;stroke-width:1;"/><polygon fill="#181818" points="964.4,764.1083,956.707,757.9587,959.5631,762.8415,954.6802,765.6977,964.4,764.1083" style="stroke:#181818;stroke-width:1;"/><text fill="#000000" font-family="sans-serif" font-size="13" lengthAdjust="spacing" textLength="171.3169" x="697.67" y="690.5466">core:measuresAtSomeTime</text></g><!--link o17 to o1--><g class="link" data-entity-1="o17" data-entity-2="o1" data-source-line="71" data-uid="lnk34" id="link_o17_o1"><path codeLine="71" d="M164.31,580.9783 C241.63,580.9783 354.85,580.9783 441.52,580.9783" fill="none" id="o17-to-o1" style="stroke:#181818;stroke-width:1;"/><polygon fill="#181818" points="447.52,580.9783,438.52,576.9783,442.52,580.9783,438.52,584.9783,447.52,580.9783" style="stroke:#181818;stroke-width:1;"/><text fill="#000000" font-family="sans-serif" font-size="13" lengthAdjust="spacing" textLength="222.5425" x="194.92" y="577.5466">obo:has member part at some time</text></g><!--SRC=[jLPTRzem57tFhx3w7hOqVBIHDYc3j4CZW81LGbLLEOa1TtQSsKOYclRVPoSG0caPsSeZliVdddjzpoNY1uuJo2451CT8fWa22IEf_c4Gj910Ci3nSYL1X3aA9MQn8R4a28o-VVVTXdLjDrjjSp3lMmOBNXG2N3q-DZvKeesLf0H4K4Ad4djwkW9G06Q1NmR8D7m2QECCb0Z8VQQJJbCX4JN0xoBBwrHc32dAsQvBR26DXHc9fJDKuJDOH8B2dCKkip2Ed1uIU1bF5G0lS0YpZfn7Q0wyuVtigpba5CUGvFpDO_u7IDR8soGS2L67kp_qtCdptMZIzKmVRZ1Tqpn3wo8PSBpFq7wd30_UODJjp-Rcn1ttUuTLT2wKerp7pNld64z6znFNzxsZOculcQXSaVMnHgQARpVFIhHuoxbvjF3kaNcdagz3kUP_SLjEKdAjTPPjArBJarBJGwdsFqbDArAR_x5X5kiuswPRgjQXf377WghT4kRRhmiJ6622PNe6Sy84rfTCg8hQhHchxD6VYTF38Y4mH1J5ybHZt-XeqShEeMuVXYlzrw4PBM2Qd_KQTlRDMK6HzIS_rVEeJgQO9gGqazc8AhvvmM7lq1eISXoWw4jggECisYnn7OstArr2PfWYKQ1RjT3jMkXEBVHDBVHjBRGo_bdmROELUntzVYzClLuqOuO-oIEllzykQbVkxGGqJzuhlyBTrWhxQD5rYg1GnXIkd3AAj6P3proEKY0MCCq0AA81ua1zoKW09H0A3AH2_m40]--></g></svg>