<svg xmlns="http://www.w3.org/2000/svg" xmlns:xlink="http://www.w3.org/1999/xlink" contentStyleType="text/css" data-diagram-type="CLASS" height="2063px" preserveAspectRatio="none" style="width:1295px;height:2063px;background:#FFFFFF;" version="1.1" viewBox="0 0 1295 2063" width="1295px" zoomAndPan="magnify"><title>OKUMAMere</title><defs><filter height="1" id="b11q7s7mu2sx3d0" width="1" x="0" y="0"><feFlood flood-color="#008000" result="flood"/><feComposite in="SourceGraphic" in2="flood" operator="over"/></filter><filter height="1" id="b11q7s7mu2sx3d1" width="1" x="0" y="0"><feFlood flood-color="#DFA702" result="flood"/><feComposite in="SourceGraphic" in2="flood" operator="over"/></filter></defs><g><text fill="#000000" font-family="sans-serif" font-size="14" font-weight="bold" lengthAdjust="spacing" textLength="90.2686" x="595.609" y="23.5352">OKUMAMere</text><g class="entity" data-entity="o1" data-source-line="131" data-uid="ent0002" id="entity_o1"><rect fill="#76608A" height="62" rx="5" ry="5" style="stroke:#FFFFFF;stroke-width:0.5;" width="203.7822" x="7" y="1008.4883"/><text fill="#FFFFFF" font-family="Helvetica" font-size="14" lengthAdjust="spacing" text-decoration="underline" textLength="133.082" x="42.3501" y="1021.2686">data:OKUMA.123456</text><line style="stroke:#FFFFFF;stroke-width:0.5;" x1="8" x2="209.7822" y1="1026.4883" y2="1026.4883"/><text fill="#FFFFFF" filter="url(#b11q7s7mu2sx3d0)" font-family="Helvetica" font-size="14" lengthAdjust="spacing" textLength="114.0098" x="13" y="1041.2686">type = ex:Machine</text><line style="stroke:#FFFFFF;stroke-width:1;" x1="8" x2="209.7822" y1="1048.4883" y2="1048.4883"/><text fill="#FFFFFF" font-family="Helvetica" font-size="14" lengthAdjust="spacing" textLength="191.7822" x="13" y="1063.2686">cmns-dsg:hasName = OKUMA</text></g><g class="entity" data-entity="o2" data-source-line="131" data-uid="ent0003" id="entity_o2"><rect fill="#76608A" height="40" rx="5" ry="5" style="stroke:#FFFFFF;stroke-width:0.5;" width="191.4268" x="551.31" y="44.4883"/><text fill="#FFFFFF" font-family="Helvetica" font-size="14" lengthAdjust="spacing" text-decoration="underline" textLength="177.4268" x="558.31" y="57.2686">data:OKUMA.123456-x_axis</text><line style="stroke:#FFFFFF;stroke-width:0.5;" x1="552.31" x2="741.7368" y1="62.4883" y2="62.4883"/><text fill="#FFFFFF" filter="url(#b11q7s7mu2sx3d0)" font-family="Helvetica" font-size="14" lengthAdjust="spacing" textLength="117.8926" x="557.31" y="77.2686">type = ex:Structure</text></g><g class="entity" data-entity="o3" data-source-line="131" data-uid="ent0004" id="entity_o3"><rect fill="#76608A" height="40" rx="5" ry="5" style="stroke:#FFFFFF;stroke-width:0.5;" width="191.4268" x="551.31" y="119.4883"/><text fill="#FFFFFF" font-family="Helvetica" font-size="14" lengthAdjust="spacing" text-decoration="underline" textLength="177.4268" x="558.31" y="132.2686">data:OKUMA.123456-y_axis</text><line style="stroke:#FFFFFF;stroke-width:0.5;" x1="552.31" x2="741.7368" y1="137.4883" y2="137.4883"/><text fill="#FFFFFF" filter="url(#b11q7s7mu2sx3d0)" font-family="Helvetica" font-size="14" lengthAdjust="spacing" textLength="117.8926" x="557.31" y="152.2686">type = ex:Structure</text></g><g class="entity" data-entity="o4" data-source-line="131" data-uid="ent0005" id="entity_o4"><rect fill="#76608A" height="40" rx="5" ry="5" style="stroke:#FFFFFF;stroke-width:0.5;" width="199.2129" x="547.41" y="194.4883"/><text fill="#FFFFFF" font-family="Helvetica" font-size="14" lengthAdjust="spacing" text-decoration="underline" textLength="185.2129" x="554.41" y="207.2686">data:OKUMA.123456-z1_axis</text><line style="stroke:#FFFFFF;stroke-width:0.5;" x1="548.41" x2="745.6229" y1="212.4883" y2="212.4883"/><text fill="#FFFFFF" filter="url(#b11q7s7mu2sx3d0)" font-family="Helvetica" font-size="14" lengthAdjust="spacing" textLength="117.8926" x="553.41" y="227.2686">type = ex:Structure</text></g><g class="entity" data-entity="o5" data-source-line="131" data-uid="ent0006" id="entity_o5"><rect fill="#76608A" height="40" rx="5" ry="5" style="stroke:#FFFFFF;stroke-width:0.5;" width="199.2129" x="547.41" y="269.4883"/><text fill="#FFFFFF" font-family="Helvetica" font-size="14" lengthAdjust="spacing" text-decoration="underline" textLength="185.2129" x="554.41" y="282.2686">data:OKUMA.123456-z4_axis</text><line style="stroke:#FFFFFF;stroke-width:0.5;" x1="548.41" x2="745.6229" y1="287.4883" y2="287.4883"/><text fill="#FFFFFF" filter="url(#b11q7s7mu2sx3d0)" font-family="Helvetica" font-size="14" lengthAdjust="spacing" textLength="117.8926" x="553.41" y="302.2686">type = ex:Structure</text></g><g class="entity" data-entity="o6" data-source-line="131" data-uid="ent0007" id="entity_o6"><rect fill="#76608A" height="40" rx="5" ry="5" style="stroke:#FFFFFF;stroke-width:0.5;" width="192.2129" x="550.91" y="344.4883"/><text fill="#FFFFFF" font-family="Helvetica" font-size="14" lengthAdjust="spacing" text-decoration="underline" textLength="178.2129" x="557.91" y="357.2686">data:OKUMA.123456-b_axis</text><line style="stroke:#FFFFFF;stroke-width:0.5;" x1="551.91" x2="742.1229" y1="362.4883" y2="362.4883"/><text fill="#FFFFFF" filter="url(#b11q7s7mu2sx3d0)" font-family="Helvetica" font-size="14" lengthAdjust="spacing" textLength="117.8926" x="556.91" y="377.2686">type = ex:Structure</text></g><g class="entity" data-entity="o7" data-source-line="131" data-uid="ent0008" id="entity_o7"><rect fill="#76608A" height="40" rx="5" ry="5" style="stroke:#FFFFFF;stroke-width:0.5;" width="199.2129" x="547.41" y="419.4883"/><text fill="#FFFFFF" font-family="Helvetica" font-size="14" lengthAdjust="spacing" text-decoration="underline" textLength="185.2129" x="554.41" y="432.2686">data:OKUMA.123456-c1_axis</text><line style="stroke:#FFFFFF;stroke-width:0.5;" x1="548.41" x2="745.6229" y1="437.4883" y2="437.4883"/><text fill="#FFFFFF" filter="url(#b11q7s7mu2sx3d0)" font-family="Helvetica" font-size="14" lengthAdjust="spacing" textLength="117.8926" x="553.41" y="452.2686">type = ex:Structure</text></g><g class="entity" data-entity="o8" data-source-line="131" data-uid="ent0009" id="entity_o8"><rect fill="#76608A" height="40" rx="5" ry="5" style="stroke:#FFFFFF;stroke-width:0.5;" width="199.2129" x="547.41" y="494.4883"/><text fill="#FFFFFF" font-family="Helvetica" font-size="14" lengthAdjust="spacing" text-decoration="underline" textLength="185.2129" x="554.41" y="507.2686">data:OKUMA.123456-c2_axis</text><line style="stroke:#FFFFFF;stroke-width:0.5;" x1="548.41" x2="745.6229" y1="512.4883" y2="512.4883"/><text fill="#FFFFFF" filter="url(#b11q7s7mu2sx3d0)" font-family="Helvetica" font-size="14" lengthAdjust="spacing" textLength="117.8926" x="553.41" y="527.2686">type = ex:Structure</text></g><g class="entity" data-entity="o9" data-source-line="131" data-uid="ent0010" id="entity_o9"><rect fill="#76608A" height="40" rx="5" ry="5" style="stroke:#FFFFFF;stroke-width:0.5;" width="200.7061" x="546.67" y="569.4883"/><text fill="#FFFFFF" font-family="Helvetica" font-size="14" lengthAdjust="spacing" text-decoration="underline" textLength="160.3164" x="566.8648" y="582.2686">data:OKUMA.123456-Lx1</text><line style="stroke:#FFFFFF;stroke-width:0.5;" x1="547.67" x2="746.3761" y1="587.4883" y2="587.4883"/><text fill="#FFFFFF" filter="url(#b11q7s7mu2sx3d0)" font-family="Helvetica" font-size="14" lengthAdjust="spacing" textLength="188.7061" x="552.67" y="602.2686">type = ex:LinearMotionSystem</text></g><g class="entity" data-entity="o10" data-source-line="131" data-uid="ent0011" id="entity_o10"><rect fill="#76608A" height="40" rx="5" ry="5" style="stroke:#FFFFFF;stroke-width:0.5;" width="200.7061" x="546.67" y="644.4883"/><text fill="#FFFFFF" font-family="Helvetica" font-size="14" lengthAdjust="spacing" text-decoration="underline" textLength="166.5439" x="563.7511" y="657.2686">data:OKUMA.123456-LYI1</text><line style="stroke:#FFFFFF;stroke-width:0.5;" x1="547.67" x2="746.3761" y1="662.4883" y2="662.4883"/><text fill="#FFFFFF" filter="url(#b11q7s7mu2sx3d0)" font-family="Helvetica" font-size="14" lengthAdjust="spacing" textLength="188.7061" x="552.67" y="677.2686">type = ex:LinearMotionSystem</text></g><g class="entity" data-entity="o11" data-source-line="131" data-uid="ent0012" id="entity_o11"><rect fill="#76608A" height="40" rx="5" ry="5" style="stroke:#FFFFFF;stroke-width:0.5;" width="200.7061" x="546.67" y="719.4883"/><text fill="#FFFFFF" font-family="Helvetica" font-size="14" lengthAdjust="spacing" text-decoration="underline" textLength="160.3164" x="566.8648" y="732.2686">data:OKUMA.123456-Lz1</text><line style="stroke:#FFFFFF;stroke-width:0.5;" x1="547.67" x2="746.3761" y1="737.4883" y2="737.4883"/><text fill="#FFFFFF" filter="url(#b11q7s7mu2sx3d0)" font-family="Helvetica" font-size="14" lengthAdjust="spacing" textLength="188.7061" x="552.67" y="752.2686">type = ex:LinearMotionSystem</text></g><g class="entity" data-entity="o12" data-source-line="131" data-uid="ent0013" id="entity_o12"><rect fill="#76608A" height="40" rx="5" ry="5" style="stroke:#FFFFFF;stroke-width:0.5;" width="203.0234" x="545.51" y="794.4883"/><text fill="#FFFFFF" font-family="Helvetica" font-size="14" lengthAdjust="spacing" text-decoration="underline" textLength="161.1025" x="566.4704" y="807.2686">data:OKUMA.123456-Lb1</text><line style="stroke:#FFFFFF;stroke-width:0.5;" x1="546.51" x2="747.5334" y1="812.4883" y2="812.4883"/><text fill="#FFFFFF" filter="url(#b11q7s7mu2sx3d0)" font-family="Helvetica" font-size="14" lengthAdjust="spacing" textLength="191.0234" x="551.51" y="827.2686">type = ex:RotaryMotionSystem</text></g><g class="entity" data-entity="o13" data-source-line="131" data-uid="ent0014" id="entity_o13"><rect fill="#76608A" height="40" rx="5" ry="5" style="stroke:#FFFFFF;stroke-width:0.5;" width="203.0234" x="545.51" y="869.4883"/><text fill="#FFFFFF" font-family="Helvetica" font-size="14" lengthAdjust="spacing" text-decoration="underline" textLength="160.3164" x="566.8635" y="882.2686">data:OKUMA.123456-Lc1</text><line style="stroke:#FFFFFF;stroke-width:0.5;" x1="546.51" x2="747.5334" y1="887.4883" y2="887.4883"/><text fill="#FFFFFF" filter="url(#b11q7s7mu2sx3d0)" font-family="Helvetica" font-size="14" lengthAdjust="spacing" textLength="191.0234" x="551.51" y="902.2686">type = ex:RotaryMotionSystem</text></g><g class="entity" data-entity="o14" data-source-line="131" data-uid="ent0015" id="entity_o14"><rect fill="#76608A" height="40" rx="5" ry="5" style="stroke:#FFFFFF;stroke-width:0.5;" width="200.7061" x="546.67" y="944.4883"/><text fill="#FFFFFF" font-family="Helvetica" font-size="14" lengthAdjust="spacing" text-decoration="underline" textLength="160.3164" x="566.8648" y="957.2686">data:OKUMA.123456-Lz4</text><line style="stroke:#FFFFFF;stroke-width:0.5;" x1="547.67" x2="746.3761" y1="962.4883" y2="962.4883"/><text fill="#FFFFFF" filter="url(#b11q7s7mu2sx3d0)" font-family="Helvetica" font-size="14" lengthAdjust="spacing" textLength="188.7061" x="552.67" y="977.2686">type = ex:LinearMotionSystem</text></g><g class="entity" data-entity="o15" data-source-line="131" data-uid="ent0016" id="entity_o15"><rect fill="#76608A" height="40" rx="5" ry="5" style="stroke:#FFFFFF;stroke-width:0.5;" width="203.0234" x="545.51" y="1019.4883"/><text fill="#FFFFFF" font-family="Helvetica" font-size="14" lengthAdjust="spacing" text-decoration="underline" textLength="160.3164" x="566.8635" y="1032.2686">data:OKUMA.123456-Lc2</text><line style="stroke:#FFFFFF;stroke-width:0.5;" x1="546.51" x2="747.5334" y1="1037.4883" y2="1037.4883"/><text fill="#FFFFFF" filter="url(#b11q7s7mu2sx3d0)" font-family="Helvetica" font-size="14" lengthAdjust="spacing" textLength="191.0234" x="551.51" y="1052.2686">type = ex:RotaryMotionSystem</text></g><g class="entity" data-entity="o16" data-source-line="131" data-uid="ent0017" id="entity_o16"><rect fill="#76608A" height="40" rx="5" ry="5" style="stroke:#FFFFFF;stroke-width:0.5;" width="203.0234" x="545.51" y="1094.4883"/><text fill="#FFFFFF" font-family="Helvetica" font-size="14" lengthAdjust="spacing" text-decoration="underline" textLength="160.3164" x="566.8635" y="1107.2686">data:OKUMA.123456-Lc3</text><line style="stroke:#FFFFFF;stroke-width:0.5;" x1="546.51" x2="747.5334" y1="1112.4883" y2="1112.4883"/><text fill="#FFFFFF" filter="url(#b11q7s7mu2sx3d0)" font-family="Helvetica" font-size="14" lengthAdjust="spacing" textLength="191.0234" x="551.51" y="1127.2686">type = ex:RotaryMotionSystem</text></g><g class="entity" data-entity="o17" data-source-line="131" data-uid="ent0018" id="entity_o17"><rect fill="#76608A" height="40" rx="5" ry="5" style="stroke:#FFFFFF;stroke-width:0.5;" width="203.0234" x="545.51" y="1169.4883"/><text fill="#FFFFFF" font-family="Helvetica" font-size="14" lengthAdjust="spacing" text-decoration="underline" textLength="160.3164" x="566.8635" y="1182.2686">data:OKUMA.123456-Lc6</text><line style="stroke:#FFFFFF;stroke-width:0.5;" x1="546.51" x2="747.5334" y1="1187.4883" y2="1187.4883"/><text fill="#FFFFFF" filter="url(#b11q7s7mu2sx3d0)" font-family="Helvetica" font-size="14" lengthAdjust="spacing" textLength="191.0234" x="551.51" y="1202.2686">type = ex:RotaryMotionSystem</text></g><g class="entity" data-entity="o18" data-source-line="131" data-uid="ent0019" id="entity_o18"><rect fill="#76608A" height="62" rx="5" ry="5" style="stroke:#FFFFFF;stroke-width:0.5;" width="213.1338" x="540.45" y="1244.4883"/><text fill="#FFFFFF" font-family="Helvetica" font-size="14" lengthAdjust="spacing" text-decoration="underline" textLength="164.2061" x="564.9139" y="1257.2686">data:OKUMA.123456-Lct1</text><line style="stroke:#FFFFFF;stroke-width:0.5;" x1="541.45" x2="752.5838" y1="1262.4883" y2="1262.4883"/><text fill="#FFFFFF" filter="url(#b11q7s7mu2sx3d0)" font-family="Helvetica" font-size="14" lengthAdjust="spacing" textLength="152.8994" x="546.45" y="1277.2686">type = ex:ControlSystem</text><line style="stroke:#FFFFFF;stroke-width:1;" x1="541.45" x2="752.5838" y1="1284.4883" y2="1284.4883"/><text fill="#FFFFFF" font-family="Helvetica" font-size="14" lengthAdjust="spacing" textLength="201.1338" x="546.45" y="1299.2686">cmns-dsg:hasName = Controller</text></g><g class="entity" data-entity="o19" data-source-line="131" data-uid="ent0020" id="entity_o19"><rect fill="#76608A" height="40" rx="5" ry="5" style="stroke:#FFFFFF;stroke-width:0.5;" width="262.2471" x="515.9" y="1341.4883"/><text fill="#FFFFFF" font-family="Helvetica" font-size="14" lengthAdjust="spacing" text-decoration="underline" textLength="248.2471" x="522.9" y="1354.2686">data:OKUMA.123456-LCoolantSystem1</text><line style="stroke:#FFFFFF;stroke-width:0.5;" x1="516.9" x2="777.1471" y1="1359.4883" y2="1359.4883"/><text fill="#FFFFFF" filter="url(#b11q7s7mu2sx3d1)" font-family="Helvetica" font-size="14" lengthAdjust="spacing" textLength="103.127" x="521.9" y="1374.2686">type = bfo:object</text></g><g class="entity" data-entity="o20" data-source-line="131" data-uid="ent0021" id="entity_o20"><rect fill="#76608A" height="40" rx="5" ry="5" style="stroke:#FFFFFF;stroke-width:0.5;" width="259.8887" x="517.08" y="1416.4883"/><text fill="#FFFFFF" font-family="Helvetica" font-size="14" lengthAdjust="spacing" text-decoration="underline" textLength="245.8887" x="524.08" y="1429.2686">data:OKUMA.123456-LElectricSystem1</text><line style="stroke:#FFFFFF;stroke-width:0.5;" x1="518.08" x2="775.9687" y1="1434.4883" y2="1434.4883"/><text fill="#FFFFFF" filter="url(#b11q7s7mu2sx3d0)" font-family="Helvetica" font-size="14" lengthAdjust="spacing" textLength="164.5615" x="523.08" y="1449.2686">type = ex:ElectricalSystem</text></g><g class="entity" data-entity="o21" data-source-line="131" data-uid="ent0022" id="entity_o21"><rect fill="#76608A" height="40" rx="5" ry="5" style="stroke:#FFFFFF;stroke-width:0.5;" width="272.3438" x="510.85" y="1491.4883"/><text fill="#FFFFFF" font-family="Helvetica" font-size="14" lengthAdjust="spacing" text-decoration="underline" textLength="258.3438" x="517.85" y="1504.2686">data:OKUMA.123456-LHydraulicSystem1</text><line style="stroke:#FFFFFF;stroke-width:0.5;" x1="511.85" x2="782.1938" y1="1509.4883" y2="1509.4883"/><text fill="#FFFFFF" filter="url(#b11q7s7mu2sx3d0)" font-family="Helvetica" font-size="14" lengthAdjust="spacing" textLength="166.1201" x="516.85" y="1524.2686">type = ex:HydraulicSystem</text></g><g class="entity" data-entity="o22" data-source-line="131" data-uid="ent0023" id="entity_o22"><rect fill="#76608A" height="40" rx="5" ry="5" style="stroke:#FFFFFF;stroke-width:0.5;" width="282.4814" x="505.78" y="1566.4883"/><text fill="#FFFFFF" font-family="Helvetica" font-size="14" lengthAdjust="spacing" text-decoration="underline" textLength="268.4814" x="512.78" y="1579.2686">data:OKUMA.123456-LLubricationSystem1</text><line style="stroke:#FFFFFF;stroke-width:0.5;" x1="506.78" x2="787.2614" y1="1584.4883" y2="1584.4883"/><text fill="#FFFFFF" filter="url(#b11q7s7mu2sx3d0)" font-family="Helvetica" font-size="14" lengthAdjust="spacing" textLength="176.2578" x="511.78" y="1599.2686">type = ex:LubricationSystem</text></g><g class="entity" data-entity="o23" data-source-line="131" data-uid="ent0024" id="entity_o23"><rect fill="#76608A" height="40" rx="5" ry="5" style="stroke:#FFFFFF;stroke-width:0.5;" width="280.1367" x="506.95" y="1641.4883"/><text fill="#FFFFFF" font-family="Helvetica" font-size="14" lengthAdjust="spacing" text-decoration="underline" textLength="266.1367" x="513.95" y="1654.2686">data:OKUMA.123456-LPneumaticSystem1</text><line style="stroke:#FFFFFF;stroke-width:0.5;" x1="507.95" x2="786.0867" y1="1659.4883" y2="1659.4883"/><text fill="#FFFFFF" filter="url(#b11q7s7mu2sx3d0)" font-family="Helvetica" font-size="14" lengthAdjust="spacing" textLength="173.9131" x="512.95" y="1674.2686">type = ex:PneumaticSystem</text></g><g class="entity" data-entity="o24" data-source-line="131" data-uid="ent0025" id="entity_o24"><rect fill="#76608A" height="40" rx="5" ry="5" style="stroke:#FFFFFF;stroke-width:0.5;" width="257.585" x="518.23" y="1716.4883"/><text fill="#FFFFFF" font-family="Helvetica" font-size="14" lengthAdjust="spacing" text-decoration="underline" textLength="243.585" x="525.23" y="1729.2686">data:OKUMA.123456-LLoaderSystem1</text><line style="stroke:#FFFFFF;stroke-width:0.5;" x1="519.23" x2="774.815" y1="1734.4883" y2="1734.4883"/><text fill="#FFFFFF" filter="url(#b11q7s7mu2sx3d1)" font-family="Helvetica" font-size="14" lengthAdjust="spacing" textLength="103.127" x="524.23" y="1749.2686">type = bfo:object</text></g><g class="entity" data-entity="o25" data-source-line="131" data-uid="ent0026" id="entity_o25"><rect fill="#76608A" height="40" rx="5" ry="5" style="stroke:#FFFFFF;stroke-width:0.5;" width="307.3574" x="493.34" y="1791.4883"/><text fill="#FFFFFF" font-family="Helvetica" font-size="14" lengthAdjust="spacing" text-decoration="underline" textLength="293.3574" x="500.34" y="1804.2686">data:OKUMA.123456-LWasteDisposalSystem1</text><line style="stroke:#FFFFFF;stroke-width:0.5;" x1="494.34" x2="799.6974" y1="1809.4883" y2="1809.4883"/><text fill="#FFFFFF" filter="url(#b11q7s7mu2sx3d1)" font-family="Helvetica" font-size="14" lengthAdjust="spacing" textLength="103.127" x="499.34" y="1824.2686">type = bfo:object</text></g><g class="entity" data-entity="o26" data-source-line="131" data-uid="ent0027" id="entity_o26"><rect fill="#76608A" height="40" rx="5" ry="5" style="stroke:#FFFFFF;stroke-width:0.5;" width="310.4746" x="491.78" y="1866.4883"/><text fill="#FFFFFF" font-family="Helvetica" font-size="14" lengthAdjust="spacing" text-decoration="underline" textLength="296.4746" x="498.78" y="1879.2686">data:OKUMA.123456-LToolingDeliverySystem1</text><line style="stroke:#FFFFFF;stroke-width:0.5;" x1="492.78" x2="801.2546" y1="1884.4883" y2="1884.4883"/><text fill="#FFFFFF" filter="url(#b11q7s7mu2sx3d1)" font-family="Helvetica" font-size="14" lengthAdjust="spacing" textLength="103.127" x="497.78" y="1899.2686">type = bfo:object</text></g><g class="entity" data-entity="o27" data-source-line="131" data-uid="ent0028" id="entity_o27"><rect fill="#76608A" height="40" rx="5" ry="5" style="stroke:#FFFFFF;stroke-width:0.5;" width="280.1367" x="506.95" y="1941.4883"/><text fill="#FFFFFF" font-family="Helvetica" font-size="14" lengthAdjust="spacing" text-decoration="underline" textLength="266.1367" x="513.95" y="1954.2686">data:OKUMA.123456-LBarFeederSystem1</text><line style="stroke:#FFFFFF;stroke-width:0.5;" x1="507.95" x2="786.0867" y1="1959.4883" y2="1959.4883"/><text fill="#FFFFFF" filter="url(#b11q7s7mu2sx3d1)" font-family="Helvetica" font-size="14" lengthAdjust="spacing" textLength="103.127" x="512.95" y="1974.2686">type = bfo:object</text></g><g class="entity" data-entity="o28" data-source-line="131" data-uid="ent0029" id="entity_o28"><rect fill="#76608A" height="40" rx="5" ry="5" style="stroke:#FFFFFF;stroke-width:0.5;" width="212.4473" x="540.8" y="2016.4883"/><text fill="#FFFFFF" font-family="Helvetica" font-size="14" lengthAdjust="spacing" text-decoration="underline" textLength="198.4473" x="547.8" y="2029.2686">data:OKUMA.123456-enclosure</text><line style="stroke:#FFFFFF;stroke-width:0.5;" x1="541.8" x2="752.2473" y1="2034.4883" y2="2034.4883"/><text fill="#FFFFFF" filter="url(#b11q7s7mu2sx3d0)" font-family="Helvetica" font-size="14" lengthAdjust="spacing" textLength="117.8926" x="546.8" y="2049.2686">type = ex:Structure</text></g><g class="entity" data-entity="o29" data-source-line="131" data-uid="ent0030" id="entity_o29"><rect fill="#76608A" height="40" rx="5" ry="5" style="stroke:#FFFFFF;stroke-width:0.5;" width="206.2266" x="1083.26" y="1255.4883"/><text fill="#FFFFFF" font-family="Helvetica" font-size="14" lengthAdjust="spacing" text-decoration="underline" textLength="192.2266" x="1090.26" y="1268.2686">data:OKUMA.123456-Lct1-Lp1</text><line style="stroke:#FFFFFF;stroke-width:0.5;" x1="1084.26" x2="1288.4866" y1="1273.4883" y2="1273.4883"/><text fill="#FFFFFF" filter="url(#b11q7s7mu2sx3d0)" font-family="Helvetica" font-size="14" lengthAdjust="spacing" textLength="181.6992" x="1089.26" y="1288.2686">type = ex:ControlSystemPath</text></g><!--link o1 to o2--><g class="link" data-entity-1="o1" data-entity-2="o2" data-source-line="195" data-uid="lnk31" id="link_o1_o2"><path codeLine="195" d="M114.55,1008.1283 C137.87,851.1883 240.78,158.4883 240.78,158.4883 C240.78,158.4883 432.7853,113.9544 551.9953,86.2944" fill="none" id="o1-to-o2" style="stroke:#181818;stroke-width:1;"/><polygon fill="#181818" points="557.84,84.9383,548.1688,83.076,552.9694,86.0684,549.977,90.869,557.84,84.9383" style="stroke:#181818;stroke-width:1;"/><text fill="#000000" font-family="sans-serif" font-size="13" lengthAdjust="spacing" textLength="219.3369" x="241.78" y="105.2366">bfo:has member part at some time</text></g><!--link o1 to o3--><g class="link" data-entity-1="o1" data-entity-2="o3" data-source-line="195" data-uid="lnk32" id="link_o1_o3"><path codeLine="195" d="M114.94,1008.3883 C139,860.2583 240.78,233.4883 240.78,233.4883 C240.78,233.4883 432.7853,188.9544 551.9953,161.2944" fill="none" id="o1-to-o3" style="stroke:#181818;stroke-width:1;"/><polygon fill="#181818" points="557.84,159.9383,548.1688,158.076,552.9694,161.0684,549.977,165.869,557.84,159.9383" style="stroke:#181818;stroke-width:1;"/><text fill="#000000" font-family="sans-serif" font-size="13" lengthAdjust="spacing" textLength="219.3369" x="241.78" y="180.2366">bfo:has member part at some time</text></g><!--link o1 to o4--><g class="link" data-entity-1="o1" data-entity-2="o4" data-source-line="195" data-uid="lnk33" id="link_o1_o4"><path codeLine="195" d="M115.52,1008.0783 C140.57,868.1583 240.78,308.4883 240.78,308.4883 C240.78,308.4883 432.7853,263.9544 551.9953,236.2944" fill="none" id="o1-to-o4" style="stroke:#181818;stroke-width:1;"/><polygon fill="#181818" points="557.84,234.9383,548.1688,233.076,552.9694,236.0684,549.977,240.869,557.84,234.9383" style="stroke:#181818;stroke-width:1;"/><text fill="#000000" font-family="sans-serif" font-size="13" lengthAdjust="spacing" textLength="219.3369" x="241.78" y="255.2366">bfo:has member part at some time</text></g><!--link o1 to o5--><g class="link" data-entity-1="o1" data-entity-2="o5" data-source-line="195" data-uid="lnk34" id="link_o1_o5"><path codeLine="195" d="M116.12,1008.2883 C142.13,877.9183 240.78,383.4883 240.78,383.4883 C240.78,383.4883 432.7853,338.9544 551.9953,311.2944" fill="none" id="o1-to-o5" style="stroke:#181818;stroke-width:1;"/><polygon fill="#181818" points="557.84,309.9383,548.1688,308.076,552.9694,311.0684,549.977,315.869,557.84,309.9383" style="stroke:#181818;stroke-width:1;"/><text fill="#000000" font-family="sans-serif" font-size="13" lengthAdjust="spacing" textLength="219.3369" x="241.78" y="330.2366">bfo:has member part at some time</text></g><!--link o1 to o6--><g class="link" data-entity-1="o1" data-entity-2="o6" data-source-line="195" data-uid="lnk35" id="link_o1_o6"><path codeLine="195" d="M116.93,1008.2483 C144.12,887.5683 240.78,458.4883 240.78,458.4883 C240.78,458.4883 432.7853,413.9544 551.9953,386.2944" fill="none" id="o1-to-o6" style="stroke:#181818;stroke-width:1;"/><polygon fill="#181818" points="557.84,384.9383,548.1688,383.076,552.9694,386.0684,549.977,390.869,557.84,384.9383" style="stroke:#181818;stroke-width:1;"/><text fill="#000000" font-family="sans-serif" font-size="13" lengthAdjust="spacing" textLength="219.3369" x="241.78" y="405.2366">bfo:has member part at some time</text></g><!--link o1 to o7--><g class="link" data-entity-1="o1" data-entity-2="o7" data-source-line="195" data-uid="lnk36" id="link_o1_o7"><path codeLine="195" d="M117.98,1008.2183 C146.52,897.8983 240.78,533.4883 240.78,533.4883 C240.78,533.4883 432.7853,488.9544 551.9953,461.2944" fill="none" id="o1-to-o7" style="stroke:#181818;stroke-width:1;"/><polygon fill="#181818" points="557.84,459.9383,548.1688,458.076,552.9694,461.0684,549.977,465.869,557.84,459.9383" style="stroke:#181818;stroke-width:1;"/><text fill="#000000" font-family="sans-serif" font-size="13" lengthAdjust="spacing" textLength="219.3369" x="241.78" y="480.2366">bfo:has member part at some time</text></g><!--link o1 to o8--><g class="link" data-entity-1="o1" data-entity-2="o8" data-source-line="195" data-uid="lnk37" id="link_o1_o8"><path codeLine="195" d="M119.41,1008.1483 C149.53,908.9683 240.78,608.4883 240.78,608.4883 C240.78,608.4883 432.7853,563.9544 551.9953,536.2944" fill="none" id="o1-to-o8" style="stroke:#181818;stroke-width:1;"/><polygon fill="#181818" points="557.84,534.9383,548.1688,533.076,552.9694,536.0684,549.977,540.869,557.84,534.9383" style="stroke:#181818;stroke-width:1;"/><text fill="#000000" font-family="sans-serif" font-size="13" lengthAdjust="spacing" textLength="219.3369" x="241.78" y="555.2366">bfo:has member part at some time</text></g><!--link o1 to o9--><g class="link" data-entity-1="o1" data-entity-2="o9" data-source-line="195" data-uid="lnk38" id="link_o1_o9"><path codeLine="195" d="M121.39,1008.1183 C153.33,921.0083 240.78,682.4883 240.78,682.4883 C240.78,682.4883 431.672,638.6802 550.992,611.3002" fill="none" id="o1-to-o9" style="stroke:#181818;stroke-width:1;"/><polygon fill="#181818" points="556.84,609.9583,547.1734,608.0725,551.9667,611.0766,548.9626,615.8698,556.84,609.9583" style="stroke:#181818;stroke-width:1;"/><text fill="#000000" font-family="sans-serif" font-size="13" lengthAdjust="spacing" textLength="219.3369" x="241.78" y="629.7666">bfo:has member part at some time</text></g><!--link o1 to o10--><g class="link" data-entity-1="o1" data-entity-2="o10" data-source-line="195" data-uid="lnk39" id="link_o1_o10"><path codeLine="195" d="M124.4,1008.1183 C158.48,934.4383 240.78,756.4883 240.78,756.4883 C240.78,756.4883 430.5689,713.3967 549.9789,686.2867" fill="none" id="o1-to-o10" style="stroke:#181818;stroke-width:1;"/><polygon fill="#181818" points="555.83,684.9583,546.1678,683.0501,550.9541,686.0653,547.9389,690.8516,555.83,684.9583" style="stroke:#181818;stroke-width:1;"/><text fill="#000000" font-family="sans-serif" font-size="13" lengthAdjust="spacing" textLength="219.3369" x="241.78" y="704.2966">bfo:has member part at some time</text></g><!--link o1 to o11--><g class="link" data-entity-1="o1" data-entity-2="o11" data-source-line="195" data-uid="lnk40" id="link_o1_o11"><path codeLine="195" d="M129.49,1008.0483 C166,949.4683 240.78,829.4883 240.78,829.4883 C240.78,829.4883 428.3727,787.8292 547.9527,761.2692" fill="none" id="o1-to-o11" style="stroke:#181818;stroke-width:1;"/><polygon fill="#181818" points="553.81,759.9683,544.1568,758.0149,548.9289,761.0524,545.8914,765.8246,553.81,759.9683" style="stroke:#181818;stroke-width:1;"/><text fill="#000000" font-family="sans-serif" font-size="13" lengthAdjust="spacing" textLength="219.3369" x="241.78" y="778.3566">bfo:has member part at some time</text></g><!--link o1 to o12--><g class="link" data-entity-1="o1" data-entity-2="o12" data-source-line="195" data-uid="lnk41" id="link_o1_o12"><path codeLine="195" d="M139.27,1008.0683 C177.86,966.7883 240.78,899.4883 240.78,899.4883 C240.78,899.4883 422.6578,861.3399 542.5678,836.1899" fill="none" id="o1-to-o12" style="stroke:#181818;stroke-width:1;"/><polygon fill="#181818" points="548.44,834.9583,538.8106,832.8909,543.5465,835.9847,540.4528,840.7206,548.44,834.9583" style="stroke:#181818;stroke-width:1;"/><text fill="#000000" font-family="sans-serif" font-size="13" lengthAdjust="spacing" textLength="219.3369" x="241.78" y="851.0066">bfo:has member part at some time</text></g><!--link o1 to o13--><g class="link" data-entity-1="o1" data-entity-2="o13" data-source-line="195" data-uid="lnk42" id="link_o1_o13"><path codeLine="195" d="M163.89,1008.1383 C199.94,987.1983 240.78,963.4883 240.78,963.4883 C240.78,963.4883 419.1376,930.9162 539.1676,908.9962" fill="none" id="o1-to-o13" style="stroke:#181818;stroke-width:1;"/><polygon fill="#181818" points="545.07,907.9183,535.4978,905.6002,540.1513,908.8165,536.935,913.4701,545.07,907.9183" style="stroke:#181818;stroke-width:1;"/><text fill="#000000" font-family="sans-serif" font-size="13" lengthAdjust="spacing" textLength="219.3369" x="241.78" y="920.8366">bfo:has member part at some time</text></g><!--link o1 to o14--><g class="link" data-entity-1="o1" data-entity-2="o14" data-source-line="195" data-uid="lnk43" id="link_o1_o14"><path codeLine="195" d="M211.08,1020.1583 C228.32,1016.8683 240.78,1014.4883 240.78,1014.4883 C240.78,1014.4883 420.4251,992.3228 540.4151,977.5228" fill="none" id="o1-to-o14" style="stroke:#181818;stroke-width:1;"/><polygon fill="#181818" points="546.37,976.7883,536.948,973.9201,541.4076,977.4004,537.9274,981.8599,546.37,976.7883" style="stroke:#181818;stroke-width:1;"/><text fill="#000000" font-family="sans-serif" font-size="13" lengthAdjust="spacing" textLength="219.3369" x="241.78" y="984.5566">bfo:has member part at some time</text></g><!--link o1 to o15--><g class="link" data-entity-1="o1" data-entity-2="o15" data-source-line="195" data-uid="lnk44" id="link_o1_o15"><path codeLine="195" d="M211.05,1039.4883 C306.79,1039.4883 443.7,1039.4883 539.3,1039.4883" fill="none" id="o1-to-o15" style="stroke:#181818;stroke-width:1;"/><polygon fill="#181818" points="545.3,1039.4883,536.3,1035.4883,540.3,1039.4883,536.3,1043.4883,545.3,1039.4883" style="stroke:#181818;stroke-width:1;"/><text fill="#000000" font-family="sans-serif" font-size="13" lengthAdjust="spacing" textLength="219.3369" x="241.78" y="1036.0566">bfo:has member part at some time</text></g><!--link o1 to o16--><g class="link" data-entity-1="o1" data-entity-2="o16" data-source-line="195" data-uid="lnk45" id="link_o1_o16"><path codeLine="195" d="M211.08,1058.8183 C228.32,1062.1083 240.78,1064.4883 240.78,1064.4883 C240.78,1064.4883 419.0851,1086.494 539.1151,1101.294" fill="none" id="o1-to-o16" style="stroke:#181818;stroke-width:1;"/><polygon fill="#181818" points="545.07,1102.0283,536.6271,1096.957,540.1076,1101.4164,535.6481,1104.8968,545.07,1102.0283" style="stroke:#181818;stroke-width:1;"/><text fill="#000000" font-family="sans-serif" font-size="13" lengthAdjust="spacing" textLength="219.3369" x="241.78" y="1061.0566">bfo:has member part at some time</text></g><!--link o1 to o17--><g class="link" data-entity-1="o1" data-entity-2="o17" data-source-line="195" data-uid="lnk46" id="link_o1_o17"><path codeLine="195" d="M163.89,1070.8383 C199.94,1091.7783 240.78,1115.4883 240.78,1115.4883 C240.78,1115.4883 419.1376,1148.0604 539.1676,1169.9804" fill="none" id="o1-to-o17" style="stroke:#181818;stroke-width:1;"/><polygon fill="#181818" points="545.07,1171.0583,536.935,1165.5065,540.1513,1170.16,535.4978,1173.3764,545.07,1171.0583" style="stroke:#181818;stroke-width:1;"/><text fill="#000000" font-family="sans-serif" font-size="13" lengthAdjust="spacing" textLength="219.3369" x="241.78" y="1112.0566">bfo:has member part at some time</text></g><!--link o1 to o18--><g class="link" data-entity-1="o1" data-entity-2="o18" data-source-line="195" data-uid="lnk47" id="link_o1_o18"><path codeLine="195" d="M139.27,1070.9083 C177.86,1112.1883 240.78,1179.4883 240.78,1179.4883 C240.78,1179.4883 414.1715,1220.5654 534.2415,1249.0054" fill="none" id="o1-to-o18" style="stroke:#181818;stroke-width:1;"/><polygon fill="#181818" points="540.08,1250.3883,532.2443,1244.4216,535.2146,1249.2359,530.4004,1252.2062,540.08,1250.3883" style="stroke:#181818;stroke-width:1;"/><text fill="#000000" font-family="sans-serif" font-size="13" lengthAdjust="spacing" textLength="219.3369" x="241.78" y="1176.0566">bfo:has member part at some time</text></g><!--link o1 to o19--><g class="link" data-entity-1="o1" data-entity-2="o19" data-source-line="195" data-uid="lnk48" id="link_o1_o19"><path codeLine="195" d="M128.92,1070.8983 C165.23,1130.8083 240.78,1255.4883 240.78,1255.4883 C240.78,1255.4883 491.78,1323.4883 491.78,1323.4883 C491.78,1323.4883 520.694,1330.6137 557.204,1339.6037" fill="none" id="o1-to-o19" style="stroke:#181818;stroke-width:1;"/><polygon fill="#181818" points="563.03,1341.0383,555.2474,1335.0025,558.175,1339.8428,553.3347,1342.7704,563.03,1341.0383" style="stroke:#181818;stroke-width:1;"/><text fill="#000000" font-family="sans-serif" font-size="13" lengthAdjust="spacing" textLength="219.3369" x="241.78" y="1252.0566">bfo:has member part at some time</text></g><!--link o1 to o20--><g class="link" data-entity-1="o1" data-entity-2="o20" data-source-line="195" data-uid="lnk49" id="link_o1_o20"><path codeLine="195" d="M123.53,1070.8483 C157.05,1147.9383 240.78,1340.4883 240.78,1340.4883 C240.78,1340.4883 434.7316,1386.4353 553.7416,1414.6253" fill="none" id="o1-to-o20" style="stroke:#181818;stroke-width:1;"/><polygon fill="#181818" points="559.58,1416.0083,551.7443,1410.0415,554.7146,1414.8558,549.9004,1417.8261,559.58,1416.0083" style="stroke:#181818;stroke-width:1;"/><text fill="#000000" font-family="sans-serif" font-size="13" lengthAdjust="spacing" textLength="219.3369" x="241.78" y="1337.0566">bfo:has member part at some time</text></g><!--link o1 to o21--><g class="link" data-entity-1="o1" data-entity-2="o21" data-source-line="195" data-uid="lnk50" id="link_o1_o21"><path codeLine="195" d="M120.83,1070.9783 C152.28,1161.5883 240.78,1416.4883 240.78,1416.4883 C240.78,1416.4883 433.6183,1461.6992 552.7483,1489.6192" fill="none" id="o1-to-o21" style="stroke:#181818;stroke-width:1;"/><polygon fill="#181818" points="558.59,1490.9883,550.7402,1485.0402,553.7219,1489.8474,548.9147,1492.8291,558.59,1490.9883" style="stroke:#181818;stroke-width:1;"/><text fill="#000000" font-family="sans-serif" font-size="13" lengthAdjust="spacing" textLength="219.3369" x="241.78" y="1413.0566">bfo:has member part at some time</text></g><!--link o1 to o22--><g class="link" data-entity-1="o1" data-entity-2="o22" data-source-line="195" data-uid="lnk51" id="link_o1_o22"><path codeLine="195" d="M118.99,1070.9083 C148.67,1173.4183 240.78,1491.4883 240.78,1491.4883 C240.78,1491.4883 433.6183,1536.6992 552.7483,1564.6192" fill="none" id="o1-to-o22" style="stroke:#181818;stroke-width:1;"/><polygon fill="#181818" points="558.59,1565.9883,550.7402,1560.0402,553.7219,1564.8474,548.9147,1567.8291,558.59,1565.9883" style="stroke:#181818;stroke-width:1;"/><text fill="#000000" font-family="sans-serif" font-size="13" lengthAdjust="spacing" textLength="219.3369" x="241.78" y="1488.0566">bfo:has member part at some time</text></g><!--link o1 to o23--><g class="link" data-entity-1="o1" data-entity-2="o23" data-source-line="195" data-uid="lnk52" id="link_o1_o23"><path codeLine="195" d="M117.69,1070.8783 C145.87,1184.3283 240.78,1566.4883 240.78,1566.4883 C240.78,1566.4883 433.6183,1611.6992 552.7483,1639.6192" fill="none" id="o1-to-o23" style="stroke:#181818;stroke-width:1;"/><polygon fill="#181818" points="558.59,1640.9883,550.7402,1635.0402,553.7219,1639.8474,548.9147,1642.8291,558.59,1640.9883" style="stroke:#181818;stroke-width:1;"/><text fill="#000000" font-family="sans-serif" font-size="13" lengthAdjust="spacing" textLength="219.3369" x="241.78" y="1563.0566">bfo:has member part at some time</text></g><!--link o1 to o24--><g class="link" data-entity-1="o1" data-entity-2="o24" data-source-line="195" data-uid="lnk53" id="link_o1_o24"><path codeLine="195" d="M116.65,1070.5883 C143.46,1193.8583 240.78,1641.4883 240.78,1641.4883 C240.78,1641.4883 433.6183,1686.6992 552.7483,1714.6192" fill="none" id="o1-to-o24" style="stroke:#181818;stroke-width:1;"/><polygon fill="#181818" points="558.59,1715.9883,550.7402,1710.0402,553.7219,1714.8474,548.9147,1717.8291,558.59,1715.9883" style="stroke:#181818;stroke-width:1;"/><text fill="#000000" font-family="sans-serif" font-size="13" lengthAdjust="spacing" textLength="219.3369" x="241.78" y="1638.0566">bfo:has member part at some time</text></g><!--link o1 to o25--><g class="link" data-entity-1="o1" data-entity-2="o25" data-source-line="195" data-uid="lnk54" id="link_o1_o25"><path codeLine="195" d="M115.94,1070.7883 C141.68,1203.9283 240.78,1716.4883 240.78,1716.4883 C240.78,1716.4883 433.6183,1761.6992 552.7483,1789.6192" fill="none" id="o1-to-o25" style="stroke:#181818;stroke-width:1;"/><polygon fill="#181818" points="558.59,1790.9883,550.7402,1785.0402,553.7219,1789.8474,548.9147,1792.8291,558.59,1790.9883" style="stroke:#181818;stroke-width:1;"/><text fill="#000000" font-family="sans-serif" font-size="13" lengthAdjust="spacing" textLength="219.3369" x="241.78" y="1713.0566">bfo:has member part at some time</text></g><!--link o1 to o26--><g class="link" data-entity-1="o1" data-entity-2="o26" data-source-line="195" data-uid="lnk55" id="link_o1_o26"><path codeLine="195" d="M115.35,1070.8483 C140.12,1213.1683 240.78,1791.4883 240.78,1791.4883 C240.78,1791.4883 433.6183,1836.6992 552.7483,1864.6192" fill="none" id="o1-to-o26" style="stroke:#181818;stroke-width:1;"/><polygon fill="#181818" points="558.59,1865.9883,550.7402,1860.0402,553.7219,1864.8474,548.9147,1867.8291,558.59,1865.9883" style="stroke:#181818;stroke-width:1;"/><text fill="#000000" font-family="sans-serif" font-size="13" lengthAdjust="spacing" textLength="219.3369" x="241.78" y="1788.0566">bfo:has member part at some time</text></g><!--link o1 to o27--><g class="link" data-entity-1="o1" data-entity-2="o27" data-source-line="195" data-uid="lnk56" id="link_o1_o27"><path codeLine="195" d="M114.86,1070.8983 C138.77,1221.9583 240.78,1866.4883 240.78,1866.4883 C240.78,1866.4883 433.6183,1911.6992 552.7483,1939.6192" fill="none" id="o1-to-o27" style="stroke:#181818;stroke-width:1;"/><polygon fill="#181818" points="558.59,1940.9883,550.7402,1935.0402,553.7219,1939.8474,548.9147,1942.8291,558.59,1940.9883" style="stroke:#181818;stroke-width:1;"/><text fill="#000000" font-family="sans-serif" font-size="13" lengthAdjust="spacing" textLength="219.3369" x="241.78" y="1863.0566">bfo:has member part at some time</text></g><!--link o1 to o28--><g class="link" data-entity-1="o1" data-entity-2="o28" data-source-line="195" data-uid="lnk57" id="link_o1_o28"><path codeLine="195" d="M114.43,1070.7983 C137.53,1229.9283 240.78,1941.4883 240.78,1941.4883 C240.78,1941.4883 433.6183,1986.6992 552.7483,2014.6192" fill="none" id="o1-to-o28" style="stroke:#181818;stroke-width:1;"/><polygon fill="#181818" points="558.59,2015.9883,550.7402,2010.0402,553.7219,2014.8474,548.9147,2017.8291,558.59,2015.9883" style="stroke:#181818;stroke-width:1;"/><text fill="#000000" font-family="sans-serif" font-size="13" lengthAdjust="spacing" textLength="219.3369" x="241.78" y="1938.0566">bfo:has member part at some time</text></g><!--link o18 to o29--><g class="link" data-entity-1="o18" data-entity-2="o29" data-source-line="195" data-uid="lnk58" id="link_o18_o29"><path codeLine="195" d="M753.86,1275.4883 C849.26,1275.4883 982.62,1275.4883 1076.95,1275.4883" fill="none" id="o18-to-o29" style="stroke:#181818;stroke-width:1;"/><polygon fill="#181818" points="1082.95,1275.4883,1073.95,1271.4883,1077.95,1275.4883,1073.95,1279.4883,1082.95,1275.4883" style="stroke:#181818;stroke-width:1;"/><text fill="#000000" font-family="sans-serif" font-size="13" lengthAdjust="spacing" textLength="219.3369" x="833.26" y="1272.0566">bfo:has member part at some time</text></g><!--SRC=[dPRVRzem483VyrTuqQGDYG8slv7sq9QoJOEjMZTDUwfCSe2tn8vifoMTzh_FWPOMT8F8l67VTxvSFbtyXhmICaho6CZAsioCcatDxnjBOLVvF3UW8oKjIDk8LDeKQg5o6UkYwHPLbgT9KyF2D5V0OzCSmnqaAajTT1dP46u_s6LlD9uNWmGMbbX5j5YkB8c5XiWA9GFpMyYCQvwIH4YmHGOaKqbH_Wcii0cGBv- -pyvde248NhsEOS7pnDxk4f1t95RtijoJF0MJyGXk8vKeRTpM7nBE5oeSXUF9UR_5mZe92FeBNQKkZ5uDMvF9aJ1fNDHx3I2F1b4NrU_rMeFpi1w4i7w6mfXR_c8tZ9I65oU7kHIsFEGYoI4C_WP2nk9En3bFtYfQ9oK-shIaGLcxq-tL2Qn7CnwjNCTgUz4CYJvRt_ArC1lenkeyiha-mDeOLfp4EXZsG4zoNPJhdEHw63S_YVKnB3fTvW3bs4bkY77JDTqmK_VEk9wfKkIRmbX8zs7QGkcV7olY5CKVAjAeFzFvblwgBDV54HhLQ1fLf3juvPrgbNVnircritiutQv6zt6wLuqUuBJTjktI3M6j4fJ4HRjKAk7IRWcNf1o78pN_vOPdU30jSDUk4XUgHRJBuCfuMkDe9GotxaCHQpUwzpCTB1uamWMSvlFoxESMFkfyk7oG3FVnMaAUEcYlgeF5WqIucbF5Oz1L-epB-OCxSYnCfinJMu-dmItzvjwtaCin9E8ET54b4Ixi1TSJW8gFX5eBxXgWZ1k8nyOZ6_vF-BDfXaX_pUsg5cHQPQ1jiVaYRkfQSKDIIEUWYRjDMC8jCIe5OaKAxakjM2qeZza0KIhDMMoM9VJPtHdgsok6Jzgs3zJnWRe-KCy7wlj00nzew0FHbXT5lIZcHNbPGRsqe5vUK2yng9SPr4iDwkK6ytA3URd1lDnWNcumBpUObnlComtcvGRRTsDG5Hlkfla06-UFNum4TEqV]--></g></svg>