<svg xmlns="http://www.w3.org/2000/svg" xmlns:xlink="http://www.w3.org/1999/xlink" contentStyleType="text/css" data-diagram-type="CLASS" height="912px" preserveAspectRatio="none" style="width:1979px;height:912px;background:#FFFFFF;" version="1.1" viewBox="0 0 1979 912" width="1979px" zoomAndPan="magnify"><title>OKUMA.123456-Lx1</title><defs/><g><text fill="#000000" font-family="sans-serif" font-size="14" font-weight="bold" lengthAdjust="spacing" textLength="148.251" x="908.7396" y="23.5352">OKUMA.123456-Lx1</text><g class="entity" data-entity="o1" data-source-line="4" data-uid="ent0002" id="entity_o1"><rect fill="#F1F1F1" height="44.9766" rx="2.5" ry="2.5" style="stroke:#181818;stroke-width:0.5;" width="218.7529" x="447.92" y="654.7283"/><a href="./OKUMA.123456-Lx1.html" target="_top" title="./OKUMA.123456-Lx1.html" xlink:actuate="onRequest" xlink:href="./OKUMA.123456-Lx1.html" xlink:show="new" xlink:title="./OKUMA.123456-Lx1.html" xlink:type="simple"><text fill="#0000FF" font-family="sans-serif" font-size="14" lengthAdjust="spacing" text-decoration="underline" textLength="175.9229" x="469.335" y="670.2634">data:OKUMA.123456-Lx1</text></a><line style="stroke:#181818;stroke-width:0.5;" x1="448.92" x2="665.6729" y1="675.2166" y2="675.2166"/><text fill="#000000" font-family="sans-serif" font-size="14" lengthAdjust="spacing" textLength="206.7529" x="453.92" y="692.7517">type = ex:LinearMotionSystem</text></g><g class="entity" data-entity="o2" data-source-line="7" data-uid="ent0003" id="entity_o2"><rect fill="#F1F1F1" height="61.4648" rx="2.5" ry="2.5" style="stroke:#181818;stroke-width:0.5;" width="254.8945" x="923.17" y="340.4883"/><text fill="#000000" font-family="sans-serif" font-size="14" lengthAdjust="spacing" textLength="221.3135" x="939.9605" y="356.0234">data:OKUMA.123456-Lx1-name</text><line style="stroke:#181818;stroke-width:0.5;" x1="924.17" x2="1177.0645" y1="360.9766" y2="360.9766"/><text fill="#000000" font-family="sans-serif" font-size="14" lengthAdjust="spacing" textLength="161.3691" x="929.17" y="378.5117">type = cmns-dsg:Name</text><text fill="#000000" font-family="sans-serif" font-size="14" lengthAdjust="spacing" textLength="242.8945" x="929.17" y="395">core:hasSimpleExpressionValue = X</text></g><g class="entity" data-entity="o3" data-source-line="10" data-uid="ent0004" id="entity_o3"><rect fill="#F1F1F1" height="44.9766" rx="2.5" ry="2.5" style="stroke:#181818;stroke-width:0.5;" width="228.9424" x="936.15" y="436.7283"/><text fill="#000000" font-family="sans-serif" font-size="14" lengthAdjust="spacing" textLength="214.9424" x="943.15" y="452.2634">data:OKUMA.123456-Lx1-spec</text><line style="stroke:#181818;stroke-width:0.5;" x1="937.15" x2="1164.0924" y1="457.2166" y2="457.2166"/><text fill="#000000" font-family="sans-serif" font-size="14" lengthAdjust="spacing" textLength="215.8037" x="942.15" y="474.7517">type = core:DesignSpecification</text></g><g class="entity" data-entity="o4" data-source-line="13" data-uid="ent0005" id="entity_o4"><rect fill="#F1F1F1" height="61.4648" rx="2.5" ry="2.5" style="stroke:#181818;stroke-width:0.5;" width="356.3232" x="1552.99" y="44.4883"/><text fill="#000000" font-family="sans-serif" font-size="14" lengthAdjust="spacing" textLength="342.3232" x="1559.99" y="60.0234">data:OKUMA.123456-Lx1-spec-LENGTH-Nominal</text><line style="stroke:#181818;stroke-width:0.5;" x1="1553.99" x2="1908.3132" y1="64.9766" y2="64.9766"/><text fill="#000000" font-family="sans-serif" font-size="14" lengthAdjust="spacing" textLength="194.4209" x="1558.99" y="82.5117">type = core:ValueExpression</text><text fill="#000000" font-family="sans-serif" font-size="14" lengthAdjust="spacing" textLength="273.9707" x="1558.99" y="99">core:hasSimpleExpressionValue = 650.0</text></g><g class="entity" data-entity="o5" data-source-line="16" data-uid="ent0006" id="entity_o5"><rect fill="#F1F1F1" height="61.4648" rx="2.5" ry="2.5" style="stroke:#181818;stroke-width:0.5;" width="411.8447" x="1525.23" y="140.4883"/><text fill="#000000" font-family="sans-serif" font-size="14" lengthAdjust="spacing" textLength="397.8447" x="1532.23" y="156.0234">data:OKUMA.123456-Lx1-spec-LINEAR_FORCE-Maximum</text><line style="stroke:#181818;stroke-width:0.5;" x1="1526.23" x2="1936.0747" y1="160.9766" y2="160.9766"/><text fill="#000000" font-family="sans-serif" font-size="14" lengthAdjust="spacing" textLength="194.4209" x="1531.23" y="178.5117">type = core:ValueExpression</text><text fill="#000000" font-family="sans-serif" font-size="14" lengthAdjust="spacing" textLength="282.8232" x="1531.23" y="195">core:hasSimpleExpressionValue = 5200.0</text></g><g class="entity" data-entity="o6" data-source-line="19" data-uid="ent0007" id="entity_o6"><rect fill="#F1F1F1" height="61.4648" rx="2.5" ry="2.5" style="stroke:#181818;stroke-width:0.5;" width="408.2627" x="1527.02" y="236.4883"/><text fill="#000000" font-family="sans-serif" font-size="14" lengthAdjust="spacing" textLength="394.2627" x="1534.02" y="252.0234">data:OKUMA.123456-Lx1-spec-LINEAR_FORCE-Minimum</text><line style="stroke:#181818;stroke-width:0.5;" x1="1528.02" x2="1934.2827" y1="256.9766" y2="256.9766"/><text fill="#000000" font-family="sans-serif" font-size="14" lengthAdjust="spacing" textLength="194.4209" x="1533.02" y="274.5117">type = core:ValueExpression</text><text fill="#000000" font-family="sans-serif" font-size="14" lengthAdjust="spacing" textLength="256.2656" x="1533.02" y="291">core:hasSimpleExpressionValue = 0.0</text></g><g class="entity" data-entity="o7" data-source-line="22" data-uid="ent0008" id="entity_o7"><rect fill="#F1F1F1" height="61.4648" rx="2.5" ry="2.5" style="stroke:#181818;stroke-width:0.5;" width="427.6426" x="1517.33" y="332.4883"/><text fill="#000000" font-family="sans-serif" font-size="14" lengthAdjust="spacing" textLength="413.6426" x="1524.33" y="348.0234">data:OKUMA.123456-Lx1-spec-VELOCITY-RAPID-Maximum</text><line style="stroke:#181818;stroke-width:0.5;" x1="1518.33" x2="1943.9726" y1="352.9766" y2="352.9766"/><text fill="#000000" font-family="sans-serif" font-size="14" lengthAdjust="spacing" textLength="194.4209" x="1523.33" y="370.5117">type = core:ValueExpression</text><text fill="#000000" font-family="sans-serif" font-size="14" lengthAdjust="spacing" textLength="282.8232" x="1523.33" y="387">core:hasSimpleExpressionValue = 7000.0</text></g><g class="entity" data-entity="o8" data-source-line="25" data-uid="ent0009" id="entity_o8"><rect fill="#F1F1F1" height="61.4648" rx="2.5" ry="2.5" style="stroke:#181818;stroke-width:0.5;" width="424.0605" x="1519.12" y="428.4883"/><text fill="#000000" font-family="sans-serif" font-size="14" lengthAdjust="spacing" textLength="410.0605" x="1526.12" y="444.0234">data:OKUMA.123456-Lx1-spec-VELOCITY-RAPID-Minimum</text><line style="stroke:#181818;stroke-width:0.5;" x1="1520.12" x2="1942.1805" y1="448.9766" y2="448.9766"/><text fill="#000000" font-family="sans-serif" font-size="14" lengthAdjust="spacing" textLength="194.4209" x="1525.12" y="466.5117">type = core:ValueExpression</text><text fill="#000000" font-family="sans-serif" font-size="14" lengthAdjust="spacing" textLength="256.2656" x="1525.12" y="483">core:hasSimpleExpressionValue = 1.0</text></g><g class="entity" data-entity="o9" data-source-line="28" data-uid="ent0010" id="entity_o9"><rect fill="#F1F1F1" height="61.4648" rx="2.5" ry="2.5" style="stroke:#181818;stroke-width:0.5;" width="485.1602" x="1488.57" y="524.4883"/><text fill="#000000" font-family="sans-serif" font-size="14" lengthAdjust="spacing" textLength="471.1602" x="1495.57" y="540.0234">data:OKUMA.123456-Lx1-spec-VELOCITY-PROGRAMMED-Maximum</text><line style="stroke:#181818;stroke-width:0.5;" x1="1489.57" x2="1972.7302" y1="544.9766" y2="544.9766"/><text fill="#000000" font-family="sans-serif" font-size="14" lengthAdjust="spacing" textLength="194.4209" x="1494.57" y="562.5117">type = core:ValueExpression</text><text fill="#000000" font-family="sans-serif" font-size="14" lengthAdjust="spacing" textLength="282.8232" x="1494.57" y="579">core:hasSimpleExpressionValue = 7000.0</text></g><g class="entity" data-entity="o10" data-source-line="31" data-uid="ent0011" id="entity_o10"><rect fill="#F1F1F1" height="61.4648" rx="2.5" ry="2.5" style="stroke:#181818;stroke-width:0.5;" width="481.5781" x="1490.36" y="620.4883"/><text fill="#000000" font-family="sans-serif" font-size="14" lengthAdjust="spacing" textLength="467.5781" x="1497.36" y="636.0234">data:OKUMA.123456-Lx1-spec-VELOCITY-PROGRAMMED-Minimum</text><line style="stroke:#181818;stroke-width:0.5;" x1="1491.36" x2="1970.9381" y1="640.9766" y2="640.9766"/><text fill="#000000" font-family="sans-serif" font-size="14" lengthAdjust="spacing" textLength="194.4209" x="1496.36" y="658.5117">type = core:ValueExpression</text><text fill="#000000" font-family="sans-serif" font-size="14" lengthAdjust="spacing" textLength="256.2656" x="1496.36" y="675">core:hasSimpleExpressionValue = 1.0</text></g><g class="entity" data-entity="o11" data-source-line="34" data-uid="ent0012" id="entity_o11"><rect fill="#F1F1F1" height="44.9766" rx="2.5" ry="2.5" style="stroke:#181818;stroke-width:0.5;" width="216.3984" x="942.42" y="620.7283"/><a href="./OKUMA.123456-z1_axis.html" target="_top" title="./OKUMA.123456-z1_axis.html" xlink:actuate="onRequest" xlink:href="./OKUMA.123456-z1_axis.html" xlink:show="new" xlink:title="./OKUMA.123456-z1_axis.html" xlink:type="simple"><text fill="#0000FF" font-family="sans-serif" font-size="14" lengthAdjust="spacing" text-decoration="underline" textLength="202.3984" x="949.42" y="636.2634">data:OKUMA.123456-z1_axis</text></a><line style="stroke:#181818;stroke-width:0.5;" x1="943.42" x2="1157.8184" y1="641.2166" y2="641.2166"/><text fill="#000000" font-family="sans-serif" font-size="14" lengthAdjust="spacing" textLength="131.7832" x="948.42" y="658.7517">type = ex:Structure</text></g><g class="entity" data-entity="o12" data-source-line="37" data-uid="ent0013" id="entity_o12"><rect fill="#F1F1F1" height="61.4648" rx="2.5" ry="2.5" style="stroke:#181818;stroke-width:0.5;" width="297.5098" x="1582.39" y="716.4883"/><text fill="#000000" font-family="sans-serif" font-size="14" lengthAdjust="spacing" textLength="247.7891" x="1607.2504" y="732.0234">data:OKUMA.123456-z1_axis-name</text><line style="stroke:#181818;stroke-width:0.5;" x1="1583.39" x2="1878.8998" y1="736.9766" y2="736.9766"/><text fill="#000000" font-family="sans-serif" font-size="14" lengthAdjust="spacing" textLength="161.3691" x="1588.39" y="754.5117">type = cmns-dsg:Name</text><text fill="#000000" font-family="sans-serif" font-size="14" lengthAdjust="spacing" textLength="285.5098" x="1588.39" y="771">core:hasSimpleExpressionValue = z1_axis</text></g><g class="entity" data-entity="o13" data-source-line="40" data-uid="ent0014" id="entity_o13"><rect fill="#F1F1F1" height="44.9766" rx="2.5" ry="2.5" style="stroke:#181818;stroke-width:0.5;" width="208.1064" x="946.57" y="700.7283"/><a href="./OKUMA.123456-x_axis.html" target="_top" title="./OKUMA.123456-x_axis.html" xlink:actuate="onRequest" xlink:href="./OKUMA.123456-x_axis.html" xlink:show="new" xlink:title="./OKUMA.123456-x_axis.html" xlink:type="simple"><text fill="#0000FF" font-family="sans-serif" font-size="14" lengthAdjust="spacing" text-decoration="underline" textLength="194.1064" x="953.57" y="716.2634">data:OKUMA.123456-x_axis</text></a><line style="stroke:#181818;stroke-width:0.5;" x1="947.57" x2="1153.6764" y1="721.2166" y2="721.2166"/><text fill="#000000" font-family="sans-serif" font-size="14" lengthAdjust="spacing" textLength="131.7832" x="952.57" y="738.7517">type = ex:Structure</text></g><g class="entity" data-entity="o14" data-source-line="43" data-uid="ent0015" id="entity_o14"><rect fill="#F1F1F1" height="61.4648" rx="2.5" ry="2.5" style="stroke:#181818;stroke-width:0.5;" width="289.2178" x="1586.54" y="812.4883"/><text fill="#000000" font-family="sans-serif" font-size="14" lengthAdjust="spacing" textLength="239.4971" x="1611.4004" y="828.0234">data:OKUMA.123456-x_axis-name</text><line style="stroke:#181818;stroke-width:0.5;" x1="1587.54" x2="1874.7578" y1="832.9766" y2="832.9766"/><text fill="#000000" font-family="sans-serif" font-size="14" lengthAdjust="spacing" textLength="161.3691" x="1592.54" y="850.5117">type = cmns-dsg:Name</text><text fill="#000000" font-family="sans-serif" font-size="14" lengthAdjust="spacing" textLength="277.2178" x="1592.54" y="867">core:hasSimpleExpressionValue = x_axis</text></g><g class="entity" data-entity="o15" data-source-line="46" data-uid="ent0016" id="entity_o15"><rect fill="#F1F1F1" height="44.9766" rx="2.5" ry="2.5" style="stroke:#181818;stroke-width:0.5;" width="258.5654" x="921.34" y="780.7283"/><text fill="#000000" font-family="sans-serif" font-size="14" lengthAdjust="spacing" textLength="240.29" x="930.4777" y="796.2634">data:OKUMA.123456-Lx1-function</text><line style="stroke:#181818;stroke-width:0.5;" x1="922.34" x2="1178.9054" y1="801.2166" y2="801.2166"/><text fill="#000000" font-family="sans-serif" font-size="14" lengthAdjust="spacing" textLength="246.5654" x="927.34" y="818.7517">type = ex:PrismaticMotionCapability</text></g><g class="entity" data-entity="o16" data-source-line="49" data-uid="ent0017" id="entity_o16"><rect fill="#F1F1F1" height="44.9766" rx="2.5" ry="2.5" style="stroke:#181818;stroke-width:0.5;" width="301.8955" x="899.67" y="860.7283"/><text fill="#000000" font-family="sans-serif" font-size="14" lengthAdjust="spacing" textLength="287.8955" x="906.67" y="876.2634">data:OKUMA.123456-Lx1-position-actual</text><line style="stroke:#181818;stroke-width:0.5;" x1="900.67" x2="1200.5655" y1="881.2166" y2="881.2166"/><text fill="#000000" font-family="sans-serif" font-size="14" lengthAdjust="spacing" textLength="163.2285" x="905.67" y="898.7517">type = qp:Displacement</text></g><g class="entity" data-entity="o17" data-source-line="52" data-uid="ent0018" id="entity_o17"><rect fill="#F1F1F1" height="44.9766" rx="2.5" ry="2.5" style="stroke:#181818;stroke-width:0.5;" width="156.9189" x="7" y="654.7283"/><a href="./OKUMA.123456.html" target="_top" title="./OKUMA.123456.html" xlink:actuate="onRequest" xlink:href="./OKUMA.123456.html" xlink:show="new" xlink:title="./OKUMA.123456.html" xlink:type="simple"><text fill="#0000FF" font-family="sans-serif" font-size="14" lengthAdjust="spacing" text-decoration="underline" textLength="142.9189" x="14" y="670.2634">data:OKUMA.123456</text></a><line style="stroke:#181818;stroke-width:0.5;" x1="8" x2="162.9189" y1="675.2166" y2="675.2166"/><text fill="#000000" font-family="sans-serif" font-size="14" lengthAdjust="spacing" textLength="126.1504" x="13" y="692.7517">type = ex:Machine</text></g><!--link o1 to o2--><g class="link" data-entity-1="o1" data-entity-2="o2" data-source-line="55" data-uid="lnk19" id="link_o1_o2"><path codeLine="55" d="M578.12,654.2983 C616.38,610.0583 696.67,517.2183 696.67,517.2183 C696.67,517.2183 899.67,419.2183 899.67,419.2183 C899.67,419.2183 917.7658,413.4279 946.4058,404.2579" fill="none" id="o1-to-o2" style="stroke:#181818;stroke-width:1;"/><polygon fill="#181818" points="952.12,402.4283,942.3289,401.3632,947.3581,403.9529,944.7684,408.9822,952.12,402.4283" style="stroke:#181818;stroke-width:1;"/><text fill="#000000" font-family="sans-serif" font-size="13" lengthAdjust="spacing" textLength="126.0771" x="720.17" y="432.2166">cmns-dsg:hasName</text></g><!--link o1 to o3--><g class="link" data-entity-1="o1" data-entity-2="o3" data-source-line="57" data-uid="lnk20" id="link_o1_o3"><path codeLine="57" d="M609.95,654.2983 C704.31,612.4383 898.0456,526.4717 992.4356,484.5917" fill="none" id="o1-to-o3" style="stroke:#181818;stroke-width:1;"/><polygon fill="#181818" points="997.92,482.1583,988.0711,482.1521,993.3497,484.1861,991.3157,489.4646,997.92,482.1583" style="stroke:#181818;stroke-width:1;"/><text fill="#000000" font-family="sans-serif" font-size="13" lengthAdjust="spacing" textLength="112.3027" x="727.17" y="538.8466">core:prescribedBy</text></g><!--link o3 to o4--><g class="link" data-entity-1="o3" data-entity-2="o4" data-source-line="58" data-uid="lnk21" id="link_o3_o4"><path codeLine="58" d="M1137.54,436.2983 C1171.04,427.3583 1201.57,419.2183 1201.57,419.2183 C1201.57,419.2183 1231.57,204.2183 1231.57,204.2183 C1231.57,204.2183 1488.57,123.2183 1488.57,123.2183 C1488.57,123.2183 1521.0351,116.7679 1567.1751,107.5979" fill="none" id="o3-to-o4" style="stroke:#181818;stroke-width:1;"/><polygon fill="#181818" points="1573.06,106.4283,1563.4529,104.2594,1568.1559,107.4029,1565.0124,112.1059,1573.06,106.4283" style="stroke:#181818;stroke-width:1;"/><text fill="#000000" font-family="sans-serif" font-size="13" lengthAdjust="spacing" textLength="225.0688" x="1232.57" y="129.8266">core:hasValueExpressionAtAllTimes</text></g><!--link o3 to o5--><g class="link" data-entity-1="o3" data-entity-2="o5" data-source-line="60" data-uid="lnk22" id="link_o3_o5"><path codeLine="60" d="M1137.54,436.2983 C1171.04,427.3583 1201.57,419.2183 1201.57,419.2183 C1201.57,419.2183 1231.57,298.2183 1231.57,298.2183 C1231.57,298.2183 1488.57,219.2183 1488.57,219.2183 C1488.57,219.2183 1521.0351,212.7679 1567.1751,203.5979" fill="none" id="o3-to-o5" style="stroke:#181818;stroke-width:1;"/><polygon fill="#181818" points="1573.06,202.4283,1563.4529,200.2594,1568.1559,203.4029,1565.0124,208.1059,1573.06,202.4283" style="stroke:#181818;stroke-width:1;"/><text fill="#000000" font-family="sans-serif" font-size="13" lengthAdjust="spacing" textLength="225.0688" x="1232.57" y="225.5766">core:hasValueExpressionAtAllTimes</text></g><!--link o3 to o6--><g class="link" data-entity-1="o3" data-entity-2="o6" data-source-line="62" data-uid="lnk23" id="link_o3_o6"><path codeLine="62" d="M1137.54,436.2983 C1171.04,427.3583 1201.57,419.2183 1201.57,419.2183 C1201.57,419.2183 1231.57,377.2183 1231.57,377.2183 C1231.57,377.2183 1488.57,315.2183 1488.57,315.2183 C1488.57,315.2183 1521.0351,308.7679 1567.1751,299.5979" fill="none" id="o3-to-o6" style="stroke:#181818;stroke-width:1;"/><polygon fill="#181818" points="1573.06,298.4283,1563.4529,296.2594,1568.1559,299.4029,1565.0124,304.1059,1573.06,298.4283" style="stroke:#181818;stroke-width:1;"/><text fill="#000000" font-family="sans-serif" font-size="13" lengthAdjust="spacing" textLength="225.0688" x="1232.57" y="319.4666">core:hasValueExpressionAtAllTimes</text></g><!--link o3 to o7--><g class="link" data-entity-1="o3" data-entity-2="o7" data-source-line="64" data-uid="lnk24" id="link_o3_o7"><path codeLine="64" d="M1165.57,443.0983 C1261.26,429.5583 1394.6592,410.6891 1510.9592,394.2291" fill="none" id="o3-to-o7" style="stroke:#181818;stroke-width:1;"/><polygon fill="#181818" points="1516.9,393.3883,1507.4283,390.689,1511.9493,394.089,1508.5493,398.61,1516.9,393.3883" style="stroke:#181818;stroke-width:1;"/><text fill="#000000" font-family="sans-serif" font-size="13" lengthAdjust="spacing" textLength="225.0688" x="1232.57" y="399.1866">core:hasValueExpressionAtAllTimes</text></g><!--link o3 to o8--><g class="link" data-entity-1="o3" data-entity-2="o8" data-source-line="66" data-uid="lnk25" id="link_o3_o8"><path codeLine="66" d="M1165.57,459.2183 C1261.73,459.2183 1395.97,459.2183 1512.62,459.2183" fill="none" id="o3-to-o8" style="stroke:#181818;stroke-width:1;"/><polygon fill="#181818" points="1518.62,459.2183,1509.62,455.2183,1513.62,459.2183,1509.62,463.2183,1518.62,459.2183" style="stroke:#181818;stroke-width:1;"/><text fill="#000000" font-family="sans-serif" font-size="13" lengthAdjust="spacing" textLength="225.0688" x="1232.57" y="455.7866">core:hasValueExpressionAtAllTimes</text></g><!--link o3 to o9--><g class="link" data-entity-1="o3" data-entity-2="o9" data-source-line="68" data-uid="lnk26" id="link_o3_o9"><path codeLine="68" d="M1165.57,475.3383 C1259.28,488.5983 1388.9091,506.9379 1503.7091,523.1779" fill="none" id="o3-to-o9" style="stroke:#181818;stroke-width:1;"/><polygon fill="#181818" points="1509.65,524.0183,1501.299,518.7971,1504.6993,523.3179,1500.1784,526.7182,1509.65,524.0183" style="stroke:#181818;stroke-width:1;"/><text fill="#000000" font-family="sans-serif" font-size="13" lengthAdjust="spacing" textLength="225.0688" x="1232.57" y="481.5366">core:hasValueExpressionAtAllTimes</text></g><!--link o3 to o10--><g class="link" data-entity-1="o3" data-entity-2="o10" data-source-line="70" data-uid="lnk27" id="link_o3_o10"><path codeLine="70" d="M1101.75,482.0583 C1154.99,506.3283 1231.57,541.2183 1231.57,541.2183 C1231.57,541.2183 1488.57,603.2183 1488.57,603.2183 C1488.57,603.2183 1521.0351,609.6687 1567.1751,618.8387" fill="none" id="o3-to-o10" style="stroke:#181818;stroke-width:1;"/><polygon fill="#181818" points="1573.06,620.0083,1565.0124,614.3306,1568.1559,619.0336,1563.4529,622.1772,1573.06,620.0083" style="stroke:#181818;stroke-width:1;"/><text fill="#000000" font-family="sans-serif" font-size="13" lengthAdjust="spacing" textLength="225.0688" x="1232.57" y="537.7866">core:hasValueExpressionAtAllTimes</text></g><!--link o1 to o11--><g class="link" data-entity-1="o1" data-entity-2="o11" data-source-line="72" data-uid="lnk28" id="link_o1_o11"><path codeLine="72" d="M667.03,669.6983 C748.86,664.0283 854.4843,656.7223 936.0343,651.0823" fill="none" id="o1-to-o11" style="stroke:#181818;stroke-width:1;"/><polygon fill="#181818" points="942.02,650.6683,932.7655,647.2988,937.0319,651.0133,933.3174,655.2797,942.02,650.6683" style="stroke:#181818;stroke-width:1;"/><text fill="#000000" font-family="sans-serif" font-size="13" lengthAdjust="spacing" textLength="74.7246" x="746.17" y="652.7466">ex:joinedTo</text></g><!--link o11 to o12--><g class="link" data-entity-1="o11" data-entity-2="o12" data-source-line="73" data-uid="lnk29" id="link_o11_o12"><path codeLine="73" d="M1137.54,666.1383 C1171.04,675.0783 1201.57,683.2183 1201.57,683.2183 C1201.57,683.2183 1231.57,711.2183 1231.57,711.2183 C1231.57,711.2183 1428.9556,725.4763 1575.9256,736.0863" fill="none" id="o11-to-o12" style="stroke:#181818;stroke-width:1;"/><polygon fill="#181818" points="1581.91,736.5183,1573.2214,731.8806,1576.923,736.1583,1572.6453,739.8599,1581.91,736.5183" style="stroke:#181818;stroke-width:1;"/><text fill="#000000" font-family="sans-serif" font-size="13" lengthAdjust="spacing" textLength="126.0771" x="1282.07" y="707.7866">cmns-dsg:hasName</text></g><!--link o1 to o13--><g class="link" data-entity-1="o1" data-entity-2="o13" data-source-line="75" data-uid="lnk30" id="link_o1_o13"><path codeLine="75" d="M666.99,688.9983 C684.32,690.8783 696.67,692.2183 696.67,692.2183 C696.67,692.2183 835.983,704.4532 940.133,713.6032" fill="none" id="o1-to-o13" style="stroke:#181818;stroke-width:1;"/><polygon fill="#181818" points="946.11,714.1283,937.4946,709.356,941.1292,713.6907,936.7945,717.3253,946.11,714.1283" style="stroke:#181818;stroke-width:1;"/><text fill="#000000" font-family="sans-serif" font-size="13" lengthAdjust="spacing" textLength="74.7246" x="746.17" y="688.7866">ex:joinedTo</text></g><!--link o13 to o14--><g class="link" data-entity-1="o13" data-entity-2="o14" data-source-line="76" data-uid="lnk31" id="link_o13_o14"><path codeLine="76" d="M1155.04,741.5083 C1270.14,761.8683 1451.0117,793.8535 1580.3417,816.7235" fill="none" id="o13-to-o14" style="stroke:#181818;stroke-width:1;"/><polygon fill="#181818" points="1586.25,817.7683,1578.084,812.2622,1581.3264,816.8976,1576.691,820.14,1586.25,817.7683" style="stroke:#181818;stroke-width:1;"/><text fill="#000000" font-family="sans-serif" font-size="13" lengthAdjust="spacing" textLength="126.0771" x="1282.07" y="751.9666">cmns-dsg:hasName</text></g><!--link o1 to o15--><g class="link" data-entity-1="o1" data-entity-2="o15" data-source-line="78" data-uid="lnk32" id="link_o1_o15"><path codeLine="78" d="M615.78,700.0683 C653.8,715.1783 696.67,732.2183 696.67,732.2183 C696.67,732.2183 826.5179,758.3347 929.6379,779.0847" fill="none" id="o1-to-o15" style="stroke:#181818;stroke-width:1;"/><polygon fill="#181818" points="935.52,780.2683,927.4859,774.5715,930.6183,779.2819,925.9078,782.4143,935.52,780.2683" style="stroke:#181818;stroke-width:1;"/><text fill="#000000" font-family="sans-serif" font-size="13" lengthAdjust="spacing" textLength="107.6309" x="729.67" y="728.7866">core:hasFunction</text></g><!--link o1 to o16--><g class="link" data-entity-1="o1" data-entity-2="o16" data-source-line="79" data-uid="lnk33" id="link_o1_o16"><path codeLine="79" d="M586.3,700.0883 C626.73,733.1083 696.67,790.2183 696.67,790.2183 C696.67,790.2183 852.5179,831.2899 957.0279,858.8199" fill="none" id="o1-to-o16" style="stroke:#181818;stroke-width:1;"/><polygon fill="#181818" points="962.83,860.3483,955.1458,854.1877,957.9949,859.0746,953.108,861.9238,962.83,860.3483" style="stroke:#181818;stroke-width:1;"/><text fill="#000000" font-family="sans-serif" font-size="13" lengthAdjust="spacing" textLength="171.3169" x="697.67" y="786.7866">core:measuresAtSomeTime</text></g><!--link o17 to o1--><g class="link" data-entity-1="o17" data-entity-2="o1" data-source-line="80" data-uid="lnk34" id="link_o17_o1"><path codeLine="80" d="M164.31,677.2183 C241.63,677.2183 354.85,677.2183 441.52,677.2183" fill="none" id="o17-to-o1" style="stroke:#181818;stroke-width:1;"/><polygon fill="#181818" points="447.52,677.2183,438.52,673.2183,442.52,677.2183,438.52,681.2183,447.52,677.2183" style="stroke:#181818;stroke-width:1;"/><text fill="#000000" font-family="sans-serif" font-size="13" lengthAdjust="spacing" textLength="222.5425" x="194.92" y="673.7866">obo:has member part at some time</text></g><!--SRC=[jPRRZjem48RlynJMteSI81mYjL8AsIqg9m5TjLgjLYOOy3QEqzX8OQk-U-q4GX9EPhLSuXc-_v_Hp03xZVq0Xf003_k8Rm840kfjv0VDGmiEE0KXNguucECGkHnJN-EOUmWCl__esoMZKgsPTRqN6HgTlOe4SFVqLFfK39PMd7XW3ZcqYg7dvpi06Q06-Ak1sC1dW2Ah9np0i4-bucJ3E28Q-9Tg72NfFYGeWLKoC9VuJ9-pfJKGuSiG5Y0tWLIp41eYguCONleJaO0Ns8LnCvHuUiyPF4o_wGDAi0-z15yhuX-XjqPE58I8iIlGtO5ZZr_kX-Ese_TXXCcQ90BcBGImlnUeVup0ezCRjhlJN_hO7dKx-HeQjv78Lj7yO8dHUFWmjljzfr1AwuOwsNgCyXL21ylwPhm8q-pKmcx3wT8MjdR2mxNBr-65FTjICWjhA6tiWTlehDaexxNwBg_HWTNQ-u_BOkt7DtHBClEEHY5cH9mLDpbxRHZ06VOmtrm61vHX-HqTYf9s5yR8BkYVmEfW5dZGHGJv_5nRJ_GpRMGZRxiFtPNylP140-Zw5tb_hNrhLf35tKbUvK2AbmacWPSPodX61UzdogZkicMA6-8Pcd_TQE8vZjOohC9yszpsl2acY6cvj5EITRDSAgTWKmriAe3DIZbBhgkHwmhaBBQXXcqeO1lbdE6c6hcfG3Oos9OQjdMzON7wbD2vlBEMjxCexfmbH_sLYa6VJwacNvB8yL4tL6PzUmRtAjK3bLrXjUCgAkCT5KIoatk_lKVxQ3fz144cZYEp-OGI91kdoSrFiaGIdL5900IH6Gg1-1F90UI0YMJ0HVP_]--></g></svg>