<svg xmlns="http://www.w3.org/2000/svg" xmlns:xlink="http://www.w3.org/1999/xlink" contentStyleType="text/css" data-diagram-type="CLASS" height="896px" preserveAspectRatio="none" style="width:1978px;height:896px;background:#FFFFFF;" version="1.1" viewBox="0 0 1978 896" width="1978px" zoomAndPan="magnify"><title>OKUMA.123456-Lz4</title><defs/><g><text fill="#000000" font-family="sans-serif" font-size="14" font-weight="bold" lengthAdjust="spacing" textLength="148.251" x="908.1793" y="23.5352">OKUMA.123456-Lz4</text><g class="entity" data-entity="o1" data-source-line="4" data-uid="ent0002" id="entity_o1"><rect fill="#F1F1F1" height="44.9766" rx="2.5" ry="2.5" style="stroke:#181818;stroke-width:0.5;" width="218.7529" x="447.92" y="638.4883"/><a href="./OKUMA.123456-Lz4.html" target="_top" title="./OKUMA.123456-Lz4.html" xlink:actuate="onRequest" xlink:href="./OKUMA.123456-Lz4.html" xlink:show="new" xlink:title="./OKUMA.123456-Lz4.html" xlink:type="simple"><text fill="#0000FF" font-family="sans-serif" font-size="14" lengthAdjust="spacing" text-decoration="underline" textLength="175.3623" x="469.6153" y="654.0234">data:OKUMA.123456-Lz4</text></a><line style="stroke:#181818;stroke-width:0.5;" x1="448.92" x2="665.6729" y1="658.9766" y2="658.9766"/><text fill="#000000" font-family="sans-serif" font-size="14" lengthAdjust="spacing" textLength="206.7529" x="453.92" y="676.5117">type = ex:LinearMotionSystem</text></g><g class="entity" data-entity="o2" data-source-line="7" data-uid="ent0003" id="entity_o2"><rect fill="#F1F1F1" height="61.4648" rx="2.5" ry="2.5" style="stroke:#181818;stroke-width:0.5;" width="263.4463" x="918.62" y="268.2483"/><text fill="#000000" font-family="sans-serif" font-size="14" lengthAdjust="spacing" textLength="220.7529" x="939.9667" y="283.7834">data:OKUMA.123456-Lz4-name</text><line style="stroke:#181818;stroke-width:0.5;" x1="919.62" x2="1181.0663" y1="288.7366" y2="288.7366"/><text fill="#000000" font-family="sans-serif" font-size="14" lengthAdjust="spacing" textLength="161.3691" x="924.62" y="306.2717">type = cmns-dsg:Name</text><text fill="#000000" font-family="sans-serif" font-size="14" lengthAdjust="spacing" textLength="251.4463" x="924.62" y="322.76">core:hasSimpleExpressionValue = Z4</text></g><g class="entity" data-entity="o3" data-source-line="10" data-uid="ent0004" id="entity_o3"><rect fill="#F1F1F1" height="44.9766" rx="2.5" ry="2.5" style="stroke:#181818;stroke-width:0.5;" width="228.3818" x="936.15" y="364.4883"/><text fill="#000000" font-family="sans-serif" font-size="14" lengthAdjust="spacing" textLength="214.3818" x="943.15" y="380.0234">data:OKUMA.123456-Lz4-spec</text><line style="stroke:#181818;stroke-width:0.5;" x1="937.15" x2="1163.5318" y1="384.9766" y2="384.9766"/><text fill="#000000" font-family="sans-serif" font-size="14" lengthAdjust="spacing" textLength="215.8037" x="942.15" y="402.5117">type = core:DesignSpecification</text></g><g class="entity" data-entity="o4" data-source-line="13" data-uid="ent0005" id="entity_o4"><rect fill="#F1F1F1" height="44.9766" rx="2.5" ry="2.5" style="stroke:#181818;stroke-width:0.5;" width="355.7627" x="1552.43" y="44.4883"/><text fill="#000000" font-family="sans-serif" font-size="14" lengthAdjust="spacing" textLength="341.7627" x="1559.43" y="60.0234">data:OKUMA.123456-Lz4-spec-LENGTH-Nominal</text><line style="stroke:#181818;stroke-width:0.5;" x1="1553.43" x2="1907.1927" y1="64.9766" y2="64.9766"/><text fill="#000000" font-family="sans-serif" font-size="14" lengthAdjust="spacing" textLength="194.4209" x="1558.43" y="82.5117">type = core:ValueExpression</text></g><g class="entity" data-entity="o5" data-source-line="16" data-uid="ent0006" id="entity_o5"><rect fill="#F1F1F1" height="44.9766" rx="2.5" ry="2.5" style="stroke:#181818;stroke-width:0.5;" width="411.2842" x="1524.66" y="124.4883"/><text fill="#000000" font-family="sans-serif" font-size="14" lengthAdjust="spacing" textLength="397.2842" x="1531.66" y="140.0234">data:OKUMA.123456-Lz4-spec-LINEAR_FORCE-Maximum</text><line style="stroke:#181818;stroke-width:0.5;" x1="1525.66" x2="1934.9442" y1="144.9766" y2="144.9766"/><text fill="#000000" font-family="sans-serif" font-size="14" lengthAdjust="spacing" textLength="194.4209" x="1530.66" y="162.5117">type = core:ValueExpression</text></g><g class="entity" data-entity="o6" data-source-line="19" data-uid="ent0007" id="entity_o6"><rect fill="#F1F1F1" height="44.9766" rx="2.5" ry="2.5" style="stroke:#181818;stroke-width:0.5;" width="407.7021" x="1526.46" y="204.4883"/><text fill="#000000" font-family="sans-serif" font-size="14" lengthAdjust="spacing" textLength="393.7021" x="1533.46" y="220.0234">data:OKUMA.123456-Lz4-spec-LINEAR_FORCE-Minimum</text><line style="stroke:#181818;stroke-width:0.5;" x1="1527.46" x2="1933.1621" y1="224.9766" y2="224.9766"/><text fill="#000000" font-family="sans-serif" font-size="14" lengthAdjust="spacing" textLength="194.4209" x="1532.46" y="242.5117">type = core:ValueExpression</text></g><g class="entity" data-entity="o7" data-source-line="22" data-uid="ent0008" id="entity_o7"><rect fill="#F1F1F1" height="44.9766" rx="2.5" ry="2.5" style="stroke:#181818;stroke-width:0.5;" width="427.082" x="1516.77" y="284.4883"/><text fill="#000000" font-family="sans-serif" font-size="14" lengthAdjust="spacing" textLength="413.082" x="1523.77" y="300.0234">data:OKUMA.123456-Lz4-spec-VELOCITY-RAPID-Maximum</text><line style="stroke:#181818;stroke-width:0.5;" x1="1517.77" x2="1942.852" y1="304.9766" y2="304.9766"/><text fill="#000000" font-family="sans-serif" font-size="14" lengthAdjust="spacing" textLength="194.4209" x="1522.77" y="322.5117">type = core:ValueExpression</text></g><g class="entity" data-entity="o8" data-source-line="25" data-uid="ent0009" id="entity_o8"><rect fill="#F1F1F1" height="44.9766" rx="2.5" ry="2.5" style="stroke:#181818;stroke-width:0.5;" width="423.5" x="1518.56" y="364.4883"/><text fill="#000000" font-family="sans-serif" font-size="14" lengthAdjust="spacing" textLength="409.5" x="1525.56" y="380.0234">data:OKUMA.123456-Lz4-spec-VELOCITY-RAPID-Minimum</text><line style="stroke:#181818;stroke-width:0.5;" x1="1519.56" x2="1941.06" y1="384.9766" y2="384.9766"/><text fill="#000000" font-family="sans-serif" font-size="14" lengthAdjust="spacing" textLength="194.4209" x="1524.56" y="402.5117">type = core:ValueExpression</text></g><g class="entity" data-entity="o9" data-source-line="28" data-uid="ent0010" id="entity_o9"><rect fill="#F1F1F1" height="44.9766" rx="2.5" ry="2.5" style="stroke:#181818;stroke-width:0.5;" width="484.5996" x="1488.01" y="444.4883"/><text fill="#000000" font-family="sans-serif" font-size="14" lengthAdjust="spacing" textLength="470.5996" x="1495.01" y="460.0234">data:OKUMA.123456-Lz4-spec-VELOCITY-PROGRAMMED-Maximum</text><line style="stroke:#181818;stroke-width:0.5;" x1="1489.01" x2="1971.6096" y1="464.9766" y2="464.9766"/><text fill="#000000" font-family="sans-serif" font-size="14" lengthAdjust="spacing" textLength="194.4209" x="1494.01" y="482.5117">type = core:ValueExpression</text></g><g class="entity" data-entity="o10" data-source-line="31" data-uid="ent0011" id="entity_o10"><rect fill="#F1F1F1" height="44.9766" rx="2.5" ry="2.5" style="stroke:#181818;stroke-width:0.5;" width="481.0176" x="1489.8" y="524.4883"/><text fill="#000000" font-family="sans-serif" font-size="14" lengthAdjust="spacing" textLength="467.0176" x="1496.8" y="540.0234">data:OKUMA.123456-Lz4-spec-VELOCITY-PROGRAMMED-Minimum</text><line style="stroke:#181818;stroke-width:0.5;" x1="1490.8" x2="1969.8176" y1="544.9766" y2="544.9766"/><text fill="#000000" font-family="sans-serif" font-size="14" lengthAdjust="spacing" textLength="194.4209" x="1495.8" y="562.5117">type = core:ValueExpression</text></g><g class="entity" data-entity="o11" data-source-line="34" data-uid="ent0012" id="entity_o11"><rect fill="#F1F1F1" height="44.9766" rx="2.5" ry="2.5" style="stroke:#181818;stroke-width:0.5;" width="230.6787" x="935" y="604.4883"/><a href="./OKUMA.123456-enclosure.html" target="_top" title="./OKUMA.123456-enclosure.html" xlink:actuate="onRequest" xlink:href="./OKUMA.123456-enclosure.html" xlink:show="new" xlink:title="./OKUMA.123456-enclosure.html" xlink:type="simple"><text fill="#0000FF" font-family="sans-serif" font-size="14" lengthAdjust="spacing" text-decoration="underline" textLength="216.6787" x="942" y="620.0234">data:OKUMA.123456-enclosure</text></a><line style="stroke:#181818;stroke-width:0.5;" x1="936" x2="1164.6787" y1="624.9766" y2="624.9766"/><text fill="#000000" font-family="sans-serif" font-size="14" lengthAdjust="spacing" textLength="131.7832" x="941" y="642.5117">type = ex:Structure</text></g><g class="entity" data-entity="o12" data-source-line="37" data-uid="ent0013" id="entity_o12"><rect fill="#F1F1F1" height="44.9766" rx="2.5" ry="2.5" style="stroke:#181818;stroke-width:0.5;" width="276.0693" x="1592.27" y="604.4883"/><text fill="#000000" font-family="sans-serif" font-size="14" lengthAdjust="spacing" textLength="262.0693" x="1599.27" y="620.0234">data:OKUMA.123456-enclosure-name</text><line style="stroke:#181818;stroke-width:0.5;" x1="1593.27" x2="1867.3393" y1="624.9766" y2="624.9766"/><text fill="#000000" font-family="sans-serif" font-size="14" lengthAdjust="spacing" textLength="161.3691" x="1598.27" y="642.5117">type = cmns-dsg:Name</text></g><g class="entity" data-entity="o13" data-source-line="40" data-uid="ent0014" id="entity_o13"><rect fill="#F1F1F1" height="44.9766" rx="2.5" ry="2.5" style="stroke:#181818;stroke-width:0.5;" width="322.4102" x="1569.1" y="684.4883"/><text fill="#000000" font-family="sans-serif" font-size="14" lengthAdjust="spacing" textLength="308.4102" x="1576.1" y="700.0234">data:OKUMA.123456-enclosure-temperature</text><line style="stroke:#181818;stroke-width:0.5;" x1="1570.1" x2="1890.5102" y1="704.9766" y2="704.9766"/><text fill="#000000" font-family="sans-serif" font-size="14" lengthAdjust="spacing" textLength="158.4502" x="1575.1" y="722.5117">type = qp:Temperature</text></g><g class="entity" data-entity="o14" data-source-line="43" data-uid="ent0015" id="entity_o14"><rect fill="#F1F1F1" height="44.9766" rx="2.5" ry="2.5" style="stroke:#181818;stroke-width:0.5;" width="216.3984" x="942.14" y="684.4883"/><a href="./OKUMA.123456-z4_axis.html" target="_top" title="./OKUMA.123456-z4_axis.html" xlink:actuate="onRequest" xlink:href="./OKUMA.123456-z4_axis.html" xlink:show="new" xlink:title="./OKUMA.123456-z4_axis.html" xlink:type="simple"><text fill="#0000FF" font-family="sans-serif" font-size="14" lengthAdjust="spacing" text-decoration="underline" textLength="202.3984" x="949.14" y="700.0234">data:OKUMA.123456-z4_axis</text></a><line style="stroke:#181818;stroke-width:0.5;" x1="943.14" x2="1157.5384" y1="704.9766" y2="704.9766"/><text fill="#000000" font-family="sans-serif" font-size="14" lengthAdjust="spacing" textLength="131.7832" x="948.14" y="722.5117">type = ex:Structure</text></g><g class="entity" data-entity="o15" data-source-line="46" data-uid="ent0016" id="entity_o15"><rect fill="#F1F1F1" height="44.9766" rx="2.5" ry="2.5" style="stroke:#181818;stroke-width:0.5;" width="261.7891" x="1599.41" y="764.4883"/><text fill="#000000" font-family="sans-serif" font-size="14" lengthAdjust="spacing" textLength="247.7891" x="1606.41" y="780.0234">data:OKUMA.123456-z4_axis-name</text><line style="stroke:#181818;stroke-width:0.5;" x1="1600.41" x2="1860.1991" y1="784.9766" y2="784.9766"/><text fill="#000000" font-family="sans-serif" font-size="14" lengthAdjust="spacing" textLength="161.3691" x="1605.41" y="802.5117">type = cmns-dsg:Name</text></g><g class="entity" data-entity="o16" data-source-line="49" data-uid="ent0017" id="entity_o16"><rect fill="#F1F1F1" height="44.9766" rx="2.5" ry="2.5" style="stroke:#181818;stroke-width:0.5;" width="258.5654" x="921.06" y="764.4883"/><text fill="#000000" font-family="sans-serif" font-size="14" lengthAdjust="spacing" textLength="239.7295" x="930.478" y="780.0234">data:OKUMA.123456-Lz4-function</text><line style="stroke:#181818;stroke-width:0.5;" x1="922.06" x2="1178.6254" y1="784.9766" y2="784.9766"/><text fill="#000000" font-family="sans-serif" font-size="14" lengthAdjust="spacing" textLength="246.5654" x="927.06" y="802.5117">type = ex:PrismaticMotionCapability</text></g><g class="entity" data-entity="o17" data-source-line="52" data-uid="ent0018" id="entity_o17"><rect fill="#F1F1F1" height="44.9766" rx="2.5" ry="2.5" style="stroke:#181818;stroke-width:0.5;" width="301.335" x="899.67" y="844.4883"/><text fill="#000000" font-family="sans-serif" font-size="14" lengthAdjust="spacing" textLength="287.335" x="906.67" y="860.0234">data:OKUMA.123456-Lz4-position-actual</text><line style="stroke:#181818;stroke-width:0.5;" x1="900.67" x2="1200.005" y1="864.9766" y2="864.9766"/><text fill="#000000" font-family="sans-serif" font-size="14" lengthAdjust="spacing" textLength="163.2285" x="905.67" y="882.5117">type = qp:Displacement</text></g><g class="entity" data-entity="o18" data-source-line="55" data-uid="ent0019" id="entity_o18"><rect fill="#F1F1F1" height="44.9766" rx="2.5" ry="2.5" style="stroke:#181818;stroke-width:0.5;" width="156.9189" x="7" y="638.4883"/><a href="./OKUMA.123456.html" target="_top" title="./OKUMA.123456.html" xlink:actuate="onRequest" xlink:href="./OKUMA.123456.html" xlink:show="new" xlink:title="./OKUMA.123456.html" xlink:type="simple"><text fill="#0000FF" font-family="sans-serif" font-size="14" lengthAdjust="spacing" text-decoration="underline" textLength="142.9189" x="14" y="654.0234">data:OKUMA.123456</text></a><line style="stroke:#181818;stroke-width:0.5;" x1="8" x2="162.9189" y1="658.9766" y2="658.9766"/><text fill="#000000" font-family="sans-serif" font-size="14" lengthAdjust="spacing" textLength="126.1504" x="13" y="676.5117">type = ex:Machine</text></g><!--link o1 to o2--><g class="link" data-entity-1="o1" data-entity-2="o2" data-source-line="58" data-uid="lnk20" id="link_o1_o2"><path codeLine="58" d="M574.44,638.2283 C610.94,586.7883 696.67,465.9783 696.67,465.9783 C696.67,465.9783 899.67,346.9783 899.67,346.9783 C899.67,346.9783 917.7167,341.1908 946.3067,332.0208" fill="none" id="o1-to-o2" style="stroke:#181818;stroke-width:1;"/><polygon fill="#181818" points="952.02,330.1883,942.2284,329.1282,947.2589,331.7154,944.6717,336.7459,952.02,330.1883" style="stroke:#181818;stroke-width:1;"/><text fill="#000000" font-family="sans-serif" font-size="13" lengthAdjust="spacing" textLength="126.0771" x="720.17" y="363.4966">cmns-dsg:hasName</text></g><!--link o1 to o3--><g class="link" data-entity-1="o1" data-entity-2="o3" data-source-line="60" data-uid="lnk21" id="link_o1_o3"><path codeLine="60" d="M599.32,638.0883 C691.86,586.4483 910.7602,464.3014 1003.2002,412.7314" fill="none" id="o1-to-o3" style="stroke:#181818;stroke-width:1;"/><polygon fill="#181818" points="1008.44,409.8083,998.6316,410.6998,1004.0735,412.2442,1002.5291,417.6862,1008.44,409.8083" style="stroke:#181818;stroke-width:1;"/><text fill="#000000" font-family="sans-serif" font-size="13" lengthAdjust="spacing" textLength="112.3027" x="727.17" y="487.9466">core:prescribedBy</text></g><!--link o3 to o4--><g class="link" data-entity-1="o3" data-entity-2="o4" data-source-line="61" data-uid="lnk22" id="link_o3_o4"><path codeLine="61" d="M1137.1,364.0583 C1170.54,355.1183 1201.01,346.9783 1201.01,346.9783 C1201.01,346.9783 1231.01,169.9783 1231.01,169.9783 C1231.01,169.9783 1488.01,106.9783 1488.01,106.9783 C1488.01,106.9783 1530.9907,99.849 1584.7707,90.939" fill="none" id="o3-to-o4" style="stroke:#181818;stroke-width:1;"/><polygon fill="#181818" points="1590.69,89.9583,1581.1572,87.4831,1585.7572,90.7755,1582.4648,95.3755,1590.69,89.9583" style="stroke:#181818;stroke-width:1;"/><text fill="#000000" font-family="sans-serif" font-size="13" lengthAdjust="spacing" textLength="225.0688" x="1232.01" y="111.3566">core:hasValueExpressionAtAllTimes</text></g><!--link o3 to o5--><g class="link" data-entity-1="o3" data-entity-2="o5" data-source-line="62" data-uid="lnk23" id="link_o3_o5"><path codeLine="62" d="M1137.1,364.0583 C1170.54,355.1183 1201.01,346.9783 1201.01,346.9783 C1201.01,346.9783 1231.01,247.9783 1231.01,247.9783 C1231.01,247.9783 1488.01,186.9783 1488.01,186.9783 C1488.01,186.9783 1530.9907,179.849 1584.7707,170.939" fill="none" id="o3-to-o5" style="stroke:#181818;stroke-width:1;"/><polygon fill="#181818" points="1590.69,169.9583,1581.1572,167.4831,1585.7572,170.7755,1582.4648,175.3755,1590.69,169.9583" style="stroke:#181818;stroke-width:1;"/><text fill="#000000" font-family="sans-serif" font-size="13" lengthAdjust="spacing" textLength="225.0688" x="1232.01" y="191.1066">core:hasValueExpressionAtAllTimes</text></g><!--link o3 to o6--><g class="link" data-entity-1="o3" data-entity-2="o6" data-source-line="63" data-uid="lnk24" id="link_o3_o6"><path codeLine="63" d="M1137.1,364.0583 C1170.54,355.1183 1201.01,346.9783 1201.01,346.9783 C1201.01,346.9783 1231.01,312.9783 1231.01,312.9783 C1231.01,312.9783 1488.01,266.9783 1488.01,266.9783 C1488.01,266.9783 1530.9907,259.849 1584.7707,250.939" fill="none" id="o3-to-o6" style="stroke:#181818;stroke-width:1;"/><polygon fill="#181818" points="1590.69,249.9583,1581.1572,247.4831,1585.7572,250.7755,1582.4648,255.3755,1590.69,249.9583" style="stroke:#181818;stroke-width:1;"/><text fill="#000000" font-family="sans-serif" font-size="13" lengthAdjust="spacing" textLength="225.0688" x="1232.01" y="269.2466">core:hasValueExpressionAtAllTimes</text></g><!--link o3 to o7--><g class="link" data-entity-1="o3" data-entity-2="o7" data-source-line="64" data-uid="lnk25" id="link_o3_o7"><path codeLine="64" d="M1164.87,371.1783 C1200.64,366.2083 1231.01,361.9783 1231.01,361.9783 C1231.01,361.9783 1378.6262,345.6865 1515.2662,330.6065" fill="none" id="o3-to-o7" style="stroke:#181818;stroke-width:1;"/><polygon fill="#181818" points="1521.23,329.9483,1511.8455,326.9597,1516.2602,330.4968,1512.7231,334.9114,1521.23,329.9483" style="stroke:#181818;stroke-width:1;"/><text fill="#000000" font-family="sans-serif" font-size="13" lengthAdjust="spacing" textLength="225.0688" x="1232.01" y="334.3366">core:hasValueExpressionAtAllTimes</text></g><!--link o3 to o8--><g class="link" data-entity-1="o3" data-entity-2="o8" data-source-line="65" data-uid="lnk26" id="link_o3_o8"><path codeLine="65" d="M1164.82,386.9783 C1260.94,386.9783 1395.34,386.9783 1512.06,386.9783" fill="none" id="o3-to-o8" style="stroke:#181818;stroke-width:1;"/><polygon fill="#181818" points="1518.06,386.9783,1509.06,382.9783,1513.06,386.9783,1509.06,390.9783,1518.06,386.9783" style="stroke:#181818;stroke-width:1;"/><text fill="#000000" font-family="sans-serif" font-size="13" lengthAdjust="spacing" textLength="225.0688" x="1232.01" y="383.5466">core:hasValueExpressionAtAllTimes</text></g><!--link o3 to o9--><g class="link" data-entity-1="o3" data-entity-2="o9" data-source-line="66" data-uid="lnk27" id="link_o3_o9"><path codeLine="66" d="M1164.87,402.7783 C1200.64,407.7583 1231.01,411.9783 1231.01,411.9783 C1231.01,411.9783 1378.6263,428.2697 1515.2663,443.3597" fill="none" id="o3-to-o9" style="stroke:#181818;stroke-width:1;"/><polygon fill="#181818" points="1521.23,444.0183,1512.7235,439.0545,1516.2602,443.4694,1511.8453,447.0062,1521.23,444.0183" style="stroke:#181818;stroke-width:1;"/><text fill="#000000" font-family="sans-serif" font-size="13" lengthAdjust="spacing" textLength="225.0688" x="1232.01" y="408.5466">core:hasValueExpressionAtAllTimes</text></g><!--link o3 to o10--><g class="link" data-entity-1="o3" data-entity-2="o10" data-source-line="67" data-uid="lnk28" id="link_o3_o10"><path codeLine="67" d="M1106.71,409.7883 C1159.5,431.5283 1231.01,460.9783 1231.01,460.9783 C1231.01,460.9783 1488.01,506.9783 1488.01,506.9783 C1488.01,506.9783 1530.9907,514.1076 1584.7707,523.0176" fill="none" id="o3-to-o10" style="stroke:#181818;stroke-width:1;"/><polygon fill="#181818" points="1590.69,523.9983,1582.4648,518.581,1585.7572,523.181,1581.1572,526.4735,1590.69,523.9983" style="stroke:#181818;stroke-width:1;"/><text fill="#000000" font-family="sans-serif" font-size="13" lengthAdjust="spacing" textLength="225.0688" x="1232.01" y="457.5466">core:hasValueExpressionAtAllTimes</text></g><!--link o1 to o11--><g class="link" data-entity-1="o1" data-entity-2="o11" data-source-line="68" data-uid="lnk29" id="link_o1_o11"><path codeLine="68" d="M666.97,653.4583 C746.35,647.9583 847.7843,640.9325 928.5643,635.3425" fill="none" id="o1-to-o11" style="stroke:#181818;stroke-width:1;"/><polygon fill="#181818" points="934.55,634.9283,925.2953,631.5591,929.5619,635.2735,925.8476,639.5401,934.55,634.9283" style="stroke:#181818;stroke-width:1;"/><text fill="#000000" font-family="sans-serif" font-size="13" lengthAdjust="spacing" textLength="74.7246" x="746.17" y="636.5066">ex:joinedTo</text></g><!--link o11 to o12--><g class="link" data-entity-1="o11" data-entity-2="o12" data-source-line="69" data-uid="lnk30" id="link_o11_o12"><path codeLine="69" d="M1165.96,626.9783 C1283.58,626.9783 1460.6,626.9783 1585.91,626.9783" fill="none" id="o11-to-o12" style="stroke:#181818;stroke-width:1;"/><polygon fill="#181818" points="1591.91,626.9783,1582.91,622.9783,1586.91,626.9783,1582.91,630.9783,1591.91,626.9783" style="stroke:#181818;stroke-width:1;"/><text fill="#000000" font-family="sans-serif" font-size="13" lengthAdjust="spacing" textLength="126.0771" x="1281.51" y="623.5466">cmns-dsg:hasName</text></g><!--link o11 to o13--><g class="link" data-entity-1="o11" data-entity-2="o13" data-source-line="70" data-uid="lnk31" id="link_o11_o13"><path codeLine="70" d="M1166.14,642.9583 C1201.35,647.8583 1231.01,651.9783 1231.01,651.9783 C1231.01,651.9783 1417.2662,672.54 1562.9362,688.62" fill="none" id="o11-to-o13" style="stroke:#181818;stroke-width:1;"/><polygon fill="#181818" points="1568.9,689.2783,1560.3932,684.315,1563.9302,688.7297,1559.5155,692.2667,1568.9,689.2783" style="stroke:#181818;stroke-width:1;"/><text fill="#000000" font-family="sans-serif" font-size="13" lengthAdjust="spacing" textLength="171.3169" x="1259.01" y="648.5466">core:measuresAtSomeTime</text></g><!--link o1 to o14--><g class="link" data-entity-1="o1" data-entity-2="o14" data-source-line="71" data-uid="lnk32" id="link_o1_o14"><path codeLine="71" d="M666.99,672.7583 C684.32,674.6383 696.67,675.9783 696.67,675.9783 C696.67,675.9783 832.353,687.9029 936.113,697.0229" fill="none" id="o1-to-o14" style="stroke:#181818;stroke-width:1;"/><polygon fill="#181818" points="942.09,697.5483,933.4748,692.7756,937.1092,697.1105,932.7743,700.7449,942.09,697.5483" style="stroke:#181818;stroke-width:1;"/><text fill="#000000" font-family="sans-serif" font-size="13" lengthAdjust="spacing" textLength="74.7246" x="746.17" y="672.5466">ex:joinedTo</text></g><!--link o14 to o15--><g class="link" data-entity-1="o14" data-entity-2="o15" data-source-line="72" data-uid="lnk33" id="link_o14_o15"><path codeLine="72" d="M1158.77,719.6583 C1278.25,733.7583 1465.2814,755.8251 1593.2314,770.9251" fill="none" id="o14-to-o15" style="stroke:#181818;stroke-width:1;"/><polygon fill="#181818" points="1599.19,771.6283,1590.7208,766.601,1594.2245,771.0423,1589.7832,774.5459,1599.19,771.6283" style="stroke:#181818;stroke-width:1;"/><text fill="#000000" font-family="sans-serif" font-size="13" lengthAdjust="spacing" textLength="126.0771" x="1281.51" y="725.0066">cmns-dsg:hasName</text></g><!--link o1 to o16--><g class="link" data-entity-1="o1" data-entity-2="o16" data-source-line="73" data-uid="lnk34" id="link_o1_o16"><path codeLine="73" d="M615.78,683.8283 C653.8,698.9383 696.67,715.9783 696.67,715.9783 C696.67,715.9783 826.4081,742.0938 929.4481,762.8438" fill="none" id="o1-to-o16" style="stroke:#181818;stroke-width:1;"/><polygon fill="#181818" points="935.33,764.0283,927.2968,758.3303,930.4284,763.0412,925.7175,766.1728,935.33,764.0283" style="stroke:#181818;stroke-width:1;"/><text fill="#000000" font-family="sans-serif" font-size="13" lengthAdjust="spacing" textLength="107.6309" x="729.67" y="712.5466">core:hasFunction</text></g><!--link o1 to o17--><g class="link" data-entity-1="o1" data-entity-2="o17" data-source-line="74" data-uid="lnk35" id="link_o1_o17"><path codeLine="74" d="M586.3,683.8483 C626.73,716.8683 696.67,773.9783 696.67,773.9783 C696.67,773.9783 852.3882,815.0488 956.8182,842.5788" fill="none" id="o1-to-o17" style="stroke:#181818;stroke-width:1;"/><polygon fill="#181818" points="962.62,844.1083,954.937,837.9462,957.7852,842.8337,952.8977,845.6819,962.62,844.1083" style="stroke:#181818;stroke-width:1;"/><text fill="#000000" font-family="sans-serif" font-size="13" lengthAdjust="spacing" textLength="171.3169" x="697.67" y="770.5466">core:measuresAtSomeTime</text></g><!--link o18 to o1--><g class="link" data-entity-1="o18" data-entity-2="o1" data-source-line="75" data-uid="lnk36" id="link_o18_o1"><path codeLine="75" d="M164.31,660.9783 C241.63,660.9783 354.85,660.9783 441.52,660.9783" fill="none" id="o18-to-o1" style="stroke:#181818;stroke-width:1;"/><polygon fill="#181818" points="447.52,660.9783,438.52,656.9783,442.52,660.9783,438.52,664.9783,447.52,660.9783" style="stroke:#181818;stroke-width:1;"/><text fill="#000000" font-family="sans-serif" font-size="13" lengthAdjust="spacing" textLength="222.5425" x="194.92" y="657.5466">obo:has member part at some time</text></g><!--SRC=[jPPVRzem5CNVyocileSj9Vnff4tA8EtG221WbRQggammuCwECzj8q6hVVNQI9Y45sg3o6D_3xzZ7kJU8FpYC88SK41mYkOqGY1ZPwWU3e8K4aW6Eboi9vfYZG68M6X9BWi3mnq_VhLcNTRlHDFjFji5cZqe0BkxkQf_AnTfAKWBcK4AdNBg_lm1G06Q1PmF46_W2qCRfgnr0xZFjEDaAYQW1_cKUUqbc22bAO9S5M413OSx5qXceyjiG4Q4WWTIB4CQHqqK2ByE94k053c0SnhjuPjyRt4o_cmD6SGX9WhVB-5j8riZRH1m9KG7T6tZk-E5wEEvufWytcAvfOj0uXm4ESuFcnnZSUlrXfpVzPOxTKQ-xUuRMUIoAfsX_iCLeFBmPkxxlbOvoTKQVudcipnMCNZKh2WF2n9gZGosR2RB6BNNkHF9r89NW-84oJg5jhHFxDcUfEH4X3hLzYYnsyT_8cUQ2epaysG_gyiIX5D9obe5zKWOffPX0u_J9jLY7yO1EIStTBOqu5bJDh22PgHqOmHacM6xV1aTCOFqR4weplOmlgxKRR1UBYC00KHJAOyaUI3HBihsxRHy6A_qnqaGBcEPNFToTF9eL574woQf-szNA1DE85Dxuk04KxxUTGUelSgq9E9wX-RUjePRZgbs0bRh7bIuXKqoHoDIDIkfc9NMhahfTINrLIQtcohlaQS1gB3Zw0X-Pkhxvb1bw9Qdily2id5qDHL0tjN3bX56ayJdTVaMtqqfZFpsj5jE_JXichxQEMhTJbHAn6TC4G16T8GxKNoW9e0H2YO5Kwly0]--></g></svg>