<svg xmlns="http://www.w3.org/2000/svg" xmlns:xlink="http://www.w3.org/1999/xlink" contentStyleType="text/css" data-diagram-type="CLASS" height="912px" preserveAspectRatio="none" style="width:1988px;height:912px;background:#FFFFFF;" version="1.1" viewBox="0 0 1988 912" width="1988px" zoomAndPan="magnify"><title>OKUMA.123456-LYI1</title><defs/><g><text fill="#000000" font-family="sans-serif" font-size="14" font-weight="bold" lengthAdjust="spacing" textLength="154.2324" x="909.9188" y="23.5352">OKUMA.123456-LYI1</text><g class="entity" data-entity="o1" data-source-line="4" data-uid="ent0002" id="entity_o1"><rect fill="#F1F1F1" height="44.9766" rx="2.5" ry="2.5" style="stroke:#181818;stroke-width:0.5;" width="218.7529" x="447.92" y="654.7283"/><a href="./OKUMA.123456-LYI1.html" target="_top" title="./OKUMA.123456-LYI1.html" xlink:actuate="onRequest" xlink:href="./OKUMA.123456-LYI1.html" xlink:show="new" xlink:title="./OKUMA.123456-LYI1.html" xlink:type="simple"><text fill="#0000FF" font-family="sans-serif" font-size="14" lengthAdjust="spacing" text-decoration="underline" textLength="180.0928" x="467.2501" y="670.2634">data:OKUMA.123456-LYI1</text></a><line style="stroke:#181818;stroke-width:0.5;" x1="448.92" x2="665.6729" y1="675.2166" y2="675.2166"/><text fill="#000000" font-family="sans-serif" font-size="14" lengthAdjust="spacing" textLength="206.7529" x="453.92" y="692.7517">type = ex:LinearMotionSystem</text></g><g class="entity" data-entity="o2" data-source-line="7" data-uid="ent0003" id="entity_o2"><rect fill="#F1F1F1" height="61.4648" rx="2.5" ry="2.5" style="stroke:#181818;stroke-width:0.5;" width="254.8535" x="925.28" y="340.4883"/><text fill="#000000" font-family="sans-serif" font-size="14" lengthAdjust="spacing" textLength="225.4834" x="939.9651" y="356.0234">data:OKUMA.123456-LYI1-name</text><line style="stroke:#181818;stroke-width:0.5;" x1="926.28" x2="1179.1335" y1="360.9766" y2="360.9766"/><text fill="#000000" font-family="sans-serif" font-size="14" lengthAdjust="spacing" textLength="161.3691" x="931.28" y="378.5117">type = cmns-dsg:Name</text><text fill="#000000" font-family="sans-serif" font-size="14" lengthAdjust="spacing" textLength="242.8535" x="931.28" y="395">core:hasSimpleExpressionValue = Y</text></g><g class="entity" data-entity="o3" data-source-line="10" data-uid="ent0004" id="entity_o3"><rect fill="#F1F1F1" height="44.9766" rx="2.5" ry="2.5" style="stroke:#181818;stroke-width:0.5;" width="233.1123" x="936.15" y="436.7283"/><text fill="#000000" font-family="sans-serif" font-size="14" lengthAdjust="spacing" textLength="219.1123" x="943.15" y="452.2634">data:OKUMA.123456-LYI1-spec</text><line style="stroke:#181818;stroke-width:0.5;" x1="937.15" x2="1168.2623" y1="457.2166" y2="457.2166"/><text fill="#000000" font-family="sans-serif" font-size="14" lengthAdjust="spacing" textLength="215.8037" x="942.15" y="474.7517">type = core:DesignSpecification</text></g><g class="entity" data-entity="o4" data-source-line="13" data-uid="ent0005" id="entity_o4"><rect fill="#F1F1F1" height="61.4648" rx="2.5" ry="2.5" style="stroke:#181818;stroke-width:0.5;" width="360.4932" x="1557.16" y="44.4883"/><text fill="#000000" font-family="sans-serif" font-size="14" lengthAdjust="spacing" textLength="346.4932" x="1564.16" y="60.0234">data:OKUMA.123456-LYI1-spec-LENGTH-Nominal</text><line style="stroke:#181818;stroke-width:0.5;" x1="1558.16" x2="1916.6532" y1="64.9766" y2="64.9766"/><text fill="#000000" font-family="sans-serif" font-size="14" lengthAdjust="spacing" textLength="194.4209" x="1563.16" y="82.5117">type = core:ValueExpression</text><text fill="#000000" font-family="sans-serif" font-size="14" lengthAdjust="spacing" textLength="273.9707" x="1563.16" y="99">core:hasSimpleExpressionValue = 650.0</text></g><g class="entity" data-entity="o5" data-source-line="16" data-uid="ent0006" id="entity_o5"><rect fill="#F1F1F1" height="61.4648" rx="2.5" ry="2.5" style="stroke:#181818;stroke-width:0.5;" width="416.0146" x="1529.4" y="140.4883"/><text fill="#000000" font-family="sans-serif" font-size="14" lengthAdjust="spacing" textLength="402.0146" x="1536.4" y="156.0234">data:OKUMA.123456-LYI1-spec-LINEAR_FORCE-Maximum</text><line style="stroke:#181818;stroke-width:0.5;" x1="1530.4" x2="1944.4146" y1="160.9766" y2="160.9766"/><text fill="#000000" font-family="sans-serif" font-size="14" lengthAdjust="spacing" textLength="194.4209" x="1535.4" y="178.5117">type = core:ValueExpression</text><text fill="#000000" font-family="sans-serif" font-size="14" lengthAdjust="spacing" textLength="282.8232" x="1535.4" y="195">core:hasSimpleExpressionValue = 5200.0</text></g><g class="entity" data-entity="o6" data-source-line="19" data-uid="ent0007" id="entity_o6"><rect fill="#F1F1F1" height="61.4648" rx="2.5" ry="2.5" style="stroke:#181818;stroke-width:0.5;" width="412.4326" x="1531.19" y="236.4883"/><text fill="#000000" font-family="sans-serif" font-size="14" lengthAdjust="spacing" textLength="398.4326" x="1538.19" y="252.0234">data:OKUMA.123456-LYI1-spec-LINEAR_FORCE-Minimum</text><line style="stroke:#181818;stroke-width:0.5;" x1="1532.19" x2="1942.6226" y1="256.9766" y2="256.9766"/><text fill="#000000" font-family="sans-serif" font-size="14" lengthAdjust="spacing" textLength="194.4209" x="1537.19" y="274.5117">type = core:ValueExpression</text><text fill="#000000" font-family="sans-serif" font-size="14" lengthAdjust="spacing" textLength="256.2656" x="1537.19" y="291">core:hasSimpleExpressionValue = 0.0</text></g><g class="entity" data-entity="o7" data-source-line="22" data-uid="ent0008" id="entity_o7"><rect fill="#F1F1F1" height="61.4648" rx="2.5" ry="2.5" style="stroke:#181818;stroke-width:0.5;" width="431.8125" x="1521.5" y="332.4883"/><text fill="#000000" font-family="sans-serif" font-size="14" lengthAdjust="spacing" textLength="417.8125" x="1528.5" y="348.0234">data:OKUMA.123456-LYI1-spec-VELOCITY-RAPID-Maximum</text><line style="stroke:#181818;stroke-width:0.5;" x1="1522.5" x2="1952.3125" y1="352.9766" y2="352.9766"/><text fill="#000000" font-family="sans-serif" font-size="14" lengthAdjust="spacing" textLength="194.4209" x="1527.5" y="370.5117">type = core:ValueExpression</text><text fill="#000000" font-family="sans-serif" font-size="14" lengthAdjust="spacing" textLength="282.8232" x="1527.5" y="387">core:hasSimpleExpressionValue = 7000.0</text></g><g class="entity" data-entity="o8" data-source-line="25" data-uid="ent0009" id="entity_o8"><rect fill="#F1F1F1" height="61.4648" rx="2.5" ry="2.5" style="stroke:#181818;stroke-width:0.5;" width="428.2305" x="1523.29" y="428.4883"/><text fill="#000000" font-family="sans-serif" font-size="14" lengthAdjust="spacing" textLength="414.2305" x="1530.29" y="444.0234">data:OKUMA.123456-LYI1-spec-VELOCITY-RAPID-Minimum</text><line style="stroke:#181818;stroke-width:0.5;" x1="1524.29" x2="1950.5205" y1="448.9766" y2="448.9766"/><text fill="#000000" font-family="sans-serif" font-size="14" lengthAdjust="spacing" textLength="194.4209" x="1529.29" y="466.5117">type = core:ValueExpression</text><text fill="#000000" font-family="sans-serif" font-size="14" lengthAdjust="spacing" textLength="256.2656" x="1529.29" y="483">core:hasSimpleExpressionValue = 1.0</text></g><g class="entity" data-entity="o9" data-source-line="28" data-uid="ent0010" id="entity_o9"><rect fill="#F1F1F1" height="61.4648" rx="2.5" ry="2.5" style="stroke:#181818;stroke-width:0.5;" width="489.3301" x="1492.74" y="524.4883"/><text fill="#000000" font-family="sans-serif" font-size="14" lengthAdjust="spacing" textLength="475.3301" x="1499.74" y="540.0234">data:OKUMA.123456-LYI1-spec-VELOCITY-PROGRAMMED-Maximum</text><line style="stroke:#181818;stroke-width:0.5;" x1="1493.74" x2="1981.0701" y1="544.9766" y2="544.9766"/><text fill="#000000" font-family="sans-serif" font-size="14" lengthAdjust="spacing" textLength="194.4209" x="1498.74" y="562.5117">type = core:ValueExpression</text><text fill="#000000" font-family="sans-serif" font-size="14" lengthAdjust="spacing" textLength="282.8232" x="1498.74" y="579">core:hasSimpleExpressionValue = 7000.0</text></g><g class="entity" data-entity="o10" data-source-line="31" data-uid="ent0011" id="entity_o10"><rect fill="#F1F1F1" height="61.4648" rx="2.5" ry="2.5" style="stroke:#181818;stroke-width:0.5;" width="485.748" x="1494.53" y="620.4883"/><text fill="#000000" font-family="sans-serif" font-size="14" lengthAdjust="spacing" textLength="471.748" x="1501.53" y="636.0234">data:OKUMA.123456-LYI1-spec-VELOCITY-PROGRAMMED-Minimum</text><line style="stroke:#181818;stroke-width:0.5;" x1="1495.53" x2="1979.278" y1="640.9766" y2="640.9766"/><text fill="#000000" font-family="sans-serif" font-size="14" lengthAdjust="spacing" textLength="194.4209" x="1500.53" y="658.5117">type = core:ValueExpression</text><text fill="#000000" font-family="sans-serif" font-size="14" lengthAdjust="spacing" textLength="256.2656" x="1500.53" y="675">core:hasSimpleExpressionValue = 1.0</text></g><g class="entity" data-entity="o11" data-source-line="34" data-uid="ent0012" id="entity_o11"><rect fill="#F1F1F1" height="44.9766" rx="2.5" ry="2.5" style="stroke:#181818;stroke-width:0.5;" width="208.1064" x="948.65" y="620.7283"/><a href="./OKUMA.123456-x_axis.html" target="_top" title="./OKUMA.123456-x_axis.html" xlink:actuate="onRequest" xlink:href="./OKUMA.123456-x_axis.html" xlink:show="new" xlink:title="./OKUMA.123456-x_axis.html" xlink:type="simple"><text fill="#0000FF" font-family="sans-serif" font-size="14" lengthAdjust="spacing" text-decoration="underline" textLength="194.1064" x="955.65" y="636.2634">data:OKUMA.123456-x_axis</text></a><line style="stroke:#181818;stroke-width:0.5;" x1="949.65" x2="1155.7564" y1="641.2166" y2="641.2166"/><text fill="#000000" font-family="sans-serif" font-size="14" lengthAdjust="spacing" textLength="131.7832" x="954.65" y="658.7517">type = ex:Structure</text></g><g class="entity" data-entity="o12" data-source-line="37" data-uid="ent0013" id="entity_o12"><rect fill="#F1F1F1" height="61.4648" rx="2.5" ry="2.5" style="stroke:#181818;stroke-width:0.5;" width="289.2178" x="1592.79" y="716.4883"/><text fill="#000000" font-family="sans-serif" font-size="14" lengthAdjust="spacing" textLength="239.4971" x="1617.6504" y="732.0234">data:OKUMA.123456-x_axis-name</text><line style="stroke:#181818;stroke-width:0.5;" x1="1593.79" x2="1881.0078" y1="736.9766" y2="736.9766"/><text fill="#000000" font-family="sans-serif" font-size="14" lengthAdjust="spacing" textLength="161.3691" x="1598.79" y="754.5117">type = cmns-dsg:Name</text><text fill="#000000" font-family="sans-serif" font-size="14" lengthAdjust="spacing" textLength="277.2178" x="1598.79" y="771">core:hasSimpleExpressionValue = x_axis</text></g><g class="entity" data-entity="o13" data-source-line="40" data-uid="ent0014" id="entity_o13"><rect fill="#F1F1F1" height="44.9766" rx="2.5" ry="2.5" style="stroke:#181818;stroke-width:0.5;" width="206.835" x="949.29" y="700.7283"/><a href="./OKUMA.123456-y_axis.html" target="_top" title="./OKUMA.123456-y_axis.html" xlink:actuate="onRequest" xlink:href="./OKUMA.123456-y_axis.html" xlink:show="new" xlink:title="./OKUMA.123456-y_axis.html" xlink:type="simple"><text fill="#0000FF" font-family="sans-serif" font-size="14" lengthAdjust="spacing" text-decoration="underline" textLength="192.835" x="956.29" y="716.2634">data:OKUMA.123456-y_axis</text></a><line style="stroke:#181818;stroke-width:0.5;" x1="950.29" x2="1155.125" y1="721.2166" y2="721.2166"/><text fill="#000000" font-family="sans-serif" font-size="14" lengthAdjust="spacing" textLength="131.7832" x="955.29" y="738.7517">type = ex:Structure</text></g><g class="entity" data-entity="o14" data-source-line="43" data-uid="ent0015" id="entity_o14"><rect fill="#F1F1F1" height="61.4648" rx="2.5" ry="2.5" style="stroke:#181818;stroke-width:0.5;" width="287.9463" x="1593.43" y="812.4883"/><text fill="#000000" font-family="sans-serif" font-size="14" lengthAdjust="spacing" textLength="238.2256" x="1618.2904" y="828.0234">data:OKUMA.123456-y_axis-name</text><line style="stroke:#181818;stroke-width:0.5;" x1="1594.43" x2="1880.3763" y1="832.9766" y2="832.9766"/><text fill="#000000" font-family="sans-serif" font-size="14" lengthAdjust="spacing" textLength="161.3691" x="1599.43" y="850.5117">type = cmns-dsg:Name</text><text fill="#000000" font-family="sans-serif" font-size="14" lengthAdjust="spacing" textLength="275.9463" x="1599.43" y="867">core:hasSimpleExpressionValue = y_axis</text></g><g class="entity" data-entity="o15" data-source-line="46" data-uid="ent0016" id="entity_o15"><rect fill="#F1F1F1" height="44.9766" rx="2.5" ry="2.5" style="stroke:#181818;stroke-width:0.5;" width="258.5654" x="923.42" y="780.7283"/><text fill="#000000" font-family="sans-serif" font-size="14" lengthAdjust="spacing" textLength="244.46" x="930.4727" y="796.2634">data:OKUMA.123456-LYI1-function</text><line style="stroke:#181818;stroke-width:0.5;" x1="924.42" x2="1180.9854" y1="801.2166" y2="801.2166"/><text fill="#000000" font-family="sans-serif" font-size="14" lengthAdjust="spacing" textLength="246.5654" x="929.42" y="818.7517">type = ex:PrismaticMotionCapability</text></g><g class="entity" data-entity="o16" data-source-line="49" data-uid="ent0017" id="entity_o16"><rect fill="#F1F1F1" height="44.9766" rx="2.5" ry="2.5" style="stroke:#181818;stroke-width:0.5;" width="306.0654" x="899.67" y="860.7283"/><text fill="#000000" font-family="sans-serif" font-size="14" lengthAdjust="spacing" textLength="292.0654" x="906.67" y="876.2634">data:OKUMA.123456-LYI1-position-actual</text><line style="stroke:#181818;stroke-width:0.5;" x1="900.67" x2="1204.7354" y1="881.2166" y2="881.2166"/><text fill="#000000" font-family="sans-serif" font-size="14" lengthAdjust="spacing" textLength="163.2285" x="905.67" y="898.7517">type = qp:Displacement</text></g><g class="entity" data-entity="o17" data-source-line="52" data-uid="ent0018" id="entity_o17"><rect fill="#F1F1F1" height="44.9766" rx="2.5" ry="2.5" style="stroke:#181818;stroke-width:0.5;" width="156.9189" x="7" y="654.7283"/><a href="./OKUMA.123456.html" target="_top" title="./OKUMA.123456.html" xlink:actuate="onRequest" xlink:href="./OKUMA.123456.html" xlink:show="new" xlink:title="./OKUMA.123456.html" xlink:type="simple"><text fill="#0000FF" font-family="sans-serif" font-size="14" lengthAdjust="spacing" text-decoration="underline" textLength="142.9189" x="14" y="670.2634">data:OKUMA.123456</text></a><line style="stroke:#181818;stroke-width:0.5;" x1="8" x2="162.9189" y1="675.2166" y2="675.2166"/><text fill="#000000" font-family="sans-serif" font-size="14" lengthAdjust="spacing" textLength="126.1504" x="13" y="692.7517">type = ex:Machine</text></g><!--link o1 to o2--><g class="link" data-entity-1="o1" data-entity-2="o2" data-source-line="55" data-uid="lnk19" id="link_o1_o2"><path codeLine="55" d="M578.12,654.2983 C616.38,610.0583 696.67,517.2183 696.67,517.2183 C696.67,517.2183 899.67,419.2183 899.67,419.2183 C899.67,419.2183 918.0885,413.405 947.1285,404.235" fill="none" id="o1-to-o2" style="stroke:#181818;stroke-width:1;"/><polygon fill="#181818" points="952.85,402.4283,943.0632,401.324,948.0821,403.9339,945.4722,408.9527,952.85,402.4283" style="stroke:#181818;stroke-width:1;"/><text fill="#000000" font-family="sans-serif" font-size="13" lengthAdjust="spacing" textLength="126.0771" x="720.17" y="432.2166">cmns-dsg:hasName</text></g><!--link o1 to o3--><g class="link" data-entity-1="o1" data-entity-2="o3" data-source-line="57" data-uid="lnk20" id="link_o1_o3"><path codeLine="57" d="M610.17,654.2983 C704.93,612.4383 899.5017,526.4629 994.3017,484.5829" fill="none" id="o1-to-o3" style="stroke:#181818;stroke-width:1;"/><polygon fill="#181818" points="999.79,482.1583,989.9412,482.1363,995.2164,484.1788,993.1739,489.454,999.79,482.1583" style="stroke:#181818;stroke-width:1;"/><text fill="#000000" font-family="sans-serif" font-size="13" lengthAdjust="spacing" textLength="112.3027" x="727.17" y="538.8466">core:prescribedBy</text></g><!--link o3 to o4--><g class="link" data-entity-1="o3" data-entity-2="o4" data-source-line="58" data-uid="lnk21" id="link_o3_o4"><path codeLine="58" d="M1140.82,436.2983 C1174.79,427.3583 1205.74,419.2183 1205.74,419.2183 C1205.74,419.2183 1235.74,204.2183 1235.74,204.2183 C1235.74,204.2183 1492.74,123.2183 1492.74,123.2183 C1492.74,123.2183 1525.5332,116.7582 1572.0732,107.5882" fill="none" id="o3-to-o4" style="stroke:#181818;stroke-width:1;"/><polygon fill="#181818" points="1577.96,106.4283,1568.3565,104.2436,1573.0543,107.3949,1569.903,112.0927,1577.96,106.4283" style="stroke:#181818;stroke-width:1;"/><text fill="#000000" font-family="sans-serif" font-size="13" lengthAdjust="spacing" textLength="225.0688" x="1236.74" y="129.8266">core:hasValueExpressionAtAllTimes</text></g><!--link o3 to o5--><g class="link" data-entity-1="o3" data-entity-2="o5" data-source-line="60" data-uid="lnk22" id="link_o3_o5"><path codeLine="60" d="M1140.82,436.2983 C1174.79,427.3583 1205.74,419.2183 1205.74,419.2183 C1205.74,419.2183 1235.74,298.2183 1235.74,298.2183 C1235.74,298.2183 1492.74,219.2183 1492.74,219.2183 C1492.74,219.2183 1525.5332,212.7582 1572.0732,203.5882" fill="none" id="o3-to-o5" style="stroke:#181818;stroke-width:1;"/><polygon fill="#181818" points="1577.96,202.4283,1568.3565,200.2436,1573.0543,203.3949,1569.903,208.0927,1577.96,202.4283" style="stroke:#181818;stroke-width:1;"/><text fill="#000000" font-family="sans-serif" font-size="13" lengthAdjust="spacing" textLength="225.0688" x="1236.74" y="225.5766">core:hasValueExpressionAtAllTimes</text></g><!--link o3 to o6--><g class="link" data-entity-1="o3" data-entity-2="o6" data-source-line="62" data-uid="lnk23" id="link_o3_o6"><path codeLine="62" d="M1140.82,436.2983 C1174.79,427.3583 1205.74,419.2183 1205.74,419.2183 C1205.74,419.2183 1235.74,377.2183 1235.74,377.2183 C1235.74,377.2183 1492.74,315.2183 1492.74,315.2183 C1492.74,315.2183 1525.5332,308.7582 1572.0732,299.5882" fill="none" id="o3-to-o6" style="stroke:#181818;stroke-width:1;"/><polygon fill="#181818" points="1577.96,298.4283,1568.3565,296.2436,1573.0543,299.3949,1569.903,304.0927,1577.96,298.4283" style="stroke:#181818;stroke-width:1;"/><text fill="#000000" font-family="sans-serif" font-size="13" lengthAdjust="spacing" textLength="225.0688" x="1236.74" y="319.4666">core:hasValueExpressionAtAllTimes</text></g><!--link o3 to o7--><g class="link" data-entity-1="o3" data-entity-2="o7" data-source-line="64" data-uid="lnk24" id="link_o3_o7"><path codeLine="64" d="M1169.51,442.9383 C1265.57,429.4283 1398.8185,410.6938 1515.2285,394.3238" fill="none" id="o3-to-o7" style="stroke:#181818;stroke-width:1;"/><polygon fill="#181818" points="1521.17,393.4883,1511.7007,390.7805,1516.2187,394.1845,1512.8147,398.7026,1521.17,393.4883" style="stroke:#181818;stroke-width:1;"/><text fill="#000000" font-family="sans-serif" font-size="13" lengthAdjust="spacing" textLength="225.0688" x="1236.74" y="399.1866">core:hasValueExpressionAtAllTimes</text></g><!--link o3 to o8--><g class="link" data-entity-1="o3" data-entity-2="o8" data-source-line="66" data-uid="lnk25" id="link_o3_o8"><path codeLine="66" d="M1169.51,459.2183 C1266.05,459.2183 1400.14,459.2183 1516.9,459.2183" fill="none" id="o3-to-o8" style="stroke:#181818;stroke-width:1;"/><polygon fill="#181818" points="1522.9,459.2183,1513.9,455.2183,1517.9,459.2183,1513.9,463.2183,1522.9,459.2183" style="stroke:#181818;stroke-width:1;"/><text fill="#000000" font-family="sans-serif" font-size="13" lengthAdjust="spacing" textLength="225.0688" x="1236.74" y="455.7866">core:hasValueExpressionAtAllTimes</text></g><!--link o3 to o9--><g class="link" data-entity-1="o3" data-entity-2="o9" data-source-line="68" data-uid="lnk26" id="link_o3_o9"><path codeLine="68" d="M1169.51,475.5083 C1263.76,488.7583 1393.5985,507.0126 1508.6385,523.1926" fill="none" id="o3-to-o9" style="stroke:#181818;stroke-width:1;"/><polygon fill="#181818" points="1514.58,524.0283,1506.2248,518.8138,1509.6287,523.3319,1505.1106,526.7358,1514.58,524.0283" style="stroke:#181818;stroke-width:1;"/><text fill="#000000" font-family="sans-serif" font-size="13" lengthAdjust="spacing" textLength="225.0688" x="1236.74" y="481.5366">core:hasValueExpressionAtAllTimes</text></g><!--link o3 to o10--><g class="link" data-entity-1="o3" data-entity-2="o10" data-source-line="70" data-uid="lnk27" id="link_o3_o10"><path codeLine="70" d="M1104.41,482.0583 C1158.27,506.3283 1235.74,541.2183 1235.74,541.2183 C1235.74,541.2183 1492.74,603.2183 1492.74,603.2183 C1492.74,603.2183 1525.5332,609.6784 1572.0732,618.8484" fill="none" id="o3-to-o10" style="stroke:#181818;stroke-width:1;"/><polygon fill="#181818" points="1577.96,620.0083,1569.903,614.3439,1573.0543,619.0417,1568.3565,622.193,1577.96,620.0083" style="stroke:#181818;stroke-width:1;"/><text fill="#000000" font-family="sans-serif" font-size="13" lengthAdjust="spacing" textLength="225.0688" x="1236.74" y="537.7866">core:hasValueExpressionAtAllTimes</text></g><!--link o1 to o11--><g class="link" data-entity-1="o1" data-entity-2="o11" data-source-line="72" data-uid="lnk28" id="link_o1_o11"><path codeLine="72" d="M666.88,669.7383 C750.73,663.9583 859.9842,656.4305 942.4642,650.7505" fill="none" id="o1-to-o11" style="stroke:#181818;stroke-width:1;"/><polygon fill="#181818" points="948.45,650.3383,939.1965,646.9661,943.4618,650.6818,939.7461,654.9472,948.45,650.3383" style="stroke:#181818;stroke-width:1;"/><text fill="#000000" font-family="sans-serif" font-size="13" lengthAdjust="spacing" textLength="74.7246" x="746.17" y="652.7466">ex:joinedTo</text></g><!--link o11 to o12--><g class="link" data-entity-1="o11" data-entity-2="o12" data-source-line="73" data-uid="lnk29" id="link_o11_o12"><path codeLine="73" d="M1140.82,666.1383 C1174.79,675.0783 1205.74,683.2183 1205.74,683.2183 C1205.74,683.2183 1235.74,711.2183 1235.74,711.2183 C1235.74,711.2183 1438.6855,725.8078 1586.6155,736.4478" fill="none" id="o11-to-o12" style="stroke:#181818;stroke-width:1;"/><polygon fill="#181818" points="1592.6,736.8783,1583.9102,732.2429,1587.6129,736.5196,1583.3362,740.2223,1592.6,736.8783" style="stroke:#181818;stroke-width:1;"/><text fill="#000000" font-family="sans-serif" font-size="13" lengthAdjust="spacing" textLength="126.0771" x="1286.24" y="707.7866">cmns-dsg:hasName</text></g><!--link o1 to o13--><g class="link" data-entity-1="o1" data-entity-2="o13" data-source-line="75" data-uid="lnk30" id="link_o1_o13"><path codeLine="75" d="M666.99,688.9983 C684.32,690.8783 696.67,692.2183 696.67,692.2183 C696.67,692.2183 838.1828,704.5761 943.0328,713.7361" fill="none" id="o1-to-o13" style="stroke:#181818;stroke-width:1;"/><polygon fill="#181818" points="949.01,714.2583,940.3923,709.4902,944.029,713.8231,939.696,717.4598,949.01,714.2583" style="stroke:#181818;stroke-width:1;"/><text fill="#000000" font-family="sans-serif" font-size="13" lengthAdjust="spacing" textLength="74.7246" x="746.17" y="688.7866">ex:joinedTo</text></g><!--link o13 to o14--><g class="link" data-entity-1="o13" data-entity-2="o14" data-source-line="76" data-uid="lnk31" id="link_o13_o14"><path codeLine="76" d="M1156.28,741.2483 C1272.42,761.6683 1456.5205,794.03 1587.2505,817" fill="none" id="o13-to-o14" style="stroke:#181818;stroke-width:1;"/><polygon fill="#181818" points="1593.16,818.0383,1584.988,812.5411,1588.2354,817.173,1583.6036,820.4204,1593.16,818.0383" style="stroke:#181818;stroke-width:1;"/><text fill="#000000" font-family="sans-serif" font-size="13" lengthAdjust="spacing" textLength="126.0771" x="1286.24" y="751.9666">cmns-dsg:hasName</text></g><!--link o1 to o15--><g class="link" data-entity-1="o1" data-entity-2="o15" data-source-line="78" data-uid="lnk32" id="link_o1_o15"><path codeLine="78" d="M615.78,700.0683 C653.8,715.1783 696.67,732.2183 696.67,732.2183 C696.67,732.2183 827.3166,758.3414 931.0466,779.0914" fill="none" id="o1-to-o15" style="stroke:#181818;stroke-width:1;"/><polygon fill="#181818" points="936.93,780.2683,928.8894,774.5806,932.0271,779.2875,927.3202,782.4252,936.93,780.2683" style="stroke:#181818;stroke-width:1;"/><text fill="#000000" font-family="sans-serif" font-size="13" lengthAdjust="spacing" textLength="107.6309" x="729.67" y="728.7866">core:hasFunction</text></g><!--link o1 to o16--><g class="link" data-entity-1="o1" data-entity-2="o16" data-source-line="79" data-uid="lnk33" id="link_o1_o16"><path codeLine="79" d="M586.3,700.0883 C626.73,733.1083 696.67,790.2183 696.67,790.2183 C696.67,790.2183 853.4757,831.2982 958.5957,858.8282" fill="none" id="o1-to-o16" style="stroke:#181818;stroke-width:1;"/><polygon fill="#181818" points="964.4,860.3483,956.707,854.1987,959.5631,859.0815,954.6802,861.9377,964.4,860.3483" style="stroke:#181818;stroke-width:1;"/><text fill="#000000" font-family="sans-serif" font-size="13" lengthAdjust="spacing" textLength="171.3169" x="697.67" y="786.7866">core:measuresAtSomeTime</text></g><!--link o17 to o1--><g class="link" data-entity-1="o17" data-entity-2="o1" data-source-line="80" data-uid="lnk34" id="link_o17_o1"><path codeLine="80" d="M164.31,677.2183 C241.63,677.2183 354.85,677.2183 441.52,677.2183" fill="none" id="o17-to-o1" style="stroke:#181818;stroke-width:1;"/><polygon fill="#181818" points="447.52,677.2183,438.52,673.2183,442.52,677.2183,438.52,681.2183,447.52,677.2183" style="stroke:#181818;stroke-width:1;"/><text fill="#000000" font-family="sans-serif" font-size="13" lengthAdjust="spacing" textLength="222.5425" x="194.92" y="673.7866">obo:has member part at some time</text></g><!--SRC=[jPPXRzem48Q_vrTO_Hv6W429j4aPf1qQ0GIi4gggoWG3xk8uYur4LEs_pquW90IOsSf7VCVpldUwEs0_SH3221BWum3nE4GWf7uiFsW-MdB0AOZmQit10aV8uvW66iVSHs3u_OThLunQlM4szVwiPsXq_YOomDtpS-LJALfPS-A31UJGAiLUNku0P80Qu5q3YOVF06sjlZ018vTAqKdCE28Q-9sfd4Rf0IGefTLoD8y4J5-mbJKGOGKA2v6NKkfv2esGrKKChuA9IC1BxC6a8sf0lUyC7gVVz04bE81-ocySyv-Wlq7EDemGOzUmUmF77hy-3CSTHtVX5fCDIHNCcoZWuA3G_2259wS_xFIcCtriZthTOXMj6sdawxZ_Q8tHUFWujbtNEIgcVKkXV4L6zGgbqjvkNuLfTcvpqsYskqVBE-7HnkERw2_Rba9oMsiehMt9QdpHQboqMlydgt79QkC_Bino4oJNT8SoYvP64MP4t1OllNuT6C8vzZ6F5SWXPLX-IOUYgFsPCV8x-YkqkfY5FlGGGG6_rDWp7SrQsIhwTg6tbZyTacW0NVyYpx1rQCuQigG_wQkSH_4omIJqSpEPZAZWpJ96VPyjKxm8pz7YQwo9voJQoB6EnjlcjkzFCK5CAwITasoQrKer0vjgO5C1RDQgUN9JZTnK8EUnBJLiIm7RgXOCtwkHxnN8HWxRLiEshpSiBfyIkf1tqV9k5iMXi-Ielr4nw8ifrUHB6ZazweRAhATty21IBudiwsgS5b6PxlX893-u3xjxT8XcmqSGPE8wCfjFA46oRvfS_3HB9D4vbGH049cZ28Y_ann03fX81bna_m40]--></g></svg>